<?xml version="1.0" encoding="UTF-8" standalone="no"?>
<!DOCTYPE svg PUBLIC "-//W3C//DTD SVG 1.1//EN"
 "http://www.w3.org/Graphics/SVG/1.1/DTD/svg11.dtd">
<!-- Generated by graphviz version 2.40.1 (20161225.0304)
 -->
<!-- Title: src/services/AudioMixer.hxx Pages: 1 -->
<svg width="1309pt" height="364pt"
 viewBox="0.00 0.00 1309.00 364.00" xmlns="http://www.w3.org/2000/svg" xmlns:xlink="http://www.w3.org/1999/xlink">
<g id="graph0" class="graph" transform="scale(1 1) rotate(0) translate(4 360)">
<title>src/services/AudioMixer.hxx</title>
<!-- Node0 -->
<g id="node1" class="node">
<title>Node0</title>
<polygon fill="#bfbfbf" stroke="#000000" points="511,-336.5 511,-355.5 663,-355.5 663,-336.5 511,-336.5"/>
<text text-anchor="middle" x="587" y="-343.5" font-family="Helvetica,sans-Serif" font-size="10.00" fill="#000000">src/services/AudioMixer.hxx</text>
</g>
<!-- Node1 -->
<g id="node2" class="node">
<title>Node1</title>
<polygon fill="none" stroke="#bfbfbf" points="0,-280.5 0,-299.5 42,-299.5 42,-280.5 0,-280.5"/>
<text text-anchor="middle" x="21" y="-287.5" font-family="Helvetica,sans-Serif" font-size="10.00" fill="#000000">array</text>
</g>
<!-- Node0&#45;&gt;Node1 -->
<g id="edge1" class="edge">
<title>Node0&#45;&gt;Node1</title>
<path fill="none" stroke="#191970" d="M510.8264,-341.6863C388.6196,-334.4047 153.0636,-318.7934 52.0563,-299.7109"/>
<polygon fill="#191970" stroke="#191970" points="52.627,-296.2559 42.1356,-297.7328 51.2581,-303.1208 52.627,-296.2559"/>
</g>
<!-- Node2 -->
<g id="node3" class="node">
<title>Node2</title>
<polygon fill="none" stroke="#bfbfbf" points="60,-280.5 60,-299.5 146,-299.5 146,-280.5 60,-280.5"/>
<text text-anchor="middle" x="103" y="-287.5" font-family="Helvetica,sans-Serif" font-size="10.00" fill="#000000">unordered_set</text>
</g>
<!-- Node0&#45;&gt;Node2 -->
<g id="edge2" class="edge">
<title>Node0&#45;&gt;Node2</title>
<path fill="none" stroke="#191970" d="M510.8351,-339.3323C425.2791,-331.4853 282.367,-317.3057 160,-300 158.741,-299.8219 157.4671,-299.637 156.1829,-299.4464"/>
<polygon fill="#191970" stroke="#191970" points="156.632,-295.9742 146.2121,-297.8914 155.5533,-302.8906 156.632,-295.9742"/>
</g>
<!-- Node3 -->
<g id="node4" class="node">
<title>Node3</title>
<polygon fill="none" stroke="#bfbfbf" points="453.5,-56.5 453.5,-75.5 500.5,-75.5 500.5,-56.5 453.5,-56.5"/>
<text text-anchor="middle" x="477" y="-63.5" font-family="Helvetica,sans-Serif" font-size="10.00" fill="#000000">vector</text>
</g>
<!-- Node0&#45;&gt;Node3 -->
<g id="edge3" class="edge">
<title>Node0&#45;&gt;Node3</title>
<path fill="none" stroke="#191970" d="M510.7681,-340.9142C391.4342,-330.8332 174,-302.9979 174,-234 174,-234 174,-234 174,-178 174,-121.1066 364.321,-84.0443 443.2884,-71.1151"/>
<polygon fill="#191970" stroke="#191970" points="443.9054,-74.561 453.2241,-69.52 442.7957,-67.6495 443.9054,-74.561"/>
</g>
<!-- Node4 -->
<g id="node5" class="node">
<title>Node4</title>
<polygon fill="none" stroke="#bfbfbf" points="558,-56.5 558,-75.5 616,-75.5 616,-56.5 558,-56.5"/>
<text text-anchor="middle" x="587" y="-63.5" font-family="Helvetica,sans-Serif" font-size="10.00" fill="#000000">memory</text>
</g>
<!-- Node0&#45;&gt;Node4 -->
<g id="edge4" class="edge">
<title>Node0&#45;&gt;Node4</title>
<path fill="none" stroke="#191970" d="M556.2344,-336.4789C538.5573,-329.3448 517.6193,-317.7146 506,-300 473.6908,-250.7421 472.7176,-222.9298 494,-168 508.2023,-131.3439 542.3904,-99.783 565.1191,-81.8389"/>
<polygon fill="#191970" stroke="#191970" points="567.3932,-84.5057 573.2034,-75.6461 563.1364,-78.9487 567.3932,-84.5057"/>
</g>
<!-- Node5 -->
<g id="node6" class="node">
<title>Node5</title>
<polygon fill="none" stroke="#bfbfbf" points="389,-280.5 389,-299.5 421,-299.5 421,-280.5 389,-280.5"/>
<text text-anchor="middle" x="405" y="-287.5" font-family="Helvetica,sans-Serif" font-size="10.00" fill="#000000">list</text>
</g>
<!-- Node0&#45;&gt;Node5 -->
<g id="edge5" class="edge">
<title>Node0&#45;&gt;Node5</title>
<path fill="none" stroke="#191970" d="M554.599,-336.4792C523.7704,-327.3532 476.1204,-313.0728 435,-300 433.5939,-299.553 432.1524,-299.0896 430.6984,-298.6182"/>
<polygon fill="#191970" stroke="#191970" points="431.7582,-295.2824 421.1652,-295.4802 429.5695,-301.9315 431.7582,-295.2824"/>
</g>
<!-- Node6 -->
<g id="node7" class="node">
<title>Node6</title>
<g id="a_node7"><a xlink:href="AudioEvents_8hxx.html" target="_top" xlink:title="../events/AudioEvents.hxx">
<polygon fill="none" stroke="#000000" points="515.5,-280.5 515.5,-299.5 658.5,-299.5 658.5,-280.5 515.5,-280.5"/>
<text text-anchor="middle" x="587" y="-287.5" font-family="Helvetica,sans-Serif" font-size="10.00" fill="#000000">../events/AudioEvents.hxx</text>
</a>
</g>
</g>
<!-- Node0&#45;&gt;Node6 -->
<g id="edge6" class="edge">
<title>Node0&#45;&gt;Node6</title>
<path fill="none" stroke="#191970" d="M587,-336.2455C587,-328.9382 587,-318.6944 587,-309.7046"/>
<polygon fill="#191970" stroke="#191970" points="590.5001,-309.6426 587,-299.6427 583.5001,-309.6427 590.5001,-309.6426"/>
</g>
<!-- Node7 -->
<g id="node8" class="node">
<title>Node7</title>
<g id="a_node8"><a xlink:href="Soundtrack_8hxx.html" target="_top" xlink:title="../engine/audio/Soundtrack.hxx">
<polygon fill="none" stroke="#000000" points="503.5,-168.5 503.5,-187.5 670.5,-187.5 670.5,-168.5 503.5,-168.5"/>
<text text-anchor="middle" x="587" y="-175.5" font-family="Helvetica,sans-Serif" font-size="10.00" fill="#000000">../engine/audio/Soundtrack.hxx</text>
</a>
</g>
</g>
<!-- Node0&#45;&gt;Node7 -->
<g id="edge24" class="edge">
<title>Node0&#45;&gt;Node7</title>
<path fill="none" stroke="#191970" d="M618.89,-336.4777C636.4177,-329.43 656.6505,-317.8893 667,-300 671.4512,-292.3059 669.9018,-288.4019 667,-280 654.9249,-245.0379 625.38,-212.9256 605.7742,-194.4146"/>
<polygon fill="#191970" stroke="#191970" points="608.0433,-191.7466 598.3081,-187.566 603.3115,-196.9051 608.0433,-191.7466"/>
</g>
<!-- Node9 -->
<g id="node10" class="node">
<title>Node9</title>
<g id="a_node10"><a xlink:href="Meta_8hxx.html" target="_top" xlink:title="../../util/Meta.hxx">
<polygon fill="none" stroke="#000000" points="936,-56.5 936,-75.5 1034,-75.5 1034,-56.5 936,-56.5"/>
<text text-anchor="middle" x="985" y="-63.5" font-family="Helvetica,sans-Serif" font-size="10.00" fill="#000000">../../util/Meta.hxx</text>
</a>
</g>
</g>
<!-- Node0&#45;&gt;Node9 -->
<g id="edge38" class="edge">
<title>Node0&#45;&gt;Node9</title>
<path fill="none" stroke="#191970" d="M663.0951,-340.0184C753.9469,-332.2482 900.1293,-317.5771 952,-300 998.7823,-284.1471 1023.3981,-286.8328 1048,-244 1064.0166,-216.1144 1088.6181,-235.5407 1027,-112 1021.5134,-100.9997 1012.6184,-90.6988 1004.4236,-82.6451"/>
<polygon fill="#191970" stroke="#191970" points="1006.6217,-79.9097 996.9154,-75.6626 1001.8546,-85.0356 1006.6217,-79.9097"/>
</g>
<!-- Node14 -->
<g id="node15" class="node">
<title>Node14</title>
<polygon fill="none" stroke="#bfbfbf" points="281,-112.5 281,-131.5 331,-131.5 331,-112.5 281,-112.5"/>
<text text-anchor="middle" x="306" y="-119.5" font-family="Helvetica,sans-Serif" font-size="10.00" fill="#000000">AL/al.h</text>
</g>
<!-- Node0&#45;&gt;Node14 -->
<g id="edge39" class="edge">
<title>Node0&#45;&gt;Node14</title>
<path fill="none" stroke="#191970" d="M510.9531,-336.614C443.4067,-324.8977 345.2458,-299.1984 278,-244 247.3024,-218.802 211.6011,-202.655 231,-168 239.7737,-152.3263 256.3122,-141.3459 271.6307,-134.0543"/>
<polygon fill="#191970" stroke="#191970" points="273.1743,-137.1993 280.9307,-129.9819 270.3665,-130.7871 273.1743,-137.1993"/>
</g>
<!-- Node15 -->
<g id="node16" class="node">
<title>Node15</title>
<polygon fill="none" stroke="#bfbfbf" points="662.5,-112.5 662.5,-131.5 717.5,-131.5 717.5,-112.5 662.5,-112.5"/>
<text text-anchor="middle" x="690" y="-119.5" font-family="Helvetica,sans-Serif" font-size="10.00" fill="#000000">AL/alc.h</text>
</g>
<!-- Node0&#45;&gt;Node15 -->
<g id="edge40" class="edge">
<title>Node0&#45;&gt;Node15</title>
<path fill="none" stroke="#191970" d="M613.5636,-336.4914C662.2321,-317.3521 763.8392,-268.9543 798,-188 801.4558,-179.8104 802.9016,-175.4153 798,-168 789.7427,-155.5079 755.3776,-142.1999 727.5991,-133.129"/>
<polygon fill="#191970" stroke="#191970" points="728.314,-129.6837 717.7236,-129.9881 726.1924,-136.3544 728.314,-129.6837"/>
</g>
<!-- Node16 -->
<g id="node17" class="node">
<title>Node16</title>
<g id="a_node17"><a xlink:href="AudioConfig_8hxx.html" target="_top" xlink:title="../engine/audio/AudioConfig.hxx">
<polygon fill="none" stroke="#000000" points="287.5,-224.5 287.5,-243.5 458.5,-243.5 458.5,-224.5 287.5,-224.5"/>
<text text-anchor="middle" x="373" y="-231.5" font-family="Helvetica,sans-Serif" font-size="10.00" fill="#000000">../engine/audio/AudioConfig.hxx</text>
</a>
</g>
</g>
<!-- Node0&#45;&gt;Node16 -->
<g id="edge25" class="edge">
<title>Node0&#45;&gt;Node16</title>
<path fill="none" stroke="#191970" d="M558.6576,-336.3564C535.1549,-327.9396 501.1555,-314.7817 473,-300 444.4111,-284.9907 413.7257,-263.9174 393.9973,-249.6524"/>
<polygon fill="#191970" stroke="#191970" points="395.8892,-246.6999 385.7509,-243.6235 391.7579,-252.3508 395.8892,-246.6999"/>
</g>
<!-- Node20 -->
<g id="node21" class="node">
<title>Node20</title>
<g id="a_node21"><a xlink:href="GameService_8hxx.html" target="_top" xlink:title="../GameService.hxx">
<polygon fill="none" stroke="#000000" points="831,-280.5 831,-299.5 943,-299.5 943,-280.5 831,-280.5"/>
<text text-anchor="middle" x="887" y="-287.5" font-family="Helvetica,sans-Serif" font-size="10.00" fill="#000000">../GameService.hxx</text>
</a>
</g>
</g>
<!-- Node0&#45;&gt;Node20 -->
<g id="edge26" class="edge">
<title>Node0&#45;&gt;Node20</title>
<path fill="none" stroke="#191970" d="M638.231,-336.4369C690.2208,-326.7321 770.7073,-311.708 825.9681,-301.3926"/>
<polygon fill="#191970" stroke="#191970" points="826.7924,-304.7993 835.9803,-299.5237 825.5079,-297.9182 826.7924,-304.7993"/>
</g>
<!-- Node26 -->
<g id="node27" class="node">
<title>Node26</title>
<polygon fill="none" stroke="#bfbfbf" points="1047.5,-280.5 1047.5,-299.5 1112.5,-299.5 1112.5,-280.5 1047.5,-280.5"/>
<text text-anchor="middle" x="1080" y="-287.5" font-family="Helvetica,sans-Serif" font-size="10.00" fill="#000000">AL/alext.h</text>
</g>
<!-- Node0&#45;&gt;Node26 -->
<g id="edge41" class="edge">
<title>Node0&#45;&gt;Node26</title>
<path fill="none" stroke="#191970" d="M663.0778,-340.6424C752.1118,-333.7976 903.8189,-320.3448 1033,-300 1034.4679,-299.7688 1035.9591,-299.5214 1037.4631,-299.2611"/>
<polygon fill="#191970" stroke="#191970" points="1038.2804,-302.6691 1047.4677,-297.3924 1036.9951,-295.7881 1038.2804,-302.6691"/>
</g>
<!-- Node27 -->
<g id="node28" class="node">
<title>Node27</title>
<polygon fill="none" stroke="#bfbfbf" points="1131,-280.5 1131,-299.5 1187,-299.5 1187,-280.5 1131,-280.5"/>
<text text-anchor="middle" x="1159" y="-287.5" font-family="Helvetica,sans-Serif" font-size="10.00" fill="#000000">AL/efx.h</text>
</g>
<!-- Node0&#45;&gt;Node27 -->
<g id="edge42" class="edge">
<title>Node0&#45;&gt;Node27</title>
<path fill="none" stroke="#191970" d="M663.3042,-343.7114C765.5623,-339.6944 952.7077,-329.0141 1120.8124,-299.9276"/>
<polygon fill="#191970" stroke="#191970" points="1121.5912,-303.3445 1130.835,-298.1674 1120.3803,-296.45 1121.5912,-303.3445"/>
</g>
<!-- Node28 -->
<g id="node29" class="node">
<title>Node28</title>
<polygon fill="none" stroke="#bfbfbf" points="1205,-280.5 1205,-299.5 1301,-299.5 1301,-280.5 1205,-280.5"/>
<text text-anchor="middle" x="1253" y="-287.5" font-family="Helvetica,sans-Serif" font-size="10.00" fill="#000000">AL/efx&#45;presets.h</text>
</g>
<!-- Node0&#45;&gt;Node28 -->
<g id="edge43" class="edge">
<title>Node0&#45;&gt;Node28</title>
<path fill="none" stroke="#191970" d="M663.1939,-342.6534C776.8209,-337.1281 997.5617,-324.3374 1194.8757,-300.0313"/>
<polygon fill="#191970" stroke="#191970" points="1195.3568,-303.4985 1204.8481,-298.7904 1194.4924,-296.5521 1195.3568,-303.4985"/>
</g>
<!-- Node6&#45;&gt;Node7 -->
<g id="edge7" class="edge">
<title>Node6&#45;&gt;Node7</title>
<path fill="none" stroke="#191970" d="M587,-280.4509C587,-262.184 587,-221.9553 587,-197.6976"/>
<polygon fill="#191970" stroke="#191970" points="590.5001,-197.5249 587,-187.5249 583.5001,-197.5249 590.5001,-197.5249"/>
</g>
<!-- Node6&#45;&gt;Node16 -->
<g id="edge18" class="edge">
<title>Node6&#45;&gt;Node16</title>
<path fill="none" stroke="#191970" d="M550.2121,-280.3733C513.9339,-270.8799 458.3764,-256.3415 419.1554,-246.0781"/>
<polygon fill="#191970" stroke="#191970" points="419.8682,-242.6468 409.3079,-243.5011 418.096,-249.4188 419.8682,-242.6468"/>
</g>
<!-- Node7&#45;&gt;Node3 -->
<g id="edge17" class="edge">
<title>Node7&#45;&gt;Node3</title>
<path fill="none" stroke="#191970" d="M577.6215,-168.4509C558.9501,-149.4401 516.9166,-106.6423 493.5158,-82.816"/>
<polygon fill="#191970" stroke="#191970" points="495.859,-80.2069 486.3548,-75.5249 490.8648,-85.1119 495.859,-80.2069"/>
</g>
<!-- Node7&#45;&gt;Node4 -->
<g id="edge8" class="edge">
<title>Node7&#45;&gt;Node4</title>
<path fill="none" stroke="#191970" d="M587,-168.4509C587,-150.184 587,-109.9553 587,-85.6976"/>
<polygon fill="#191970" stroke="#191970" points="590.5001,-85.5249 587,-75.5249 583.5001,-85.5249 590.5001,-85.5249"/>
</g>
<!-- Node8 -->
<g id="node9" class="node">
<title>Node8</title>
<polygon fill="none" stroke="#bfbfbf" points="740,-112.5 740,-131.5 784,-131.5 784,-112.5 740,-112.5"/>
<text text-anchor="middle" x="762" y="-119.5" font-family="Helvetica,sans-Serif" font-size="10.00" fill="#000000">string</text>
</g>
<!-- Node7&#45;&gt;Node8 -->
<g id="edge9" class="edge">
<title>Node7&#45;&gt;Node8</title>
<path fill="none" stroke="#191970" d="M617.0836,-168.3733C648.5643,-158.2994 697.7978,-142.5447 729.9831,-132.2454"/>
<polygon fill="#191970" stroke="#191970" points="731.3322,-135.4886 739.7897,-129.1073 729.1987,-128.8216 731.3322,-135.4886"/>
</g>
<!-- Node7&#45;&gt;Node9 -->
<g id="edge10" class="edge">
<title>Node7&#45;&gt;Node9</title>
<path fill="none" stroke="#191970" d="M593.3902,-168.4255C603.8875,-153.5646 626.3034,-125.278 653,-112 699.654,-88.7959 843.5133,-75.5452 925.7413,-69.6778"/>
<polygon fill="#191970" stroke="#191970" points="926.2095,-73.1537 935.9413,-68.9653 925.7217,-66.1708 926.2095,-73.1537"/>
</g>
<!-- Node7&#45;&gt;Node14 -->
<g id="edge15" class="edge">
<title>Node7&#45;&gt;Node14</title>
<path fill="none" stroke="#191970" d="M539.0137,-168.4369C482.8181,-157.2378 391.0779,-138.955 341.1206,-128.9991"/>
<polygon fill="#191970" stroke="#191970" points="341.6135,-125.5286 331.1223,-127.0066 340.2453,-132.3936 341.6135,-125.5286"/>
</g>
<!-- Node7&#45;&gt;Node15 -->
<g id="edge16" class="edge">
<title>Node7&#45;&gt;Node15</title>
<path fill="none" stroke="#191970" d="M604.9412,-168.2455C621.04,-159.4928 644.8879,-146.527 663.2391,-136.5496"/>
<polygon fill="#191970" stroke="#191970" points="665.1507,-139.4942 672.2644,-131.6427 661.8071,-133.3444 665.1507,-139.4942"/>
</g>
<!-- Node10 -->
<g id="node11" class="node">
<title>Node10</title>
<polygon fill="none" stroke="#bfbfbf" points="833,-.5 833,-19.5 893,-19.5 893,-.5 833,-.5"/>
<text text-anchor="middle" x="863" y="-7.5" font-family="Helvetica,sans-Serif" font-size="10.00" fill="#000000">iostream</text>
</g>
<!-- Node9&#45;&gt;Node10 -->
<g id="edge11" class="edge">
<title>Node9&#45;&gt;Node10</title>
<path fill="none" stroke="#191970" d="M964.0275,-56.3733C944.4433,-47.3838 915.0039,-33.8706 892.949,-23.7471"/>
<polygon fill="#191970" stroke="#191970" points="894.2473,-20.4919 883.6989,-19.5011 891.3271,-26.8538 894.2473,-20.4919"/>
</g>
<!-- Node11 -->
<g id="node12" class="node">
<title>Node11</title>
<polygon fill="none" stroke="#bfbfbf" points="911.5,-.5 911.5,-19.5 980.5,-19.5 980.5,-.5 911.5,-.5"/>
<text text-anchor="middle" x="946" y="-7.5" font-family="Helvetica,sans-Serif" font-size="10.00" fill="#000000">type_traits</text>
</g>
<!-- Node9&#45;&gt;Node11 -->
<g id="edge12" class="edge">
<title>Node9&#45;&gt;Node11</title>
<path fill="none" stroke="#191970" d="M978.2067,-56.2455C972.7822,-48.4564 965.0339,-37.3308 958.4967,-27.9439"/>
<polygon fill="#191970" stroke="#191970" points="961.3025,-25.8485 952.7154,-19.6427 955.5583,-29.849 961.3025,-25.8485"/>
</g>
<!-- Node12 -->
<g id="node13" class="node">
<title>Node12</title>
<polygon fill="none" stroke="#bfbfbf" points="998.5,-.5 998.5,-19.5 1049.5,-19.5 1049.5,-.5 998.5,-.5"/>
<text text-anchor="middle" x="1024" y="-7.5" font-family="Helvetica,sans-Serif" font-size="10.00" fill="#000000">variant</text>
</g>
<!-- Node9&#45;&gt;Node12 -->
<g id="edge13" class="edge">
<title>Node9&#45;&gt;Node12</title>
<path fill="none" stroke="#191970" d="M991.7933,-56.2455C997.2178,-48.4564 1004.9661,-37.3308 1011.5033,-27.9439"/>
<polygon fill="#191970" stroke="#191970" points="1014.4417,-29.849 1017.2846,-19.6427 1008.6975,-25.8485 1014.4417,-29.849"/>
</g>
<!-- Node13 -->
<g id="node14" class="node">
<title>Node13</title>
<polygon fill="none" stroke="#bfbfbf" points="1067.5,-.5 1067.5,-19.5 1108.5,-19.5 1108.5,-.5 1067.5,-.5"/>
<text text-anchor="middle" x="1088" y="-7.5" font-family="Helvetica,sans-Serif" font-size="10.00" fill="#000000">tuple</text>
</g>
<!-- Node9&#45;&gt;Node13 -->
<g id="edge14" class="edge">
<title>Node9&#45;&gt;Node13</title>
<path fill="none" stroke="#191970" d="M1002.9412,-56.2455C1019.04,-47.4928 1042.8879,-34.527 1061.2391,-24.5496"/>
<polygon fill="#191970" stroke="#191970" points="1063.1507,-27.4942 1070.2644,-19.6427 1059.8071,-21.3444 1063.1507,-27.4942"/>
</g>
<!-- Node16&#45;&gt;Node3 -->
<g id="edge21" class="edge">
<title>Node16&#45;&gt;Node3</title>
<path fill="none" stroke="#191970" d="M384.7059,-224.3373C394.7404,-215.6126 409.1011,-202.0256 419,-188 442.5472,-154.6364 460.895,-110.217 470.2225,-85.217"/>
<polygon fill="#191970" stroke="#191970" points="473.5258,-86.3745 473.6567,-75.7804 466.9479,-83.9806 473.5258,-86.3745"/>
</g>
<!-- Node16&#45;&gt;Node7 -->
<g id="edge19" class="edge">
<title>Node16&#45;&gt;Node7</title>
<path fill="none" stroke="#191970" d="M409.7879,-224.3733C446.0661,-214.8799 501.6236,-200.3415 540.8446,-190.0781"/>
<polygon fill="#191970" stroke="#191970" points="541.904,-193.4188 550.6921,-187.5011 540.1318,-186.6468 541.904,-193.4188"/>
</g>
<!-- Node17 -->
<g id="node18" class="node">
<title>Node17</title>
<polygon fill="none" stroke="#bfbfbf" points="240.5,-168.5 240.5,-187.5 333.5,-187.5 333.5,-168.5 240.5,-168.5"/>
<text text-anchor="middle" x="287" y="-175.5" font-family="Helvetica,sans-Serif" font-size="10.00" fill="#000000">unordered_map</text>
</g>
<!-- Node16&#45;&gt;Node17 -->
<g id="edge20" class="edge">
<title>Node16&#45;&gt;Node17</title>
<path fill="none" stroke="#191970" d="M358.0199,-224.2455C344.8249,-215.6534 325.3949,-203.0014 310.1921,-193.1018"/>
<polygon fill="#191970" stroke="#191970" points="312.0983,-190.1665 301.8084,-187.6427 308.2785,-196.0325 312.0983,-190.1665"/>
</g>
<!-- Node18 -->
<g id="node19" class="node">
<title>Node18</title>
<polygon fill="none" stroke="#bfbfbf" points="689,-168.5 689,-187.5 789,-187.5 789,-168.5 689,-168.5"/>
<text text-anchor="middle" x="739" y="-175.5" font-family="Helvetica,sans-Serif" font-size="10.00" fill="#000000">betterEnums.hxx</text>
</g>
<!-- Node16&#45;&gt;Node18 -->
<g id="edge22" class="edge">
<title>Node16&#45;&gt;Node18</title>
<path fill="none" stroke="#191970" d="M438.4093,-224.4753C500.3979,-215.3759 596.0943,-201.1394 679,-188 679.101,-187.984 679.2022,-187.968 679.3034,-187.9519"/>
<polygon fill="#191970" stroke="#191970" points="679.6007,-191.4491 688.9194,-186.4081 678.491,-184.5376 679.6007,-191.4491"/>
</g>
<!-- Node19 -->
<g id="node20" class="node">
<title>Node19</title>
<polygon fill="none" stroke="#bfbfbf" points="352,-168.5 352,-187.5 410,-187.5 410,-168.5 352,-168.5"/>
<text text-anchor="middle" x="381" y="-175.5" font-family="Helvetica,sans-Serif" font-size="10.00" fill="#000000">json.hxx</text>
</g>
<!-- Node16&#45;&gt;Node19 -->
<g id="edge23" class="edge">
<title>Node16&#45;&gt;Node19</title>
<path fill="none" stroke="#191970" d="M374.3935,-224.2455C375.4374,-216.9382 376.9008,-206.6944 378.1851,-197.7046"/>
<polygon fill="#191970" stroke="#191970" points="381.673,-198.0372 379.6225,-187.6427 374.7434,-197.0472 381.673,-198.0372"/>
</g>
<!-- Node21 -->
<g id="node22" class="node">
<title>Node21</title>
<g id="a_node22"><a xlink:href="Events_8hxx.html" target="_top" xlink:title="Events.hxx">
<polygon fill="none" stroke="#000000" points="831.5,-224.5 831.5,-243.5 902.5,-243.5 902.5,-224.5 831.5,-224.5"/>
<text text-anchor="middle" x="867" y="-231.5" font-family="Helvetica,sans-Serif" font-size="10.00" fill="#000000">Events.hxx</text>
</a>
</g>
</g>
<!-- Node20&#45;&gt;Node21 -->
<g id="edge27" class="edge">
<title>Node20&#45;&gt;Node21</title>
<path fill="none" stroke="#191970" d="M883.5163,-280.2455C880.8492,-272.7776 877.0867,-262.2427 873.8263,-253.1137"/>
<polygon fill="#191970" stroke="#191970" points="877.1033,-251.8829 870.4438,-243.6427 870.5111,-254.2373 877.1033,-251.8829"/>
</g>
<!-- Node25 -->
<g id="node26" class="node">
<title>Node25</title>
<g id="a_node26"><a xlink:href="GameService_8inl_8hxx.html" target="_top" xlink:title="GameService.inl.hxx">
<polygon fill="none" stroke="#000000" points="921,-224.5 921,-243.5 1039,-243.5 1039,-224.5 921,-224.5"/>
<text text-anchor="middle" x="980" y="-231.5" font-family="Helvetica,sans-Serif" font-size="10.00" fill="#000000">GameService.inl.hxx</text>
</a>
</g>
</g>
<!-- Node20&#45;&gt;Node25 -->
<g id="edge37" class="edge">
<title>Node20&#45;&gt;Node25</title>
<path fill="none" stroke="#191970" d="M903.1994,-280.2455C917.6018,-271.5731 938.8732,-258.7645 955.3799,-248.825"/>
<polygon fill="#191970" stroke="#191970" points="957.225,-251.7996 963.9863,-243.6427 953.614,-245.8028 957.225,-251.7996"/>
</g>
<!-- Node21&#45;&gt;Node8 -->
<g id="edge28" class="edge">
<title>Node21&#45;&gt;Node8</title>
<path fill="none" stroke="#191970" d="M863.3784,-224.126C857.9619,-210.3529 846.6838,-185.1398 831,-168 819.4706,-155.4003 803.8105,-144.6003 790.3234,-136.6376"/>
<polygon fill="#191970" stroke="#191970" points="791.8373,-133.4727 781.4108,-131.591 788.3881,-139.564 791.8373,-133.4727"/>
</g>
<!-- Node21&#45;&gt;Node9 -->
<g id="edge30" class="edge">
<title>Node21&#45;&gt;Node9</title>
<path fill="none" stroke="#191970" d="M902.7166,-224.8526C942.9119,-214.2013 1003.4912,-196.931 1010,-188 1032.6958,-156.8581 1011.6716,-109.9441 996.8033,-84.3143"/>
<polygon fill="#191970" stroke="#191970" points="999.6968,-82.3363 991.5103,-75.6108 993.716,-85.9736 999.6968,-82.3363"/>
</g>
<!-- Node21&#45;&gt;Node18 -->
<g id="edge29" class="edge">
<title>Node21&#45;&gt;Node18</title>
<path fill="none" stroke="#191970" d="M844.996,-224.3733C824.3565,-215.3435 793.2842,-201.7494 770.1111,-191.6111"/>
<polygon fill="#191970" stroke="#191970" points="771.2813,-188.3028 760.7169,-187.5011 768.4755,-194.7159 771.2813,-188.3028"/>
</g>
<!-- Node22 -->
<g id="node23" class="node">
<title>Node22</title>
<g id="a_node23"><a xlink:href="UIEvents_8hxx.html" target="_top" xlink:title="events/UIEvents.hxx">
<polygon fill="none" stroke="#000000" points="883.5,-168.5 883.5,-187.5 1000.5,-187.5 1000.5,-168.5 883.5,-168.5"/>
<text text-anchor="middle" x="942" y="-175.5" font-family="Helvetica,sans-Serif" font-size="10.00" fill="#000000">events/UIEvents.hxx</text>
</a>
</g>
</g>
<!-- Node21&#45;&gt;Node22 -->
<g id="edge31" class="edge">
<title>Node21&#45;&gt;Node22</title>
<path fill="none" stroke="#191970" d="M880.064,-224.2455C891.3562,-215.814 907.8845,-203.4729 921.0271,-193.6598"/>
<polygon fill="#191970" stroke="#191970" points="923.1669,-196.4301 929.0857,-187.6427 918.9789,-190.8211 923.1669,-196.4301"/>
</g>
<!-- Node23 -->
<g id="node24" class="node">
<title>Node23</title>
<polygon fill="none" stroke="#bfbfbf" points="804.5,-112.5 804.5,-131.5 869.5,-131.5 869.5,-112.5 804.5,-112.5"/>
<text text-anchor="middle" x="837" y="-119.5" font-family="Helvetica,sans-Serif" font-size="10.00" fill="#000000">functional</text>
</g>
<!-- Node22&#45;&gt;Node23 -->
<g id="edge32" class="edge">
<title>Node22&#45;&gt;Node23</title>
<path fill="none" stroke="#191970" d="M923.7104,-168.2455C907.2238,-159.4527 882.7648,-146.4079 864.0235,-136.4125"/>
<polygon fill="#191970" stroke="#191970" points="865.5506,-133.2604 855.08,-131.6427 862.2565,-139.4368 865.5506,-133.2604"/>
</g>
<!-- Node24 -->
<g id="node25" class="node">
<title>Node24</title>
<g id="a_node25"><a xlink:href="Observer_8hxx.html" target="_top" xlink:title="../util/Observer.hxx">
<polygon fill="none" stroke="#000000" points="887.5,-112.5 887.5,-131.5 996.5,-131.5 996.5,-112.5 887.5,-112.5"/>
<text text-anchor="middle" x="942" y="-119.5" font-family="Helvetica,sans-Serif" font-size="10.00" fill="#000000">../util/Observer.hxx</text>
</a>
</g>
</g>
<!-- Node22&#45;&gt;Node24 -->
<g id="edge33" class="edge">
<title>Node22&#45;&gt;Node24</title>
<path fill="none" stroke="#191970" d="M942,-168.2455C942,-160.9382 942,-150.6944 942,-141.7046"/>
<polygon fill="#191970" stroke="#191970" points="945.5001,-141.6426 942,-131.6427 938.5001,-141.6427 945.5001,-141.6426"/>
</g>
<!-- Node24&#45;&gt;Node3 -->
<g id="edge34" class="edge">
<title>Node24&#45;&gt;Node3</title>
<path fill="none" stroke="#191970" d="M887.3881,-113.1645C884.5531,-112.7581 881.7441,-112.3672 879,-112 732.7669,-92.4297 695.4161,-94.1502 549,-76 536.5042,-74.451 522.8121,-72.5904 510.7542,-70.8965"/>
<polygon fill="#191970" stroke="#191970" points="511.0422,-67.4023 500.6496,-69.4627 510.0587,-74.3329 511.0422,-67.4023"/>
</g>
<!-- Node24&#45;&gt;Node4 -->
<g id="edge35" class="edge">
<title>Node24&#45;&gt;Node4</title>
<path fill="none" stroke="#191970" d="M887.3649,-113.3238C884.536,-112.8758 881.7346,-112.4324 879,-112 788.5207,-97.6923 682.2567,-80.9734 626.207,-72.1616"/>
<polygon fill="#191970" stroke="#191970" points="626.4356,-68.6546 616.0134,-70.5591 625.3485,-75.5697 626.4356,-68.6546"/>
</g>
<!-- Node24&#45;&gt;Node9 -->
<g id="edge36" class="edge">
<title>Node24&#45;&gt;Node9</title>
<path fill="none" stroke="#191970" d="M949.49,-112.2455C955.5326,-104.3761 964.1903,-93.101 971.4441,-83.6542"/>
<polygon fill="#191970" stroke="#191970" points="974.2815,-85.7058 977.5958,-75.6427 968.7295,-81.4426 974.2815,-85.7058"/>
</g>
</g>
</svg>
