<?xml version="1.0" encoding="UTF-8" standalone="no"?>
<!DOCTYPE svg PUBLIC "-//W3C//DTD SVG 1.1//EN"
 "http://www.w3.org/Graphics/SVG/1.1/DTD/svg11.dtd">
<!-- Generated by graphviz version 2.40.1 (20161225.0304)
 -->
<!-- Title: src/model/ButtonState.cxx Pages: 1 -->
<!--zoomable 532 -->
<svg id="main" version="1.1" xmlns="http://www.w3.org/2000/svg" xmlns:xlink="http://www.w3.org/1999/xlink" xml:space="preserve" onload="init(evt)">
<style type="text/css"><![CDATA[
.edge:hover path { stroke: red; }
.edge:hover polygon { stroke: red; fill: red; }
]]></style>
<script type="text/javascript"><![CDATA[
var edges = document.getElementsByTagName('g');
if (edges && edges.length) {
  for (var i=0;i<edges.length;i++) {
    if (edges[i].id.substr(0,4)=='edge') {
      edges[i].setAttribute('class','edge');
    }
  }
}
]]></script>
        <defs>
                <circle id="rim" cx="0" cy="0" r="7"/>
                <circle id="rim2" cx="0" cy="0" r="3.5"/>
                <g id="zoomPlus">
                        <use xlink:href="#rim" fill="#404040">
                                <set attributeName="fill" to="#808080" begin="zoomplus.mouseover" end="zoomplus.mouseout"/>
                        </use>
                        <path d="M-4,0h8M0,-4v8" fill="none" stroke="white" stroke-width="1.5" pointer-events="none"/>
                </g>
                <g id="zoomMin">
                        <use xlink:href="#rim" fill="#404040">
                                <set attributeName="fill" to="#808080" begin="zoomminus.mouseover" end="zoomminus.mouseout"/>
                        </use>
                        <path d="M-4,0h8" fill="none" stroke="white" stroke-width="1.5" pointer-events="none"/>
                </g>
                <g id="dirArrow">
                        <path fill="none" stroke="white" stroke-width="1.5" d="M0,-3.0v7 M-2.5,-0.5L0,-3.0L2.5,-0.5"/>
                </g>
               <g id="resetDef">
                       <use xlink:href="#rim2" fill="#404040">
                               <set attributeName="fill" to="#808080" begin="reset.mouseover" end="reset.mouseout"/>
                       </use>
               </g>
        </defs>

<script type="text/javascript">
var viewWidth = 1604;
var viewHeight = 532;
var sectionId = 'dynsection-0';
</script>
<script xlink:href="svgpan.js"/>
<svg id="graph" class="graph">
<g id="viewport">
<title>src/model/ButtonState.cxx</title>
<!-- Node0 -->
<g id="node1" class="node">
<title>Node0</title>
<polygon fill="#bfbfbf" stroke="#000000" points="1139,-504.5 1139,-523.5 1285,-523.5 1285,-504.5 1139,-504.5"/>
<text text-anchor="middle" x="1212" y="-511.5" font-family="Helvetica,sans-Serif" font-size="10.00" fill="#000000">src/model/ButtonState.cxx</text>
</g>
<!-- Node1 -->
<g id="node2" class="node">
<title>Node1</title>
<g id="a_node2"><a xlink:href="ButtonState_8hxx.html" target="_top" xlink:title="ButtonState.hxx">
<polygon fill="none" stroke="#000000" points="775.5,-448.5 775.5,-467.5 870.5,-467.5 870.5,-448.5 775.5,-448.5"/>
<text text-anchor="middle" x="823" y="-455.5" font-family="Helvetica,sans-Serif" font-size="10.00" fill="#000000">ButtonState.hxx</text>
</a>
</g>
</g>
<!-- Node0&#45;&gt;Node1 -->
<g id="edge1" class="edge">
<title>Node0&#45;&gt;Node1</title>
<path fill="none" stroke="#191970" d="M1145.5705,-504.4369C1071.113,-493.7181 951.5796,-476.5102 880.8275,-466.3248"/>
<polygon fill="#191970" stroke="#191970" points="881.1505,-462.8353 870.7538,-464.8746 880.153,-469.7639 881.1505,-462.8353"/>
</g>
<!-- Node24 -->
<g id="node25" class="node">
<title>Node24</title>
<g id="a_node25"><a xlink:href="LOG_8hxx.html" target="_top" xlink:title="../util/LOG.hxx">
<polygon fill="none" stroke="#000000" points="1169,-280.5 1169,-299.5 1255,-299.5 1255,-280.5 1169,-280.5"/>
<text text-anchor="middle" x="1212" y="-287.5" font-family="Helvetica,sans-Serif" font-size="10.00" fill="#000000">../util/LOG.hxx</text>
</a>
</g>
</g>
<!-- Node0&#45;&gt;Node24 -->
<g id="edge32" class="edge">
<title>Node0&#45;&gt;Node24</title>
<path fill="none" stroke="#191970" d="M1212,-504.375C1212,-470.4851 1212,-356.2317 1212,-309.8332"/>
<polygon fill="#191970" stroke="#191970" points="1215.5001,-309.5891 1212,-299.5891 1208.5001,-309.5892 1215.5001,-309.5891"/>
</g>
<!-- Node25 -->
<g id="node26" class="node">
<title>Node25</title>
<g id="a_node26"><a xlink:href="Exception_8hxx.html" target="_top" xlink:title="Exception.hxx">
<polygon fill="none" stroke="#000000" points="1479,-224.5 1479,-243.5 1565,-243.5 1565,-224.5 1479,-224.5"/>
<text text-anchor="middle" x="1522" y="-231.5" font-family="Helvetica,sans-Serif" font-size="10.00" fill="#000000">Exception.hxx</text>
</a>
</g>
</g>
<!-- Node0&#45;&gt;Node25 -->
<g id="edge47" class="edge">
<title>Node0&#45;&gt;Node25</title>
<path fill="none" stroke="#191970" d="M1285.2079,-504.445C1344.4182,-492.1242 1418,-464.2833 1418,-402 1418,-402 1418,-402 1418,-346 1418,-301.5129 1462.606,-267.2585 1493.3924,-248.9145"/>
<polygon fill="#191970" stroke="#191970" points="1495.4969,-251.7428 1502.4384,-243.7386 1492.0205,-245.667 1495.4969,-251.7428"/>
</g>
<!-- Node2 -->
<g id="node3" class="node">
<title>Node2</title>
<polygon fill="none" stroke="#bfbfbf" points="748,-168.5 748,-187.5 848,-187.5 848,-168.5 748,-168.5"/>
<text text-anchor="middle" x="798" y="-175.5" font-family="Helvetica,sans-Serif" font-size="10.00" fill="#000000">betterEnums.hxx</text>
</g>
<!-- Node1&#45;&gt;Node2 -->
<g id="edge2" class="edge">
<title>Node1&#45;&gt;Node2</title>
<path fill="none" stroke="#191970" d="M823,-448.4116C823,-429.0538 823,-383.9167 823,-346 823,-346 823,-346 823,-290 823,-256.7847 812.397,-219.3305 805.0013,-197.2459"/>
<polygon fill="#191970" stroke="#191970" points="808.2805,-196.0195 801.6888,-187.7249 801.6692,-198.3197 808.2805,-196.0195"/>
</g>
<!-- Node3 -->
<g id="node4" class="node">
<title>Node3</title>
<g id="a_node4"><a xlink:href="DataModel_8hxx.html" target="_top" xlink:title="DataModel.hxx">
<polygon fill="none" stroke="#000000" points="182,-392.5 182,-411.5 272,-411.5 272,-392.5 182,-392.5"/>
<text text-anchor="middle" x="227" y="-399.5" font-family="Helvetica,sans-Serif" font-size="10.00" fill="#000000">DataModel.hxx</text>
</a>
</g>
</g>
<!-- Node1&#45;&gt;Node3 -->
<g id="edge3" class="edge">
<title>Node1&#45;&gt;Node3</title>
<path fill="none" stroke="#191970" d="M775.4848,-453.5355C666.3978,-443.2857 398.4875,-418.1129 282.2736,-407.1935"/>
<polygon fill="#191970" stroke="#191970" points="282.4579,-403.6955 272.1743,-406.2446 281.803,-410.6648 282.4579,-403.6955"/>
</g>
<!-- Node4 -->
<g id="node5" class="node">
<title>Node4</title>
<g id="a_node5"><a xlink:href="iModel_8hxx.html" target="_top" xlink:title="iModel.hxx">
<polygon fill="none" stroke="#000000" points="0,-336.5 0,-355.5 70,-355.5 70,-336.5 0,-336.5"/>
<text text-anchor="middle" x="35" y="-343.5" font-family="Helvetica,sans-Serif" font-size="10.00" fill="#000000">iModel.hxx</text>
</a>
</g>
</g>
<!-- Node3&#45;&gt;Node4 -->
<g id="edge4" class="edge">
<title>Node3&#45;&gt;Node4</title>
<path fill="none" stroke="#191970" d="M193.994,-392.3733C161.7909,-382.9807 112.6558,-368.6496 77.5361,-358.4064"/>
<polygon fill="#191970" stroke="#191970" points="78.1553,-354.9412 67.5753,-355.5011 76.1953,-361.6612 78.1553,-354.9412"/>
</g>
<!-- Node6 -->
<g id="node7" class="node">
<title>Node6</title>
<g id="a_node7"><a xlink:href="Observer_8hxx.html" target="_top" xlink:title="../util/Observer.hxx">
<polygon fill="none" stroke="#000000" points="182.5,-112.5 182.5,-131.5 291.5,-131.5 291.5,-112.5 182.5,-112.5"/>
<text text-anchor="middle" x="237" y="-119.5" font-family="Helvetica,sans-Serif" font-size="10.00" fill="#000000">../util/Observer.hxx</text>
</a>
</g>
</g>
<!-- Node3&#45;&gt;Node6 -->
<g id="edge6" class="edge">
<title>Node3&#45;&gt;Node6</title>
<path fill="none" stroke="#191970" d="M199.9574,-392.4903C162.1304,-377.2562 98,-343.5346 98,-290 98,-290 98,-290 98,-234 98,-183.0738 155.2728,-151.3787 196.2917,-135.2092"/>
<polygon fill="#191970" stroke="#191970" points="197.6862,-138.4239 205.8057,-131.6178 195.214,-131.875 197.6862,-138.4239"/>
</g>
<!-- Node13 -->
<g id="node14" class="node">
<title>Node13</title>
<g id="a_node14"><a xlink:href="MessageQueue_8hxx.html" target="_top" xlink:title="../engine/MessageQueue.hxx">
<polygon fill="none" stroke="#000000" points="356.5,-280.5 356.5,-299.5 513.5,-299.5 513.5,-280.5 356.5,-280.5"/>
<text text-anchor="middle" x="435" y="-287.5" font-family="Helvetica,sans-Serif" font-size="10.00" fill="#000000">../engine/MessageQueue.hxx</text>
</a>
</g>
</g>
<!-- Node3&#45;&gt;Node13 -->
<g id="edge14" class="edge">
<title>Node3&#45;&gt;Node13</title>
<path fill="none" stroke="#191970" d="M245.8357,-392.4671C263.9076,-383.273 291.9279,-368.8928 316,-356 348.3578,-338.6695 385.2734,-318.0636 409.2946,-304.5422"/>
<polygon fill="#191970" stroke="#191970" points="411.1461,-307.5164 418.1381,-299.5563 407.7082,-301.4187 411.1461,-307.5164"/>
</g>
<!-- Node23 -->
<g id="node24" class="node">
<title>Node23</title>
<g id="a_node24"><a xlink:href="UIMQDispatcher_8hxx.html" target="_top" xlink:title="../engine/UIMQDispatcher.hxx">
<polygon fill="none" stroke="#000000" points="146.5,-336.5 146.5,-355.5 307.5,-355.5 307.5,-336.5 146.5,-336.5"/>
<text text-anchor="middle" x="227" y="-343.5" font-family="Helvetica,sans-Serif" font-size="10.00" fill="#000000">../engine/UIMQDispatcher.hxx</text>
</a>
</g>
</g>
<!-- Node3&#45;&gt;Node23 -->
<g id="edge29" class="edge">
<title>Node3&#45;&gt;Node23</title>
<path fill="none" stroke="#191970" d="M227,-392.2455C227,-384.9382 227,-374.6944 227,-365.7046"/>
<polygon fill="#191970" stroke="#191970" points="230.5001,-365.6426 227,-355.6427 223.5001,-365.6427 230.5001,-365.6426"/>
</g>
<!-- Node5 -->
<g id="node6" class="node">
<title>Node5</title>
<polygon fill="none" stroke="#bfbfbf" points="114,-56.5 114,-75.5 172,-75.5 172,-56.5 114,-56.5"/>
<text text-anchor="middle" x="143" y="-63.5" font-family="Helvetica,sans-Serif" font-size="10.00" fill="#000000">memory</text>
</g>
<!-- Node4&#45;&gt;Node5 -->
<g id="edge5" class="edge">
<title>Node4&#45;&gt;Node5</title>
<path fill="none" stroke="#191970" d="M36.8626,-336.455C40.4572,-317.1751 48,-272.1712 48,-234 48,-234 48,-234 48,-178 48,-134.9765 89.2735,-100.0102 117.4109,-81.1715"/>
<polygon fill="#191970" stroke="#191970" points="119.5021,-83.9879 126.0159,-75.632 115.713,-78.102 119.5021,-83.9879"/>
</g>
<!-- Node6&#45;&gt;Node5 -->
<g id="edge8" class="edge">
<title>Node6&#45;&gt;Node5</title>
<path fill="none" stroke="#191970" d="M220.6264,-112.2455C206.0692,-103.5731 184.569,-90.7645 167.8848,-80.825"/>
<polygon fill="#191970" stroke="#191970" points="169.5683,-77.7539 159.1859,-75.6427 165.9856,-83.7676 169.5683,-77.7539"/>
</g>
<!-- Node7 -->
<g id="node8" class="node">
<title>Node7</title>
<polygon fill="none" stroke="#bfbfbf" points="441.5,-56.5 441.5,-75.5 488.5,-75.5 488.5,-56.5 441.5,-56.5"/>
<text text-anchor="middle" x="465" y="-63.5" font-family="Helvetica,sans-Serif" font-size="10.00" fill="#000000">vector</text>
</g>
<!-- Node6&#45;&gt;Node7 -->
<g id="edge7" class="edge">
<title>Node6&#45;&gt;Node7</title>
<path fill="none" stroke="#191970" d="M275.9355,-112.4369C319.6698,-101.6951 389.9371,-84.4365 431.3721,-74.2595"/>
<polygon fill="#191970" stroke="#191970" points="432.375,-77.6173 441.2515,-71.833 430.7053,-70.8193 432.375,-77.6173"/>
</g>
<!-- Node8 -->
<g id="node9" class="node">
<title>Node8</title>
<g id="a_node9"><a xlink:href="Meta_8hxx.html" target="_top" xlink:title="Meta.hxx">
<polygon fill="none" stroke="#000000" points="907,-56.5 907,-75.5 969,-75.5 969,-56.5 907,-56.5"/>
<text text-anchor="middle" x="938" y="-63.5" font-family="Helvetica,sans-Serif" font-size="10.00" fill="#000000">Meta.hxx</text>
</a>
</g>
</g>
<!-- Node6&#45;&gt;Node8 -->
<g id="edge9" class="edge">
<title>Node6&#45;&gt;Node8</title>
<path fill="none" stroke="#191970" d="M291.7143,-117.6291C427.3065,-106.7972 776.5708,-78.8959 896.6943,-69.2997"/>
<polygon fill="#191970" stroke="#191970" points="897.2429,-72.7672 906.9324,-68.4819 896.6854,-65.7894 897.2429,-72.7672"/>
</g>
<!-- Node9 -->
<g id="node10" class="node">
<title>Node9</title>
<polygon fill="none" stroke="#bfbfbf" points="1176,-.5 1176,-19.5 1236,-19.5 1236,-.5 1176,-.5"/>
<text text-anchor="middle" x="1206" y="-7.5" font-family="Helvetica,sans-Serif" font-size="10.00" fill="#000000">iostream</text>
</g>
<!-- Node8&#45;&gt;Node9 -->
<g id="edge10" class="edge">
<title>Node8&#45;&gt;Node9</title>
<path fill="none" stroke="#191970" d="M969.0048,-59.5214C1017.6752,-49.3515 1111.9934,-29.6432 1165.8076,-18.3984"/>
<polygon fill="#191970" stroke="#191970" points="1166.6119,-21.806 1175.6846,-16.3346 1165.1801,-14.954 1166.6119,-21.806"/>
</g>
<!-- Node10 -->
<g id="node11" class="node">
<title>Node10</title>
<polygon fill="none" stroke="#bfbfbf" points="903.5,-.5 903.5,-19.5 972.5,-19.5 972.5,-.5 903.5,-.5"/>
<text text-anchor="middle" x="938" y="-7.5" font-family="Helvetica,sans-Serif" font-size="10.00" fill="#000000">type_traits</text>
</g>
<!-- Node8&#45;&gt;Node10 -->
<g id="edge11" class="edge">
<title>Node8&#45;&gt;Node10</title>
<path fill="none" stroke="#191970" d="M938,-56.2455C938,-48.9382 938,-38.6944 938,-29.7046"/>
<polygon fill="#191970" stroke="#191970" points="941.5001,-29.6426 938,-19.6427 934.5001,-29.6427 941.5001,-29.6426"/>
</g>
<!-- Node11 -->
<g id="node12" class="node">
<title>Node11</title>
<polygon fill="none" stroke="#bfbfbf" points="990.5,-.5 990.5,-19.5 1041.5,-19.5 1041.5,-.5 990.5,-.5"/>
<text text-anchor="middle" x="1016" y="-7.5" font-family="Helvetica,sans-Serif" font-size="10.00" fill="#000000">variant</text>
</g>
<!-- Node8&#45;&gt;Node11 -->
<g id="edge12" class="edge">
<title>Node8&#45;&gt;Node11</title>
<path fill="none" stroke="#191970" d="M951.5866,-56.2455C963.3305,-47.814 980.5199,-35.4729 994.1882,-25.6598"/>
<polygon fill="#191970" stroke="#191970" points="996.4871,-28.3179 1002.5691,-19.6427 992.4046,-22.6316 996.4871,-28.3179"/>
</g>
<!-- Node12 -->
<g id="node13" class="node">
<title>Node12</title>
<polygon fill="none" stroke="#bfbfbf" points="844.5,-.5 844.5,-19.5 885.5,-19.5 885.5,-.5 844.5,-.5"/>
<text text-anchor="middle" x="865" y="-7.5" font-family="Helvetica,sans-Serif" font-size="10.00" fill="#000000">tuple</text>
</g>
<!-- Node8&#45;&gt;Node12 -->
<g id="edge13" class="edge">
<title>Node8&#45;&gt;Node12</title>
<path fill="none" stroke="#191970" d="M925.2844,-56.2455C914.398,-47.8943 898.5117,-35.7076 885.78,-25.9408"/>
<polygon fill="#191970" stroke="#191970" points="887.6346,-22.9523 877.5699,-19.6427 883.3739,-28.5063 887.6346,-22.9523"/>
</g>
<!-- Node13&#45;&gt;Node7 -->
<g id="edge18" class="edge">
<title>Node13&#45;&gt;Node7</title>
<path fill="none" stroke="#191970" d="M498.5563,-280.4882C539.8693,-272.8574 588.3272,-260.6621 601,-244 647.1006,-183.3872 543.109,-111.3582 491.6623,-80.8394"/>
<polygon fill="#191970" stroke="#191970" points="493.1196,-77.6381 482.7156,-75.6361 489.6003,-83.6892 493.1196,-77.6381"/>
</g>
<!-- Node14 -->
<g id="node15" class="node">
<title>Node14</title>
<polygon fill="none" stroke="#bfbfbf" points="420.5,-224.5 420.5,-243.5 527.5,-243.5 527.5,-224.5 420.5,-224.5"/>
<text text-anchor="middle" x="474" y="-231.5" font-family="Helvetica,sans-Serif" font-size="10.00" fill="#000000">condition_variable</text>
</g>
<!-- Node13&#45;&gt;Node14 -->
<g id="edge15" class="edge">
<title>Node13&#45;&gt;Node14</title>
<path fill="none" stroke="#191970" d="M441.7933,-280.2455C447.2178,-272.4564 454.9661,-261.3308 461.5033,-251.9439"/>
<polygon fill="#191970" stroke="#191970" points="464.4417,-253.849 467.2846,-243.6427 458.6975,-249.8485 464.4417,-253.849"/>
</g>
<!-- Node15 -->
<g id="node16" class="node">
<title>Node15</title>
<polygon fill="none" stroke="#bfbfbf" points="747,-224.5 747,-243.5 795,-243.5 795,-224.5 747,-224.5"/>
<text text-anchor="middle" x="771" y="-231.5" font-family="Helvetica,sans-Serif" font-size="10.00" fill="#000000">mutex</text>
</g>
<!-- Node13&#45;&gt;Node15 -->
<g id="edge16" class="edge">
<title>Node13&#45;&gt;Node15</title>
<path fill="none" stroke="#191970" d="M513.7368,-281.1945C572.8346,-273.859 655.8338,-262.0201 737.0608,-243.9558"/>
<polygon fill="#191970" stroke="#191970" points="737.9723,-247.3381 746.9561,-241.7218 736.4308,-240.51 737.9723,-247.3381"/>
</g>
<!-- Node16 -->
<g id="node17" class="node">
<title>Node16</title>
<polygon fill="none" stroke="#bfbfbf" points="545.5,-224.5 545.5,-243.5 592.5,-243.5 592.5,-224.5 545.5,-224.5"/>
<text text-anchor="middle" x="569" y="-231.5" font-family="Helvetica,sans-Serif" font-size="10.00" fill="#000000">deque</text>
</g>
<!-- Node13&#45;&gt;Node16 -->
<g id="edge17" class="edge">
<title>Node13&#45;&gt;Node16</title>
<path fill="none" stroke="#191970" d="M458.0354,-280.3733C479.7388,-271.3032 512.4618,-257.6279 536.755,-247.4755"/>
<polygon fill="#191970" stroke="#191970" points="538.3881,-250.5865 546.2652,-243.5011 535.6889,-244.1278 538.3881,-250.5865"/>
</g>
<!-- Node17 -->
<g id="node18" class="node">
<title>Node17</title>
<polygon fill="none" stroke="#bfbfbf" points="402.5,-112.5 402.5,-131.5 467.5,-131.5 467.5,-112.5 402.5,-112.5"/>
<text text-anchor="middle" x="435" y="-119.5" font-family="Helvetica,sans-Serif" font-size="10.00" fill="#000000">functional</text>
</g>
<!-- Node13&#45;&gt;Node17 -->
<g id="edge19" class="edge">
<title>Node13&#45;&gt;Node17</title>
<path fill="none" stroke="#191970" d="M428.1792,-280.328C422.3174,-271.3825 414.3034,-257.4728 411,-244 402.9564,-211.1939 402.9564,-200.8061 411,-168 413.3743,-158.3164 418.1821,-148.4071 422.8753,-140.2776"/>
<polygon fill="#191970" stroke="#191970" points="425.9119,-142.0214 428.1792,-131.672 419.9528,-138.3486 425.9119,-142.0214"/>
</g>
<!-- Node18 -->
<g id="node19" class="node">
<title>Node18</title>
<polygon fill="none" stroke="#bfbfbf" points="164,-224.5 164,-243.5 218,-243.5 218,-224.5 164,-224.5"/>
<text text-anchor="middle" x="191" y="-231.5" font-family="Helvetica,sans-Serif" font-size="10.00" fill="#000000">ciso646</text>
</g>
<!-- Node13&#45;&gt;Node18 -->
<g id="edge20" class="edge">
<title>Node13&#45;&gt;Node18</title>
<path fill="none" stroke="#191970" d="M388.5714,-280.4724C348.4549,-272.0734 288.7121,-259.1696 227.8591,-244.1233"/>
<polygon fill="#191970" stroke="#191970" points="228.6352,-240.7098 218.0859,-241.6904 226.9443,-247.5025 228.6352,-240.7098"/>
</g>
<!-- Node19 -->
<g id="node20" class="node">
<title>Node19</title>
<g id="a_node20"><a xlink:href="Events_8hxx.html" target="_top" xlink:title="../Events.hxx">
<polygon fill="none" stroke="#000000" points="649,-224.5 649,-243.5 729,-243.5 729,-224.5 649,-224.5"/>
<text text-anchor="middle" x="689" y="-231.5" font-family="Helvetica,sans-Serif" font-size="10.00" fill="#000000">../Events.hxx</text>
</a>
</g>
</g>
<!-- Node13&#45;&gt;Node19 -->
<g id="edge21" class="edge">
<title>Node13&#45;&gt;Node19</title>
<path fill="none" stroke="#191970" d="M478.3756,-280.4369C522.861,-270.6291 591.9888,-255.3883 638.8095,-245.0656"/>
<polygon fill="#191970" stroke="#191970" points="639.7252,-248.4479 648.7371,-242.8769 638.218,-241.612 639.7252,-248.4479"/>
</g>
<!-- Node22 -->
<g id="node23" class="node">
<title>Node22</title>
<g id="a_node23"><a xlink:href="MessageQueue_8inl_8hxx.html" target="_top" xlink:title="MessageQueue.inl.hxx">
<polygon fill="none" stroke="#000000" points="236.5,-224.5 236.5,-243.5 363.5,-243.5 363.5,-224.5 236.5,-224.5"/>
<text text-anchor="middle" x="300" y="-231.5" font-family="Helvetica,sans-Serif" font-size="10.00" fill="#000000">MessageQueue.inl.hxx</text>
</a>
</g>
</g>
<!-- Node13&#45;&gt;Node22 -->
<g id="edge28" class="edge">
<title>Node13&#45;&gt;Node22</title>
<path fill="none" stroke="#191970" d="M411.7927,-280.3733C389.8301,-271.2629 356.6668,-257.5062 332.1599,-247.3404"/>
<polygon fill="#191970" stroke="#191970" points="333.4824,-244.0999 322.9045,-243.5011 330.8003,-250.5657 333.4824,-244.0999"/>
</g>
<!-- Node19&#45;&gt;Node2 -->
<g id="edge23" class="edge">
<title>Node19&#45;&gt;Node2</title>
<path fill="none" stroke="#191970" d="M707.9864,-224.2455C725.1792,-215.4125 750.7238,-202.2887 770.2132,-192.2758"/>
<polygon fill="#191970" stroke="#191970" points="771.9359,-195.3257 779.2312,-187.6427 768.737,-189.0993 771.9359,-195.3257"/>
</g>
<!-- Node19&#45;&gt;Node8 -->
<g id="edge24" class="edge">
<title>Node19&#45;&gt;Node8</title>
<path fill="none" stroke="#191970" d="M694.3625,-224.4004C702.5109,-210.5039 719.1771,-184.6308 739,-168 788.8371,-126.1881 858.6922,-95.4114 901.007,-79.1377"/>
<polygon fill="#191970" stroke="#191970" points="902.5093,-82.3117 910.6285,-75.5051 900.0368,-75.7629 902.5093,-82.3117"/>
</g>
<!-- Node20 -->
<g id="node21" class="node">
<title>Node20</title>
<polygon fill="none" stroke="#bfbfbf" points="1039,-168.5 1039,-187.5 1083,-187.5 1083,-168.5 1039,-168.5"/>
<text text-anchor="middle" x="1061" y="-175.5" font-family="Helvetica,sans-Serif" font-size="10.00" fill="#000000">string</text>
</g>
<!-- Node19&#45;&gt;Node20 -->
<g id="edge22" class="edge">
<title>Node19&#45;&gt;Node20</title>
<path fill="none" stroke="#191970" d="M729.0744,-225.6182C732.0909,-225.0496 735.0913,-224.5035 738,-224 844.135,-205.6293 970.8193,-189.1686 1028.959,-181.9172"/>
<polygon fill="#191970" stroke="#191970" points="1029.5039,-185.3765 1038.9969,-180.672 1028.642,-178.4298 1029.5039,-185.3765"/>
</g>
<!-- Node21 -->
<g id="node22" class="node">
<title>Node21</title>
<g id="a_node22"><a xlink:href="UIEvents_8hxx.html" target="_top" xlink:title="events/UIEvents.hxx">
<polygon fill="none" stroke="#000000" points="420.5,-168.5 420.5,-187.5 537.5,-187.5 537.5,-168.5 420.5,-168.5"/>
<text text-anchor="middle" x="479" y="-175.5" font-family="Helvetica,sans-Serif" font-size="10.00" fill="#000000">events/UIEvents.hxx</text>
</a>
</g>
</g>
<!-- Node19&#45;&gt;Node21 -->
<g id="edge25" class="edge">
<title>Node19&#45;&gt;Node21</title>
<path fill="none" stroke="#191970" d="M652.8997,-224.3733C617.3752,-214.9001 563.012,-200.4032 524.5381,-190.1435"/>
<polygon fill="#191970" stroke="#191970" points="525.1934,-186.696 514.6292,-187.5011 523.3897,-193.4596 525.1934,-186.696"/>
</g>
<!-- Node21&#45;&gt;Node6 -->
<g id="edge27" class="edge">
<title>Node21&#45;&gt;Node6</title>
<path fill="none" stroke="#191970" d="M437.6737,-168.4369C396.2573,-158.8529 332.4223,-144.0812 287.9065,-133.78"/>
<polygon fill="#191970" stroke="#191970" points="288.6875,-130.3683 278.1559,-131.5237 287.1093,-137.1881 288.6875,-130.3683"/>
</g>
<!-- Node21&#45;&gt;Node17 -->
<g id="edge26" class="edge">
<title>Node21&#45;&gt;Node17</title>
<path fill="none" stroke="#191970" d="M471.3358,-168.2455C465.1527,-160.3761 456.2937,-149.101 448.8711,-139.6542"/>
<polygon fill="#191970" stroke="#191970" points="451.5068,-137.3435 442.5764,-131.6427 446.0025,-141.6683 451.5068,-137.3435"/>
</g>
<!-- Node23&#45;&gt;Node6 -->
<g id="edge30" class="edge">
<title>Node23&#45;&gt;Node6</title>
<path fill="none" stroke="#191970" d="M213.971,-336.2256C189.1846,-316.344 139.0715,-269.2359 155,-224 167.403,-188.7764 197.6791,-156.7383 217.7664,-138.314"/>
<polygon fill="#191970" stroke="#191970" points="220.2759,-140.7659 225.4156,-131.5012 215.6202,-135.5386 220.2759,-140.7659"/>
</g>
<!-- Node23&#45;&gt;Node13 -->
<g id="edge31" class="edge">
<title>Node23&#45;&gt;Node13</title>
<path fill="none" stroke="#191970" d="M262.7565,-336.3733C297.9426,-326.9001 351.7881,-312.4032 389.8956,-302.1435"/>
<polygon fill="#191970" stroke="#191970" points="390.9639,-305.4806 399.7101,-299.5011 389.144,-298.7213 390.9639,-305.4806"/>
</g>
<!-- Node24&#45;&gt;Node8 -->
<g id="edge45" class="edge">
<title>Node24&#45;&gt;Node8</title>
<path fill="none" stroke="#191970" d="M1222.3266,-280.2396C1235.0067,-267.0294 1253.4982,-242.9345 1242,-224 1184.149,-128.7346 1048.1157,-88.2793 979.3464,-73.4364"/>
<polygon fill="#191970" stroke="#191970" points="979.8103,-69.958 969.3071,-71.349 978.3853,-76.8114 979.8103,-69.958"/>
</g>
<!-- Node24&#45;&gt;Node9 -->
<g id="edge37" class="edge">
<title>Node24&#45;&gt;Node9</title>
<path fill="none" stroke="#191970" d="M1232.7586,-280.3851C1264.384,-264.1375 1321,-228.06 1321,-178 1321,-178 1321,-178 1321,-122 1321,-75.2547 1271.6324,-41.6844 1237.5883,-24.0917"/>
<polygon fill="#191970" stroke="#191970" points="1238.9598,-20.8651 1228.4462,-19.5557 1235.8485,-27.1357 1238.9598,-20.8651"/>
</g>
<!-- Node24&#45;&gt;Node15 -->
<g id="edge44" class="edge">
<title>Node24&#45;&gt;Node15</title>
<path fill="none" stroke="#191970" d="M1168.9605,-284.879C1099.9367,-276.6147 960.2317,-259.6747 842,-244 830.0957,-242.4218 817.0811,-240.613 805.4834,-238.9715"/>
<polygon fill="#191970" stroke="#191970" points="805.6968,-235.4667 795.3033,-237.5225 804.7103,-242.3968 805.6968,-235.4667"/>
</g>
<!-- Node24&#45;&gt;Node20 -->
<g id="edge33" class="edge">
<title>Node24&#45;&gt;Node20</title>
<path fill="none" stroke="#191970" d="M1218.1148,-280.4323C1226.1133,-266.5757 1237.6995,-240.7516 1225,-224 1209.1151,-203.0465 1136.1578,-189.0064 1093.0873,-182.3861"/>
<polygon fill="#191970" stroke="#191970" points="1093.4978,-178.9088 1083.0918,-180.9002 1092.4684,-185.8327 1093.4978,-178.9088"/>
</g>
<!-- Node24&#45;&gt;Node25 -->
<g id="edge34" class="edge">
<title>Node24&#45;&gt;Node25</title>
<path fill="none" stroke="#191970" d="M1255.3993,-282.447C1304.6925,-273.8272 1387.8059,-259.1692 1468.9898,-244.1698"/>
<polygon fill="#191970" stroke="#191970" points="1469.6824,-247.6011 1478.8783,-242.3392 1468.4082,-240.718 1469.6824,-247.6011"/>
</g>
<!-- Node28 -->
<g id="node29" class="node">
<title>Node28</title>
<polygon fill="none" stroke="#bfbfbf" points="1349,-224.5 1349,-243.5 1399,-243.5 1399,-224.5 1349,-224.5"/>
<text text-anchor="middle" x="1374" y="-231.5" font-family="Helvetica,sans-Serif" font-size="10.00" fill="#000000">chrono</text>
</g>
<!-- Node24&#45;&gt;Node28 -->
<g id="edge38" class="edge">
<title>Node24&#45;&gt;Node28</title>
<path fill="none" stroke="#191970" d="M1239.8488,-280.3733C1267.4018,-270.8488 1309.6454,-256.246 1339.3518,-245.9772"/>
<polygon fill="#191970" stroke="#191970" points="1340.5984,-249.2495 1348.9061,-242.6744 1338.3114,-242.6336 1340.5984,-249.2495"/>
</g>
<!-- Node29 -->
<g id="node30" class="node">
<title>Node29</title>
<polygon fill="none" stroke="#bfbfbf" points="1417,-224.5 1417,-243.5 1461,-243.5 1461,-224.5 1417,-224.5"/>
<text text-anchor="middle" x="1439" y="-231.5" font-family="Helvetica,sans-Serif" font-size="10.00" fill="#000000">ctime</text>
</g>
<!-- Node24&#45;&gt;Node29 -->
<g id="edge39" class="edge">
<title>Node24&#45;&gt;Node29</title>
<path fill="none" stroke="#191970" d="M1255.0789,-280.9485C1292.7817,-272.7904 1349.2132,-260.0114 1406.7257,-244.2025"/>
<polygon fill="#191970" stroke="#191970" points="1408.0157,-247.4768 1416.7146,-241.4287 1406.1427,-240.732 1408.0157,-247.4768"/>
</g>
<!-- Node30 -->
<g id="node31" class="node">
<title>Node30</title>
<polygon fill="none" stroke="#bfbfbf" points="851.5,-224.5 851.5,-243.5 906.5,-243.5 906.5,-224.5 851.5,-224.5"/>
<text text-anchor="middle" x="879" y="-231.5" font-family="Helvetica,sans-Serif" font-size="10.00" fill="#000000">fstream</text>
</g>
<!-- Node24&#45;&gt;Node30 -->
<g id="edge40" class="edge">
<title>Node24&#45;&gt;Node30</title>
<path fill="none" stroke="#191970" d="M1168.5908,-284.7717C1112.5826,-277.6921 1011.9902,-263.8479 916.6077,-243.9377"/>
<polygon fill="#191970" stroke="#191970" points="917.3085,-240.5086 906.8008,-241.8649 915.8609,-247.3573 917.3085,-240.5086"/>
</g>
<!-- Node31 -->
<g id="node32" class="node">
<title>Node31</title>
<polygon fill="none" stroke="#bfbfbf" points="925,-224.5 925,-243.5 981,-243.5 981,-224.5 925,-224.5"/>
<text text-anchor="middle" x="953" y="-231.5" font-family="Helvetica,sans-Serif" font-size="10.00" fill="#000000">sstream</text>
</g>
<!-- Node24&#45;&gt;Node31 -->
<g id="edge41" class="edge">
<title>Node24&#45;&gt;Node31</title>
<path fill="none" stroke="#191970" d="M1168.858,-281.852C1126.1048,-273.6012 1058.5384,-260.0897 991.1723,-244.1819"/>
<polygon fill="#191970" stroke="#191970" points="991.7761,-240.7279 981.2375,-241.8178 990.1556,-247.5378 991.7761,-240.7279"/>
</g>
<!-- Node32 -->
<g id="node33" class="node">
<title>Node32</title>
<polygon fill="none" stroke="#bfbfbf" points="999,-224.5 999,-243.5 1043,-243.5 1043,-224.5 999,-224.5"/>
<text text-anchor="middle" x="1021" y="-231.5" font-family="Helvetica,sans-Serif" font-size="10.00" fill="#000000">SDL.h</text>
</g>
<!-- Node24&#45;&gt;Node32 -->
<g id="edge42" class="edge">
<title>Node24&#45;&gt;Node32</title>
<path fill="none" stroke="#191970" d="M1177.5737,-280.447C1147.1368,-271.9247 1101.3069,-258.9076 1053.0121,-244.2486"/>
<polygon fill="#191970" stroke="#191970" points="1053.9101,-240.8634 1043.3241,-241.2958 1051.8692,-247.5593 1053.9101,-240.8634"/>
</g>
<!-- Node33 -->
<g id="node34" class="node">
<title>Node33</title>
<polygon fill="none" stroke="#bfbfbf" points="1061,-224.5 1061,-243.5 1125,-243.5 1125,-224.5 1061,-224.5"/>
<text text-anchor="middle" x="1093" y="-231.5" font-family="Helvetica,sans-Serif" font-size="10.00" fill="#000000">algorithm</text>
</g>
<!-- Node24&#45;&gt;Node33 -->
<g id="edge43" class="edge">
<title>Node24&#45;&gt;Node33</title>
<path fill="none" stroke="#191970" d="M1191.5432,-280.3733C1172.5262,-271.4241 1143.9825,-257.9917 1122.5024,-247.8835"/>
<polygon fill="#191970" stroke="#191970" points="1123.7284,-244.5923 1113.1899,-243.5011 1120.7478,-250.926 1123.7284,-244.5923"/>
</g>
<!-- Node34 -->
<g id="node35" class="node">
<title>Node34</title>
<g id="a_node35"><a xlink:href="LOG_8inl_8hxx.html" target="_top" xlink:title="LOG.inl.hxx">
<polygon fill="none" stroke="#000000" points="1143.5,-224.5 1143.5,-243.5 1216.5,-243.5 1216.5,-224.5 1143.5,-224.5"/>
<text text-anchor="middle" x="1180" y="-231.5" font-family="Helvetica,sans-Serif" font-size="10.00" fill="#000000">LOG.inl.hxx</text>
</a>
</g>
</g>
<!-- Node24&#45;&gt;Node34 -->
<g id="edge46" class="edge">
<title>Node24&#45;&gt;Node34</title>
<path fill="none" stroke="#191970" d="M1206.426,-280.2455C1202.0669,-272.617 1195.8789,-261.7881 1190.5867,-252.5267"/>
<polygon fill="#191970" stroke="#191970" points="1193.5104,-250.5886 1185.5101,-243.6427 1187.4327,-254.0616 1193.5104,-250.5886"/>
</g>
<!-- Node26 -->
<g id="node27" class="node">
<title>Node26</title>
<polygon fill="none" stroke="#bfbfbf" points="1447.5,-168.5 1447.5,-187.5 1512.5,-187.5 1512.5,-168.5 1447.5,-168.5"/>
<text text-anchor="middle" x="1480" y="-175.5" font-family="Helvetica,sans-Serif" font-size="10.00" fill="#000000">stdexcept</text>
</g>
<!-- Node25&#45;&gt;Node26 -->
<g id="edge35" class="edge">
<title>Node25&#45;&gt;Node26</title>
<path fill="none" stroke="#191970" d="M1514.6842,-224.2455C1508.7821,-216.3761 1500.3258,-205.101 1493.2406,-195.6542"/>
<polygon fill="#191970" stroke="#191970" points="1496.0321,-193.5427 1487.232,-187.6427 1490.432,-197.7427 1496.0321,-193.5427"/>
</g>
<!-- Node27 -->
<g id="node28" class="node">
<title>Node27</title>
<polygon fill="none" stroke="#bfbfbf" points="1530.5,-168.5 1530.5,-187.5 1595.5,-187.5 1595.5,-168.5 1530.5,-168.5"/>
<text text-anchor="middle" x="1563" y="-175.5" font-family="Helvetica,sans-Serif" font-size="10.00" fill="#000000">exception</text>
</g>
<!-- Node25&#45;&gt;Node27 -->
<g id="edge36" class="edge">
<title>Node25&#45;&gt;Node27</title>
<path fill="none" stroke="#191970" d="M1529.1417,-224.2455C1534.8444,-216.4564 1542.99,-205.3308 1549.8625,-195.9439"/>
<polygon fill="#191970" stroke="#191970" points="1552.8568,-197.7789 1555.9402,-187.6427 1547.2087,-193.6437 1552.8568,-197.7789"/>
</g>
</g>
</svg>
        <g id="navigator" transform="translate(0 0)" fill="#404254">
                <rect fill="#f2f5e9" fill-opacity="0.5" stroke="#606060" stroke-width=".5" x="0" y="0" width="60" height="60"/>
                <use id="zoomplus" xlink:href="#zoomPlus" x="17" y="9" onmousedown="handleZoom(evt,'in')"/>
                <use id="zoomminus" xlink:href="#zoomMin" x="42" y="9" onmousedown="handleZoom(evt,'out')"/>
                <use id="reset" xlink:href="#resetDef" x="30" y="36" onmousedown="handleReset()"/>
                <g id="arrowUp" xlink:href="#dirArrow" transform="translate(30 24)" onmousedown="handlePan(0,-1)">
                  <use xlink:href="#rim" fill="#404040">
                        <set attributeName="fill" to="#808080" begin="arrowUp.mouseover" end="arrowUp.mouseout"/>
                  </use>
                  <path fill="none" stroke="white" stroke-width="1.5" d="M0,-3.0v7 M-2.5,-0.5L0,-3.0L2.5,-0.5"/>
                </g>
                <g id="arrowRight" xlink:href="#dirArrow" transform="rotate(90) translate(36 -43)" onmousedown="handlePan(1,0)">
                  <use xlink:href="#rim" fill="#404040">
                        <set attributeName="fill" to="#808080" begin="arrowRight.mouseover" end="arrowRight.mouseout"/>
                  </use>
                  <path fill="none" stroke="white" stroke-width="1.5" d="M0,-3.0v7 M-2.5,-0.5L0,-3.0L2.5,-0.5"/>
                </g>
                <g id="arrowDown" xlink:href="#dirArrow" transform="rotate(180) translate(-30 -48)" onmousedown="handlePan(0,1)">
                  <use xlink:href="#rim" fill="#404040">
                        <set attributeName="fill" to="#808080" begin="arrowDown.mouseover" end="arrowDown.mouseout"/>
                  </use>
                  <path fill="none" stroke="white" stroke-width="1.5" d="M0,-3.0v7 M-2.5,-0.5L0,-3.0L2.5,-0.5"/>
                </g>
                <g id="arrowLeft" xlink:href="#dirArrow" transform="rotate(270) translate(-36 17)" onmousedown="handlePan(-1,0)">
                  <use xlink:href="#rim" fill="#404040">
                        <set attributeName="fill" to="#808080" begin="arrowLeft.mouseover" end="arrowLeft.mouseout"/>
                  </use>
                  <path fill="none" stroke="white" stroke-width="1.5" d="M0,-3.0v7 M-2.5,-0.5L0,-3.0L2.5,-0.5"/>
                </g>
        </g>
        <svg viewBox="0 0 15 15" width="100%" height="30px" preserveAspectRatio="xMaxYMin meet">
         <g id="arrow_out" transform="scale(0.3 0.3)">
          <a xlink:href="ButtonState_8cxx__incl_org.svg" target="_base">
           <rect id="button" ry="5" rx="5" y="6" x="6" height="38" width="38"
                fill="#f2f5e9" fill-opacity="0.5" stroke="#606060" stroke-width="1.0"/>
           <path id="arrow"
             d="M 11.500037,31.436501 C 11.940474,20.09759 22.043105,11.32322 32.158766,21.979434 L 37.068811,17.246167 C 37.068811,17.246167 37.088388,32 37.088388,32 L 22.160133,31.978069 C 22.160133,31.978069 26.997745,27.140456 26.997745,27.140456 C 18.528582,18.264221 13.291696,25.230495 11.500037,31.436501 z"
             style="fill:#404040;"/>
          </a>
         </g>
        </svg>
</svg>
