<?xml version="1.0" encoding="UTF-8" standalone="no"?>
<!DOCTYPE svg PUBLIC "-//W3C//DTD SVG 1.1//EN"
 "http://www.w3.org/Graphics/SVG/1.1/DTD/svg11.dtd">
<!-- Generated by graphviz version 2.40.1 (20161225.0304)
 -->
<!-- Title: src/model/ButtonState.hxx Pages: 1 -->
<svg width="921pt" height="476pt"
 viewBox="0.00 0.00 921.00 476.00" xmlns="http://www.w3.org/2000/svg" xmlns:xlink="http://www.w3.org/1999/xlink">
<g id="graph0" class="graph" transform="scale(1 1) rotate(0) translate(4 472)">
<title>src/model/ButtonState.hxx</title>
<!-- Node0 -->
<g id="node1" class="node">
<title>Node0</title>
<polygon fill="#bfbfbf" stroke="#000000" points="204,-448.5 204,-467.5 350,-467.5 350,-448.5 204,-448.5"/>
<text text-anchor="middle" x="277" y="-455.5" font-family="Helvetica,sans-Serif" font-size="10.00" fill="#000000">src/model/ButtonState.hxx</text>
</g>
<!-- Node1 -->
<g id="node2" class="node">
<title>Node1</title>
<polygon fill="none" stroke="#bfbfbf" points="0,-168.5 0,-187.5 100,-187.5 100,-168.5 0,-168.5"/>
<text text-anchor="middle" x="50" y="-175.5" font-family="Helvetica,sans-Serif" font-size="10.00" fill="#000000">betterEnums.hxx</text>
</g>
<!-- Node0&#45;&gt;Node1 -->
<g id="edge1" class="edge">
<title>Node0&#45;&gt;Node1</title>
<path fill="none" stroke="#191970" d="M203.7282,-448.6183C144.1808,-436.4028 70,-408.6189 70,-346 70,-346 70,-346 70,-290 70,-257.2193 61.5945,-219.8705 55.6819,-197.6533"/>
<polygon fill="#191970" stroke="#191970" points="58.991,-196.4878 52.9511,-187.7832 52.2445,-198.3545 58.991,-196.4878"/>
</g>
<!-- Node2 -->
<g id="node3" class="node">
<title>Node2</title>
<g id="a_node3"><a xlink:href="DataModel_8hxx.html" target="_top" xlink:title="DataModel.hxx">
<polygon fill="none" stroke="#000000" points="635,-392.5 635,-411.5 725,-411.5 725,-392.5 635,-392.5"/>
<text text-anchor="middle" x="680" y="-399.5" font-family="Helvetica,sans-Serif" font-size="10.00" fill="#000000">DataModel.hxx</text>
</a>
</g>
</g>
<!-- Node0&#45;&gt;Node2 -->
<g id="edge2" class="edge">
<title>Node0&#45;&gt;Node2</title>
<path fill="none" stroke="#191970" d="M345.8203,-448.4369C424.5645,-437.4948 551.9729,-419.7904 624.6057,-409.6975"/>
<polygon fill="#191970" stroke="#191970" points="625.4892,-413.1084 634.9123,-408.2653 624.5257,-406.175 625.4892,-413.1084"/>
</g>
<!-- Node3 -->
<g id="node4" class="node">
<title>Node3</title>
<g id="a_node4"><a xlink:href="iModel_8hxx.html" target="_top" xlink:title="iModel.hxx">
<polygon fill="none" stroke="#000000" points="843,-280.5 843,-299.5 913,-299.5 913,-280.5 843,-280.5"/>
<text text-anchor="middle" x="878" y="-287.5" font-family="Helvetica,sans-Serif" font-size="10.00" fill="#000000">iModel.hxx</text>
</a>
</g>
</g>
<!-- Node2&#45;&gt;Node3 -->
<g id="edge3" class="edge">
<title>Node2&#45;&gt;Node3</title>
<path fill="none" stroke="#191970" d="M725.3332,-395.6443C756.6966,-389.5138 798.1708,-377.8144 829,-356 846.3924,-343.6933 860.1641,-323.2935 868.6229,-308.426"/>
<polygon fill="#191970" stroke="#191970" points="871.7201,-310.0564 873.3989,-299.5954 865.563,-306.7262 871.7201,-310.0564"/>
</g>
<!-- Node5 -->
<g id="node6" class="node">
<title>Node5</title>
<g id="a_node6"><a xlink:href="Observer_8hxx.html" target="_top" xlink:title="../util/Observer.hxx">
<polygon fill="none" stroke="#000000" points="572.5,-112.5 572.5,-131.5 681.5,-131.5 681.5,-112.5 572.5,-112.5"/>
<text text-anchor="middle" x="627" y="-119.5" font-family="Helvetica,sans-Serif" font-size="10.00" fill="#000000">../util/Observer.hxx</text>
</a>
</g>
</g>
<!-- Node2&#45;&gt;Node5 -->
<g id="edge5" class="edge">
<title>Node2&#45;&gt;Node5</title>
<path fill="none" stroke="#191970" d="M709.293,-392.4925C748.9976,-377.5496 815,-344.5114 815,-290 815,-290 815,-290 815,-234 815,-175.0758 745.9946,-146.4401 691.5972,-133.0206"/>
<polygon fill="#191970" stroke="#191970" points="692.1644,-129.5588 681.6299,-130.6881 690.5693,-136.3747 692.1644,-129.5588"/>
</g>
<!-- Node12 -->
<g id="node13" class="node">
<title>Node12</title>
<g id="a_node13"><a xlink:href="MessageQueue_8hxx.html" target="_top" xlink:title="../engine/MessageQueue.hxx">
<polygon fill="none" stroke="#000000" points="342.5,-280.5 342.5,-299.5 499.5,-299.5 499.5,-280.5 342.5,-280.5"/>
<text text-anchor="middle" x="421" y="-287.5" font-family="Helvetica,sans-Serif" font-size="10.00" fill="#000000">../engine/MessageQueue.hxx</text>
</a>
</g>
</g>
<!-- Node2&#45;&gt;Node12 -->
<g id="edge13" class="edge">
<title>Node2&#45;&gt;Node12</title>
<path fill="none" stroke="#191970" d="M657.9178,-392.4509C611.8526,-372.5308 505.3929,-326.4942 452.2936,-303.5323"/>
<polygon fill="#191970" stroke="#191970" points="453.5941,-300.2816 443.0263,-299.5249 450.8157,-306.7066 453.5941,-300.2816"/>
</g>
<!-- Node22 -->
<g id="node23" class="node">
<title>Node22</title>
<g id="a_node23"><a xlink:href="UIMQDispatcher_8hxx.html" target="_top" xlink:title="../engine/UIMQDispatcher.hxx">
<polygon fill="none" stroke="#000000" points="599.5,-336.5 599.5,-355.5 760.5,-355.5 760.5,-336.5 599.5,-336.5"/>
<text text-anchor="middle" x="680" y="-343.5" font-family="Helvetica,sans-Serif" font-size="10.00" fill="#000000">../engine/UIMQDispatcher.hxx</text>
</a>
</g>
</g>
<!-- Node2&#45;&gt;Node22 -->
<g id="edge28" class="edge">
<title>Node2&#45;&gt;Node22</title>
<path fill="none" stroke="#191970" d="M680,-392.2455C680,-384.9382 680,-374.6944 680,-365.7046"/>
<polygon fill="#191970" stroke="#191970" points="683.5001,-365.6426 680,-355.6427 676.5001,-365.6427 683.5001,-365.6426"/>
</g>
<!-- Node4 -->
<g id="node5" class="node">
<title>Node4</title>
<polygon fill="none" stroke="#bfbfbf" points="717,-56.5 717,-75.5 775,-75.5 775,-56.5 717,-56.5"/>
<text text-anchor="middle" x="746" y="-63.5" font-family="Helvetica,sans-Serif" font-size="10.00" fill="#000000">memory</text>
</g>
<!-- Node3&#45;&gt;Node4 -->
<g id="edge4" class="edge">
<title>Node3&#45;&gt;Node4</title>
<path fill="none" stroke="#191970" d="M875.2237,-280.3688C868.8777,-259.1466 852.0597,-207.1331 829,-168 809.8323,-135.4717 780.7923,-102.404 762.6338,-83.0682"/>
<polygon fill="#191970" stroke="#191970" points="765.0107,-80.4889 755.5784,-75.6638 759.9429,-85.3179 765.0107,-80.4889"/>
</g>
<!-- Node5&#45;&gt;Node4 -->
<g id="edge7" class="edge">
<title>Node5&#45;&gt;Node4</title>
<path fill="none" stroke="#191970" d="M647.4568,-112.3733C666.4738,-103.4241 695.0175,-89.9917 716.4976,-79.8835"/>
<polygon fill="#191970" stroke="#191970" points="718.2522,-82.926 725.8101,-75.5011 715.2716,-76.5923 718.2522,-82.926"/>
</g>
<!-- Node6 -->
<g id="node7" class="node">
<title>Node6</title>
<polygon fill="none" stroke="#bfbfbf" points="490.5,-56.5 490.5,-75.5 537.5,-75.5 537.5,-56.5 490.5,-56.5"/>
<text text-anchor="middle" x="514" y="-63.5" font-family="Helvetica,sans-Serif" font-size="10.00" fill="#000000">vector</text>
</g>
<!-- Node5&#45;&gt;Node6 -->
<g id="edge6" class="edge">
<title>Node5&#45;&gt;Node6</title>
<path fill="none" stroke="#191970" d="M607.5746,-112.3733C589.5979,-103.4644 562.6559,-90.1127 542.291,-80.0203"/>
<polygon fill="#191970" stroke="#191970" points="543.6861,-76.8055 533.1719,-75.5011 540.5778,-83.0776 543.6861,-76.8055"/>
</g>
<!-- Node7 -->
<g id="node8" class="node">
<title>Node7</title>
<g id="a_node8"><a xlink:href="Meta_8hxx.html" target="_top" xlink:title="Meta.hxx">
<polygon fill="none" stroke="#000000" points="329,-56.5 329,-75.5 391,-75.5 391,-56.5 329,-56.5"/>
<text text-anchor="middle" x="360" y="-63.5" font-family="Helvetica,sans-Serif" font-size="10.00" fill="#000000">Meta.hxx</text>
</a>
</g>
</g>
<!-- Node5&#45;&gt;Node7 -->
<g id="edge8" class="edge">
<title>Node5&#45;&gt;Node7</title>
<path fill="none" stroke="#191970" d="M581.4044,-112.4369C530.7897,-101.8211 449.8277,-84.8403 401.1004,-74.6203"/>
<polygon fill="#191970" stroke="#191970" points="401.7199,-71.1742 391.2144,-72.5468 400.2829,-78.0251 401.7199,-71.1742"/>
</g>
<!-- Node8 -->
<g id="node9" class="node">
<title>Node8</title>
<polygon fill="none" stroke="#bfbfbf" points="208,-.5 208,-19.5 268,-19.5 268,-.5 208,-.5"/>
<text text-anchor="middle" x="238" y="-7.5" font-family="Helvetica,sans-Serif" font-size="10.00" fill="#000000">iostream</text>
</g>
<!-- Node7&#45;&gt;Node8 -->
<g id="edge9" class="edge">
<title>Node7&#45;&gt;Node8</title>
<path fill="none" stroke="#191970" d="M339.0275,-56.3733C319.4433,-47.3838 290.0039,-33.8706 267.949,-23.7471"/>
<polygon fill="#191970" stroke="#191970" points="269.2473,-20.4919 258.6989,-19.5011 266.3271,-26.8538 269.2473,-20.4919"/>
</g>
<!-- Node9 -->
<g id="node10" class="node">
<title>Node9</title>
<polygon fill="none" stroke="#bfbfbf" points="286.5,-.5 286.5,-19.5 355.5,-19.5 355.5,-.5 286.5,-.5"/>
<text text-anchor="middle" x="321" y="-7.5" font-family="Helvetica,sans-Serif" font-size="10.00" fill="#000000">type_traits</text>
</g>
<!-- Node7&#45;&gt;Node9 -->
<g id="edge10" class="edge">
<title>Node7&#45;&gt;Node9</title>
<path fill="none" stroke="#191970" d="M353.2067,-56.2455C347.7822,-48.4564 340.0339,-37.3308 333.4967,-27.9439"/>
<polygon fill="#191970" stroke="#191970" points="336.3025,-25.8485 327.7154,-19.6427 330.5583,-29.849 336.3025,-25.8485"/>
</g>
<!-- Node10 -->
<g id="node11" class="node">
<title>Node10</title>
<polygon fill="none" stroke="#bfbfbf" points="373.5,-.5 373.5,-19.5 424.5,-19.5 424.5,-.5 373.5,-.5"/>
<text text-anchor="middle" x="399" y="-7.5" font-family="Helvetica,sans-Serif" font-size="10.00" fill="#000000">variant</text>
</g>
<!-- Node7&#45;&gt;Node10 -->
<g id="edge11" class="edge">
<title>Node7&#45;&gt;Node10</title>
<path fill="none" stroke="#191970" d="M366.7933,-56.2455C372.2178,-48.4564 379.9661,-37.3308 386.5033,-27.9439"/>
<polygon fill="#191970" stroke="#191970" points="389.4417,-29.849 392.2846,-19.6427 383.6975,-25.8485 389.4417,-29.849"/>
</g>
<!-- Node11 -->
<g id="node12" class="node">
<title>Node11</title>
<polygon fill="none" stroke="#bfbfbf" points="442.5,-.5 442.5,-19.5 483.5,-19.5 483.5,-.5 442.5,-.5"/>
<text text-anchor="middle" x="463" y="-7.5" font-family="Helvetica,sans-Serif" font-size="10.00" fill="#000000">tuple</text>
</g>
<!-- Node7&#45;&gt;Node11 -->
<g id="edge12" class="edge">
<title>Node7&#45;&gt;Node11</title>
<path fill="none" stroke="#191970" d="M377.9412,-56.2455C394.04,-47.4928 417.8879,-34.527 436.2391,-24.5496"/>
<polygon fill="#191970" stroke="#191970" points="438.1507,-27.4942 445.2644,-19.6427 434.8071,-21.3444 438.1507,-27.4942"/>
</g>
<!-- Node12&#45;&gt;Node6 -->
<g id="edge17" class="edge">
<title>Node12&#45;&gt;Node6</title>
<path fill="none" stroke="#191970" d="M417.9697,-280.3941C414.3399,-267.359 409.4064,-243.4619 415,-224 431.3688,-167.0475 474.9511,-110.7537 498.4566,-83.2992"/>
<polygon fill="#191970" stroke="#191970" points="501.1181,-85.5724 505.0544,-75.7359 495.8432,-80.9707 501.1181,-85.5724"/>
</g>
<!-- Node13 -->
<g id="node14" class="node">
<title>Node13</title>
<polygon fill="none" stroke="#bfbfbf" points="641.5,-224.5 641.5,-243.5 748.5,-243.5 748.5,-224.5 641.5,-224.5"/>
<text text-anchor="middle" x="695" y="-231.5" font-family="Helvetica,sans-Serif" font-size="10.00" fill="#000000">condition_variable</text>
</g>
<!-- Node12&#45;&gt;Node13 -->
<g id="edge14" class="edge">
<title>Node12&#45;&gt;Node13</title>
<path fill="none" stroke="#191970" d="M467.791,-280.4369C514.9795,-270.7925 587.872,-255.8948 638.3124,-245.5858"/>
<polygon fill="#191970" stroke="#191970" points="639.3054,-248.9553 648.402,-243.5237 637.9037,-242.097 639.3054,-248.9553"/>
</g>
<!-- Node14 -->
<g id="node15" class="node">
<title>Node14</title>
<polygon fill="none" stroke="#bfbfbf" points="156,-224.5 156,-243.5 204,-243.5 204,-224.5 156,-224.5"/>
<text text-anchor="middle" x="180" y="-231.5" font-family="Helvetica,sans-Serif" font-size="10.00" fill="#000000">mutex</text>
</g>
<!-- Node12&#45;&gt;Node14 -->
<g id="edge15" class="edge">
<title>Node12&#45;&gt;Node14</title>
<path fill="none" stroke="#191970" d="M372.8337,-280.4391C332.7467,-272.2364 273.9844,-259.6466 214.099,-244.1479"/>
<polygon fill="#191970" stroke="#191970" points="214.6501,-240.6744 204.0901,-241.5326 212.8804,-247.447 214.6501,-240.6744"/>
</g>
<!-- Node15 -->
<g id="node16" class="node">
<title>Node15</title>
<polygon fill="none" stroke="#bfbfbf" points="320.5,-224.5 320.5,-243.5 367.5,-243.5 367.5,-224.5 320.5,-224.5"/>
<text text-anchor="middle" x="344" y="-231.5" font-family="Helvetica,sans-Serif" font-size="10.00" fill="#000000">deque</text>
</g>
<!-- Node12&#45;&gt;Node15 -->
<g id="edge16" class="edge">
<title>Node12&#45;&gt;Node15</title>
<path fill="none" stroke="#191970" d="M407.5876,-280.2455C395.9943,-271.814 379.0252,-259.4729 365.5322,-249.6598"/>
<polygon fill="#191970" stroke="#191970" points="367.4047,-246.6938 357.2587,-243.6427 363.2874,-252.355 367.4047,-246.6938"/>
</g>
<!-- Node16 -->
<g id="node17" class="node">
<title>Node16</title>
<polygon fill="none" stroke="#bfbfbf" points="238.5,-112.5 238.5,-131.5 303.5,-131.5 303.5,-112.5 238.5,-112.5"/>
<text text-anchor="middle" x="271" y="-119.5" font-family="Helvetica,sans-Serif" font-size="10.00" fill="#000000">functional</text>
</g>
<!-- Node12&#45;&gt;Node16 -->
<g id="edge18" class="edge">
<title>Node12&#45;&gt;Node16</title>
<path fill="none" stroke="#191970" d="M342.406,-281.9806C265.9903,-273.3727 159.6183,-258.9132 147,-244 111.2304,-201.7247 190.3215,-157.4185 238.0806,-135.6803"/>
<polygon fill="#191970" stroke="#191970" points="239.7383,-138.7738 247.4576,-131.5169 236.8976,-132.3761 239.7383,-138.7738"/>
</g>
<!-- Node17 -->
<g id="node18" class="node">
<title>Node17</title>
<polygon fill="none" stroke="#bfbfbf" points="424,-224.5 424,-243.5 478,-243.5 478,-224.5 424,-224.5"/>
<text text-anchor="middle" x="451" y="-231.5" font-family="Helvetica,sans-Serif" font-size="10.00" fill="#000000">ciso646</text>
</g>
<!-- Node12&#45;&gt;Node17 -->
<g id="edge19" class="edge">
<title>Node12&#45;&gt;Node17</title>
<path fill="none" stroke="#191970" d="M426.2256,-280.2455C430.3123,-272.617 436.1135,-261.7881 441.075,-252.5267"/>
<polygon fill="#191970" stroke="#191970" points="444.1972,-254.1103 445.8343,-243.6427 438.0268,-250.8047 444.1972,-254.1103"/>
</g>
<!-- Node18 -->
<g id="node19" class="node">
<title>Node18</title>
<g id="a_node19"><a xlink:href="Events_8hxx.html" target="_top" xlink:title="../Events.hxx">
<polygon fill="none" stroke="#000000" points="222,-224.5 222,-243.5 302,-243.5 302,-224.5 222,-224.5"/>
<text text-anchor="middle" x="262" y="-231.5" font-family="Helvetica,sans-Serif" font-size="10.00" fill="#000000">../Events.hxx</text>
</a>
</g>
</g>
<!-- Node12&#45;&gt;Node18 -->
<g id="edge20" class="edge">
<title>Node12&#45;&gt;Node18</title>
<path fill="none" stroke="#191970" d="M393.6669,-280.3733C367.4566,-271.1419 327.7016,-257.1402 298.7332,-246.9375"/>
<polygon fill="#191970" stroke="#191970" points="299.5712,-243.5219 288.9764,-243.5011 297.2458,-250.1244 299.5712,-243.5219"/>
</g>
<!-- Node21 -->
<g id="node22" class="node">
<title>Node21</title>
<g id="a_node22"><a xlink:href="MessageQueue_8inl_8hxx.html" target="_top" xlink:title="MessageQueue.inl.hxx">
<polygon fill="none" stroke="#000000" points="496.5,-224.5 496.5,-243.5 623.5,-243.5 623.5,-224.5 496.5,-224.5"/>
<text text-anchor="middle" x="560" y="-231.5" font-family="Helvetica,sans-Serif" font-size="10.00" fill="#000000">MessageQueue.inl.hxx</text>
</a>
</g>
</g>
<!-- Node12&#45;&gt;Node21 -->
<g id="edge27" class="edge">
<title>Node12&#45;&gt;Node21</title>
<path fill="none" stroke="#191970" d="M444.895,-280.3733C467.5082,-271.2629 501.6542,-257.5062 526.8873,-247.3404"/>
<polygon fill="#191970" stroke="#191970" points="528.4493,-250.4845 536.4169,-243.5011 525.8334,-243.9917 528.4493,-250.4845"/>
</g>
<!-- Node18&#45;&gt;Node1 -->
<g id="edge22" class="edge">
<title>Node18&#45;&gt;Node1</title>
<path fill="none" stroke="#191970" d="M225.5559,-224.3733C189.6931,-214.9001 134.8122,-200.4032 95.9718,-190.1435"/>
<polygon fill="#191970" stroke="#191970" points="96.5308,-186.6712 85.9685,-187.5011 94.743,-193.439 96.5308,-186.6712"/>
</g>
<!-- Node18&#45;&gt;Node7 -->
<g id="edge23" class="edge">
<title>Node18&#45;&gt;Node7</title>
<path fill="none" stroke="#191970" d="M232.0542,-224.4983C214.9946,-217.3713 195.0676,-205.7417 185,-188 180.6131,-180.2691 182.0945,-176.4006 185,-168 195.3461,-138.0862 203.262,-130.4236 229,-112 255.8522,-92.7788 291.4809,-80.9564 318.8025,-74.1184"/>
<polygon fill="#191970" stroke="#191970" points="319.9108,-77.4526 328.8315,-71.7367 318.2934,-70.6421 319.9108,-77.4526"/>
</g>
<!-- Node19 -->
<g id="node20" class="node">
<title>Node19</title>
<polygon fill="none" stroke="#bfbfbf" points="194,-168.5 194,-187.5 238,-187.5 238,-168.5 194,-168.5"/>
<text text-anchor="middle" x="216" y="-175.5" font-family="Helvetica,sans-Serif" font-size="10.00" fill="#000000">string</text>
</g>
<!-- Node18&#45;&gt;Node19 -->
<g id="edge21" class="edge">
<title>Node18&#45;&gt;Node19</title>
<path fill="none" stroke="#191970" d="M253.9874,-224.2455C247.5232,-216.3761 238.2615,-205.101 230.5017,-195.6542"/>
<polygon fill="#191970" stroke="#191970" points="232.9727,-193.1484 223.9208,-187.6427 227.5636,-197.5916 232.9727,-193.1484"/>
</g>
<!-- Node20 -->
<g id="node21" class="node">
<title>Node20</title>
<g id="a_node21"><a xlink:href="UIEvents_8hxx.html" target="_top" xlink:title="events/UIEvents.hxx">
<polygon fill="none" stroke="#000000" points="256.5,-168.5 256.5,-187.5 373.5,-187.5 373.5,-168.5 256.5,-168.5"/>
<text text-anchor="middle" x="315" y="-175.5" font-family="Helvetica,sans-Serif" font-size="10.00" fill="#000000">events/UIEvents.hxx</text>
</a>
</g>
</g>
<!-- Node18&#45;&gt;Node20 -->
<g id="edge24" class="edge">
<title>Node18&#45;&gt;Node20</title>
<path fill="none" stroke="#191970" d="M271.2319,-224.2455C278.8317,-216.2155 289.7877,-204.6394 298.8368,-195.0781"/>
<polygon fill="#191970" stroke="#191970" points="301.5421,-197.3115 305.8739,-187.6427 296.458,-192.4998 301.5421,-197.3115"/>
</g>
<!-- Node20&#45;&gt;Node5 -->
<g id="edge26" class="edge">
<title>Node20&#45;&gt;Node5</title>
<path fill="none" stroke="#191970" d="M368.2802,-168.4369C422.4618,-158.712 506.4031,-143.6456 563.8841,-133.3285"/>
<polygon fill="#191970" stroke="#191970" points="564.7152,-136.7353 573.9395,-131.5237 563.4785,-129.8454 564.7152,-136.7353"/>
</g>
<!-- Node20&#45;&gt;Node16 -->
<g id="edge25" class="edge">
<title>Node20&#45;&gt;Node16</title>
<path fill="none" stroke="#191970" d="M307.3358,-168.2455C301.1527,-160.3761 292.2937,-149.101 284.8711,-139.6542"/>
<polygon fill="#191970" stroke="#191970" points="287.5068,-137.3435 278.5764,-131.6427 282.0025,-141.6683 287.5068,-137.3435"/>
</g>
<!-- Node22&#45;&gt;Node5 -->
<g id="edge29" class="edge">
<title>Node22&#45;&gt;Node5</title>
<path fill="none" stroke="#191970" d="M694.2454,-336.3113C721.9302,-316.207 778.4745,-268.1448 757,-224 736.643,-182.1524 689.8857,-152.3833 658.3602,-136.1883"/>
<polygon fill="#191970" stroke="#191970" points="659.6251,-132.9089 649.1115,-131.5998 656.514,-139.1795 659.6251,-132.9089"/>
</g>
<!-- Node22&#45;&gt;Node12 -->
<g id="edge30" class="edge">
<title>Node22&#45;&gt;Node12</title>
<path fill="none" stroke="#191970" d="M635.7706,-336.4369C591.2585,-326.8127 522.551,-311.957 474.8831,-301.6504"/>
<polygon fill="#191970" stroke="#191970" points="475.5608,-298.2161 465.047,-299.5237 474.0814,-305.058 475.5608,-298.2161"/>
</g>
</g>
</svg>
