<?xml version="1.0" encoding="UTF-8" standalone="no"?>
<!DOCTYPE svg PUBLIC "-//W3C//DTD SVG 1.1//EN"
 "http://www.w3.org/Graphics/SVG/1.1/DTD/svg11.dtd">
<!-- Generated by graphviz version 2.40.1 (20161225.0304)
 -->
<!-- Title: src/engine/basics/Camera.cxx Pages: 1 -->
<!--zoomable 476 -->
<svg id="main" version="1.1" xmlns="http://www.w3.org/2000/svg" xmlns:xlink="http://www.w3.org/1999/xlink" xml:space="preserve" onload="init(evt)">
<style type="text/css"><![CDATA[
.edge:hover path { stroke: red; }
.edge:hover polygon { stroke: red; fill: red; }
]]></style>
<script type="text/javascript"><![CDATA[
var edges = document.getElementsByTagName('g');
if (edges && edges.length) {
  for (var i=0;i<edges.length;i++) {
    if (edges[i].id.substr(0,4)=='edge') {
      edges[i].setAttribute('class','edge');
    }
  }
}
]]></script>
        <defs>
                <circle id="rim" cx="0" cy="0" r="7"/>
                <circle id="rim2" cx="0" cy="0" r="3.5"/>
                <g id="zoomPlus">
                        <use xlink:href="#rim" fill="#404040">
                                <set attributeName="fill" to="#808080" begin="zoomplus.mouseover" end="zoomplus.mouseout"/>
                        </use>
                        <path d="M-4,0h8M0,-4v8" fill="none" stroke="white" stroke-width="1.5" pointer-events="none"/>
                </g>
                <g id="zoomMin">
                        <use xlink:href="#rim" fill="#404040">
                                <set attributeName="fill" to="#808080" begin="zoomminus.mouseover" end="zoomminus.mouseout"/>
                        </use>
                        <path d="M-4,0h8" fill="none" stroke="white" stroke-width="1.5" pointer-events="none"/>
                </g>
                <g id="dirArrow">
                        <path fill="none" stroke="white" stroke-width="1.5" d="M0,-3.0v7 M-2.5,-0.5L0,-3.0L2.5,-0.5"/>
                </g>
               <g id="resetDef">
                       <use xlink:href="#rim2" fill="#404040">
                               <set attributeName="fill" to="#808080" begin="reset.mouseover" end="reset.mouseout"/>
                       </use>
               </g>
        </defs>

<script type="text/javascript">
var viewWidth = 1542;
var viewHeight = 476;
var sectionId = 'dynsection-0';
</script>
<script xlink:href="svgpan.js"/>
<svg id="graph" class="graph">
<g id="viewport">
<title>src/engine/basics/Camera.cxx</title>
<!-- Node0 -->
<g id="node1" class="node">
<title>Node0</title>
<polygon fill="#bfbfbf" stroke="#000000" points="451.9835,-448.5 451.9835,-467.5 613.9835,-467.5 613.9835,-448.5 451.9835,-448.5"/>
<text text-anchor="middle" x="532.9835" y="-455.5" font-family="Helvetica,sans-Serif" font-size="10.00" fill="#000000">src/engine/basics/Camera.cxx</text>
</g>
<!-- Node1 -->
<g id="node2" class="node">
<title>Node1</title>
<g id="a_node2"><a xlink:href="Camera_8hxx.html" target="_top" xlink:title="Camera.hxx">
<polygon fill="none" stroke="#000000" points="179.9835,-168.5 179.9835,-187.5 255.9835,-187.5 255.9835,-168.5 179.9835,-168.5"/>
<text text-anchor="middle" x="217.9835" y="-175.5" font-family="Helvetica,sans-Serif" font-size="10.00" fill="#000000">Camera.hxx</text>
</a>
</g>
</g>
<!-- Node0&#45;&gt;Node1 -->
<g id="edge1" class="edge">
<title>Node0&#45;&gt;Node1</title>
<path fill="none" stroke="#191970" d="M455.5799,-448.4859C354.4156,-433.8482 189.9835,-401.5172 189.9835,-346 189.9835,-346 189.9835,-346 189.9835,-290 189.9835,-256.5848 201.8589,-219.1911 210.142,-197.1729"/>
<polygon fill="#191970" stroke="#191970" points="213.4703,-198.2719 213.852,-187.6839 206.9509,-195.7229 213.4703,-198.2719"/>
</g>
<!-- Node4 -->
<g id="node5" class="node">
<title>Node4</title>
<g id="a_node5"><a xlink:href="isoMath_8hxx.html" target="_top" xlink:title="isoMath.hxx">
<polygon fill="none" stroke="#000000" points="47.9835,-168.5 47.9835,-187.5 123.9835,-187.5 123.9835,-168.5 47.9835,-168.5"/>
<text text-anchor="middle" x="85.9835" y="-175.5" font-family="Helvetica,sans-Serif" font-size="10.00" fill="#000000">isoMath.hxx</text>
</a>
</g>
</g>
<!-- Node0&#45;&gt;Node4 -->
<g id="edge4" class="edge">
<title>Node0&#45;&gt;Node4</title>
<path fill="none" stroke="#191970" d="M451.7936,-453.5263C326.4157,-444.3657 99.9835,-417.8726 99.9835,-346 99.9835,-346 99.9835,-346 99.9835,-290 99.9835,-257.311 94.0389,-219.6669 89.8969,-197.4058"/>
<polygon fill="#191970" stroke="#191970" points="93.3238,-196.692 87.9893,-187.5381 86.4511,-198.0207 93.3238,-196.692"/>
</g>
<!-- Node7 -->
<g id="node8" class="node">
<title>Node7</title>
<g id="a_node8"><a xlink:href="Settings_8hxx.html" target="_top" xlink:title="Settings.hxx">
<polygon fill="none" stroke="#000000" points="1192.4835,-224.5 1192.4835,-243.5 1269.4835,-243.5 1269.4835,-224.5 1192.4835,-224.5"/>
<text text-anchor="middle" x="1230.9835" y="-231.5" font-family="Helvetica,sans-Serif" font-size="10.00" fill="#000000">Settings.hxx</text>
</a>
</g>
</g>
<!-- Node0&#45;&gt;Node7 -->
<g id="edge9" class="edge">
<title>Node0&#45;&gt;Node7</title>
<path fill="none" stroke="#191970" d="M614.1163,-453.1316C762.3376,-442.8926 1069.6918,-415.0352 1156.9835,-356 1193.939,-331.0071 1215.5213,-280.801 1225.071,-253.2252"/>
<polygon fill="#191970" stroke="#191970" points="1228.4529,-254.1447 1228.2457,-243.5519 1221.8019,-251.9618 1228.4529,-254.1447"/>
</g>
<!-- Node16 -->
<g id="node17" class="node">
<title>Node16</title>
<g id="a_node17"><a xlink:href="Engine_8hxx.html" target="_top" xlink:title="../Engine.hxx">
<polygon fill="none" stroke="#000000" points="728.9835,-392.5 728.9835,-411.5 808.9835,-411.5 808.9835,-392.5 728.9835,-392.5"/>
<text text-anchor="middle" x="768.9835" y="-399.5" font-family="Helvetica,sans-Serif" font-size="10.00" fill="#000000">../Engine.hxx</text>
</a>
</g>
</g>
<!-- Node0&#45;&gt;Node16 -->
<g id="edge18" class="edge">
<title>Node0&#45;&gt;Node16</title>
<path fill="none" stroke="#191970" d="M573.2852,-448.4369C613.5899,-438.8731 675.6656,-424.1432 719.0653,-413.845"/>
<polygon fill="#191970" stroke="#191970" points="719.9263,-417.238 728.848,-411.5237 718.3101,-410.4271 719.9263,-417.238"/>
</g>
<!-- Node2 -->
<g id="node3" class="node">
<title>Node2</title>
<polygon fill="none" stroke="#bfbfbf" points="327.9835,-112.5 327.9835,-131.5 371.9835,-131.5 371.9835,-112.5 327.9835,-112.5"/>
<text text-anchor="middle" x="349.9835" y="-119.5" font-family="Helvetica,sans-Serif" font-size="10.00" fill="#000000">SDL.h</text>
</g>
<!-- Node1&#45;&gt;Node2 -->
<g id="edge2" class="edge">
<title>Node1&#45;&gt;Node2</title>
<path fill="none" stroke="#191970" d="M240.6751,-168.3733C262.0546,-159.3032 294.2892,-145.6279 318.2197,-135.4755"/>
<polygon fill="#191970" stroke="#191970" points="319.7491,-138.6287 327.588,-131.5011 317.0152,-132.1846 319.7491,-138.6287"/>
</g>
<!-- Node3 -->
<g id="node4" class="node">
<title>Node3</title>
<g id="a_node4"><a xlink:href="point_8hxx.html" target="_top" xlink:title="point.hxx">
<polygon fill="none" stroke="#000000" points="171.9835,-112.5 171.9835,-131.5 233.9835,-131.5 233.9835,-112.5 171.9835,-112.5"/>
<text text-anchor="middle" x="202.9835" y="-119.5" font-family="Helvetica,sans-Serif" font-size="10.00" fill="#000000">point.hxx</text>
</a>
</g>
</g>
<!-- Node1&#45;&gt;Node3 -->
<g id="edge3" class="edge">
<title>Node1&#45;&gt;Node3</title>
<path fill="none" stroke="#191970" d="M215.3707,-168.2455C213.3919,-160.8579 210.6091,-150.4689 208.1822,-141.4087"/>
<polygon fill="#191970" stroke="#191970" points="211.5346,-140.3966 205.5664,-131.6427 204.773,-142.2078 211.5346,-140.3966"/>
</g>
<!-- Node4&#45;&gt;Node2 -->
<g id="edge6" class="edge">
<title>Node4&#45;&gt;Node2</title>
<path fill="none" stroke="#191970" d="M124.0894,-169.9169C176.2376,-158.8552 268.9227,-139.1947 317.7838,-128.8302"/>
<polygon fill="#191970" stroke="#191970" points="318.7422,-132.2049 327.7982,-126.706 317.2896,-125.3573 318.7422,-132.2049"/>
</g>
<!-- Node4&#45;&gt;Node3 -->
<g id="edge5" class="edge">
<title>Node4&#45;&gt;Node3</title>
<path fill="none" stroke="#191970" d="M106.0965,-168.3733C124.7938,-159.4241 152.8579,-145.9917 173.9769,-135.8835"/>
<polygon fill="#191970" stroke="#191970" points="175.624,-138.9755 183.1329,-131.5011 172.6018,-132.6614 175.624,-138.9755"/>
</g>
<!-- Node5 -->
<g id="node6" class="node">
<title>Node5</title>
<polygon fill="none" stroke="#bfbfbf" points="414.4835,-56.5 414.4835,-75.5 461.4835,-75.5 461.4835,-56.5 414.4835,-56.5"/>
<text text-anchor="middle" x="437.9835" y="-63.5" font-family="Helvetica,sans-Serif" font-size="10.00" fill="#000000">vector</text>
</g>
<!-- Node4&#45;&gt;Node5 -->
<g id="edge7" class="edge">
<title>Node4&#45;&gt;Node5</title>
<path fill="none" stroke="#191970" d="M94.2885,-168.0448C107.282,-153.2021 133.953,-125.5672 162.9835,-112 205.268,-92.2386 339.8971,-76.1467 403.7506,-69.4095"/>
<polygon fill="#191970" stroke="#191970" points="404.5057,-72.85 414.0904,-68.3352 403.7822,-65.8874 404.5057,-72.85"/>
</g>
<!-- Node6 -->
<g id="node7" class="node">
<title>Node6</title>
<polygon fill="none" stroke="#bfbfbf" points="20.9835,-112.5 20.9835,-131.5 84.9835,-131.5 84.9835,-112.5 20.9835,-112.5"/>
<text text-anchor="middle" x="52.9835" y="-119.5" font-family="Helvetica,sans-Serif" font-size="10.00" fill="#000000">algorithm</text>
</g>
<!-- Node4&#45;&gt;Node6 -->
<g id="edge8" class="edge">
<title>Node4&#45;&gt;Node6</title>
<path fill="none" stroke="#191970" d="M80.2353,-168.2455C75.74,-160.617 69.3586,-149.7881 63.901,-140.5267"/>
<polygon fill="#191970" stroke="#191970" points="66.7581,-138.4811 58.6658,-131.6427 60.7274,-142.035 66.7581,-138.4811"/>
</g>
<!-- Node8 -->
<g id="node9" class="node">
<title>Node8</title>
<polygon fill="none" stroke="#bfbfbf" points="994.9835,-56.5 994.9835,-75.5 1038.9835,-75.5 1038.9835,-56.5 994.9835,-56.5"/>
<text text-anchor="middle" x="1016.9835" y="-63.5" font-family="Helvetica,sans-Serif" font-size="10.00" fill="#000000">string</text>
</g>
<!-- Node7&#45;&gt;Node8 -->
<g id="edge10" class="edge">
<title>Node7&#45;&gt;Node8</title>
<path fill="none" stroke="#191970" d="M1232.7303,-224.2467C1236.2224,-201.3652 1241.3977,-143.7763 1211.9835,-112 1190.2454,-88.5162 1099.0194,-75.0268 1049.4237,-69.2965"/>
<polygon fill="#191970" stroke="#191970" points="1049.5488,-65.7889 1039.2227,-68.1596 1048.7734,-72.7458 1049.5488,-65.7889"/>
</g>
<!-- Node9 -->
<g id="node10" class="node">
<title>Node9</title>
<g id="a_node10"><a xlink:href="Singleton_8hxx.html" target="_top" xlink:title="../../util/Singleton.hxx">
<polygon fill="none" stroke="#000000" points="1082.9835,-112.5 1082.9835,-131.5 1202.9835,-131.5 1202.9835,-112.5 1082.9835,-112.5"/>
<text text-anchor="middle" x="1142.9835" y="-119.5" font-family="Helvetica,sans-Serif" font-size="10.00" fill="#000000">../../util/Singleton.hxx</text>
</a>
</g>
</g>
<!-- Node7&#45;&gt;Node9 -->
<g id="edge11" class="edge">
<title>Node7&#45;&gt;Node9</title>
<path fill="none" stroke="#191970" d="M1223.4807,-224.4509C1208.6734,-205.6054 1175.5002,-163.3849 1156.6878,-139.4419"/>
<polygon fill="#191970" stroke="#191970" points="1159.3977,-137.2257 1150.4673,-131.5249 1153.8935,-141.5505 1159.3977,-137.2257"/>
</g>
<!-- Node10 -->
<g id="node11" class="node">
<title>Node10</title>
<g id="a_node11"><a xlink:href="Meta_8hxx.html" target="_top" xlink:title="../../util/Meta.hxx">
<polygon fill="none" stroke="#000000" points="1330.9835,-168.5 1330.9835,-187.5 1428.9835,-187.5 1428.9835,-168.5 1330.9835,-168.5"/>
<text text-anchor="middle" x="1379.9835" y="-175.5" font-family="Helvetica,sans-Serif" font-size="10.00" fill="#000000">../../util/Meta.hxx</text>
</a>
</g>
</g>
<!-- Node7&#45;&gt;Node10 -->
<g id="edge12" class="edge">
<title>Node7&#45;&gt;Node10</title>
<path fill="none" stroke="#191970" d="M1256.5975,-224.3733C1281.0522,-215.1822 1318.0889,-201.2624 1345.2044,-191.0713"/>
<polygon fill="#191970" stroke="#191970" points="1346.5744,-194.2956 1354.7037,-187.5011 1344.1116,-187.7431 1346.5744,-194.2956"/>
</g>
<!-- Node15 -->
<g id="node16" class="node">
<title>Node15</title>
<polygon fill="none" stroke="#bfbfbf" points="1259.4835,-168.5 1259.4835,-187.5 1312.4835,-187.5 1312.4835,-168.5 1259.4835,-168.5"/>
<text text-anchor="middle" x="1285.9835" y="-175.5" font-family="Helvetica,sans-Serif" font-size="10.00" fill="#000000">cstddef</text>
</g>
<!-- Node7&#45;&gt;Node15 -->
<g id="edge17" class="edge">
<title>Node7&#45;&gt;Node15</title>
<path fill="none" stroke="#191970" d="M1240.5638,-224.2455C1248.5293,-216.1352 1260.0475,-204.4075 1269.4914,-194.7919"/>
<polygon fill="#191970" stroke="#191970" points="1272.003,-197.2297 1276.513,-187.6427 1267.0088,-192.3247 1272.003,-197.2297"/>
</g>
<!-- Node11 -->
<g id="node12" class="node">
<title>Node11</title>
<polygon fill="none" stroke="#bfbfbf" points="1258.9835,-112.5 1258.9835,-131.5 1318.9835,-131.5 1318.9835,-112.5 1258.9835,-112.5"/>
<text text-anchor="middle" x="1288.9835" y="-119.5" font-family="Helvetica,sans-Serif" font-size="10.00" fill="#000000">iostream</text>
</g>
<!-- Node10&#45;&gt;Node11 -->
<g id="edge13" class="edge">
<title>Node10&#45;&gt;Node11</title>
<path fill="none" stroke="#191970" d="M1364.1325,-168.2455C1350.1703,-159.6534 1329.6107,-147.0014 1313.5239,-137.1018"/>
<polygon fill="#191970" stroke="#191970" points="1315.0038,-133.9029 1304.6528,-131.6427 1311.3351,-139.8645 1315.0038,-133.9029"/>
</g>
<!-- Node12 -->
<g id="node13" class="node">
<title>Node12</title>
<polygon fill="none" stroke="#bfbfbf" points="1337.4835,-112.5 1337.4835,-131.5 1406.4835,-131.5 1406.4835,-112.5 1337.4835,-112.5"/>
<text text-anchor="middle" x="1371.9835" y="-119.5" font-family="Helvetica,sans-Serif" font-size="10.00" fill="#000000">type_traits</text>
</g>
<!-- Node10&#45;&gt;Node12 -->
<g id="edge14" class="edge">
<title>Node10&#45;&gt;Node12</title>
<path fill="none" stroke="#191970" d="M1378.59,-168.2455C1377.5461,-160.9382 1376.0827,-150.6944 1374.7984,-141.7046"/>
<polygon fill="#191970" stroke="#191970" points="1378.2401,-141.0472 1373.361,-131.6427 1371.3105,-142.0372 1378.2401,-141.0472"/>
</g>
<!-- Node13 -->
<g id="node14" class="node">
<title>Node13</title>
<polygon fill="none" stroke="#bfbfbf" points="1424.4835,-112.5 1424.4835,-131.5 1475.4835,-131.5 1475.4835,-112.5 1424.4835,-112.5"/>
<text text-anchor="middle" x="1449.9835" y="-119.5" font-family="Helvetica,sans-Serif" font-size="10.00" fill="#000000">variant</text>
</g>
<!-- Node10&#45;&gt;Node13 -->
<g id="edge15" class="edge">
<title>Node10&#45;&gt;Node13</title>
<path fill="none" stroke="#191970" d="M1392.1766,-168.2455C1402.6156,-159.8943 1417.849,-147.7076 1430.0575,-137.9408"/>
<polygon fill="#191970" stroke="#191970" points="1432.3079,-140.6227 1437.9301,-131.6427 1427.935,-135.1566 1432.3079,-140.6227"/>
</g>
<!-- Node14 -->
<g id="node15" class="node">
<title>Node14</title>
<polygon fill="none" stroke="#bfbfbf" points="1493.4835,-112.5 1493.4835,-131.5 1534.4835,-131.5 1534.4835,-112.5 1493.4835,-112.5"/>
<text text-anchor="middle" x="1513.9835" y="-119.5" font-family="Helvetica,sans-Serif" font-size="10.00" fill="#000000">tuple</text>
</g>
<!-- Node10&#45;&gt;Node14 -->
<g id="edge16" class="edge">
<title>Node10&#45;&gt;Node14</title>
<path fill="none" stroke="#191970" d="M1403.0189,-168.3733C1425.38,-159.0283 1459.4387,-144.7949 1483.9231,-134.5625"/>
<polygon fill="#191970" stroke="#191970" points="1485.5654,-137.6696 1493.4425,-130.5843 1482.8662,-131.2109 1485.5654,-137.6696"/>
</g>
<!-- Node16&#45;&gt;Node2 -->
<g id="edge19" class="edge">
<title>Node16&#45;&gt;Node2</title>
<path fill="none" stroke="#191970" d="M781.8651,-392.4726C802.6083,-376.2291 842.6368,-340.9307 857.9835,-300 872.4408,-261.4411 840.954,-244.048 804.9835,-224 736.0028,-185.5538 708.0965,-205.03 630.9835,-188 540.5694,-168.0325 434.2864,-142.5066 382.1417,-129.8478"/>
<polygon fill="#191970" stroke="#191970" points="382.702,-126.3821 372.1582,-127.4207 381.0483,-133.184 382.702,-126.3821"/>
</g>
<!-- Node16&#45;&gt;Node3 -->
<g id="edge26" class="edge">
<title>Node16&#45;&gt;Node3</title>
<path fill="none" stroke="#191970" d="M736.7057,-392.44C706.8143,-383.4591 661.1968,-369.4283 621.9835,-356 419.6203,-286.702 293.012,-363.6762 170.9835,-188 160.2953,-172.6129 172.4614,-153.1129 184.7431,-139.3096"/>
<polygon fill="#191970" stroke="#191970" points="187.4331,-141.5608 191.8157,-131.9149 182.3744,-136.7224 187.4331,-141.5608"/>
</g>
<!-- Node16&#45;&gt;Node9 -->
<g id="edge60" class="edge">
<title>Node16&#45;&gt;Node9</title>
<path fill="none" stroke="#191970" d="M809.008,-398.5715C905.4898,-389.2072 1142.9835,-359.1351 1142.9835,-290 1142.9835,-290 1142.9835,-290 1142.9835,-234 1142.9835,-201.7116 1142.9835,-164.1872 1142.9835,-141.8048"/>
<polygon fill="#191970" stroke="#191970" points="1146.4836,-141.5883 1142.9835,-131.5884 1139.4836,-141.5884 1146.4836,-141.5883"/>
</g>
<!-- Node17 -->
<g id="node18" class="node">
<title>Node17</title>
<g id="a_node18"><a xlink:href="WindowManager_8hxx.html" target="_top" xlink:title="WindowManager.hxx">
<polygon fill="none" stroke="#000000" points="963.9835,-168.5 963.9835,-187.5 1081.9835,-187.5 1081.9835,-168.5 963.9835,-168.5"/>
<text text-anchor="middle" x="1022.9835" y="-175.5" font-family="Helvetica,sans-Serif" font-size="10.00" fill="#000000">WindowManager.hxx</text>
</a>
</g>
</g>
<!-- Node16&#45;&gt;Node17 -->
<g id="edge20" class="edge">
<title>Node16&#45;&gt;Node17</title>
<path fill="none" stroke="#191970" d="M809.2033,-393.0677C834.4832,-386.0222 866.7748,-374.2755 890.9835,-356 950.231,-311.2733 995.1551,-232.8481 1013.6891,-196.9323"/>
<polygon fill="#191970" stroke="#191970" points="1017.012,-198.1165 1018.3947,-187.6123 1010.7633,-194.9616 1017.012,-198.1165"/>
</g>
<!-- Node18 -->
<g id="node19" class="node">
<title>Node18</title>
<g id="a_node19"><a xlink:href="Map_8hxx.html" target="_top" xlink:title="Map.hxx">
<polygon fill="none" stroke="#000000" points="630.9835,-336.5 630.9835,-355.5 688.9835,-355.5 688.9835,-336.5 630.9835,-336.5"/>
<text text-anchor="middle" x="659.9835" y="-343.5" font-family="Helvetica,sans-Serif" font-size="10.00" fill="#000000">Map.hxx</text>
</a>
</g>
</g>
<!-- Node16&#45;&gt;Node18 -->
<g id="edge27" class="edge">
<title>Node16&#45;&gt;Node18</title>
<path fill="none" stroke="#191970" d="M749.9971,-392.2455C732.8043,-383.4125 707.2597,-370.2887 687.7703,-360.2758"/>
<polygon fill="#191970" stroke="#191970" points="689.2465,-357.0993 678.7523,-355.6427 686.0476,-363.3257 689.2465,-357.0993"/>
</g>
<!-- Node17&#45;&gt;Node2 -->
<g id="edge24" class="edge">
<title>Node17&#45;&gt;Node2</title>
<path fill="none" stroke="#191970" d="M963.5838,-173.3818C860.6137,-165.3275 642.3071,-148.0364 457.9835,-132 432.6276,-129.794 403.9398,-127.1298 382.507,-125.1062"/>
<polygon fill="#191970" stroke="#191970" points="382.6016,-121.5996 372.316,-124.1407 381.9413,-128.5684 382.6016,-121.5996"/>
</g>
<!-- Node17&#45;&gt;Node5 -->
<g id="edge23" class="edge">
<title>Node17&#45;&gt;Node5</title>
<path fill="none" stroke="#191970" d="M1011.5118,-168.3089C992.9964,-153.2882 954.7669,-124.7866 916.9835,-112 834.2145,-83.9894 566.876,-71.0409 471.8729,-67.242"/>
<polygon fill="#191970" stroke="#191970" points="471.8063,-63.7369 461.6771,-66.8433 471.5327,-70.7315 471.8063,-63.7369"/>
</g>
<!-- Node17&#45;&gt;Node8 -->
<g id="edge21" class="edge">
<title>Node17&#45;&gt;Node8</title>
<path fill="none" stroke="#191970" d="M1025.8299,-168.1376C1029.1813,-155.2162 1033.9394,-131.8647 1030.9835,-112 1029.6508,-103.0439 1026.934,-93.419 1024.2454,-85.3"/>
<polygon fill="#191970" stroke="#191970" points="1027.4771,-83.9402 1020.8459,-75.6772 1020.8768,-86.272 1027.4771,-83.9402"/>
</g>
<!-- Node17&#45;&gt;Node9 -->
<g id="edge25" class="edge">
<title>Node17&#45;&gt;Node9</title>
<path fill="none" stroke="#191970" d="M1043.6122,-168.3733C1062.8753,-159.3838 1091.8321,-145.8706 1113.5254,-135.7471"/>
<polygon fill="#191970" stroke="#191970" points="1115.0422,-138.9017 1122.6239,-131.5011 1112.082,-132.5584 1115.0422,-138.9017"/>
</g>
<!-- Node17&#45;&gt;Node11 -->
<g id="edge22" class="edge">
<title>Node17&#45;&gt;Node11</title>
<path fill="none" stroke="#191970" d="M1068.4083,-168.4369C1119.1105,-157.7627 1200.3795,-140.6535 1248.8343,-130.4525"/>
<polygon fill="#191970" stroke="#191970" points="1249.5887,-133.8705 1258.6531,-128.3853 1248.1465,-127.0206 1249.5887,-133.8705"/>
</g>
<!-- Node18&#45;&gt;Node5 -->
<g id="edge28" class="edge">
<title>Node18&#45;&gt;Node5</title>
<path fill="none" stroke="#191970" d="M651.966,-336.3469C644.4692,-327.1858 633.0939,-312.9334 623.9835,-300 600.9767,-267.3391 602.4041,-253.9666 575.9835,-224 550.0913,-194.6328 538.9973,-191.8952 507.9835,-168 486.2921,-151.2874 473.9052,-154.2784 457.9835,-132 448.2057,-118.3185 443.1368,-99.7828 440.5529,-85.8377"/>
<polygon fill="#191970" stroke="#191970" points="443.9879,-85.1504 438.971,-75.8186 437.0735,-86.2421 443.9879,-85.1504"/>
</g>
<!-- Node19 -->
<g id="node20" class="node">
<title>Node19</title>
<polygon fill="none" stroke="#bfbfbf" points="632.9835,-280.5 632.9835,-299.5 686.9835,-299.5 686.9835,-280.5 632.9835,-280.5"/>
<text text-anchor="middle" x="659.9835" y="-287.5" font-family="Helvetica,sans-Serif" font-size="10.00" fill="#000000">random</text>
</g>
<!-- Node18&#45;&gt;Node19 -->
<g id="edge29" class="edge">
<title>Node18&#45;&gt;Node19</title>
<path fill="none" stroke="#191970" d="M659.9835,-336.2455C659.9835,-328.9382 659.9835,-318.6944 659.9835,-309.7046"/>
<polygon fill="#191970" stroke="#191970" points="663.4836,-309.6426 659.9835,-299.6427 656.4836,-309.6427 663.4836,-309.6426"/>
</g>
<!-- Node20 -->
<g id="node21" class="node">
<title>Node20</title>
<g id="a_node21"><a xlink:href="MapNode_8hxx.html" target="_top" xlink:title="GameObjects/MapNode.hxx">
<polygon fill="none" stroke="#000000" points="414.9835,-224.5 414.9835,-243.5 566.9835,-243.5 566.9835,-224.5 414.9835,-224.5"/>
<text text-anchor="middle" x="490.9835" y="-231.5" font-family="Helvetica,sans-Serif" font-size="10.00" fill="#000000">GameObjects/MapNode.hxx</text>
</a>
</g>
</g>
<!-- Node18&#45;&gt;Node20 -->
<g id="edge30" class="edge">
<title>Node18&#45;&gt;Node20</title>
<path fill="none" stroke="#191970" d="M645.5746,-336.4509C616.265,-317.0268 549.4852,-272.7703 514.0542,-249.2895"/>
<polygon fill="#191970" stroke="#191970" points="515.625,-246.1317 505.3559,-243.5249 511.758,-251.9666 515.625,-246.1317"/>
</g>
<!-- Node31 -->
<g id="node32" class="node">
<title>Node31</title>
<g id="a_node32"><a xlink:href="TerrainGenerator_8hxx.html" target="_top" xlink:title="map/TerrainGenerator.hxx">
<polygon fill="none" stroke="#000000" points="705.4835,-280.5 705.4835,-299.5 848.4835,-299.5 848.4835,-280.5 705.4835,-280.5"/>
<text text-anchor="middle" x="776.9835" y="-287.5" font-family="Helvetica,sans-Serif" font-size="10.00" fill="#000000">map/TerrainGenerator.hxx</text>
</a>
</g>
</g>
<!-- Node18&#45;&gt;Node31 -->
<g id="edge56" class="edge">
<title>Node18&#45;&gt;Node31</title>
<path fill="none" stroke="#191970" d="M680.0965,-336.3733C698.7938,-327.4241 726.8579,-313.9917 747.9769,-303.8835"/>
<polygon fill="#191970" stroke="#191970" points="749.624,-306.9755 757.1329,-299.5011 746.6018,-300.6614 749.624,-306.9755"/>
</g>
<!-- Node20&#45;&gt;Node2 -->
<g id="edge31" class="edge">
<title>Node20&#45;&gt;Node2</title>
<path fill="none" stroke="#191970" d="M490.8025,-224.1736C490.019,-209.9947 486.5387,-183.7731 471.9835,-168 465.5739,-161.0541 415.6016,-143.5926 381.6351,-132.2925"/>
<polygon fill="#191970" stroke="#191970" points="382.6947,-128.9565 372.1015,-129.1422 380.4984,-135.6031 382.6947,-128.9565"/>
</g>
<!-- Node20&#45;&gt;Node3 -->
<g id="edge44" class="edge">
<title>Node20&#45;&gt;Node3</title>
<path fill="none" stroke="#191970" d="M430.3528,-224.4597C392.9102,-217.2717 344.4575,-205.5915 303.9835,-188 273.6639,-174.822 242.34,-152.8068 222.7744,-137.8598"/>
<polygon fill="#191970" stroke="#191970" points="224.7004,-134.9238 214.6581,-131.5468 220.4026,-140.4491 224.7004,-134.9238"/>
</g>
<!-- Node20&#45;&gt;Node5 -->
<g id="edge35" class="edge">
<title>Node20&#45;&gt;Node5</title>
<path fill="none" stroke="#191970" d="M493.8984,-224.2278C497.3615,-210.5757 501.45,-185.5055 490.9835,-168 473.6363,-138.9864 441.3307,-161.0136 423.9835,-132 415.3738,-117.6001 420.7812,-98.6526 427.2156,-84.7543"/>
<polygon fill="#191970" stroke="#191970" points="430.4303,-86.1566 431.8966,-75.6637 424.2069,-82.952 430.4303,-86.1566"/>
</g>
<!-- Node20&#45;&gt;Node6 -->
<g id="edge34" class="edge">
<title>Node20&#45;&gt;Node6</title>
<path fill="none" stroke="#191970" d="M414.5809,-231.7038C292.2618,-227.2313 63.6369,-215.2898 38.9835,-188 27.4998,-175.2884 33.7064,-155.5603 41.1386,-140.9813"/>
<polygon fill="#191970" stroke="#191970" points="44.4181,-142.2907 46.2774,-131.8603 38.3194,-138.8546 44.4181,-142.2907"/>
</g>
<!-- Node20&#45;&gt;Node8 -->
<g id="edge33" class="edge">
<title>Node20&#45;&gt;Node8</title>
<path fill="none" stroke="#191970" d="M567.0082,-226.5131C655.647,-215.4439 804.7013,-189.4509 919.9835,-132 948.4401,-117.8187 978.2574,-96.3935 997.1964,-81.8305"/>
<polygon fill="#191970" stroke="#191970" points="999.3573,-84.5839 1005.0887,-75.673 995.0514,-79.0649 999.3573,-84.5839"/>
</g>
<!-- Node21 -->
<g id="node22" class="node">
<title>Node21</title>
<polygon fill="none" stroke="#bfbfbf" points="404.9835,-168.5 404.9835,-187.5 462.9835,-187.5 462.9835,-168.5 404.9835,-168.5"/>
<text text-anchor="middle" x="433.9835" y="-175.5" font-family="Helvetica,sans-Serif" font-size="10.00" fill="#000000">memory</text>
</g>
<!-- Node20&#45;&gt;Node21 -->
<g id="edge32" class="edge">
<title>Node20&#45;&gt;Node21</title>
<path fill="none" stroke="#191970" d="M481.0548,-224.2455C472.7997,-216.1352 460.8626,-204.4075 451.0753,-194.7919"/>
<polygon fill="#191970" stroke="#191970" points="453.3846,-192.1542 443.7984,-187.6427 448.4789,-197.1476 453.3846,-192.1542"/>
</g>
<!-- Node22 -->
<g id="node23" class="node">
<title>Node22</title>
<g id="a_node23"><a xlink:href="Sprite_8hxx.html" target="_top" xlink:title="../Sprite.hxx">
<polygon fill="none" stroke="#000000" points="312.4835,-168.5 312.4835,-187.5 387.4835,-187.5 387.4835,-168.5 312.4835,-168.5"/>
<text text-anchor="middle" x="349.9835" y="-175.5" font-family="Helvetica,sans-Serif" font-size="10.00" fill="#000000">../Sprite.hxx</text>
</a>
</g>
</g>
<!-- Node20&#45;&gt;Node22 -->
<g id="edge36" class="edge">
<title>Node20&#45;&gt;Node22</title>
<path fill="none" stroke="#191970" d="M466.7447,-224.3733C443.7046,-215.2226 408.8621,-201.3844 383.2334,-191.2057"/>
<polygon fill="#191970" stroke="#191970" points="384.4917,-187.9395 373.906,-187.5011 381.9079,-194.4452 384.4917,-187.9395"/>
</g>
<!-- Node23 -->
<g id="node24" class="node">
<title>Node23</title>
<g id="a_node24"><a xlink:href="enums_8hxx.html" target="_top" xlink:title="common/enums.hxx">
<polygon fill="none" stroke="#000000" points="203.9835,-56.5 203.9835,-75.5 319.9835,-75.5 319.9835,-56.5 203.9835,-56.5"/>
<text text-anchor="middle" x="261.9835" y="-63.5" font-family="Helvetica,sans-Serif" font-size="10.00" fill="#000000">common/enums.hxx</text>
</a>
</g>
</g>
<!-- Node20&#45;&gt;Node23 -->
<g id="edge43" class="edge">
<title>Node20&#45;&gt;Node23</title>
<path fill="none" stroke="#191970" d="M414.7334,-230.9889C291.1965,-225.4383 58.1024,-211.9182 28.9835,-188 2.2371,-166.0306 -10.1663,-138.5972 11.9835,-112 34.7026,-84.7192 127.6132,-73.5599 193.5126,-69.0335"/>
<polygon fill="#191970" stroke="#191970" points="194.0902,-72.5035 203.8422,-68.3626 193.6364,-65.5182 194.0902,-72.5035"/>
</g>
<!-- Node26 -->
<g id="node27" class="node">
<title>Node26</title>
<g id="a_node27"><a xlink:href="TileManager_8hxx.html" target="_top" xlink:title="../TileManager.hxx">
<polygon fill="none" stroke="#000000" points="639.9835,-168.5 639.9835,-187.5 745.9835,-187.5 745.9835,-168.5 639.9835,-168.5"/>
<text text-anchor="middle" x="692.9835" y="-175.5" font-family="Helvetica,sans-Serif" font-size="10.00" fill="#000000">../TileManager.hxx</text>
</a>
</g>
</g>
<!-- Node20&#45;&gt;Node26 -->
<g id="edge45" class="edge">
<title>Node20&#45;&gt;Node26</title>
<path fill="none" stroke="#191970" d="M525.7085,-224.3733C559.7343,-214.9404 611.7272,-200.5265 648.7069,-190.2747"/>
<polygon fill="#191970" stroke="#191970" points="650.0101,-193.5455 658.7116,-187.5011 648.14,-186.7999 650.0101,-193.5455"/>
</g>
<!-- Node22&#45;&gt;Node2 -->
<g id="edge37" class="edge">
<title>Node22&#45;&gt;Node2</title>
<path fill="none" stroke="#191970" d="M349.9835,-168.2455C349.9835,-160.9382 349.9835,-150.6944 349.9835,-141.7046"/>
<polygon fill="#191970" stroke="#191970" points="353.4836,-141.6426 349.9835,-131.6427 346.4836,-141.6427 353.4836,-141.6426"/>
</g>
<!-- Node22&#45;&gt;Node3 -->
<g id="edge39" class="edge">
<title>Node22&#45;&gt;Node3</title>
<path fill="none" stroke="#191970" d="M324.7133,-168.3733C300.5869,-159.1822 264.0473,-145.2624 237.2958,-135.0713"/>
<polygon fill="#191970" stroke="#191970" points="238.5148,-131.7904 227.9239,-131.5011 236.0228,-138.3318 238.5148,-131.7904"/>
</g>
<!-- Node22&#45;&gt;Node5 -->
<g id="edge38" class="edge">
<title>Node22&#45;&gt;Node5</title>
<path fill="none" stroke="#191970" d="M339.1027,-168.0762C325.7619,-154.6807 306.3852,-130.3767 318.9835,-112 329.0133,-97.3699 373.0737,-83.0403 404.6563,-74.362"/>
<polygon fill="#191970" stroke="#191970" points="405.6585,-77.717 414.413,-71.7497 403.848,-70.9552 405.6585,-77.717"/>
</g>
<!-- Node22&#45;&gt;Node23 -->
<g id="edge40" class="edge">
<title>Node22&#45;&gt;Node23</title>
<path fill="none" stroke="#191970" d="M341.1479,-168.3396C332.8696,-159.1732 320.2651,-144.9174 309.9835,-132 297.366,-116.148 283.8673,-97.4118 274.4089,-83.96"/>
<polygon fill="#191970" stroke="#191970" points="277.161,-81.7877 268.5667,-75.5917 271.4213,-85.7948 277.161,-81.7877"/>
</g>
<!-- Node24 -->
<g id="node25" class="node">
<title>Node24</title>
<polygon fill="none" stroke="#bfbfbf" points="185.9835,-.5 185.9835,-19.5 241.9835,-19.5 241.9835,-.5 185.9835,-.5"/>
<text text-anchor="middle" x="213.9835" y="-7.5" font-family="Helvetica,sans-Serif" font-size="10.00" fill="#000000">stddef.h</text>
</g>
<!-- Node23&#45;&gt;Node24 -->
<g id="edge41" class="edge">
<title>Node23&#45;&gt;Node24</title>
<path fill="none" stroke="#191970" d="M253.6225,-56.2455C246.8085,-48.2958 237.0154,-36.8706 228.8683,-27.3656"/>
<polygon fill="#191970" stroke="#191970" points="231.414,-24.9575 222.2486,-19.6427 226.0992,-29.513 231.414,-24.9575"/>
</g>
<!-- Node25 -->
<g id="node26" class="node">
<title>Node25</title>
<polygon fill="none" stroke="#bfbfbf" points="259.9835,-.5 259.9835,-19.5 359.9835,-19.5 359.9835,-.5 259.9835,-.5"/>
<text text-anchor="middle" x="309.9835" y="-7.5" font-family="Helvetica,sans-Serif" font-size="10.00" fill="#000000">betterEnums.hxx</text>
</g>
<!-- Node23&#45;&gt;Node25 -->
<g id="edge42" class="edge">
<title>Node23&#45;&gt;Node25</title>
<path fill="none" stroke="#191970" d="M270.3445,-56.2455C277.1585,-48.2958 286.9516,-36.8706 295.0987,-27.3656"/>
<polygon fill="#191970" stroke="#191970" points="297.8678,-29.513 301.7183,-19.6427 292.553,-24.9575 297.8678,-29.513"/>
</g>
<!-- Node26&#45;&gt;Node2 -->
<g id="edge46" class="edge">
<title>Node26&#45;&gt;Node2</title>
<path fill="none" stroke="#191970" d="M639.7661,-169.3114C567.6968,-157.545 441.2929,-136.9077 382.1738,-127.2556"/>
<polygon fill="#191970" stroke="#191970" points="382.7123,-123.7972 372.279,-125.6401 381.5843,-130.7058 382.7123,-123.7972"/>
</g>
<!-- Node26&#45;&gt;Node8 -->
<g id="edge48" class="edge">
<title>Node26&#45;&gt;Node8</title>
<path fill="none" stroke="#191970" d="M746.2078,-168.5158C785.0527,-160.796 838.6219,-148.4805 883.9835,-132 923.0391,-117.8106 965.6455,-95.3209 991.8444,-80.6107"/>
<polygon fill="#191970" stroke="#191970" points="993.7493,-83.554 1000.7173,-75.5729 990.2931,-77.4667 993.7493,-83.554"/>
</g>
<!-- Node26&#45;&gt;Node9 -->
<g id="edge54" class="edge">
<title>Node26&#45;&gt;Node9</title>
<path fill="none" stroke="#191970" d="M746.3715,-171.3562C827.6344,-161.2434 982.4279,-141.9803 1072.7274,-130.743"/>
<polygon fill="#191970" stroke="#191970" points="1073.3813,-134.1887 1082.8725,-129.4805 1072.5168,-127.2423 1073.3813,-134.1887"/>
</g>
<!-- Node27 -->
<g id="node28" class="node">
<title>Node27</title>
<polygon fill="none" stroke="#bfbfbf" points="781.4835,-112.5 781.4835,-131.5 874.4835,-131.5 874.4835,-112.5 781.4835,-112.5"/>
<text text-anchor="middle" x="827.9835" y="-119.5" font-family="Helvetica,sans-Serif" font-size="10.00" fill="#000000">unordered_map</text>
</g>
<!-- Node26&#45;&gt;Node27 -->
<g id="edge47" class="edge">
<title>Node26&#45;&gt;Node27</title>
<path fill="none" stroke="#191970" d="M716.1908,-168.3733C738.1534,-159.2629 771.3167,-145.5062 795.8236,-135.3404"/>
<polygon fill="#191970" stroke="#191970" points="797.1832,-138.5657 805.079,-131.5011 794.5011,-132.0999 797.1832,-138.5657"/>
</g>
<!-- Node28 -->
<g id="node29" class="node">
<title>Node28</title>
<g id="a_node29"><a xlink:href="tileData_8hxx.html" target="_top" xlink:title="tileData.hxx">
<polygon fill="none" stroke="#000000" points="466.4835,-112.5 466.4835,-131.5 543.4835,-131.5 543.4835,-112.5 466.4835,-112.5"/>
<text text-anchor="middle" x="504.9835" y="-119.5" font-family="Helvetica,sans-Serif" font-size="10.00" fill="#000000">tileData.hxx</text>
</a>
</g>
</g>
<!-- Node26&#45;&gt;Node28 -->
<g id="edge49" class="edge">
<title>Node26&#45;&gt;Node28</title>
<path fill="none" stroke="#191970" d="M660.6651,-168.3733C629.1329,-158.9807 581.0214,-144.6496 546.6334,-134.4064"/>
<polygon fill="#191970" stroke="#191970" points="547.4632,-131.0016 536.8801,-131.5011 545.4648,-137.7103 547.4632,-131.0016"/>
</g>
<!-- Node29 -->
<g id="node30" class="node">
<title>Node29</title>
<polygon fill="none" stroke="#bfbfbf" points="561.9835,-112.5 561.9835,-131.5 619.9835,-131.5 619.9835,-112.5 561.9835,-112.5"/>
<text text-anchor="middle" x="590.9835" y="-119.5" font-family="Helvetica,sans-Serif" font-size="10.00" fill="#000000">json.hxx</text>
</g>
<!-- Node26&#45;&gt;Node29 -->
<g id="edge53" class="edge">
<title>Node26&#45;&gt;Node29</title>
<path fill="none" stroke="#191970" d="M675.2164,-168.2455C659.274,-159.4928 635.6576,-146.527 617.4846,-136.5496"/>
<polygon fill="#191970" stroke="#191970" points="618.9972,-133.3873 608.5469,-131.6427 615.6283,-139.5233 618.9972,-133.3873"/>
</g>
<!-- Node30 -->
<g id="node31" class="node">
<title>Node30</title>
<polygon fill="none" stroke="#bfbfbf" points="638.4835,-112.5 638.4835,-131.5 763.4835,-131.5 763.4835,-112.5 638.4835,-112.5"/>
<text text-anchor="middle" x="700.9835" y="-119.5" font-family="Helvetica,sans-Serif" font-size="10.00" fill="#000000">../common/enums.hxx</text>
</g>
<!-- Node26&#45;&gt;Node30 -->
<g id="edge55" class="edge">
<title>Node26&#45;&gt;Node30</title>
<path fill="none" stroke="#191970" d="M694.377,-168.2455C695.4209,-160.9382 696.8843,-150.6944 698.1685,-141.7046"/>
<polygon fill="#191970" stroke="#191970" points="701.6565,-142.0372 699.606,-131.6427 694.7268,-141.0472 701.6565,-142.0372"/>
</g>
<!-- Node28&#45;&gt;Node5 -->
<g id="edge51" class="edge">
<title>Node28&#45;&gt;Node5</title>
<path fill="none" stroke="#191970" d="M493.313,-112.2455C483.4174,-103.9746 469.0208,-91.9416 457.3934,-82.2232"/>
<polygon fill="#191970" stroke="#191970" points="459.4377,-79.3703 449.5203,-75.6427 454.9485,-84.7413 459.4377,-79.3703"/>
</g>
<!-- Node28&#45;&gt;Node8 -->
<g id="edge50" class="edge">
<title>Node28&#45;&gt;Node8</title>
<path fill="none" stroke="#191970" d="M543.6918,-113.5664C546.8281,-112.9958 549.9545,-112.4643 552.9835,-112 713.9028,-87.3328 908.3446,-73.0334 984.3295,-68.0354"/>
<polygon fill="#191970" stroke="#191970" points="984.9103,-71.5052 994.6628,-67.3653 984.4572,-64.5198 984.9103,-71.5052"/>
</g>
<!-- Node28&#45;&gt;Node23 -->
<g id="edge52" class="edge">
<title>Node28&#45;&gt;Node23</title>
<path fill="none" stroke="#191970" d="M466.4794,-113.1266C425.1729,-103.6074 359.351,-88.4386 313.5833,-77.8913"/>
<polygon fill="#191970" stroke="#191970" points="314.0931,-74.4171 303.5625,-75.582 312.5211,-81.2383 314.0931,-74.4171"/>
</g>
<!-- Node31&#45;&gt;Node5 -->
<g id="edge59" class="edge">
<title>Node31&#45;&gt;Node5</title>
<path fill="none" stroke="#191970" d="M790.7403,-280.4706C829.7109,-252.3817 934.8245,-168.3543 883.9835,-112 856.4707,-81.5036 571.1686,-70.0257 471.8478,-66.9356"/>
<polygon fill="#191970" stroke="#191970" points="471.8542,-63.4343 461.7531,-66.6307 471.6428,-70.4311 471.8542,-63.4343"/>
</g>
<!-- Node31&#45;&gt;Node20 -->
<g id="edge57" class="edge">
<title>Node31&#45;&gt;Node20</title>
<path fill="none" stroke="#191970" d="M728.1433,-280.4369C678.6825,-270.7522 602.1674,-255.7703 549.4955,-245.4569"/>
<polygon fill="#191970" stroke="#191970" points="550.1085,-242.0105 539.6222,-243.5237 548.7633,-248.8801 550.1085,-242.0105"/>
</g>
<!-- Node32 -->
<g id="node33" class="node">
<title>Node32</title>
<polygon fill="none" stroke="#bfbfbf" points="757.9835,-224.5 757.9835,-243.5 795.9835,-243.5 795.9835,-224.5 757.9835,-224.5"/>
<text text-anchor="middle" x="776.9835" y="-231.5" font-family="Helvetica,sans-Serif" font-size="10.00" fill="#000000">map</text>
</g>
<!-- Node31&#45;&gt;Node32 -->
<g id="edge58" class="edge">
<title>Node31&#45;&gt;Node32</title>
<path fill="none" stroke="#191970" d="M776.9835,-280.2455C776.9835,-272.9382 776.9835,-262.6944 776.9835,-253.7046"/>
<polygon fill="#191970" stroke="#191970" points="780.4836,-253.6426 776.9835,-243.6427 773.4836,-253.6427 780.4836,-253.6426"/>
</g>
</g>
</svg>
        <g id="navigator" transform="translate(0 0)" fill="#404254">
                <rect fill="#f2f5e9" fill-opacity="0.5" stroke="#606060" stroke-width=".5" x="0" y="0" width="60" height="60"/>
                <use id="zoomplus" xlink:href="#zoomPlus" x="17" y="9" onmousedown="handleZoom(evt,'in')"/>
                <use id="zoomminus" xlink:href="#zoomMin" x="42" y="9" onmousedown="handleZoom(evt,'out')"/>
                <use id="reset" xlink:href="#resetDef" x="30" y="36" onmousedown="handleReset()"/>
                <g id="arrowUp" xlink:href="#dirArrow" transform="translate(30 24)" onmousedown="handlePan(0,-1)">
                  <use xlink:href="#rim" fill="#404040">
                        <set attributeName="fill" to="#808080" begin="arrowUp.mouseover" end="arrowUp.mouseout"/>
                  </use>
                  <path fill="none" stroke="white" stroke-width="1.5" d="M0,-3.0v7 M-2.5,-0.5L0,-3.0L2.5,-0.5"/>
                </g>
                <g id="arrowRight" xlink:href="#dirArrow" transform="rotate(90) translate(36 -43)" onmousedown="handlePan(1,0)">
                  <use xlink:href="#rim" fill="#404040">
                        <set attributeName="fill" to="#808080" begin="arrowRight.mouseover" end="arrowRight.mouseout"/>
                  </use>
                  <path fill="none" stroke="white" stroke-width="1.5" d="M0,-3.0v7 M-2.5,-0.5L0,-3.0L2.5,-0.5"/>
                </g>
                <g id="arrowDown" xlink:href="#dirArrow" transform="rotate(180) translate(-30 -48)" onmousedown="handlePan(0,1)">
                  <use xlink:href="#rim" fill="#404040">
                        <set attributeName="fill" to="#808080" begin="arrowDown.mouseover" end="arrowDown.mouseout"/>
                  </use>
                  <path fill="none" stroke="white" stroke-width="1.5" d="M0,-3.0v7 M-2.5,-0.5L0,-3.0L2.5,-0.5"/>
                </g>
                <g id="arrowLeft" xlink:href="#dirArrow" transform="rotate(270) translate(-36 17)" onmousedown="handlePan(-1,0)">
                  <use xlink:href="#rim" fill="#404040">
                        <set attributeName="fill" to="#808080" begin="arrowLeft.mouseover" end="arrowLeft.mouseout"/>
                  </use>
                  <path fill="none" stroke="white" stroke-width="1.5" d="M0,-3.0v7 M-2.5,-0.5L0,-3.0L2.5,-0.5"/>
                </g>
        </g>
        <svg viewBox="0 0 15 15" width="100%" height="30px" preserveAspectRatio="xMaxYMin meet">
         <g id="arrow_out" transform="scale(0.3 0.3)">
          <a xlink:href="Camera_8cxx__incl_org.svg" target="_base">
           <rect id="button" ry="5" rx="5" y="6" x="6" height="38" width="38"
                fill="#f2f5e9" fill-opacity="0.5" stroke="#606060" stroke-width="1.0"/>
           <path id="arrow"
             d="M 11.500037,31.436501 C 11.940474,20.09759 22.043105,11.32322 32.158766,21.979434 L 37.068811,17.246167 C 37.068811,17.246167 37.088388,32 37.088388,32 L 22.160133,31.978069 C 22.160133,31.978069 26.997745,27.140456 26.997745,27.140456 C 18.528582,18.264221 13.291696,25.230495 11.500037,31.436501 z"
             style="fill:#404040;"/>
          </a>
         </g>
        </svg>
</svg>
