<?xml version="1.0" encoding="UTF-8" standalone="no"?>
<!DOCTYPE svg PUBLIC "-//W3C//DTD SVG 1.1//EN"
 "http://www.w3.org/Graphics/SVG/1.1/DTD/svg11.dtd">
<!-- Generated by graphviz version 2.40.1 (20161225.0304)
 -->
<!-- Title: Engine::quitGame Pages: 1 -->
<svg width="671pt" height="104pt"
 viewBox="0.00 0.00 671.00 104.00" xmlns="http://www.w3.org/2000/svg" xmlns:xlink="http://www.w3.org/1999/xlink">
<g id="graph0" class="graph" transform="scale(1 1) rotate(0) translate(4 100)">
<title>Engine::quitGame</title>
<!-- Node50 -->
<g id="node1" class="node">
<title>Node50</title>
<polygon fill="#bfbfbf" stroke="#000000" points="0,-38.5 0,-57.5 104,-57.5 104,-38.5 0,-38.5"/>
<text text-anchor="middle" x="52" y="-45.5" font-family="Helvetica,sans-Serif" font-size="10.00" fill="#000000">Engine::quitGame</text>
</g>
<!-- Node51 -->
<g id="node2" class="node">
<title>Node51</title>
<g id="a_node2"><a xlink:href="classEventManager.html#a65ec91fd5016d4f9c4167fb8babed2df" target="_top" xlink:title="EventManager::checkEvents">
<polygon fill="none" stroke="#000000" points="152,-76.5 152,-95.5 306,-95.5 306,-76.5 152,-76.5"/>
<text text-anchor="middle" x="229" y="-83.5" font-family="Helvetica,sans-Serif" font-size="10.00" fill="#000000">EventManager::checkEvents</text>
</a>
</g>
</g>
<!-- Node50&#45;&gt;Node51 -->
<g id="edge1" class="edge">
<title>Node50&#45;&gt;Node51</title>
<path fill="none" stroke="#191970" d="M106.3541,-59.7562C117.4832,-62.1575 129.119,-64.6639 140,-67 154.3662,-70.0844 170.0401,-73.4352 184.1756,-76.4519"/>
<polygon fill="#191970" stroke="#191970" points="106.8256,-56.2774 96.3121,-57.5884 105.3484,-63.1198 106.8256,-56.2774"/>
</g>
<!-- Node55 -->
<g id="node6" class="node">
<title>Node55</title>
<g id="a_node6"><a xlink:href="classUIManager.html#aa78e356fc3b356d790c848319d1c387e" target="_top" xlink:title="UIManager::setCallbackFunctions">
<polygon fill="none" stroke="#000000" points="140,-38.5 140,-57.5 318,-57.5 318,-38.5 140,-38.5"/>
<text text-anchor="middle" x="229" y="-45.5" font-family="Helvetica,sans-Serif" font-size="10.00" fill="#000000">UIManager::setCallbackFunctions</text>
</a>
</g>
</g>
<!-- Node50&#45;&gt;Node55 -->
<g id="edge5" class="edge">
<title>Node50&#45;&gt;Node55</title>
<path fill="none" stroke="#191970" d="M114.3639,-48C122.5875,-48 131.1418,-48 139.706,-48"/>
<polygon fill="#191970" stroke="#191970" points="114.1485,-44.5001 104.1485,-48 114.1485,-51.5001 114.1485,-44.5001"/>
</g>
<!-- Node56 -->
<g id="node7" class="node">
<title>Node56</title>
<g id="a_node7"><a xlink:href="classGame.html#a8272be134d16c277bb014ad6a22fc357" target="_top" xlink:title="Game::quit">
<polygon fill="none" stroke="#000000" points="193.5,-.5 193.5,-19.5 264.5,-19.5 264.5,-.5 193.5,-.5"/>
<text text-anchor="middle" x="229" y="-7.5" font-family="Helvetica,sans-Serif" font-size="10.00" fill="#000000">Game::quit</text>
</a>
</g>
</g>
<!-- Node50&#45;&gt;Node56 -->
<g id="edge6" class="edge">
<title>Node50&#45;&gt;Node56</title>
<path fill="none" stroke="#191970" d="M106.3541,-36.2438C117.4832,-33.8425 129.119,-31.3361 140,-29 157.6102,-25.2192 177.1853,-21.0379 193.4832,-17.5625"/>
<polygon fill="#191970" stroke="#191970" points="105.3484,-32.8802 96.3121,-38.4116 106.8256,-39.7226 105.3484,-32.8802"/>
</g>
<!-- Node52 -->
<g id="node3" class="node">
<title>Node52</title>
<g id="a_node3"><a xlink:href="classGame.html#a1c2ab25d5216b2f4b2fe41efd2c09114" target="_top" xlink:title="begins the game starts running the game ">
<polygon fill="none" stroke="#000000" points="371.5,-66.5 371.5,-85.5 439.5,-85.5 439.5,-66.5 371.5,-66.5"/>
<text text-anchor="middle" x="405.5" y="-73.5" font-family="Helvetica,sans-Serif" font-size="10.00" fill="#000000">Game::run</text>
</a>
</g>
</g>
<!-- Node51&#45;&gt;Node52 -->
<g id="edge2" class="edge">
<title>Node51&#45;&gt;Node52</title>
<path fill="none" stroke="#191970" d="M316.3664,-81.0501C335.9355,-79.9413 355.5625,-78.8293 371.398,-77.9321"/>
<polygon fill="#191970" stroke="#191970" points="315.9447,-77.5682 306.1587,-81.6284 316.3407,-84.557 315.9447,-77.5682"/>
</g>
<!-- Node53 -->
<g id="node4" class="node">
<title>Node53</title>
<g id="a_node4"><a xlink:href="main_8cxx.html#af582d708d899e67ead623eac34a22387" target="_top" xlink:title="protected_main">
<polygon fill="none" stroke="#000000" points="493,-38.5 493,-57.5 586,-57.5 586,-38.5 493,-38.5"/>
<text text-anchor="middle" x="539.5" y="-45.5" font-family="Helvetica,sans-Serif" font-size="10.00" fill="#000000">protected_main</text>
</a>
</g>
</g>
<!-- Node52&#45;&gt;Node53 -->
<g id="edge3" class="edge">
<title>Node52&#45;&gt;Node53</title>
<path fill="none" stroke="#191970" d="M449.6996,-66.7643C463.9237,-63.7921 479.7045,-60.4946 494.0191,-57.5035"/>
<polygon fill="#191970" stroke="#191970" points="448.7333,-63.3905 439.6606,-68.862 450.1651,-70.2425 448.7333,-63.3905"/>
</g>
<!-- Node54 -->
<g id="node5" class="node">
<title>Node54</title>
<g id="a_node5"><a xlink:href="main_8cxx.html#a3c04138a5bfe5d72780bb7e82a18e627" target="_top" xlink:title="main">
<polygon fill="none" stroke="#000000" points="622,-38.5 622,-57.5 663,-57.5 663,-38.5 622,-38.5"/>
<text text-anchor="middle" x="642.5" y="-45.5" font-family="Helvetica,sans-Serif" font-size="10.00" fill="#000000">main</text>
</a>
</g>
</g>
<!-- Node53&#45;&gt;Node54 -->
<g id="edge4" class="edge">
<title>Node53&#45;&gt;Node54</title>
<path fill="none" stroke="#191970" d="M596.2133,-48C605.4322,-48 614.4259,-48 621.9965,-48"/>
<polygon fill="#191970" stroke="#191970" points="596.1782,-44.5001 586.1782,-48 596.1781,-51.5001 596.1782,-44.5001"/>
</g>
<!-- Node57 -->
<g id="node8" class="node">
<title>Node57</title>
<g id="a_node8"><a xlink:href="classGame.html#a560299f0291c281f7b44e7ef0dd7b264" target="_top" xlink:title="initializes and displays the main menu initializes and displays the main menu ">
<polygon fill="none" stroke="#000000" points="354,-19.5 354,-38.5 457,-38.5 457,-19.5 354,-19.5"/>
<text text-anchor="middle" x="405.5" y="-26.5" font-family="Helvetica,sans-Serif" font-size="10.00" fill="#000000">Game::mainMenu</text>
</a>
</g>
</g>
<!-- Node56&#45;&gt;Node57 -->
<g id="edge7" class="edge">
<title>Node56&#45;&gt;Node57</title>
<path fill="none" stroke="#191970" d="M274.7159,-14.9213C298.9175,-17.5265 328.7285,-20.7356 353.7739,-23.4318"/>
<polygon fill="#191970" stroke="#191970" points="275.0346,-11.4354 264.7174,-13.8449 274.2853,-18.3952 275.0346,-11.4354"/>
</g>
<!-- Node57&#45;&gt;Node53 -->
<g id="edge8" class="edge">
<title>Node57&#45;&gt;Node53</title>
<path fill="none" stroke="#191970" d="M467.2457,-37.755C475.7846,-38.9657 484.438,-40.1927 492.6465,-41.3566"/>
<polygon fill="#191970" stroke="#191970" points="467.7003,-34.2845 457.3079,-36.3459 466.7175,-41.2152 467.7003,-34.2845"/>
</g>
</g>
</svg>
