<?xml version="1.0" encoding="UTF-8" standalone="no"?>
<!DOCTYPE svg PUBLIC "-//W3C//DTD SVG 1.1//EN"
 "http://www.w3.org/Graphics/SVG/1.1/DTD/svg11.dtd">
<!-- Generated by graphviz version 2.40.1 (20161225.0304)
 -->
<!-- Title: ResourcesManager::loadUITexture Pages: 1 -->
<svg width="520pt" height="213pt"
 viewBox="0.00 0.00 520.00 213.00" xmlns="http://www.w3.org/2000/svg" xmlns:xlink="http://www.w3.org/1999/xlink">
<g id="graph0" class="graph" transform="scale(1 1) rotate(0) translate(4 209)">
<title>ResourcesManager::loadUITexture</title>
<!-- Node64 -->
<g id="node1" class="node">
<title>Node64</title>
<polygon fill="#bfbfbf" stroke="#000000" points="0,-109.5 0,-128.5 182,-128.5 182,-109.5 0,-109.5"/>
<text text-anchor="middle" x="91" y="-116.5" font-family="Helvetica,sans-Serif" font-size="10.00" fill="#000000">ResourcesManager::loadUITexture</text>
</g>
<!-- Node65 -->
<g id="node2" class="node">
<title>Node65</title>
<g id="a_node2"><a xlink:href="namespacefs.html#ac2d9a48234828392a1f6a6dfce785830" target="_top" xlink:title="Read contents from a file as string. ">
<polygon fill="none" stroke="#000000" points="235.5,-185.5 235.5,-204.5 345.5,-204.5 345.5,-185.5 235.5,-185.5"/>
<text text-anchor="middle" x="290.5" y="-192.5" font-family="Helvetica,sans-Serif" font-size="10.00" fill="#000000">fs::readFileAsString</text>
</a>
</g>
</g>
<!-- Node64&#45;&gt;Node65 -->
<g id="edge1" class="edge">
<title>Node64&#45;&gt;Node65</title>
<path fill="none" stroke="#191970" d="M113.2988,-128.6764C138.5174,-139.4916 180.9045,-157.2843 218,-171 228.3663,-174.8329 239.6688,-178.7143 250.1987,-182.2063"/>
<polygon fill="#191970" stroke="#191970" points="249.409,-185.6307 260.0017,-185.4207 251.59,-178.9791 249.409,-185.6307"/>
</g>
<!-- Node66 -->
<g id="node3" class="node">
<title>Node66</title>
<g id="a_node3"><a xlink:href="classSingleton.html#af5cb1e5749949e2b68416cfb8d378044" target="_top" xlink:title="Get an instance of the singleton. ">
<polygon fill="none" stroke="#000000" points="399,-109 399,-139 512,-139 512,-109 399,-109"/>
<text text-anchor="start" x="407" y="-127" font-family="Helvetica,sans-Serif" font-size="10.00" fill="#000000">Singleton&lt; Settings</text>
<text text-anchor="middle" x="455.5" y="-116" font-family="Helvetica,sans-Serif" font-size="10.00" fill="#000000"> &gt;::instance</text>
</a>
</g>
</g>
<!-- Node64&#45;&gt;Node66 -->
<g id="edge2" class="edge">
<title>Node64&#45;&gt;Node66</title>
<path fill="none" stroke="#191970" d="M142.7082,-128.5137C165.6784,-132.2794 193.0995,-136.1477 218,-138 282.2669,-142.7808 298.7372,-142.8356 363,-138 371.3815,-137.3693 380.1543,-136.4215 388.8177,-135.3106"/>
<polygon fill="#191970" stroke="#191970" points="389.4693,-138.7543 398.9075,-133.9407 388.5276,-131.818 389.4693,-138.7543"/>
</g>
<!-- Node67 -->
<g id="node4" class="node">
<title>Node67</title>
<g id="a_node4"><a xlink:href="structStrongType.html#acc66e6d6b9c95193a97a839560499933" target="_top" xlink:title="StrongType::get">
<polygon fill="none" stroke="#000000" points="244.5,-109.5 244.5,-128.5 336.5,-128.5 336.5,-109.5 244.5,-109.5"/>
<text text-anchor="middle" x="290.5" y="-116.5" font-family="Helvetica,sans-Serif" font-size="10.00" fill="#000000">StrongType::get</text>
</a>
</g>
</g>
<!-- Node64&#45;&gt;Node67 -->
<g id="edge3" class="edge">
<title>Node64&#45;&gt;Node67</title>
<path fill="none" stroke="#191970" d="M182.2842,-119C199.9586,-119 217.9899,-119 234.1373,-119"/>
<polygon fill="#191970" stroke="#191970" points="234.4538,-122.5001 244.4537,-119 234.4537,-115.5001 234.4538,-122.5001"/>
</g>
<!-- Node68 -->
<g id="node5" class="node">
<title>Node68</title>
<g id="a_node5"><a xlink:href="classResourcesManager.html#ad7712ca96233a151d8bc22cd2ba17d01" target="_top" xlink:title="ResourcesManager::create\lTextureFromSurface">
<polygon fill="none" stroke="#000000" points="218,-60 218,-90 363,-90 363,-60 218,-60"/>
<text text-anchor="start" x="226" y="-78" font-family="Helvetica,sans-Serif" font-size="10.00" fill="#000000">ResourcesManager::create</text>
<text text-anchor="middle" x="290.5" y="-67" font-family="Helvetica,sans-Serif" font-size="10.00" fill="#000000">TextureFromSurface</text>
</a>
</g>
</g>
<!-- Node64&#45;&gt;Node68 -->
<g id="edge4" class="edge">
<title>Node64&#45;&gt;Node68</title>
<path fill="none" stroke="#191970" d="M134.2885,-109.4527C157.0507,-104.4324 185.6615,-98.1223 212.1576,-92.2785"/>
<polygon fill="#191970" stroke="#191970" points="213.1808,-95.6371 222.1923,-90.0654 211.6731,-88.8013 213.1808,-95.6371"/>
</g>
<!-- Node69 -->
<g id="node6" class="node">
<title>Node69</title>
<g id="a_node6"><a xlink:href="classResourcesManager.html#a54721d26f52c4887b735d2cdaf60b078" target="_top" xlink:title="ResourcesManager::create\lSurfaceFromFile">
<polygon fill="none" stroke="#000000" points="218,-11 218,-41 363,-41 363,-11 218,-11"/>
<text text-anchor="start" x="226" y="-29" font-family="Helvetica,sans-Serif" font-size="10.00" fill="#000000">ResourcesManager::create</text>
<text text-anchor="middle" x="290.5" y="-18" font-family="Helvetica,sans-Serif" font-size="10.00" fill="#000000">SurfaceFromFile</text>
</a>
</g>
</g>
<!-- Node64&#45;&gt;Node69 -->
<g id="edge6" class="edge">
<title>Node64&#45;&gt;Node69</title>
<path fill="none" stroke="#191970" d="M107.0256,-109.3435C130.7183,-95.3176 176.7455,-69.0201 218,-51 223.0329,-48.8016 228.3262,-46.6626 233.6654,-44.6209"/>
<polygon fill="#191970" stroke="#191970" points="235.1179,-47.8153 243.2791,-41.0591 232.686,-41.2513 235.1179,-47.8153"/>
</g>
<!-- Node68&#45;&gt;Node66 -->
<g id="edge5" class="edge">
<title>Node68&#45;&gt;Node66</title>
<path fill="none" stroke="#191970" d="M341.3518,-90.1014C358.3692,-95.1551 377.5042,-100.8376 395.1734,-106.0848"/>
<polygon fill="#191970" stroke="#191970" points="394.2335,-109.4567 404.8161,-108.9484 396.2263,-102.7464 394.2335,-109.4567"/>
</g>
<!-- Node70 -->
<g id="node7" class="node">
<title>Node70</title>
<g id="a_node7"><a xlink:href="namespacefs.html#a28e4c1324680c188092ecfe5fd8a91a3" target="_top" xlink:title="fs::getBasePath">
<polygon fill="none" stroke="#000000" points="409.5,-38.5 409.5,-57.5 501.5,-57.5 501.5,-38.5 409.5,-38.5"/>
<text text-anchor="middle" x="455.5" y="-45.5" font-family="Helvetica,sans-Serif" font-size="10.00" fill="#000000">fs::getBasePath</text>
</a>
</g>
</g>
<!-- Node69&#45;&gt;Node70 -->
<g id="edge7" class="edge">
<title>Node69&#45;&gt;Node70</title>
<path fill="none" stroke="#191970" d="M363.3517,-35.7136C375.3705,-37.3161 387.6663,-38.9555 399.1998,-40.4933"/>
<polygon fill="#191970" stroke="#191970" points="398.7381,-43.9626 409.1129,-41.8151 399.6633,-37.024 398.7381,-43.9626"/>
</g>
<!-- Node71 -->
<g id="node8" class="node">
<title>Node71</title>
<g id="a_node8"><a xlink:href="namespacefs.html#a000d1f9ae14d782b6193298e6d27023f" target="_top" xlink:title="fs::fileExists">
<polygon fill="none" stroke="#000000" points="417.5,-.5 417.5,-19.5 493.5,-19.5 493.5,-.5 417.5,-.5"/>
<text text-anchor="middle" x="455.5" y="-7.5" font-family="Helvetica,sans-Serif" font-size="10.00" fill="#000000">fs::fileExists</text>
</a>
</g>
</g>
<!-- Node69&#45;&gt;Node71 -->
<g id="edge8" class="edge">
<title>Node69&#45;&gt;Node71</title>
<path fill="none" stroke="#191970" d="M363.3517,-18.9356C378.2113,-17.4947 393.4943,-16.0127 407.2366,-14.6801"/>
<polygon fill="#191970" stroke="#191970" points="407.7971,-18.1422 417.4126,-13.6933 407.1214,-11.1749 407.7971,-18.1422"/>
</g>
</g>
</svg>
