<?xml version="1.0" encoding="UTF-8" standalone="no"?>
<!DOCTYPE svg PUBLIC "-//W3C//DTD SVG 1.1//EN"
 "http://www.w3.org/Graphics/SVG/1.1/DTD/svg11.dtd">
<!-- Generated by graphviz version 2.40.1 (20161225.0304)
 -->
<!-- Title: Subject&lt; Data, DispatchPolicy &gt; Pages: 1 -->
<svg width="581pt" height="860pt"
 viewBox="0.00 0.00 580.50 860.00" xmlns="http://www.w3.org/2000/svg" xmlns:xlink="http://www.w3.org/1999/xlink">
<g id="graph0" class="graph" transform="scale(1 1) rotate(0) translate(4 856)">
<title>Subject&lt; Data, DispatchPolicy &gt;</title>
<!-- Node0 -->
<g id="node1" class="node">
<title>Node0</title>
<polygon fill="#bfbfbf" stroke="#000000" points="132.5,-655.5 132.5,-756.5 308.5,-756.5 308.5,-655.5 132.5,-655.5"/>
<text text-anchor="middle" x="220.5" y="-744.5" font-family="Helvetica,sans-Serif" font-size="10.00" fill="#000000">Subject&lt; Data, DispatchPolicy &gt;</text>
<polyline fill="none" stroke="#000000" points="132.5,-737.5 308.5,-737.5 "/>
<text text-anchor="start" x="140.5" y="-725.5" font-family="Helvetica,sans-Serif" font-size="10.00" fill="#000000">&#45; m_Observers</text>
<polyline fill="none" stroke="#000000" points="132.5,-718.5 308.5,-718.5 "/>
<text text-anchor="start" x="140.5" y="-706.5" font-family="Helvetica,sans-Serif" font-size="10.00" fill="#000000">+ addObserver()</text>
<text text-anchor="start" x="140.5" y="-695.5" font-family="Helvetica,sans-Serif" font-size="10.00" fill="#000000"># Subject()</text>
<text text-anchor="start" x="140.5" y="-684.5" font-family="Helvetica,sans-Serif" font-size="10.00" fill="#000000"># notifyObservers()</text>
<text text-anchor="start" x="140.5" y="-673.5" font-family="Helvetica,sans-Serif" font-size="10.00" fill="#000000"># ~Subject()</text>
<text text-anchor="start" x="140.5" y="-662.5" font-family="Helvetica,sans-Serif" font-size="10.00" fill="#000000"># mustNotify()</text>
</g>
<!-- Node2 -->
<g id="node3" class="node">
<title>Node2</title>
<g id="a_node3"><a xlink:href="classSubject.html" target="_top" xlink:title="{Subject\&lt; Transition\l\&lt; Model \&gt; \&gt;\n|&#45; m_Observers\l|+ addObserver()\l# Subject()\l# notifyObservers()\l# ~Subject()\l# mustNotify()\l}">
<polygon fill="none" stroke="#000000" points="16,-468 16,-580 129,-580 129,-468 16,-468"/>
<text text-anchor="start" x="24" y="-568" font-family="Helvetica,sans-Serif" font-size="10.00" fill="#000000">Subject&lt; Transition</text>
<text text-anchor="middle" x="72.5" y="-557" font-family="Helvetica,sans-Serif" font-size="10.00" fill="#000000">&lt; Model &gt; &gt;</text>
<polyline fill="none" stroke="#000000" points="16,-550 129,-550 "/>
<text text-anchor="start" x="24" y="-538" font-family="Helvetica,sans-Serif" font-size="10.00" fill="#000000">&#45; m_Observers</text>
<polyline fill="none" stroke="#000000" points="16,-531 129,-531 "/>
<text text-anchor="start" x="24" y="-519" font-family="Helvetica,sans-Serif" font-size="10.00" fill="#000000">+ addObserver()</text>
<text text-anchor="start" x="24" y="-508" font-family="Helvetica,sans-Serif" font-size="10.00" fill="#000000"># Subject()</text>
<text text-anchor="start" x="24" y="-497" font-family="Helvetica,sans-Serif" font-size="10.00" fill="#000000"># notifyObservers()</text>
<text text-anchor="start" x="24" y="-486" font-family="Helvetica,sans-Serif" font-size="10.00" fill="#000000"># ~Subject()</text>
<text text-anchor="start" x="24" y="-475" font-family="Helvetica,sans-Serif" font-size="10.00" fill="#000000"># mustNotify()</text>
</a>
</g>
</g>
<!-- Node0&#45;&gt;Node2 -->
<g id="edge2" class="edge">
<title>Node0&#45;&gt;Node2</title>
<path fill="none" stroke="#ffa500" d="M123.0529,-679.0089C103.4776,-669.0091 85.315,-655.4171 73.5,-637 62.8536,-620.4045 60.4122,-599.4238 61.3743,-580.0586"/>
<polygon fill="#ffa500" stroke="#ffa500" points="121.5978,-682.1927 132.1287,-683.3551 124.6212,-675.8792 121.5978,-682.1927"/>
<text text-anchor="middle" x="136" y="-618" font-family="Helvetica,sans-Serif" font-size="10.00" fill="#000000"> &lt; Transition&lt; Model &gt; &gt;</text>
</g>
<!-- Node4 -->
<g id="node5" class="node">
<title>Node4</title>
<g id="a_node5"><a xlink:href="classSubject.html" target="_top" xlink:title="{Subject\&lt; VariantType\l\&lt; ButtonNotifications\l \&gt;, UIMQDispatcher\&lt; VariantType\l\&lt; ButtonNotifications \&gt; \&gt; \&gt;\n|&#45; m_Observers\l|+ addObserver()\l# Subject()\l# notifyObservers()\l# ~Subject()\l# mustNotify()\l}">
<polygon fill="none" stroke="#000000" points="133,-309.5 133,-443.5 314,-443.5 314,-309.5 133,-309.5"/>
<text text-anchor="start" x="141" y="-431.5" font-family="Helvetica,sans-Serif" font-size="10.00" fill="#000000">Subject&lt; VariantType</text>
<text text-anchor="start" x="141" y="-420.5" font-family="Helvetica,sans-Serif" font-size="10.00" fill="#000000">&lt; ButtonNotifications</text>
<text text-anchor="start" x="141" y="-409.5" font-family="Helvetica,sans-Serif" font-size="10.00" fill="#000000"> &gt;, UIMQDispatcher&lt; VariantType</text>
<text text-anchor="middle" x="223.5" y="-398.5" font-family="Helvetica,sans-Serif" font-size="10.00" fill="#000000">&lt; ButtonNotifications &gt; &gt; &gt;</text>
<polyline fill="none" stroke="#000000" points="133,-391.5 314,-391.5 "/>
<text text-anchor="start" x="141" y="-379.5" font-family="Helvetica,sans-Serif" font-size="10.00" fill="#000000">&#45; m_Observers</text>
<polyline fill="none" stroke="#000000" points="133,-372.5 314,-372.5 "/>
<text text-anchor="start" x="141" y="-360.5" font-family="Helvetica,sans-Serif" font-size="10.00" fill="#000000">+ addObserver()</text>
<text text-anchor="start" x="141" y="-349.5" font-family="Helvetica,sans-Serif" font-size="10.00" fill="#000000"># Subject()</text>
<text text-anchor="start" x="141" y="-338.5" font-family="Helvetica,sans-Serif" font-size="10.00" fill="#000000"># notifyObservers()</text>
<text text-anchor="start" x="141" y="-327.5" font-family="Helvetica,sans-Serif" font-size="10.00" fill="#000000"># ~Subject()</text>
<text text-anchor="start" x="141" y="-316.5" font-family="Helvetica,sans-Serif" font-size="10.00" fill="#000000"># mustNotify()</text>
</a>
</g>
</g>
<!-- Node0&#45;&gt;Node4 -->
<g id="edge4" class="edge">
<title>Node0&#45;&gt;Node4</title>
<path fill="none" stroke="#ffa500" d="M217.7085,-645.127C217.6282,-642.3806 217.5578,-639.6616 217.5,-637 216.0726,-571.3078 218.1965,-496.2998 220.3013,-443.6952"/>
<polygon fill="#ffa500" stroke="#ffa500" points="214.2108,-645.2582 218.038,-655.1376 221.207,-645.0278 214.2108,-645.2582"/>
<text text-anchor="start" x="217.5" y="-629" font-family="Helvetica,sans-Serif" font-size="10.00" fill="#000000"> &lt; VariantType&lt; ButtonNotifications</text>
<text text-anchor="start" x="217.5" y="-618" font-family="Helvetica,sans-Serif" font-size="10.00" fill="#000000"> &gt;, UIMQDispatcher&lt; VariantType</text>
<text text-anchor="middle" x="306" y="-607" font-family="Helvetica,sans-Serif" font-size="10.00" fill="#000000">&lt; ButtonNotifications &gt; &gt; &gt;</text>
</g>
<!-- Node7 -->
<g id="node8" class="node">
<title>Node7</title>
<g id="a_node8"><a xlink:href="classSubject.html" target="_top" xlink:title="{Subject\&lt; VariantType\l\&lt; DataList \&gt;, UIMQDispatcher\l\&lt; VariantType\&lt; DataList \&gt; \&gt; \&gt;\n|&#45; m_Observers\l|+ addObserver()\l# Subject()\l# notifyObservers()\l# ~Subject()\l# mustNotify()\l}">
<polygon fill="none" stroke="#000000" points="291.5,-462.5 291.5,-585.5 461.5,-585.5 461.5,-462.5 291.5,-462.5"/>
<text text-anchor="start" x="299.5" y="-573.5" font-family="Helvetica,sans-Serif" font-size="10.00" fill="#000000">Subject&lt; VariantType</text>
<text text-anchor="start" x="299.5" y="-562.5" font-family="Helvetica,sans-Serif" font-size="10.00" fill="#000000">&lt; DataList &gt;, UIMQDispatcher</text>
<text text-anchor="middle" x="376.5" y="-551.5" font-family="Helvetica,sans-Serif" font-size="10.00" fill="#000000">&lt; VariantType&lt; DataList &gt; &gt; &gt;</text>
<polyline fill="none" stroke="#000000" points="291.5,-544.5 461.5,-544.5 "/>
<text text-anchor="start" x="299.5" y="-532.5" font-family="Helvetica,sans-Serif" font-size="10.00" fill="#000000">&#45; m_Observers</text>
<polyline fill="none" stroke="#000000" points="291.5,-525.5 461.5,-525.5 "/>
<text text-anchor="start" x="299.5" y="-513.5" font-family="Helvetica,sans-Serif" font-size="10.00" fill="#000000">+ addObserver()</text>
<text text-anchor="start" x="299.5" y="-502.5" font-family="Helvetica,sans-Serif" font-size="10.00" fill="#000000"># Subject()</text>
<text text-anchor="start" x="299.5" y="-491.5" font-family="Helvetica,sans-Serif" font-size="10.00" fill="#000000"># notifyObservers()</text>
<text text-anchor="start" x="299.5" y="-480.5" font-family="Helvetica,sans-Serif" font-size="10.00" fill="#000000"># ~Subject()</text>
<text text-anchor="start" x="299.5" y="-469.5" font-family="Helvetica,sans-Serif" font-size="10.00" fill="#000000"># mustNotify()</text>
</a>
</g>
</g>
<!-- Node0&#45;&gt;Node7 -->
<g id="edge7" class="edge">
<title>Node0&#45;&gt;Node7</title>
<path fill="none" stroke="#ffa500" d="M318.3945,-678.8465C354.0756,-666.8126 388.2281,-651.9984 398.5,-637 408.7769,-621.9942 408.9677,-603.3781 404.9444,-585.6146"/>
<polygon fill="#ffa500" stroke="#ffa500" points="317.2112,-675.5511 308.8082,-682.0041 319.4013,-682.1998 317.2112,-675.5511"/>
<text text-anchor="start" x="407.5" y="-629" font-family="Helvetica,sans-Serif" font-size="10.00" fill="#000000"> &lt; VariantType&lt; DataList</text>
<text text-anchor="start" x="407.5" y="-618" font-family="Helvetica,sans-Serif" font-size="10.00" fill="#000000"> &gt;, UIMQDispatcher&lt; VariantType</text>
<text text-anchor="middle" x="490" y="-607" font-family="Helvetica,sans-Serif" font-size="10.00" fill="#000000">&lt; DataList &gt; &gt; &gt;</text>
</g>
<!-- Node1 -->
<g id="node2" class="node">
<title>Node1</title>
<polygon fill="none" stroke="#bfbfbf" points="176,-794.5 176,-851.5 265,-851.5 265,-794.5 176,-794.5"/>
<text text-anchor="middle" x="220.5" y="-839.5" font-family="Helvetica,sans-Serif" font-size="10.00" fill="#000000">DispatchPolicy</text>
<polyline fill="none" stroke="#bfbfbf" points="176,-832.5 265,-832.5 "/>
<text text-anchor="middle" x="220.5" y="-820.5" font-family="Helvetica,sans-Serif" font-size="10.00" fill="#000000"> </text>
<polyline fill="none" stroke="#bfbfbf" points="176,-813.5 265,-813.5 "/>
<text text-anchor="middle" x="220.5" y="-801.5" font-family="Helvetica,sans-Serif" font-size="10.00" fill="#000000"> </text>
</g>
<!-- Node1&#45;&gt;Node0 -->
<g id="edge1" class="edge">
<title>Node1&#45;&gt;Node0</title>
<path fill="none" stroke="#8b1a1a" d="M220.5,-784.3581C220.5,-775.5039 220.5,-765.9611 220.5,-756.6852"/>
<polygon fill="none" stroke="#8b1a1a" points="217.0001,-784.3785 220.5,-794.3786 224.0001,-784.3786 217.0001,-784.3785"/>
</g>
<!-- Node3 -->
<g id="node4" class="node">
<title>Node3</title>
<g id="a_node4"><a xlink:href="classTransitiveModel.html" target="_top" xlink:title="{TransitiveModel\&lt; Model \&gt;\n|&#45; m_Filters\l|+ subscribe()\l# TransitiveModel()\l&#45; mustNotify()\l}">
<polygon fill="none" stroke="#000000" points="0,-211.5 0,-290.5 145,-290.5 145,-211.5 0,-211.5"/>
<text text-anchor="middle" x="72.5" y="-278.5" font-family="Helvetica,sans-Serif" font-size="10.00" fill="#000000">TransitiveModel&lt; Model &gt;</text>
<polyline fill="none" stroke="#000000" points="0,-271.5 145,-271.5 "/>
<text text-anchor="start" x="8" y="-259.5" font-family="Helvetica,sans-Serif" font-size="10.00" fill="#000000">&#45; m_Filters</text>
<polyline fill="none" stroke="#000000" points="0,-252.5 145,-252.5 "/>
<text text-anchor="start" x="8" y="-240.5" font-family="Helvetica,sans-Serif" font-size="10.00" fill="#000000">+ subscribe()</text>
<text text-anchor="start" x="8" y="-229.5" font-family="Helvetica,sans-Serif" font-size="10.00" fill="#000000"># TransitiveModel()</text>
<text text-anchor="start" x="8" y="-218.5" font-family="Helvetica,sans-Serif" font-size="10.00" fill="#000000">&#45; mustNotify()</text>
</a>
</g>
</g>
<!-- Node2&#45;&gt;Node3 -->
<g id="edge3" class="edge">
<title>Node2&#45;&gt;Node3</title>
<path fill="none" stroke="#191970" d="M72.5,-457.596C72.5,-405.4322 72.5,-334.5244 72.5,-290.8095"/>
<polygon fill="none" stroke="#191970" points="69.0001,-457.7652 72.5,-467.7652 76.0001,-457.7653 69.0001,-457.7652"/>
</g>
<!-- Node5 -->
<g id="node6" class="node">
<title>Node5</title>
<g id="a_node6"><a xlink:href="structDataModel.html" target="_top" xlink:title="{DataModel\&lt; ButtonNotifications \&gt;\n||+ DataModel()\l}">
<polygon fill="none" stroke="#000000" points="172,-106.5 172,-163.5 357,-163.5 357,-106.5 172,-106.5"/>
<text text-anchor="middle" x="264.5" y="-151.5" font-family="Helvetica,sans-Serif" font-size="10.00" fill="#000000">DataModel&lt; ButtonNotifications &gt;</text>
<polyline fill="none" stroke="#000000" points="172,-144.5 357,-144.5 "/>
<text text-anchor="middle" x="264.5" y="-132.5" font-family="Helvetica,sans-Serif" font-size="10.00" fill="#000000"> </text>
<polyline fill="none" stroke="#000000" points="172,-125.5 357,-125.5 "/>
<text text-anchor="start" x="180" y="-113.5" font-family="Helvetica,sans-Serif" font-size="10.00" fill="#000000">+ DataModel()</text>
</a>
</g>
</g>
<!-- Node4&#45;&gt;Node5 -->
<g id="edge5" class="edge">
<title>Node4&#45;&gt;Node5</title>
<path fill="none" stroke="#191970" d="M236.6188,-299.2273C244.4645,-253.0141 253.9749,-196.9953 259.6158,-163.7692"/>
<polygon fill="none" stroke="#191970" points="233.144,-298.784 234.9208,-309.2288 240.0453,-299.9557 233.144,-298.784"/>
</g>
<!-- Node6 -->
<g id="node7" class="node">
<title>Node6</title>
<g id="a_node7"><a xlink:href="classButtonState.html" target="_top" xlink:title="{ButtonState\n|&#45; m_Status\l|+ setStatus()\l+ ~ButtonState()\l}">
<polygon fill="none" stroke="#000000" points="214,-.5 214,-68.5 315,-68.5 315,-.5 214,-.5"/>
<text text-anchor="middle" x="264.5" y="-56.5" font-family="Helvetica,sans-Serif" font-size="10.00" fill="#000000">ButtonState</text>
<polyline fill="none" stroke="#000000" points="214,-49.5 315,-49.5 "/>
<text text-anchor="start" x="222" y="-37.5" font-family="Helvetica,sans-Serif" font-size="10.00" fill="#000000">&#45; m_Status</text>
<polyline fill="none" stroke="#000000" points="214,-30.5 315,-30.5 "/>
<text text-anchor="start" x="222" y="-18.5" font-family="Helvetica,sans-Serif" font-size="10.00" fill="#000000">+ setStatus()</text>
<text text-anchor="start" x="222" y="-7.5" font-family="Helvetica,sans-Serif" font-size="10.00" fill="#000000">+ ~ButtonState()</text>
</a>
</g>
</g>
<!-- Node5&#45;&gt;Node6 -->
<g id="edge6" class="edge">
<title>Node5&#45;&gt;Node6</title>
<path fill="none" stroke="#191970" d="M264.5,-96.1903C264.5,-87.1667 264.5,-77.6233 264.5,-68.8097"/>
<polygon fill="none" stroke="#191970" points="261.0001,-96.4695 264.5,-106.4696 268.0001,-96.4696 261.0001,-96.4695"/>
</g>
<!-- Node8 -->
<g id="node9" class="node">
<title>Node8</title>
<g id="a_node9"><a xlink:href="structDataModel.html" target="_top" xlink:title="{DataModel\&lt; DataList \&gt;\n||+ DataModel()\l}">
<polygon fill="none" stroke="#000000" points="285.5,-222.5 285.5,-279.5 417.5,-279.5 417.5,-222.5 285.5,-222.5"/>
<text text-anchor="middle" x="351.5" y="-267.5" font-family="Helvetica,sans-Serif" font-size="10.00" fill="#000000">DataModel&lt; DataList &gt;</text>
<polyline fill="none" stroke="#000000" points="285.5,-260.5 417.5,-260.5 "/>
<text text-anchor="middle" x="351.5" y="-248.5" font-family="Helvetica,sans-Serif" font-size="10.00" fill="#000000"> </text>
<polyline fill="none" stroke="#000000" points="285.5,-241.5 417.5,-241.5 "/>
<text text-anchor="start" x="293.5" y="-229.5" font-family="Helvetica,sans-Serif" font-size="10.00" fill="#000000">+ DataModel()</text>
</a>
</g>
</g>
<!-- Node7&#45;&gt;Node8 -->
<g id="edge8" class="edge">
<title>Node7&#45;&gt;Node8</title>
<path fill="none" stroke="#191970" d="M369.9167,-452.1106C364.7587,-395.7855 357.8536,-320.3816 354.136,-279.7847"/>
<polygon fill="none" stroke="#191970" points="366.4609,-452.7539 370.8583,-462.3931 373.4317,-452.1155 366.4609,-452.7539"/>
</g>
<!-- Node8&#45;&gt;Node5 -->
<g id="edge9" class="edge">
<title>Node8&#45;&gt;Node5</title>
<path fill="none" stroke="#ffa500" d="M323.8094,-214.0792C311.5996,-197.7994 297.4664,-178.9551 286.0597,-163.7463"/>
<polygon fill="#ffa500" stroke="#ffa500" points="321.1943,-216.4258 329.9944,-222.3258 326.7943,-212.2258 321.1943,-216.4258"/>
<text text-anchor="middle" x="368.5" y="-185" font-family="Helvetica,sans-Serif" font-size="10.00" fill="#000000"> &lt; ButtonNotifications &gt;</text>
</g>
</g>
</svg>
