<?xml version="1.0" encoding="UTF-8" standalone="no"?>
<!DOCTYPE svg PUBLIC "-//W3C//DTD SVG 1.1//EN"
 "http://www.w3.org/Graphics/SVG/1.1/DTD/svg11.dtd">
<!-- Generated by graphviz version 2.40.1 (20161225.0304)
 -->
<!-- Title: TileManager::getTileData Pages: 1 -->
<!--zoomable 376 -->
<svg id="main" version="1.1" xmlns="http://www.w3.org/2000/svg" xmlns:xlink="http://www.w3.org/1999/xlink" xml:space="preserve" onload="init(evt)">
<style type="text/css"><![CDATA[
.edge:hover path { stroke: red; }
.edge:hover polygon { stroke: red; fill: red; }
]]></style>
<script type="text/javascript"><![CDATA[
var edges = document.getElementsByTagName('g');
if (edges && edges.length) {
  for (var i=0;i<edges.length;i++) {
    if (edges[i].id.substr(0,4)=='edge') {
      edges[i].setAttribute('class','edge');
    }
  }
}
]]></script>
        <defs>
                <circle id="rim" cx="0" cy="0" r="7"/>
                <circle id="rim2" cx="0" cy="0" r="3.5"/>
                <g id="zoomPlus">
                        <use xlink:href="#rim" fill="#404040">
                                <set attributeName="fill" to="#808080" begin="zoomplus.mouseover" end="zoomplus.mouseout"/>
                        </use>
                        <path d="M-4,0h8M0,-4v8" fill="none" stroke="white" stroke-width="1.5" pointer-events="none"/>
                </g>
                <g id="zoomMin">
                        <use xlink:href="#rim" fill="#404040">
                                <set attributeName="fill" to="#808080" begin="zoomminus.mouseover" end="zoomminus.mouseout"/>
                        </use>
                        <path d="M-4,0h8" fill="none" stroke="white" stroke-width="1.5" pointer-events="none"/>
                </g>
                <g id="dirArrow">
                        <path fill="none" stroke="white" stroke-width="1.5" d="M0,-3.0v7 M-2.5,-0.5L0,-3.0L2.5,-0.5"/>
                </g>
               <g id="resetDef">
                       <use xlink:href="#rim2" fill="#404040">
                               <set attributeName="fill" to="#808080" begin="reset.mouseover" end="reset.mouseout"/>
                       </use>
               </g>
        </defs>

<script type="text/javascript">
var viewWidth = 1008;
var viewHeight = 376;
var sectionId = 'dynsection-11';
</script>
<script xlink:href="svgpan.js"/>
<svg id="graph" class="graph">
<g id="viewport">
<title>TileManager::getTileData</title>
<!-- Node64 -->
<g id="node1" class="node">
<title>Node64</title>
<polygon fill="#bfbfbf" stroke="#000000" points="0,-177.5 0,-196.5 140,-196.5 140,-177.5 0,-177.5"/>
<text text-anchor="middle" x="70" y="-184.5" font-family="Helvetica,sans-Serif" font-size="10.00" fill="#000000">TileManager::getTileData</text>
</g>
<!-- Node65 -->
<g id="node2" class="node">
<title>Node65</title>
<g id="a_node2"><a xlink:href="classEventManager.html#a65ec91fd5016d4f9c4167fb8babed2df" target="_top" xlink:title="EventManager::checkEvents">
<polygon fill="none" stroke="#000000" points="396.5,-348.5 396.5,-367.5 550.5,-367.5 550.5,-348.5 396.5,-348.5"/>
<text text-anchor="middle" x="473.5" y="-355.5" font-family="Helvetica,sans-Serif" font-size="10.00" fill="#000000">EventManager::checkEvents</text>
</a>
</g>
</g>
<!-- Node64&#45;&gt;Node65 -->
<g id="edge1" class="edge">
<title>Node64&#45;&gt;Node65</title>
<path fill="none" stroke="#191970" d="M81.2533,-204.988C98.3611,-230.7016 133.461,-277.4548 176,-301 244.3263,-338.8184 333.4894,-351.9415 396.3242,-356.2942"/>
<polygon fill="#191970" stroke="#191970" points="84.1596,-203.0368 75.7839,-196.5484 78.2852,-206.8437 84.1596,-203.0368"/>
</g>
<!-- Node69 -->
<g id="node6" class="node">
<title>Node69</title>
<g id="a_node6"><a xlink:href="classMapNode.html#a26e55c94192a56990f8a59e7af139a73" target="_top" xlink:title="MapNode::setTileID">
<polygon fill="none" stroke="#000000" points="417.5,-234.5 417.5,-253.5 529.5,-253.5 529.5,-234.5 417.5,-234.5"/>
<text text-anchor="middle" x="473.5" y="-241.5" font-family="Helvetica,sans-Serif" font-size="10.00" fill="#000000">MapNode::setTileID</text>
</a>
</g>
</g>
<!-- Node64&#45;&gt;Node69 -->
<g id="edge5" class="edge">
<title>Node64&#45;&gt;Node69</title>
<path fill="none" stroke="#191970" d="M119.472,-198.8064C137.225,-202.7584 157.4404,-206.9338 176,-210 259.6031,-223.812 357.3526,-233.8193 417.3403,-239.2673"/>
<polygon fill="#191970" stroke="#191970" points="119.8606,-195.306 109.335,-196.5153 118.3174,-202.1338 119.8606,-195.306"/>
</g>
<!-- Node72 -->
<g id="node9" class="node">
<title>Node72</title>
<g id="a_node9"><a xlink:href="classMapNode.html#aefd2e99e5bdde9925a5611ac2175492c" target="_top" xlink:title="tileID placeable on slope tile. check if tileID is placeable on slope. ">
<polygon fill="none" stroke="#000000" points="186,-158.5 186,-177.5 344,-177.5 344,-158.5 186,-158.5"/>
<text text-anchor="middle" x="265" y="-165.5" font-family="Helvetica,sans-Serif" font-size="10.00" fill="#000000">MapNode::isPlacableOnSlope</text>
</a>
</g>
</g>
<!-- Node64&#45;&gt;Node72 -->
<g id="edge8" class="edge">
<title>Node64&#45;&gt;Node72</title>
<path fill="none" stroke="#191970" d="M150.3412,-179.1719C162.0885,-178.0273 174.179,-176.8492 185.9013,-175.7071"/>
<polygon fill="#191970" stroke="#191970" points="149.7374,-175.714 140.124,-180.1674 150.4163,-182.6811 149.7374,-175.714"/>
</g>
<!-- Node73 -->
<g id="node10" class="node">
<title>Node73</title>
<g id="a_node10"><a xlink:href="classMapNode.html#a3d88c4eff75c599fb6fd37afd1c882b6" target="_top" xlink:title="MapNode::isPlacementAllowed">
<polygon fill="none" stroke="#000000" points="390,-196.5 390,-215.5 557,-215.5 557,-196.5 390,-196.5"/>
<text text-anchor="middle" x="473.5" y="-203.5" font-family="Helvetica,sans-Serif" font-size="10.00" fill="#000000">MapNode::isPlacementAllowed</text>
</a>
</g>
</g>
<!-- Node64&#45;&gt;Node73 -->
<g id="edge10" class="edge">
<title>Node64&#45;&gt;Node73</title>
<path fill="none" stroke="#191970" d="M150.2835,-190.7804C219.6026,-194.0445 319.3982,-198.7437 389.7185,-202.0549"/>
<polygon fill="#191970" stroke="#191970" points="150.4379,-187.2839 140.2843,-190.3095 150.1086,-194.2761 150.4379,-187.2839"/>
</g>
<!-- Node74 -->
<g id="node11" class="node">
<title>Node74</title>
<g id="a_node11"><a xlink:href="classMapNode.html#a46d22458f78fa9416a700dbe4612012b" target="_top" xlink:title="Overwrite m_mapData with the one loaded from a savegame. This function to be used only by loadGame...">
<polygon fill="none" stroke="#000000" points="189,-120.5 189,-139.5 341,-139.5 341,-120.5 189,-120.5"/>
<text text-anchor="middle" x="265" y="-127.5" font-family="Helvetica,sans-Serif" font-size="10.00" fill="#000000">MapNode::setMapNodeData</text>
</a>
</g>
</g>
<!-- Node64&#45;&gt;Node74 -->
<g id="edge11" class="edge">
<title>Node64&#45;&gt;Node74</title>
<path fill="none" stroke="#191970" d="M103.29,-173.7694C123.9878,-165.8689 151.2771,-156.0362 176,-149 188.3089,-145.4969 201.7386,-142.3084 214.3476,-139.5862"/>
<polygon fill="#191970" stroke="#191970" points="101.7675,-170.6053 93.699,-177.4719 104.2885,-177.1356 101.7675,-170.6053"/>
</g>
<!-- Node75 -->
<g id="node12" class="node">
<title>Node75</title>
<g id="a_node12"><a xlink:href="classMap.html#a3952b445c55efce61c1ccac6f362fe89" target="_top" xlink:title="Return vector of Points of an Object Tiles selection. ">
<polygon fill="none" stroke="#000000" points="181,-38.5 181,-101.5 349,-101.5 349,-38.5 181,-38.5"/>
<text text-anchor="start" x="189" y="-89.5" font-family="Helvetica,sans-Serif" font-size="10.00" fill="#000000">Map&lt; ObserverSPtr&lt;</text>
<text text-anchor="start" x="189" y="-78.5" font-family="Helvetica,sans-Serif" font-size="10.00" fill="#000000"> Notification &gt;, Set</text>
<text text-anchor="start" x="189" y="-67.5" font-family="Helvetica,sans-Serif" font-size="10.00" fill="#000000">&lt; typename Notification</text>
<text text-anchor="start" x="189" y="-56.5" font-family="Helvetica,sans-Serif" font-size="10.00" fill="#000000">::TransitionType &gt; &gt;::getObject</text>
<text text-anchor="middle" x="265" y="-45.5" font-family="Helvetica,sans-Serif" font-size="10.00" fill="#000000">Coords</text>
</a>
</g>
</g>
<!-- Node64&#45;&gt;Node75 -->
<g id="edge12" class="edge">
<title>Node64&#45;&gt;Node75</title>
<path fill="none" stroke="#191970" d="M89.939,-170.943C110.686,-154.6652 144.487,-129.3315 176,-111 181.4409,-107.835 187.1681,-104.7284 192.9854,-101.7294"/>
<polygon fill="#191970" stroke="#191970" points="87.5567,-168.3651 81.8914,-177.318 91.9033,-173.8521 87.5567,-168.3651"/>
</g>
<!-- Node76 -->
<g id="node13" class="node">
<title>Node76</title>
<g id="a_node13"><a xlink:href="classTileManager.html#a105151a0c336807e918aff002ffd6101" target="_top" xlink:title="TileManager::getTileLayer">
<polygon fill="none" stroke="#000000" points="193.5,-272.5 193.5,-291.5 336.5,-291.5 336.5,-272.5 193.5,-272.5"/>
<text text-anchor="middle" x="265" y="-279.5" font-family="Helvetica,sans-Serif" font-size="10.00" fill="#000000">TileManager::getTileLayer</text>
</a>
</g>
</g>
<!-- Node64&#45;&gt;Node76 -->
<g id="edge13" class="edge">
<title>Node64&#45;&gt;Node76</title>
<path fill="none" stroke="#191970" d="M89.5469,-202.9771C109.9817,-218.9619 143.538,-243.2383 176,-258 189.2567,-264.0283 204.3346,-268.8035 218.2638,-272.4547"/>
<polygon fill="#191970" stroke="#191970" points="91.6398,-200.1697 81.634,-196.6861 87.2835,-205.649 91.6398,-200.1697"/>
</g>
<!-- Node77 -->
<g id="node14" class="node">
<title>Node77</title>
<g id="a_node14"><a xlink:href="classUIManager.html#aa78e356fc3b356d790c848319d1c387e" target="_top" xlink:title="UIManager::setCallbackFunctions">
<polygon fill="none" stroke="#000000" points="176,-.5 176,-19.5 354,-19.5 354,-.5 176,-.5"/>
<text text-anchor="middle" x="265" y="-7.5" font-family="Helvetica,sans-Serif" font-size="10.00" fill="#000000">UIManager::setCallbackFunctions</text>
</a>
</g>
</g>
<!-- Node64&#45;&gt;Node77 -->
<g id="edge19" class="edge">
<title>Node64&#45;&gt;Node77</title>
<path fill="none" stroke="#191970" d="M77.2506,-167.6537C90.9907,-133.8005 124.1676,-64.089 176,-29 181.6259,-25.1914 187.8728,-22.1263 194.3735,-19.6622"/>
<polygon fill="#191970" stroke="#191970" points="73.8622,-166.708 73.4735,-177.2957 80.3799,-169.2612 73.8622,-166.708"/>
</g>
<!-- Node66 -->
<g id="node3" class="node">
<title>Node66</title>
<g id="a_node3"><a xlink:href="classGame.html#a1c2ab25d5216b2f4b2fe41efd2c09114" target="_top" xlink:title="begins the game starts running the game ">
<polygon fill="none" stroke="#000000" points="659.5,-348.5 659.5,-367.5 727.5,-367.5 727.5,-348.5 659.5,-348.5"/>
<text text-anchor="middle" x="693.5" y="-355.5" font-family="Helvetica,sans-Serif" font-size="10.00" fill="#000000">Game::run</text>
</a>
</g>
</g>
<!-- Node65&#45;&gt;Node66 -->
<g id="edge2" class="edge">
<title>Node65&#45;&gt;Node66</title>
<path fill="none" stroke="#191970" d="M560.8845,-358C595.4459,-358 633.1205,-358 659.4511,-358"/>
<polygon fill="#191970" stroke="#191970" points="560.7545,-354.5001 550.7544,-358 560.7544,-361.5001 560.7545,-354.5001"/>
</g>
<!-- Node67 -->
<g id="node4" class="node">
<title>Node67</title>
<g id="a_node4"><a xlink:href="main_8cxx.html#af582d708d899e67ead623eac34a22387" target="_top" xlink:title="protected_main">
<polygon fill="none" stroke="#000000" points="830,-348.5 830,-367.5 923,-367.5 923,-348.5 830,-348.5"/>
<text text-anchor="middle" x="876.5" y="-355.5" font-family="Helvetica,sans-Serif" font-size="10.00" fill="#000000">protected_main</text>
</a>
</g>
</g>
<!-- Node66&#45;&gt;Node67 -->
<g id="edge3" class="edge">
<title>Node66&#45;&gt;Node67</title>
<path fill="none" stroke="#191970" d="M738.1535,-358C765.9451,-358 801.6323,-358 829.7997,-358"/>
<polygon fill="#191970" stroke="#191970" points="737.9209,-354.5001 727.9209,-358 737.9209,-361.5001 737.9209,-354.5001"/>
</g>
<!-- Node68 -->
<g id="node5" class="node">
<title>Node68</title>
<g id="a_node5"><a xlink:href="main_8cxx.html#a3c04138a5bfe5d72780bb7e82a18e627" target="_top" xlink:title="main">
<polygon fill="none" stroke="#000000" points="959,-348.5 959,-367.5 1000,-367.5 1000,-348.5 959,-348.5"/>
<text text-anchor="middle" x="979.5" y="-355.5" font-family="Helvetica,sans-Serif" font-size="10.00" fill="#000000">main</text>
</a>
</g>
</g>
<!-- Node67&#45;&gt;Node68 -->
<g id="edge4" class="edge">
<title>Node67&#45;&gt;Node68</title>
<path fill="none" stroke="#191970" d="M933.2133,-358C942.4322,-358 951.4259,-358 958.9965,-358"/>
<polygon fill="#191970" stroke="#191970" points="933.1782,-354.5001 923.1782,-358 933.1781,-361.5001 933.1782,-354.5001"/>
</g>
<!-- Node70 -->
<g id="node7" class="node">
<title>Node70</title>
<g id="a_node7"><a xlink:href="classMapNode.html#ae515fc96b543bf97237bfb1ca53fe571" target="_top" xlink:title="MapNode::MapNode">
<polygon fill="none" stroke="#000000" points="636.5,-235.5 636.5,-254.5 750.5,-254.5 750.5,-235.5 636.5,-235.5"/>
<text text-anchor="middle" x="693.5" y="-242.5" font-family="Helvetica,sans-Serif" font-size="10.00" fill="#000000">MapNode::MapNode</text>
</a>
</g>
</g>
<!-- Node69&#45;&gt;Node70 -->
<g id="edge6" class="edge">
<title>Node69&#45;&gt;Node70</title>
<path fill="none" stroke="#191970" d="M539.7972,-244.3014C570.5797,-244.4413 606.8149,-244.606 636.3693,-244.7403"/>
<polygon fill="#191970" stroke="#191970" points="539.6004,-240.8005 529.5845,-244.2549 539.5685,-247.8004 539.6004,-240.8005"/>
</g>
<!-- Node71 -->
<g id="node8" class="node">
<title>Node71</title>
<g id="a_node8"><a xlink:href="classMap.html#a404c38b33d61f8c63ce2c2efb864d6dd" target="_top" xlink:title="Set the Tile ID Of Node object Also invokes all necessary texture updates (auto&#45;tiling, slopes, ...) ">
<polygon fill="none" stroke="#000000" points="593,-276 593,-328 794,-328 794,-276 593,-276"/>
<text text-anchor="start" x="601" y="-316" font-family="Helvetica,sans-Serif" font-size="10.00" fill="#000000">Map&lt; ObserverSPtr&lt;</text>
<text text-anchor="start" x="601" y="-305" font-family="Helvetica,sans-Serif" font-size="10.00" fill="#000000"> Notification &gt;, Set</text>
<text text-anchor="start" x="601" y="-294" font-family="Helvetica,sans-Serif" font-size="10.00" fill="#000000">&lt; typename Notification</text>
<text text-anchor="middle" x="693.5" y="-283" font-family="Helvetica,sans-Serif" font-size="10.00" fill="#000000">::TransitionType &gt; &gt;::setTileIDOfNode</text>
</a>
</g>
</g>
<!-- Node69&#45;&gt;Node71 -->
<g id="edge7" class="edge">
<title>Node69&#45;&gt;Node71</title>
<path fill="none" stroke="#191970" d="M519.7691,-256.1982C541.5469,-261.9396 568.4122,-269.0223 594.451,-275.8871"/>
<polygon fill="#191970" stroke="#191970" points="520.3904,-252.7425 509.8285,-253.5775 518.6059,-259.5112 520.3904,-252.7425"/>
</g>
<!-- Node72&#45;&gt;Node73 -->
<g id="edge9" class="edge">
<title>Node72&#45;&gt;Node73</title>
<path fill="none" stroke="#191970" d="M327.2589,-179.347C357.1739,-184.7991 392.6276,-191.2607 421.1342,-196.4561"/>
<polygon fill="#191970" stroke="#191970" points="327.8098,-175.8898 317.3442,-177.54 326.5546,-182.7763 327.8098,-175.8898"/>
</g>
<!-- Node76&#45;&gt;Node65 -->
<g id="edge14" class="edge">
<title>Node76&#45;&gt;Node65</title>
<path fill="none" stroke="#191970" d="M295.2835,-295.7432C320.3672,-306.8477 357.1016,-322.4717 390,-334 405.2312,-339.3374 422.3173,-344.4058 437.0469,-348.4976"/>
<polygon fill="#191970" stroke="#191970" points="296.5051,-292.4558 285.9465,-291.58 293.6544,-298.849 296.5051,-292.4558"/>
</g>
<!-- Node76&#45;&gt;Node69 -->
<g id="edge16" class="edge">
<title>Node76&#45;&gt;Node69</title>
<path fill="none" stroke="#191970" d="M327.2589,-270.653C357.1739,-265.2009 392.6276,-258.7393 421.1342,-253.5439"/>
<polygon fill="#191970" stroke="#191970" points="326.5546,-267.2237 317.3442,-272.46 327.8098,-274.1102 326.5546,-267.2237"/>
</g>
<!-- Node76&#45;&gt;Node70 -->
<g id="edge15" class="edge">
<title>Node76&#45;&gt;Node70</title>
<path fill="none" stroke="#191970" d="M346.8188,-278.1263C405.4234,-274.998 486.1743,-269.9664 557,-263 583.1671,-260.4262 612.049,-256.7409 636.4815,-253.3745"/>
<polygon fill="#191970" stroke="#191970" points="346.3112,-274.6481 336.5091,-278.6692 346.6793,-281.6384 346.3112,-274.6481"/>
</g>
<!-- Node76&#45;&gt;Node71 -->
<g id="edge18" class="edge">
<title>Node76&#45;&gt;Node71</title>
<path fill="none" stroke="#191970" d="M346.9539,-292.2672C361.2817,-293.7508 376.0603,-295.0835 390,-296 457.5752,-300.4428 533.7802,-301.9372 592.9254,-302.3237"/>
<polygon fill="#191970" stroke="#191970" points="346.9342,-288.7453 336.6191,-291.164 346.1911,-295.7057 346.9342,-288.7453"/>
</g>
<!-- Node76&#45;&gt;Node73 -->
<g id="edge17" class="edge">
<title>Node76&#45;&gt;Node73</title>
<path fill="none" stroke="#191970" d="M292.3354,-267.5664C317.2287,-254.9024 355.2895,-236.7259 390,-225 400.8455,-221.3362 412.721,-218.1574 424.0256,-215.5035"/>
<polygon fill="#191970" stroke="#191970" points="290.4468,-264.602 283.1569,-272.2902 293.6501,-270.8261 290.4468,-264.602"/>
</g>
</g>
</svg>
        <g id="navigator" transform="translate(0 0)" fill="#404254">
                <rect fill="#f2f5e9" fill-opacity="0.5" stroke="#606060" stroke-width=".5" x="0" y="0" width="60" height="60"/>
                <use id="zoomplus" xlink:href="#zoomPlus" x="17" y="9" onmousedown="handleZoom(evt,'in')"/>
                <use id="zoomminus" xlink:href="#zoomMin" x="42" y="9" onmousedown="handleZoom(evt,'out')"/>
                <use id="reset" xlink:href="#resetDef" x="30" y="36" onmousedown="handleReset()"/>
                <g id="arrowUp" xlink:href="#dirArrow" transform="translate(30 24)" onmousedown="handlePan(0,-1)">
                  <use xlink:href="#rim" fill="#404040">
                        <set attributeName="fill" to="#808080" begin="arrowUp.mouseover" end="arrowUp.mouseout"/>
                  </use>
                  <path fill="none" stroke="white" stroke-width="1.5" d="M0,-3.0v7 M-2.5,-0.5L0,-3.0L2.5,-0.5"/>
                </g>
                <g id="arrowRight" xlink:href="#dirArrow" transform="rotate(90) translate(36 -43)" onmousedown="handlePan(1,0)">
                  <use xlink:href="#rim" fill="#404040">
                        <set attributeName="fill" to="#808080" begin="arrowRight.mouseover" end="arrowRight.mouseout"/>
                  </use>
                  <path fill="none" stroke="white" stroke-width="1.5" d="M0,-3.0v7 M-2.5,-0.5L0,-3.0L2.5,-0.5"/>
                </g>
                <g id="arrowDown" xlink:href="#dirArrow" transform="rotate(180) translate(-30 -48)" onmousedown="handlePan(0,1)">
                  <use xlink:href="#rim" fill="#404040">
                        <set attributeName="fill" to="#808080" begin="arrowDown.mouseover" end="arrowDown.mouseout"/>
                  </use>
                  <path fill="none" stroke="white" stroke-width="1.5" d="M0,-3.0v7 M-2.5,-0.5L0,-3.0L2.5,-0.5"/>
                </g>
                <g id="arrowLeft" xlink:href="#dirArrow" transform="rotate(270) translate(-36 17)" onmousedown="handlePan(-1,0)">
                  <use xlink:href="#rim" fill="#404040">
                        <set attributeName="fill" to="#808080" begin="arrowLeft.mouseover" end="arrowLeft.mouseout"/>
                  </use>
                  <path fill="none" stroke="white" stroke-width="1.5" d="M0,-3.0v7 M-2.5,-0.5L0,-3.0L2.5,-0.5"/>
                </g>
        </g>
        <svg viewBox="0 0 15 15" width="100%" height="30px" preserveAspectRatio="xMaxYMin meet">
         <g id="arrow_out" transform="scale(0.3 0.3)">
          <a xlink:href="classTileManager_a8ee071ff8b24926288437d310f9bc714_icgraph_org.svg" target="_base">
           <rect id="button" ry="5" rx="5" y="6" x="6" height="38" width="38"
                fill="#f2f5e9" fill-opacity="0.5" stroke="#606060" stroke-width="1.0"/>
           <path id="arrow"
             d="M 11.500037,31.436501 C 11.940474,20.09759 22.043105,11.32322 32.158766,21.979434 L 37.068811,17.246167 C 37.068811,17.246167 37.088388,32 37.088388,32 L 22.160133,31.978069 C 22.160133,31.978069 26.997745,27.140456 26.997745,27.140456 C 18.528582,18.264221 13.291696,25.230495 11.500037,31.436501 z"
             style="fill:#404040;"/>
          </a>
         </g>
        </svg>
</svg>
