<?xml version="1.0" encoding="UTF-8" standalone="no"?>
<!DOCTYPE svg PUBLIC "-//W3C//DTD SVG 1.1//EN"
 "http://www.w3.org/Graphics/SVG/1.1/DTD/svg11.dtd">
<!-- Generated by graphviz version 2.40.1 (20161225.0304)
 -->
<!-- Title: iModel Pages: 1 -->
<svg width="213pt" height="372pt"
 viewBox="0.00 0.00 212.50 372.00" xmlns="http://www.w3.org/2000/svg" xmlns:xlink="http://www.w3.org/1999/xlink">
<g id="graph0" class="graph" transform="scale(1 1) rotate(0) translate(4 368)">
<title>iModel</title>
<!-- Node0 -->
<g id="node1" class="node">
<title>Node0</title>
<polygon fill="#bfbfbf" stroke="#000000" points="98,-306.5 98,-363.5 174,-363.5 174,-306.5 98,-306.5"/>
<text text-anchor="middle" x="136" y="-351.5" font-family="Helvetica,sans-Serif" font-size="10.00" fill="#000000">iModel</text>
<polyline fill="none" stroke="#000000" points="98,-344.5 174,-344.5 "/>
<text text-anchor="middle" x="136" y="-332.5" font-family="Helvetica,sans-Serif" font-size="10.00" fill="#000000"> </text>
<polyline fill="none" stroke="#000000" points="98,-325.5 174,-325.5 "/>
<text text-anchor="start" x="106" y="-313.5" font-family="Helvetica,sans-Serif" font-size="10.00" fill="#000000">+ ~iModel()</text>
</g>
<!-- Node1 -->
<g id="node2" class="node">
<title>Node1</title>
<g id="a_node2"><a xlink:href="structDataModel.html" target="_top" xlink:title="{DataModel\&lt; DataList \&gt;\n||+ DataModel()\l}">
<polygon fill="none" stroke="#000000" points="0,-211.5 0,-268.5 132,-268.5 132,-211.5 0,-211.5"/>
<text text-anchor="middle" x="66" y="-256.5" font-family="Helvetica,sans-Serif" font-size="10.00" fill="#000000">DataModel&lt; DataList &gt;</text>
<polyline fill="none" stroke="#000000" points="0,-249.5 132,-249.5 "/>
<text text-anchor="middle" x="66" y="-237.5" font-family="Helvetica,sans-Serif" font-size="10.00" fill="#000000"> </text>
<polyline fill="none" stroke="#000000" points="0,-230.5 132,-230.5 "/>
<text text-anchor="start" x="8" y="-218.5" font-family="Helvetica,sans-Serif" font-size="10.00" fill="#000000">+ DataModel()</text>
</a>
</g>
</g>
<!-- Node0&#45;&gt;Node1 -->
<g id="edge1" class="edge">
<title>Node0&#45;&gt;Node1</title>
<path fill="none" stroke="#191970" d="M109.0636,-298.4435C101.8284,-288.6242 94.1069,-278.1451 87.2294,-268.8114"/>
<polygon fill="none" stroke="#191970" points="106.248,-300.5225 114.9977,-306.4969 111.8834,-296.3701 106.248,-300.5225"/>
</g>
<!-- Node2 -->
<g id="node3" class="node">
<title>Node2</title>
<g id="a_node3"><a xlink:href="structDataModel.html" target="_top" xlink:title="{DataModel\&lt; ButtonNotifications \&gt;\n||+ DataModel()\l}">
<polygon fill="none" stroke="#000000" points="19.5,-106.5 19.5,-163.5 204.5,-163.5 204.5,-106.5 19.5,-106.5"/>
<text text-anchor="middle" x="112" y="-151.5" font-family="Helvetica,sans-Serif" font-size="10.00" fill="#000000">DataModel&lt; ButtonNotifications &gt;</text>
<polyline fill="none" stroke="#000000" points="19.5,-144.5 204.5,-144.5 "/>
<text text-anchor="middle" x="112" y="-132.5" font-family="Helvetica,sans-Serif" font-size="10.00" fill="#000000"> </text>
<polyline fill="none" stroke="#000000" points="19.5,-125.5 204.5,-125.5 "/>
<text text-anchor="start" x="27.5" y="-113.5" font-family="Helvetica,sans-Serif" font-size="10.00" fill="#000000">+ DataModel()</text>
</a>
</g>
</g>
<!-- Node0&#45;&gt;Node2 -->
<g id="edge4" class="edge">
<title>Node0&#45;&gt;Node2</title>
<path fill="none" stroke="#191970" d="M155.8296,-297.0244C169.6372,-265.1195 182.8244,-218.948 166,-182 162.9096,-175.2133 158.3016,-169.0261 153.057,-163.5301"/>
<polygon fill="none" stroke="#191970" points="152.5013,-295.8892 151.5571,-306.4419 158.876,-298.7813 152.5013,-295.8892"/>
</g>
<!-- Node1&#45;&gt;Node2 -->
<g id="edge2" class="edge">
<title>Node1&#45;&gt;Node2</title>
<path fill="none" stroke="#ffa500" d="M43.9263,-201.6482C42.5541,-194.9575 42.8192,-188.17 46,-182 49.5451,-175.1233 54.6134,-169.032 60.3866,-163.7061"/>
<polygon fill="#ffa500" stroke="#ffa500" points="40.622,-202.8079 46.9594,-211.2984 47.2999,-200.709 40.622,-202.8079"/>
<text text-anchor="middle" x="106" y="-185" font-family="Helvetica,sans-Serif" font-size="10.00" fill="#000000"> &lt; ButtonNotifications &gt;</text>
</g>
<!-- Node3 -->
<g id="node4" class="node">
<title>Node3</title>
<g id="a_node4"><a xlink:href="classButtonState.html" target="_top" xlink:title="{ButtonState\n|&#45; m_Status\l|+ setStatus()\l+ ~ButtonState()\l}">
<polygon fill="none" stroke="#000000" points="61.5,-.5 61.5,-68.5 162.5,-68.5 162.5,-.5 61.5,-.5"/>
<text text-anchor="middle" x="112" y="-56.5" font-family="Helvetica,sans-Serif" font-size="10.00" fill="#000000">ButtonState</text>
<polyline fill="none" stroke="#000000" points="61.5,-49.5 162.5,-49.5 "/>
<text text-anchor="start" x="69.5" y="-37.5" font-family="Helvetica,sans-Serif" font-size="10.00" fill="#000000">&#45; m_Status</text>
<polyline fill="none" stroke="#000000" points="61.5,-30.5 162.5,-30.5 "/>
<text text-anchor="start" x="69.5" y="-18.5" font-family="Helvetica,sans-Serif" font-size="10.00" fill="#000000">+ setStatus()</text>
<text text-anchor="start" x="69.5" y="-7.5" font-family="Helvetica,sans-Serif" font-size="10.00" fill="#000000">+ ~ButtonState()</text>
</a>
</g>
</g>
<!-- Node2&#45;&gt;Node3 -->
<g id="edge3" class="edge">
<title>Node2&#45;&gt;Node3</title>
<path fill="none" stroke="#191970" d="M112,-96.1903C112,-87.1667 112,-77.6233 112,-68.8097"/>
<polygon fill="none" stroke="#191970" points="108.5001,-96.4695 112,-106.4696 115.5001,-96.4696 108.5001,-96.4695"/>
</g>
</g>
</svg>
