<?xml version="1.0" encoding="UTF-8" standalone="no"?>
<!DOCTYPE svg PUBLIC "-//W3C//DTD SVG 1.1//EN"
 "http://www.w3.org/Graphics/SVG/1.1/DTD/svg11.dtd">
<!-- Generated by graphviz version 2.40.1 (20161225.0304)
 -->
<!-- Title: Text::Text Pages: 1 -->
<svg width="698pt" height="205pt"
 viewBox="0.00 0.00 698.00 205.00" xmlns="http://www.w3.org/2000/svg" xmlns:xlink="http://www.w3.org/1999/xlink">
<g id="graph0" class="graph" transform="scale(1 1) rotate(0) translate(4 201)">
<title>Text::Text</title>
<!-- Node0 -->
<g id="node1" class="node">
<title>Node0</title>
<polygon fill="#bfbfbf" stroke="#000000" points="0,-120.5 0,-139.5 63,-139.5 63,-120.5 0,-120.5"/>
<text text-anchor="middle" x="31.5" y="-127.5" font-family="Helvetica,sans-Serif" font-size="10.00" fill="#000000">Text::Text</text>
</g>
<!-- Node1 -->
<g id="node2" class="node">
<title>Node1</title>
<g id="a_node2"><a xlink:href="classText.html#a342401fbc97a2b4c902c076e86ba43bd" target="_top" xlink:title="Destructor. ">
<polygon fill="none" stroke="#000000" points="113,-177.5 113,-196.5 184,-196.5 184,-177.5 113,-177.5"/>
<text text-anchor="middle" x="148.5" y="-184.5" font-family="Helvetica,sans-Serif" font-size="10.00" fill="#000000">Text::~Text</text>
</a>
</g>
</g>
<!-- Node0&#45;&gt;Node1 -->
<g id="edge1" class="edge">
<title>Node0&#45;&gt;Node1</title>
<path fill="none" stroke="#191970" d="M46.9772,-139.5723C60.4418,-147.6897 80.6242,-159.3576 99,-168 103.1415,-169.9478 107.5414,-171.8557 111.9431,-173.6657"/>
<polygon fill="#191970" stroke="#191970" points="110.8966,-177.0158 121.4826,-177.4492 113.4774,-170.5089 110.8966,-177.0158"/>
</g>
<!-- Node2 -->
<g id="node3" class="node">
<title>Node2</title>
<g id="a_node3"><a xlink:href="classText.html#a8f486a54a21fafc7a5dfb75975f1621f" target="_top" xlink:title="implements draw function. Renders the SDL_Texture generated from the TTF. ">
<polygon fill="none" stroke="#000000" points="115,-139.5 115,-158.5 182,-158.5 182,-139.5 115,-139.5"/>
<text text-anchor="middle" x="148.5" y="-146.5" font-family="Helvetica,sans-Serif" font-size="10.00" fill="#000000">Text::draw</text>
</a>
</g>
</g>
<!-- Node0&#45;&gt;Node2 -->
<g id="edge2" class="edge">
<title>Node0&#45;&gt;Node2</title>
<path fill="none" stroke="#191970" d="M63.1619,-135.1417C75.8892,-137.2085 90.7803,-139.6267 104.5285,-141.8593"/>
<polygon fill="#191970" stroke="#191970" points="104.3325,-145.3733 114.7642,-143.5215 105.4546,-138.4638 104.3325,-145.3733"/>
</g>
<!-- Node5 -->
<g id="node6" class="node">
<title>Node5</title>
<g id="a_node6"><a xlink:href="classText.html#a14b9f0937696af5fd95317eb8313bf92" target="_top" xlink:title="sets the text for this text widget. ">
<polygon fill="none" stroke="#000000" points="265.5,-82.5 265.5,-101.5 343.5,-101.5 343.5,-82.5 265.5,-82.5"/>
<text text-anchor="middle" x="304.5" y="-89.5" font-family="Helvetica,sans-Serif" font-size="10.00" fill="#000000">Text::setText</text>
</a>
</g>
</g>
<!-- Node0&#45;&gt;Node5 -->
<g id="edge5" class="edge">
<title>Node0&#45;&gt;Node5</title>
<path fill="none" stroke="#191970" d="M63.0833,-125.6038C110.2542,-119.0379 199.5185,-106.6128 255.2903,-98.8497"/>
<polygon fill="#191970" stroke="#191970" points="255.8747,-102.3022 265.2967,-97.4569 254.9096,-95.369 255.8747,-102.3022"/>
</g>
<!-- Node11 -->
<g id="node12" class="node">
<title>Node11</title>
<g id="a_node12"><a xlink:href="classText.html#a398a47abd355749d9e99bf74aa6a4a8d" target="_top" xlink:title="Sets the Font size of this element. ">
<polygon fill="none" stroke="#000000" points="99,-63.5 99,-82.5 198,-82.5 198,-63.5 99,-63.5"/>
<text text-anchor="middle" x="148.5" y="-70.5" font-family="Helvetica,sans-Serif" font-size="10.00" fill="#000000">Text::setFontSize</text>
</a>
</g>
</g>
<!-- Node0&#45;&gt;Node11 -->
<g id="edge12" class="edge">
<title>Node0&#45;&gt;Node11</title>
<path fill="none" stroke="#191970" d="M50.987,-120.4522C64.465,-113.8536 82.8152,-104.8798 99,-97 105.5771,-93.7978 112.6496,-90.3634 119.3323,-87.1223"/>
<polygon fill="#191970" stroke="#191970" points="121.2693,-90.073 128.7413,-82.5617 118.2161,-83.774 121.2693,-90.073"/>
</g>
<!-- Node3 -->
<g id="node4" class="node">
<title>Node3</title>
<g id="a_node4"><a xlink:href="classUIElement.html#abba9217ad94f67e16654cf236577b6c2" target="_top" xlink:title="Check the UI Elements visibility. Check if the UI Element is visibile. ">
<polygon fill="none" stroke="#000000" points="247,-167.5 247,-186.5 362,-186.5 362,-167.5 247,-167.5"/>
<text text-anchor="middle" x="304.5" y="-174.5" font-family="Helvetica,sans-Serif" font-size="10.00" fill="#000000">UIElement::isVisible</text>
</a>
</g>
</g>
<!-- Node2&#45;&gt;Node3 -->
<g id="edge3" class="edge">
<title>Node2&#45;&gt;Node3</title>
<path fill="none" stroke="#191970" d="M182.3497,-155.0756C199.5981,-158.1714 221.1412,-162.0382 241.3124,-165.6586"/>
<polygon fill="#191970" stroke="#191970" points="240.9302,-169.1459 251.3913,-167.4677 242.1669,-162.256 240.9302,-169.1459"/>
</g>
<!-- Node4 -->
<g id="node5" class="node">
<title>Node4</title>
<g id="a_node5"><a xlink:href="classUIElement.html#a0a6d27dea5d855c208e9bd9043b7ea62" target="_top" xlink:title="UIElement::renderTexture">
<polygon fill="none" stroke="#000000" points="234,-129.5 234,-148.5 375,-148.5 375,-129.5 234,-129.5"/>
<text text-anchor="middle" x="304.5" y="-136.5" font-family="Helvetica,sans-Serif" font-size="10.00" fill="#000000">UIElement::renderTexture</text>
</a>
</g>
</g>
<!-- Node2&#45;&gt;Node4 -->
<g id="edge4" class="edge">
<title>Node2&#45;&gt;Node4</title>
<path fill="none" stroke="#191970" d="M182.3497,-146.8301C194.6544,-146.0414 209.1448,-145.1125 223.7636,-144.1754"/>
<polygon fill="#191970" stroke="#191970" points="224.1239,-147.6596 233.8794,-143.527 223.676,-140.6739 224.1239,-147.6596"/>
</g>
<!-- Node6 -->
<g id="node7" class="node">
<title>Node6</title>
<g id="a_node7"><a xlink:href="classText.html#a3bf5a064fd37d06b8d3dc5a700556897" target="_top" xlink:title="Draws a text string to the screen Draws a text string to the screen. This could either be a standalon...">
<polygon fill="none" stroke="#000000" points="411,-82.5 411,-101.5 541,-101.5 541,-82.5 411,-82.5"/>
<text text-anchor="middle" x="476" y="-89.5" font-family="Helvetica,sans-Serif" font-size="10.00" fill="#000000">Text::createTextTexture</text>
</a>
</g>
</g>
<!-- Node5&#45;&gt;Node6 -->
<g id="edge6" class="edge">
<title>Node5&#45;&gt;Node6</title>
<path fill="none" stroke="#191970" d="M343.8456,-92C360.7723,-92 381.1512,-92 400.7824,-92"/>
<polygon fill="#191970" stroke="#191970" points="400.9579,-95.5001 410.9578,-92 400.9578,-88.5001 400.9579,-95.5001"/>
</g>
<!-- Node7 -->
<g id="node8" class="node">
<title>Node7</title>
<g id="a_node8"><a xlink:href="namespacefs.html#a28e4c1324680c188092ecfe5fd8a91a3" target="_top" xlink:title="fs::getBasePath">
<polygon fill="none" stroke="#000000" points="587.5,-126.5 587.5,-145.5 679.5,-145.5 679.5,-126.5 587.5,-126.5"/>
<text text-anchor="middle" x="633.5" y="-133.5" font-family="Helvetica,sans-Serif" font-size="10.00" fill="#000000">fs::getBasePath</text>
</a>
</g>
</g>
<!-- Node6&#45;&gt;Node7 -->
<g id="edge7" class="edge">
<title>Node6&#45;&gt;Node7</title>
<path fill="none" stroke="#191970" d="M510.1752,-101.5473C533.4973,-108.0627 564.5968,-116.7508 589.7302,-123.7722"/>
<polygon fill="#191970" stroke="#191970" points="588.8186,-127.1515 599.3915,-126.4713 590.7021,-120.4097 588.8186,-127.1515"/>
</g>
<!-- Node8 -->
<g id="node9" class="node">
<title>Node8</title>
<g id="a_node9"><a xlink:href="classSingleton.html#af5cb1e5749949e2b68416cfb8d378044" target="_top" xlink:title="Get an instance of the singleton. ">
<polygon fill="none" stroke="#000000" points="577,-77 577,-107 690,-107 690,-77 577,-77"/>
<text text-anchor="start" x="585" y="-95" font-family="Helvetica,sans-Serif" font-size="10.00" fill="#000000">Singleton&lt; Settings</text>
<text text-anchor="middle" x="633.5" y="-84" font-family="Helvetica,sans-Serif" font-size="10.00" fill="#000000"> &gt;::instance</text>
</a>
</g>
</g>
<!-- Node6&#45;&gt;Node8 -->
<g id="edge8" class="edge">
<title>Node6&#45;&gt;Node8</title>
<path fill="none" stroke="#191970" d="M541.4259,-85.3366C549.7178,-85.2279 558.2128,-85.2215 566.5285,-85.3176"/>
<polygon fill="#191970" stroke="#191970" points="566.4999,-88.8175 576.5571,-85.4855 566.6172,-81.8185 566.4999,-88.8175"/>
</g>
<!-- Node6&#45;&gt;Node8 -->
<g id="edge11" class="edge">
<title>Node6&#45;&gt;Node8</title>
<path fill="none" stroke="#191970" d="M541.4259,-98.6634C549.7178,-98.7721 558.2128,-98.7785 566.5285,-98.6824"/>
<polygon fill="#191970" stroke="#191970" points="566.6172,-102.1815 576.5571,-98.5145 566.4999,-95.1825 566.6172,-102.1815"/>
</g>
<!-- Node9 -->
<g id="node10" class="node">
<title>Node9</title>
<g id="a_node10"><a xlink:href="structStrongType.html#acc66e6d6b9c95193a97a839560499933" target="_top" xlink:title="StrongType::get">
<polygon fill="none" stroke="#000000" points="587.5,-38.5 587.5,-57.5 679.5,-57.5 679.5,-38.5 587.5,-38.5"/>
<text text-anchor="middle" x="633.5" y="-45.5" font-family="Helvetica,sans-Serif" font-size="10.00" fill="#000000">StrongType::get</text>
</a>
</g>
</g>
<!-- Node6&#45;&gt;Node9 -->
<g id="edge9" class="edge">
<title>Node6&#45;&gt;Node9</title>
<path fill="none" stroke="#191970" d="M510.1752,-82.4527C533.4973,-75.9373 564.5968,-67.2492 589.7302,-60.2278"/>
<polygon fill="#191970" stroke="#191970" points="590.7021,-63.5903 599.3915,-57.5287 588.8186,-56.8485 590.7021,-63.5903"/>
</g>
<!-- Node10 -->
<g id="node11" class="node">
<title>Node10</title>
<g id="a_node11"><a xlink:href="namespacefs.html#a000d1f9ae14d782b6193298e6d27023f" target="_top" xlink:title="fs::fileExists">
<polygon fill="none" stroke="#000000" points="595.5,-.5 595.5,-19.5 671.5,-19.5 671.5,-.5 595.5,-.5"/>
<text text-anchor="middle" x="633.5" y="-7.5" font-family="Helvetica,sans-Serif" font-size="10.00" fill="#000000">fs::fileExists</text>
</a>
</g>
</g>
<!-- Node6&#45;&gt;Node10 -->
<g id="edge10" class="edge">
<title>Node6&#45;&gt;Node10</title>
<path fill="none" stroke="#191970" d="M489.1506,-82.3918C507.8994,-69.0274 543.7344,-44.7037 577,-29 581.4453,-26.9015 586.1861,-24.9276 590.9597,-23.1044"/>
<polygon fill="#191970" stroke="#191970" points="592.5023,-26.2687 600.7202,-19.5818 590.1259,-19.6844 592.5023,-26.2687"/>
</g>
<!-- Node11&#45;&gt;Node5 -->
<g id="edge13" class="edge">
<title>Node11&#45;&gt;Node5</title>
<path fill="none" stroke="#191970" d="M198.2883,-79.064C216.4861,-81.2804 237.0516,-83.7851 255.206,-85.9962"/>
<polygon fill="#191970" stroke="#191970" points="254.9461,-89.4904 265.2959,-87.2251 255.7924,-82.5417 254.9461,-89.4904"/>
</g>
</g>
</svg>
