<?xml version="1.0" encoding="UTF-8" standalone="no"?>
<!DOCTYPE svg PUBLIC "-//W3C//DTD SVG 1.1//EN"
 "http://www.w3.org/Graphics/SVG/1.1/DTD/svg11.dtd">
<!-- Generated by graphviz version 2.40.1 (20161225.0304)
 -->
<!-- Title: UIManager::changeFullScreenMode Pages: 1 -->
<!--zoomable 321 -->
<svg id="main" version="1.1" xmlns="http://www.w3.org/2000/svg" xmlns:xlink="http://www.w3.org/1999/xlink" xml:space="preserve" onload="init(evt)">
<style type="text/css"><![CDATA[
.edge:hover path { stroke: red; }
.edge:hover polygon { stroke: red; fill: red; }
]]></style>
<script type="text/javascript"><![CDATA[
var edges = document.getElementsByTagName('g');
if (edges && edges.length) {
  for (var i=0;i<edges.length;i++) {
    if (edges[i].id.substr(0,4)=='edge') {
      edges[i].setAttribute('class','edge');
    }
  }
}
]]></script>
        <defs>
                <circle id="rim" cx="0" cy="0" r="7"/>
                <circle id="rim2" cx="0" cy="0" r="3.5"/>
                <g id="zoomPlus">
                        <use xlink:href="#rim" fill="#404040">
                                <set attributeName="fill" to="#808080" begin="zoomplus.mouseover" end="zoomplus.mouseout"/>
                        </use>
                        <path d="M-4,0h8M0,-4v8" fill="none" stroke="white" stroke-width="1.5" pointer-events="none"/>
                </g>
                <g id="zoomMin">
                        <use xlink:href="#rim" fill="#404040">
                                <set attributeName="fill" to="#808080" begin="zoomminus.mouseover" end="zoomminus.mouseout"/>
                        </use>
                        <path d="M-4,0h8" fill="none" stroke="white" stroke-width="1.5" pointer-events="none"/>
                </g>
                <g id="dirArrow">
                        <path fill="none" stroke="white" stroke-width="1.5" d="M0,-3.0v7 M-2.5,-0.5L0,-3.0L2.5,-0.5"/>
                </g>
               <g id="resetDef">
                       <use xlink:href="#rim2" fill="#404040">
                               <set attributeName="fill" to="#808080" begin="reset.mouseover" end="reset.mouseout"/>
                       </use>
               </g>
        </defs>

<script type="text/javascript">
var viewWidth = 1051;
var viewHeight = 321;
var sectionId = 'dynsection-4';
</script>
<script xlink:href="svgpan.js"/>
<svg id="graph" class="graph">
<g id="viewport">
<title>UIManager::changeFullScreenMode</title>
<!-- Node8 -->
<g id="node1" class="node">
<title>Node8</title>
<polygon fill="#bfbfbf" stroke="#000000" points="0,-234.5 0,-253.5 186,-253.5 186,-234.5 0,-234.5"/>
<text text-anchor="middle" x="93" y="-241.5" font-family="Helvetica,sans-Serif" font-size="10.00" fill="#000000">UIManager::changeFullScreenMode</text>
</g>
<!-- Node9 -->
<g id="node2" class="node">
<title>Node9</title>
<g id="a_node2"><a xlink:href="classSingleton.html#af5cb1e5749949e2b68416cfb8d378044" target="_top" xlink:title="Get an instance of the singleton. ">
<polygon fill="none" stroke="#000000" points="635,-206 635,-236 790,-236 790,-206 635,-206"/>
<text text-anchor="start" x="643" y="-224" font-family="Helvetica,sans-Serif" font-size="10.00" fill="#000000">Singleton&lt; WindowManager</text>
<text text-anchor="middle" x="712.5" y="-213" font-family="Helvetica,sans-Serif" font-size="10.00" fill="#000000"> &gt;::instance</text>
</a>
</g>
</g>
<!-- Node8&#45;&gt;Node9 -->
<g id="edge1" class="edge">
<title>Node8&#45;&gt;Node9</title>
<path fill="none" stroke="#191970" d="M141.9426,-253.5405C232.2074,-274.7905 430.3541,-318.8156 591,-278 620.1659,-270.5898 649.9022,-254.6107 672.6566,-241.2885"/>
<polygon fill="#191970" stroke="#191970" points="674.5114,-244.2578 681.3313,-236.1499 670.9437,-238.2352 674.5114,-244.2578"/>
</g>
<!-- Node8&#45;&gt;Node9 -->
<g id="edge21" class="edge">
<title>Node8&#45;&gt;Node9</title>
<path fill="none" stroke="#191970" d="M111.9041,-253.6159C178.6307,-279.5229 408.9066,-342.2648 591,-296 629.5413,-286.2077 669.0787,-261.4522 692.1847,-242.7605"/>
<polygon fill="#191970" stroke="#191970" points="694.5668,-245.3293 699.9217,-236.1873 690.0345,-239.9946 694.5668,-245.3293"/>
</g>
<!-- Node10 -->
<g id="node3" class="node">
<title>Node10</title>
<g id="a_node3"><a xlink:href="classWindowManager.html#a92e1efc564e88b5d92ef674c2577997f" target="_top" xlink:title="sets the game&#39;s window mode Changes the game&#39;s window mode to fullscreen, borderless, or windowed ">
<polygon fill="none" stroke="#000000" points="397,-258.5 397,-277.5 591,-277.5 591,-258.5 397,-258.5"/>
<text text-anchor="middle" x="494" y="-265.5" font-family="Helvetica,sans-Serif" font-size="10.00" fill="#000000">WindowManager::setFullScreenMode</text>
</a>
</g>
</g>
<!-- Node8&#45;&gt;Node10 -->
<g id="edge2" class="edge">
<title>Node8&#45;&gt;Node10</title>
<path fill="none" stroke="#191970" d="M186.0054,-249.5664C245.9471,-253.1539 324.0874,-257.8307 386.6611,-261.5757"/>
<polygon fill="#191970" stroke="#191970" points="386.7698,-265.0884 396.9611,-262.1922 387.1881,-258.1009 386.7698,-265.0884"/>
</g>
<!-- Node11 -->
<g id="node4" class="node">
<title>Node11</title>
<g id="a_node4"><a xlink:href="classComboBox.html#afddbdfd25efa15206eb724b641665cfc" target="_top" xlink:title="Get ID of selected element returns the ID of the selected element in the comboBox. ">
<polygon fill="none" stroke="#000000" points="225,-173.5 225,-192.5 358,-192.5 358,-173.5 225,-173.5"/>
<text text-anchor="middle" x="291.5" y="-180.5" font-family="Helvetica,sans-Serif" font-size="10.00" fill="#000000">ComboBox::getActiveID</text>
</a>
</g>
</g>
<!-- Node8&#45;&gt;Node11 -->
<g id="edge4" class="edge">
<title>Node8&#45;&gt;Node11</title>
<path fill="none" stroke="#191970" d="M121.0628,-234.434C147.1127,-225.6565 187.0258,-212.4676 222,-202 229.5833,-199.7304 237.6643,-197.4218 245.5335,-195.2323"/>
<polygon fill="#191970" stroke="#191970" points="246.6221,-198.5629 255.3346,-192.5344 244.7643,-191.8139 246.6221,-198.5629"/>
</g>
<!-- Node13 -->
<g id="node6" class="node">
<title>Node13</title>
<g id="a_node6"><a xlink:href="classLayout.html#afa734c5af10f59f3dadb066054fe81ab" target="_top" xlink:title="Arrange the layout elements. ">
<polygon fill="none" stroke="#000000" points="222,-211.5 222,-230.5 361,-230.5 361,-211.5 222,-211.5"/>
<text text-anchor="middle" x="291.5" y="-218.5" font-family="Helvetica,sans-Serif" font-size="10.00" fill="#000000">Layout::arrangeElements</text>
</a>
</g>
</g>
<!-- Node8&#45;&gt;Node13 -->
<g id="edge6" class="edge">
<title>Node8&#45;&gt;Node13</title>
<path fill="none" stroke="#191970" d="M175.1704,-234.479C187.2527,-233.079 199.6832,-231.6387 211.7163,-230.2445"/>
<polygon fill="#191970" stroke="#191970" points="212.1836,-233.7138 221.7142,-229.086 211.3778,-226.7603 212.1836,-233.7138"/>
</g>
<!-- Node22 -->
<g id="node15" class="node">
<title>Node22</title>
<g id="a_node15"><a xlink:href="classMap.html#ab69938ac0e56eb0da1d1701221f3d185" target="_top" xlink:title="Refresh all the map tile textures. ">
<polygon fill="none" stroke="#000000" points="253,-135.5 253,-154.5 330,-154.5 330,-135.5 253,-135.5"/>
<text text-anchor="middle" x="291.5" y="-142.5" font-family="Helvetica,sans-Serif" font-size="10.00" fill="#000000">Map::refresh</text>
</a>
</g>
</g>
<!-- Node8&#45;&gt;Node22 -->
<g id="edge22" class="edge">
<title>Node8&#45;&gt;Node22</title>
<path fill="none" stroke="#191970" d="M105.8565,-234.2547C128.3012,-217.6597 176.5822,-183.7932 222,-164 228.7011,-161.0797 235.9643,-158.5025 243.1839,-156.2641"/>
<polygon fill="#191970" stroke="#191970" points="244.3225,-159.578 252.9449,-153.4212 242.365,-152.8572 244.3225,-159.578"/>
</g>
<!-- Node10&#45;&gt;Node9 -->
<g id="edge3" class="edge">
<title>Node10&#45;&gt;Node9</title>
<path fill="none" stroke="#191970" d="M538.2167,-258.4888C565.2221,-252.6799 600.5627,-245.078 632.3561,-238.2392"/>
<polygon fill="#191970" stroke="#191970" points="633.4986,-241.5736 642.5389,-236.0488 632.0264,-234.7301 633.4986,-241.5736"/>
</g>
<!-- Node12 -->
<g id="node5" class="node">
<title>Node12</title>
<g id="a_node5"><a xlink:href="classComboBox.html#ad0dba514b01ed2bb3c41c738c80a7d6a" target="_top" xlink:title="Set ID of selected element sets the ID of the selected element in the comboBox. ">
<polygon fill="none" stroke="#000000" points="428,-38.5 428,-57.5 560,-57.5 560,-38.5 428,-38.5"/>
<text text-anchor="middle" x="494" y="-45.5" font-family="Helvetica,sans-Serif" font-size="10.00" fill="#000000">ComboBox::setActiveID</text>
</a>
</g>
</g>
<!-- Node11&#45;&gt;Node12 -->
<g id="edge5" class="edge">
<title>Node11&#45;&gt;Node12</title>
<path fill="none" stroke="#191970" d="M346.5055,-173.4621C351.792,-170.9868 356.7553,-167.8847 361,-164 394.9227,-132.9546 361.9605,-96.7793 397,-67 403.2284,-61.7066 410.4972,-57.7253 418.2036,-54.751"/>
<polygon fill="#191970" stroke="#191970" points="419.374,-58.0506 427.7803,-51.6019 417.1873,-51.4008 419.374,-58.0506"/>
</g>
<!-- Node13&#45;&gt;Node9 -->
<g id="edge7" class="edge">
<title>Node13&#45;&gt;Node9</title>
<path fill="none" stroke="#191970" d="M361.0196,-215.8337C433.102,-213.8833 546.0034,-213.7344 624.3171,-215.3871"/>
<polygon fill="#191970" stroke="#191970" points="624.5729,-218.8936 634.6495,-215.6206 624.7311,-211.8954 624.5729,-218.8936"/>
</g>
<!-- Node13&#45;&gt;Node9 -->
<g id="edge10" class="edge">
<title>Node13&#45;&gt;Node9</title>
<path fill="none" stroke="#191970" d="M361.0196,-226.1663C433.102,-228.1167 546.0034,-228.2656 624.3171,-226.6129"/>
<polygon fill="#191970" stroke="#191970" points="624.7311,-230.1046 634.6495,-226.3794 624.5729,-223.1064 624.7311,-230.1046"/>
</g>
<!-- Node14 -->
<g id="node7" class="node">
<title>Node14</title>
<g id="a_node7"><a xlink:href="classLayout.html#a79480df6d9dd2d32b23468c05c6ac944" target="_top" xlink:title="Calculates height and width of layout groups. ">
<polygon fill="none" stroke="#000000" points="413,-153 413,-183 575,-183 575,-153 413,-153"/>
<text text-anchor="start" x="421" y="-171" font-family="Helvetica,sans-Serif" font-size="10.00" fill="#000000">Layout::calculateLayoutGroup</text>
<text text-anchor="middle" x="494" y="-160" font-family="Helvetica,sans-Serif" font-size="10.00" fill="#000000">Dimensions</text>
</a>
</g>
</g>
<!-- Node13&#45;&gt;Node14 -->
<g id="edge8" class="edge">
<title>Node13&#45;&gt;Node14</title>
<path fill="none" stroke="#191970" d="M328.1712,-211.4021C355.5429,-204.2382 393.7214,-194.2458 426.5466,-185.6545"/>
<polygon fill="#191970" stroke="#191970" points="427.756,-188.9559 436.5439,-183.0379 425.9836,-182.184 427.756,-188.9559"/>
</g>
<!-- Node15 -->
<g id="node8" class="node">
<title>Node15</title>
<g id="a_node8"><a xlink:href="classUIManager.html#a0d32c5b63c4110ff8e43ab06c1c7d761" target="_top" xlink:title="Get the Layoutgroup container Returns the container, that holds LayoutGroups. ">
<polygon fill="none" stroke="#000000" points="627,-114.5 627,-133.5 798,-133.5 798,-114.5 627,-114.5"/>
<text text-anchor="middle" x="712.5" y="-121.5" font-family="Helvetica,sans-Serif" font-size="10.00" fill="#000000">UIManager::getAllLayoutGroups</text>
</a>
</g>
</g>
<!-- Node13&#45;&gt;Node15 -->
<g id="edge11" class="edge">
<title>Node13&#45;&gt;Node15</title>
<path fill="none" stroke="#191970" d="M343.6312,-211.4441C349.8241,-208.9838 355.7869,-205.8901 361,-202 385.3157,-183.855 370.9666,-159.5806 397,-144 476.7347,-96.28 589.0019,-102.9324 655.8942,-112.9102"/>
<polygon fill="#191970" stroke="#191970" points="655.4054,-116.3762 665.8267,-114.4662 656.4889,-109.4606 655.4054,-116.3762"/>
</g>
<!-- Node16 -->
<g id="node9" class="node">
<title>Node16</title>
<g id="a_node9"><a xlink:href="classLayout.html#a99004e4afcea6a945e3890b19cce6236" target="_top" xlink:title="Arrange Elements that are aligned to a parent This is a seperate function, so it can recurse if a par...">
<polygon fill="none" stroke="#000000" points="412,-76.5 412,-95.5 576,-95.5 576,-76.5 412,-76.5"/>
<text text-anchor="middle" x="494" y="-83.5" font-family="Helvetica,sans-Serif" font-size="10.00" fill="#000000">Layout::arrangeChildElements</text>
</a>
</g>
</g>
<!-- Node13&#45;&gt;Node16 -->
<g id="edge12" class="edge">
<title>Node13&#45;&gt;Node16</title>
<path fill="none" stroke="#191970" d="M346.4367,-211.3864C351.7361,-208.9252 356.7212,-205.8472 361,-202 393.6506,-172.6429 363.995,-138.9581 397,-110 401.5947,-105.9687 406.7621,-102.5924 412.2575,-99.7673"/>
<polygon fill="#191970" stroke="#191970" points="414.0709,-102.7905 421.7724,-95.5147 411.2146,-96.3998 414.0709,-102.7905"/>
</g>
<!-- Node14&#45;&gt;Node9 -->
<g id="edge9" class="edge">
<title>Node14&#45;&gt;Node9</title>
<path fill="none" stroke="#191970" d="M556.0289,-183.0459C582.3231,-189.4239 613.1364,-196.8981 640.4333,-203.5193"/>
<polygon fill="#191970" stroke="#191970" points="639.7728,-206.9605 650.316,-205.9165 641.4229,-200.1578 639.7728,-206.9605"/>
</g>
<!-- Node16&#45;&gt;Node9 -->
<g id="edge13" class="edge">
<title>Node16&#45;&gt;Node9</title>
<path fill="none" stroke="#191970" d="M523.4081,-95.6356C542.7027,-105.7425 568.444,-121.1123 591,-135 625.6594,-156.3398 665.4344,-181.7179 689.7627,-199.6651"/>
<polygon fill="#191970" stroke="#191970" points="687.91,-202.6533 697.9887,-205.9198 692.1468,-197.0811 687.91,-202.6533"/>
</g>
<!-- Node16&#45;&gt;Node9 -->
<g id="edge14" class="edge">
<title>Node16&#45;&gt;Node9</title>
<path fill="none" stroke="#191970" d="M502.0907,-95.7028C518.7898,-109.5501 558.252,-132.8371 591,-153 616.8135,-168.8933 645.4645,-187.0267 668.4584,-200.743"/>
<polygon fill="#191970" stroke="#191970" points="666.9049,-203.8901 677.2964,-205.9561 670.4614,-197.8609 666.9049,-203.8901"/>
</g>
<!-- Node16&#45;&gt;Node15 -->
<g id="edge17" class="edge">
<title>Node16&#45;&gt;Node15</title>
<path fill="none" stroke="#191970" d="M548.8547,-95.54C578.8548,-100.7574 616.2019,-107.2525 647.64,-112.72"/>
<polygon fill="#191970" stroke="#191970" points="647.1708,-116.1909 657.6227,-114.4561 648.3703,-109.2944 647.1708,-116.1909"/>
</g>
<!-- Node17 -->
<g id="node10" class="node">
<title>Node17</title>
<g id="a_node10"><a xlink:href="classUIManager.html#aa5b6dbe1a9d5c50b588c55e9c9673f58" target="_top" xlink:title="Get the Ui Element By ID Finds and returns an UiElement by its elementID parameter. ">
<polygon fill="none" stroke="#000000" points="630,-38.5 630,-57.5 795,-57.5 795,-38.5 630,-38.5"/>
<text text-anchor="middle" x="712.5" y="-45.5" font-family="Helvetica,sans-Serif" font-size="10.00" fill="#000000">UIManager::getUiElementByID</text>
</a>
</g>
</g>
<!-- Node16&#45;&gt;Node17 -->
<g id="edge15" class="edge">
<title>Node16&#45;&gt;Node17</title>
<path fill="none" stroke="#191970" d="M548.8547,-76.46C578.8548,-71.2426 616.2019,-64.7475 647.64,-59.28"/>
<polygon fill="#191970" stroke="#191970" points="648.3703,-62.7056 657.6227,-57.5439 647.1708,-55.8091 648.3703,-62.7056"/>
</g>
<!-- Node18 -->
<g id="node11" class="node">
<title>Node18</title>
<g id="a_node11"><a xlink:href="classUIElement.html#a6451228b4c9bc058d69e4d4f2b03c719" target="_top" xlink:title="UIElement::getUiElementData">
<polygon fill="none" stroke="#000000" points="630.5,-.5 630.5,-19.5 794.5,-19.5 794.5,-.5 630.5,-.5"/>
<text text-anchor="middle" x="712.5" y="-7.5" font-family="Helvetica,sans-Serif" font-size="10.00" fill="#000000">UIElement::getUiElementData</text>
</a>
</g>
</g>
<!-- Node16&#45;&gt;Node18 -->
<g id="edge16" class="edge">
<title>Node16&#45;&gt;Node18</title>
<path fill="none" stroke="#191970" d="M568.2617,-76.4592C576.1919,-73.9878 583.9333,-70.8874 591,-67 611.3838,-55.7868 606.7594,-40.4696 627,-29 630.9771,-26.7463 635.1992,-24.76 639.5539,-23.0092"/>
<polygon fill="#191970" stroke="#191970" points="641.0175,-26.2029 649.2553,-19.5404 638.6607,-19.6116 641.0175,-26.2029"/>
</g>
<!-- Node19 -->
<g id="node12" class="node">
<title>Node19</title>
<g id="a_node12"><a xlink:href="classUIElement.html#ad1c0d7431b71bdd9a3704a6d5c8a4643" target="_top" xlink:title="Get the position and the size of this ui element Gets the position and the size of this ui element...">
<polygon fill="none" stroke="#000000" points="632,-76.5 632,-95.5 793,-95.5 793,-76.5 632,-76.5"/>
<text text-anchor="middle" x="712.5" y="-83.5" font-family="Helvetica,sans-Serif" font-size="10.00" fill="#000000">UIElement::getUiElementRect</text>
</a>
</g>
</g>
<!-- Node16&#45;&gt;Node19 -->
<g id="edge18" class="edge">
<title>Node16&#45;&gt;Node19</title>
<path fill="none" stroke="#191970" d="M576.2941,-86C591.0377,-86 606.4799,-86 621.4527,-86"/>
<polygon fill="#191970" stroke="#191970" points="621.7292,-89.5001 631.7292,-86 621.7291,-82.5001 621.7292,-89.5001"/>
</g>
<!-- Node20 -->
<g id="node13" class="node">
<title>Node20</title>
<g id="a_node13"><a xlink:href="classUIElement.html#aa7f624963eaeb31043d74219ee24386c" target="_top" xlink:title="Checks if the mouse cursor is over the current UI Element Check if the coordinates match the ones sto...">
<polygon fill="none" stroke="#000000" points="870,-95.5 870,-114.5 1007,-114.5 1007,-95.5 870,-95.5"/>
<text text-anchor="middle" x="938.5" y="-102.5" font-family="Helvetica,sans-Serif" font-size="10.00" fill="#000000">UIElement::isMouseOver</text>
</a>
</g>
</g>
<!-- Node19&#45;&gt;Node20 -->
<g id="edge19" class="edge">
<title>Node19&#45;&gt;Node20</title>
<path fill="none" stroke="#191970" d="M793.134,-92.779C814.802,-94.6006 838.204,-96.568 859.7673,-98.3809"/>
<polygon fill="#191970" stroke="#191970" points="859.6016,-101.8792 869.8597,-99.2294 860.1881,-94.9038 859.6016,-101.8792"/>
</g>
<!-- Node21 -->
<g id="node14" class="node">
<title>Node21</title>
<g id="a_node14"><a xlink:href="classUIElement.html#a570841bf8b7970ca935b1a00e571036a" target="_top" xlink:title="Handling for the hovering event Check, if the mouse cursor is hovering over the element. virtual function to provide custom handling if necessary (e.g. Combobox) Per default, it&#39;s the same implementation as isMouseOver. ">
<polygon fill="none" stroke="#000000" points="834,-57.5 834,-76.5 1043,-76.5 1043,-57.5 834,-57.5"/>
<text text-anchor="middle" x="938.5" y="-64.5" font-family="Helvetica,sans-Serif" font-size="10.00" fill="#000000">UIElement::isMouseOverHoverableArea</text>
</a>
</g>
</g>
<!-- Node19&#45;&gt;Node21 -->
<g id="edge20" class="edge">
<title>Node19&#45;&gt;Node21</title>
<path fill="none" stroke="#191970" d="M793.134,-79.221C803.0217,-78.3898 813.2705,-77.5281 823.5409,-76.6647"/>
<polygon fill="#191970" stroke="#191970" points="824.1343,-80.1273 833.8059,-75.8017 823.5478,-73.1519 824.1343,-80.1273"/>
</g>
</g>
</svg>
        <g id="navigator" transform="translate(0 0)" fill="#404254">
                <rect fill="#f2f5e9" fill-opacity="0.5" stroke="#606060" stroke-width=".5" x="0" y="0" width="60" height="60"/>
                <use id="zoomplus" xlink:href="#zoomPlus" x="17" y="9" onmousedown="handleZoom(evt,'in')"/>
                <use id="zoomminus" xlink:href="#zoomMin" x="42" y="9" onmousedown="handleZoom(evt,'out')"/>
                <use id="reset" xlink:href="#resetDef" x="30" y="36" onmousedown="handleReset()"/>
                <g id="arrowUp" xlink:href="#dirArrow" transform="translate(30 24)" onmousedown="handlePan(0,-1)">
                  <use xlink:href="#rim" fill="#404040">
                        <set attributeName="fill" to="#808080" begin="arrowUp.mouseover" end="arrowUp.mouseout"/>
                  </use>
                  <path fill="none" stroke="white" stroke-width="1.5" d="M0,-3.0v7 M-2.5,-0.5L0,-3.0L2.5,-0.5"/>
                </g>
                <g id="arrowRight" xlink:href="#dirArrow" transform="rotate(90) translate(36 -43)" onmousedown="handlePan(1,0)">
                  <use xlink:href="#rim" fill="#404040">
                        <set attributeName="fill" to="#808080" begin="arrowRight.mouseover" end="arrowRight.mouseout"/>
                  </use>
                  <path fill="none" stroke="white" stroke-width="1.5" d="M0,-3.0v7 M-2.5,-0.5L0,-3.0L2.5,-0.5"/>
                </g>
                <g id="arrowDown" xlink:href="#dirArrow" transform="rotate(180) translate(-30 -48)" onmousedown="handlePan(0,1)">
                  <use xlink:href="#rim" fill="#404040">
                        <set attributeName="fill" to="#808080" begin="arrowDown.mouseover" end="arrowDown.mouseout"/>
                  </use>
                  <path fill="none" stroke="white" stroke-width="1.5" d="M0,-3.0v7 M-2.5,-0.5L0,-3.0L2.5,-0.5"/>
                </g>
                <g id="arrowLeft" xlink:href="#dirArrow" transform="rotate(270) translate(-36 17)" onmousedown="handlePan(-1,0)">
                  <use xlink:href="#rim" fill="#404040">
                        <set attributeName="fill" to="#808080" begin="arrowLeft.mouseover" end="arrowLeft.mouseout"/>
                  </use>
                  <path fill="none" stroke="white" stroke-width="1.5" d="M0,-3.0v7 M-2.5,-0.5L0,-3.0L2.5,-0.5"/>
                </g>
        </g>
        <svg viewBox="0 0 15 15" width="100%" height="30px" preserveAspectRatio="xMaxYMin meet">
         <g id="arrow_out" transform="scale(0.3 0.3)">
          <a xlink:href="classUIManager_af2ffb4ee45e57152164643ef6cddda37_cgraph_org.svg" target="_base">
           <rect id="button" ry="5" rx="5" y="6" x="6" height="38" width="38"
                fill="#f2f5e9" fill-opacity="0.5" stroke="#606060" stroke-width="1.0"/>
           <path id="arrow"
             d="M 11.500037,31.436501 C 11.940474,20.09759 22.043105,11.32322 32.158766,21.979434 L 37.068811,17.246167 C 37.068811,17.246167 37.088388,32 37.088388,32 L 22.160133,31.978069 C 22.160133,31.978069 26.997745,27.140456 26.997745,27.140456 C 18.528582,18.264221 13.291696,25.230495 11.500037,31.436501 z"
             style="fill:#404040;"/>
          </a>
         </g>
        </svg>
</svg>
