<?xml version="1.0" encoding="UTF-8" standalone="no"?>
<!DOCTYPE svg PUBLIC "-//W3C//DTD SVG 1.1//EN"
 "http://www.w3.org/Graphics/SVG/1.1/DTD/svg11.dtd">
<!-- Generated by graphviz version 2.40.1 (20161225.0304)
 -->
<!-- Title: Game Pages: 1 -->
<svg width="689pt" height="883pt"
 viewBox="0.00 0.00 688.50 883.00" xmlns="http://www.w3.org/2000/svg" xmlns:xlink="http://www.w3.org/1999/xlink">
<g id="graph0" class="graph" transform="scale(1 1) rotate(0) translate(4 879)">
<title>Game</title>
<!-- Node1 -->
<g id="node1" class="node">
<title>Node1</title>
<polygon fill="#bfbfbf" stroke="#000000" points="294.5,-.5 294.5,-156.5 400.5,-156.5 400.5,-.5 294.5,-.5"/>
<text text-anchor="middle" x="347.5" y="-144.5" font-family="Helvetica,sans-Serif" font-size="10.00" fill="#000000">Game</text>
<polyline fill="none" stroke="#000000" points="294.5,-137.5 400.5,-137.5 "/>
<text text-anchor="start" x="302.5" y="-125.5" font-family="Helvetica,sans-Serif" font-size="10.00" fill="#000000">&#45; m_GameContext</text>
<text text-anchor="start" x="302.5" y="-114.5" font-family="Helvetica,sans-Serif" font-size="10.00" fill="#000000">&#45; m_UILoop</text>
<text text-anchor="start" x="302.5" y="-103.5" font-family="Helvetica,sans-Serif" font-size="10.00" fill="#000000">&#45; m_EventLoop</text>
<polyline fill="none" stroke="#000000" points="294.5,-96.5 400.5,-96.5 "/>
<text text-anchor="start" x="302.5" y="-84.5" font-family="Helvetica,sans-Serif" font-size="10.00" fill="#000000">+ Game()</text>
<text text-anchor="start" x="302.5" y="-73.5" font-family="Helvetica,sans-Serif" font-size="10.00" fill="#000000">+ ~Game()</text>
<text text-anchor="start" x="302.5" y="-62.5" font-family="Helvetica,sans-Serif" font-size="10.00" fill="#000000">+ initialize()</text>
<text text-anchor="start" x="302.5" y="-51.5" font-family="Helvetica,sans-Serif" font-size="10.00" fill="#000000">+ run()</text>
<text text-anchor="start" x="302.5" y="-40.5" font-family="Helvetica,sans-Serif" font-size="10.00" fill="#000000">+ shutdown()</text>
<text text-anchor="start" x="302.5" y="-29.5" font-family="Helvetica,sans-Serif" font-size="10.00" fill="#000000">+ mainMenu()</text>
<text text-anchor="start" x="302.5" y="-18.5" font-family="Helvetica,sans-Serif" font-size="10.00" fill="#000000">&#45; quit()</text>
<text text-anchor="start" x="302.5" y="-7.5" font-family="Helvetica,sans-Serif" font-size="10.00" fill="#000000">&#45; LoopMain()</text>
</g>
<!-- Node2 -->
<g id="node2" class="node">
<title>Node2</title>
<g id="a_node2"><a xlink:href="classUILoopMQ.html" target="_top" xlink:title="UI Actor&#39;s message queue. ">
<polygon fill="none" stroke="#000000" points="71.5,-243 71.5,-300 137.5,-300 137.5,-243 71.5,-243"/>
<text text-anchor="middle" x="104.5" y="-288" font-family="Helvetica,sans-Serif" font-size="10.00" fill="#000000">UILoopMQ</text>
<polyline fill="none" stroke="#000000" points="71.5,-281 137.5,-281 "/>
<text text-anchor="middle" x="104.5" y="-269" font-family="Helvetica,sans-Serif" font-size="10.00" fill="#000000"> </text>
<polyline fill="none" stroke="#000000" points="71.5,-262 137.5,-262 "/>
<text text-anchor="middle" x="104.5" y="-250" font-family="Helvetica,sans-Serif" font-size="10.00" fill="#000000"> </text>
</a>
</g>
</g>
<!-- Node2&#45;&gt;Node1 -->
<g id="edge1" class="edge">
<title>Node2&#45;&gt;Node1</title>
<path fill="none" stroke="#404040" d="M119.0582,-242.6078C130.5912,-221.8674 148.2681,-194.2859 169.5,-175 202.6054,-144.9289 246.771,-120.9124 282.8259,-104.3598"/>
<polygon fill="none" stroke="#404040" points="283.2731,-104.1594 287.1114,-98.0546 294.2228,-99.2497 290.3845,-105.3544 283.2731,-104.1594"/>
<text text-anchor="middle" x="205.5" y="-178" font-family="Helvetica,sans-Serif" font-size="10.00" fill="#000000"> &#45;m_UILoopMQ</text>
</g>
<!-- Node3 -->
<g id="node3" class="node">
<title>Node3</title>
<g id="a_node3"><a xlink:href="classMessageQueue.html" target="_top" xlink:title="{MessageQueue\&lt; VariantType\l\&lt; UIEvents \&gt; \&gt;\n|&#45; m_OnEvent\l&#45; m_Semaphore\l&#45; m_Queue\l|+ push()\l+ peek()\l+ getEnumerable()\l+ MessageQueue()\l+ MessageQueue()\l+ MessageQueue()\l+ operator=()\l+ operator=()\l&#45; wakeCondition()\l}">
<polygon fill="none" stroke="#000000" points="0,-376.5 0,-554.5 159,-554.5 159,-376.5 0,-376.5"/>
<text text-anchor="start" x="8" y="-542.5" font-family="Helvetica,sans-Serif" font-size="10.00" fill="#000000">MessageQueue&lt; VariantType</text>
<text text-anchor="middle" x="79.5" y="-531.5" font-family="Helvetica,sans-Serif" font-size="10.00" fill="#000000">&lt; UIEvents &gt; &gt;</text>
<polyline fill="none" stroke="#000000" points="0,-524.5 159,-524.5 "/>
<text text-anchor="start" x="8" y="-512.5" font-family="Helvetica,sans-Serif" font-size="10.00" fill="#000000">&#45; m_OnEvent</text>
<text text-anchor="start" x="8" y="-501.5" font-family="Helvetica,sans-Serif" font-size="10.00" fill="#000000">&#45; m_Semaphore</text>
<text text-anchor="start" x="8" y="-490.5" font-family="Helvetica,sans-Serif" font-size="10.00" fill="#000000">&#45; m_Queue</text>
<polyline fill="none" stroke="#000000" points="0,-483.5 159,-483.5 "/>
<text text-anchor="start" x="8" y="-471.5" font-family="Helvetica,sans-Serif" font-size="10.00" fill="#000000">+ push()</text>
<text text-anchor="start" x="8" y="-460.5" font-family="Helvetica,sans-Serif" font-size="10.00" fill="#000000">+ peek()</text>
<text text-anchor="start" x="8" y="-449.5" font-family="Helvetica,sans-Serif" font-size="10.00" fill="#000000">+ getEnumerable()</text>
<text text-anchor="start" x="8" y="-438.5" font-family="Helvetica,sans-Serif" font-size="10.00" fill="#000000">+ MessageQueue()</text>
<text text-anchor="start" x="8" y="-427.5" font-family="Helvetica,sans-Serif" font-size="10.00" fill="#000000">+ MessageQueue()</text>
<text text-anchor="start" x="8" y="-416.5" font-family="Helvetica,sans-Serif" font-size="10.00" fill="#000000">+ MessageQueue()</text>
<text text-anchor="start" x="8" y="-405.5" font-family="Helvetica,sans-Serif" font-size="10.00" fill="#000000">+ operator=()</text>
<text text-anchor="start" x="8" y="-394.5" font-family="Helvetica,sans-Serif" font-size="10.00" fill="#000000">+ operator=()</text>
<text text-anchor="start" x="8" y="-383.5" font-family="Helvetica,sans-Serif" font-size="10.00" fill="#000000">&#45; wakeCondition()</text>
</a>
</g>
</g>
<!-- Node3&#45;&gt;Node2 -->
<g id="edge2" class="edge">
<title>Node3&#45;&gt;Node2</title>
<path fill="none" stroke="#191970" d="M92.2655,-366.4399C95.3879,-342.2096 98.4883,-318.1507 100.7868,-300.3147"/>
<polygon fill="none" stroke="#191970" points="88.7825,-366.0837 90.9756,-376.4491 95.7251,-366.9785 88.7825,-366.0837"/>
</g>
<!-- Node4 -->
<g id="node4" class="node">
<title>Node4</title>
<g id="a_node4"><a xlink:href="classMessageQueue.html" target="_top" xlink:title="{MessageQueue\&lt; Event \&gt;\n|&#45; m_OnEvent\l&#45; m_Semaphore\l&#45; m_Queue\l|+ push()\l+ peek()\l+ getEnumerable()\l+ MessageQueue()\l+ operator=()\l+ MessageQueue()\l+ MessageQueue()\l+ operator=()\l&#45; wakeCondition()\l}">
<polygon fill="none" stroke="#000000" points="98,-602.5 98,-769.5 239,-769.5 239,-602.5 98,-602.5"/>
<text text-anchor="middle" x="168.5" y="-757.5" font-family="Helvetica,sans-Serif" font-size="10.00" fill="#000000">MessageQueue&lt; Event &gt;</text>
<polyline fill="none" stroke="#000000" points="98,-750.5 239,-750.5 "/>
<text text-anchor="start" x="106" y="-738.5" font-family="Helvetica,sans-Serif" font-size="10.00" fill="#000000">&#45; m_OnEvent</text>
<text text-anchor="start" x="106" y="-727.5" font-family="Helvetica,sans-Serif" font-size="10.00" fill="#000000">&#45; m_Semaphore</text>
<text text-anchor="start" x="106" y="-716.5" font-family="Helvetica,sans-Serif" font-size="10.00" fill="#000000">&#45; m_Queue</text>
<polyline fill="none" stroke="#000000" points="98,-709.5 239,-709.5 "/>
<text text-anchor="start" x="106" y="-697.5" font-family="Helvetica,sans-Serif" font-size="10.00" fill="#000000">+ push()</text>
<text text-anchor="start" x="106" y="-686.5" font-family="Helvetica,sans-Serif" font-size="10.00" fill="#000000">+ peek()</text>
<text text-anchor="start" x="106" y="-675.5" font-family="Helvetica,sans-Serif" font-size="10.00" fill="#000000">+ getEnumerable()</text>
<text text-anchor="start" x="106" y="-664.5" font-family="Helvetica,sans-Serif" font-size="10.00" fill="#000000">+ MessageQueue()</text>
<text text-anchor="start" x="106" y="-653.5" font-family="Helvetica,sans-Serif" font-size="10.00" fill="#000000">+ operator=()</text>
<text text-anchor="start" x="106" y="-642.5" font-family="Helvetica,sans-Serif" font-size="10.00" fill="#000000">+ MessageQueue()</text>
<text text-anchor="start" x="106" y="-631.5" font-family="Helvetica,sans-Serif" font-size="10.00" fill="#000000">+ MessageQueue()</text>
<text text-anchor="start" x="106" y="-620.5" font-family="Helvetica,sans-Serif" font-size="10.00" fill="#000000">+ operator=()</text>
<text text-anchor="start" x="106" y="-609.5" font-family="Helvetica,sans-Serif" font-size="10.00" fill="#000000">&#45; wakeCondition()</text>
</a>
</g>
</g>
<!-- Node4&#45;&gt;Node3 -->
<g id="edge3" class="edge">
<title>Node4&#45;&gt;Node3</title>
<path fill="none" stroke="#ffa500" d="M92.1145,-609.0571C87.0847,-601.0404 82.7417,-592.6459 79.5,-584 76.0331,-574.7536 73.8663,-564.8085 72.634,-554.752"/>
<polygon fill="#ffa500" stroke="#ffa500" points="89.3573,-611.2306 97.8224,-617.6019 95.1781,-607.3423 89.3573,-611.2306"/>
<text text-anchor="middle" x="154" y="-576" font-family="Helvetica,sans-Serif" font-size="10.00" fill="#000000"> &lt; VariantType&lt; UIEvents &gt; &gt;</text>
</g>
<!-- Node11 -->
<g id="node11" class="node">
<title>Node11</title>
<g id="a_node11"><a xlink:href="classMessageQueue.html" target="_top" xlink:title="{MessageQueue\&lt; VariantType\l\&lt; GameEvents \&gt; \&gt;\n|&#45; m_OnEvent\l&#45; m_Semaphore\l&#45; m_Queue\l|+ push()\l+ peek()\l+ getEnumerable()\l+ MessageQueue()\l+ MessageQueue()\l+ MessageQueue()\l+ operator=()\l+ operator=()\l&#45; wakeCondition()\l}">
<polygon fill="none" stroke="#000000" points="177,-376.5 177,-554.5 336,-554.5 336,-376.5 177,-376.5"/>
<text text-anchor="start" x="185" y="-542.5" font-family="Helvetica,sans-Serif" font-size="10.00" fill="#000000">MessageQueue&lt; VariantType</text>
<text text-anchor="middle" x="256.5" y="-531.5" font-family="Helvetica,sans-Serif" font-size="10.00" fill="#000000">&lt; GameEvents &gt; &gt;</text>
<polyline fill="none" stroke="#000000" points="177,-524.5 336,-524.5 "/>
<text text-anchor="start" x="185" y="-512.5" font-family="Helvetica,sans-Serif" font-size="10.00" fill="#000000">&#45; m_OnEvent</text>
<text text-anchor="start" x="185" y="-501.5" font-family="Helvetica,sans-Serif" font-size="10.00" fill="#000000">&#45; m_Semaphore</text>
<text text-anchor="start" x="185" y="-490.5" font-family="Helvetica,sans-Serif" font-size="10.00" fill="#000000">&#45; m_Queue</text>
<polyline fill="none" stroke="#000000" points="177,-483.5 336,-483.5 "/>
<text text-anchor="start" x="185" y="-471.5" font-family="Helvetica,sans-Serif" font-size="10.00" fill="#000000">+ push()</text>
<text text-anchor="start" x="185" y="-460.5" font-family="Helvetica,sans-Serif" font-size="10.00" fill="#000000">+ peek()</text>
<text text-anchor="start" x="185" y="-449.5" font-family="Helvetica,sans-Serif" font-size="10.00" fill="#000000">+ getEnumerable()</text>
<text text-anchor="start" x="185" y="-438.5" font-family="Helvetica,sans-Serif" font-size="10.00" fill="#000000">+ MessageQueue()</text>
<text text-anchor="start" x="185" y="-427.5" font-family="Helvetica,sans-Serif" font-size="10.00" fill="#000000">+ MessageQueue()</text>
<text text-anchor="start" x="185" y="-416.5" font-family="Helvetica,sans-Serif" font-size="10.00" fill="#000000">+ MessageQueue()</text>
<text text-anchor="start" x="185" y="-405.5" font-family="Helvetica,sans-Serif" font-size="10.00" fill="#000000">+ operator=()</text>
<text text-anchor="start" x="185" y="-394.5" font-family="Helvetica,sans-Serif" font-size="10.00" fill="#000000">+ operator=()</text>
<text text-anchor="start" x="185" y="-383.5" font-family="Helvetica,sans-Serif" font-size="10.00" fill="#000000">&#45; wakeCondition()</text>
</a>
</g>
</g>
<!-- Node4&#45;&gt;Node11 -->
<g id="edge12" class="edge">
<title>Node4&#45;&gt;Node11</title>
<path fill="none" stroke="#ffa500" d="M228.5754,-593.1897C229.9649,-590.1251 231.2784,-587.0576 232.5,-584 236.2381,-574.6436 239.4181,-564.6298 242.118,-554.5341"/>
<polygon fill="#ffa500" stroke="#ffa500" points="225.3463,-591.8296 224.1947,-602.3617 231.6628,-594.8465 225.3463,-591.8296"/>
<text text-anchor="middle" x="320.5" y="-576" font-family="Helvetica,sans-Serif" font-size="10.00" fill="#000000"> &lt; VariantType&lt; GameEvents &gt; &gt;</text>
</g>
<!-- Node5 -->
<g id="node5" class="node">
<title>Node5</title>
<g id="a_node5"><a xlink:href="classRandomizer.html" target="_top" xlink:title="{Randomizer\n|&#45; generator\l|+ Randomizer()\l+ choose()\l}">
<polygon fill="none" stroke="#000000" points="294.5,-237.5 294.5,-305.5 388.5,-305.5 388.5,-237.5 294.5,-237.5"/>
<text text-anchor="middle" x="341.5" y="-293.5" font-family="Helvetica,sans-Serif" font-size="10.00" fill="#000000">Randomizer</text>
<polyline fill="none" stroke="#000000" points="294.5,-286.5 388.5,-286.5 "/>
<text text-anchor="start" x="302.5" y="-274.5" font-family="Helvetica,sans-Serif" font-size="10.00" fill="#000000">&#45; generator</text>
<polyline fill="none" stroke="#000000" points="294.5,-267.5 388.5,-267.5 "/>
<text text-anchor="start" x="302.5" y="-255.5" font-family="Helvetica,sans-Serif" font-size="10.00" fill="#000000">+ Randomizer()</text>
<text text-anchor="start" x="302.5" y="-244.5" font-family="Helvetica,sans-Serif" font-size="10.00" fill="#000000">+ choose()</text>
</a>
</g>
</g>
<!-- Node5&#45;&gt;Node1 -->
<g id="edge4" class="edge">
<title>Node5&#45;&gt;Node1</title>
<path fill="none" stroke="#404040" d="M342.5589,-237.4397C343.1546,-218.2767 343.9293,-193.3566 344.688,-168.9541"/>
<polygon fill="none" stroke="#404040" points="344.6972,-168.6545 340.8856,-162.5331 345.0701,-156.6603 348.8817,-162.7818 344.6972,-168.6545"/>
<text text-anchor="middle" x="385" y="-178" font-family="Helvetica,sans-Serif" font-size="10.00" fill="#000000"> &#45;m_Randomizer</text>
</g>
<!-- Node6 -->
<g id="node6" class="node">
<title>Node6</title>
<g id="a_node6"><a xlink:href="classGameService.html" target="_top" xlink:title="{GameService\n||+ GameService()\l# GetService()\l}">
<polygon fill="none" stroke="#000000" points="417,-431.5 417,-499.5 518,-499.5 518,-431.5 417,-431.5"/>
<text text-anchor="middle" x="467.5" y="-487.5" font-family="Helvetica,sans-Serif" font-size="10.00" fill="#000000">GameService</text>
<polyline fill="none" stroke="#000000" points="417,-480.5 518,-480.5 "/>
<text text-anchor="middle" x="467.5" y="-468.5" font-family="Helvetica,sans-Serif" font-size="10.00" fill="#000000"> </text>
<polyline fill="none" stroke="#000000" points="417,-461.5 518,-461.5 "/>
<text text-anchor="start" x="425" y="-449.5" font-family="Helvetica,sans-Serif" font-size="10.00" fill="#000000">+ GameService()</text>
<text text-anchor="start" x="425" y="-438.5" font-family="Helvetica,sans-Serif" font-size="10.00" fill="#000000"># GetService()</text>
</a>
</g>
</g>
<!-- Node6&#45;&gt;Node5 -->
<g id="edge5" class="edge">
<title>Node6&#45;&gt;Node5</title>
<path fill="none" stroke="#191970" d="M439.6626,-422.6392C416.8145,-387.4605 384.8888,-338.3051 363.7255,-305.7202"/>
<polygon fill="none" stroke="#191970" points="436.8816,-424.7832 445.2638,-431.2633 442.7521,-420.9704 436.8816,-424.7832"/>
</g>
<!-- Node9 -->
<g id="node9" class="node">
<title>Node9</title>
<g id="a_node9"><a xlink:href="classResourceManager.html" target="_top" xlink:title="{ResourceManager\n|&#45; m_Age\l&#45; m_CacheSize\l|+ ResourceManager()\l+ get()\l+ prune()\l}">
<polygon fill="none" stroke="#000000" points="406.5,-226.5 406.5,-316.5 528.5,-316.5 528.5,-226.5 406.5,-226.5"/>
<text text-anchor="middle" x="467.5" y="-304.5" font-family="Helvetica,sans-Serif" font-size="10.00" fill="#000000">ResourceManager</text>
<polyline fill="none" stroke="#000000" points="406.5,-297.5 528.5,-297.5 "/>
<text text-anchor="start" x="414.5" y="-285.5" font-family="Helvetica,sans-Serif" font-size="10.00" fill="#000000">&#45; m_Age</text>
<text text-anchor="start" x="414.5" y="-274.5" font-family="Helvetica,sans-Serif" font-size="10.00" fill="#000000">&#45; m_CacheSize</text>
<polyline fill="none" stroke="#000000" points="406.5,-267.5 528.5,-267.5 "/>
<text text-anchor="start" x="414.5" y="-255.5" font-family="Helvetica,sans-Serif" font-size="10.00" fill="#000000">+ ResourceManager()</text>
<text text-anchor="start" x="414.5" y="-244.5" font-family="Helvetica,sans-Serif" font-size="10.00" fill="#000000">+ get()</text>
<text text-anchor="start" x="414.5" y="-233.5" font-family="Helvetica,sans-Serif" font-size="10.00" fill="#000000">+ prune()</text>
</a>
</g>
</g>
<!-- Node6&#45;&gt;Node9 -->
<g id="edge9" class="edge">
<title>Node6&#45;&gt;Node9</title>
<path fill="none" stroke="#191970" d="M467.5,-421.0921C467.5,-389.8311 467.5,-348.1243 467.5,-316.6908"/>
<polygon fill="none" stroke="#191970" points="464.0001,-421.2632 467.5,-431.2633 471.0001,-421.2633 464.0001,-421.2632"/>
</g>
<!-- Node12 -->
<g id="node12" class="node">
<title>Node12</title>
<g id="a_node12"><a xlink:href="classGameClock.html" target="_top" xlink:title="{GameClock\n|&#45; m_Deffered\l&#45; m_Repeated\l&#45; m_lock\l&#45; m_thread\l|+ GameClock()\l+ ~GameClock()\l+ createDefferedTask()\l+ createRepeatedTask()\l&#45; clockLoop()\l}">
<polygon fill="none" stroke="#000000" points="546.5,-204.5 546.5,-338.5 680.5,-338.5 680.5,-204.5 546.5,-204.5"/>
<text text-anchor="middle" x="613.5" y="-326.5" font-family="Helvetica,sans-Serif" font-size="10.00" fill="#000000">GameClock</text>
<polyline fill="none" stroke="#000000" points="546.5,-319.5 680.5,-319.5 "/>
<text text-anchor="start" x="554.5" y="-307.5" font-family="Helvetica,sans-Serif" font-size="10.00" fill="#000000">&#45; m_Deffered</text>
<text text-anchor="start" x="554.5" y="-296.5" font-family="Helvetica,sans-Serif" font-size="10.00" fill="#000000">&#45; m_Repeated</text>
<text text-anchor="start" x="554.5" y="-285.5" font-family="Helvetica,sans-Serif" font-size="10.00" fill="#000000">&#45; m_lock</text>
<text text-anchor="start" x="554.5" y="-274.5" font-family="Helvetica,sans-Serif" font-size="10.00" fill="#000000">&#45; m_thread</text>
<polyline fill="none" stroke="#000000" points="546.5,-267.5 680.5,-267.5 "/>
<text text-anchor="start" x="554.5" y="-255.5" font-family="Helvetica,sans-Serif" font-size="10.00" fill="#000000">+ GameClock()</text>
<text text-anchor="start" x="554.5" y="-244.5" font-family="Helvetica,sans-Serif" font-size="10.00" fill="#000000">+ ~GameClock()</text>
<text text-anchor="start" x="554.5" y="-233.5" font-family="Helvetica,sans-Serif" font-size="10.00" fill="#000000">+ createDefferedTask()</text>
<text text-anchor="start" x="554.5" y="-222.5" font-family="Helvetica,sans-Serif" font-size="10.00" fill="#000000">+ createRepeatedTask()</text>
<text text-anchor="start" x="554.5" y="-211.5" font-family="Helvetica,sans-Serif" font-size="10.00" fill="#000000">&#45; clockLoop()</text>
</a>
</g>
</g>
<!-- Node6&#45;&gt;Node12 -->
<g id="edge14" class="edge">
<title>Node6&#45;&gt;Node12</title>
<path fill="none" stroke="#191970" d="M499.353,-423.1748C517.9338,-398.4852 541.796,-366.7779 562.8948,-338.7425"/>
<polygon fill="none" stroke="#191970" points="496.4825,-421.1685 493.2658,-431.2633 502.0755,-425.3778 496.4825,-421.1685"/>
</g>
<!-- Node7 -->
<g id="node7" class="node">
<title>Node7</title>
<g id="a_node7"><a xlink:href="structTupleType.html" target="_top" xlink:title="{TupleType\&lt; TypeList \&gt;\n||}">
<polygon fill="none" stroke="#000000" points="404,-657.5 404,-714.5 531,-714.5 531,-657.5 404,-657.5"/>
<text text-anchor="middle" x="467.5" y="-702.5" font-family="Helvetica,sans-Serif" font-size="10.00" fill="#000000">TupleType&lt; TypeList &gt;</text>
<polyline fill="none" stroke="#000000" points="404,-695.5 531,-695.5 "/>
<text text-anchor="middle" x="467.5" y="-683.5" font-family="Helvetica,sans-Serif" font-size="10.00" fill="#000000"> </text>
<polyline fill="none" stroke="#000000" points="404,-676.5 531,-676.5 "/>
<text text-anchor="middle" x="467.5" y="-664.5" font-family="Helvetica,sans-Serif" font-size="10.00" fill="#000000"> </text>
</a>
</g>
</g>
<!-- Node7&#45;&gt;Node6 -->
<g id="edge6" class="edge">
<title>Node7&#45;&gt;Node6</title>
<path fill="none" stroke="#404040" d="M467.5,-657.1735C467.5,-620.2261 467.5,-555.7136 467.5,-511.8345"/>
<polygon fill="none" stroke="#404040" points="467.5001,-511.7678 463.5,-505.7679 467.5,-499.7678 471.5,-505.7678 467.5001,-511.7678"/>
<text text-anchor="middle" x="499.5" y="-576" font-family="Helvetica,sans-Serif" font-size="10.00" fill="#000000"> &#45;m_Services</text>
</g>
<!-- Node8 -->
<g id="node8" class="node">
<title>Node8</title>
<g id="a_node8"><a xlink:href="structTupleType.html" target="_top" xlink:title="TupleType::type returns std::tuple&lt;All fields inside the TypeList&gt; ">
<polygon fill="none" stroke="#000000" points="415.5,-817.5 415.5,-874.5 519.5,-874.5 519.5,-817.5 415.5,-817.5"/>
<text text-anchor="middle" x="467.5" y="-862.5" font-family="Helvetica,sans-Serif" font-size="10.00" fill="#000000">TupleType&lt; List &gt;</text>
<polyline fill="none" stroke="#000000" points="415.5,-855.5 519.5,-855.5 "/>
<text text-anchor="middle" x="467.5" y="-843.5" font-family="Helvetica,sans-Serif" font-size="10.00" fill="#000000"> </text>
<polyline fill="none" stroke="#000000" points="415.5,-836.5 519.5,-836.5 "/>
<text text-anchor="middle" x="467.5" y="-824.5" font-family="Helvetica,sans-Serif" font-size="10.00" fill="#000000"> </text>
</a>
</g>
</g>
<!-- Node8&#45;&gt;Node7 -->
<g id="edge7" class="edge">
<title>Node8&#45;&gt;Node7</title>
<path fill="none" stroke="#ffa500" d="M467.5,-807.3476C467.5,-778.7723 467.5,-740.491 467.5,-714.6264"/>
<polygon fill="#ffa500" stroke="#ffa500" points="464.0001,-807.3952 467.5,-817.3952 471.0001,-807.3952 464.0001,-807.3952"/>
<text text-anchor="middle" x="500.5" y="-791" font-family="Helvetica,sans-Serif" font-size="10.00" fill="#000000"> &lt; TypeList &gt;</text>
</g>
<!-- Node9&#45;&gt;Node1 -->
<g id="edge8" class="edge">
<title>Node9&#45;&gt;Node1</title>
<path fill="none" stroke="#404040" d="M453.2175,-226.3421C447.0439,-209.6381 439.0309,-190.9094 429.5,-175 423.3141,-164.6743 416.0235,-154.3514 408.3837,-144.5024"/>
<polygon fill="none" stroke="#404040" points="408.1456,-144.2043 401.2754,-142.0133 400.6554,-134.8289 407.5257,-137.0199 408.1456,-144.2043"/>
<text text-anchor="middle" x="490" y="-178" font-family="Helvetica,sans-Serif" font-size="10.00" fill="#000000"> &#45;m_ResourceManager</text>
</g>
<!-- Node10 -->
<g id="node10" class="node">
<title>Node10</title>
<g id="a_node10"><a xlink:href="classGameLoopMQ.html" target="_top" xlink:title="Game loop Actor&#39;s message queue. ">
<polygon fill="none" stroke="#000000" points="191,-243 191,-300 276,-300 276,-243 191,-243"/>
<text text-anchor="middle" x="233.5" y="-288" font-family="Helvetica,sans-Serif" font-size="10.00" fill="#000000">GameLoopMQ</text>
<polyline fill="none" stroke="#000000" points="191,-281 276,-281 "/>
<text text-anchor="middle" x="233.5" y="-269" font-family="Helvetica,sans-Serif" font-size="10.00" fill="#000000"> </text>
<polyline fill="none" stroke="#000000" points="191,-262 276,-262 "/>
<text text-anchor="middle" x="233.5" y="-250" font-family="Helvetica,sans-Serif" font-size="10.00" fill="#000000"> </text>
</a>
</g>
</g>
<!-- Node10&#45;&gt;Node1 -->
<g id="edge10" class="edge">
<title>Node10&#45;&gt;Node1</title>
<path fill="none" stroke="#404040" d="M233.6577,-242.5835C234.844,-222.6009 238.6266,-195.9518 249.5,-175 258.5174,-157.6244 271.8101,-141.4808 285.715,-127.5622"/>
<polygon fill="none" stroke="#404040" points="285.7693,-127.5099 287.3216,-120.4678 294.419,-119.1923 292.8667,-126.2343 285.7693,-127.5099"/>
<text text-anchor="middle" x="295" y="-178" font-family="Helvetica,sans-Serif" font-size="10.00" fill="#000000"> &#45;m_GameLoopMQ</text>
</g>
<!-- Node11&#45;&gt;Node10 -->
<g id="edge11" class="edge">
<title>Node11&#45;&gt;Node10</title>
<path fill="none" stroke="#191970" d="M244.7558,-366.4399C241.8831,-342.2096 239.0307,-318.1507 236.9162,-300.3147"/>
<polygon fill="none" stroke="#191970" points="241.2894,-366.9307 245.9424,-376.4491 248.2407,-366.1066 241.2894,-366.9307"/>
</g>
<!-- Node12&#45;&gt;Node1 -->
<g id="edge13" class="edge">
<title>Node12&#45;&gt;Node1</title>
<path fill="none" stroke="#404040" d="M575.1603,-204.3447C567.2327,-193.7127 558.2802,-183.4543 548.5,-175 508.5308,-140.4493 454.0467,-115.31 411.8862,-99.3677"/>
<polygon fill="none" stroke="#404040" points="411.8804,-99.3656 404.8671,-101.0431 400.6213,-95.2145 407.6346,-93.537 411.8804,-99.3656"/>
<text text-anchor="middle" x="599" y="-178" font-family="Helvetica,sans-Serif" font-size="10.00" fill="#000000"> &#45;m_GameClock</text>
</g>
</g>
</svg>
