<?xml version="1.0" encoding="UTF-8" standalone="no"?>
<!DOCTYPE svg PUBLIC "-//W3C//DTD SVG 1.1//EN"
 "http://www.w3.org/Graphics/SVG/1.1/DTD/svg11.dtd">
<!-- Generated by graphviz version 2.40.1 (20161225.0304)
 -->
<!-- Title: TileManager::addJSONObjectToTileData Pages: 1 -->
<svg width="753pt" height="129pt"
 viewBox="0.00 0.00 753.00 128.50" xmlns="http://www.w3.org/2000/svg" xmlns:xlink="http://www.w3.org/1999/xlink">
<g id="graph0" class="graph" transform="scale(1 1) rotate(0) translate(4 124.5)">
<title>TileManager::addJSONObjectToTileData</title>
<!-- Node18 -->
<g id="node1" class="node">
<title>Node18</title>
<polygon fill="#bfbfbf" stroke="#000000" points="0,-82 0,-112 156,-112 156,-82 0,-82"/>
<text text-anchor="start" x="8" y="-100" font-family="Helvetica,sans-Serif" font-size="10.00" fill="#000000">TileManager::addJSONObject</text>
<text text-anchor="middle" x="78" y="-89" font-family="Helvetica,sans-Serif" font-size="10.00" fill="#000000">ToTileData</text>
</g>
<!-- Node19 -->
<g id="node2" class="node">
<title>Node19</title>
<g id="a_node2"><a xlink:href="classSingleton.html#af5cb1e5749949e2b68416cfb8d378044" target="_top" xlink:title="Get an instance of the singleton. ">
<polygon fill="none" stroke="#000000" points="580,-90 580,-120 745,-120 745,-90 580,-90"/>
<text text-anchor="start" x="588" y="-108" font-family="Helvetica,sans-Serif" font-size="10.00" fill="#000000">Singleton&lt; ResourcesManager</text>
<text text-anchor="middle" x="662.5" y="-97" font-family="Helvetica,sans-Serif" font-size="10.00" fill="#000000"> &gt;::instance</text>
</a>
</g>
</g>
<!-- Node18&#45;&gt;Node19 -->
<g id="edge1" class="edge">
<title>Node18&#45;&gt;Node19</title>
<path fill="none" stroke="#191970" d="M156.2218,-98.0706C263.2675,-99.5357 455.1167,-102.1616 569.4226,-103.7261"/>
<polygon fill="#191970" stroke="#191970" points="569.5089,-107.2275 579.5558,-103.8648 569.6047,-100.2281 569.5089,-107.2275"/>
</g>
<!-- Node20 -->
<g id="node3" class="node">
<title>Node20</title>
<g id="a_node3"><a xlink:href="classResourcesManager.html#ab376a89547592db4cca25309eac2931c" target="_top" xlink:title="ResourcesManager::loadTexture">
<polygon fill="none" stroke="#000000" points="192,-65.5 192,-84.5 363,-84.5 363,-65.5 192,-65.5"/>
<text text-anchor="middle" x="277.5" y="-72.5" font-family="Helvetica,sans-Serif" font-size="10.00" fill="#000000">ResourcesManager::loadTexture</text>
</a>
</g>
</g>
<!-- Node18&#45;&gt;Node20 -->
<g id="edge2" class="edge">
<title>Node18&#45;&gt;Node20</title>
<path fill="none" stroke="#191970" d="M156.2751,-88.3682C164.6703,-87.4424 173.2787,-86.4931 181.8466,-85.5482"/>
<polygon fill="#191970" stroke="#191970" points="182.3148,-89.0179 191.8709,-84.4428 181.5475,-82.0601 182.3148,-89.0179"/>
</g>
<!-- Node21 -->
<g id="node4" class="node">
<title>Node21</title>
<g id="a_node4"><a xlink:href="classResourcesManager.html#a54721d26f52c4887b735d2cdaf60b078" target="_top" xlink:title="ResourcesManager::create\lSurfaceFromFile">
<polygon fill="none" stroke="#000000" points="399,-11 399,-41 544,-41 544,-11 399,-11"/>
<text text-anchor="start" x="407" y="-29" font-family="Helvetica,sans-Serif" font-size="10.00" fill="#000000">ResourcesManager::create</text>
<text text-anchor="middle" x="471.5" y="-18" font-family="Helvetica,sans-Serif" font-size="10.00" fill="#000000">SurfaceFromFile</text>
</a>
</g>
</g>
<!-- Node20&#45;&gt;Node21 -->
<g id="edge3" class="edge">
<title>Node20&#45;&gt;Node21</title>
<path fill="none" stroke="#191970" d="M315.3657,-65.436C340.034,-59.2053 372.9534,-50.8906 402.204,-43.5026"/>
<polygon fill="#191970" stroke="#191970" points="403.1275,-46.8793 411.9659,-41.037 401.4132,-40.0925 403.1275,-46.8793"/>
</g>
<!-- Node24 -->
<g id="node7" class="node">
<title>Node24</title>
<g id="a_node7"><a xlink:href="classResourcesManager.html#ad7712ca96233a151d8bc22cd2ba17d01" target="_top" xlink:title="ResourcesManager::create\lTextureFromSurface">
<polygon fill="none" stroke="#000000" points="399,-60 399,-90 544,-90 544,-60 399,-60"/>
<text text-anchor="start" x="407" y="-78" font-family="Helvetica,sans-Serif" font-size="10.00" fill="#000000">ResourcesManager::create</text>
<text text-anchor="middle" x="471.5" y="-67" font-family="Helvetica,sans-Serif" font-size="10.00" fill="#000000">TextureFromSurface</text>
</a>
</g>
</g>
<!-- Node20&#45;&gt;Node24 -->
<g id="edge6" class="edge">
<title>Node20&#45;&gt;Node24</title>
<path fill="none" stroke="#191970" d="M363.1559,-75C371.599,-75 380.1583,-75 388.5732,-75"/>
<polygon fill="#191970" stroke="#191970" points="388.7485,-78.5001 398.7484,-75 388.7484,-71.5001 388.7485,-78.5001"/>
</g>
<!-- Node22 -->
<g id="node5" class="node">
<title>Node22</title>
<g id="a_node5"><a xlink:href="namespacefs.html#a28e4c1324680c188092ecfe5fd8a91a3" target="_top" xlink:title="fs::getBasePath">
<polygon fill="none" stroke="#000000" points="616.5,-38.5 616.5,-57.5 708.5,-57.5 708.5,-38.5 616.5,-38.5"/>
<text text-anchor="middle" x="662.5" y="-45.5" font-family="Helvetica,sans-Serif" font-size="10.00" fill="#000000">fs::getBasePath</text>
</a>
</g>
</g>
<!-- Node21&#45;&gt;Node22 -->
<g id="edge4" class="edge">
<title>Node21&#45;&gt;Node22</title>
<path fill="none" stroke="#191970" d="M544.2538,-34.38C564.8071,-36.7474 586.8529,-39.2867 606.2745,-41.5238"/>
<polygon fill="#191970" stroke="#191970" points="606.1329,-45.0305 616.4678,-42.6979 606.934,-38.0765 606.1329,-45.0305"/>
</g>
<!-- Node23 -->
<g id="node6" class="node">
<title>Node23</title>
<g id="a_node6"><a xlink:href="namespacefs.html#a000d1f9ae14d782b6193298e6d27023f" target="_top" xlink:title="fs::fileExists">
<polygon fill="none" stroke="#000000" points="624.5,-.5 624.5,-19.5 700.5,-19.5 700.5,-.5 624.5,-.5"/>
<text text-anchor="middle" x="662.5" y="-7.5" font-family="Helvetica,sans-Serif" font-size="10.00" fill="#000000">fs::fileExists</text>
</a>
</g>
</g>
<!-- Node21&#45;&gt;Node23 -->
<g id="edge5" class="edge">
<title>Node21&#45;&gt;Node23</title>
<path fill="none" stroke="#191970" d="M544.2538,-19.9054C567.7186,-17.9398 593.1287,-15.8112 614.3582,-14.0328"/>
<polygon fill="#191970" stroke="#191970" points="614.7445,-17.5128 624.4174,-13.1902 614.1601,-10.5372 614.7445,-17.5128"/>
</g>
<!-- Node24&#45;&gt;Node19 -->
<g id="edge7" class="edge">
<title>Node24&#45;&gt;Node19</title>
<path fill="none" stroke="#191970" d="M544.2538,-86.4273C552.5888,-87.7365 561.1692,-89.0842 569.7205,-90.4273"/>
<polygon fill="#191970" stroke="#191970" points="569.3072,-93.9052 579.7292,-91.9994 570.3935,-86.99 569.3072,-93.9052"/>
</g>
</g>
</svg>
