<?xml version="1.0" encoding="UTF-8" standalone="no"?>
<!DOCTYPE svg PUBLIC "-//W3C//DTD SVG 1.1//EN"
 "http://www.w3.org/Graphics/SVG/1.1/DTD/svg11.dtd">
<!-- Generated by graphviz version 2.40.1 (20161225.0304)
 -->
<!-- Title: WindowManager::WindowManager Pages: 1 -->
<svg width="572pt" height="180pt"
 viewBox="0.00 0.00 572.00 179.69" xmlns="http://www.w3.org/2000/svg" xmlns:xlink="http://www.w3.org/1999/xlink">
<g id="graph0" class="graph" transform="scale(1 1) rotate(0) translate(4 175.694)">
<title>WindowManager::WindowManager</title>
<!-- Node2 -->
<g id="node1" class="node">
<title>Node2</title>
<polygon fill="#bfbfbf" stroke="#000000" points="0,-88.5 0,-107.5 185,-107.5 185,-88.5 0,-88.5"/>
<text text-anchor="middle" x="92.5" y="-95.5" font-family="Helvetica,sans-Serif" font-size="10.00" fill="#000000">WindowManager::WindowManager</text>
</g>
<!-- Node3 -->
<g id="node2" class="node">
<title>Node3</title>
<g id="a_node2"><a xlink:href="classSingleton.html#af5cb1e5749949e2b68416cfb8d378044" target="_top" xlink:title="Get an instance of the singleton. ">
<polygon fill="none" stroke="#000000" points="451,-77 451,-107 564,-107 564,-77 451,-77"/>
<text text-anchor="start" x="459" y="-95" font-family="Helvetica,sans-Serif" font-size="10.00" fill="#000000">Singleton&lt; Settings</text>
<text text-anchor="middle" x="507.5" y="-84" font-family="Helvetica,sans-Serif" font-size="10.00" fill="#000000"> &gt;::instance</text>
</a>
</g>
</g>
<!-- Node2&#45;&gt;Node3 -->
<g id="edge1" class="edge">
<title>Node2&#45;&gt;Node3</title>
<path fill="none" stroke="#191970" d="M108.3885,-107.6811C131.9546,-121.4146 178.0241,-145.8961 221,-155 305.3504,-172.8685 332.6023,-180.3945 415,-155 441.0098,-146.9839 466.2506,-128.8777 483.7764,-114.1237"/>
<polygon fill="#191970" stroke="#191970" points="486.4795,-116.4115 491.7298,-107.209 481.8868,-111.1288 486.4795,-116.4115"/>
</g>
<!-- Node4 -->
<g id="node3" class="node">
<title>Node4</title>
<g id="a_node3"><a xlink:href="namespacefs.html#a28e4c1324680c188092ecfe5fd8a91a3" target="_top" xlink:title="fs::getBasePath">
<polygon fill="none" stroke="#000000" points="272,-126.5 272,-145.5 364,-145.5 364,-126.5 272,-126.5"/>
<text text-anchor="middle" x="318" y="-133.5" font-family="Helvetica,sans-Serif" font-size="10.00" fill="#000000">fs::getBasePath</text>
</a>
</g>
</g>
<!-- Node2&#45;&gt;Node4 -->
<g id="edge2" class="edge">
<title>Node2&#45;&gt;Node4</title>
<path fill="none" stroke="#191970" d="M149.1121,-107.54C183.6661,-113.3628 227.6644,-120.7772 262.0895,-126.5783"/>
<polygon fill="#191970" stroke="#191970" points="261.5433,-130.0355 271.9859,-128.246 262.7066,-123.1328 261.5433,-130.0355"/>
</g>
<!-- Node5 -->
<g id="node4" class="node">
<title>Node5</title>
<g id="a_node4"><a xlink:href="namespacefs.html#a000d1f9ae14d782b6193298e6d27023f" target="_top" xlink:title="fs::fileExists">
<polygon fill="none" stroke="#000000" points="280,-88.5 280,-107.5 356,-107.5 356,-88.5 280,-88.5"/>
<text text-anchor="middle" x="318" y="-95.5" font-family="Helvetica,sans-Serif" font-size="10.00" fill="#000000">fs::fileExists</text>
</a>
</g>
</g>
<!-- Node2&#45;&gt;Node5 -->
<g id="edge3" class="edge">
<title>Node2&#45;&gt;Node5</title>
<path fill="none" stroke="#191970" d="M185.1957,-98C214.2134,-98 245.0622,-98 269.7172,-98"/>
<polygon fill="#191970" stroke="#191970" points="269.8811,-101.5001 279.881,-98 269.881,-94.5001 269.8811,-101.5001"/>
</g>
<!-- Node6 -->
<g id="node5" class="node">
<title>Node6</title>
<g id="a_node5"><a xlink:href="classWindowManager.html#a5ad60806695b35cb347de8cab4ac93ab" target="_top" xlink:title="WindowManager::initialize\lScreenResolutions">
<polygon fill="none" stroke="#000000" points="245,-39 245,-69 391,-69 391,-39 245,-39"/>
<text text-anchor="start" x="253" y="-57" font-family="Helvetica,sans-Serif" font-size="10.00" fill="#000000">WindowManager::initialize</text>
<text text-anchor="middle" x="318" y="-46" font-family="Helvetica,sans-Serif" font-size="10.00" fill="#000000">ScreenResolutions</text>
</a>
</g>
</g>
<!-- Node2&#45;&gt;Node6 -->
<g id="edge4" class="edge">
<title>Node2&#45;&gt;Node6</title>
<path fill="none" stroke="#191970" d="M141.4301,-88.4527C168.6641,-83.1387 203.3052,-76.3795 234.6779,-70.258"/>
<polygon fill="#191970" stroke="#191970" points="235.5909,-73.6459 244.7355,-68.2955 234.2503,-66.7755 235.5909,-73.6459"/>
</g>
<!-- Node7 -->
<g id="node6" class="node">
<title>Node7</title>
<g id="a_node6"><a xlink:href="classWindowManager.html#a92e1efc564e88b5d92ef674c2577997f" target="_top" xlink:title="sets the game&#39;s window mode Changes the game&#39;s window mode to fullscreen, borderless, or windowed ">
<polygon fill="none" stroke="#000000" points="221,-.5 221,-19.5 415,-19.5 415,-.5 221,-.5"/>
<text text-anchor="middle" x="318" y="-7.5" font-family="Helvetica,sans-Serif" font-size="10.00" fill="#000000">WindowManager::setFullScreenMode</text>
</a>
</g>
</g>
<!-- Node2&#45;&gt;Node7 -->
<g id="edge5" class="edge">
<title>Node2&#45;&gt;Node7</title>
<path fill="none" stroke="#191970" d="M107.284,-88.3763C130.5464,-73.6577 177.5327,-45.6223 221,-30 229.6746,-26.8823 238.9699,-24.1933 248.2454,-21.8902"/>
<polygon fill="#191970" stroke="#191970" points="249.3347,-25.2298 258.2723,-19.5405 247.7375,-18.4145 249.3347,-25.2298"/>
</g>
<!-- Node7&#45;&gt;Node3 -->
<g id="edge6" class="edge">
<title>Node7&#45;&gt;Node3</title>
<path fill="none" stroke="#191970" d="M381.9444,-19.5095C393.1914,-22.2111 404.6132,-25.6462 415,-30 439.2095,-40.1477 463.7598,-56.9726 481.4788,-70.5368"/>
<polygon fill="#191970" stroke="#191970" points="479.5649,-73.4834 489.597,-76.8902 483.879,-67.9708 479.5649,-73.4834"/>
</g>
</g>
</svg>
