<?xml version="1.0" encoding="UTF-8" standalone="no"?>
<!DOCTYPE svg PUBLIC "-//W3C//DTD SVG 1.1//EN"
 "http://www.w3.org/Graphics/SVG/1.1/DTD/svg11.dtd">
<!-- Generated by graphviz version 2.40.1 (20161225.0304)
 -->
<!-- Title: Game::initialize Pages: 1 -->
<svg width="296pt" height="127pt"
 viewBox="0.00 0.00 296.00 126.50" xmlns="http://www.w3.org/2000/svg" xmlns:xlink="http://www.w3.org/1999/xlink">
<g id="graph0" class="graph" transform="scale(1 1) rotate(0) translate(4 122.5)">
<title>Game::initialize</title>
<!-- Node4 -->
<g id="node1" class="node">
<title>Node4</title>
<polygon fill="#bfbfbf" stroke="#000000" points="0,-68.5 0,-87.5 94,-87.5 94,-68.5 0,-68.5"/>
<text text-anchor="middle" x="47" y="-75.5" font-family="Helvetica,sans-Serif" font-size="10.00" fill="#000000">Game::initialize</text>
</g>
<!-- Node5 -->
<g id="node2" class="node">
<title>Node5</title>
<g id="a_node2"><a xlink:href="classSingleton.html#af5cb1e5749949e2b68416cfb8d378044" target="_top" xlink:title="Get an instance of the singleton. ">
<polygon fill="none" stroke="#000000" points="131.5,-88 131.5,-118 286.5,-118 286.5,-88 131.5,-88"/>
<text text-anchor="start" x="139.5" y="-106" font-family="Helvetica,sans-Serif" font-size="10.00" fill="#000000">Singleton&lt; WindowManager</text>
<text text-anchor="middle" x="209" y="-95" font-family="Helvetica,sans-Serif" font-size="10.00" fill="#000000"> &gt;::instance</text>
</a>
</g>
</g>
<!-- Node4&#45;&gt;Node5 -->
<g id="edge1" class="edge">
<title>Node4&#45;&gt;Node5</title>
<path fill="none" stroke="#191970" d="M94.2926,-79.0971C109.6059,-80.9321 126.8755,-83.4502 143.2778,-86.2156"/>
<polygon fill="#191970" stroke="#191970" points="142.9018,-89.7026 153.3533,-87.9655 144.0997,-82.8058 142.9018,-89.7026"/>
</g>
<!-- Node4&#45;&gt;Node5 -->
<g id="edge4" class="edge">
<title>Node4&#45;&gt;Node5</title>
<path fill="none" stroke="#191970" d="M74.8488,-87.5397C88.0072,-90.4601 104.5162,-93.5038 121.41,-96.2131"/>
<polygon fill="#191970" stroke="#191970" points="120.9593,-99.685 131.3789,-97.7662 122.0369,-92.7685 120.9593,-99.685"/>
</g>
<!-- Node6 -->
<g id="node3" class="node">
<title>Node6</title>
<g id="a_node3"><a xlink:href="classWindowManager.html#a2c3864d9a5b567c83b4799d97b38383a" target="_top" xlink:title="sets title of the window Sets title of the game window ">
<polygon fill="none" stroke="#000000" points="130,-39 130,-69 288,-69 288,-39 130,-39"/>
<text text-anchor="start" x="138" y="-57" font-family="Helvetica,sans-Serif" font-size="10.00" fill="#000000">WindowManager::setWindow</text>
<text text-anchor="middle" x="209" y="-46" font-family="Helvetica,sans-Serif" font-size="10.00" fill="#000000">Title</text>
</a>
</g>
</g>
<!-- Node4&#45;&gt;Node6 -->
<g id="edge2" class="edge">
<title>Node4&#45;&gt;Node6</title>
<path fill="none" stroke="#191970" d="M94.2926,-70.9937C102.4352,-69.7874 111.1309,-68.4991 119.9552,-67.1918"/>
<polygon fill="#191970" stroke="#191970" points="120.5711,-70.6389 129.9502,-65.7111 119.5452,-63.7144 120.5711,-70.6389"/>
</g>
<!-- Node7 -->
<g id="node4" class="node">
<title>Node7</title>
<g id="a_node4"><a xlink:href="namespacefs.html#a28e4c1324680c188092ecfe5fd8a91a3" target="_top" xlink:title="fs::getBasePath">
<polygon fill="none" stroke="#000000" points="163,-.5 163,-19.5 255,-19.5 255,-.5 163,-.5"/>
<text text-anchor="middle" x="209" y="-7.5" font-family="Helvetica,sans-Serif" font-size="10.00" fill="#000000">fs::getBasePath</text>
</a>
</g>
</g>
<!-- Node4&#45;&gt;Node7 -->
<g id="edge3" class="edge">
<title>Node4&#45;&gt;Node7</title>
<path fill="none" stroke="#191970" d="M60.7827,-68.4254C76.7736,-57.706 104.2482,-40.4693 130,-30 137.2801,-27.0403 145.1203,-24.4234 152.9348,-22.1398"/>
<polygon fill="#191970" stroke="#191970" points="154.0662,-25.4585 162.7752,-19.4249 152.2045,-18.7106 154.0662,-25.4585"/>
</g>
</g>
</svg>
