<?xml version="1.0" encoding="UTF-8" standalone="no"?>
<!DOCTYPE svg PUBLIC "-//W3C//DTD SVG 1.1//EN"
 "http://www.w3.org/Graphics/SVG/1.1/DTD/svg11.dtd">
<!-- Generated by graphviz version 2.40.1 (20161225.0304)
 -->
<!-- Title: Text::setFontSize Pages: 1 -->
<!--zoomable 154 -->
<svg id="main" version="1.1" xmlns="http://www.w3.org/2000/svg" xmlns:xlink="http://www.w3.org/1999/xlink" xml:space="preserve" onload="init(evt)">
<style type="text/css"><![CDATA[
.edge:hover path { stroke: red; }
.edge:hover polygon { stroke: red; fill: red; }
]]></style>
<script type="text/javascript"><![CDATA[
var edges = document.getElementsByTagName('g');
if (edges && edges.length) {
  for (var i=0;i<edges.length;i++) {
    if (edges[i].id.substr(0,4)=='edge') {
      edges[i].setAttribute('class','edge');
    }
  }
}
]]></script>
        <defs>
                <circle id="rim" cx="0" cy="0" r="7"/>
                <circle id="rim2" cx="0" cy="0" r="3.5"/>
                <g id="zoomPlus">
                        <use xlink:href="#rim" fill="#404040">
                                <set attributeName="fill" to="#808080" begin="zoomplus.mouseover" end="zoomplus.mouseout"/>
                        </use>
                        <path d="M-4,0h8M0,-4v8" fill="none" stroke="white" stroke-width="1.5" pointer-events="none"/>
                </g>
                <g id="zoomMin">
                        <use xlink:href="#rim" fill="#404040">
                                <set attributeName="fill" to="#808080" begin="zoomminus.mouseover" end="zoomminus.mouseout"/>
                        </use>
                        <path d="M-4,0h8" fill="none" stroke="white" stroke-width="1.5" pointer-events="none"/>
                </g>
                <g id="dirArrow">
                        <path fill="none" stroke="white" stroke-width="1.5" d="M0,-3.0v7 M-2.5,-0.5L0,-3.0L2.5,-0.5"/>
                </g>
               <g id="resetDef">
                       <use xlink:href="#rim2" fill="#404040">
                               <set attributeName="fill" to="#808080" begin="reset.mouseover" end="reset.mouseout"/>
                       </use>
               </g>
        </defs>

<script type="text/javascript">
var viewWidth = 536;
var viewHeight = 154;
var sectionId = 'dynsection-9';
</script>
<script xlink:href="svgpan.js"/>
<svg id="graph" class="graph">
<g id="viewport">
<title>Text::setFontSize</title>
<!-- Node42 -->
<g id="node1" class="node">
<title>Node42</title>
<polygon fill="#bfbfbf" stroke="#000000" points="0,-82.5 0,-101.5 99,-101.5 99,-82.5 0,-82.5"/>
<text text-anchor="middle" x="49.5" y="-89.5" font-family="Helvetica,sans-Serif" font-size="10.00" fill="#000000">Text::setFontSize</text>
</g>
<!-- Node43 -->
<g id="node2" class="node">
<title>Node43</title>
<g id="a_node2"><a xlink:href="classText.html#a14b9f0937696af5fd95317eb8313bf92" target="_top" xlink:title="sets the text for this text widget. ">
<polygon fill="none" stroke="#000000" points="135,-82.5 135,-101.5 213,-101.5 213,-82.5 135,-82.5"/>
<text text-anchor="middle" x="174" y="-89.5" font-family="Helvetica,sans-Serif" font-size="10.00" fill="#000000">Text::setText</text>
</a>
</g>
</g>
<!-- Node42&#45;&gt;Node43 -->
<g id="edge1" class="edge">
<title>Node42&#45;&gt;Node43</title>
<path fill="none" stroke="#191970" d="M99.0634,-92C107.5482,-92 116.3614,-92 124.8358,-92"/>
<polygon fill="#191970" stroke="#191970" points="124.9597,-95.5001 134.9597,-92 124.9596,-88.5001 124.9597,-95.5001"/>
</g>
<!-- Node44 -->
<g id="node3" class="node">
<title>Node44</title>
<g id="a_node3"><a xlink:href="classText.html#a3bf5a064fd37d06b8d3dc5a700556897" target="_top" xlink:title="Draws a text string to the screen Draws a text string to the screen. This could either be a standalon...">
<polygon fill="none" stroke="#000000" points="249,-82.5 249,-101.5 379,-101.5 379,-82.5 249,-82.5"/>
<text text-anchor="middle" x="314" y="-89.5" font-family="Helvetica,sans-Serif" font-size="10.00" fill="#000000">Text::createTextTexture</text>
</a>
</g>
</g>
<!-- Node43&#45;&gt;Node44 -->
<g id="edge2" class="edge">
<title>Node43&#45;&gt;Node44</title>
<path fill="none" stroke="#191970" d="M213.3704,-92C221.3341,-92 229.9567,-92 238.6902,-92"/>
<polygon fill="#191970" stroke="#191970" points="238.9607,-95.5001 248.9606,-92 238.9606,-88.5001 238.9607,-95.5001"/>
</g>
<!-- Node45 -->
<g id="node4" class="node">
<title>Node45</title>
<g id="a_node4"><a xlink:href="namespacefs.html#a28e4c1324680c188092ecfe5fd8a91a3" target="_top" xlink:title="fs::getBasePath">
<polygon fill="none" stroke="#000000" points="425.5,-126.5 425.5,-145.5 517.5,-145.5 517.5,-126.5 425.5,-126.5"/>
<text text-anchor="middle" x="471.5" y="-133.5" font-family="Helvetica,sans-Serif" font-size="10.00" fill="#000000">fs::getBasePath</text>
</a>
</g>
</g>
<!-- Node44&#45;&gt;Node45 -->
<g id="edge3" class="edge">
<title>Node44&#45;&gt;Node45</title>
<path fill="none" stroke="#191970" d="M348.1752,-101.5473C371.4973,-108.0627 402.5968,-116.7508 427.7302,-123.7722"/>
<polygon fill="#191970" stroke="#191970" points="426.8186,-127.1515 437.3915,-126.4713 428.7021,-120.4097 426.8186,-127.1515"/>
</g>
<!-- Node46 -->
<g id="node5" class="node">
<title>Node46</title>
<g id="a_node5"><a xlink:href="classSingleton.html#af5cb1e5749949e2b68416cfb8d378044" target="_top" xlink:title="Get an instance of the singleton. ">
<polygon fill="none" stroke="#000000" points="415,-77 415,-107 528,-107 528,-77 415,-77"/>
<text text-anchor="start" x="423" y="-95" font-family="Helvetica,sans-Serif" font-size="10.00" fill="#000000">Singleton&lt; Settings</text>
<text text-anchor="middle" x="471.5" y="-84" font-family="Helvetica,sans-Serif" font-size="10.00" fill="#000000"> &gt;::instance</text>
</a>
</g>
</g>
<!-- Node44&#45;&gt;Node46 -->
<g id="edge4" class="edge">
<title>Node44&#45;&gt;Node46</title>
<path fill="none" stroke="#191970" d="M379.4259,-85.3366C387.7178,-85.2279 396.2128,-85.2215 404.5285,-85.3176"/>
<polygon fill="#191970" stroke="#191970" points="404.4999,-88.8175 414.5571,-85.4855 404.6172,-81.8185 404.4999,-88.8175"/>
</g>
<!-- Node44&#45;&gt;Node46 -->
<g id="edge7" class="edge">
<title>Node44&#45;&gt;Node46</title>
<path fill="none" stroke="#191970" d="M379.4259,-98.6634C387.7178,-98.7721 396.2128,-98.7785 404.5285,-98.6824"/>
<polygon fill="#191970" stroke="#191970" points="404.6172,-102.1815 414.5571,-98.5145 404.4999,-95.1825 404.6172,-102.1815"/>
</g>
<!-- Node47 -->
<g id="node6" class="node">
<title>Node47</title>
<g id="a_node6"><a xlink:href="structStrongType.html#acc66e6d6b9c95193a97a839560499933" target="_top" xlink:title="StrongType::get">
<polygon fill="none" stroke="#000000" points="425.5,-38.5 425.5,-57.5 517.5,-57.5 517.5,-38.5 425.5,-38.5"/>
<text text-anchor="middle" x="471.5" y="-45.5" font-family="Helvetica,sans-Serif" font-size="10.00" fill="#000000">StrongType::get</text>
</a>
</g>
</g>
<!-- Node44&#45;&gt;Node47 -->
<g id="edge5" class="edge">
<title>Node44&#45;&gt;Node47</title>
<path fill="none" stroke="#191970" d="M348.1752,-82.4527C371.4973,-75.9373 402.5968,-67.2492 427.7302,-60.2278"/>
<polygon fill="#191970" stroke="#191970" points="428.7021,-63.5903 437.3915,-57.5287 426.8186,-56.8485 428.7021,-63.5903"/>
</g>
<!-- Node48 -->
<g id="node7" class="node">
<title>Node48</title>
<g id="a_node7"><a xlink:href="namespacefs.html#a000d1f9ae14d782b6193298e6d27023f" target="_top" xlink:title="fs::fileExists">
<polygon fill="none" stroke="#000000" points="433.5,-.5 433.5,-19.5 509.5,-19.5 509.5,-.5 433.5,-.5"/>
<text text-anchor="middle" x="471.5" y="-7.5" font-family="Helvetica,sans-Serif" font-size="10.00" fill="#000000">fs::fileExists</text>
</a>
</g>
</g>
<!-- Node44&#45;&gt;Node48 -->
<g id="edge6" class="edge">
<title>Node44&#45;&gt;Node48</title>
<path fill="none" stroke="#191970" d="M327.1506,-82.3918C345.8994,-69.0274 381.7344,-44.7037 415,-29 419.4453,-26.9015 424.1861,-24.9276 428.9597,-23.1044"/>
<polygon fill="#191970" stroke="#191970" points="430.5023,-26.2687 438.7202,-19.5818 428.1259,-19.6844 430.5023,-26.2687"/>
</g>
</g>
</svg>
        <g id="navigator" transform="translate(0 0)" fill="#404254">
                <rect fill="#f2f5e9" fill-opacity="0.5" stroke="#606060" stroke-width=".5" x="0" y="0" width="60" height="60"/>
                <use id="zoomplus" xlink:href="#zoomPlus" x="17" y="9" onmousedown="handleZoom(evt,'in')"/>
                <use id="zoomminus" xlink:href="#zoomMin" x="42" y="9" onmousedown="handleZoom(evt,'out')"/>
                <use id="reset" xlink:href="#resetDef" x="30" y="36" onmousedown="handleReset()"/>
                <g id="arrowUp" xlink:href="#dirArrow" transform="translate(30 24)" onmousedown="handlePan(0,-1)">
                  <use xlink:href="#rim" fill="#404040">
                        <set attributeName="fill" to="#808080" begin="arrowUp.mouseover" end="arrowUp.mouseout"/>
                  </use>
                  <path fill="none" stroke="white" stroke-width="1.5" d="M0,-3.0v7 M-2.5,-0.5L0,-3.0L2.5,-0.5"/>
                </g>
                <g id="arrowRight" xlink:href="#dirArrow" transform="rotate(90) translate(36 -43)" onmousedown="handlePan(1,0)">
                  <use xlink:href="#rim" fill="#404040">
                        <set attributeName="fill" to="#808080" begin="arrowRight.mouseover" end="arrowRight.mouseout"/>
                  </use>
                  <path fill="none" stroke="white" stroke-width="1.5" d="M0,-3.0v7 M-2.5,-0.5L0,-3.0L2.5,-0.5"/>
                </g>
                <g id="arrowDown" xlink:href="#dirArrow" transform="rotate(180) translate(-30 -48)" onmousedown="handlePan(0,1)">
                  <use xlink:href="#rim" fill="#404040">
                        <set attributeName="fill" to="#808080" begin="arrowDown.mouseover" end="arrowDown.mouseout"/>
                  </use>
                  <path fill="none" stroke="white" stroke-width="1.5" d="M0,-3.0v7 M-2.5,-0.5L0,-3.0L2.5,-0.5"/>
                </g>
                <g id="arrowLeft" xlink:href="#dirArrow" transform="rotate(270) translate(-36 17)" onmousedown="handlePan(-1,0)">
                  <use xlink:href="#rim" fill="#404040">
                        <set attributeName="fill" to="#808080" begin="arrowLeft.mouseover" end="arrowLeft.mouseout"/>
                  </use>
                  <path fill="none" stroke="white" stroke-width="1.5" d="M0,-3.0v7 M-2.5,-0.5L0,-3.0L2.5,-0.5"/>
                </g>
        </g>
        <svg viewBox="0 0 15 15" width="100%" height="30px" preserveAspectRatio="xMaxYMin meet">
         <g id="arrow_out" transform="scale(0.3 0.3)">
          <a xlink:href="classText_a398a47abd355749d9e99bf74aa6a4a8d_cgraph_org.svg" target="_base">
           <rect id="button" ry="5" rx="5" y="6" x="6" height="38" width="38"
                fill="#f2f5e9" fill-opacity="0.5" stroke="#606060" stroke-width="1.0"/>
           <path id="arrow"
             d="M 11.500037,31.436501 C 11.940474,20.09759 22.043105,11.32322 32.158766,21.979434 L 37.068811,17.246167 C 37.068811,17.246167 37.088388,32 37.088388,32 L 22.160133,31.978069 C 22.160133,31.978069 26.997745,27.140456 26.997745,27.140456 C 18.528582,18.264221 13.291696,25.230495 11.500037,31.436501 z"
             style="fill:#404040;"/>
          </a>
         </g>
        </svg>
</svg>
