<?xml version="1.0" encoding="UTF-8" standalone="no"?>
<!DOCTYPE svg PUBLIC "-//W3C//DTD SVG 1.1//EN"
 "http://www.w3.org/Graphics/SVG/1.1/DTD/svg11.dtd">
<!-- Generated by graphviz version 2.40.1 (20161225.0304)
 -->
<!-- Title: MapLayers::setLayerEditMode Pages: 1 -->
<svg width="1098pt" height="313pt"
 viewBox="0.00 0.00 1098.00 312.50" xmlns="http://www.w3.org/2000/svg" xmlns:xlink="http://www.w3.org/1999/xlink">
<g id="graph0" class="graph" transform="scale(1 1) rotate(0) translate(4 308.5)">
<title>MapLayers::setLayerEditMode</title>
<!-- Node96 -->
<g id="node1" class="node">
<title>Node96</title>
<polygon fill="#bfbfbf" stroke="#000000" points="0,-95.5 0,-114.5 162,-114.5 162,-95.5 0,-95.5"/>
<text text-anchor="middle" x="81" y="-102.5" font-family="Helvetica,sans-Serif" font-size="10.00" fill="#000000">MapLayers::setLayerEditMode</text>
</g>
<!-- Node97 -->
<g id="node2" class="node">
<title>Node97</title>
<g id="a_node2"><a xlink:href="classMapLayers.html#a1d810628821913c499b8348107b66891" target="_top" xlink:title="Check if given Layer is being drawn. ">
<polygon fill="none" stroke="#000000" points="216.5,-114.5 216.5,-133.5 357.5,-133.5 357.5,-114.5 216.5,-114.5"/>
<text text-anchor="middle" x="287" y="-121.5" font-family="Helvetica,sans-Serif" font-size="10.00" fill="#000000">MapLayers::isLayerActive</text>
</a>
</g>
</g>
<!-- Node96&#45;&gt;Node97 -->
<g id="edge1" class="edge">
<title>Node96&#45;&gt;Node97</title>
<path fill="none" stroke="#191970" d="M172.2731,-113.4184C187.0344,-114.7799 202.1213,-116.1714 216.2996,-117.4791"/>
<polygon fill="#191970" stroke="#191970" points="172.4002,-109.9153 162.1209,-112.482 171.7572,-116.8858 172.4002,-109.9153"/>
</g>
<!-- Node108 -->
<g id="node13" class="node">
<title>Node108</title>
<g id="a_node13"><a xlink:href="classUIManager.html#aa78e356fc3b356d790c848319d1c387e" target="_top" xlink:title="UIManager::setCallbackFunctions">
<polygon fill="none" stroke="#000000" points="198,-76.5 198,-95.5 376,-95.5 376,-76.5 198,-76.5"/>
<text text-anchor="middle" x="287" y="-83.5" font-family="Helvetica,sans-Serif" font-size="10.00" fill="#000000">UIManager::setCallbackFunctions</text>
</a>
</g>
</g>
<!-- Node96&#45;&gt;Node108 -->
<g id="edge12" class="edge">
<title>Node96&#45;&gt;Node108</title>
<path fill="none" stroke="#191970" d="M172.0803,-96.5994C180.6198,-95.8118 189.2701,-95.0139 197.7921,-94.2279"/>
<polygon fill="#191970" stroke="#191970" points="171.7572,-93.1142 162.1209,-97.518 172.4002,-100.0847 171.7572,-93.1142"/>
</g>
<!-- Node98 -->
<g id="node3" class="node">
<title>Node98</title>
<g id="a_node3"><a xlink:href="classMapNode.html#ac307762dc7ad609974c6b13774c3c00d" target="_top" xlink:title="return topmost active layer. check layers in order of significance for the topmost active layer that ...">
<polygon fill="none" stroke="#000000" points="436,-263 436,-293 591,-293 591,-263 436,-263"/>
<text text-anchor="start" x="444" y="-281" font-family="Helvetica,sans-Serif" font-size="10.00" fill="#000000">MapNode::getTopMostActive</text>
<text text-anchor="middle" x="513.5" y="-270" font-family="Helvetica,sans-Serif" font-size="10.00" fill="#000000">Layer</text>
</a>
</g>
</g>
<!-- Node97&#45;&gt;Node98 -->
<g id="edge2" class="edge">
<title>Node97&#45;&gt;Node98</title>
<path fill="none" stroke="#191970" d="M299.2344,-142.0085C319.352,-170.1779 362.1928,-224.3948 412,-253 419.3966,-257.248 427.4985,-260.7788 435.7973,-263.7127"/>
<polygon fill="#191970" stroke="#191970" points="301.9041,-139.7187 293.3058,-133.5285 296.1672,-143.7297 301.9041,-139.7187"/>
</g>
<!-- Node101 -->
<g id="node6" class="node">
<title>Node101</title>
<g id="a_node6"><a xlink:href="classMapNode.html#a002b868485074599fbf087fc4c96b2c9" target="_top" xlink:title="Demolish a node Removes all tiles on a node. This effects all layers where something to demolish is p...">
<polygon fill="none" stroke="#000000" points="444,-224.5 444,-243.5 583,-243.5 583,-224.5 444,-224.5"/>
<text text-anchor="middle" x="513.5" y="-231.5" font-family="Helvetica,sans-Serif" font-size="10.00" fill="#000000">MapNode::demolishNode</text>
</a>
</g>
</g>
<!-- Node97&#45;&gt;Node101 -->
<g id="edge5" class="edge">
<title>Node97&#45;&gt;Node101</title>
<path fill="none" stroke="#191970" d="M304.1867,-140.4532C326.9374,-161.2446 369.1924,-196.5388 412,-215 421.9595,-219.2951 432.8805,-222.6213 443.7522,-225.1966"/>
<polygon fill="#191970" stroke="#191970" points="306.4275,-137.7574 296.7224,-133.5073 301.6589,-142.8819 306.4275,-137.7574"/>
</g>
<!-- Node102 -->
<g id="node7" class="node">
<title>Node102</title>
<g id="a_node7"><a xlink:href="classMap.html#a352929ea8cc2efc4f415c7ec795e1538" target="_top" xlink:title="Map\&lt; ObserverSPtr\&lt;\l Notification \&gt;, Set\l\&lt; typename Notification\l::TransitionType \&gt; \&gt;::isClickWithinTile">
<polygon fill="none" stroke="#000000" points="412,-153 412,-205 615,-205 615,-153 412,-153"/>
<text text-anchor="start" x="420" y="-193" font-family="Helvetica,sans-Serif" font-size="10.00" fill="#000000">Map&lt; ObserverSPtr&lt;</text>
<text text-anchor="start" x="420" y="-182" font-family="Helvetica,sans-Serif" font-size="10.00" fill="#000000"> Notification &gt;, Set</text>
<text text-anchor="start" x="420" y="-171" font-family="Helvetica,sans-Serif" font-size="10.00" fill="#000000">&lt; typename Notification</text>
<text text-anchor="middle" x="513.5" y="-160" font-family="Helvetica,sans-Serif" font-size="10.00" fill="#000000">::TransitionType &gt; &gt;::isClickWithinTile</text>
</a>
</g>
</g>
<!-- Node97&#45;&gt;Node102 -->
<g id="edge6" class="edge">
<title>Node97&#45;&gt;Node102</title>
<path fill="none" stroke="#191970" d="M336.015,-135.9021C358.1847,-141.2855 385.2612,-147.8603 411.5213,-154.237"/>
<polygon fill="#191970" stroke="#191970" points="336.7382,-132.4761 326.1947,-133.5175 335.0864,-139.2784 336.7382,-132.4761"/>
</g>
<!-- Node103 -->
<g id="node8" class="node">
<title>Node103</title>
<g id="a_node8"><a xlink:href="classSprite.html#abdf111e2030274680af0f00f296d8605" target="_top" xlink:title="Sprite::render">
<polygon fill="none" stroke="#000000" points="472,-114.5 472,-133.5 555,-133.5 555,-114.5 472,-114.5"/>
<text text-anchor="middle" x="513.5" y="-121.5" font-family="Helvetica,sans-Serif" font-size="10.00" fill="#000000">Sprite::render</text>
</a>
</g>
</g>
<!-- Node97&#45;&gt;Node103 -->
<g id="edge7" class="edge">
<title>Node97&#45;&gt;Node103</title>
<path fill="none" stroke="#191970" d="M368.0067,-124C403.1912,-124 442.9053,-124 471.9415,-124"/>
<polygon fill="#191970" stroke="#191970" points="367.7344,-120.5001 357.7343,-124 367.7343,-127.5001 367.7344,-120.5001"/>
</g>
<!-- Node105 -->
<g id="node10" class="node">
<title>Node105</title>
<g id="a_node10"><a xlink:href="classSprite.html#a87428873289f8ec84f4b75d9162c9d7c" target="_top" xlink:title="Sprite::getActiveClipRect">
<polygon fill="none" stroke="#000000" points="445,-76.5 445,-95.5 582,-95.5 582,-76.5 445,-76.5"/>
<text text-anchor="middle" x="513.5" y="-83.5" font-family="Helvetica,sans-Serif" font-size="10.00" fill="#000000">Sprite::getActiveClipRect</text>
</a>
</g>
</g>
<!-- Node97&#45;&gt;Node105 -->
<g id="edge9" class="edge">
<title>Node97&#45;&gt;Node105</title>
<path fill="none" stroke="#191970" d="M353.7874,-112.795C386.461,-107.3134 425.3765,-100.7845 456.6134,-95.5439"/>
<polygon fill="#191970" stroke="#191970" points="353.1462,-109.3536 343.8632,-114.46 354.3045,-116.2571 353.1462,-109.3536"/>
</g>
<!-- Node106 -->
<g id="node11" class="node">
<title>Node106</title>
<g id="a_node11"><a xlink:href="classSprite.html#a7376c698bf914312fbcc7c2b8180cbed" target="_top" xlink:title="Sprite::isLayerUsed">
<polygon fill="none" stroke="#000000" points="458,-38.5 458,-57.5 569,-57.5 569,-38.5 458,-38.5"/>
<text text-anchor="middle" x="513.5" y="-45.5" font-family="Helvetica,sans-Serif" font-size="10.00" fill="#000000">Sprite::isLayerUsed</text>
</a>
</g>
</g>
<!-- Node97&#45;&gt;Node106 -->
<g id="edge10" class="edge">
<title>Node97&#45;&gt;Node106</title>
<path fill="none" stroke="#191970" d="M363.4496,-110.9483C367.7991,-109.2075 372.0172,-107.235 376,-105 396.2883,-93.615 391.5694,-78.1277 412,-67 425.9333,-59.4111 442.3633,-54.7985 457.8987,-52.0113"/>
<polygon fill="#191970" stroke="#191970" points="362.0036,-107.7479 353.7582,-114.4011 364.3529,-114.3419 362.0036,-107.7479"/>
</g>
<!-- Node107 -->
<g id="node12" class="node">
<title>Node107</title>
<g id="a_node12"><a xlink:href="classSprite.html#aedfac1c3b8a22c5ae4d97bd9586a6a26" target="_top" xlink:title="Sprite::getActiveDestRect">
<polygon fill="none" stroke="#000000" points="443,-.5 443,-19.5 584,-19.5 584,-.5 443,-.5"/>
<text text-anchor="middle" x="513.5" y="-7.5" font-family="Helvetica,sans-Serif" font-size="10.00" fill="#000000">Sprite::getActiveDestRect</text>
</a>
</g>
</g>
<!-- Node97&#45;&gt;Node107 -->
<g id="edge11" class="edge">
<title>Node97&#45;&gt;Node107</title>
<path fill="none" stroke="#191970" d="M367.0223,-110.9635C370.1772,-109.2034 373.189,-107.2242 376,-105 405.3104,-81.8086 382.3989,-51.8191 412,-29 421.016,-22.0496 431.8043,-17.3783 442.9308,-14.283"/>
<polygon fill="#191970" stroke="#191970" points="365.3171,-107.8991 357.8002,-115.3655 368.3325,-114.2163 365.3171,-107.8991"/>
</g>
<!-- Node99 -->
<g id="node4" class="node">
<title>Node99</title>
<g id="a_node4"><a xlink:href="classMapNode.html#a0b089ef93b46bbfed8ccf71dc516c4ef" target="_top" xlink:title="MapNode::getActiveMapNodeData">
<polygon fill="none" stroke="#000000" points="651,-268.5 651,-287.5 835,-287.5 835,-268.5 651,-268.5"/>
<text text-anchor="middle" x="743" y="-275.5" font-family="Helvetica,sans-Serif" font-size="10.00" fill="#000000">MapNode::getActiveMapNodeData</text>
</a>
</g>
</g>
<!-- Node98&#45;&gt;Node99 -->
<g id="edge3" class="edge">
<title>Node98&#45;&gt;Node99</title>
<path fill="none" stroke="#191970" d="M601.6374,-278C617.7061,-278 634.5117,-278 650.6972,-278"/>
<polygon fill="#191970" stroke="#191970" points="601.1983,-274.5001 591.1982,-278 601.1982,-281.5001 601.1983,-274.5001"/>
</g>
<!-- Node100 -->
<g id="node5" class="node">
<title>Node100</title>
<g id="a_node5"><a xlink:href="classMap.html#a0241b997090783e5d13667114731a592" target="_top" xlink:title="Debug MapNodeData to Console Used as Tile&#45;Inspector until we implement a GUI variant. ">
<polygon fill="none" stroke="#000000" points="871,-252 871,-304 1090,-304 1090,-252 871,-252"/>
<text text-anchor="start" x="879" y="-292" font-family="Helvetica,sans-Serif" font-size="10.00" fill="#000000">Map&lt; ObserverSPtr&lt;</text>
<text text-anchor="start" x="879" y="-281" font-family="Helvetica,sans-Serif" font-size="10.00" fill="#000000"> Notification &gt;, Set</text>
<text text-anchor="start" x="879" y="-270" font-family="Helvetica,sans-Serif" font-size="10.00" fill="#000000">&lt; typename Notification</text>
<text text-anchor="middle" x="980.5" y="-259" font-family="Helvetica,sans-Serif" font-size="10.00" fill="#000000">::TransitionType &gt; &gt;::getNodeInformation</text>
</a>
</g>
</g>
<!-- Node99&#45;&gt;Node100 -->
<g id="edge4" class="edge">
<title>Node99&#45;&gt;Node100</title>
<path fill="none" stroke="#191970" d="M845.4198,-278C853.8836,-278 862.4603,-278 870.9733,-278"/>
<polygon fill="#191970" stroke="#191970" points="845.1637,-274.5001 835.1636,-278 845.1636,-281.5001 845.1637,-274.5001"/>
</g>
<!-- Node104 -->
<g id="node9" class="node">
<title>Node104</title>
<g id="a_node9"><a xlink:href="classMap.html#a8ffaf087a7bf669a890301a1efad6976" target="_top" xlink:title="Map\&lt; ObserverSPtr\&lt;\l Notification \&gt;, Set\l\&lt; typename Notification\l::TransitionType \&gt; \&gt;::renderMap">
<polygon fill="none" stroke="#000000" points="656.5,-98 656.5,-150 829.5,-150 829.5,-98 656.5,-98"/>
<text text-anchor="start" x="664.5" y="-138" font-family="Helvetica,sans-Serif" font-size="10.00" fill="#000000">Map&lt; ObserverSPtr&lt;</text>
<text text-anchor="start" x="664.5" y="-127" font-family="Helvetica,sans-Serif" font-size="10.00" fill="#000000"> Notification &gt;, Set</text>
<text text-anchor="start" x="664.5" y="-116" font-family="Helvetica,sans-Serif" font-size="10.00" fill="#000000">&lt; typename Notification</text>
<text text-anchor="middle" x="743" y="-105" font-family="Helvetica,sans-Serif" font-size="10.00" fill="#000000">::TransitionType &gt; &gt;::renderMap</text>
</a>
</g>
</g>
<!-- Node103&#45;&gt;Node104 -->
<g id="edge8" class="edge">
<title>Node103&#45;&gt;Node104</title>
<path fill="none" stroke="#191970" d="M565.3542,-124C592.1356,-124 625.5313,-124 656.1158,-124"/>
<polygon fill="#191970" stroke="#191970" points="565.0608,-120.5001 555.0607,-124 565.0607,-127.5001 565.0608,-120.5001"/>
</g>
</g>
</svg>
