<?xml version="1.0" encoding="UTF-8" standalone="no"?>
<!DOCTYPE svg PUBLIC "-//W3C//DTD SVG 1.1//EN"
 "http://www.w3.org/Graphics/SVG/1.1/DTD/svg11.dtd">
<!-- Generated by graphviz version 2.40.1 (20161225.0304)
 -->
<!-- Title: Map::loadMapFromFile Pages: 1 -->
<!--zoomable 132 -->
<svg id="main" version="1.1" xmlns="http://www.w3.org/2000/svg" xmlns:xlink="http://www.w3.org/1999/xlink" xml:space="preserve" onload="init(evt)">
<style type="text/css"><![CDATA[
.edge:hover path { stroke: red; }
.edge:hover polygon { stroke: red; fill: red; }
]]></style>
<script type="text/javascript"><![CDATA[
var edges = document.getElementsByTagName('g');
if (edges && edges.length) {
  for (var i=0;i<edges.length;i++) {
    if (edges[i].id.substr(0,4)=='edge') {
      edges[i].setAttribute('class','edge');
    }
  }
}
]]></script>
        <defs>
                <circle id="rim" cx="0" cy="0" r="7"/>
                <circle id="rim2" cx="0" cy="0" r="3.5"/>
                <g id="zoomPlus">
                        <use xlink:href="#rim" fill="#404040">
                                <set attributeName="fill" to="#808080" begin="zoomplus.mouseover" end="zoomplus.mouseout"/>
                        </use>
                        <path d="M-4,0h8M0,-4v8" fill="none" stroke="white" stroke-width="1.5" pointer-events="none"/>
                </g>
                <g id="zoomMin">
                        <use xlink:href="#rim" fill="#404040">
                                <set attributeName="fill" to="#808080" begin="zoomminus.mouseover" end="zoomminus.mouseout"/>
                        </use>
                        <path d="M-4,0h8" fill="none" stroke="white" stroke-width="1.5" pointer-events="none"/>
                </g>
                <g id="dirArrow">
                        <path fill="none" stroke="white" stroke-width="1.5" d="M0,-3.0v7 M-2.5,-0.5L0,-3.0L2.5,-0.5"/>
                </g>
               <g id="resetDef">
                       <use xlink:href="#rim2" fill="#404040">
                               <set attributeName="fill" to="#808080" begin="reset.mouseover" end="reset.mouseout"/>
                       </use>
               </g>
        </defs>

<script type="text/javascript">
var viewWidth = 974;
var viewHeight = 132;
var sectionId = 'dynsection-21';
</script>
<script xlink:href="svgpan.js"/>
<svg id="graph" class="graph">
<g id="viewport">
<title>Map::loadMapFromFile</title>
<!-- Node107 -->
<g id="node1" class="node">
<title>Node107</title>
<polygon fill="#bfbfbf" stroke="#000000" points="0,-28.4066 0,-47.4066 125,-47.4066 125,-28.4066 0,-28.4066"/>
<text text-anchor="middle" x="62.5" y="-35.4066" font-family="Helvetica,sans-Serif" font-size="10.00" fill="#000000">Map::loadMapFromFile</text>
</g>
<!-- Node108 -->
<g id="node2" class="node">
<title>Node108</title>
<g id="a_node2"><a xlink:href="classEngine.html#a83b7dbeee899b36a13d5b07c7ad87ebc" target="_top" xlink:title="Loads a saved game Loads a saved Game. ">
<polygon fill="none" stroke="#000000" points="161,-28.4066 161,-47.4066 267,-47.4066 267,-28.4066 161,-28.4066"/>
<text text-anchor="middle" x="214" y="-35.4066" font-family="Helvetica,sans-Serif" font-size="10.00" fill="#000000">Engine::loadGame</text>
</a>
</g>
</g>
<!-- Node107&#45;&gt;Node108 -->
<g id="edge1" class="edge">
<title>Node107&#45;&gt;Node108</title>
<path fill="none" stroke="#191970" d="M135.6629,-37.9066C144.0896,-37.9066 152.559,-37.9066 160.6534,-37.9066"/>
<polygon fill="#191970" stroke="#191970" points="135.4335,-34.4067 125.4335,-37.9066 135.4334,-41.4067 135.4335,-34.4067"/>
</g>
<!-- Node109 -->
<g id="node3" class="node">
<title>Node109</title>
<g id="a_node3"><a xlink:href="classEngine.html#a0ba57971ffb5173ecc425461f65a4cd8" target="_top" xlink:title="Quits the game Sets m_running to false and quitting the game. ">
<polygon fill="none" stroke="#000000" points="303,-66.4066 303,-85.4066 407,-85.4066 407,-66.4066 303,-66.4066"/>
<text text-anchor="middle" x="355" y="-73.4066" font-family="Helvetica,sans-Serif" font-size="10.00" fill="#000000">Engine::quitGame</text>
</a>
</g>
</g>
<!-- Node108&#45;&gt;Node109 -->
<g id="edge2" class="edge">
<title>Node108&#45;&gt;Node109</title>
<path fill="none" stroke="#191970" d="M259.4398,-50.1528C278.875,-55.3906 301.2311,-61.4157 319.4311,-66.3207"/>
<polygon fill="#191970" stroke="#191970" points="260.1465,-46.7184 249.5803,-47.4956 258.325,-53.4773 260.1465,-46.7184"/>
</g>
<!-- Node114 -->
<g id="node8" class="node">
<title>Node114</title>
<g id="a_node8"><a xlink:href="classUIManager.html#aa78e356fc3b356d790c848319d1c387e" target="_top" xlink:title="UIManager::setCallbackFunctions">
<polygon fill="none" stroke="#000000" points="443,-28.4066 443,-47.4066 621,-47.4066 621,-28.4066 443,-28.4066"/>
<text text-anchor="middle" x="532" y="-35.4066" font-family="Helvetica,sans-Serif" font-size="10.00" fill="#000000">UIManager::setCallbackFunctions</text>
</a>
</g>
</g>
<!-- Node108&#45;&gt;Node114 -->
<g id="edge11" class="edge">
<title>Node108&#45;&gt;Node114</title>
<path fill="none" stroke="#191970" d="M277.3498,-37.9066C324.7184,-37.9066 390.1124,-37.9066 442.7707,-37.9066"/>
<polygon fill="#191970" stroke="#191970" points="277.2261,-34.4067 267.2261,-37.9066 277.226,-41.4067 277.2261,-34.4067"/>
</g>
<!-- Node116 -->
<g id="node10" class="node">
<title>Node116</title>
<g id="a_node10"><a xlink:href="classGame.html#a560299f0291c281f7b44e7ef0dd7b264" target="_top" xlink:title="initializes and displays the main menu initializes and displays the main menu ">
<polygon fill="none" stroke="#000000" points="657,-66.4066 657,-85.4066 760,-85.4066 760,-66.4066 657,-66.4066"/>
<text text-anchor="middle" x="708.5" y="-73.4066" font-family="Helvetica,sans-Serif" font-size="10.00" fill="#000000">Game::mainMenu</text>
</a>
</g>
</g>
<!-- Node108&#45;&gt;Node116 -->
<g id="edge12" class="edge">
<title>Node108&#45;&gt;Node116</title>
<path fill="none" stroke="#191970" d="M260.1831,-26.0602C336.9308,-8.4934 494.7778,18.5797 621,-18.9066 652.2834,-28.1973 682.8332,-52.6029 698.215,-66.2749"/>
<polygon fill="#191970" stroke="#191970" points="259.2857,-22.6756 250.3463,-28.3621 260.8808,-29.4914 259.2857,-22.6756"/>
</g>
<!-- Node110 -->
<g id="node4" class="node">
<title>Node110</title>
<g id="a_node4"><a xlink:href="classEventManager.html#a65ec91fd5016d4f9c4167fb8babed2df" target="_top" xlink:title="EventManager::checkEvents">
<polygon fill="none" stroke="#000000" points="455,-104.4066 455,-123.4066 609,-123.4066 609,-104.4066 455,-104.4066"/>
<text text-anchor="middle" x="532" y="-111.4066" font-family="Helvetica,sans-Serif" font-size="10.00" fill="#000000">EventManager::checkEvents</text>
</a>
</g>
</g>
<!-- Node109&#45;&gt;Node110 -->
<g id="edge3" class="edge">
<title>Node109&#45;&gt;Node110</title>
<path fill="none" stroke="#191970" d="M409.3541,-87.6628C420.4832,-90.0641 432.119,-92.5705 443,-94.9066 457.3662,-97.991 473.0401,-101.3418 487.1756,-104.3585"/>
<polygon fill="#191970" stroke="#191970" points="409.8256,-84.184 399.3121,-85.495 408.3484,-91.0264 409.8256,-84.184"/>
</g>
<!-- Node109&#45;&gt;Node114 -->
<g id="edge7" class="edge">
<title>Node109&#45;&gt;Node114</title>
<path fill="none" stroke="#191970" d="M409.3541,-64.1504C420.4832,-61.7491 432.119,-59.2427 443,-56.9066 457.3662,-53.8222 473.0401,-50.4713 487.1756,-47.4547"/>
<polygon fill="#191970" stroke="#191970" points="408.3484,-60.7868 399.3121,-66.3182 409.8256,-67.6292 408.3484,-60.7868"/>
</g>
<!-- Node115 -->
<g id="node9" class="node">
<title>Node115</title>
<g id="a_node9"><a xlink:href="classGame.html#a8272be134d16c277bb014ad6a22fc357" target="_top" xlink:title="Game::quit">
<polygon fill="none" stroke="#000000" points="496.5,-66.4066 496.5,-85.4066 567.5,-85.4066 567.5,-66.4066 496.5,-66.4066"/>
<text text-anchor="middle" x="532" y="-73.4066" font-family="Helvetica,sans-Serif" font-size="10.00" fill="#000000">Game::quit</text>
</a>
</g>
</g>
<!-- Node109&#45;&gt;Node115 -->
<g id="edge8" class="edge">
<title>Node109&#45;&gt;Node115</title>
<path fill="none" stroke="#191970" d="M417.4886,-75.9066C443.9691,-75.9066 473.8596,-75.9066 496.4608,-75.9066"/>
<polygon fill="#191970" stroke="#191970" points="417.1485,-72.4067 407.1485,-75.9066 417.1485,-79.4067 417.1485,-72.4067"/>
</g>
<!-- Node111 -->
<g id="node5" class="node">
<title>Node111</title>
<g id="a_node5"><a xlink:href="classGame.html#a1c2ab25d5216b2f4b2fe41efd2c09114" target="_top" xlink:title="begins the game starts running the game ">
<polygon fill="none" stroke="#000000" points="674.5,-104.4066 674.5,-123.4066 742.5,-123.4066 742.5,-104.4066 674.5,-104.4066"/>
<text text-anchor="middle" x="708.5" y="-111.4066" font-family="Helvetica,sans-Serif" font-size="10.00" fill="#000000">Game::run</text>
</a>
</g>
</g>
<!-- Node110&#45;&gt;Node111 -->
<g id="edge4" class="edge">
<title>Node110&#45;&gt;Node111</title>
<path fill="none" stroke="#191970" d="M619.3664,-113.9066C638.9355,-113.9066 658.5625,-113.9066 674.398,-113.9066"/>
<polygon fill="#191970" stroke="#191970" points="619.1587,-110.4067 609.1587,-113.9066 619.1587,-117.4067 619.1587,-110.4067"/>
</g>
<!-- Node112 -->
<g id="node6" class="node">
<title>Node112</title>
<g id="a_node6"><a xlink:href="main_8cxx.html#af582d708d899e67ead623eac34a22387" target="_top" xlink:title="protected_main">
<polygon fill="none" stroke="#000000" points="796,-85.4066 796,-104.4066 889,-104.4066 889,-85.4066 796,-85.4066"/>
<text text-anchor="middle" x="842.5" y="-92.4066" font-family="Helvetica,sans-Serif" font-size="10.00" fill="#000000">protected_main</text>
</a>
</g>
</g>
<!-- Node111&#45;&gt;Node112 -->
<g id="edge5" class="edge">
<title>Node111&#45;&gt;Node112</title>
<path fill="none" stroke="#191970" d="M752.8611,-107.6166C766.6278,-105.6646 781.8396,-103.5077 795.7626,-101.5335"/>
<polygon fill="#191970" stroke="#191970" points="752.0702,-104.1936 742.6606,-109.0629 753.0529,-111.1243 752.0702,-104.1936"/>
</g>
<!-- Node113 -->
<g id="node7" class="node">
<title>Node113</title>
<g id="a_node7"><a xlink:href="main_8cxx.html#a3c04138a5bfe5d72780bb7e82a18e627" target="_top" xlink:title="main">
<polygon fill="none" stroke="#000000" points="925,-85.4066 925,-104.4066 966,-104.4066 966,-85.4066 925,-85.4066"/>
<text text-anchor="middle" x="945.5" y="-92.4066" font-family="Helvetica,sans-Serif" font-size="10.00" fill="#000000">main</text>
</a>
</g>
</g>
<!-- Node112&#45;&gt;Node113 -->
<g id="edge6" class="edge">
<title>Node112&#45;&gt;Node113</title>
<path fill="none" stroke="#191970" d="M899.2133,-94.9066C908.4322,-94.9066 917.4259,-94.9066 924.9965,-94.9066"/>
<polygon fill="#191970" stroke="#191970" points="899.1782,-91.4067 889.1782,-94.9066 899.1781,-98.4067 899.1782,-91.4067"/>
</g>
<!-- Node115&#45;&gt;Node116 -->
<g id="edge9" class="edge">
<title>Node115&#45;&gt;Node116</title>
<path fill="none" stroke="#191970" d="M578.0403,-75.9066C602.1836,-75.9066 631.8403,-75.9066 656.7739,-75.9066"/>
<polygon fill="#191970" stroke="#191970" points="577.7174,-72.4067 567.7174,-75.9066 577.7174,-79.4067 577.7174,-72.4067"/>
</g>
<!-- Node116&#45;&gt;Node112 -->
<g id="edge10" class="edge">
<title>Node116&#45;&gt;Node112</title>
<path fill="none" stroke="#191970" d="M770.2457,-84.6616C778.7846,-85.8723 787.438,-87.0993 795.6465,-88.2632"/>
<polygon fill="#191970" stroke="#191970" points="770.7003,-81.1911 760.3079,-83.2525 769.7175,-88.1218 770.7003,-81.1911"/>
</g>
</g>
</svg>
        <g id="navigator" transform="translate(0 0)" fill="#404254">
                <rect fill="#f2f5e9" fill-opacity="0.5" stroke="#606060" stroke-width=".5" x="0" y="0" width="60" height="60"/>
                <use id="zoomplus" xlink:href="#zoomPlus" x="17" y="9" onmousedown="handleZoom(evt,'in')"/>
                <use id="zoomminus" xlink:href="#zoomMin" x="42" y="9" onmousedown="handleZoom(evt,'out')"/>
                <use id="reset" xlink:href="#resetDef" x="30" y="36" onmousedown="handleReset()"/>
                <g id="arrowUp" xlink:href="#dirArrow" transform="translate(30 24)" onmousedown="handlePan(0,-1)">
                  <use xlink:href="#rim" fill="#404040">
                        <set attributeName="fill" to="#808080" begin="arrowUp.mouseover" end="arrowUp.mouseout"/>
                  </use>
                  <path fill="none" stroke="white" stroke-width="1.5" d="M0,-3.0v7 M-2.5,-0.5L0,-3.0L2.5,-0.5"/>
                </g>
                <g id="arrowRight" xlink:href="#dirArrow" transform="rotate(90) translate(36 -43)" onmousedown="handlePan(1,0)">
                  <use xlink:href="#rim" fill="#404040">
                        <set attributeName="fill" to="#808080" begin="arrowRight.mouseover" end="arrowRight.mouseout"/>
                  </use>
                  <path fill="none" stroke="white" stroke-width="1.5" d="M0,-3.0v7 M-2.5,-0.5L0,-3.0L2.5,-0.5"/>
                </g>
                <g id="arrowDown" xlink:href="#dirArrow" transform="rotate(180) translate(-30 -48)" onmousedown="handlePan(0,1)">
                  <use xlink:href="#rim" fill="#404040">
                        <set attributeName="fill" to="#808080" begin="arrowDown.mouseover" end="arrowDown.mouseout"/>
                  </use>
                  <path fill="none" stroke="white" stroke-width="1.5" d="M0,-3.0v7 M-2.5,-0.5L0,-3.0L2.5,-0.5"/>
                </g>
                <g id="arrowLeft" xlink:href="#dirArrow" transform="rotate(270) translate(-36 17)" onmousedown="handlePan(-1,0)">
                  <use xlink:href="#rim" fill="#404040">
                        <set attributeName="fill" to="#808080" begin="arrowLeft.mouseover" end="arrowLeft.mouseout"/>
                  </use>
                  <path fill="none" stroke="white" stroke-width="1.5" d="M0,-3.0v7 M-2.5,-0.5L0,-3.0L2.5,-0.5"/>
                </g>
        </g>
        <svg viewBox="0 0 15 15" width="100%" height="30px" preserveAspectRatio="xMaxYMin meet">
         <g id="arrow_out" transform="scale(0.3 0.3)">
          <a xlink:href="classMap_afefe996cc1f62b61ec60d0ae415953bf_icgraph_org.svg" target="_base">
           <rect id="button" ry="5" rx="5" y="6" x="6" height="38" width="38"
                fill="#f2f5e9" fill-opacity="0.5" stroke="#606060" stroke-width="1.0"/>
           <path id="arrow"
             d="M 11.500037,31.436501 C 11.940474,20.09759 22.043105,11.32322 32.158766,21.979434 L 37.068811,17.246167 C 37.068811,17.246167 37.088388,32 37.088388,32 L 22.160133,31.978069 C 22.160133,31.978069 26.997745,27.140456 26.997745,27.140456 C 18.528582,18.264221 13.291696,25.230495 11.500037,31.436501 z"
             style="fill:#404040;"/>
          </a>
         </g>
        </svg>
</svg>
