<?xml version="1.0" encoding="UTF-8" standalone="no"?>
<!DOCTYPE svg PUBLIC "-//W3C//DTD SVG 1.1//EN"
 "http://www.w3.org/Graphics/SVG/1.1/DTD/svg11.dtd">
<!-- Generated by graphviz version 2.40.1 (20161225.0304)
 -->
<!-- Title: MapNode::setNodeTransparency Pages: 1 -->
<svg width="814pt" height="138pt"
 viewBox="0.00 0.00 814.00 137.50" xmlns="http://www.w3.org/2000/svg" xmlns:xlink="http://www.w3.org/1999/xlink">
<g id="graph0" class="graph" transform="scale(1 1) rotate(0) translate(4 133.5)">
<title>MapNode::setNodeTransparency</title>
<!-- Node178 -->
<g id="node1" class="node">
<title>Node178</title>
<polygon fill="#bfbfbf" stroke="#000000" points="0,-72 0,-91 173,-91 173,-72 0,-72"/>
<text text-anchor="middle" x="86.5" y="-79" font-family="Helvetica,sans-Serif" font-size="10.00" fill="#000000">MapNode::setNodeTransparency</text>
</g>
<!-- Node179 -->
<g id="node2" class="node">
<title>Node179</title>
<g id="a_node2"><a xlink:href="classEventManager.html#a65ec91fd5016d4f9c4167fb8babed2df" target="_top" xlink:title="EventManager::checkEvents">
<polygon fill="none" stroke="#000000" points="209,-110 209,-129 363,-129 363,-110 209,-110"/>
<text text-anchor="middle" x="286" y="-117" font-family="Helvetica,sans-Serif" font-size="10.00" fill="#000000">EventManager::checkEvents</text>
</a>
</g>
</g>
<!-- Node178&#45;&gt;Node179 -->
<g id="edge1" class="edge">
<title>Node178&#45;&gt;Node179</title>
<path fill="none" stroke="#191970" d="M146.4451,-92.9181C174.99,-98.3552 208.7371,-104.7832 235.8946,-109.9561"/>
<polygon fill="#191970" stroke="#191970" points="147.0631,-89.473 136.5848,-91.04 145.7532,-96.3493 147.0631,-89.473"/>
</g>
<!-- Node183 -->
<g id="node6" class="node">
<title>Node183</title>
<g id="a_node6"><a xlink:href="classMapNode.html#a26e55c94192a56990f8a59e7af139a73" target="_top" xlink:title="MapNode::setTileID">
<polygon fill="none" stroke="#000000" points="230,-72 230,-91 342,-91 342,-72 230,-72"/>
<text text-anchor="middle" x="286" y="-79" font-family="Helvetica,sans-Serif" font-size="10.00" fill="#000000">MapNode::setTileID</text>
</a>
</g>
</g>
<!-- Node178&#45;&gt;Node183 -->
<g id="edge5" class="edge">
<title>Node178&#45;&gt;Node183</title>
<path fill="none" stroke="#191970" d="M183.5538,-81.5C199.4571,-81.5 215.4519,-81.5 229.9195,-81.5"/>
<polygon fill="#191970" stroke="#191970" points="183.1333,-78.0001 173.1332,-81.5 183.1332,-85.0001 183.1333,-78.0001"/>
</g>
<!-- Node186 -->
<g id="node9" class="node">
<title>Node186</title>
<g id="a_node9"><a xlink:href="classMapNode.html#a46d22458f78fa9416a700dbe4612012b" target="_top" xlink:title="Overwrite m_mapData with the one loaded from a savegame. This function to be used only by loadGame...">
<polygon fill="none" stroke="#000000" points="210,-34 210,-53 362,-53 362,-34 210,-34"/>
<text text-anchor="middle" x="286" y="-41" font-family="Helvetica,sans-Serif" font-size="10.00" fill="#000000">MapNode::setMapNodeData</text>
</a>
</g>
</g>
<!-- Node178&#45;&gt;Node186 -->
<g id="edge8" class="edge">
<title>Node178&#45;&gt;Node186</title>
<path fill="none" stroke="#191970" d="M146.4451,-70.0819C174.99,-64.6448 208.7371,-58.2168 235.8946,-53.0439"/>
<polygon fill="#191970" stroke="#191970" points="145.7532,-66.6507 136.5848,-71.96 147.0631,-73.527 145.7532,-66.6507"/>
</g>
<!-- Node180 -->
<g id="node3" class="node">
<title>Node180</title>
<g id="a_node3"><a xlink:href="classGame.html#a1c2ab25d5216b2f4b2fe41efd2c09114" target="_top" xlink:title="begins the game starts running the game ">
<polygon fill="none" stroke="#000000" points="465.5,-110 465.5,-129 533.5,-129 533.5,-110 465.5,-110"/>
<text text-anchor="middle" x="499.5" y="-117" font-family="Helvetica,sans-Serif" font-size="10.00" fill="#000000">Game::run</text>
</a>
</g>
</g>
<!-- Node179&#45;&gt;Node180 -->
<g id="edge2" class="edge">
<title>Node179&#45;&gt;Node180</title>
<path fill="none" stroke="#191970" d="M373.4837,-119.5C405.8449,-119.5 440.6494,-119.5 465.4638,-119.5"/>
<polygon fill="#191970" stroke="#191970" points="373.0784,-116.0001 363.0784,-119.5 373.0784,-123.0001 373.0784,-116.0001"/>
</g>
<!-- Node181 -->
<g id="node4" class="node">
<title>Node181</title>
<g id="a_node4"><a xlink:href="main_8cxx.html#af582d708d899e67ead623eac34a22387" target="_top" xlink:title="protected_main">
<polygon fill="none" stroke="#000000" points="636,-110 636,-129 729,-129 729,-110 636,-110"/>
<text text-anchor="middle" x="682.5" y="-117" font-family="Helvetica,sans-Serif" font-size="10.00" fill="#000000">protected_main</text>
</a>
</g>
</g>
<!-- Node180&#45;&gt;Node181 -->
<g id="edge3" class="edge">
<title>Node180&#45;&gt;Node181</title>
<path fill="none" stroke="#191970" d="M544.1535,-119.5C571.9451,-119.5 607.6323,-119.5 635.7997,-119.5"/>
<polygon fill="#191970" stroke="#191970" points="543.9209,-116.0001 533.9209,-119.5 543.9209,-123.0001 543.9209,-116.0001"/>
</g>
<!-- Node182 -->
<g id="node5" class="node">
<title>Node182</title>
<g id="a_node5"><a xlink:href="main_8cxx.html#a3c04138a5bfe5d72780bb7e82a18e627" target="_top" xlink:title="main">
<polygon fill="none" stroke="#000000" points="765,-110 765,-129 806,-129 806,-110 765,-110"/>
<text text-anchor="middle" x="785.5" y="-117" font-family="Helvetica,sans-Serif" font-size="10.00" fill="#000000">main</text>
</a>
</g>
</g>
<!-- Node181&#45;&gt;Node182 -->
<g id="edge4" class="edge">
<title>Node181&#45;&gt;Node182</title>
<path fill="none" stroke="#191970" d="M739.2133,-119.5C748.4322,-119.5 757.4259,-119.5 764.9965,-119.5"/>
<polygon fill="#191970" stroke="#191970" points="739.1782,-116.0001 729.1782,-119.5 739.1781,-123.0001 739.1782,-116.0001"/>
</g>
<!-- Node184 -->
<g id="node7" class="node">
<title>Node184</title>
<g id="a_node7"><a xlink:href="classMapNode.html#ae515fc96b543bf97237bfb1ca53fe571" target="_top" xlink:title="MapNode::MapNode">
<polygon fill="none" stroke="#000000" points="442.5,-72 442.5,-91 556.5,-91 556.5,-72 442.5,-72"/>
<text text-anchor="middle" x="499.5" y="-79" font-family="Helvetica,sans-Serif" font-size="10.00" fill="#000000">MapNode::MapNode</text>
</a>
</g>
</g>
<!-- Node183&#45;&gt;Node184 -->
<g id="edge6" class="edge">
<title>Node183&#45;&gt;Node184</title>
<path fill="none" stroke="#191970" d="M352.0961,-81.5C380.9704,-81.5 414.5097,-81.5 442.2947,-81.5"/>
<polygon fill="#191970" stroke="#191970" points="352.0946,-78.0001 342.0946,-81.5 352.0946,-85.0001 352.0946,-78.0001"/>
</g>
<!-- Node185 -->
<g id="node8" class="node">
<title>Node185</title>
<g id="a_node8"><a xlink:href="classMap.html#a404c38b33d61f8c63ce2c2efb864d6dd" target="_top" xlink:title="Set the Tile ID Of Node object Also invokes all necessary texture updates (auto&#45;tiling, slopes, ...) ">
<polygon fill="none" stroke="#000000" points="399,-.5 399,-52.5 600,-52.5 600,-.5 399,-.5"/>
<text text-anchor="start" x="407" y="-40.5" font-family="Helvetica,sans-Serif" font-size="10.00" fill="#000000">Map&lt; ObserverSPtr&lt;</text>
<text text-anchor="start" x="407" y="-29.5" font-family="Helvetica,sans-Serif" font-size="10.00" fill="#000000"> Notification &gt;, Set</text>
<text text-anchor="start" x="407" y="-18.5" font-family="Helvetica,sans-Serif" font-size="10.00" fill="#000000">&lt; typename Notification</text>
<text text-anchor="middle" x="499.5" y="-7.5" font-family="Helvetica,sans-Serif" font-size="10.00" fill="#000000">::TransitionType &gt; &gt;::setTileIDOfNode</text>
</a>
</g>
</g>
<!-- Node183&#45;&gt;Node185 -->
<g id="edge7" class="edge">
<title>Node183&#45;&gt;Node185</title>
<path fill="none" stroke="#191970" d="M335.0899,-69.5111C344.3671,-67.2102 353.9863,-64.8006 363,-62.5 375.4672,-59.318 388.5616,-55.9271 401.5018,-52.5468"/>
<polygon fill="#191970" stroke="#191970" points="334.0703,-66.1577 325.2021,-71.9548 335.7498,-72.9532 334.0703,-66.1577"/>
</g>
</g>
</svg>
