<?xml version="1.0" encoding="UTF-8" standalone="no"?>
<!DOCTYPE svg PUBLIC "-//W3C//DTD SVG 1.1//EN"
 "http://www.w3.org/Graphics/SVG/1.1/DTD/svg11.dtd">
<!-- Generated by graphviz version 2.40.1 (20161225.0304)
 -->
<!-- Title: Rectangle::isEmpty Pages: 1 -->
<svg width="455pt" height="294pt"
 viewBox="0.00 0.00 455.00 294.00" xmlns="http://www.w3.org/2000/svg" xmlns:xlink="http://www.w3.org/1999/xlink">
<g id="graph0" class="graph" transform="scale(1 1) rotate(0) translate(4 290)">
<title>Rectangle::isEmpty</title>
<!-- Node28 -->
<g id="node1" class="node">
<title>Node28</title>
<polygon fill="#bfbfbf" stroke="#000000" points="0,-133.5 0,-152.5 110,-152.5 110,-133.5 0,-133.5"/>
<text text-anchor="middle" x="55" y="-140.5" font-family="Helvetica,sans-Serif" font-size="10.00" fill="#000000">Rectangle::isEmpty</text>
</g>
<!-- Node29 -->
<g id="node2" class="node">
<title>Node29</title>
<g id="a_node2"><a xlink:href="classPixelBuffer.html#abbad3bec56ca536a543c42024045c99d" target="_top" xlink:title="Crop the pixel buffer around a region. ">
<polygon fill="none" stroke="#000000" points="326.5,-266.5 326.5,-285.5 423.5,-285.5 423.5,-266.5 326.5,-266.5"/>
<text text-anchor="middle" x="375" y="-273.5" font-family="Helvetica,sans-Serif" font-size="10.00" fill="#000000">PixelBuffer::crop</text>
</a>
</g>
</g>
<!-- Node28&#45;&gt;Node29 -->
<g id="edge1" class="edge">
<title>Node28&#45;&gt;Node29</title>
<path fill="none" stroke="#191970" d="M63.6634,-161.5031C77.1288,-187.9017 105.7785,-235.5488 146,-257 202.3204,-287.0373 277.6935,-286.9498 326.3032,-282.6602"/>
<polygon fill="#191970" stroke="#191970" points="66.8038,-159.9576 59.2536,-152.5249 60.5207,-163.0437 66.8038,-159.9576"/>
</g>
<!-- Node30 -->
<g id="node3" class="node">
<title>Node30</title>
<g id="a_node3"><a xlink:href="classPixelBuffer.html#a30a3637fc0a05d028c6cdb07b38737b1" target="_top" xlink:title="PixelBuffer::isEmpty">
<polygon fill="none" stroke="#000000" points="148.5,-114.5 148.5,-133.5 264.5,-133.5 264.5,-114.5 148.5,-114.5"/>
<text text-anchor="middle" x="206.5" y="-121.5" font-family="Helvetica,sans-Serif" font-size="10.00" fill="#000000">PixelBuffer::isEmpty</text>
</a>
</g>
</g>
<!-- Node28&#45;&gt;Node30 -->
<g id="edge2" class="edge">
<title>Node28&#45;&gt;Node30</title>
<path fill="none" stroke="#191970" d="M120.1763,-134.8261C129.5459,-133.651 139.1356,-132.4483 148.3569,-131.2919"/>
<polygon fill="#191970" stroke="#191970" points="119.6103,-131.3696 110.1235,-136.0868 120.4814,-138.3151 119.6103,-131.3696"/>
</g>
<!-- Node32 -->
<g id="node5" class="node">
<title>Node32</title>
<g id="a_node5"><a xlink:href="classRectangle.html#a6d7591d194230afb71ac2efcb8fd782f" target="_top" xlink:title="Rectangle::width">
<polygon fill="none" stroke="#000000" points="157.5,-190.5 157.5,-209.5 255.5,-209.5 255.5,-190.5 157.5,-190.5"/>
<text text-anchor="middle" x="206.5" y="-197.5" font-family="Helvetica,sans-Serif" font-size="10.00" fill="#000000">Rectangle::width</text>
</a>
</g>
</g>
<!-- Node28&#45;&gt;Node32 -->
<g id="edge4" class="edge">
<title>Node28&#45;&gt;Node32</title>
<path fill="none" stroke="#191970" d="M85.6552,-156.6227C103.1743,-164.2 125.6448,-173.5713 146,-181 155.101,-184.3214 165.094,-187.6045 174.2903,-190.4831"/>
<polygon fill="#191970" stroke="#191970" points="87.0422,-153.4092 76.4767,-152.6213 84.2448,-159.826 87.0422,-153.4092"/>
</g>
<!-- Node36 -->
<g id="node9" class="node">
<title>Node36</title>
<g id="a_node9"><a xlink:href="classRectangle.html#a21cbebe8e941c0c92d7eba0f7badcb6a" target="_top" xlink:title="Rectangle::height">
<polygon fill="none" stroke="#000000" points="156,-152.5 156,-171.5 257,-171.5 257,-152.5 156,-152.5"/>
<text text-anchor="middle" x="206.5" y="-159.5" font-family="Helvetica,sans-Serif" font-size="10.00" fill="#000000">Rectangle::height</text>
</a>
</g>
</g>
<!-- Node28&#45;&gt;Node36 -->
<g id="edge10" class="edge">
<title>Node28&#45;&gt;Node36</title>
<path fill="none" stroke="#191970" d="M120.392,-151.201C132.2109,-152.6832 144.3727,-154.2085 155.6971,-155.6287"/>
<polygon fill="#191970" stroke="#191970" points="120.4814,-147.6848 110.1235,-149.9132 119.6103,-154.6304 120.4814,-147.6848"/>
</g>
<!-- Node37 -->
<g id="node10" class="node">
<title>Node37</title>
<g id="a_node10"><a xlink:href="classRectangle.html#afc98d2ef4028a53478c6452b554e43c8" target="_top" xlink:title="Increments all x coordinates. ">
<polygon fill="none" stroke="#000000" points="146,-76.5 146,-95.5 267,-95.5 267,-76.5 146,-76.5"/>
<text text-anchor="middle" x="206.5" y="-83.5" font-family="Helvetica,sans-Serif" font-size="10.00" fill="#000000">Rectangle::translateX</text>
</a>
</g>
</g>
<!-- Node28&#45;&gt;Node37 -->
<g id="edge16" class="edge">
<title>Node28&#45;&gt;Node37</title>
<path fill="none" stroke="#191970" d="M85.6552,-129.3773C103.1743,-121.8 125.6448,-112.4287 146,-105 155.101,-101.6786 165.094,-98.3955 174.2903,-95.5169"/>
<polygon fill="#191970" stroke="#191970" points="84.2448,-126.174 76.4767,-133.3787 87.0422,-132.5908 84.2448,-126.174"/>
</g>
<!-- Node38 -->
<g id="node11" class="node">
<title>Node38</title>
<g id="a_node11"><a xlink:href="classRectangle.html#a4d26ceb97e44be434dcfced941229a6c" target="_top" xlink:title="Increments all y coordinates. ">
<polygon fill="none" stroke="#000000" points="146.5,-38.5 146.5,-57.5 266.5,-57.5 266.5,-38.5 146.5,-38.5"/>
<text text-anchor="middle" x="206.5" y="-45.5" font-family="Helvetica,sans-Serif" font-size="10.00" fill="#000000">Rectangle::translateY</text>
</a>
</g>
</g>
<!-- Node28&#45;&gt;Node38 -->
<g id="edge17" class="edge">
<title>Node28&#45;&gt;Node38</title>
<path fill="none" stroke="#191970" d="M71.3744,-125.8397C88.5282,-108.7572 116.9716,-82.8604 146,-67 152.8595,-63.2521 160.5677,-60.1217 168.1263,-57.5545"/>
<polygon fill="#191970" stroke="#191970" points="68.4221,-123.8503 63.9073,-133.435 73.4138,-128.7577 68.4221,-123.8503"/>
</g>
<!-- Node39 -->
<g id="node12" class="node">
<title>Node39</title>
<g id="a_node12"><a xlink:href="classRectangle.html#a4489166815bd21aabea7a321392f1c5a" target="_top" xlink:title="Intersects with another rectangle. ">
<polygon fill="none" stroke="#000000" points="150,-228.5 150,-247.5 263,-247.5 263,-228.5 150,-228.5"/>
<text text-anchor="middle" x="206.5" y="-235.5" font-family="Helvetica,sans-Serif" font-size="10.00" fill="#000000">Rectangle::intersect</text>
</a>
</g>
</g>
<!-- Node28&#45;&gt;Node39 -->
<g id="edge18" class="edge">
<title>Node28&#45;&gt;Node39</title>
<path fill="none" stroke="#191970" d="M71.3744,-160.1603C88.5282,-177.2428 116.9716,-203.1396 146,-219 152.8595,-222.7479 160.5677,-225.8783 168.1263,-228.4455"/>
<polygon fill="#191970" stroke="#191970" points="73.4138,-157.2423 63.9073,-152.565 68.4221,-162.1497 73.4138,-157.2423"/>
</g>
<!-- Node40 -->
<g id="node13" class="node">
<title>Node40</title>
<g id="a_node13"><a xlink:href="Rectangle_8cxx.html#a8dee3ba99c775578a548ff8333ab97d6" target="_top" xlink:title="operator\&lt;\&lt;">
<polygon fill="none" stroke="#000000" points="169.5,-.5 169.5,-19.5 243.5,-19.5 243.5,-.5 169.5,-.5"/>
<text text-anchor="middle" x="206.5" y="-7.5" font-family="Helvetica,sans-Serif" font-size="10.00" fill="#000000">operator&lt;&lt;</text>
</a>
</g>
</g>
<!-- Node28&#45;&gt;Node40 -->
<g id="edge20" class="edge">
<title>Node28&#45;&gt;Node40</title>
<path fill="none" stroke="#191970" d="M64.9756,-124.5599C79.5291,-99.3592 108.9305,-54.3993 146,-29 152.9931,-24.2085 161.2528,-20.5804 169.3845,-17.8495"/>
<polygon fill="#191970" stroke="#191970" points="61.8233,-123.0255 59.9817,-133.459 67.9278,-126.4512 61.8233,-123.0255"/>
</g>
<!-- Node31 -->
<g id="node4" class="node">
<title>Node31</title>
<g id="a_node4"><a xlink:href="classPixelBuffer.html#af2200c8401646984b4119c3c7ec8e6b5" target="_top" xlink:title="Expands the sprite with a center cross to reach a dimension. ">
<polygon fill="none" stroke="#000000" points="303,-114.5 303,-133.5 447,-133.5 447,-114.5 303,-114.5"/>
<text text-anchor="middle" x="375" y="-121.5" font-family="Helvetica,sans-Serif" font-size="10.00" fill="#000000">PixelBuffer::expandCenter</text>
</a>
</g>
</g>
<!-- Node30&#45;&gt;Node31 -->
<g id="edge3" class="edge">
<title>Node30&#45;&gt;Node31</title>
<path fill="none" stroke="#191970" d="M275.1754,-124C284.3405,-124 293.7603,-124 302.9804,-124"/>
<polygon fill="#191970" stroke="#191970" points="274.9603,-120.5001 264.9602,-124 274.9602,-127.5001 274.9603,-120.5001"/>
</g>
<!-- Node32&#45;&gt;Node29 -->
<g id="edge6" class="edge">
<title>Node32&#45;&gt;Node29</title>
<path fill="none" stroke="#191970" d="M256.2707,-213.3131C260.0074,-215.0055 263.6298,-216.8948 267,-219 286.7312,-231.3254 282.9889,-245.1346 303,-257 310.1168,-261.2199 318.1753,-264.5173 326.2597,-267.0898"/>
<polygon fill="#191970" stroke="#191970" points="257.409,-209.9983 246.8258,-209.5011 254.789,-216.4895 257.409,-209.9983"/>
</g>
<!-- Node32&#45;&gt;Node31 -->
<g id="edge7" class="edge">
<title>Node32&#45;&gt;Node31</title>
<path fill="none" stroke="#191970" d="M256.2707,-186.6869C260.0074,-184.9945 263.6298,-183.1052 267,-181 286.7312,-168.6746 282.9889,-154.8654 303,-143 309.5608,-139.1098 316.9219,-136.0035 324.3658,-133.5265"/>
<polygon fill="#191970" stroke="#191970" points="254.789,-183.5105 246.8258,-190.4989 257.409,-190.0017 254.789,-183.5105"/>
</g>
<!-- Node33 -->
<g id="node6" class="node">
<title>Node33</title>
<g id="a_node6"><a xlink:href="classPixelBuffer.html#a5402df89a5dc5b23594a697285f21e34" target="_top" xlink:title="Scale the pixel buffer using nearest&#45;neighbor in both dimensions. ">
<polygon fill="none" stroke="#000000" points="324.5,-228.5 324.5,-247.5 425.5,-247.5 425.5,-228.5 324.5,-228.5"/>
<text text-anchor="middle" x="375" y="-235.5" font-family="Helvetica,sans-Serif" font-size="10.00" fill="#000000">PixelBuffer::scale</text>
</a>
</g>
</g>
<!-- Node32&#45;&gt;Node33 -->
<g id="edge5" class="edge">
<title>Node32&#45;&gt;Node33</title>
<path fill="none" stroke="#191970" d="M258.9313,-211.8243C282.6868,-217.1816 310.3986,-223.4311 332.7861,-228.4799"/>
<polygon fill="#191970" stroke="#191970" points="259.5447,-208.3748 249.0197,-209.589 258.0047,-215.2033 259.5447,-208.3748"/>
</g>
<!-- Node34 -->
<g id="node7" class="node">
<title>Node34</title>
<g id="a_node7"><a xlink:href="classPixelBuffer.html#a0d7a4fd0591121980a922794307c19e9" target="_top" xlink:title="Construct a PixelBuffer from bounds and a range. ">
<polygon fill="none" stroke="#000000" points="310.5,-190.5 310.5,-209.5 439.5,-209.5 439.5,-190.5 310.5,-190.5"/>
<text text-anchor="middle" x="375" y="-197.5" font-family="Helvetica,sans-Serif" font-size="10.00" fill="#000000">PixelBuffer::PixelBuffer</text>
</a>
</g>
</g>
<!-- Node32&#45;&gt;Node34 -->
<g id="edge8" class="edge">
<title>Node32&#45;&gt;Node34</title>
<path fill="none" stroke="#191970" d="M265.9488,-200C280.3315,-200 295.7729,-200 310.3805,-200"/>
<polygon fill="#191970" stroke="#191970" points="265.6902,-196.5001 255.6901,-200 265.6901,-203.5001 265.6902,-196.5001"/>
</g>
<!-- Node35 -->
<g id="node8" class="node">
<title>Node35</title>
<g id="a_node8"><a xlink:href="classRectangle.html#a8e643108a9d90f031b397c7f561e9b66" target="_top" xlink:title="Rectangle::to_SDL">
<polygon fill="none" stroke="#000000" points="323,-152.5 323,-171.5 427,-171.5 427,-152.5 323,-152.5"/>
<text text-anchor="middle" x="375" y="-159.5" font-family="Helvetica,sans-Serif" font-size="10.00" fill="#000000">Rectangle::to_SDL</text>
</a>
</g>
</g>
<!-- Node32&#45;&gt;Node35 -->
<g id="edge9" class="edge">
<title>Node32&#45;&gt;Node35</title>
<path fill="none" stroke="#191970" d="M258.9313,-188.1757C282.6868,-182.8184 310.3986,-176.5689 332.7861,-171.5201"/>
<polygon fill="#191970" stroke="#191970" points="258.0047,-184.7967 249.0197,-190.411 259.5447,-191.6252 258.0047,-184.7967"/>
</g>
<!-- Node36&#45;&gt;Node29 -->
<g id="edge12" class="edge">
<title>Node36&#45;&gt;Node29</title>
<path fill="none" stroke="#191970" d="M260.7005,-176.3228C262.9235,-177.7376 265.0384,-179.2921 267,-181 295.1888,-205.5425 274.2508,-233.1165 303,-257 309.762,-262.6176 318.0117,-266.5914 326.4818,-269.3983"/>
<polygon fill="#191970" stroke="#191970" points="262.1575,-173.1335 251.6849,-171.5288 258.871,-179.3141 262.1575,-173.1335"/>
</g>
<!-- Node36&#45;&gt;Node31 -->
<g id="edge13" class="edge">
<title>Node36&#45;&gt;Node31</title>
<path fill="none" stroke="#191970" d="M258.9313,-150.1757C282.6868,-144.8184 310.3986,-138.5689 332.7861,-133.5201"/>
<polygon fill="#191970" stroke="#191970" points="258.0047,-146.7967 249.0197,-152.411 259.5447,-153.6252 258.0047,-146.7967"/>
</g>
<!-- Node36&#45;&gt;Node33 -->
<g id="edge11" class="edge">
<title>Node36&#45;&gt;Node33</title>
<path fill="none" stroke="#191970" d="M256.2707,-175.3131C260.0074,-177.0055 263.6298,-178.8948 267,-181 286.7312,-193.3254 282.9889,-207.1346 303,-219 309.5608,-222.8902 316.9219,-225.9965 324.3658,-228.4735"/>
<polygon fill="#191970" stroke="#191970" points="257.409,-171.9983 246.8258,-171.5011 254.789,-178.4895 257.409,-171.9983"/>
</g>
<!-- Node36&#45;&gt;Node34 -->
<g id="edge14" class="edge">
<title>Node36&#45;&gt;Node34</title>
<path fill="none" stroke="#191970" d="M258.9313,-173.8243C282.6868,-179.1816 310.3986,-185.4311 332.7861,-190.4799"/>
<polygon fill="#191970" stroke="#191970" points="259.5447,-170.3748 249.0197,-171.589 258.0047,-177.2033 259.5447,-170.3748"/>
</g>
<!-- Node36&#45;&gt;Node35 -->
<g id="edge15" class="edge">
<title>Node36&#45;&gt;Node35</title>
<path fill="none" stroke="#191970" d="M267.2479,-162C285.4114,-162 305.159,-162 322.728,-162"/>
<polygon fill="#191970" stroke="#191970" points="267.0556,-158.5001 257.0556,-162 267.0555,-165.5001 267.0556,-158.5001"/>
</g>
<!-- Node39&#45;&gt;Node29 -->
<g id="edge19" class="edge">
<title>Node39&#45;&gt;Node29</title>
<path fill="none" stroke="#191970" d="M258.9313,-249.8243C282.6868,-255.1816 310.3986,-261.4311 332.7861,-266.4799"/>
<polygon fill="#191970" stroke="#191970" points="259.5447,-246.3748 249.0197,-247.589 258.0047,-253.2033 259.5447,-246.3748"/>
</g>
</g>
</svg>
