<?xml version="1.0" encoding="UTF-8" standalone="no"?>
<!DOCTYPE svg PUBLIC "-//W3C//DTD SVG 1.1//EN"
 "http://www.w3.org/Graphics/SVG/1.1/DTD/svg11.dtd">
<!-- Generated by graphviz version 2.40.1 (20161225.0304)
 -->
<!-- Title: Text::setText Pages: 1 -->
<svg width="401pt" height="154pt"
 viewBox="0.00 0.00 401.00 154.00" xmlns="http://www.w3.org/2000/svg" xmlns:xlink="http://www.w3.org/1999/xlink">
<g id="graph0" class="graph" transform="scale(1 1) rotate(0) translate(4 150)">
<title>Text::setText</title>
<!-- Node51 -->
<g id="node1" class="node">
<title>Node51</title>
<polygon fill="#bfbfbf" stroke="#000000" points="0,-82.5 0,-101.5 78,-101.5 78,-82.5 0,-82.5"/>
<text text-anchor="middle" x="39" y="-89.5" font-family="Helvetica,sans-Serif" font-size="10.00" fill="#000000">Text::setText</text>
</g>
<!-- Node52 -->
<g id="node2" class="node">
<title>Node52</title>
<g id="a_node2"><a xlink:href="classText.html#a3bf5a064fd37d06b8d3dc5a700556897" target="_top" xlink:title="Draws a text string to the screen Draws a text string to the screen. This could either be a standalon...">
<polygon fill="none" stroke="#000000" points="114,-82.5 114,-101.5 244,-101.5 244,-82.5 114,-82.5"/>
<text text-anchor="middle" x="179" y="-89.5" font-family="Helvetica,sans-Serif" font-size="10.00" fill="#000000">Text::createTextTexture</text>
</a>
</g>
</g>
<!-- Node51&#45;&gt;Node52 -->
<g id="edge1" class="edge">
<title>Node51&#45;&gt;Node52</title>
<path fill="none" stroke="#191970" d="M78.3704,-92C86.3341,-92 94.9567,-92 103.6902,-92"/>
<polygon fill="#191970" stroke="#191970" points="103.9607,-95.5001 113.9606,-92 103.9606,-88.5001 103.9607,-95.5001"/>
</g>
<!-- Node53 -->
<g id="node3" class="node">
<title>Node53</title>
<g id="a_node3"><a xlink:href="namespacefs.html#a28e4c1324680c188092ecfe5fd8a91a3" target="_top" xlink:title="fs::getBasePath">
<polygon fill="none" stroke="#000000" points="290.5,-126.5 290.5,-145.5 382.5,-145.5 382.5,-126.5 290.5,-126.5"/>
<text text-anchor="middle" x="336.5" y="-133.5" font-family="Helvetica,sans-Serif" font-size="10.00" fill="#000000">fs::getBasePath</text>
</a>
</g>
</g>
<!-- Node52&#45;&gt;Node53 -->
<g id="edge2" class="edge">
<title>Node52&#45;&gt;Node53</title>
<path fill="none" stroke="#191970" d="M213.1752,-101.5473C236.4973,-108.0627 267.5968,-116.7508 292.7302,-123.7722"/>
<polygon fill="#191970" stroke="#191970" points="291.8186,-127.1515 302.3915,-126.4713 293.7021,-120.4097 291.8186,-127.1515"/>
</g>
<!-- Node54 -->
<g id="node4" class="node">
<title>Node54</title>
<g id="a_node4"><a xlink:href="classSingleton.html#af5cb1e5749949e2b68416cfb8d378044" target="_top" xlink:title="Get an instance of the singleton. ">
<polygon fill="none" stroke="#000000" points="280,-77 280,-107 393,-107 393,-77 280,-77"/>
<text text-anchor="start" x="288" y="-95" font-family="Helvetica,sans-Serif" font-size="10.00" fill="#000000">Singleton&lt; Settings</text>
<text text-anchor="middle" x="336.5" y="-84" font-family="Helvetica,sans-Serif" font-size="10.00" fill="#000000"> &gt;::instance</text>
</a>
</g>
</g>
<!-- Node52&#45;&gt;Node54 -->
<g id="edge3" class="edge">
<title>Node52&#45;&gt;Node54</title>
<path fill="none" stroke="#191970" d="M244.4259,-85.3366C252.7178,-85.2279 261.2128,-85.2215 269.5285,-85.3176"/>
<polygon fill="#191970" stroke="#191970" points="269.4999,-88.8175 279.5571,-85.4855 269.6172,-81.8185 269.4999,-88.8175"/>
</g>
<!-- Node52&#45;&gt;Node54 -->
<g id="edge6" class="edge">
<title>Node52&#45;&gt;Node54</title>
<path fill="none" stroke="#191970" d="M244.4259,-98.6634C252.7178,-98.7721 261.2128,-98.7785 269.5285,-98.6824"/>
<polygon fill="#191970" stroke="#191970" points="269.6172,-102.1815 279.5571,-98.5145 269.4999,-95.1825 269.6172,-102.1815"/>
</g>
<!-- Node55 -->
<g id="node5" class="node">
<title>Node55</title>
<g id="a_node5"><a xlink:href="structStrongType.html#acc66e6d6b9c95193a97a839560499933" target="_top" xlink:title="StrongType::get">
<polygon fill="none" stroke="#000000" points="290.5,-38.5 290.5,-57.5 382.5,-57.5 382.5,-38.5 290.5,-38.5"/>
<text text-anchor="middle" x="336.5" y="-45.5" font-family="Helvetica,sans-Serif" font-size="10.00" fill="#000000">StrongType::get</text>
</a>
</g>
</g>
<!-- Node52&#45;&gt;Node55 -->
<g id="edge4" class="edge">
<title>Node52&#45;&gt;Node55</title>
<path fill="none" stroke="#191970" d="M213.1752,-82.4527C236.4973,-75.9373 267.5968,-67.2492 292.7302,-60.2278"/>
<polygon fill="#191970" stroke="#191970" points="293.7021,-63.5903 302.3915,-57.5287 291.8186,-56.8485 293.7021,-63.5903"/>
</g>
<!-- Node56 -->
<g id="node6" class="node">
<title>Node56</title>
<g id="a_node6"><a xlink:href="namespacefs.html#a000d1f9ae14d782b6193298e6d27023f" target="_top" xlink:title="fs::fileExists">
<polygon fill="none" stroke="#000000" points="298.5,-.5 298.5,-19.5 374.5,-19.5 374.5,-.5 298.5,-.5"/>
<text text-anchor="middle" x="336.5" y="-7.5" font-family="Helvetica,sans-Serif" font-size="10.00" fill="#000000">fs::fileExists</text>
</a>
</g>
</g>
<!-- Node52&#45;&gt;Node56 -->
<g id="edge5" class="edge">
<title>Node52&#45;&gt;Node56</title>
<path fill="none" stroke="#191970" d="M192.1506,-82.3918C210.8994,-69.0274 246.7344,-44.7037 280,-29 284.4453,-26.9015 289.1861,-24.9276 293.9597,-23.1044"/>
<polygon fill="#191970" stroke="#191970" points="295.5023,-26.2687 303.7202,-19.5818 293.1259,-19.6844 295.5023,-26.2687"/>
</g>
</g>
</svg>
