<?xml version="1.0" encoding="UTF-8" standalone="no"?>
<!DOCTYPE svg PUBLIC "-//W3C//DTD SVG 1.1//EN"
 "http://www.w3.org/Graphics/SVG/1.1/DTD/svg11.dtd">
<!-- Generated by graphviz version 2.40.1 (20161225.0304)
 -->
<!-- Title: MapLayers::deactivateAllLayers Pages: 1 -->
<svg width="1274pt" height="313pt"
 viewBox="0.00 0.00 1274.00 312.50" xmlns="http://www.w3.org/2000/svg" xmlns:xlink="http://www.w3.org/1999/xlink">
<g id="graph0" class="graph" transform="scale(1 1) rotate(0) translate(4 308.5)">
<title>MapLayers::deactivateAllLayers</title>
<!-- Node28 -->
<g id="node1" class="node">
<title>Node28</title>
<polygon fill="#bfbfbf" stroke="#000000" points="0,-90 0,-120 140,-120 140,-90 0,-90"/>
<text text-anchor="start" x="8" y="-108" font-family="Helvetica,sans-Serif" font-size="10.00" fill="#000000">MapLayers::deactivateAll</text>
<text text-anchor="middle" x="70" y="-97" font-family="Helvetica,sans-Serif" font-size="10.00" fill="#000000">Layers</text>
</g>
<!-- Node29 -->
<g id="node2" class="node">
<title>Node29</title>
<g id="a_node2"><a xlink:href="classMapLayers.html#ab663dfc9e4c144f904ad85543b66ac8f" target="_top" xlink:title="Toggle Drawing Layer Toggle Drawing Layer (use bitwise XOR to toggle layer) ">
<polygon fill="none" stroke="#000000" points="176,-95.5 176,-114.5 338,-114.5 338,-95.5 176,-95.5"/>
<text text-anchor="middle" x="257" y="-102.5" font-family="Helvetica,sans-Serif" font-size="10.00" fill="#000000">MapLayers::setLayerEditMode</text>
</a>
</g>
</g>
<!-- Node28&#45;&gt;Node29 -->
<g id="edge1" class="edge">
<title>Node28&#45;&gt;Node29</title>
<path fill="none" stroke="#191970" d="M150.3393,-105C158.7557,-105 167.3173,-105 175.744,-105"/>
<polygon fill="#191970" stroke="#191970" points="150.164,-101.5001 140.1639,-105 150.1639,-108.5001 150.164,-101.5001"/>
</g>
<!-- Node30 -->
<g id="node3" class="node">
<title>Node30</title>
<g id="a_node3"><a xlink:href="classMapLayers.html#a1d810628821913c499b8348107b66891" target="_top" xlink:title="Check if given Layer is being drawn. ">
<polygon fill="none" stroke="#000000" points="392.5,-114.5 392.5,-133.5 533.5,-133.5 533.5,-114.5 392.5,-114.5"/>
<text text-anchor="middle" x="463" y="-121.5" font-family="Helvetica,sans-Serif" font-size="10.00" fill="#000000">MapLayers::isLayerActive</text>
</a>
</g>
</g>
<!-- Node29&#45;&gt;Node30 -->
<g id="edge2" class="edge">
<title>Node29&#45;&gt;Node30</title>
<path fill="none" stroke="#191970" d="M348.2731,-113.4184C363.0344,-114.7799 378.1213,-116.1714 392.2996,-117.4791"/>
<polygon fill="#191970" stroke="#191970" points="348.4002,-109.9153 338.1209,-112.482 347.7572,-116.8858 348.4002,-109.9153"/>
</g>
<!-- Node41 -->
<g id="node14" class="node">
<title>Node41</title>
<g id="a_node14"><a xlink:href="classUIManager.html#aa78e356fc3b356d790c848319d1c387e" target="_top" xlink:title="UIManager::setCallbackFunctions">
<polygon fill="none" stroke="#000000" points="374,-76.5 374,-95.5 552,-95.5 552,-76.5 374,-76.5"/>
<text text-anchor="middle" x="463" y="-83.5" font-family="Helvetica,sans-Serif" font-size="10.00" fill="#000000">UIManager::setCallbackFunctions</text>
</a>
</g>
</g>
<!-- Node29&#45;&gt;Node41 -->
<g id="edge13" class="edge">
<title>Node29&#45;&gt;Node41</title>
<path fill="none" stroke="#191970" d="M348.0803,-96.5994C356.6198,-95.8118 365.2701,-95.0139 373.7921,-94.2279"/>
<polygon fill="#191970" stroke="#191970" points="347.7572,-93.1142 338.1209,-97.518 348.4002,-100.0847 347.7572,-93.1142"/>
</g>
<!-- Node31 -->
<g id="node4" class="node">
<title>Node31</title>
<g id="a_node4"><a xlink:href="classMapNode.html#ac307762dc7ad609974c6b13774c3c00d" target="_top" xlink:title="return topmost active layer. check layers in order of significance for the topmost active layer that ...">
<polygon fill="none" stroke="#000000" points="612,-263 612,-293 767,-293 767,-263 612,-263"/>
<text text-anchor="start" x="620" y="-281" font-family="Helvetica,sans-Serif" font-size="10.00" fill="#000000">MapNode::getTopMostActive</text>
<text text-anchor="middle" x="689.5" y="-270" font-family="Helvetica,sans-Serif" font-size="10.00" fill="#000000">Layer</text>
</a>
</g>
</g>
<!-- Node30&#45;&gt;Node31 -->
<g id="edge3" class="edge">
<title>Node30&#45;&gt;Node31</title>
<path fill="none" stroke="#191970" d="M475.2344,-142.0085C495.352,-170.1779 538.1928,-224.3948 588,-253 595.3966,-257.248 603.4985,-260.7788 611.7973,-263.7127"/>
<polygon fill="#191970" stroke="#191970" points="477.9041,-139.7187 469.3058,-133.5285 472.1672,-143.7297 477.9041,-139.7187"/>
</g>
<!-- Node34 -->
<g id="node7" class="node">
<title>Node34</title>
<g id="a_node7"><a xlink:href="classMapNode.html#a002b868485074599fbf087fc4c96b2c9" target="_top" xlink:title="Demolish a node Removes all tiles on a node. This effects all layers where something to demolish is p...">
<polygon fill="none" stroke="#000000" points="620,-224.5 620,-243.5 759,-243.5 759,-224.5 620,-224.5"/>
<text text-anchor="middle" x="689.5" y="-231.5" font-family="Helvetica,sans-Serif" font-size="10.00" fill="#000000">MapNode::demolishNode</text>
</a>
</g>
</g>
<!-- Node30&#45;&gt;Node34 -->
<g id="edge6" class="edge">
<title>Node30&#45;&gt;Node34</title>
<path fill="none" stroke="#191970" d="M480.1867,-140.4532C502.9374,-161.2446 545.1924,-196.5388 588,-215 597.9595,-219.2951 608.8805,-222.6213 619.7522,-225.1966"/>
<polygon fill="#191970" stroke="#191970" points="482.4275,-137.7574 472.7224,-133.5073 477.6589,-142.8819 482.4275,-137.7574"/>
</g>
<!-- Node35 -->
<g id="node8" class="node">
<title>Node35</title>
<g id="a_node8"><a xlink:href="classMap.html#a352929ea8cc2efc4f415c7ec795e1538" target="_top" xlink:title="Map\&lt; ObserverSPtr\&lt;\l Notification \&gt;, Set\l\&lt; typename Notification\l::TransitionType \&gt; \&gt;::isClickWithinTile">
<polygon fill="none" stroke="#000000" points="588,-153 588,-205 791,-205 791,-153 588,-153"/>
<text text-anchor="start" x="596" y="-193" font-family="Helvetica,sans-Serif" font-size="10.00" fill="#000000">Map&lt; ObserverSPtr&lt;</text>
<text text-anchor="start" x="596" y="-182" font-family="Helvetica,sans-Serif" font-size="10.00" fill="#000000"> Notification &gt;, Set</text>
<text text-anchor="start" x="596" y="-171" font-family="Helvetica,sans-Serif" font-size="10.00" fill="#000000">&lt; typename Notification</text>
<text text-anchor="middle" x="689.5" y="-160" font-family="Helvetica,sans-Serif" font-size="10.00" fill="#000000">::TransitionType &gt; &gt;::isClickWithinTile</text>
</a>
</g>
</g>
<!-- Node30&#45;&gt;Node35 -->
<g id="edge7" class="edge">
<title>Node30&#45;&gt;Node35</title>
<path fill="none" stroke="#191970" d="M512.015,-135.9021C534.1847,-141.2855 561.2612,-147.8603 587.5213,-154.237"/>
<polygon fill="#191970" stroke="#191970" points="512.7382,-132.4761 502.1947,-133.5175 511.0864,-139.2784 512.7382,-132.4761"/>
</g>
<!-- Node36 -->
<g id="node9" class="node">
<title>Node36</title>
<g id="a_node9"><a xlink:href="classSprite.html#abdf111e2030274680af0f00f296d8605" target="_top" xlink:title="Sprite::render">
<polygon fill="none" stroke="#000000" points="648,-114.5 648,-133.5 731,-133.5 731,-114.5 648,-114.5"/>
<text text-anchor="middle" x="689.5" y="-121.5" font-family="Helvetica,sans-Serif" font-size="10.00" fill="#000000">Sprite::render</text>
</a>
</g>
</g>
<!-- Node30&#45;&gt;Node36 -->
<g id="edge8" class="edge">
<title>Node30&#45;&gt;Node36</title>
<path fill="none" stroke="#191970" d="M544.0067,-124C579.1912,-124 618.9053,-124 647.9415,-124"/>
<polygon fill="#191970" stroke="#191970" points="543.7344,-120.5001 533.7343,-124 543.7343,-127.5001 543.7344,-120.5001"/>
</g>
<!-- Node38 -->
<g id="node11" class="node">
<title>Node38</title>
<g id="a_node11"><a xlink:href="classSprite.html#a87428873289f8ec84f4b75d9162c9d7c" target="_top" xlink:title="Sprite::getActiveClipRect">
<polygon fill="none" stroke="#000000" points="621,-76.5 621,-95.5 758,-95.5 758,-76.5 621,-76.5"/>
<text text-anchor="middle" x="689.5" y="-83.5" font-family="Helvetica,sans-Serif" font-size="10.00" fill="#000000">Sprite::getActiveClipRect</text>
</a>
</g>
</g>
<!-- Node30&#45;&gt;Node38 -->
<g id="edge10" class="edge">
<title>Node30&#45;&gt;Node38</title>
<path fill="none" stroke="#191970" d="M529.7874,-112.795C562.461,-107.3134 601.3765,-100.7845 632.6134,-95.5439"/>
<polygon fill="#191970" stroke="#191970" points="529.1462,-109.3536 519.8632,-114.46 530.3045,-116.2571 529.1462,-109.3536"/>
</g>
<!-- Node39 -->
<g id="node12" class="node">
<title>Node39</title>
<g id="a_node12"><a xlink:href="classSprite.html#a7376c698bf914312fbcc7c2b8180cbed" target="_top" xlink:title="Sprite::isLayerUsed">
<polygon fill="none" stroke="#000000" points="634,-38.5 634,-57.5 745,-57.5 745,-38.5 634,-38.5"/>
<text text-anchor="middle" x="689.5" y="-45.5" font-family="Helvetica,sans-Serif" font-size="10.00" fill="#000000">Sprite::isLayerUsed</text>
</a>
</g>
</g>
<!-- Node30&#45;&gt;Node39 -->
<g id="edge11" class="edge">
<title>Node30&#45;&gt;Node39</title>
<path fill="none" stroke="#191970" d="M539.4496,-110.9483C543.7991,-109.2075 548.0172,-107.235 552,-105 572.2883,-93.615 567.5694,-78.1277 588,-67 601.9333,-59.4111 618.3633,-54.7985 633.8987,-52.0113"/>
<polygon fill="#191970" stroke="#191970" points="538.0036,-107.7479 529.7582,-114.4011 540.3529,-114.3419 538.0036,-107.7479"/>
</g>
<!-- Node40 -->
<g id="node13" class="node">
<title>Node40</title>
<g id="a_node13"><a xlink:href="classSprite.html#aedfac1c3b8a22c5ae4d97bd9586a6a26" target="_top" xlink:title="Sprite::getActiveDestRect">
<polygon fill="none" stroke="#000000" points="619,-.5 619,-19.5 760,-19.5 760,-.5 619,-.5"/>
<text text-anchor="middle" x="689.5" y="-7.5" font-family="Helvetica,sans-Serif" font-size="10.00" fill="#000000">Sprite::getActiveDestRect</text>
</a>
</g>
</g>
<!-- Node30&#45;&gt;Node40 -->
<g id="edge12" class="edge">
<title>Node30&#45;&gt;Node40</title>
<path fill="none" stroke="#191970" d="M543.0223,-110.9635C546.1772,-109.2034 549.189,-107.2242 552,-105 581.3104,-81.8086 558.3989,-51.8191 588,-29 597.016,-22.0496 607.8043,-17.3783 618.9308,-14.283"/>
<polygon fill="#191970" stroke="#191970" points="541.3171,-107.8991 533.8002,-115.3655 544.3325,-114.2163 541.3171,-107.8991"/>
</g>
<!-- Node32 -->
<g id="node5" class="node">
<title>Node32</title>
<g id="a_node5"><a xlink:href="classMapNode.html#a0b089ef93b46bbfed8ccf71dc516c4ef" target="_top" xlink:title="MapNode::getActiveMapNodeData">
<polygon fill="none" stroke="#000000" points="827,-268.5 827,-287.5 1011,-287.5 1011,-268.5 827,-268.5"/>
<text text-anchor="middle" x="919" y="-275.5" font-family="Helvetica,sans-Serif" font-size="10.00" fill="#000000">MapNode::getActiveMapNodeData</text>
</a>
</g>
</g>
<!-- Node31&#45;&gt;Node32 -->
<g id="edge4" class="edge">
<title>Node31&#45;&gt;Node32</title>
<path fill="none" stroke="#191970" d="M777.6374,-278C793.7061,-278 810.5117,-278 826.6972,-278"/>
<polygon fill="#191970" stroke="#191970" points="777.1983,-274.5001 767.1982,-278 777.1982,-281.5001 777.1983,-274.5001"/>
</g>
<!-- Node33 -->
<g id="node6" class="node">
<title>Node33</title>
<g id="a_node6"><a xlink:href="classMap.html#a0241b997090783e5d13667114731a592" target="_top" xlink:title="Debug MapNodeData to Console Used as Tile&#45;Inspector until we implement a GUI variant. ">
<polygon fill="none" stroke="#000000" points="1047,-252 1047,-304 1266,-304 1266,-252 1047,-252"/>
<text text-anchor="start" x="1055" y="-292" font-family="Helvetica,sans-Serif" font-size="10.00" fill="#000000">Map&lt; ObserverSPtr&lt;</text>
<text text-anchor="start" x="1055" y="-281" font-family="Helvetica,sans-Serif" font-size="10.00" fill="#000000"> Notification &gt;, Set</text>
<text text-anchor="start" x="1055" y="-270" font-family="Helvetica,sans-Serif" font-size="10.00" fill="#000000">&lt; typename Notification</text>
<text text-anchor="middle" x="1156.5" y="-259" font-family="Helvetica,sans-Serif" font-size="10.00" fill="#000000">::TransitionType &gt; &gt;::getNodeInformation</text>
</a>
</g>
</g>
<!-- Node32&#45;&gt;Node33 -->
<g id="edge5" class="edge">
<title>Node32&#45;&gt;Node33</title>
<path fill="none" stroke="#191970" d="M1021.4198,-278C1029.8836,-278 1038.4603,-278 1046.9733,-278"/>
<polygon fill="#191970" stroke="#191970" points="1021.1637,-274.5001 1011.1636,-278 1021.1636,-281.5001 1021.1637,-274.5001"/>
</g>
<!-- Node37 -->
<g id="node10" class="node">
<title>Node37</title>
<g id="a_node10"><a xlink:href="classMap.html#a8ffaf087a7bf669a890301a1efad6976" target="_top" xlink:title="Map\&lt; ObserverSPtr\&lt;\l Notification \&gt;, Set\l\&lt; typename Notification\l::TransitionType \&gt; \&gt;::renderMap">
<polygon fill="none" stroke="#000000" points="832.5,-98 832.5,-150 1005.5,-150 1005.5,-98 832.5,-98"/>
<text text-anchor="start" x="840.5" y="-138" font-family="Helvetica,sans-Serif" font-size="10.00" fill="#000000">Map&lt; ObserverSPtr&lt;</text>
<text text-anchor="start" x="840.5" y="-127" font-family="Helvetica,sans-Serif" font-size="10.00" fill="#000000"> Notification &gt;, Set</text>
<text text-anchor="start" x="840.5" y="-116" font-family="Helvetica,sans-Serif" font-size="10.00" fill="#000000">&lt; typename Notification</text>
<text text-anchor="middle" x="919" y="-105" font-family="Helvetica,sans-Serif" font-size="10.00" fill="#000000">::TransitionType &gt; &gt;::renderMap</text>
</a>
</g>
</g>
<!-- Node36&#45;&gt;Node37 -->
<g id="edge9" class="edge">
<title>Node36&#45;&gt;Node37</title>
<path fill="none" stroke="#191970" d="M741.3542,-124C768.1356,-124 801.5313,-124 832.1158,-124"/>
<polygon fill="#191970" stroke="#191970" points="741.0608,-120.5001 731.0607,-124 741.0607,-127.5001 741.0608,-120.5001"/>
</g>
</g>
</svg>
