<?xml version="1.0" encoding="UTF-8" standalone="no"?>
<!DOCTYPE svg PUBLIC "-//W3C//DTD SVG 1.1//EN"
 "http://www.w3.org/Graphics/SVG/1.1/DTD/svg11.dtd">
<!-- Generated by graphviz version 2.40.1 (20161225.0304)
 -->
<!-- Title: UIManager::changeResolution Pages: 1 -->
<!--zoomable 333 -->
<svg id="main" version="1.1" xmlns="http://www.w3.org/2000/svg" xmlns:xlink="http://www.w3.org/1999/xlink" xml:space="preserve" onload="init(evt)">
<style type="text/css"><![CDATA[
.edge:hover path { stroke: red; }
.edge:hover polygon { stroke: red; fill: red; }
]]></style>
<script type="text/javascript"><![CDATA[
var edges = document.getElementsByTagName('g');
if (edges && edges.length) {
  for (var i=0;i<edges.length;i++) {
    if (edges[i].id.substr(0,4)=='edge') {
      edges[i].setAttribute('class','edge');
    }
  }
}
]]></script>
        <defs>
                <circle id="rim" cx="0" cy="0" r="7"/>
                <circle id="rim2" cx="0" cy="0" r="3.5"/>
                <g id="zoomPlus">
                        <use xlink:href="#rim" fill="#404040">
                                <set attributeName="fill" to="#808080" begin="zoomplus.mouseover" end="zoomplus.mouseout"/>
                        </use>
                        <path d="M-4,0h8M0,-4v8" fill="none" stroke="white" stroke-width="1.5" pointer-events="none"/>
                </g>
                <g id="zoomMin">
                        <use xlink:href="#rim" fill="#404040">
                                <set attributeName="fill" to="#808080" begin="zoomminus.mouseover" end="zoomminus.mouseout"/>
                        </use>
                        <path d="M-4,0h8" fill="none" stroke="white" stroke-width="1.5" pointer-events="none"/>
                </g>
                <g id="dirArrow">
                        <path fill="none" stroke="white" stroke-width="1.5" d="M0,-3.0v7 M-2.5,-0.5L0,-3.0L2.5,-0.5"/>
                </g>
               <g id="resetDef">
                       <use xlink:href="#rim2" fill="#404040">
                               <set attributeName="fill" to="#808080" begin="reset.mouseover" end="reset.mouseout"/>
                       </use>
               </g>
        </defs>

<script type="text/javascript">
var viewWidth = 996;
var viewHeight = 333;
var sectionId = 'dynsection-6';
</script>
<script xlink:href="svgpan.js"/>
<svg id="graph" class="graph">
<g id="viewport">
<title>UIManager::changeResolution</title>
<!-- Node25 -->
<g id="node1" class="node">
<title>Node25</title>
<polygon fill="#bfbfbf" stroke="#000000" points="0,-237.5 0,-256.5 161,-256.5 161,-237.5 0,-237.5"/>
<text text-anchor="middle" x="80.5" y="-244.5" font-family="Helvetica,sans-Serif" font-size="10.00" fill="#000000">UIManager::changeResolution</text>
</g>
<!-- Node26 -->
<g id="node2" class="node">
<title>Node26</title>
<g id="a_node2"><a xlink:href="classSingleton.html#af5cb1e5749949e2b68416cfb8d378044" target="_top" xlink:title="Get an instance of the singleton. ">
<polygon fill="none" stroke="#000000" points="580,-206 580,-236 735,-236 735,-206 580,-206"/>
<text text-anchor="start" x="588" y="-224" font-family="Helvetica,sans-Serif" font-size="10.00" fill="#000000">Singleton&lt; WindowManager</text>
<text text-anchor="middle" x="657.5" y="-213" font-family="Helvetica,sans-Serif" font-size="10.00" fill="#000000"> &gt;::instance</text>
</a>
</g>
</g>
<!-- Node25&#45;&gt;Node26 -->
<g id="edge1" class="edge">
<title>Node25&#45;&gt;Node26</title>
<path fill="none" stroke="#191970" d="M119.1664,-256.5065C198.8249,-280.1036 386.3053,-333.9149 536,-290 568.8451,-280.3645 601.2208,-258.8148 624.2823,-242.1691"/>
<polygon fill="#191970" stroke="#191970" points="626.6322,-244.7871 632.6463,-236.0646 622.5055,-239.1328 626.6322,-244.7871"/>
</g>
<!-- Node25&#45;&gt;Node26 -->
<g id="edge21" class="edge">
<title>Node25&#45;&gt;Node26</title>
<path fill="none" stroke="#191970" d="M96.2159,-256.576C155.283,-284.4612 369.121,-356.9561 536,-308 577.0954,-295.9441 617.4559,-265.2371 639.7573,-243.4692"/>
<polygon fill="#191970" stroke="#191970" points="642.3842,-245.7887 646.8641,-236.1876 637.3746,-240.8994 642.3842,-245.7887"/>
</g>
<!-- Node27 -->
<g id="node3" class="node">
<title>Node27</title>
<g id="a_node3"><a xlink:href="classWindowManager.html#a02ff8708c66cbb980399eb967a37a937" target="_top" xlink:title="WindowManager::setScreen\lResolution">
<polygon fill="none" stroke="#000000" points="378,-259 378,-289 530,-289 530,-259 378,-259"/>
<text text-anchor="start" x="386" y="-277" font-family="Helvetica,sans-Serif" font-size="10.00" fill="#000000">WindowManager::setScreen</text>
<text text-anchor="middle" x="454" y="-266" font-family="Helvetica,sans-Serif" font-size="10.00" fill="#000000">Resolution</text>
</a>
</g>
</g>
<!-- Node25&#45;&gt;Node27 -->
<g id="edge2" class="edge">
<title>Node25&#45;&gt;Node27</title>
<path fill="none" stroke="#191970" d="M161.0841,-252.8254C221.9251,-257.2235 305.2778,-263.249 367.5135,-267.748"/>
<polygon fill="#191970" stroke="#191970" points="367.4773,-271.2544 377.7036,-268.4846 367.982,-264.2726 367.4773,-271.2544"/>
</g>
<!-- Node28 -->
<g id="node4" class="node">
<title>Node28</title>
<g id="a_node4"><a xlink:href="classComboBox.html#afddbdfd25efa15206eb724b641665cfc" target="_top" xlink:title="Get ID of selected element returns the ID of the selected element in the comboBox. ">
<polygon fill="none" stroke="#000000" points="200,-173.5 200,-192.5 333,-192.5 333,-173.5 200,-173.5"/>
<text text-anchor="middle" x="266.5" y="-180.5" font-family="Helvetica,sans-Serif" font-size="10.00" fill="#000000">ComboBox::getActiveID</text>
</a>
</g>
</g>
<!-- Node25&#45;&gt;Node28 -->
<g id="edge4" class="edge">
<title>Node25&#45;&gt;Node28</title>
<path fill="none" stroke="#191970" d="M103.4585,-237.3341C126.776,-227.7067 164.0451,-212.8382 197,-202 204.1054,-199.6632 211.6834,-197.3814 219.1255,-195.2564"/>
<polygon fill="#191970" stroke="#191970" points="220.0886,-198.6215 228.7795,-192.5618 218.2066,-191.8792 220.0886,-198.6215"/>
</g>
<!-- Node30 -->
<g id="node6" class="node">
<title>Node30</title>
<g id="a_node6"><a xlink:href="classLayout.html#afa734c5af10f59f3dadb066054fe81ab" target="_top" xlink:title="Arrange the layout elements. ">
<polygon fill="none" stroke="#000000" points="197,-211.5 197,-230.5 336,-230.5 336,-211.5 197,-211.5"/>
<text text-anchor="middle" x="266.5" y="-218.5" font-family="Helvetica,sans-Serif" font-size="10.00" fill="#000000">Layout::arrangeElements</text>
</a>
</g>
</g>
<!-- Node25&#45;&gt;Node30 -->
<g id="edge6" class="edge">
<title>Node25&#45;&gt;Node30</title>
<path fill="none" stroke="#191970" d="M148.7034,-237.4662C161.5921,-235.6645 175.1664,-233.7671 188.3334,-231.9265"/>
<polygon fill="#191970" stroke="#191970" points="188.8857,-235.3834 198.3049,-230.5327 187.9166,-228.4508 188.8857,-235.3834"/>
</g>
<!-- Node39 -->
<g id="node15" class="node">
<title>Node39</title>
<g id="a_node15"><a xlink:href="classMap.html#ab69938ac0e56eb0da1d1701221f3d185" target="_top" xlink:title="Refresh all the map tile textures. ">
<polygon fill="none" stroke="#000000" points="228,-135.5 228,-154.5 305,-154.5 305,-135.5 228,-135.5"/>
<text text-anchor="middle" x="266.5" y="-142.5" font-family="Helvetica,sans-Serif" font-size="10.00" fill="#000000">Map::refresh</text>
</a>
</g>
</g>
<!-- Node25&#45;&gt;Node39 -->
<g id="edge22" class="edge">
<title>Node25&#45;&gt;Node39</title>
<path fill="none" stroke="#191970" d="M91.237,-237.3268C110.8454,-220.1475 154.3693,-184.2233 197,-164 203.6043,-160.867 210.815,-158.1743 218.0111,-155.8841"/>
<polygon fill="#191970" stroke="#191970" points="219.1567,-159.1954 227.7565,-153.0072 217.1747,-152.4818 219.1567,-159.1954"/>
</g>
<!-- Node27&#45;&gt;Node26 -->
<g id="edge3" class="edge">
<title>Node27&#45;&gt;Node26</title>
<path fill="none" stroke="#191970" d="M511.7706,-258.9541C536.0449,-252.632 564.4546,-245.233 589.7109,-238.6552"/>
<polygon fill="#191970" stroke="#191970" points="590.7899,-241.991 599.5849,-236.0835 589.0256,-235.2169 590.7899,-241.991"/>
</g>
<!-- Node29 -->
<g id="node5" class="node">
<title>Node29</title>
<g id="a_node5"><a xlink:href="classComboBox.html#ad0dba514b01ed2bb3c41c738c80a7d6a" target="_top" xlink:title="Set ID of selected element sets the ID of the selected element in the comboBox. ">
<polygon fill="none" stroke="#000000" points="388,-38.5 388,-57.5 520,-57.5 520,-38.5 388,-38.5"/>
<text text-anchor="middle" x="454" y="-45.5" font-family="Helvetica,sans-Serif" font-size="10.00" fill="#000000">ComboBox::setActiveID</text>
</a>
</g>
</g>
<!-- Node28&#45;&gt;Node29 -->
<g id="edge5" class="edge">
<title>Node28&#45;&gt;Node29</title>
<path fill="none" stroke="#191970" d="M321.5055,-173.4621C326.792,-170.9868 331.7553,-167.8847 336,-164 369.9227,-132.9546 337.4758,-97.3751 372,-67 374.2114,-65.0544 376.5829,-63.2973 379.0756,-61.7112"/>
<polygon fill="#191970" stroke="#191970" points="380.7988,-64.7587 387.9611,-56.9516 377.4935,-58.5882 380.7988,-64.7587"/>
</g>
<!-- Node30&#45;&gt;Node26 -->
<g id="edge7" class="edge">
<title>Node30&#45;&gt;Node26</title>
<path fill="none" stroke="#191970" d="M336.403,-215.6841C401.6194,-213.9269 499.1727,-213.7845 569.6302,-215.2569"/>
<polygon fill="#191970" stroke="#191970" points="569.7458,-218.7603 579.8219,-215.4859 569.903,-211.7621 569.7458,-218.7603"/>
</g>
<!-- Node30&#45;&gt;Node26 -->
<g id="edge10" class="edge">
<title>Node30&#45;&gt;Node26</title>
<path fill="none" stroke="#191970" d="M336.403,-226.3159C401.6194,-228.0731 499.1727,-228.2155 569.6302,-226.7431"/>
<polygon fill="#191970" stroke="#191970" points="569.903,-230.2379 579.8219,-226.5141 569.7458,-223.2397 569.903,-230.2379"/>
</g>
<!-- Node31 -->
<g id="node7" class="node">
<title>Node31</title>
<g id="a_node7"><a xlink:href="classLayout.html#a79480df6d9dd2d32b23468c05c6ac944" target="_top" xlink:title="Calculates height and width of layout groups. ">
<polygon fill="none" stroke="#000000" points="373,-153 373,-183 535,-183 535,-153 373,-153"/>
<text text-anchor="start" x="381" y="-171" font-family="Helvetica,sans-Serif" font-size="10.00" fill="#000000">Layout::calculateLayoutGroup</text>
<text text-anchor="middle" x="454" y="-160" font-family="Helvetica,sans-Serif" font-size="10.00" fill="#000000">Dimensions</text>
</a>
</g>
</g>
<!-- Node30&#45;&gt;Node31 -->
<g id="edge8" class="edge">
<title>Node30&#45;&gt;Node31</title>
<path fill="none" stroke="#191970" d="M301.8823,-211.4276C312.8282,-208.4393 324.9203,-205.1106 336,-202 354.4429,-196.8223 374.4758,-191.0907 392.7107,-185.8319"/>
<polygon fill="#191970" stroke="#191970" points="393.7123,-189.1857 402.3484,-183.0483 391.7699,-182.4606 393.7123,-189.1857"/>
</g>
<!-- Node32 -->
<g id="node8" class="node">
<title>Node32</title>
<g id="a_node8"><a xlink:href="classUIManager.html#a0d32c5b63c4110ff8e43ab06c1c7d761" target="_top" xlink:title="Get the Layoutgroup container Returns the container, that holds LayoutGroups. ">
<polygon fill="none" stroke="#000000" points="572,-114.5 572,-133.5 743,-133.5 743,-114.5 572,-114.5"/>
<text text-anchor="middle" x="657.5" y="-121.5" font-family="Helvetica,sans-Serif" font-size="10.00" fill="#000000">UIManager::getAllLayoutGroups</text>
</a>
</g>
</g>
<!-- Node30&#45;&gt;Node32 -->
<g id="edge11" class="edge">
<title>Node30&#45;&gt;Node32</title>
<path fill="none" stroke="#191970" d="M318.6312,-211.4441C324.8241,-208.9838 330.7869,-205.8901 336,-202 360.3157,-183.855 346.0184,-159.6668 372,-144 440.3796,-102.7673 535.4149,-105.4206 596.6937,-113.1098"/>
<polygon fill="#191970" stroke="#191970" points="596.6021,-116.6287 606.9783,-114.4873 597.5315,-109.6907 596.6021,-116.6287"/>
</g>
<!-- Node33 -->
<g id="node9" class="node">
<title>Node33</title>
<g id="a_node9"><a xlink:href="classLayout.html#a99004e4afcea6a945e3890b19cce6236" target="_top" xlink:title="Arrange Elements that are aligned to a parent This is a seperate function, so it can recurse if a par...">
<polygon fill="none" stroke="#000000" points="372,-76.5 372,-95.5 536,-95.5 536,-76.5 372,-76.5"/>
<text text-anchor="middle" x="454" y="-83.5" font-family="Helvetica,sans-Serif" font-size="10.00" fill="#000000">Layout::arrangeChildElements</text>
</a>
</g>
</g>
<!-- Node30&#45;&gt;Node33 -->
<g id="edge12" class="edge">
<title>Node30&#45;&gt;Node33</title>
<path fill="none" stroke="#191970" d="M321.4367,-211.3864C326.7361,-208.9252 331.7212,-205.8472 336,-202 368.6506,-172.6429 339.613,-139.6477 372,-110 376.4158,-105.9577 381.4774,-102.5934 386.8713,-99.7939"/>
<polygon fill="#191970" stroke="#191970" points="388.5226,-102.889 396.2074,-95.5956 385.6517,-96.5048 388.5226,-102.889"/>
</g>
<!-- Node31&#45;&gt;Node26 -->
<g id="edge9" class="edge">
<title>Node31&#45;&gt;Node26</title>
<path fill="none" stroke="#191970" d="M511.7706,-183.0459C536.0449,-189.368 564.4546,-196.767 589.7109,-203.3448"/>
<polygon fill="#191970" stroke="#191970" points="589.0256,-206.7831 599.5849,-205.9165 590.7899,-200.009 589.0256,-206.7831"/>
</g>
<!-- Node33&#45;&gt;Node26 -->
<g id="edge13" class="edge">
<title>Node33&#45;&gt;Node26</title>
<path fill="none" stroke="#191970" d="M475.0116,-95.6316C512.8396,-117.572 592.2198,-170.1328 632.6667,-199.9203"/>
<polygon fill="#191970" stroke="#191970" points="630.5734,-202.7253 640.6777,-205.9117 634.7659,-197.1196 630.5734,-202.7253"/>
</g>
<!-- Node33&#45;&gt;Node26 -->
<g id="edge14" class="edge">
<title>Node33&#45;&gt;Node26</title>
<path fill="none" stroke="#191970" d="M463.8152,-95.621C491.3204,-117.7459 570.2795,-170.9061 618.4685,-200.555"/>
<polygon fill="#191970" stroke="#191970" points="616.7276,-203.5928 627.089,-205.8047 620.3685,-197.6141 616.7276,-203.5928"/>
</g>
<!-- Node33&#45;&gt;Node32 -->
<g id="edge17" class="edge">
<title>Node33&#45;&gt;Node32</title>
<path fill="none" stroke="#191970" d="M505.089,-95.54C532.7877,-100.7122 567.211,-107.1401 596.3309,-112.5778"/>
<polygon fill="#191970" stroke="#191970" points="595.9174,-116.061 606.39,-114.4561 597.2024,-109.1799 595.9174,-116.061"/>
</g>
<!-- Node34 -->
<g id="node10" class="node">
<title>Node34</title>
<g id="a_node10"><a xlink:href="classUIManager.html#aa5b6dbe1a9d5c50b588c55e9c9673f58" target="_top" xlink:title="Get the Ui Element By ID Finds and returns an UiElement by its elementID parameter. ">
<polygon fill="none" stroke="#000000" points="575,-38.5 575,-57.5 740,-57.5 740,-38.5 575,-38.5"/>
<text text-anchor="middle" x="657.5" y="-45.5" font-family="Helvetica,sans-Serif" font-size="10.00" fill="#000000">UIManager::getUiElementByID</text>
</a>
</g>
</g>
<!-- Node33&#45;&gt;Node34 -->
<g id="edge15" class="edge">
<title>Node33&#45;&gt;Node34</title>
<path fill="none" stroke="#191970" d="M505.089,-76.46C532.7877,-71.2878 567.211,-64.8599 596.3309,-59.4222"/>
<polygon fill="#191970" stroke="#191970" points="597.2024,-62.8201 606.39,-57.5439 595.9174,-55.939 597.2024,-62.8201"/>
</g>
<!-- Node35 -->
<g id="node11" class="node">
<title>Node35</title>
<g id="a_node11"><a xlink:href="classUIElement.html#a6451228b4c9bc058d69e4d4f2b03c719" target="_top" xlink:title="UIElement::getUiElementData">
<polygon fill="none" stroke="#000000" points="575.5,-.5 575.5,-19.5 739.5,-19.5 739.5,-.5 575.5,-.5"/>
<text text-anchor="middle" x="657.5" y="-7.5" font-family="Helvetica,sans-Serif" font-size="10.00" fill="#000000">UIElement::getUiElementData</text>
</a>
</g>
</g>
<!-- Node33&#45;&gt;Node35 -->
<g id="edge16" class="edge">
<title>Node33&#45;&gt;Node35</title>
<path fill="none" stroke="#191970" d="M514.2326,-76.3661C521.8261,-73.9182 529.2789,-70.8487 536,-67 556.1887,-55.4393 551.7594,-40.4696 572,-29 575.9771,-26.7463 580.1992,-24.76 584.5539,-23.0092"/>
<polygon fill="#191970" stroke="#191970" points="586.0175,-26.2029 594.2553,-19.5404 583.6607,-19.6116 586.0175,-26.2029"/>
</g>
<!-- Node36 -->
<g id="node12" class="node">
<title>Node36</title>
<g id="a_node12"><a xlink:href="classUIElement.html#ad1c0d7431b71bdd9a3704a6d5c8a4643" target="_top" xlink:title="Get the position and the size of this ui element Gets the position and the size of this ui element...">
<polygon fill="none" stroke="#000000" points="577,-76.5 577,-95.5 738,-95.5 738,-76.5 577,-76.5"/>
<text text-anchor="middle" x="657.5" y="-83.5" font-family="Helvetica,sans-Serif" font-size="10.00" fill="#000000">UIElement::getUiElementRect</text>
</a>
</g>
</g>
<!-- Node33&#45;&gt;Node36 -->
<g id="edge18" class="edge">
<title>Node33&#45;&gt;Node36</title>
<path fill="none" stroke="#191970" d="M536.1847,-86C546.278,-86 556.6383,-86 566.8478,-86"/>
<polygon fill="#191970" stroke="#191970" points="566.9915,-89.5001 576.9915,-86 566.9915,-82.5001 566.9915,-89.5001"/>
</g>
<!-- Node37 -->
<g id="node13" class="node">
<title>Node37</title>
<g id="a_node13"><a xlink:href="classUIElement.html#aa7f624963eaeb31043d74219ee24386c" target="_top" xlink:title="Checks if the mouse cursor is over the current UI Element Check if the coordinates match the ones sto...">
<polygon fill="none" stroke="#000000" points="815,-95.5 815,-114.5 952,-114.5 952,-95.5 815,-95.5"/>
<text text-anchor="middle" x="883.5" y="-102.5" font-family="Helvetica,sans-Serif" font-size="10.00" fill="#000000">UIElement::isMouseOver</text>
</a>
</g>
</g>
<!-- Node36&#45;&gt;Node37 -->
<g id="edge19" class="edge">
<title>Node36&#45;&gt;Node37</title>
<path fill="none" stroke="#191970" d="M738.134,-92.779C759.802,-94.6006 783.204,-96.568 804.7673,-98.3809"/>
<polygon fill="#191970" stroke="#191970" points="804.6016,-101.8792 814.8597,-99.2294 805.1881,-94.9038 804.6016,-101.8792"/>
</g>
<!-- Node38 -->
<g id="node14" class="node">
<title>Node38</title>
<g id="a_node14"><a xlink:href="classUIElement.html#a570841bf8b7970ca935b1a00e571036a" target="_top" xlink:title="Handling for the hovering event Check, if the mouse cursor is hovering over the element. virtual function to provide custom handling if necessary (e.g. Combobox) Per default, it&#39;s the same implementation as isMouseOver. ">
<polygon fill="none" stroke="#000000" points="779,-57.5 779,-76.5 988,-76.5 988,-57.5 779,-57.5"/>
<text text-anchor="middle" x="883.5" y="-64.5" font-family="Helvetica,sans-Serif" font-size="10.00" fill="#000000">UIElement::isMouseOverHoverableArea</text>
</a>
</g>
</g>
<!-- Node36&#45;&gt;Node38 -->
<g id="edge20" class="edge">
<title>Node36&#45;&gt;Node38</title>
<path fill="none" stroke="#191970" d="M738.134,-79.221C748.0217,-78.3898 758.2705,-77.5281 768.5409,-76.6647"/>
<polygon fill="#191970" stroke="#191970" points="769.1343,-80.1273 778.8059,-75.8017 768.5478,-73.1519 769.1343,-80.1273"/>
</g>
</g>
</svg>
        <g id="navigator" transform="translate(0 0)" fill="#404254">
                <rect fill="#f2f5e9" fill-opacity="0.5" stroke="#606060" stroke-width=".5" x="0" y="0" width="60" height="60"/>
                <use id="zoomplus" xlink:href="#zoomPlus" x="17" y="9" onmousedown="handleZoom(evt,'in')"/>
                <use id="zoomminus" xlink:href="#zoomMin" x="42" y="9" onmousedown="handleZoom(evt,'out')"/>
                <use id="reset" xlink:href="#resetDef" x="30" y="36" onmousedown="handleReset()"/>
                <g id="arrowUp" xlink:href="#dirArrow" transform="translate(30 24)" onmousedown="handlePan(0,-1)">
                  <use xlink:href="#rim" fill="#404040">
                        <set attributeName="fill" to="#808080" begin="arrowUp.mouseover" end="arrowUp.mouseout"/>
                  </use>
                  <path fill="none" stroke="white" stroke-width="1.5" d="M0,-3.0v7 M-2.5,-0.5L0,-3.0L2.5,-0.5"/>
                </g>
                <g id="arrowRight" xlink:href="#dirArrow" transform="rotate(90) translate(36 -43)" onmousedown="handlePan(1,0)">
                  <use xlink:href="#rim" fill="#404040">
                        <set attributeName="fill" to="#808080" begin="arrowRight.mouseover" end="arrowRight.mouseout"/>
                  </use>
                  <path fill="none" stroke="white" stroke-width="1.5" d="M0,-3.0v7 M-2.5,-0.5L0,-3.0L2.5,-0.5"/>
                </g>
                <g id="arrowDown" xlink:href="#dirArrow" transform="rotate(180) translate(-30 -48)" onmousedown="handlePan(0,1)">
                  <use xlink:href="#rim" fill="#404040">
                        <set attributeName="fill" to="#808080" begin="arrowDown.mouseover" end="arrowDown.mouseout"/>
                  </use>
                  <path fill="none" stroke="white" stroke-width="1.5" d="M0,-3.0v7 M-2.5,-0.5L0,-3.0L2.5,-0.5"/>
                </g>
                <g id="arrowLeft" xlink:href="#dirArrow" transform="rotate(270) translate(-36 17)" onmousedown="handlePan(-1,0)">
                  <use xlink:href="#rim" fill="#404040">
                        <set attributeName="fill" to="#808080" begin="arrowLeft.mouseover" end="arrowLeft.mouseout"/>
                  </use>
                  <path fill="none" stroke="white" stroke-width="1.5" d="M0,-3.0v7 M-2.5,-0.5L0,-3.0L2.5,-0.5"/>
                </g>
        </g>
        <svg viewBox="0 0 15 15" width="100%" height="30px" preserveAspectRatio="xMaxYMin meet">
         <g id="arrow_out" transform="scale(0.3 0.3)">
          <a xlink:href="classUIManager_ac927e1cd3dea979202ea9dbf1195b583_cgraph_org.svg" target="_base">
           <rect id="button" ry="5" rx="5" y="6" x="6" height="38" width="38"
                fill="#f2f5e9" fill-opacity="0.5" stroke="#606060" stroke-width="1.0"/>
           <path id="arrow"
             d="M 11.500037,31.436501 C 11.940474,20.09759 22.043105,11.32322 32.158766,21.979434 L 37.068811,17.246167 C 37.068811,17.246167 37.088388,32 37.088388,32 L 22.160133,31.978069 C 22.160133,31.978069 26.997745,27.140456 26.997745,27.140456 C 18.528582,18.264221 13.291696,25.230495 11.500037,31.436501 z"
             style="fill:#404040;"/>
          </a>
         </g>
        </svg>
</svg>
