<?xml version="1.0" encoding="UTF-8" standalone="no"?>
<!DOCTYPE svg PUBLIC "-//W3C//DTD SVG 1.1//EN"
 "http://www.w3.org/Graphics/SVG/1.1/DTD/svg11.dtd">
<!-- Generated by graphviz version 2.40.1 (20161225.0304)
 -->
<!-- Title: Game::mainMenu Pages: 1 -->
<!--zoomable 632 -->
<svg id="main" version="1.1" xmlns="http://www.w3.org/2000/svg" xmlns:xlink="http://www.w3.org/1999/xlink" xml:space="preserve" onload="init(evt)">
<style type="text/css"><![CDATA[
.edge:hover path { stroke: red; }
.edge:hover polygon { stroke: red; fill: red; }
]]></style>
<script type="text/javascript"><![CDATA[
var edges = document.getElementsByTagName('g');
if (edges && edges.length) {
  for (var i=0;i<edges.length;i++) {
    if (edges[i].id.substr(0,4)=='edge') {
      edges[i].setAttribute('class','edge');
    }
  }
}
]]></script>
        <defs>
                <circle id="rim" cx="0" cy="0" r="7"/>
                <circle id="rim2" cx="0" cy="0" r="3.5"/>
                <g id="zoomPlus">
                        <use xlink:href="#rim" fill="#404040">
                                <set attributeName="fill" to="#808080" begin="zoomplus.mouseover" end="zoomplus.mouseout"/>
                        </use>
                        <path d="M-4,0h8M0,-4v8" fill="none" stroke="white" stroke-width="1.5" pointer-events="none"/>
                </g>
                <g id="zoomMin">
                        <use xlink:href="#rim" fill="#404040">
                                <set attributeName="fill" to="#808080" begin="zoomminus.mouseover" end="zoomminus.mouseout"/>
                        </use>
                        <path d="M-4,0h8" fill="none" stroke="white" stroke-width="1.5" pointer-events="none"/>
                </g>
                <g id="dirArrow">
                        <path fill="none" stroke="white" stroke-width="1.5" d="M0,-3.0v7 M-2.5,-0.5L0,-3.0L2.5,-0.5"/>
                </g>
               <g id="resetDef">
                       <use xlink:href="#rim2" fill="#404040">
                               <set attributeName="fill" to="#808080" begin="reset.mouseover" end="reset.mouseout"/>
                       </use>
               </g>
        </defs>

<script type="text/javascript">
var viewWidth = 863;
var viewHeight = 632;
var sectionId = 'dynsection-3';
</script>
<script xlink:href="svgpan.js"/>
<svg id="graph" class="graph">
<g id="viewport">
<title>Game::mainMenu</title>
<!-- Node13 -->
<g id="node1" class="node">
<title>Node13</title>
<polygon fill="#bfbfbf" stroke="#000000" points="0,-304.5 0,-323.5 103,-323.5 103,-304.5 0,-304.5"/>
<text text-anchor="middle" x="51.5" y="-311.5" font-family="Helvetica,sans-Serif" font-size="10.00" fill="#000000">Game::mainMenu</text>
</g>
<!-- Node14 -->
<g id="node2" class="node">
<title>Node14</title>
<g id="a_node2"><a xlink:href="classSingleton.html#af5cb1e5749949e2b68416cfb8d378044" target="_top" xlink:title="Get an instance of the singleton. ">
<polygon fill="none" stroke="#000000" points="581,-460 581,-490 694,-490 694,-460 581,-460"/>
<text text-anchor="start" x="589" y="-478" font-family="Helvetica,sans-Serif" font-size="10.00" fill="#000000">Singleton&lt; Settings</text>
<text text-anchor="middle" x="637.5" y="-467" font-family="Helvetica,sans-Serif" font-size="10.00" fill="#000000"> &gt;::instance</text>
</a>
</g>
</g>
<!-- Node13&#45;&gt;Node14 -->
<g id="edge1" class="edge">
<title>Node13&#45;&gt;Node14</title>
<path fill="none" stroke="#191970" d="M52.8114,-323.7506C56.9157,-358.4299 73.5031,-464.7094 139,-514 283.3527,-622.6347 375.1111,-595.4572 545,-534 566.7518,-526.1313 586.9886,-510.669 602.9531,-497.1077"/>
<polygon fill="#191970" stroke="#191970" points="605.6216,-499.4273 610.8975,-490.2395 601.0435,-494.1319 605.6216,-499.4273"/>
</g>
<!-- Node13&#45;&gt;Node14 -->
<g id="edge19" class="edge">
<title>Node13&#45;&gt;Node14</title>
<path fill="none" stroke="#191970" d="M52.0502,-323.9318C54.5848,-359.1487 68.2894,-478.7858 139,-532 283.3527,-640.6347 375.1111,-613.4572 545,-552 574.7433,-541.2404 601.6539,-516.2825 618.6822,-497.6796"/>
<polygon fill="#191970" stroke="#191970" points="621.338,-499.9599 625.3544,-490.1559 616.1008,-495.3154 621.338,-499.9599"/>
</g>
<!-- Node13&#45;&gt;Node14 -->
<g id="edge30" class="edge">
<title>Node13&#45;&gt;Node14</title>
<path fill="none" stroke="#191970" d="M51.7147,-323.7463C53.1951,-363.1452 64.2163,-493.7204 139,-550 283.3527,-658.6347 375.1111,-631.4572 545,-570 580.5428,-557.1424 612.0405,-524.01 627.4635,-499.3246"/>
<polygon fill="#191970" stroke="#191970" points="630.672,-500.7619 632.5624,-490.3371 624.5836,-497.3078 630.672,-500.7619"/>
</g>
<!-- Node15 -->
<g id="node3" class="node">
<title>Node15</title>
<g id="a_node3"><a xlink:href="classUIElement.html#a452ffed1ff191ababc8c15d4c455f6c2" target="_top" xlink:title="Set the uiElements sprite ID Set the sprite ID this ui element. The texture will be retrieved from th...">
<polygon fill="none" stroke="#000000" points="152,-503.5 152,-522.5 287,-522.5 287,-503.5 152,-503.5"/>
<text text-anchor="middle" x="219.5" y="-510.5" font-family="Helvetica,sans-Serif" font-size="10.00" fill="#000000">UIElement::setTextureID</text>
</a>
</g>
</g>
<!-- Node13&#45;&gt;Node15 -->
<g id="edge2" class="edge">
<title>Node13&#45;&gt;Node15</title>
<path fill="none" stroke="#191970" d="M53.7408,-323.711C60.8997,-352.591 85.9272,-438.7991 139,-485 146.0486,-491.136 154.5189,-495.9485 163.2803,-499.7173"/>
<polygon fill="#191970" stroke="#191970" points="162.2586,-503.0745 172.8481,-503.4103 164.7793,-496.5441 162.2586,-503.0745"/>
</g>
<!-- Node17 -->
<g id="node5" class="node">
<title>Node17</title>
<g id="a_node5"><a xlink:href="classUIElement.html#a440d645aa10dbf7d3c763ba6e1fc33a6" target="_top" xlink:title="Sets the UI Elements visibility. Set the UI Elements visibility. ">
<polygon fill="none" stroke="#000000" points="154,-304.5 154,-323.5 285,-323.5 285,-304.5 154,-304.5"/>
<text text-anchor="middle" x="219.5" y="-311.5" font-family="Helvetica,sans-Serif" font-size="10.00" fill="#000000">UIElement::setVisibility</text>
</a>
</g>
</g>
<!-- Node13&#45;&gt;Node17 -->
<g id="edge5" class="edge">
<title>Node13&#45;&gt;Node17</title>
<path fill="none" stroke="#191970" d="M103.2764,-314C116.0297,-314 129.9511,-314 143.5858,-314"/>
<polygon fill="#191970" stroke="#191970" points="143.9323,-317.5001 153.9322,-314 143.9322,-310.5001 143.9323,-317.5001"/>
</g>
<!-- Node18 -->
<g id="node6" class="node">
<title>Node18</title>
<g id="a_node6"><a xlink:href="classUIElement.html#a4c86f107c0e436dbeea3a899fc42fa48" target="_top" xlink:title="Sets the x,y position of this ui element Sets the x,y position of the ui element. ...">
<polygon fill="none" stroke="#000000" points="155.5,-266.5 155.5,-285.5 283.5,-285.5 283.5,-266.5 155.5,-266.5"/>
<text text-anchor="middle" x="219.5" y="-273.5" font-family="Helvetica,sans-Serif" font-size="10.00" fill="#000000">UIElement::setPosition</text>
</a>
</g>
</g>
<!-- Node13&#45;&gt;Node18 -->
<g id="edge6" class="edge">
<title>Node13&#45;&gt;Node18</title>
<path fill="none" stroke="#191970" d="M93.8935,-304.411C116.2626,-299.3513 143.8982,-293.1004 167.5472,-287.7512"/>
<polygon fill="#191970" stroke="#191970" points="168.4299,-291.1401 177.4114,-285.5201 166.8856,-284.3125 168.4299,-291.1401"/>
</g>
<!-- Node19 -->
<g id="node7" class="node">
<title>Node19</title>
<g id="a_node7"><a xlink:href="classUIElement.html#ad1c0d7431b71bdd9a3704a6d5c8a4643" target="_top" xlink:title="Get the position and the size of this ui element Gets the position and the size of this ui element...">
<polygon fill="none" stroke="#000000" points="139,-228.5 139,-247.5 300,-247.5 300,-228.5 139,-228.5"/>
<text text-anchor="middle" x="219.5" y="-235.5" font-family="Helvetica,sans-Serif" font-size="10.00" fill="#000000">UIElement::getUiElementRect</text>
</a>
</g>
</g>
<!-- Node13&#45;&gt;Node19 -->
<g id="edge7" class="edge">
<title>Node13&#45;&gt;Node19</title>
<path fill="none" stroke="#191970" d="M63.2007,-304.4596C79.3097,-291.7916 109.6674,-269.5603 139,-257 144.8041,-254.5147 150.9891,-252.3226 157.2529,-250.3964"/>
<polygon fill="#191970" stroke="#191970" points="158.4603,-253.6917 167.1177,-247.5843 156.5413,-246.9599 158.4603,-253.6917"/>
</g>
<!-- Node21 -->
<g id="node9" class="node">
<title>Node21</title>
<g id="a_node9"><a xlink:href="classUIElement.html#a570841bf8b7970ca935b1a00e571036a" target="_top" xlink:title="Handling for the hovering event Check, if the mouse cursor is hovering over the element. virtual function to provide custom handling if necessary (e.g. Combobox) Per default, it&#39;s the same implementation as isMouseOver. ">
<polygon fill="none" stroke="#000000" points="336,-190.5 336,-209.5 545,-209.5 545,-190.5 336,-190.5"/>
<text text-anchor="middle" x="440.5" y="-197.5" font-family="Helvetica,sans-Serif" font-size="10.00" fill="#000000">UIElement::isMouseOverHoverableArea</text>
</a>
</g>
</g>
<!-- Node13&#45;&gt;Node21 -->
<g id="edge31" class="edge">
<title>Node13&#45;&gt;Node21</title>
<path fill="none" stroke="#191970" d="M56.9464,-304.2159C68.8037,-284.0161 99.1232,-238.0028 139,-219 209.6382,-185.3382 300.3447,-184.4587 363.7365,-189.5841"/>
<polygon fill="#191970" stroke="#191970" points="363.7934,-193.1025 374.0614,-190.4913 364.4062,-186.1294 363.7934,-193.1025"/>
</g>
<!-- Node22 -->
<g id="node10" class="node">
<title>Node22</title>
<g id="a_node10"><a xlink:href="classText.html#a14b9f0937696af5fd95317eb8313bf92" target="_top" xlink:title="sets the text for this text widget. ">
<polygon fill="none" stroke="#000000" points="180.5,-380.5 180.5,-399.5 258.5,-399.5 258.5,-380.5 180.5,-380.5"/>
<text text-anchor="middle" x="219.5" y="-387.5" font-family="Helvetica,sans-Serif" font-size="10.00" fill="#000000">Text::setText</text>
</a>
</g>
</g>
<!-- Node13&#45;&gt;Node22 -->
<g id="edge10" class="edge">
<title>Node13&#45;&gt;Node22</title>
<path fill="none" stroke="#191970" d="M65.174,-323.5805C81.9275,-334.9686 111.4847,-353.9435 139,-366 149.0223,-370.3915 160.0849,-374.2705 170.717,-377.5601"/>
<polygon fill="#191970" stroke="#191970" points="169.7352,-380.9195 180.3179,-380.4132 171.7293,-374.2096 169.7352,-380.9195"/>
</g>
<!-- Node27 -->
<g id="node15" class="node">
<title>Node27</title>
<g id="a_node15"><a xlink:href="classButton.html#ac6a233c876164a52d54ef7f1b3fb78d1" target="_top" xlink:title="Sets the button&#39;s text sets the button&#39;s text to the string passed as an argument. ">
<polygon fill="none" stroke="#000000" points="174.5,-152.5 174.5,-171.5 264.5,-171.5 264.5,-152.5 174.5,-152.5"/>
<text text-anchor="middle" x="219.5" y="-159.5" font-family="Helvetica,sans-Serif" font-size="10.00" fill="#000000">Button::setText</text>
</a>
</g>
</g>
<!-- Node13&#45;&gt;Node27 -->
<g id="edge17" class="edge">
<title>Node13&#45;&gt;Node27</title>
<path fill="none" stroke="#191970" d="M55.3736,-304.3088C65.4168,-280.4324 94.6434,-218.3721 139,-186 146.6938,-180.3849 155.7016,-176.0728 164.852,-172.7643"/>
<polygon fill="#191970" stroke="#191970" points="165.96,-176.0845 174.3903,-169.6673 163.7982,-169.4267 165.96,-176.0845"/>
</g>
<!-- Node29 -->
<g id="node17" class="node">
<title>Node29</title>
<g id="a_node17"><a xlink:href="classEngine.html#a260d4834150eae6eec2bde34df6dc827" target="_top" xlink:title="Creates a new game Creates a new game. ">
<polygon fill="none" stroke="#000000" points="388,-465.5 388,-484.5 493,-484.5 493,-465.5 388,-465.5"/>
<text text-anchor="middle" x="440.5" y="-472.5" font-family="Helvetica,sans-Serif" font-size="10.00" fill="#000000">Engine::newGame</text>
</a>
</g>
</g>
<!-- Node13&#45;&gt;Node29 -->
<g id="edge20" class="edge">
<title>Node13&#45;&gt;Node29</title>
<path fill="none" stroke="#191970" d="M54.4988,-323.5156C63.0134,-348.7668 89.9497,-417.548 139,-447 211.9399,-490.7965 313.1559,-490.4079 377.7441,-484.1973"/>
<polygon fill="#191970" stroke="#191970" points="378.1999,-487.6689 387.7857,-483.1564 377.4781,-480.7062 378.1999,-487.6689"/>
</g>
<!-- Node30 -->
<g id="node18" class="node">
<title>Node30</title>
<g id="a_node18"><a xlink:href="classEngine.html#a83b7dbeee899b36a13d5b07c7ad87ebc" target="_top" xlink:title="Loads a saved game Loads a saved Game. ">
<polygon fill="none" stroke="#000000" points="584.5,-295.5 584.5,-314.5 690.5,-314.5 690.5,-295.5 584.5,-295.5"/>
<text text-anchor="middle" x="637.5" y="-302.5" font-family="Helvetica,sans-Serif" font-size="10.00" fill="#000000">Engine::loadGame</text>
</a>
</g>
</g>
<!-- Node13&#45;&gt;Node30 -->
<g id="edge22" class="edge">
<title>Node13&#45;&gt;Node30</title>
<path fill="none" stroke="#191970" d="M86.9785,-323.5085C102.7771,-327.2732 121.689,-331.1422 139,-333 210.147,-340.6356 228.9806,-341.7429 300,-333 316.3689,-330.9849 319.7026,-326.5291 336,-324 417.5732,-311.3411 512.8093,-307.066 574.0726,-305.6508"/>
<polygon fill="#191970" stroke="#191970" points="574.4312,-309.1441 584.3548,-305.4328 574.2828,-302.1456 574.4312,-309.1441"/>
</g>
<!-- Node32 -->
<g id="node20" class="node">
<title>Node32</title>
<g id="a_node20"><a xlink:href="classGame.html#a8272be134d16c277bb014ad6a22fc357" target="_top" xlink:title="Game::quit">
<polygon fill="none" stroke="#000000" points="184,-418.5 184,-437.5 255,-437.5 255,-418.5 184,-418.5"/>
<text text-anchor="middle" x="219.5" y="-425.5" font-family="Helvetica,sans-Serif" font-size="10.00" fill="#000000">Game::quit</text>
</a>
</g>
</g>
<!-- Node13&#45;&gt;Node32 -->
<g id="edge24" class="edge">
<title>Node13&#45;&gt;Node32</title>
<path fill="none" stroke="#191970" d="M57.4144,-323.5534C69.9253,-342.9138 101.0612,-386.8155 139,-409 149.556,-415.1725 161.9966,-419.3409 173.9,-422.1556"/>
<polygon fill="#191970" stroke="#191970" points="173.2137,-425.5877 183.7194,-424.2157 174.6511,-418.7369 173.2137,-425.5877"/>
</g>
<!-- Node34 -->
<g id="node22" class="node">
<title>Node34</title>
<g id="a_node22"><a xlink:href="classImage.html#aea00862523c7a5c9551655f2660d91a8" target="_top" xlink:title="sets the opacity of the image ">
<polygon fill="none" stroke="#000000" points="166.5,-114.5 166.5,-133.5 272.5,-133.5 272.5,-114.5 166.5,-114.5"/>
<text text-anchor="middle" x="219.5" y="-121.5" font-family="Helvetica,sans-Serif" font-size="10.00" fill="#000000">Image::setOpacity</text>
</a>
</g>
</g>
<!-- Node13&#45;&gt;Node34 -->
<g id="edge29" class="edge">
<title>Node13&#45;&gt;Node34</title>
<path fill="none" stroke="#191970" d="M53.4348,-304.4472C59.8663,-275.2628 83.3578,-186.6146 139,-143 144.3153,-138.8337 150.3945,-135.5569 156.7777,-132.9835"/>
<polygon fill="#191970" stroke="#191970" points="157.9855,-136.2693 166.2936,-129.6947 155.6988,-129.6533 157.9855,-136.2693"/>
</g>
<!-- Node35 -->
<g id="node23" class="node">
<title>Node35</title>
<g id="a_node23"><a xlink:href="classUIElement.html#a43b9f5f4be71c672ca8ed528fce1dfc5" target="_top" xlink:title="UIElement::onMouseLeave">
<polygon fill="none" stroke="#000000" points="146.5,-76.5 146.5,-95.5 292.5,-95.5 292.5,-76.5 146.5,-76.5"/>
<text text-anchor="middle" x="219.5" y="-83.5" font-family="Helvetica,sans-Serif" font-size="10.00" fill="#000000">UIElement::onMouseLeave</text>
</a>
</g>
</g>
<!-- Node13&#45;&gt;Node35 -->
<g id="edge32" class="edge">
<title>Node13&#45;&gt;Node35</title>
<path fill="none" stroke="#191970" d="M52.4936,-304.3105C56.4516,-270.9571 74.1811,-159.9346 139,-105 140.965,-103.3347 143.0498,-101.8094 145.2281,-100.4128"/>
<polygon fill="#191970" stroke="#191970" points="146.9124,-103.481 154.037,-95.6394 143.5773,-97.3265 146.9124,-103.481"/>
</g>
<!-- Node36 -->
<g id="node24" class="node">
<title>Node36</title>
<g id="a_node24"><a xlink:href="classUIElement.html#a8e089719777f393d720e3cb1708f8070" target="_top" xlink:title="UIElement::onMouseMove">
<polygon fill="none" stroke="#000000" points="148,-38.5 148,-57.5 291,-57.5 291,-38.5 148,-38.5"/>
<text text-anchor="middle" x="219.5" y="-45.5" font-family="Helvetica,sans-Serif" font-size="10.00" fill="#000000">UIElement::onMouseMove</text>
</a>
</g>
</g>
<!-- Node13&#45;&gt;Node36 -->
<g id="edge33" class="edge">
<title>Node13&#45;&gt;Node36</title>
<path fill="none" stroke="#191970" d="M51.7953,-304.4343C53.4738,-267.5992 64.6595,-133.6708 139,-67 140.7372,-65.442 142.5782,-64.0053 144.5028,-62.6807"/>
<polygon fill="#191970" stroke="#191970" points="146.4858,-65.5781 153.4145,-57.5629 142.9997,-59.5078 146.4858,-65.5781"/>
</g>
<!-- Node37 -->
<g id="node25" class="node">
<title>Node37</title>
<g id="a_node25"><a xlink:href="classUIElement.html#aaf7e8be5b7a5668c0b8aab27d01d6a30" target="_top" xlink:title="UIElement::onMouseEnter">
<polygon fill="none" stroke="#000000" points="148,-.5 148,-19.5 291,-19.5 291,-.5 148,-.5"/>
<text text-anchor="middle" x="219.5" y="-7.5" font-family="Helvetica,sans-Serif" font-size="10.00" fill="#000000">UIElement::onMouseEnter</text>
</a>
</g>
</g>
<!-- Node13&#45;&gt;Node37 -->
<g id="edge34" class="edge">
<title>Node13&#45;&gt;Node37</title>
<path fill="none" stroke="#191970" d="M53.1683,-304.2251C61.1125,-258.7925 96.4882,-68.7907 139,-29 140.5333,-27.5649 142.1541,-26.2317 143.8474,-24.9936"/>
<polygon fill="#191970" stroke="#191970" points="146.0951,-27.7252 152.8491,-19.5622 142.4787,-21.7317 146.0951,-27.7252"/>
</g>
<!-- Node15&#45;&gt;Node14 -->
<g id="edge3" class="edge">
<title>Node15&#45;&gt;Node14</title>
<path fill="none" stroke="#191970" d="M255.0095,-522.5685C315.7398,-537.2932 442.8833,-560.9366 545,-532 569.6424,-525.0171 594.1664,-509.4064 611.7652,-496.2846"/>
<polygon fill="#191970" stroke="#191970" points="614.025,-498.9621 619.8185,-490.0917 609.7578,-493.4131 614.025,-498.9621"/>
</g>
<!-- Node16 -->
<g id="node4" class="node">
<title>Node16</title>
<g id="a_node4"><a xlink:href="classResourcesManager.html#aae2a2032792aaa57862eb9c494ae1cf2" target="_top" xlink:title="ResourcesManager::getUITexture">
<polygon fill="none" stroke="#000000" points="352.5,-503.5 352.5,-522.5 528.5,-522.5 528.5,-503.5 352.5,-503.5"/>
<text text-anchor="middle" x="440.5" y="-510.5" font-family="Helvetica,sans-Serif" font-size="10.00" fill="#000000">ResourcesManager::getUITexture</text>
</a>
</g>
</g>
<!-- Node15&#45;&gt;Node16 -->
<g id="edge4" class="edge">
<title>Node15&#45;&gt;Node16</title>
<path fill="none" stroke="#191970" d="M287.0081,-513C304.3589,-513 323.3851,-513 341.9556,-513"/>
<polygon fill="#191970" stroke="#191970" points="342.2121,-516.5001 352.2121,-513 342.2121,-509.5001 342.2121,-516.5001"/>
</g>
<!-- Node20 -->
<g id="node8" class="node">
<title>Node20</title>
<g id="a_node8"><a xlink:href="classUIElement.html#aa7f624963eaeb31043d74219ee24386c" target="_top" xlink:title="Checks if the mouse cursor is over the current UI Element Check if the coordinates match the ones sto...">
<polygon fill="none" stroke="#000000" points="372,-228.5 372,-247.5 509,-247.5 509,-228.5 372,-228.5"/>
<text text-anchor="middle" x="440.5" y="-235.5" font-family="Helvetica,sans-Serif" font-size="10.00" fill="#000000">UIElement::isMouseOver</text>
</a>
</g>
</g>
<!-- Node19&#45;&gt;Node20 -->
<g id="edge8" class="edge">
<title>Node19&#45;&gt;Node20</title>
<path fill="none" stroke="#191970" d="M300.2242,-238C320.3714,-238 341.9457,-238 361.9843,-238"/>
<polygon fill="#191970" stroke="#191970" points="361.9952,-241.5001 371.9951,-238 361.9951,-234.5001 361.9952,-241.5001"/>
</g>
<!-- Node19&#45;&gt;Node21 -->
<g id="edge9" class="edge">
<title>Node19&#45;&gt;Node21</title>
<path fill="none" stroke="#191970" d="M274.9824,-228.46C305.3257,-223.2426 343.1001,-216.7475 374.8979,-211.28"/>
<polygon fill="#191970" stroke="#191970" points="375.7326,-214.6879 384.9948,-209.5439 374.5463,-207.7892 375.7326,-214.6879"/>
</g>
<!-- Node23 -->
<g id="node11" class="node">
<title>Node23</title>
<g id="a_node11"><a xlink:href="classText.html#a3bf5a064fd37d06b8d3dc5a700556897" target="_top" xlink:title="Draws a text string to the screen Draws a text string to the screen. This could either be a standalon...">
<polygon fill="none" stroke="#000000" points="375.5,-371.5 375.5,-390.5 505.5,-390.5 505.5,-371.5 375.5,-371.5"/>
<text text-anchor="middle" x="440.5" y="-378.5" font-family="Helvetica,sans-Serif" font-size="10.00" fill="#000000">Text::createTextTexture</text>
</a>
</g>
</g>
<!-- Node22&#45;&gt;Node23 -->
<g id="edge11" class="edge">
<title>Node22&#45;&gt;Node23</title>
<path fill="none" stroke="#191970" d="M258.5016,-388.4117C287.9379,-387.2129 329.2371,-385.5311 365.0547,-384.0724"/>
<polygon fill="#191970" stroke="#191970" points="365.6354,-387.5518 375.4847,-383.6477 365.3505,-380.5576 365.6354,-387.5518"/>
</g>
<!-- Node23&#45;&gt;Node14 -->
<g id="edge13" class="edge">
<title>Node23&#45;&gt;Node14</title>
<path fill="none" stroke="#191970" d="M505.6387,-381.7102C519.1179,-384.9471 532.8887,-389.6354 545,-396 564.2136,-406.097 563.8647,-415.6774 581,-429 592.1021,-437.6318 605.203,-446.297 615.9929,-453.995"/>
<polygon fill="#191970" stroke="#191970" points="613.9409,-456.8305 624.0685,-459.9423 618.0919,-451.1941 613.9409,-456.8305"/>
</g>
<!-- Node23&#45;&gt;Node14 -->
<g id="edge16" class="edge">
<title>Node23&#45;&gt;Node14</title>
<path fill="none" stroke="#191970" d="M467.1394,-390.5368C489.0755,-395.0841 520.4479,-401.0976 545,-414 564.2136,-424.097 563.8647,-433.6774 581,-447 584.0879,-449.4009 587.3305,-451.8043 590.635,-454.1489"/>
<polygon fill="#191970" stroke="#191970" points="588.6944,-457.062 598.9236,-459.8211 592.6476,-451.2851 588.6944,-457.062"/>
</g>
<!-- Node24 -->
<g id="node12" class="node">
<title>Node24</title>
<g id="a_node12"><a xlink:href="namespacefs.html#a28e4c1324680c188092ecfe5fd8a91a3" target="_top" xlink:title="fs::getBasePath">
<polygon fill="none" stroke="#000000" points="591.5,-409.5 591.5,-428.5 683.5,-428.5 683.5,-409.5 591.5,-409.5"/>
<text text-anchor="middle" x="637.5" y="-416.5" font-family="Helvetica,sans-Serif" font-size="10.00" fill="#000000">fs::getBasePath</text>
</a>
</g>
</g>
<!-- Node23&#45;&gt;Node24 -->
<g id="edge12" class="edge">
<title>Node23&#45;&gt;Node24</title>
<path fill="none" stroke="#191970" d="M489.9571,-390.54C517.7906,-395.9089 552.6384,-402.6308 581.4773,-408.1936"/>
<polygon fill="#191970" stroke="#191970" points="580.9241,-411.6513 591.406,-410.1088 582.25,-404.778 580.9241,-411.6513"/>
</g>
<!-- Node25 -->
<g id="node13" class="node">
<title>Node25</title>
<g id="a_node13"><a xlink:href="structStrongType.html#acc66e6d6b9c95193a97a839560499933" target="_top" xlink:title="StrongType::get">
<polygon fill="none" stroke="#000000" points="591.5,-371.5 591.5,-390.5 683.5,-390.5 683.5,-371.5 591.5,-371.5"/>
<text text-anchor="middle" x="637.5" y="-378.5" font-family="Helvetica,sans-Serif" font-size="10.00" fill="#000000">StrongType::get</text>
</a>
</g>
</g>
<!-- Node23&#45;&gt;Node25 -->
<g id="edge14" class="edge">
<title>Node23&#45;&gt;Node25</title>
<path fill="none" stroke="#191970" d="M505.5511,-381C529.9578,-381 557.4735,-381 581.0381,-381"/>
<polygon fill="#191970" stroke="#191970" points="581.217,-384.5001 591.217,-381 581.2169,-377.5001 581.217,-384.5001"/>
</g>
<!-- Node26 -->
<g id="node14" class="node">
<title>Node26</title>
<g id="a_node14"><a xlink:href="namespacefs.html#a000d1f9ae14d782b6193298e6d27023f" target="_top" xlink:title="fs::fileExists">
<polygon fill="none" stroke="#000000" points="599.5,-333.5 599.5,-352.5 675.5,-352.5 675.5,-333.5 599.5,-333.5"/>
<text text-anchor="middle" x="637.5" y="-340.5" font-family="Helvetica,sans-Serif" font-size="10.00" fill="#000000">fs::fileExists</text>
</a>
</g>
</g>
<!-- Node23&#45;&gt;Node26 -->
<g id="edge15" class="edge">
<title>Node23&#45;&gt;Node26</title>
<path fill="none" stroke="#191970" d="M494.2429,-371.4702C510.5591,-368.5119 528.5256,-365.1892 545,-362 559.3765,-359.2169 574.9815,-356.0629 589.2076,-353.1356"/>
<polygon fill="#191970" stroke="#191970" points="590.2008,-356.5044 599.2854,-351.0527 588.7839,-349.6493 590.2008,-356.5044"/>
</g>
<!-- Node28 -->
<g id="node16" class="node">
<title>Node28</title>
<g id="a_node16"><a xlink:href="classButton.html#af1d30ec3cf56aec6aabbd319e2be8359" target="_top" xlink:title="Button::centerTextLabel">
<polygon fill="none" stroke="#000000" points="374.5,-152.5 374.5,-171.5 506.5,-171.5 506.5,-152.5 374.5,-152.5"/>
<text text-anchor="middle" x="440.5" y="-159.5" font-family="Helvetica,sans-Serif" font-size="10.00" fill="#000000">Button::centerTextLabel</text>
</a>
</g>
</g>
<!-- Node27&#45;&gt;Node28 -->
<g id="edge18" class="edge">
<title>Node27&#45;&gt;Node28</title>
<path fill="none" stroke="#191970" d="M264.7559,-162C293.3667,-162 331.0692,-162 364.2149,-162"/>
<polygon fill="#191970" stroke="#191970" points="364.3401,-165.5001 374.3401,-162 364.3401,-158.5001 364.3401,-165.5001"/>
</g>
<!-- Node29&#45;&gt;Node14 -->
<g id="edge21" class="edge">
<title>Node29&#45;&gt;Node14</title>
<path fill="none" stroke="#191970" d="M493.0336,-475C516.8761,-475 545.3506,-475 570.6924,-475"/>
<polygon fill="#191970" stroke="#191970" points="570.9684,-478.5001 580.9683,-475 570.9683,-471.5001 570.9684,-478.5001"/>
</g>
<!-- Node31 -->
<g id="node19" class="node">
<title>Node31</title>
<g id="a_node19"><a xlink:href="classMap.html#afefe996cc1f62b61ec60d0ae415953bf" target="_top" xlink:title="Map::loadMapFromFile">
<polygon fill="none" stroke="#000000" points="730,-295.5 730,-314.5 855,-314.5 855,-295.5 730,-295.5"/>
<text text-anchor="middle" x="792.5" y="-302.5" font-family="Helvetica,sans-Serif" font-size="10.00" fill="#000000">Map::loadMapFromFile</text>
</a>
</g>
</g>
<!-- Node30&#45;&gt;Node31 -->
<g id="edge23" class="edge">
<title>Node30&#45;&gt;Node31</title>
<path fill="none" stroke="#191970" d="M690.8422,-305C700.2013,-305 710.0826,-305 719.8604,-305"/>
<polygon fill="#191970" stroke="#191970" points="719.9861,-308.5001 729.9861,-305 719.986,-301.5001 719.9861,-308.5001"/>
</g>
<!-- Node32&#45;&gt;Node14 -->
<g id="edge25" class="edge">
<title>Node32&#45;&gt;Node14</title>
<path fill="none" stroke="#191970" d="M255.2989,-424.1894C315.406,-423.8859 440.3167,-431.7993 545,-447 562.1976,-449.4972 581.0124,-453.1839 597.1566,-457.2859"/>
<polygon fill="#191970" stroke="#191970" points="596.2593,-460.6688 606.8252,-459.8866 598.0776,-453.9091 596.2593,-460.6688"/>
</g>
<!-- Node32&#45;&gt;Node14 -->
<g id="edge26" class="edge">
<title>Node32&#45;&gt;Node14</title>
<path fill="none" stroke="#191970" d="M255.2989,-435.2297C315.406,-441.8859 440.3167,-449.7993 545,-465 553.396,-466.2192 562.1774,-467.7218 570.8454,-469.2692"/>
<polygon fill="#191970" stroke="#191970" points="570.476,-472.759 580.9388,-471.092 571.72,-465.8705 570.476,-472.759"/>
</g>
<!-- Node33 -->
<g id="node21" class="node">
<title>Node33</title>
<g id="a_node21"><a xlink:href="classEngine.html#a0ba57971ffb5173ecc425461f65a4cd8" target="_top" xlink:title="Quits the game Sets m_running to false and quitting the game. ">
<polygon fill="none" stroke="#000000" points="388.5,-333.5 388.5,-352.5 492.5,-352.5 492.5,-333.5 388.5,-333.5"/>
<text text-anchor="middle" x="440.5" y="-340.5" font-family="Helvetica,sans-Serif" font-size="10.00" fill="#000000">Engine::quitGame</text>
</a>
</g>
</g>
<!-- Node32&#45;&gt;Node33 -->
<g id="edge27" class="edge">
<title>Node32&#45;&gt;Node33</title>
<path fill="none" stroke="#191970" d="M255.2454,-424.8846C270.0123,-422.2982 286.7399,-417.5832 300,-409 322.0888,-394.702 313.5475,-375.7197 336,-362 348.6566,-354.2661 363.6766,-349.5165 378.3252,-346.6394"/>
<polygon fill="#191970" stroke="#191970" points="379.1008,-350.0579 388.3736,-344.933 377.9288,-343.1567 379.1008,-350.0579"/>
</g>
<!-- Node33&#45;&gt;Node30 -->
<g id="edge28" class="edge">
<title>Node33&#45;&gt;Node30</title>
<path fill="none" stroke="#191970" d="M489.9571,-333.46C516.654,-328.3104 549.804,-321.916 577.9151,-316.4935"/>
<polygon fill="#191970" stroke="#191970" points="578.8665,-319.8746 588.0225,-314.5439 577.5406,-313.0013 578.8665,-319.8746"/>
</g>
</g>
</svg>
        <g id="navigator" transform="translate(0 0)" fill="#404254">
                <rect fill="#f2f5e9" fill-opacity="0.5" stroke="#606060" stroke-width=".5" x="0" y="0" width="60" height="60"/>
                <use id="zoomplus" xlink:href="#zoomPlus" x="17" y="9" onmousedown="handleZoom(evt,'in')"/>
                <use id="zoomminus" xlink:href="#zoomMin" x="42" y="9" onmousedown="handleZoom(evt,'out')"/>
                <use id="reset" xlink:href="#resetDef" x="30" y="36" onmousedown="handleReset()"/>
                <g id="arrowUp" xlink:href="#dirArrow" transform="translate(30 24)" onmousedown="handlePan(0,-1)">
                  <use xlink:href="#rim" fill="#404040">
                        <set attributeName="fill" to="#808080" begin="arrowUp.mouseover" end="arrowUp.mouseout"/>
                  </use>
                  <path fill="none" stroke="white" stroke-width="1.5" d="M0,-3.0v7 M-2.5,-0.5L0,-3.0L2.5,-0.5"/>
                </g>
                <g id="arrowRight" xlink:href="#dirArrow" transform="rotate(90) translate(36 -43)" onmousedown="handlePan(1,0)">
                  <use xlink:href="#rim" fill="#404040">
                        <set attributeName="fill" to="#808080" begin="arrowRight.mouseover" end="arrowRight.mouseout"/>
                  </use>
                  <path fill="none" stroke="white" stroke-width="1.5" d="M0,-3.0v7 M-2.5,-0.5L0,-3.0L2.5,-0.5"/>
                </g>
                <g id="arrowDown" xlink:href="#dirArrow" transform="rotate(180) translate(-30 -48)" onmousedown="handlePan(0,1)">
                  <use xlink:href="#rim" fill="#404040">
                        <set attributeName="fill" to="#808080" begin="arrowDown.mouseover" end="arrowDown.mouseout"/>
                  </use>
                  <path fill="none" stroke="white" stroke-width="1.5" d="M0,-3.0v7 M-2.5,-0.5L0,-3.0L2.5,-0.5"/>
                </g>
                <g id="arrowLeft" xlink:href="#dirArrow" transform="rotate(270) translate(-36 17)" onmousedown="handlePan(-1,0)">
                  <use xlink:href="#rim" fill="#404040">
                        <set attributeName="fill" to="#808080" begin="arrowLeft.mouseover" end="arrowLeft.mouseout"/>
                  </use>
                  <path fill="none" stroke="white" stroke-width="1.5" d="M0,-3.0v7 M-2.5,-0.5L0,-3.0L2.5,-0.5"/>
                </g>
        </g>
        <svg viewBox="0 0 15 15" width="100%" height="30px" preserveAspectRatio="xMaxYMin meet">
         <g id="arrow_out" transform="scale(0.3 0.3)">
          <a xlink:href="classGame_a560299f0291c281f7b44e7ef0dd7b264_cgraph_org.svg" target="_base">
           <rect id="button" ry="5" rx="5" y="6" x="6" height="38" width="38"
                fill="#f2f5e9" fill-opacity="0.5" stroke="#606060" stroke-width="1.0"/>
           <path id="arrow"
             d="M 11.500037,31.436501 C 11.940474,20.09759 22.043105,11.32322 32.158766,21.979434 L 37.068811,17.246167 C 37.068811,17.246167 37.088388,32 37.088388,32 L 22.160133,31.978069 C 22.160133,31.978069 26.997745,27.140456 26.997745,27.140456 C 18.528582,18.264221 13.291696,25.230495 11.500037,31.436501 z"
             style="fill:#404040;"/>
          </a>
         </g>
        </svg>
</svg>
