<?xml version="1.0" encoding="UTF-8" standalone="no"?>
<!DOCTYPE svg PUBLIC "-//W3C//DTD SVG 1.1//EN"
 "http://www.w3.org/Graphics/SVG/1.1/DTD/svg11.dtd">
<!-- Generated by graphviz version 2.40.1 (20161225.0304)
 -->
<!-- Title: TileManager::getAllTileData Pages: 1 -->
<!--zoomable 216 -->
<svg id="main" version="1.1" xmlns="http://www.w3.org/2000/svg" xmlns:xlink="http://www.w3.org/1999/xlink" xml:space="preserve" onload="init(evt)">
<style type="text/css"><![CDATA[
.edge:hover path { stroke: red; }
.edge:hover polygon { stroke: red; fill: red; }
]]></style>
<script type="text/javascript"><![CDATA[
var edges = document.getElementsByTagName('g');
if (edges && edges.length) {
  for (var i=0;i<edges.length;i++) {
    if (edges[i].id.substr(0,4)=='edge') {
      edges[i].setAttribute('class','edge');
    }
  }
}
]]></script>
        <defs>
                <circle id="rim" cx="0" cy="0" r="7"/>
                <circle id="rim2" cx="0" cy="0" r="3.5"/>
                <g id="zoomPlus">
                        <use xlink:href="#rim" fill="#404040">
                                <set attributeName="fill" to="#808080" begin="zoomplus.mouseover" end="zoomplus.mouseout"/>
                        </use>
                        <path d="M-4,0h8M0,-4v8" fill="none" stroke="white" stroke-width="1.5" pointer-events="none"/>
                </g>
                <g id="zoomMin">
                        <use xlink:href="#rim" fill="#404040">
                                <set attributeName="fill" to="#808080" begin="zoomminus.mouseover" end="zoomminus.mouseout"/>
                        </use>
                        <path d="M-4,0h8" fill="none" stroke="white" stroke-width="1.5" pointer-events="none"/>
                </g>
                <g id="dirArrow">
                        <path fill="none" stroke="white" stroke-width="1.5" d="M0,-3.0v7 M-2.5,-0.5L0,-3.0L2.5,-0.5"/>
                </g>
               <g id="resetDef">
                       <use xlink:href="#rim2" fill="#404040">
                               <set attributeName="fill" to="#808080" begin="reset.mouseover" end="reset.mouseout"/>
                       </use>
               </g>
        </defs>

<script type="text/javascript">
var viewWidth = 1210;
var viewHeight = 216;
var sectionId = 'dynsection-9';
</script>
<script xlink:href="svgpan.js"/>
<svg id="graph" class="graph">
<g id="viewport">
<title>TileManager::getAllTileData</title>
<!-- Node45 -->
<g id="node1" class="node">
<title>Node45</title>
<polygon fill="#bfbfbf" stroke="#000000" points="0,-112.5 0,-131.5 152,-131.5 152,-112.5 0,-112.5"/>
<text text-anchor="middle" x="76" y="-119.5" font-family="Helvetica,sans-Serif" font-size="10.00" fill="#000000">TileManager::getAllTileData</text>
</g>
<!-- Node46 -->
<g id="node2" class="node">
<title>Node46</title>
<g id="a_node2"><a xlink:href="classTileManager.html#a1575d9a9530e13fe0286b8fece9e47ea" target="_top" xlink:title="TileManager::init">
<polygon fill="none" stroke="#000000" points="375,-131.5 375,-150.5 473,-150.5 473,-131.5 375,-131.5"/>
<text text-anchor="middle" x="424" y="-138.5" font-family="Helvetica,sans-Serif" font-size="10.00" fill="#000000">TileManager::init</text>
</a>
</g>
</g>
<!-- Node45&#45;&gt;Node46 -->
<g id="edge1" class="edge">
<title>Node45&#45;&gt;Node46</title>
<path fill="none" stroke="#191970" d="M121.5521,-131.5123C141.8001,-135.2778 165.989,-139.1462 188,-141 247.9078,-146.0454 316.6737,-145.307 364.4614,-143.7575"/>
<polygon fill="#191970" stroke="#191970" points="364.7573,-147.2494 374.6301,-143.4053 364.5149,-140.2536 364.7573,-147.2494"/>
</g>
<!-- Node56 -->
<g id="node12" class="node">
<title>Node56</title>
<g id="a_node12"><a xlink:href="classTileManager.html#ac6f5d9eb4db57f9ad597223658574394" target="_top" xlink:title="TileManager::TileManager">
<polygon fill="none" stroke="#000000" points="192,-112.5 192,-131.5 335,-131.5 335,-112.5 192,-112.5"/>
<text text-anchor="middle" x="263.5" y="-119.5" font-family="Helvetica,sans-Serif" font-size="10.00" fill="#000000">TileManager::TileManager</text>
</a>
</g>
</g>
<!-- Node45&#45;&gt;Node56 -->
<g id="edge13" class="edge">
<title>Node45&#45;&gt;Node56</title>
<path fill="none" stroke="#191970" d="M152.2634,-122C161.9705,-122 171.9369,-122 181.7261,-122"/>
<polygon fill="#191970" stroke="#191970" points="181.8452,-125.5001 191.8452,-122 181.8451,-118.5001 181.8452,-125.5001"/>
</g>
<!-- Node57 -->
<g id="node13" class="node">
<title>Node57</title>
<g id="a_node13"><a xlink:href="classTileManager.html#a4ee920ba2d77b9b106151242deb48d4e" target="_top" xlink:title="TileManager::~TileManager">
<polygon fill="none" stroke="#000000" points="188,-74.5 188,-93.5 339,-93.5 339,-74.5 188,-74.5"/>
<text text-anchor="middle" x="263.5" y="-81.5" font-family="Helvetica,sans-Serif" font-size="10.00" fill="#000000">TileManager::~TileManager</text>
</a>
</g>
</g>
<!-- Node45&#45;&gt;Node57 -->
<g id="edge15" class="edge">
<title>Node45&#45;&gt;Node57</title>
<path fill="none" stroke="#191970" d="M123.3142,-112.411C148.6141,-107.2835 179.9502,-100.9328 206.575,-95.5368"/>
<polygon fill="#191970" stroke="#191970" points="207.4205,-98.9367 216.5261,-93.5201 206.0301,-92.0762 207.4205,-98.9367"/>
</g>
<!-- Node47 -->
<g id="node3" class="node">
<title>Node47</title>
<g id="a_node3"><a xlink:href="namespacefs.html#ac2d9a48234828392a1f6a6dfce785830" target="_top" xlink:title="Read contents from a file as string. ">
<polygon fill="none" stroke="#000000" points="532,-188.5 532,-207.5 642,-207.5 642,-188.5 532,-188.5"/>
<text text-anchor="middle" x="587" y="-195.5" font-family="Helvetica,sans-Serif" font-size="10.00" fill="#000000">fs::readFileAsString</text>
</a>
</g>
</g>
<!-- Node46&#45;&gt;Node47 -->
<g id="edge2" class="edge">
<title>Node46&#45;&gt;Node47</title>
<path fill="none" stroke="#191970" d="M447.2836,-150.56C464.2718,-157.4073 487.9161,-166.6742 509,-174 520.3863,-177.9563 532.8193,-181.9337 544.3458,-185.4812"/>
<polygon fill="#191970" stroke="#191970" points="543.6068,-188.9147 554.1926,-188.4767 545.6442,-182.2177 543.6068,-188.9147"/>
</g>
<!-- Node48 -->
<g id="node4" class="node">
<title>Node48</title>
<g id="a_node4"><a xlink:href="classSingleton.html#af5cb1e5749949e2b68416cfb8d378044" target="_top" xlink:title="Get an instance of the singleton. ">
<polygon fill="none" stroke="#000000" points="1089,-107 1089,-137 1202,-137 1202,-107 1089,-107"/>
<text text-anchor="start" x="1097" y="-125" font-family="Helvetica,sans-Serif" font-size="10.00" fill="#000000">Singleton&lt; Settings</text>
<text text-anchor="middle" x="1145.5" y="-114" font-family="Helvetica,sans-Serif" font-size="10.00" fill="#000000"> &gt;::instance</text>
</a>
</g>
</g>
<!-- Node46&#45;&gt;Node48 -->
<g id="edge3" class="edge">
<title>Node46&#45;&gt;Node48</title>
<path fill="none" stroke="#191970" d="M473.3954,-141.7401C579.5788,-142.9959 837.4337,-144.248 1053,-131 1061.3341,-130.4878 1070.0786,-129.8149 1078.7271,-129.0672"/>
<polygon fill="#191970" stroke="#191970" points="1079.1592,-132.5426 1088.8053,-128.1603 1078.5318,-125.5708 1079.1592,-132.5426"/>
</g>
<!-- Node49 -->
<g id="node5" class="node">
<title>Node49</title>
<g id="a_node5"><a xlink:href="structStrongType.html#acc66e6d6b9c95193a97a839560499933" target="_top" xlink:title="StrongType::get">
<polygon fill="none" stroke="#000000" points="541,-112.5 541,-131.5 633,-131.5 633,-112.5 541,-112.5"/>
<text text-anchor="middle" x="587" y="-119.5" font-family="Helvetica,sans-Serif" font-size="10.00" fill="#000000">StrongType::get</text>
</a>
</g>
</g>
<!-- Node46&#45;&gt;Node49 -->
<g id="edge4" class="edge">
<title>Node46&#45;&gt;Node49</title>
<path fill="none" stroke="#191970" d="M473.3477,-135.2478C491.4526,-133.1374 512.0785,-130.7332 530.7443,-128.5574"/>
<polygon fill="#191970" stroke="#191970" points="531.3565,-132.0098 540.884,-127.3755 530.546,-125.0569 531.3565,-132.0098"/>
</g>
<!-- Node50 -->
<g id="node6" class="node">
<title>Node50</title>
<g id="a_node6"><a xlink:href="classTileManager.html#a9e03faf9425ee26a2f5fb1fa4c94d173" target="_top" xlink:title="TileManager::addJSONObject\lToTileData">
<polygon fill="none" stroke="#000000" points="509,-63 509,-93 665,-93 665,-63 509,-63"/>
<text text-anchor="start" x="517" y="-81" font-family="Helvetica,sans-Serif" font-size="10.00" fill="#000000">TileManager::addJSONObject</text>
<text text-anchor="middle" x="587" y="-70" font-family="Helvetica,sans-Serif" font-size="10.00" fill="#000000">ToTileData</text>
</a>
</g>
</g>
<!-- Node46&#45;&gt;Node50 -->
<g id="edge5" class="edge">
<title>Node46&#45;&gt;Node50</title>
<path fill="none" stroke="#191970" d="M443.6624,-131.4664C460.7257,-123.3732 486.2021,-111.7191 509,-103 514.9271,-100.7332 521.1579,-98.497 527.4065,-96.3496"/>
<polygon fill="#191970" stroke="#191970" points="528.8363,-99.5615 537.1992,-93.0567 526.6052,-92.9266 528.8363,-99.5615"/>
</g>
<!-- Node50&#45;&gt;Node48 -->
<g id="edge6" class="edge">
<title>Node50&#45;&gt;Node48</title>
<path fill="none" stroke="#191970" d="M665.0312,-92.1623C677.0467,-94.0076 689.334,-95.7037 701,-97 834.5626,-111.8415 991.7351,-118.055 1078.8399,-120.5143"/>
<polygon fill="#191970" stroke="#191970" points="1078.7587,-124.0133 1088.851,-120.789 1078.9509,-117.0159 1078.7587,-124.0133"/>
</g>
<!-- Node51 -->
<g id="node7" class="node">
<title>Node51</title>
<g id="a_node7"><a xlink:href="classResourcesManager.html#ab376a89547592db4cca25309eac2931c" target="_top" xlink:title="ResourcesManager::loadTexture">
<polygon fill="none" stroke="#000000" points="701,-68.5 701,-87.5 872,-87.5 872,-68.5 701,-68.5"/>
<text text-anchor="middle" x="786.5" y="-75.5" font-family="Helvetica,sans-Serif" font-size="10.00" fill="#000000">ResourcesManager::loadTexture</text>
</a>
</g>
</g>
<!-- Node50&#45;&gt;Node51 -->
<g id="edge7" class="edge">
<title>Node50&#45;&gt;Node51</title>
<path fill="none" stroke="#191970" d="M665.2751,-78C673.6703,-78 682.2787,-78 690.8466,-78"/>
<polygon fill="#191970" stroke="#191970" points="690.8709,-81.5001 700.8709,-78 690.8709,-74.5001 690.8709,-81.5001"/>
</g>
<!-- Node52 -->
<g id="node8" class="node">
<title>Node52</title>
<g id="a_node8"><a xlink:href="classResourcesManager.html#a54721d26f52c4887b735d2cdaf60b078" target="_top" xlink:title="ResourcesManager::create\lSurfaceFromFile">
<polygon fill="none" stroke="#000000" points="908,-14 908,-44 1053,-44 1053,-14 908,-14"/>
<text text-anchor="start" x="916" y="-32" font-family="Helvetica,sans-Serif" font-size="10.00" fill="#000000">ResourcesManager::create</text>
<text text-anchor="middle" x="980.5" y="-21" font-family="Helvetica,sans-Serif" font-size="10.00" fill="#000000">SurfaceFromFile</text>
</a>
</g>
</g>
<!-- Node51&#45;&gt;Node52 -->
<g id="edge8" class="edge">
<title>Node51&#45;&gt;Node52</title>
<path fill="none" stroke="#191970" d="M824.3657,-68.436C849.034,-62.2053 881.9534,-53.8906 911.204,-46.5026"/>
<polygon fill="#191970" stroke="#191970" points="912.1275,-49.8793 920.9659,-44.037 910.4132,-43.0925 912.1275,-49.8793"/>
</g>
<!-- Node55 -->
<g id="node11" class="node">
<title>Node55</title>
<g id="a_node11"><a xlink:href="classResourcesManager.html#ad7712ca96233a151d8bc22cd2ba17d01" target="_top" xlink:title="ResourcesManager::create\lTextureFromSurface">
<polygon fill="none" stroke="#000000" points="908,-63 908,-93 1053,-93 1053,-63 908,-63"/>
<text text-anchor="start" x="916" y="-81" font-family="Helvetica,sans-Serif" font-size="10.00" fill="#000000">ResourcesManager::create</text>
<text text-anchor="middle" x="980.5" y="-70" font-family="Helvetica,sans-Serif" font-size="10.00" fill="#000000">TextureFromSurface</text>
</a>
</g>
</g>
<!-- Node51&#45;&gt;Node55 -->
<g id="edge11" class="edge">
<title>Node51&#45;&gt;Node55</title>
<path fill="none" stroke="#191970" d="M872.1559,-78C880.599,-78 889.1583,-78 897.5732,-78"/>
<polygon fill="#191970" stroke="#191970" points="897.7485,-81.5001 907.7484,-78 897.7484,-74.5001 897.7485,-81.5001"/>
</g>
<!-- Node53 -->
<g id="node9" class="node">
<title>Node53</title>
<g id="a_node9"><a xlink:href="namespacefs.html#a28e4c1324680c188092ecfe5fd8a91a3" target="_top" xlink:title="fs::getBasePath">
<polygon fill="none" stroke="#000000" points="1099.5,-38.5 1099.5,-57.5 1191.5,-57.5 1191.5,-38.5 1099.5,-38.5"/>
<text text-anchor="middle" x="1145.5" y="-45.5" font-family="Helvetica,sans-Serif" font-size="10.00" fill="#000000">fs::getBasePath</text>
</a>
</g>
</g>
<!-- Node52&#45;&gt;Node53 -->
<g id="edge9" class="edge">
<title>Node52&#45;&gt;Node53</title>
<path fill="none" stroke="#191970" d="M1053.3517,-37.389C1065.2491,-38.759 1077.4179,-40.1602 1088.8501,-41.4767"/>
<polygon fill="#191970" stroke="#191970" points="1088.7782,-44.9914 1099.1129,-42.6585 1089.579,-38.0374 1088.7782,-44.9914"/>
</g>
<!-- Node54 -->
<g id="node10" class="node">
<title>Node54</title>
<g id="a_node10"><a xlink:href="namespacefs.html#a000d1f9ae14d782b6193298e6d27023f" target="_top" xlink:title="fs::fileExists">
<polygon fill="none" stroke="#000000" points="1107.5,-.5 1107.5,-19.5 1183.5,-19.5 1183.5,-.5 1107.5,-.5"/>
<text text-anchor="middle" x="1145.5" y="-7.5" font-family="Helvetica,sans-Serif" font-size="10.00" fill="#000000">fs::fileExists</text>
</a>
</g>
</g>
<!-- Node52&#45;&gt;Node54 -->
<g id="edge10" class="edge">
<title>Node52&#45;&gt;Node54</title>
<path fill="none" stroke="#191970" d="M1053.3517,-20.611C1068.2113,-18.8999 1083.4943,-17.14 1097.2366,-15.5576"/>
<polygon fill="#191970" stroke="#191970" points="1097.8786,-19.0069 1107.4126,-14.3858 1097.0778,-12.0528 1097.8786,-19.0069"/>
</g>
<!-- Node55&#45;&gt;Node48 -->
<g id="edge12" class="edge">
<title>Node55&#45;&gt;Node48</title>
<path fill="none" stroke="#191970" d="M1036.8222,-93.0192C1050.4196,-96.6452 1065.0754,-100.5534 1079.0872,-104.2899"/>
<polygon fill="#191970" stroke="#191970" points="1078.5875,-107.7789 1089.1517,-106.9738 1080.3912,-101.0153 1078.5875,-107.7789"/>
</g>
<!-- Node56&#45;&gt;Node46 -->
<g id="edge14" class="edge">
<title>Node56&#45;&gt;Node46</title>
<path fill="none" stroke="#191970" d="M335.3001,-130.4997C345.1072,-131.6607 355.0845,-132.8418 364.6374,-133.9727"/>
<polygon fill="#191970" stroke="#191970" points="364.4665,-137.4768 374.8086,-135.1767 365.2895,-130.5253 364.4665,-137.4768"/>
</g>
</g>
</svg>
        <g id="navigator" transform="translate(0 0)" fill="#404254">
                <rect fill="#f2f5e9" fill-opacity="0.5" stroke="#606060" stroke-width=".5" x="0" y="0" width="60" height="60"/>
                <use id="zoomplus" xlink:href="#zoomPlus" x="17" y="9" onmousedown="handleZoom(evt,'in')"/>
                <use id="zoomminus" xlink:href="#zoomMin" x="42" y="9" onmousedown="handleZoom(evt,'out')"/>
                <use id="reset" xlink:href="#resetDef" x="30" y="36" onmousedown="handleReset()"/>
                <g id="arrowUp" xlink:href="#dirArrow" transform="translate(30 24)" onmousedown="handlePan(0,-1)">
                  <use xlink:href="#rim" fill="#404040">
                        <set attributeName="fill" to="#808080" begin="arrowUp.mouseover" end="arrowUp.mouseout"/>
                  </use>
                  <path fill="none" stroke="white" stroke-width="1.5" d="M0,-3.0v7 M-2.5,-0.5L0,-3.0L2.5,-0.5"/>
                </g>
                <g id="arrowRight" xlink:href="#dirArrow" transform="rotate(90) translate(36 -43)" onmousedown="handlePan(1,0)">
                  <use xlink:href="#rim" fill="#404040">
                        <set attributeName="fill" to="#808080" begin="arrowRight.mouseover" end="arrowRight.mouseout"/>
                  </use>
                  <path fill="none" stroke="white" stroke-width="1.5" d="M0,-3.0v7 M-2.5,-0.5L0,-3.0L2.5,-0.5"/>
                </g>
                <g id="arrowDown" xlink:href="#dirArrow" transform="rotate(180) translate(-30 -48)" onmousedown="handlePan(0,1)">
                  <use xlink:href="#rim" fill="#404040">
                        <set attributeName="fill" to="#808080" begin="arrowDown.mouseover" end="arrowDown.mouseout"/>
                  </use>
                  <path fill="none" stroke="white" stroke-width="1.5" d="M0,-3.0v7 M-2.5,-0.5L0,-3.0L2.5,-0.5"/>
                </g>
                <g id="arrowLeft" xlink:href="#dirArrow" transform="rotate(270) translate(-36 17)" onmousedown="handlePan(-1,0)">
                  <use xlink:href="#rim" fill="#404040">
                        <set attributeName="fill" to="#808080" begin="arrowLeft.mouseover" end="arrowLeft.mouseout"/>
                  </use>
                  <path fill="none" stroke="white" stroke-width="1.5" d="M0,-3.0v7 M-2.5,-0.5L0,-3.0L2.5,-0.5"/>
                </g>
        </g>
        <svg viewBox="0 0 15 15" width="100%" height="30px" preserveAspectRatio="xMaxYMin meet">
         <g id="arrow_out" transform="scale(0.3 0.3)">
          <a xlink:href="classTileManager_af094937b10637c493557e22b42cf25ed_cgraph_org.svg" target="_base">
           <rect id="button" ry="5" rx="5" y="6" x="6" height="38" width="38"
                fill="#f2f5e9" fill-opacity="0.5" stroke="#606060" stroke-width="1.0"/>
           <path id="arrow"
             d="M 11.500037,31.436501 C 11.940474,20.09759 22.043105,11.32322 32.158766,21.979434 L 37.068811,17.246167 C 37.068811,17.246167 37.088388,32 37.088388,32 L 22.160133,31.978069 C 22.160133,31.978069 26.997745,27.140456 26.997745,27.140456 C 18.528582,18.264221 13.291696,25.230495 11.500037,31.436501 z"
             style="fill:#404040;"/>
          </a>
         </g>
        </svg>
</svg>
