<?xml version="1.0" encoding="UTF-8" standalone="no"?>
<!DOCTYPE svg PUBLIC "-//W3C//DTD SVG 1.1//EN"
 "http://www.w3.org/Graphics/SVG/1.1/DTD/svg11.dtd">
<!-- Generated by graphviz version 2.40.1 (20161225.0304)
 -->
<!-- Title: Rectangle::EMPTY Pages: 1 -->
<svg width="408pt" height="142pt"
 viewBox="0.00 0.00 408.00 142.00" xmlns="http://www.w3.org/2000/svg" xmlns:xlink="http://www.w3.org/1999/xlink">
<g id="graph0" class="graph" transform="scale(1 1) rotate(0) translate(4 138)">
<title>Rectangle::EMPTY</title>
<!-- Node5 -->
<g id="node1" class="node">
<title>Node5</title>
<polygon fill="#bfbfbf" stroke="#000000" points="0,-57.5 0,-76.5 103,-76.5 103,-57.5 0,-57.5"/>
<text text-anchor="middle" x="51.5" y="-64.5" font-family="Helvetica,sans-Serif" font-size="10.00" fill="#000000">Rectangle::EMPTY</text>
</g>
<!-- Node6 -->
<g id="node2" class="node">
<title>Node6</title>
<g id="a_node2"><a xlink:href="classPixelBuffer.html#a5402df89a5dc5b23594a697285f21e34" target="_top" xlink:title="Scale the pixel buffer using nearest&#45;neighbor in both dimensions. ">
<polygon fill="none" stroke="#000000" points="152.5,-114.5 152.5,-133.5 253.5,-133.5 253.5,-114.5 152.5,-114.5"/>
<text text-anchor="middle" x="203" y="-121.5" font-family="Helvetica,sans-Serif" font-size="10.00" fill="#000000">PixelBuffer::scale</text>
</a>
</g>
</g>
<!-- Node5&#45;&gt;Node6 -->
<g id="edge1" class="edge">
<title>Node5&#45;&gt;Node6</title>
<path fill="none" stroke="#191970" d="M81.0152,-80.8815C97.8109,-88.5107 119.3561,-97.8484 139,-105 148.2574,-108.3703 158.423,-111.5972 167.8731,-114.4043"/>
<polygon fill="#191970" stroke="#191970" points="82.2735,-77.608 71.7252,-76.6163 79.3528,-83.9696 82.2735,-77.608"/>
</g>
<!-- Node7 -->
<g id="node3" class="node">
<title>Node7</title>
<g id="a_node3"><a xlink:href="classPixelBuffer.html#ae09c4ca3f5db07bf6ab22d8cfea9122c" target="_top" xlink:title="PixelBuffer::EMPTY">
<polygon fill="none" stroke="#000000" points="149,-76.5 149,-95.5 257,-95.5 257,-76.5 149,-76.5"/>
<text text-anchor="middle" x="203" y="-83.5" font-family="Helvetica,sans-Serif" font-size="10.00" fill="#000000">PixelBuffer::EMPTY</text>
</a>
</g>
</g>
<!-- Node5&#45;&gt;Node7 -->
<g id="edge2" class="edge">
<title>Node5&#45;&gt;Node7</title>
<path fill="none" stroke="#191970" d="M113.4139,-74.7648C125.19,-76.2417 137.428,-77.7764 148.9366,-79.2198"/>
<polygon fill="#191970" stroke="#191970" points="113.5718,-71.2572 103.214,-73.4856 112.7007,-78.2028 113.5718,-71.2572"/>
</g>
<!-- Node8 -->
<g id="node4" class="node">
<title>Node8</title>
<g id="a_node4"><a xlink:href="classRectangle.html#a4489166815bd21aabea7a321392f1c5a" target="_top" xlink:title="Intersects with another rectangle. ">
<polygon fill="none" stroke="#000000" points="146.5,-38.5 146.5,-57.5 259.5,-57.5 259.5,-38.5 146.5,-38.5"/>
<text text-anchor="middle" x="203" y="-45.5" font-family="Helvetica,sans-Serif" font-size="10.00" fill="#000000">Rectangle::intersect</text>
</a>
</g>
</g>
<!-- Node5&#45;&gt;Node8 -->
<g id="edge3" class="edge">
<title>Node5&#45;&gt;Node8</title>
<path fill="none" stroke="#191970" d="M113.1484,-59.2685C124.1213,-57.8924 135.5035,-56.4649 146.3295,-55.1072"/>
<polygon fill="#191970" stroke="#191970" points="112.7007,-55.7972 103.214,-60.5144 113.5718,-62.7428 112.7007,-55.7972"/>
</g>
<!-- Node10 -->
<g id="node6" class="node">
<title>Node10</title>
<g id="a_node6"><a xlink:href="classRectangle.html#a029e5e04247e35336b5a45a08fc65e18" target="_top" xlink:title="Scales by Factor around the center of the Rectangle. ">
<polygon fill="none" stroke="#000000" points="139,-.5 139,-19.5 267,-19.5 267,-.5 139,-.5"/>
<text text-anchor="middle" x="203" y="-7.5" font-family="Helvetica,sans-Serif" font-size="10.00" fill="#000000">Rectangle::scaleCenter</text>
</a>
</g>
</g>
<!-- Node5&#45;&gt;Node10 -->
<g id="edge5" class="edge">
<title>Node5&#45;&gt;Node10</title>
<path fill="none" stroke="#191970" d="M81.0152,-53.1185C97.8109,-45.4893 119.3561,-36.1516 139,-29 148.2574,-25.6297 158.423,-22.4028 167.8731,-19.5957"/>
<polygon fill="#191970" stroke="#191970" points="79.3528,-50.0304 71.7252,-57.3837 82.2735,-56.392 79.3528,-50.0304"/>
</g>
<!-- Node9 -->
<g id="node5" class="node">
<title>Node9</title>
<g id="a_node5"><a xlink:href="classPixelBuffer.html#abbad3bec56ca536a543c42024045c99d" target="_top" xlink:title="Crop the pixel buffer around a region. ">
<polygon fill="none" stroke="#000000" points="303,-38.5 303,-57.5 400,-57.5 400,-38.5 303,-38.5"/>
<text text-anchor="middle" x="351.5" y="-45.5" font-family="Helvetica,sans-Serif" font-size="10.00" fill="#000000">PixelBuffer::crop</text>
</a>
</g>
</g>
<!-- Node8&#45;&gt;Node9 -->
<g id="edge4" class="edge">
<title>Node8&#45;&gt;Node9</title>
<path fill="none" stroke="#191970" d="M269.716,-48C280.8713,-48 292.2558,-48 302.8482,-48"/>
<polygon fill="#191970" stroke="#191970" points="269.5651,-44.5001 259.5651,-48 269.5651,-51.5001 269.5651,-44.5001"/>
</g>
</g>
</svg>
