<?xml version="1.0" encoding="UTF-8" standalone="no"?>
<!DOCTYPE svg PUBLIC "-//W3C//DTD SVG 1.1//EN"
 "http://www.w3.org/Graphics/SVG/1.1/DTD/svg11.dtd">
<!-- Generated by graphviz version 2.40.1 (20161225.0304)
 -->
<!-- Title: Settings Pages: 1 -->
<svg width="298pt" height="431pt"
 viewBox="0.00 0.00 297.50 431.00" xmlns="http://www.w3.org/2000/svg" xmlns:xlink="http://www.w3.org/1999/xlink">
<g id="graph0" class="graph" transform="scale(1 1) rotate(0) translate(4 427)">
<title>Settings</title>
<!-- Node0 -->
<g id="node1" class="node">
<title>Node0</title>
<polygon fill="#bfbfbf" stroke="#000000" points="47.5,-.5 47.5,-90.5 183.5,-90.5 183.5,-.5 47.5,-.5"/>
<text text-anchor="middle" x="115.5" y="-78.5" font-family="Helvetica,sans-Serif" font-size="10.00" fill="#000000">Settings</text>
<polyline fill="none" stroke="#000000" points="47.5,-71.5 183.5,-71.5 "/>
<text text-anchor="start" x="55.5" y="-59.5" font-family="Helvetica,sans-Serif" font-size="10.00" fill="#000000">+ Singleton&lt; Settings &gt;</text>
<polyline fill="none" stroke="#000000" points="47.5,-52.5 183.5,-52.5 "/>
<text text-anchor="start" x="55.5" y="-40.5" font-family="Helvetica,sans-Serif" font-size="10.00" fill="#000000">+ readFile()</text>
<text text-anchor="start" x="55.5" y="-29.5" font-family="Helvetica,sans-Serif" font-size="10.00" fill="#000000">+ writeFile()</text>
<text text-anchor="start" x="55.5" y="-18.5" font-family="Helvetica,sans-Serif" font-size="10.00" fill="#000000">&#45; Settings()</text>
<text text-anchor="start" x="55.5" y="-7.5" font-family="Helvetica,sans-Serif" font-size="10.00" fill="#000000">&#45; ~Settings()</text>
</g>
<!-- Node1 -->
<g id="node2" class="node">
<title>Node1</title>
<g id="a_node2"><a xlink:href="structSettingsData.html" target="_top" xlink:title="{SettingsData\n|+ mapSize\l+ screenWidth\l+ screenHeight\l+ currentScreenWidth\l+ currentScreenHeight\l+ maxElevationHeight\l+ zoneLayerTransperancy\l+ vSync\l+ fullScreen\l+ fullScreenMode\land 17 more...\l|}">
<polygon fill="none" stroke="#000000" points="0,-128.5 0,-295.5 143,-295.5 143,-128.5 0,-128.5"/>
<text text-anchor="middle" x="71.5" y="-283.5" font-family="Helvetica,sans-Serif" font-size="10.00" fill="#000000">SettingsData</text>
<polyline fill="none" stroke="#000000" points="0,-276.5 143,-276.5 "/>
<text text-anchor="start" x="8" y="-264.5" font-family="Helvetica,sans-Serif" font-size="10.00" fill="#000000">+ mapSize</text>
<text text-anchor="start" x="8" y="-253.5" font-family="Helvetica,sans-Serif" font-size="10.00" fill="#000000">+ screenWidth</text>
<text text-anchor="start" x="8" y="-242.5" font-family="Helvetica,sans-Serif" font-size="10.00" fill="#000000">+ screenHeight</text>
<text text-anchor="start" x="8" y="-231.5" font-family="Helvetica,sans-Serif" font-size="10.00" fill="#000000">+ currentScreenWidth</text>
<text text-anchor="start" x="8" y="-220.5" font-family="Helvetica,sans-Serif" font-size="10.00" fill="#000000">+ currentScreenHeight</text>
<text text-anchor="start" x="8" y="-209.5" font-family="Helvetica,sans-Serif" font-size="10.00" fill="#000000">+ maxElevationHeight</text>
<text text-anchor="start" x="8" y="-198.5" font-family="Helvetica,sans-Serif" font-size="10.00" fill="#000000">+ zoneLayerTransperancy</text>
<text text-anchor="start" x="8" y="-187.5" font-family="Helvetica,sans-Serif" font-size="10.00" fill="#000000">+ vSync</text>
<text text-anchor="start" x="8" y="-176.5" font-family="Helvetica,sans-Serif" font-size="10.00" fill="#000000">+ fullScreen</text>
<text text-anchor="start" x="8" y="-165.5" font-family="Helvetica,sans-Serif" font-size="10.00" fill="#000000">+ fullScreenMode</text>
<text text-anchor="start" x="8" y="-154.5" font-family="Helvetica,sans-Serif" font-size="10.00" fill="#000000">and 17 more...</text>
<polyline fill="none" stroke="#000000" points="0,-147.5 143,-147.5 "/>
<text text-anchor="middle" x="71.5" y="-135.5" font-family="Helvetica,sans-Serif" font-size="10.00" fill="#000000"> </text>
</a>
</g>
</g>
<!-- Node1&#45;&gt;Node0 -->
<g id="edge1" class="edge">
<title>Node1&#45;&gt;Node0</title>
<path fill="none" stroke="#191970" d="M96.191,-118.5672C98.7419,-108.9143 101.2438,-99.4469 103.5567,-90.6945"/>
<polygon fill="none" stroke="#191970" points="92.8001,-117.6998 93.6289,-128.2622 99.5678,-119.4884 92.8001,-117.6998"/>
</g>
<!-- Node2 -->
<g id="node3" class="node">
<title>Node2</title>
<g id="a_node3"><a xlink:href="classSingleton.html" target="_top" xlink:title="{Singleton\&lt; Settings \&gt;\n||+ instance()\l# Singleton()\l# ~Singleton()\l}">
<polygon fill="none" stroke="#000000" points="161,-172.5 161,-251.5 286,-251.5 286,-172.5 161,-172.5"/>
<text text-anchor="middle" x="223.5" y="-239.5" font-family="Helvetica,sans-Serif" font-size="10.00" fill="#000000">Singleton&lt; Settings &gt;</text>
<polyline fill="none" stroke="#000000" points="161,-232.5 286,-232.5 "/>
<text text-anchor="middle" x="223.5" y="-220.5" font-family="Helvetica,sans-Serif" font-size="10.00" fill="#000000"> </text>
<polyline fill="none" stroke="#000000" points="161,-213.5 286,-213.5 "/>
<text text-anchor="start" x="169" y="-201.5" font-family="Helvetica,sans-Serif" font-size="10.00" fill="#000000">+ instance()</text>
<text text-anchor="start" x="169" y="-190.5" font-family="Helvetica,sans-Serif" font-size="10.00" fill="#000000"># Singleton()</text>
<text text-anchor="start" x="169" y="-179.5" font-family="Helvetica,sans-Serif" font-size="10.00" fill="#000000"># ~Singleton()</text>
</a>
</g>
</g>
<!-- Node2&#45;&gt;Node0 -->
<g id="edge2" class="edge">
<title>Node2&#45;&gt;Node0</title>
<path fill="none" stroke="#191970" d="M192.0616,-163.5324C177.1389,-140.5267 159.4137,-113.2002 144.7781,-90.6371"/>
<polygon fill="none" stroke="#191970" points="189.253,-165.6342 197.6313,-172.1191 195.1257,-161.8248 189.253,-165.6342"/>
</g>
<!-- Node3 -->
<g id="node4" class="node">
<title>Node3</title>
<g id="a_node4"><a xlink:href="classSingleton.html" target="_top" xlink:title="Abstract Singleton implementation. ">
<polygon fill="none" stroke="#000000" points="178,-343.5 178,-422.5 269,-422.5 269,-343.5 178,-343.5"/>
<text text-anchor="middle" x="223.5" y="-410.5" font-family="Helvetica,sans-Serif" font-size="10.00" fill="#000000">Singleton&lt; T &gt;</text>
<polyline fill="none" stroke="#000000" points="178,-403.5 269,-403.5 "/>
<text text-anchor="middle" x="223.5" y="-391.5" font-family="Helvetica,sans-Serif" font-size="10.00" fill="#000000"> </text>
<polyline fill="none" stroke="#000000" points="178,-384.5 269,-384.5 "/>
<text text-anchor="start" x="186" y="-372.5" font-family="Helvetica,sans-Serif" font-size="10.00" fill="#000000">+ instance()</text>
<text text-anchor="start" x="186" y="-361.5" font-family="Helvetica,sans-Serif" font-size="10.00" fill="#000000"># Singleton()</text>
<text text-anchor="start" x="186" y="-350.5" font-family="Helvetica,sans-Serif" font-size="10.00" fill="#000000"># ~Singleton()</text>
</a>
</g>
</g>
<!-- Node3&#45;&gt;Node2 -->
<g id="edge3" class="edge">
<title>Node3&#45;&gt;Node2</title>
<path fill="none" stroke="#ffa500" d="M223.5,-333.3201C223.5,-307.3749 223.5,-276.0579 223.5,-251.7414"/>
<polygon fill="#ffa500" stroke="#ffa500" points="220.0001,-333.3393 223.5,-343.3394 227.0001,-333.3394 220.0001,-333.3393"/>
<text text-anchor="middle" x="256.5" y="-317" font-family="Helvetica,sans-Serif" font-size="10.00" fill="#000000"> &lt; Settings &gt;</text>
</g>
</g>
</svg>
