<?xml version="1.0" encoding="UTF-8" standalone="no"?>
<!DOCTYPE svg PUBLIC "-//W3C//DTD SVG 1.1//EN"
 "http://www.w3.org/Graphics/SVG/1.1/DTD/svg11.dtd">
<!-- Generated by graphviz version 2.40.1 (20161225.0304)
 -->
<!-- Title: Map::refresh Pages: 1 -->
<svg width="1215pt" height="261pt"
 viewBox="0.00 0.00 1215.00 261.25" xmlns="http://www.w3.org/2000/svg" xmlns:xlink="http://www.w3.org/1999/xlink">
<g id="graph0" class="graph" transform="scale(1 1) rotate(0) translate(4 257.2462)">
<title>Map::refresh</title>
<!-- Node136 -->
<g id="node1" class="node">
<title>Node136</title>
<polygon fill="#bfbfbf" stroke="#000000" points="0,-145 0,-164 77,-164 77,-145 0,-145"/>
<text text-anchor="middle" x="38.5" y="-152" font-family="Helvetica,sans-Serif" font-size="10.00" fill="#000000">Map::refresh</text>
</g>
<!-- Node137 -->
<g id="node2" class="node">
<title>Node137</title>
<g id="a_node2"><a xlink:href="classCamera.html#a0a8ee04ccb4f4cc9af52a964cf225f66" target="_top" xlink:title="Increases the zoom level of the camera Increases the zoom level of the camera. ">
<polygon fill="none" stroke="#000000" points="345.5,-202 345.5,-221 502.5,-221 502.5,-202 345.5,-202"/>
<text text-anchor="middle" x="424" y="-209" font-family="Helvetica,sans-Serif" font-size="10.00" fill="#000000">Camera::increaseZoomLevel</text>
</a>
</g>
</g>
<!-- Node136&#45;&gt;Node137 -->
<g id="edge1" class="edge">
<title>Node136&#45;&gt;Node137</title>
<path fill="none" stroke="#191970" d="M61.5024,-169.3613C75.7382,-177.7461 94.7302,-187.5155 113,-192.5 189.9749,-213.5007 281.4922,-216.6089 345.2403,-215.4712"/>
<polygon fill="#191970" stroke="#191970" points="63.2509,-166.3282 52.8897,-164.1155 59.6096,-172.3066 63.2509,-166.3282"/>
</g>
<!-- Node139 -->
<g id="node4" class="node">
<title>Node139</title>
<g id="a_node4"><a xlink:href="classEventManager.html#a65ec91fd5016d4f9c4167fb8babed2df" target="_top" xlink:title="EventManager::checkEvents">
<polygon fill="none" stroke="#000000" points="743,-164 743,-183 897,-183 897,-164 743,-164"/>
<text text-anchor="middle" x="820" y="-171" font-family="Helvetica,sans-Serif" font-size="10.00" fill="#000000">EventManager::checkEvents</text>
</a>
</g>
</g>
<!-- Node136&#45;&gt;Node139 -->
<g id="edge17" class="edge">
<title>Node136&#45;&gt;Node139</title>
<path fill="none" stroke="#191970" d="M53.1374,-172.0522C66.863,-187.1054 88.8463,-207.8464 113,-217.5 278.1683,-283.5132 335.3186,-238.7253 513,-230.5 599.4999,-226.4957 622.3538,-230.7564 707,-212.5 739.2565,-205.5429 775.035,-192.1833 797.5173,-183.058"/>
<polygon fill="#191970" stroke="#191970" points="55.629,-169.5851 46.4003,-164.381 50.3694,-174.2043 55.629,-169.5851"/>
</g>
<!-- Node143 -->
<g id="node8" class="node">
<title>Node143</title>
<g id="a_node8"><a xlink:href="classCamera.html#aeea39f352d5873495dea6f376cf3207e" target="_top" xlink:title="Decreases the zoom level of the camera Decreases the zoom level of the camera. ">
<polygon fill="none" stroke="#000000" points="344,-126 344,-145 504,-145 504,-126 344,-126"/>
<text text-anchor="middle" x="424" y="-133" font-family="Helvetica,sans-Serif" font-size="10.00" fill="#000000">Camera::decreaseZoomLevel</text>
</a>
</g>
</g>
<!-- Node136&#45;&gt;Node143 -->
<g id="edge8" class="edge">
<title>Node136&#45;&gt;Node143</title>
<path fill="none" stroke="#191970" d="M87.5387,-152.083C152.1387,-148.8991 266.5814,-143.2586 343.8489,-139.4504"/>
<polygon fill="#191970" stroke="#191970" points="87.0438,-148.6031 77.2283,-152.5912 87.3885,-155.5946 87.0438,-148.6031"/>
</g>
<!-- Node144 -->
<g id="node9" class="node">
<title>Node144</title>
<g id="a_node9"><a xlink:href="classCamera.html#adfb240823ff20b97b69459490dbd8dc3" target="_top" xlink:title="Centers camera on given isometric coordinates Centers the camera on the given isometric coordinates...">
<polygon fill="none" stroke="#000000" points="124.5,-164 124.5,-183 287.5,-183 287.5,-164 124.5,-164"/>
<text text-anchor="middle" x="206" y="-171" font-family="Helvetica,sans-Serif" font-size="10.00" fill="#000000">Camera::centerScreenOnPoint</text>
</a>
</g>
</g>
<!-- Node136&#45;&gt;Node144 -->
<g id="edge11" class="edge">
<title>Node136&#45;&gt;Node144</title>
<path fill="none" stroke="#191970" d="M87.6352,-160.0735C99.1983,-161.3852 111.8298,-162.818 124.3967,-164.2435"/>
<polygon fill="#191970" stroke="#191970" points="87.6797,-156.5562 77.3489,-158.9067 86.8906,-163.5116 87.6797,-156.5562"/>
</g>
<!-- Node146 -->
<g id="node11" class="node">
<title>Node146</title>
<g id="a_node11"><a xlink:href="classUIManager.html#ac927e1cd3dea979202ea9dbf1195b583" target="_top" xlink:title="UIManager::changeResolution">
<polygon fill="none" stroke="#000000" points="125.5,-50 125.5,-69 286.5,-69 286.5,-50 125.5,-50"/>
<text text-anchor="middle" x="206" y="-57" font-family="Helvetica,sans-Serif" font-size="10.00" fill="#000000">UIManager::changeResolution</text>
</a>
</g>
</g>
<!-- Node136&#45;&gt;Node146 -->
<g id="edge18" class="edge">
<title>Node136&#45;&gt;Node146</title>
<path fill="none" stroke="#191970" d="M64.5352,-139.7338C99.2143,-120.065 159.5959,-85.8188 188.9725,-69.1574"/>
<polygon fill="#191970" stroke="#191970" points="62.4542,-136.8902 55.4826,-144.8681 65.9077,-142.9791 62.4542,-136.8902"/>
</g>
<!-- Node149 -->
<g id="node14" class="node">
<title>Node149</title>
<g id="a_node14"><a xlink:href="classUIManager.html#af2ffb4ee45e57152164643ef6cddda37" target="_top" xlink:title="UIManager::changeFullScreenMode">
<polygon fill="none" stroke="#000000" points="113,-9 113,-28 299,-28 299,-9 113,-9"/>
<text text-anchor="middle" x="206" y="-16" font-family="Helvetica,sans-Serif" font-size="10.00" fill="#000000">UIManager::changeFullScreenMode</text>
</a>
</g>
</g>
<!-- Node136&#45;&gt;Node149 -->
<g id="edge21" class="edge">
<title>Node136&#45;&gt;Node149</title>
<path fill="none" stroke="#191970" d="M45.6817,-135.3534C56.3336,-109.6641 78.8158,-64.5002 113,-40.5 120.6042,-35.1612 129.3318,-31.1054 138.3273,-28.0267"/>
<polygon fill="#191970" stroke="#191970" points="42.3857,-134.1703 41.9529,-144.7563 48.8928,-136.7508 42.3857,-134.1703"/>
</g>
<!-- Node138 -->
<g id="node3" class="node">
<title>Node138</title>
<g id="a_node3"><a xlink:href="classCamera.html#a1f8ecd427814c5a4970223c2d13b9310" target="_top" xlink:title="Camera::setPinchDistance">
<polygon fill="none" stroke="#000000" points="555.5,-164 555.5,-183 700.5,-183 700.5,-164 555.5,-164"/>
<text text-anchor="middle" x="628" y="-171" font-family="Helvetica,sans-Serif" font-size="10.00" fill="#000000">Camera::setPinchDistance</text>
</a>
</g>
</g>
<!-- Node137&#45;&gt;Node138 -->
<g id="edge2" class="edge">
<title>Node137&#45;&gt;Node138</title>
<path fill="none" stroke="#191970" d="M485.2973,-200.0819C514.486,-194.6448 548.9943,-188.2168 576.7644,-183.0439"/>
<polygon fill="#191970" stroke="#191970" points="484.4044,-196.6879 475.2145,-201.96 485.6864,-203.5695 484.4044,-196.6879"/>
</g>
<!-- Node137&#45;&gt;Node139 -->
<g id="edge7" class="edge">
<title>Node137&#45;&gt;Node139</title>
<path fill="none" stroke="#191970" d="M512.7933,-207.8101C568.6611,-204.9269 642.1968,-200.1043 707,-192.5 727.647,-190.0772 750.2668,-186.4664 769.8084,-183.0412"/>
<polygon fill="#191970" stroke="#191970" points="512.3841,-204.3262 502.5733,-208.3261 512.7371,-211.3173 512.3841,-204.3262"/>
</g>
<!-- Node138&#45;&gt;Node139 -->
<g id="edge3" class="edge">
<title>Node138&#45;&gt;Node139</title>
<path fill="none" stroke="#191970" d="M710.7207,-173.5C721.3799,-173.5 732.2617,-173.5 742.8269,-173.5"/>
<polygon fill="#191970" stroke="#191970" points="710.587,-170.0001 700.587,-173.5 710.5869,-177.0001 710.587,-170.0001"/>
</g>
<!-- Node140 -->
<g id="node5" class="node">
<title>Node140</title>
<g id="a_node5"><a xlink:href="classGame.html#a1c2ab25d5216b2f4b2fe41efd2c09114" target="_top" xlink:title="begins the game starts running the game ">
<polygon fill="none" stroke="#000000" points="933,-123 933,-142 1001,-142 1001,-123 933,-123"/>
<text text-anchor="middle" x="967" y="-130" font-family="Helvetica,sans-Serif" font-size="10.00" fill="#000000">Game::run</text>
</a>
</g>
</g>
<!-- Node139&#45;&gt;Node140 -->
<g id="edge4" class="edge">
<title>Node139&#45;&gt;Node140</title>
<path fill="none" stroke="#191970" d="M863.8958,-161.2569C885.9621,-155.1024 912.3026,-147.7557 932.8363,-142.0286"/>
<polygon fill="#191970" stroke="#191970" points="862.7863,-157.9327 854.0942,-163.9907 864.6669,-164.6754 862.7863,-157.9327"/>
</g>
<!-- Node141 -->
<g id="node6" class="node">
<title>Node141</title>
<g id="a_node6"><a xlink:href="main_8cxx.html#af582d708d899e67ead623eac34a22387" target="_top" xlink:title="protected_main">
<polygon fill="none" stroke="#000000" points="1037,-123 1037,-142 1130,-142 1130,-123 1037,-123"/>
<text text-anchor="middle" x="1083.5" y="-130" font-family="Helvetica,sans-Serif" font-size="10.00" fill="#000000">protected_main</text>
</a>
</g>
</g>
<!-- Node140&#45;&gt;Node141 -->
<g id="edge5" class="edge">
<title>Node140&#45;&gt;Node141</title>
<path fill="none" stroke="#191970" d="M1011.2653,-132.5C1019.5757,-132.5 1028.2897,-132.5 1036.6749,-132.5"/>
<polygon fill="#191970" stroke="#191970" points="1011.0098,-129.0001 1001.0098,-132.5 1011.0098,-136.0001 1011.0098,-129.0001"/>
</g>
<!-- Node142 -->
<g id="node7" class="node">
<title>Node142</title>
<g id="a_node7"><a xlink:href="main_8cxx.html#a3c04138a5bfe5d72780bb7e82a18e627" target="_top" xlink:title="main">
<polygon fill="none" stroke="#000000" points="1166,-123 1166,-142 1207,-142 1207,-123 1166,-123"/>
<text text-anchor="middle" x="1186.5" y="-130" font-family="Helvetica,sans-Serif" font-size="10.00" fill="#000000">main</text>
</a>
</g>
</g>
<!-- Node141&#45;&gt;Node142 -->
<g id="edge6" class="edge">
<title>Node141&#45;&gt;Node142</title>
<path fill="none" stroke="#191970" d="M1140.2133,-132.5C1149.4322,-132.5 1158.4259,-132.5 1165.9965,-132.5"/>
<polygon fill="#191970" stroke="#191970" points="1140.1782,-129.0001 1130.1782,-132.5 1140.1781,-136.0001 1140.1782,-129.0001"/>
</g>
<!-- Node143&#45;&gt;Node138 -->
<g id="edge9" class="edge">
<title>Node143&#45;&gt;Node138</title>
<path fill="none" stroke="#191970" d="M485.2973,-146.9181C514.486,-152.3552 548.9943,-158.7832 576.7644,-163.9561"/>
<polygon fill="#191970" stroke="#191970" points="485.6864,-143.4305 475.2145,-145.04 484.4044,-150.3121 485.6864,-143.4305"/>
</g>
<!-- Node143&#45;&gt;Node139 -->
<g id="edge10" class="edge">
<title>Node143&#45;&gt;Node139</title>
<path fill="none" stroke="#191970" d="M514.286,-139.2672C569.9666,-142.159 642.7723,-146.9632 707,-154.5 727.647,-156.9228 750.2668,-160.5336 769.8084,-163.9588"/>
<polygon fill="#191970" stroke="#191970" points="514.2592,-135.7614 504.0944,-138.7492 513.9039,-142.7524 514.2592,-135.7614"/>
</g>
<!-- Node144&#45;&gt;Node137 -->
<g id="edge12" class="edge">
<title>Node144&#45;&gt;Node137</title>
<path fill="none" stroke="#191970" d="M270.688,-184.7759C302.0512,-190.2429 339.3131,-196.7381 369.2483,-201.9561"/>
<polygon fill="#191970" stroke="#191970" points="271.1817,-181.3093 260.7292,-183.04 269.9796,-188.2053 271.1817,-181.3093"/>
</g>
<!-- Node144&#45;&gt;Node138 -->
<g id="edge14" class="edge">
<title>Node144&#45;&gt;Node138</title>
<path fill="none" stroke="#191970" d="M297.8274,-173.5C375.1115,-173.5 484.1335,-173.5 555.4237,-173.5"/>
<polygon fill="#191970" stroke="#191970" points="297.6159,-170.0001 287.6159,-173.5 297.6159,-177.0001 297.6159,-170.0001"/>
</g>
<!-- Node144&#45;&gt;Node143 -->
<g id="edge13" class="edge">
<title>Node144&#45;&gt;Node143</title>
<path fill="none" stroke="#191970" d="M270.688,-162.2241C302.0512,-156.7571 339.3131,-150.2619 369.2483,-145.0439"/>
<polygon fill="#191970" stroke="#191970" points="269.9796,-158.7947 260.7292,-163.96 271.1817,-165.6907 269.9796,-158.7947"/>
</g>
<!-- Node145 -->
<g id="node10" class="node">
<title>Node145</title>
<g id="a_node10"><a xlink:href="classCamera.html#af29da768f8948f3afbf0a9b43530eb1d" target="_top" xlink:title="Centers camera on the middle of the map Centers the camera on the middle of the map. ">
<polygon fill="none" stroke="#000000" points="549,-76.5 549,-106.5 707,-106.5 707,-76.5 549,-76.5"/>
<text text-anchor="start" x="557" y="-94.5" font-family="Helvetica,sans-Serif" font-size="10.00" fill="#000000">Camera::centerScreenOnMap</text>
<text text-anchor="middle" x="628" y="-83.5" font-family="Helvetica,sans-Serif" font-size="10.00" fill="#000000">Center</text>
</a>
</g>
</g>
<!-- Node144&#45;&gt;Node145 -->
<g id="edge15" class="edge">
<title>Node144&#45;&gt;Node145</title>
<path fill="none" stroke="#191970" d="M231.8421,-159.0115C257.2513,-145.5168 297.5614,-126.0832 335,-116.5 405.849,-98.3646 489.1519,-92.6973 548.7868,-91.2231"/>
<polygon fill="#191970" stroke="#191970" points="230.0041,-156.0264 222.8704,-163.8598 233.332,-162.1847 230.0041,-156.0264"/>
</g>
<!-- Node145&#45;&gt;Node140 -->
<g id="edge16" class="edge">
<title>Node145&#45;&gt;Node140</title>
<path fill="none" stroke="#191970" d="M717.2863,-102.2986C787.8907,-110.8378 882.6287,-122.2958 932.6803,-128.3492"/>
<polygon fill="#191970" stroke="#191970" points="717.4005,-98.787 707.0526,-101.0609 716.56,-105.7364 717.4005,-98.787"/>
</g>
<!-- Node147 -->
<g id="node12" class="node">
<title>Node147</title>
<g id="a_node12"><a xlink:href="classUIManager.html#aa78e356fc3b356d790c848319d1c387e" target="_top" xlink:title="UIManager::setCallbackFunctions">
<polygon fill="none" stroke="#000000" points="335,-50 335,-69 513,-69 513,-50 335,-50"/>
<text text-anchor="middle" x="424" y="-57" font-family="Helvetica,sans-Serif" font-size="10.00" fill="#000000">UIManager::setCallbackFunctions</text>
</a>
</g>
</g>
<!-- Node146&#45;&gt;Node147 -->
<g id="edge19" class="edge">
<title>Node146&#45;&gt;Node147</title>
<path fill="none" stroke="#191970" d="M296.6341,-59.5C309.309,-59.5 322.3251,-59.5 334.9699,-59.5"/>
<polygon fill="#191970" stroke="#191970" points="296.5558,-56.0001 286.5558,-59.5 296.5557,-63.0001 296.5558,-56.0001"/>
</g>
<!-- Node148 -->
<g id="node13" class="node">
<title>Node148</title>
<g id="a_node13"><a xlink:href="classUIManager.html#a5c4cb8e02504ffa0d3faf45181feab9d" target="_top" xlink:title="Fill UI Widgets whose ID start with a $ with data Used for filling widgets with data, like BuildMenu Position combobox, Screen Resolution ComboBox and so on. ">
<polygon fill="none" stroke="#000000" points="351,-.5 351,-30.5 497,-30.5 497,-.5 351,-.5"/>
<text text-anchor="start" x="359" y="-18.5" font-family="Helvetica,sans-Serif" font-size="10.00" fill="#000000">UIManager::initializeDollar</text>
<text text-anchor="middle" x="424" y="-7.5" font-family="Helvetica,sans-Serif" font-size="10.00" fill="#000000">Variables</text>
</a>
</g>
</g>
<!-- Node146&#45;&gt;Node148 -->
<g id="edge20" class="edge">
<title>Node146&#45;&gt;Node148</title>
<path fill="none" stroke="#191970" d="M263.2657,-47.9418C290.001,-42.5457 322.1426,-36.0584 350.6343,-30.3078"/>
<polygon fill="#191970" stroke="#191970" points="262.4126,-44.5433 253.3028,-49.9527 263.7976,-51.4049 262.4126,-44.5433"/>
</g>
<!-- Node149&#45;&gt;Node148 -->
<g id="edge22" class="edge">
<title>Node149&#45;&gt;Node148</title>
<path fill="none" stroke="#191970" d="M309.3047,-17.0784C323.3906,-16.8845 337.6036,-16.6889 350.9995,-16.5046"/>
<polygon fill="#191970" stroke="#191970" points="309.0348,-13.5817 299.084,-17.219 309.1312,-20.581 309.0348,-13.5817"/>
</g>
</g>
</svg>
