<?xml version="1.0" encoding="UTF-8" standalone="no"?>
<!DOCTYPE svg PUBLIC "-//W3C//DTD SVG 1.1//EN"
 "http://www.w3.org/Graphics/SVG/1.1/DTD/svg11.dtd">
<!-- Generated by graphviz version 2.40.1 (20161225.0304)
 -->
<!-- Title: ResourcesManager::ResourcesManager Pages: 1 -->
<svg width="720pt" height="213pt"
 viewBox="0.00 0.00 720.00 213.00" xmlns="http://www.w3.org/2000/svg" xmlns:xlink="http://www.w3.org/1999/xlink">
<g id="graph0" class="graph" transform="scale(1 1) rotate(0) translate(4 209)">
<title>ResourcesManager::ResourcesManager</title>
<!-- Node2 -->
<g id="node1" class="node">
<title>Node2</title>
<polygon fill="#bfbfbf" stroke="#000000" points="0,-104 0,-134 164,-134 164,-104 0,-104"/>
<text text-anchor="start" x="8" y="-122" font-family="Helvetica,sans-Serif" font-size="10.00" fill="#000000">ResourcesManager::Resources</text>
<text text-anchor="middle" x="82" y="-111" font-family="Helvetica,sans-Serif" font-size="10.00" fill="#000000">Manager</text>
</g>
<!-- Node3 -->
<g id="node2" class="node">
<title>Node3</title>
<g id="a_node2"><a xlink:href="classResourcesManager.html#ac221a499e20ca7aedd00028842c7a101" target="_top" xlink:title="ResourcesManager::loadUITexture">
<polygon fill="none" stroke="#000000" points="200,-109.5 200,-128.5 382,-128.5 382,-109.5 200,-109.5"/>
<text text-anchor="middle" x="291" y="-116.5" font-family="Helvetica,sans-Serif" font-size="10.00" fill="#000000">ResourcesManager::loadUITexture</text>
</a>
</g>
</g>
<!-- Node2&#45;&gt;Node3 -->
<g id="edge1" class="edge">
<title>Node2&#45;&gt;Node3</title>
<path fill="none" stroke="#191970" d="M164.0025,-119C172.4687,-119 181.1418,-119 189.7849,-119"/>
<polygon fill="#191970" stroke="#191970" points="189.9032,-122.5001 199.9031,-119 189.9031,-115.5001 189.9032,-122.5001"/>
</g>
<!-- Node4 -->
<g id="node3" class="node">
<title>Node4</title>
<g id="a_node3"><a xlink:href="namespacefs.html#ac2d9a48234828392a1f6a6dfce785830" target="_top" xlink:title="Read contents from a file as string. ">
<polygon fill="none" stroke="#000000" points="435.5,-185.5 435.5,-204.5 545.5,-204.5 545.5,-185.5 435.5,-185.5"/>
<text text-anchor="middle" x="490.5" y="-192.5" font-family="Helvetica,sans-Serif" font-size="10.00" fill="#000000">fs::readFileAsString</text>
</a>
</g>
</g>
<!-- Node3&#45;&gt;Node4 -->
<g id="edge2" class="edge">
<title>Node3&#45;&gt;Node4</title>
<path fill="none" stroke="#191970" d="M313.2988,-128.6764C338.5174,-139.4916 380.9045,-157.2843 418,-171 428.3663,-174.8329 439.6688,-178.7143 450.1987,-182.2063"/>
<polygon fill="#191970" stroke="#191970" points="449.409,-185.6307 460.0017,-185.4207 451.59,-178.9791 449.409,-185.6307"/>
</g>
<!-- Node5 -->
<g id="node4" class="node">
<title>Node5</title>
<g id="a_node4"><a xlink:href="classSingleton.html#af5cb1e5749949e2b68416cfb8d378044" target="_top" xlink:title="Get an instance of the singleton. ">
<polygon fill="none" stroke="#000000" points="599,-109 599,-139 712,-139 712,-109 599,-109"/>
<text text-anchor="start" x="607" y="-127" font-family="Helvetica,sans-Serif" font-size="10.00" fill="#000000">Singleton&lt; Settings</text>
<text text-anchor="middle" x="655.5" y="-116" font-family="Helvetica,sans-Serif" font-size="10.00" fill="#000000"> &gt;::instance</text>
</a>
</g>
</g>
<!-- Node3&#45;&gt;Node5 -->
<g id="edge3" class="edge">
<title>Node3&#45;&gt;Node5</title>
<path fill="none" stroke="#191970" d="M342.7082,-128.5137C365.6784,-132.2794 393.0995,-136.1477 418,-138 482.2669,-142.7808 498.7372,-142.8356 563,-138 571.3815,-137.3693 580.1543,-136.4215 588.8177,-135.3106"/>
<polygon fill="#191970" stroke="#191970" points="589.4693,-138.7543 598.9075,-133.9407 588.5276,-131.818 589.4693,-138.7543"/>
</g>
<!-- Node6 -->
<g id="node5" class="node">
<title>Node6</title>
<g id="a_node5"><a xlink:href="structStrongType.html#acc66e6d6b9c95193a97a839560499933" target="_top" xlink:title="StrongType::get">
<polygon fill="none" stroke="#000000" points="444.5,-109.5 444.5,-128.5 536.5,-128.5 536.5,-109.5 444.5,-109.5"/>
<text text-anchor="middle" x="490.5" y="-116.5" font-family="Helvetica,sans-Serif" font-size="10.00" fill="#000000">StrongType::get</text>
</a>
</g>
</g>
<!-- Node3&#45;&gt;Node6 -->
<g id="edge4" class="edge">
<title>Node3&#45;&gt;Node6</title>
<path fill="none" stroke="#191970" d="M382.2842,-119C399.9586,-119 417.9899,-119 434.1373,-119"/>
<polygon fill="#191970" stroke="#191970" points="434.4538,-122.5001 444.4537,-119 434.4537,-115.5001 434.4538,-122.5001"/>
</g>
<!-- Node7 -->
<g id="node6" class="node">
<title>Node7</title>
<g id="a_node6"><a xlink:href="classResourcesManager.html#ad7712ca96233a151d8bc22cd2ba17d01" target="_top" xlink:title="ResourcesManager::create\lTextureFromSurface">
<polygon fill="none" stroke="#000000" points="418,-60 418,-90 563,-90 563,-60 418,-60"/>
<text text-anchor="start" x="426" y="-78" font-family="Helvetica,sans-Serif" font-size="10.00" fill="#000000">ResourcesManager::create</text>
<text text-anchor="middle" x="490.5" y="-67" font-family="Helvetica,sans-Serif" font-size="10.00" fill="#000000">TextureFromSurface</text>
</a>
</g>
</g>
<!-- Node3&#45;&gt;Node7 -->
<g id="edge5" class="edge">
<title>Node3&#45;&gt;Node7</title>
<path fill="none" stroke="#191970" d="M334.2885,-109.4527C357.0507,-104.4324 385.6615,-98.1223 412.1576,-92.2785"/>
<polygon fill="#191970" stroke="#191970" points="413.1808,-95.6371 422.1923,-90.0654 411.6731,-88.8013 413.1808,-95.6371"/>
</g>
<!-- Node8 -->
<g id="node7" class="node">
<title>Node8</title>
<g id="a_node7"><a xlink:href="classResourcesManager.html#a54721d26f52c4887b735d2cdaf60b078" target="_top" xlink:title="ResourcesManager::create\lSurfaceFromFile">
<polygon fill="none" stroke="#000000" points="418,-11 418,-41 563,-41 563,-11 418,-11"/>
<text text-anchor="start" x="426" y="-29" font-family="Helvetica,sans-Serif" font-size="10.00" fill="#000000">ResourcesManager::create</text>
<text text-anchor="middle" x="490.5" y="-18" font-family="Helvetica,sans-Serif" font-size="10.00" fill="#000000">SurfaceFromFile</text>
</a>
</g>
</g>
<!-- Node3&#45;&gt;Node8 -->
<g id="edge7" class="edge">
<title>Node3&#45;&gt;Node8</title>
<path fill="none" stroke="#191970" d="M307.0256,-109.3435C330.7183,-95.3176 376.7455,-69.0201 418,-51 423.0329,-48.8016 428.3262,-46.6626 433.6654,-44.6209"/>
<polygon fill="#191970" stroke="#191970" points="435.1179,-47.8153 443.2791,-41.0591 432.686,-41.2513 435.1179,-47.8153"/>
</g>
<!-- Node7&#45;&gt;Node5 -->
<g id="edge6" class="edge">
<title>Node7&#45;&gt;Node5</title>
<path fill="none" stroke="#191970" d="M541.3518,-90.1014C558.3692,-95.1551 577.5042,-100.8376 595.1734,-106.0848"/>
<polygon fill="#191970" stroke="#191970" points="594.2335,-109.4567 604.8161,-108.9484 596.2263,-102.7464 594.2335,-109.4567"/>
</g>
<!-- Node9 -->
<g id="node8" class="node">
<title>Node9</title>
<g id="a_node8"><a xlink:href="namespacefs.html#a28e4c1324680c188092ecfe5fd8a91a3" target="_top" xlink:title="fs::getBasePath">
<polygon fill="none" stroke="#000000" points="609.5,-38.5 609.5,-57.5 701.5,-57.5 701.5,-38.5 609.5,-38.5"/>
<text text-anchor="middle" x="655.5" y="-45.5" font-family="Helvetica,sans-Serif" font-size="10.00" fill="#000000">fs::getBasePath</text>
</a>
</g>
</g>
<!-- Node8&#45;&gt;Node9 -->
<g id="edge8" class="edge">
<title>Node8&#45;&gt;Node9</title>
<path fill="none" stroke="#191970" d="M563.3517,-35.7136C575.3705,-37.3161 587.6663,-38.9555 599.1998,-40.4933"/>
<polygon fill="#191970" stroke="#191970" points="598.7381,-43.9626 609.1129,-41.8151 599.6633,-37.024 598.7381,-43.9626"/>
</g>
<!-- Node10 -->
<g id="node9" class="node">
<title>Node10</title>
<g id="a_node9"><a xlink:href="namespacefs.html#a000d1f9ae14d782b6193298e6d27023f" target="_top" xlink:title="fs::fileExists">
<polygon fill="none" stroke="#000000" points="617.5,-.5 617.5,-19.5 693.5,-19.5 693.5,-.5 617.5,-.5"/>
<text text-anchor="middle" x="655.5" y="-7.5" font-family="Helvetica,sans-Serif" font-size="10.00" fill="#000000">fs::fileExists</text>
</a>
</g>
</g>
<!-- Node8&#45;&gt;Node10 -->
<g id="edge9" class="edge">
<title>Node8&#45;&gt;Node10</title>
<path fill="none" stroke="#191970" d="M563.3517,-18.9356C578.2113,-17.4947 593.4943,-16.0127 607.2366,-14.6801"/>
<polygon fill="#191970" stroke="#191970" points="607.7971,-18.1422 617.4126,-13.6933 607.1214,-11.1749 607.7971,-18.1422"/>
</g>
</g>
</svg>
