<?xml version="1.0" encoding="UTF-8" standalone="no"?>
<!DOCTYPE svg PUBLIC "-//W3C//DTD SVG 1.1//EN"
 "http://www.w3.org/Graphics/SVG/1.1/DTD/svg11.dtd">
<!-- Generated by graphviz version 2.40.1 (20161225.0304)
 -->
<!-- Title: TileManager::TileManager Pages: 1 -->
<svg width="1014pt" height="216pt"
 viewBox="0.00 0.00 1014.00 216.00" xmlns="http://www.w3.org/2000/svg" xmlns:xlink="http://www.w3.org/1999/xlink">
<g id="graph0" class="graph" transform="scale(1 1) rotate(0) translate(4 212)">
<title>TileManager::TileManager</title>
<!-- Node2 -->
<g id="node1" class="node">
<title>Node2</title>
<polygon fill="#bfbfbf" stroke="#000000" points="0,-131.5 0,-150.5 143,-150.5 143,-131.5 0,-131.5"/>
<text text-anchor="middle" x="71.5" y="-138.5" font-family="Helvetica,sans-Serif" font-size="10.00" fill="#000000">TileManager::TileManager</text>
</g>
<!-- Node3 -->
<g id="node2" class="node">
<title>Node3</title>
<g id="a_node2"><a xlink:href="classTileManager.html#a1575d9a9530e13fe0286b8fece9e47ea" target="_top" xlink:title="TileManager::init">
<polygon fill="none" stroke="#000000" points="179,-131.5 179,-150.5 277,-150.5 277,-131.5 179,-131.5"/>
<text text-anchor="middle" x="228" y="-138.5" font-family="Helvetica,sans-Serif" font-size="10.00" fill="#000000">TileManager::init</text>
</a>
</g>
</g>
<!-- Node2&#45;&gt;Node3 -->
<g id="edge1" class="edge">
<title>Node2&#45;&gt;Node3</title>
<path fill="none" stroke="#191970" d="M143.3375,-141C151.9065,-141 160.5787,-141 168.9395,-141"/>
<polygon fill="#191970" stroke="#191970" points="168.9554,-144.5001 178.9554,-141 168.9553,-137.5001 168.9554,-144.5001"/>
</g>
<!-- Node4 -->
<g id="node3" class="node">
<title>Node4</title>
<g id="a_node3"><a xlink:href="namespacefs.html#ac2d9a48234828392a1f6a6dfce785830" target="_top" xlink:title="Read contents from a file as string. ">
<polygon fill="none" stroke="#000000" points="336,-188.5 336,-207.5 446,-207.5 446,-188.5 336,-188.5"/>
<text text-anchor="middle" x="391" y="-195.5" font-family="Helvetica,sans-Serif" font-size="10.00" fill="#000000">fs::readFileAsString</text>
</a>
</g>
</g>
<!-- Node3&#45;&gt;Node4 -->
<g id="edge2" class="edge">
<title>Node3&#45;&gt;Node4</title>
<path fill="none" stroke="#191970" d="M251.2836,-150.56C268.2718,-157.4073 291.9161,-166.6742 313,-174 324.3863,-177.9563 336.8193,-181.9337 348.3458,-185.4812"/>
<polygon fill="#191970" stroke="#191970" points="347.6068,-188.9147 358.1926,-188.4767 349.6442,-182.2177 347.6068,-188.9147"/>
</g>
<!-- Node5 -->
<g id="node4" class="node">
<title>Node5</title>
<g id="a_node4"><a xlink:href="classSingleton.html#af5cb1e5749949e2b68416cfb8d378044" target="_top" xlink:title="Get an instance of the singleton. ">
<polygon fill="none" stroke="#000000" points="893,-107 893,-137 1006,-137 1006,-107 893,-107"/>
<text text-anchor="start" x="901" y="-125" font-family="Helvetica,sans-Serif" font-size="10.00" fill="#000000">Singleton&lt; Settings</text>
<text text-anchor="middle" x="949.5" y="-114" font-family="Helvetica,sans-Serif" font-size="10.00" fill="#000000"> &gt;::instance</text>
</a>
</g>
</g>
<!-- Node3&#45;&gt;Node5 -->
<g id="edge3" class="edge">
<title>Node3&#45;&gt;Node5</title>
<path fill="none" stroke="#191970" d="M277.3864,-141.472C383.5524,-142.1932 641.3758,-142.3704 857,-130 865.3279,-129.5222 874.0687,-128.9107 882.7153,-128.239"/>
<polygon fill="#191970" stroke="#191970" points="883.1053,-131.7191 892.7919,-127.4273 882.5431,-124.7417 883.1053,-131.7191"/>
</g>
<!-- Node6 -->
<g id="node5" class="node">
<title>Node6</title>
<g id="a_node5"><a xlink:href="structStrongType.html#acc66e6d6b9c95193a97a839560499933" target="_top" xlink:title="StrongType::get">
<polygon fill="none" stroke="#000000" points="345,-112.5 345,-131.5 437,-131.5 437,-112.5 345,-112.5"/>
<text text-anchor="middle" x="391" y="-119.5" font-family="Helvetica,sans-Serif" font-size="10.00" fill="#000000">StrongType::get</text>
</a>
</g>
</g>
<!-- Node3&#45;&gt;Node6 -->
<g id="edge4" class="edge">
<title>Node3&#45;&gt;Node6</title>
<path fill="none" stroke="#191970" d="M277.3477,-135.2478C295.4526,-133.1374 316.0785,-130.7332 334.7443,-128.5574"/>
<polygon fill="#191970" stroke="#191970" points="335.3565,-132.0098 344.884,-127.3755 334.546,-125.0569 335.3565,-132.0098"/>
</g>
<!-- Node7 -->
<g id="node6" class="node">
<title>Node7</title>
<g id="a_node6"><a xlink:href="classTileManager.html#a9e03faf9425ee26a2f5fb1fa4c94d173" target="_top" xlink:title="TileManager::addJSONObject\lToTileData">
<polygon fill="none" stroke="#000000" points="313,-63 313,-93 469,-93 469,-63 313,-63"/>
<text text-anchor="start" x="321" y="-81" font-family="Helvetica,sans-Serif" font-size="10.00" fill="#000000">TileManager::addJSONObject</text>
<text text-anchor="middle" x="391" y="-70" font-family="Helvetica,sans-Serif" font-size="10.00" fill="#000000">ToTileData</text>
</a>
</g>
</g>
<!-- Node3&#45;&gt;Node7 -->
<g id="edge5" class="edge">
<title>Node3&#45;&gt;Node7</title>
<path fill="none" stroke="#191970" d="M247.6624,-131.4664C264.7257,-123.3732 290.2021,-111.7191 313,-103 318.9271,-100.7332 325.1579,-98.497 331.4065,-96.3496"/>
<polygon fill="#191970" stroke="#191970" points="332.8363,-99.5615 341.1992,-93.0567 330.6052,-92.9266 332.8363,-99.5615"/>
</g>
<!-- Node7&#45;&gt;Node5 -->
<g id="edge6" class="edge">
<title>Node7&#45;&gt;Node5</title>
<path fill="none" stroke="#191970" d="M469.0312,-92.1623C481.0467,-94.0076 493.334,-95.7037 505,-97 638.5626,-111.8415 795.7351,-118.055 882.8399,-120.5143"/>
<polygon fill="#191970" stroke="#191970" points="882.7587,-124.0133 892.851,-120.789 882.9509,-117.0159 882.7587,-124.0133"/>
</g>
<!-- Node8 -->
<g id="node7" class="node">
<title>Node8</title>
<g id="a_node7"><a xlink:href="classResourcesManager.html#ab376a89547592db4cca25309eac2931c" target="_top" xlink:title="ResourcesManager::loadTexture">
<polygon fill="none" stroke="#000000" points="505,-68.5 505,-87.5 676,-87.5 676,-68.5 505,-68.5"/>
<text text-anchor="middle" x="590.5" y="-75.5" font-family="Helvetica,sans-Serif" font-size="10.00" fill="#000000">ResourcesManager::loadTexture</text>
</a>
</g>
</g>
<!-- Node7&#45;&gt;Node8 -->
<g id="edge7" class="edge">
<title>Node7&#45;&gt;Node8</title>
<path fill="none" stroke="#191970" d="M469.2751,-78C477.6703,-78 486.2787,-78 494.8466,-78"/>
<polygon fill="#191970" stroke="#191970" points="494.8709,-81.5001 504.8709,-78 494.8709,-74.5001 494.8709,-81.5001"/>
</g>
<!-- Node9 -->
<g id="node8" class="node">
<title>Node9</title>
<g id="a_node8"><a xlink:href="classResourcesManager.html#a54721d26f52c4887b735d2cdaf60b078" target="_top" xlink:title="ResourcesManager::create\lSurfaceFromFile">
<polygon fill="none" stroke="#000000" points="712,-14 712,-44 857,-44 857,-14 712,-14"/>
<text text-anchor="start" x="720" y="-32" font-family="Helvetica,sans-Serif" font-size="10.00" fill="#000000">ResourcesManager::create</text>
<text text-anchor="middle" x="784.5" y="-21" font-family="Helvetica,sans-Serif" font-size="10.00" fill="#000000">SurfaceFromFile</text>
</a>
</g>
</g>
<!-- Node8&#45;&gt;Node9 -->
<g id="edge8" class="edge">
<title>Node8&#45;&gt;Node9</title>
<path fill="none" stroke="#191970" d="M628.3657,-68.436C653.034,-62.2053 685.9534,-53.8906 715.204,-46.5026"/>
<polygon fill="#191970" stroke="#191970" points="716.1275,-49.8793 724.9659,-44.037 714.4132,-43.0925 716.1275,-49.8793"/>
</g>
<!-- Node12 -->
<g id="node11" class="node">
<title>Node12</title>
<g id="a_node11"><a xlink:href="classResourcesManager.html#ad7712ca96233a151d8bc22cd2ba17d01" target="_top" xlink:title="ResourcesManager::create\lTextureFromSurface">
<polygon fill="none" stroke="#000000" points="712,-63 712,-93 857,-93 857,-63 712,-63"/>
<text text-anchor="start" x="720" y="-81" font-family="Helvetica,sans-Serif" font-size="10.00" fill="#000000">ResourcesManager::create</text>
<text text-anchor="middle" x="784.5" y="-70" font-family="Helvetica,sans-Serif" font-size="10.00" fill="#000000">TextureFromSurface</text>
</a>
</g>
</g>
<!-- Node8&#45;&gt;Node12 -->
<g id="edge11" class="edge">
<title>Node8&#45;&gt;Node12</title>
<path fill="none" stroke="#191970" d="M676.1559,-78C684.599,-78 693.1583,-78 701.5732,-78"/>
<polygon fill="#191970" stroke="#191970" points="701.7485,-81.5001 711.7484,-78 701.7484,-74.5001 701.7485,-81.5001"/>
</g>
<!-- Node10 -->
<g id="node9" class="node">
<title>Node10</title>
<g id="a_node9"><a xlink:href="namespacefs.html#a28e4c1324680c188092ecfe5fd8a91a3" target="_top" xlink:title="fs::getBasePath">
<polygon fill="none" stroke="#000000" points="903.5,-38.5 903.5,-57.5 995.5,-57.5 995.5,-38.5 903.5,-38.5"/>
<text text-anchor="middle" x="949.5" y="-45.5" font-family="Helvetica,sans-Serif" font-size="10.00" fill="#000000">fs::getBasePath</text>
</a>
</g>
</g>
<!-- Node9&#45;&gt;Node10 -->
<g id="edge9" class="edge">
<title>Node9&#45;&gt;Node10</title>
<path fill="none" stroke="#191970" d="M857.3517,-37.389C869.2491,-38.759 881.4179,-40.1602 892.8501,-41.4767"/>
<polygon fill="#191970" stroke="#191970" points="892.7782,-44.9914 903.1129,-42.6585 893.579,-38.0374 892.7782,-44.9914"/>
</g>
<!-- Node11 -->
<g id="node10" class="node">
<title>Node11</title>
<g id="a_node10"><a xlink:href="namespacefs.html#a000d1f9ae14d782b6193298e6d27023f" target="_top" xlink:title="fs::fileExists">
<polygon fill="none" stroke="#000000" points="911.5,-.5 911.5,-19.5 987.5,-19.5 987.5,-.5 911.5,-.5"/>
<text text-anchor="middle" x="949.5" y="-7.5" font-family="Helvetica,sans-Serif" font-size="10.00" fill="#000000">fs::fileExists</text>
</a>
</g>
</g>
<!-- Node9&#45;&gt;Node11 -->
<g id="edge10" class="edge">
<title>Node9&#45;&gt;Node11</title>
<path fill="none" stroke="#191970" d="M857.3517,-20.611C872.2113,-18.8999 887.4943,-17.14 901.2366,-15.5576"/>
<polygon fill="#191970" stroke="#191970" points="901.8786,-19.0069 911.4126,-14.3858 901.0778,-12.0528 901.8786,-19.0069"/>
</g>
<!-- Node12&#45;&gt;Node5 -->
<g id="edge12" class="edge">
<title>Node12&#45;&gt;Node5</title>
<path fill="none" stroke="#191970" d="M840.8222,-93.0192C854.4196,-96.6452 869.0754,-100.5534 883.0872,-104.2899"/>
<polygon fill="#191970" stroke="#191970" points="882.5875,-107.7789 893.1517,-106.9738 884.3912,-101.0153 882.5875,-107.7789"/>
</g>
</g>
</svg>
