<?xml version="1.0" encoding="UTF-8" standalone="no"?>
<!DOCTYPE svg PUBLIC "-//W3C//DTD SVG 1.1//EN"
 "http://www.w3.org/Graphics/SVG/1.1/DTD/svg11.dtd">
<!-- Generated by graphviz version 2.40.1 (20161225.0304)
 -->
<!-- Title: Rectangle::width Pages: 1 -->
<svg width="286pt" height="180pt"
 viewBox="0.00 0.00 286.00 180.00" xmlns="http://www.w3.org/2000/svg" xmlns:xlink="http://www.w3.org/1999/xlink">
<g id="graph0" class="graph" transform="scale(1 1) rotate(0) translate(4 176)">
<title>Rectangle::width</title>
<!-- Node61 -->
<g id="node1" class="node">
<title>Node61</title>
<polygon fill="#bfbfbf" stroke="#000000" points="0,-76.5 0,-95.5 98,-95.5 98,-76.5 0,-76.5"/>
<text text-anchor="middle" x="49" y="-83.5" font-family="Helvetica,sans-Serif" font-size="10.00" fill="#000000">Rectangle::width</text>
</g>
<!-- Node62 -->
<g id="node2" class="node">
<title>Node62</title>
<g id="a_node2"><a xlink:href="classPixelBuffer.html#a5402df89a5dc5b23594a697285f21e34" target="_top" xlink:title="Scale the pixel buffer using nearest&#45;neighbor in both dimensions. ">
<polygon fill="none" stroke="#000000" points="155.5,-152.5 155.5,-171.5 256.5,-171.5 256.5,-152.5 155.5,-152.5"/>
<text text-anchor="middle" x="206" y="-159.5" font-family="Helvetica,sans-Serif" font-size="10.00" fill="#000000">PixelBuffer::scale</text>
</a>
</g>
</g>
<!-- Node61&#45;&gt;Node62 -->
<g id="edge1" class="edge">
<title>Node61&#45;&gt;Node62</title>
<path fill="none" stroke="#191970" d="M68.9404,-102.1824C85.4856,-114.8941 110.0917,-132.198 134,-143 142.3647,-146.7793 151.6278,-149.9237 160.6476,-152.4947"/>
<polygon fill="#191970" stroke="#191970" points="70.661,-99.0836 60.6335,-95.6631 66.3394,-104.5903 70.661,-99.0836"/>
</g>
<!-- Node63 -->
<g id="node3" class="node">
<title>Node63</title>
<g id="a_node3"><a xlink:href="classPixelBuffer.html#abbad3bec56ca536a543c42024045c99d" target="_top" xlink:title="Crop the pixel buffer around a region. ">
<polygon fill="none" stroke="#000000" points="157.5,-114.5 157.5,-133.5 254.5,-133.5 254.5,-114.5 157.5,-114.5"/>
<text text-anchor="middle" x="206" y="-121.5" font-family="Helvetica,sans-Serif" font-size="10.00" fill="#000000">PixelBuffer::crop</text>
</a>
</g>
</g>
<!-- Node61&#45;&gt;Node63 -->
<g id="edge2" class="edge">
<title>Node61&#45;&gt;Node63</title>
<path fill="none" stroke="#191970" d="M98.4467,-97.968C120.4478,-103.2931 145.9938,-109.4762 166.6672,-114.4799"/>
<polygon fill="#191970" stroke="#191970" points="99.1605,-94.5398 88.6177,-95.589 97.5137,-101.3433 99.1605,-94.5398"/>
</g>
<!-- Node64 -->
<g id="node4" class="node">
<title>Node64</title>
<g id="a_node4"><a xlink:href="classPixelBuffer.html#af2200c8401646984b4119c3c7ec8e6b5" target="_top" xlink:title="Expands the sprite with a center cross to reach a dimension. ">
<polygon fill="none" stroke="#000000" points="134,-76.5 134,-95.5 278,-95.5 278,-76.5 134,-76.5"/>
<text text-anchor="middle" x="206" y="-83.5" font-family="Helvetica,sans-Serif" font-size="10.00" fill="#000000">PixelBuffer::expandCenter</text>
</a>
</g>
</g>
<!-- Node61&#45;&gt;Node64 -->
<g id="edge3" class="edge">
<title>Node61&#45;&gt;Node64</title>
<path fill="none" stroke="#191970" d="M108.281,-86C116.6581,-86 125.3463,-86 133.9312,-86"/>
<polygon fill="#191970" stroke="#191970" points="108.2451,-82.5001 98.245,-86 108.245,-89.5001 108.2451,-82.5001"/>
</g>
<!-- Node65 -->
<g id="node5" class="node">
<title>Node65</title>
<g id="a_node5"><a xlink:href="classPixelBuffer.html#a0d7a4fd0591121980a922794307c19e9" target="_top" xlink:title="Construct a PixelBuffer from bounds and a range. ">
<polygon fill="none" stroke="#000000" points="141.5,-38.5 141.5,-57.5 270.5,-57.5 270.5,-38.5 141.5,-38.5"/>
<text text-anchor="middle" x="206" y="-45.5" font-family="Helvetica,sans-Serif" font-size="10.00" fill="#000000">PixelBuffer::PixelBuffer</text>
</a>
</g>
</g>
<!-- Node61&#45;&gt;Node65 -->
<g id="edge4" class="edge">
<title>Node61&#45;&gt;Node65</title>
<path fill="none" stroke="#191970" d="M98.4467,-74.032C120.4478,-68.7069 145.9938,-62.5238 166.6672,-57.5201"/>
<polygon fill="#191970" stroke="#191970" points="97.5137,-70.6567 88.6177,-76.411 99.1605,-77.4602 97.5137,-70.6567"/>
</g>
<!-- Node66 -->
<g id="node6" class="node">
<title>Node66</title>
<g id="a_node6"><a xlink:href="classRectangle.html#a8e643108a9d90f031b397c7f561e9b66" target="_top" xlink:title="Rectangle::to_SDL">
<polygon fill="none" stroke="#000000" points="154,-.5 154,-19.5 258,-19.5 258,-.5 154,-.5"/>
<text text-anchor="middle" x="206" y="-7.5" font-family="Helvetica,sans-Serif" font-size="10.00" fill="#000000">Rectangle::to_SDL</text>
</a>
</g>
</g>
<!-- Node61&#45;&gt;Node66 -->
<g id="edge5" class="edge">
<title>Node61&#45;&gt;Node66</title>
<path fill="none" stroke="#191970" d="M68.9404,-69.8176C85.4856,-57.1059 110.0917,-39.802 134,-29 142.3647,-25.2207 151.6278,-22.0763 160.6476,-19.5053"/>
<polygon fill="#191970" stroke="#191970" points="66.3394,-67.4097 60.6335,-76.3369 70.661,-72.9164 66.3394,-67.4097"/>
</g>
</g>
</svg>
