<?xml version="1.0" encoding="UTF-8" standalone="no"?>
<!DOCTYPE svg PUBLIC "-//W3C//DTD SVG 1.1//EN"
 "http://www.w3.org/Graphics/SVG/1.1/DTD/svg11.dtd">
<!-- Generated by graphviz version 2.40.1 (20161225.0304)
 -->
<!-- Title: Text::createTextTexture Pages: 1 -->
<svg width="287pt" height="154pt"
 viewBox="0.00 0.00 287.00 154.00" xmlns="http://www.w3.org/2000/svg" xmlns:xlink="http://www.w3.org/1999/xlink">
<g id="graph0" class="graph" transform="scale(1 1) rotate(0) translate(4 150)">
<title>Text::createTextTexture</title>
<!-- Node16 -->
<g id="node1" class="node">
<title>Node16</title>
<polygon fill="#bfbfbf" stroke="#000000" points="0,-82.5 0,-101.5 130,-101.5 130,-82.5 0,-82.5"/>
<text text-anchor="middle" x="65" y="-89.5" font-family="Helvetica,sans-Serif" font-size="10.00" fill="#000000">Text::createTextTexture</text>
</g>
<!-- Node17 -->
<g id="node2" class="node">
<title>Node17</title>
<g id="a_node2"><a xlink:href="namespacefs.html#a28e4c1324680c188092ecfe5fd8a91a3" target="_top" xlink:title="fs::getBasePath">
<polygon fill="none" stroke="#000000" points="176.5,-126.5 176.5,-145.5 268.5,-145.5 268.5,-126.5 176.5,-126.5"/>
<text text-anchor="middle" x="222.5" y="-133.5" font-family="Helvetica,sans-Serif" font-size="10.00" fill="#000000">fs::getBasePath</text>
</a>
</g>
</g>
<!-- Node16&#45;&gt;Node17 -->
<g id="edge1" class="edge">
<title>Node16&#45;&gt;Node17</title>
<path fill="none" stroke="#191970" d="M99.1752,-101.5473C122.4973,-108.0627 153.5968,-116.7508 178.7302,-123.7722"/>
<polygon fill="#191970" stroke="#191970" points="177.8186,-127.1515 188.3915,-126.4713 179.7021,-120.4097 177.8186,-127.1515"/>
</g>
<!-- Node18 -->
<g id="node3" class="node">
<title>Node18</title>
<g id="a_node3"><a xlink:href="classSingleton.html#af5cb1e5749949e2b68416cfb8d378044" target="_top" xlink:title="Get an instance of the singleton. ">
<polygon fill="none" stroke="#000000" points="166,-77 166,-107 279,-107 279,-77 166,-77"/>
<text text-anchor="start" x="174" y="-95" font-family="Helvetica,sans-Serif" font-size="10.00" fill="#000000">Singleton&lt; Settings</text>
<text text-anchor="middle" x="222.5" y="-84" font-family="Helvetica,sans-Serif" font-size="10.00" fill="#000000"> &gt;::instance</text>
</a>
</g>
</g>
<!-- Node16&#45;&gt;Node18 -->
<g id="edge2" class="edge">
<title>Node16&#45;&gt;Node18</title>
<path fill="none" stroke="#191970" d="M130.4259,-85.3366C138.7178,-85.2279 147.2128,-85.2215 155.5285,-85.3176"/>
<polygon fill="#191970" stroke="#191970" points="155.4999,-88.8175 165.5571,-85.4855 155.6172,-81.8185 155.4999,-88.8175"/>
</g>
<!-- Node16&#45;&gt;Node18 -->
<g id="edge5" class="edge">
<title>Node16&#45;&gt;Node18</title>
<path fill="none" stroke="#191970" d="M130.4259,-98.6634C138.7178,-98.7721 147.2128,-98.7785 155.5285,-98.6824"/>
<polygon fill="#191970" stroke="#191970" points="155.6172,-102.1815 165.5571,-98.5145 155.4999,-95.1825 155.6172,-102.1815"/>
</g>
<!-- Node19 -->
<g id="node4" class="node">
<title>Node19</title>
<g id="a_node4"><a xlink:href="structStrongType.html#acc66e6d6b9c95193a97a839560499933" target="_top" xlink:title="StrongType::get">
<polygon fill="none" stroke="#000000" points="176.5,-38.5 176.5,-57.5 268.5,-57.5 268.5,-38.5 176.5,-38.5"/>
<text text-anchor="middle" x="222.5" y="-45.5" font-family="Helvetica,sans-Serif" font-size="10.00" fill="#000000">StrongType::get</text>
</a>
</g>
</g>
<!-- Node16&#45;&gt;Node19 -->
<g id="edge3" class="edge">
<title>Node16&#45;&gt;Node19</title>
<path fill="none" stroke="#191970" d="M99.1752,-82.4527C122.4973,-75.9373 153.5968,-67.2492 178.7302,-60.2278"/>
<polygon fill="#191970" stroke="#191970" points="179.7021,-63.5903 188.3915,-57.5287 177.8186,-56.8485 179.7021,-63.5903"/>
</g>
<!-- Node20 -->
<g id="node5" class="node">
<title>Node20</title>
<g id="a_node5"><a xlink:href="namespacefs.html#a000d1f9ae14d782b6193298e6d27023f" target="_top" xlink:title="fs::fileExists">
<polygon fill="none" stroke="#000000" points="184.5,-.5 184.5,-19.5 260.5,-19.5 260.5,-.5 184.5,-.5"/>
<text text-anchor="middle" x="222.5" y="-7.5" font-family="Helvetica,sans-Serif" font-size="10.00" fill="#000000">fs::fileExists</text>
</a>
</g>
</g>
<!-- Node16&#45;&gt;Node20 -->
<g id="edge4" class="edge">
<title>Node16&#45;&gt;Node20</title>
<path fill="none" stroke="#191970" d="M78.1506,-82.3918C96.8994,-69.0274 132.7344,-44.7037 166,-29 170.4453,-26.9015 175.1861,-24.9276 179.9597,-23.1044"/>
<polygon fill="#191970" stroke="#191970" points="181.5023,-26.2687 189.7202,-19.5818 179.1259,-19.6844 181.5023,-26.2687"/>
</g>
</g>
</svg>
