<?xml version="1.0" encoding="UTF-8" standalone="no"?>
<!DOCTYPE svg PUBLIC "-//W3C//DTD SVG 1.1//EN"
 "http://www.w3.org/Graphics/SVG/1.1/DTD/svg11.dtd">
<!-- Generated by graphviz version 2.40.1 (20161225.0304)
 -->
<!-- Title: MapNode::getTopMostActiveLayer Pages: 1 -->
<svg width="887pt" height="132pt"
 viewBox="0.00 0.00 887.00 131.50" xmlns="http://www.w3.org/2000/svg" xmlns:xlink="http://www.w3.org/1999/xlink">
<g id="graph0" class="graph" transform="scale(1 1) rotate(0) translate(4 127.5)">
<title>MapNode::getTopMostActiveLayer</title>
<!-- Node102 -->
<g id="node1" class="node">
<title>Node102</title>
<polygon fill="#bfbfbf" stroke="#000000" points="0,-33 0,-63 155,-63 155,-33 0,-33"/>
<text text-anchor="start" x="8" y="-51" font-family="Helvetica,sans-Serif" font-size="10.00" fill="#000000">MapNode::getTopMostActive</text>
<text text-anchor="middle" x="77.5" y="-40" font-family="Helvetica,sans-Serif" font-size="10.00" fill="#000000">Layer</text>
</g>
<!-- Node103 -->
<g id="node2" class="node">
<title>Node103</title>
<g id="a_node2"><a xlink:href="classMapLayers.html#a1d810628821913c499b8348107b66891" target="_top" xlink:title="Check if given Layer is being drawn. ">
<polygon fill="none" stroke="#000000" points="191,-38.5 191,-57.5 332,-57.5 332,-38.5 191,-38.5"/>
<text text-anchor="middle" x="261.5" y="-45.5" font-family="Helvetica,sans-Serif" font-size="10.00" fill="#000000">MapLayers::isLayerActive</text>
</a>
</g>
</g>
<!-- Node102&#45;&gt;Node103 -->
<g id="edge1" class="edge">
<title>Node102&#45;&gt;Node103</title>
<path fill="none" stroke="#191970" d="M155.2659,-48C163.6335,-48 172.162,-48 180.5656,-48"/>
<polygon fill="#191970" stroke="#191970" points="180.735,-51.5001 190.735,-48 180.7349,-44.5001 180.735,-51.5001"/>
</g>
<!-- Node104 -->
<g id="node3" class="node">
<title>Node104</title>
<g id="a_node3"><a xlink:href="classMapLayers.html#ab663dfc9e4c144f904ad85543b66ac8f" target="_top" xlink:title="Toggle Drawing Layer Toggle Drawing Layer (use bitwise XOR to toggle layer) ">
<polygon fill="none" stroke="#000000" points="368,-76.5 368,-95.5 530,-95.5 530,-76.5 368,-76.5"/>
<text text-anchor="middle" x="449" y="-83.5" font-family="Helvetica,sans-Serif" font-size="10.00" fill="#000000">MapLayers::setLayerEditMode</text>
</a>
</g>
</g>
<!-- Node103&#45;&gt;Node104 -->
<g id="edge2" class="edge">
<title>Node103&#45;&gt;Node104</title>
<path fill="none" stroke="#191970" d="M308.8142,-57.589C334.1141,-62.7165 365.4502,-69.0672 392.075,-74.4632"/>
<polygon fill="#191970" stroke="#191970" points="391.5301,-77.9238 402.0261,-76.4799 392.9205,-71.0633 391.5301,-77.9238"/>
</g>
<!-- Node108 -->
<g id="node7" class="node">
<title>Node108</title>
<g id="a_node7"><a xlink:href="classMapLayers.html#a53d7fcd90e70eaf36239d7a75c0c5dda" target="_top" xlink:title="MapLayers::MapLayers">
<polygon fill="none" stroke="#000000" points="385,-38.5 385,-57.5 513,-57.5 513,-38.5 385,-38.5"/>
<text text-anchor="middle" x="449" y="-45.5" font-family="Helvetica,sans-Serif" font-size="10.00" fill="#000000">MapLayers::MapLayers</text>
</a>
</g>
</g>
<!-- Node103&#45;&gt;Node108 -->
<g id="edge6" class="edge">
<title>Node103&#45;&gt;Node108</title>
<path fill="none" stroke="#191970" d="M332.1185,-48C346.0688,-48 360.7479,-48 374.8122,-48"/>
<polygon fill="#191970" stroke="#191970" points="374.9254,-51.5001 384.9254,-48 374.9254,-44.5001 374.9254,-51.5001"/>
</g>
<!-- Node109 -->
<g id="node8" class="node">
<title>Node109</title>
<g id="a_node8"><a xlink:href="classMapLayers.html#aa7fa21110e27ec69f131692b0a510d66" target="_top" xlink:title="MapLayers::~MapLayers">
<polygon fill="none" stroke="#000000" points="381,-.5 381,-19.5 517,-19.5 517,-.5 381,-.5"/>
<text text-anchor="middle" x="449" y="-7.5" font-family="Helvetica,sans-Serif" font-size="10.00" fill="#000000">MapLayers::~MapLayers</text>
</a>
</g>
</g>
<!-- Node103&#45;&gt;Node109 -->
<g id="edge7" class="edge">
<title>Node103&#45;&gt;Node109</title>
<path fill="none" stroke="#191970" d="M308.8142,-38.411C334.1141,-33.2835 365.4502,-26.9328 392.075,-21.5368"/>
<polygon fill="#191970" stroke="#191970" points="392.9205,-24.9367 402.0261,-19.5201 391.5301,-18.0762 392.9205,-24.9367"/>
</g>
<!-- Node105 -->
<g id="node4" class="node">
<title>Node105</title>
<g id="a_node4"><a xlink:href="classMapLayers.html#a0a64d01a42e8864b78e1bc54007cb7d9" target="_top" xlink:title="Toggle Drawing Layer Toggle Drawing Layer (use bitwise XOR to toggle layer) ">
<polygon fill="none" stroke="#000000" points="566,-93 566,-123 706,-123 706,-93 566,-93"/>
<text text-anchor="start" x="574" y="-111" font-family="Helvetica,sans-Serif" font-size="10.00" fill="#000000">MapLayers::deactivateAll</text>
<text text-anchor="middle" x="636" y="-100" font-family="Helvetica,sans-Serif" font-size="10.00" fill="#000000">Layers</text>
</a>
</g>
</g>
<!-- Node104&#45;&gt;Node105 -->
<g id="edge3" class="edge">
<title>Node104&#45;&gt;Node105</title>
<path fill="none" stroke="#191970" d="M529.9333,-95.5216C538.5179,-96.5315 547.2464,-97.5584 555.8223,-98.5673"/>
<polygon fill="#191970" stroke="#191970" points="555.4613,-102.0489 565.8018,-99.7414 556.2792,-95.0969 555.4613,-102.0489"/>
</g>
<!-- Node107 -->
<g id="node6" class="node">
<title>Node107</title>
<g id="a_node6"><a xlink:href="classMapLayers.html#a5db6ba7e194ada6a4d0334d0428ff89b" target="_top" xlink:title="Enable drawing layers. ">
<polygon fill="none" stroke="#000000" points="566,-54.5 566,-73.5 706,-73.5 706,-54.5 566,-54.5"/>
<text text-anchor="middle" x="636" y="-61.5" font-family="Helvetica,sans-Serif" font-size="10.00" fill="#000000">MapLayers::enableLayers</text>
</a>
</g>
</g>
<!-- Node104&#45;&gt;Node107 -->
<g id="edge5" class="edge">
<title>Node104&#45;&gt;Node107</title>
<path fill="none" stroke="#191970" d="M529.9333,-76.4784C538.5179,-75.4685 547.2464,-74.4416 555.8223,-73.4327"/>
<polygon fill="#191970" stroke="#191970" points="556.2792,-76.9031 565.8018,-72.2586 555.4613,-69.9511 556.2792,-76.9031"/>
</g>
<!-- Node106 -->
<g id="node5" class="node">
<title>Node106</title>
<g id="a_node5"><a xlink:href="classMapLayers.html#a3b1b1f10dd431fa83e098a20e4c836b9" target="_top" xlink:title="Disable Drawing Layer Disable Drawing Layer ( Turned off by using bitwise AND with inversed pattern) ...">
<polygon fill="none" stroke="#000000" points="742,-98.5 742,-117.5 879,-117.5 879,-98.5 742,-98.5"/>
<text text-anchor="middle" x="810.5" y="-105.5" font-family="Helvetica,sans-Serif" font-size="10.00" fill="#000000">MapLayers::disableLayer</text>
</a>
</g>
</g>
<!-- Node105&#45;&gt;Node106 -->
<g id="edge4" class="edge">
<title>Node105&#45;&gt;Node106</title>
<path fill="none" stroke="#191970" d="M706.2215,-108C714.5704,-108 723.1356,-108 731.5953,-108"/>
<polygon fill="#191970" stroke="#191970" points="731.8402,-111.5001 741.8402,-108 731.8402,-104.5001 731.8402,-111.5001"/>
</g>
</g>
</svg>
