<?xml version="1.0" encoding="UTF-8" standalone="no"?>
<!DOCTYPE svg PUBLIC "-//W3C//DTD SVG 1.1//EN"
 "http://www.w3.org/Graphics/SVG/1.1/DTD/svg11.dtd">
<!-- Generated by graphviz version 2.40.1 (20161225.0304)
 -->
<!-- Title: UIManager::setCallbackFunctions Pages: 1 -->
<!--zoomable 779 -->
<svg id="main" version="1.1" xmlns="http://www.w3.org/2000/svg" xmlns:xlink="http://www.w3.org/1999/xlink" xml:space="preserve" onload="init(evt)">
<style type="text/css"><![CDATA[
.edge:hover path { stroke: red; }
.edge:hover polygon { stroke: red; fill: red; }
]]></style>
<script type="text/javascript"><![CDATA[
var edges = document.getElementsByTagName('g');
if (edges && edges.length) {
  for (var i=0;i<edges.length;i++) {
    if (edges[i].id.substr(0,4)=='edge') {
      edges[i].setAttribute('class','edge');
    }
  }
}
]]></script>
        <defs>
                <circle id="rim" cx="0" cy="0" r="7"/>
                <circle id="rim2" cx="0" cy="0" r="3.5"/>
                <g id="zoomPlus">
                        <use xlink:href="#rim" fill="#404040">
                                <set attributeName="fill" to="#808080" begin="zoomplus.mouseover" end="zoomplus.mouseout"/>
                        </use>
                        <path d="M-4,0h8M0,-4v8" fill="none" stroke="white" stroke-width="1.5" pointer-events="none"/>
                </g>
                <g id="zoomMin">
                        <use xlink:href="#rim" fill="#404040">
                                <set attributeName="fill" to="#808080" begin="zoomminus.mouseover" end="zoomminus.mouseout"/>
                        </use>
                        <path d="M-4,0h8" fill="none" stroke="white" stroke-width="1.5" pointer-events="none"/>
                </g>
                <g id="dirArrow">
                        <path fill="none" stroke="white" stroke-width="1.5" d="M0,-3.0v7 M-2.5,-0.5L0,-3.0L2.5,-0.5"/>
                </g>
               <g id="resetDef">
                       <use xlink:href="#rim2" fill="#404040">
                               <set attributeName="fill" to="#808080" begin="reset.mouseover" end="reset.mouseout"/>
                       </use>
               </g>
        </defs>

<script type="text/javascript">
var viewWidth = 1246;
var viewHeight = 779;
var sectionId = 'dynsection-23';
</script>
<script xlink:href="svgpan.js"/>
<svg id="graph" class="graph">
<g id="viewport">
<title>UIManager::setCallbackFunctions</title>
<!-- Node188 -->
<g id="node1" class="node">
<title>Node188</title>
<polygon fill="#bfbfbf" stroke="#000000" points="0,-298.5 0,-317.5 178,-317.5 178,-298.5 0,-298.5"/>
<text text-anchor="middle" x="89" y="-305.5" font-family="Helvetica,sans-Serif" font-size="10.00" fill="#000000">UIManager::setCallbackFunctions</text>
</g>
<!-- Node189 -->
<g id="node2" class="node">
<title>Node189</title>
<g id="a_node2"><a xlink:href="classUIElement.html#a6451228b4c9bc058d69e4d4f2b03c719" target="_top" xlink:title="UIElement::getUiElementData">
<polygon fill="none" stroke="#000000" points="825.5,-722.5 825.5,-741.5 989.5,-741.5 989.5,-722.5 825.5,-722.5"/>
<text text-anchor="middle" x="907.5" y="-729.5" font-family="Helvetica,sans-Serif" font-size="10.00" fill="#000000">UIElement::getUiElementData</text>
</a>
</g>
</g>
<!-- Node188&#45;&gt;Node189 -->
<g id="edge1" class="edge">
<title>Node188&#45;&gt;Node189</title>
<path fill="none" stroke="#191970" d="M89.3603,-317.7259C91.5945,-363.2261 107.281,-556.8586 214,-652 398.7846,-816.7379 730.1896,-769.5222 856.6067,-743.7061"/>
<polygon fill="#191970" stroke="#191970" points="857.7001,-747.0534 866.7745,-741.5848 856.2704,-740.201 857.7001,-747.0534"/>
</g>
<!-- Node190 -->
<g id="node3" class="node">
<title>Node190</title>
<g id="a_node3"><a xlink:href="classButton.html#a076af7f94be44c9b450911ae4664f23f" target="_top" xlink:title="Button::checkState">
<polygon fill="none" stroke="#000000" points="452.5,-604.5 452.5,-623.5 561.5,-623.5 561.5,-604.5 452.5,-604.5"/>
<text text-anchor="middle" x="507" y="-611.5" font-family="Helvetica,sans-Serif" font-size="10.00" fill="#000000">Button::checkState</text>
</a>
</g>
</g>
<!-- Node188&#45;&gt;Node190 -->
<g id="edge2" class="edge">
<title>Node188&#45;&gt;Node190</title>
<path fill="none" stroke="#191970" d="M92.3617,-317.5025C104.0622,-349.2822 146.0331,-453.0568 214,-510 280.2754,-565.5261 378.3248,-592.283 442.4384,-604.5339"/>
<polygon fill="#191970" stroke="#191970" points="441.9576,-608.0042 452.4269,-606.3777 443.2284,-601.1205 441.9576,-608.0042"/>
</g>
<!-- Node191 -->
<g id="node4" class="node">
<title>Node191</title>
<g id="a_node4"><a xlink:href="namespaceSignal.html#a6e0df6c5db8c544e147a57b4d89171ca" target="_top" xlink:title="This function creates a std::function by binding object to the member function pointer method...">
<polygon fill="none" stroke="#000000" points="267.5,-190.5 267.5,-209.5 338.5,-209.5 338.5,-190.5 267.5,-190.5"/>
<text text-anchor="middle" x="303" y="-197.5" font-family="Helvetica,sans-Serif" font-size="10.00" fill="#000000">Signal::slot</text>
</a>
</g>
</g>
<!-- Node188&#45;&gt;Node191 -->
<g id="edge3" class="edge">
<title>Node188&#45;&gt;Node191</title>
<path fill="none" stroke="#191970" d="M99.4345,-298.2452C119.7904,-279.7776 166.9392,-239.7081 214,-219 227.4988,-213.0601 242.9863,-208.9258 257.2175,-206.0701"/>
<polygon fill="#191970" stroke="#191970" points="258.1119,-209.4643 267.3116,-204.2091 256.8427,-202.5803 258.1119,-209.4643"/>
</g>
<!-- Node192 -->
<g id="node5" class="node">
<title>Node192</title>
<g id="a_node5"><a xlink:href="classSingleton.html#af5cb1e5749949e2b68416cfb8d378044" target="_top" xlink:title="Get an instance of the singleton. ">
<polygon fill="none" stroke="#000000" points="848.5,-450 848.5,-480 966.5,-480 966.5,-450 848.5,-450"/>
<text text-anchor="start" x="856.5" y="-468" font-family="Helvetica,sans-Serif" font-size="10.00" fill="#000000">Singleton&lt; Engine &gt;</text>
<text text-anchor="middle" x="907.5" y="-457" font-family="Helvetica,sans-Serif" font-size="10.00" fill="#000000">::instance</text>
</a>
</g>
</g>
<!-- Node188&#45;&gt;Node192 -->
<g id="edge4" class="edge">
<title>Node188&#45;&gt;Node192</title>
<path fill="none" stroke="#191970" d="M106.0839,-298.4793C185.7631,-277.0782 527.883,-269.8193 786,-361 831.4696,-377.0623 877.4737,-412.7038 897.335,-440.8361"/>
<polygon fill="#191970" stroke="#191970" points="894.5772,-443.029 902.831,-449.6717 900.5211,-439.3317 894.5772,-443.029"/>
</g>
<!-- Node188&#45;&gt;Node192 -->
<g id="edge8" class="edge">
<title>Node188&#45;&gt;Node192</title>
<path fill="none" stroke="#191970" d="M178.2109,-299.8978C313.5994,-295.904 577.2669,-305.2643 786,-379 825.8101,-393.063 866.0298,-422.1346 888.755,-442.8498"/>
<polygon fill="#191970" stroke="#191970" points="886.3815,-445.4227 896.0343,-449.7902 891.212,-440.3564 886.3815,-445.4227"/>
</g>
<!-- Node188&#45;&gt;Node192 -->
<g id="edge13" class="edge">
<title>Node188&#45;&gt;Node192</title>
<path fill="none" stroke="#191970" d="M178.2109,-311.4564C313.5994,-313.904 577.2669,-323.2643 786,-397 817.3193,-408.0637 848.8923,-428.4165 872.0008,-444.1571"/>
<polygon fill="#191970" stroke="#191970" points="870.1984,-447.165 880.4247,-449.9351 874.1578,-441.3924 870.1984,-447.165"/>
</g>
<!-- Node188&#45;&gt;Node192 -->
<g id="edge25" class="edge">
<title>Node188&#45;&gt;Node192</title>
<path fill="none" stroke="#191970" d="M115.9021,-317.5216C210.7666,-330.678 537.3578,-327.1663 786,-415 807.0392,-422.4322 828.1927,-434.0562 846.818,-444.8927"/>
<polygon fill="#191970" stroke="#191970" points="845.0692,-447.9246 855.4663,-449.9622 848.6092,-441.8856 845.0692,-447.9246"/>
</g>
<!-- Node193 -->
<g id="node6" class="node">
<title>Node193</title>
<g id="a_node6"><a xlink:href="classEngine.html#a0ba57971ffb5173ecc425461f65a4cd8" target="_top" xlink:title="Quits the game Sets m_running to false and quitting the game. ">
<polygon fill="none" stroke="#000000" points="251,-152.5 251,-171.5 355,-171.5 355,-152.5 251,-152.5"/>
<text text-anchor="middle" x="303" y="-159.5" font-family="Helvetica,sans-Serif" font-size="10.00" fill="#000000">Engine::quitGame</text>
</a>
</g>
</g>
<!-- Node188&#45;&gt;Node193 -->
<g id="edge5" class="edge">
<title>Node188&#45;&gt;Node193</title>
<path fill="none" stroke="#191970" d="M95.5285,-298.1665C112.146,-273.9794 158.6701,-211.3585 214,-181 222.3272,-176.431 231.6514,-172.9602 241.0451,-170.3237"/>
<polygon fill="#191970" stroke="#191970" points="241.9753,-173.6988 250.8207,-167.8671 240.2692,-166.9099 241.9753,-173.6988"/>
</g>
<!-- Node194 -->
<g id="node7" class="node">
<title>Node194</title>
<g id="a_node7"><a xlink:href="classEngine.html#a83b7dbeee899b36a13d5b07c7ad87ebc" target="_top" xlink:title="Loads a saved game Loads a saved Game. ">
<polygon fill="none" stroke="#000000" points="454,-146.5 454,-165.5 560,-165.5 560,-146.5 454,-146.5"/>
<text text-anchor="middle" x="507" y="-153.5" font-family="Helvetica,sans-Serif" font-size="10.00" fill="#000000">Engine::loadGame</text>
</a>
</g>
</g>
<!-- Node188&#45;&gt;Node194 -->
<g id="edge24" class="edge">
<title>Node188&#45;&gt;Node194</title>
<path fill="none" stroke="#191970" d="M92.5933,-298.4817C104.4374,-268.6702 145.4511,-177.0677 214,-143 297.6637,-101.4205 411.914,-126.1219 469.9277,-143.4525"/>
<polygon fill="#191970" stroke="#191970" points="469.1631,-146.8792 479.7503,-146.4785 471.224,-140.1894 469.1631,-146.8792"/>
</g>
<!-- Node196 -->
<g id="node9" class="node">
<title>Node196</title>
<g id="a_node9"><a xlink:href="classMapLayers.html#ab663dfc9e4c144f904ad85543b66ac8f" target="_top" xlink:title="Toggle Drawing Layer Toggle Drawing Layer (use bitwise XOR to toggle layer) ">
<polygon fill="none" stroke="#000000" points="222,-76.5 222,-95.5 384,-95.5 384,-76.5 222,-76.5"/>
<text text-anchor="middle" x="303" y="-83.5" font-family="Helvetica,sans-Serif" font-size="10.00" fill="#000000">MapLayers::setLayerEditMode</text>
</a>
</g>
</g>
<!-- Node188&#45;&gt;Node196 -->
<g id="edge9" class="edge">
<title>Node188&#45;&gt;Node196</title>
<path fill="none" stroke="#191970" d="M92.1793,-298.383C103.3029,-266.2754 143.6628,-161.8824 214,-110 219.9323,-105.6242 226.6112,-102.0461 233.5759,-99.1203"/>
<polygon fill="#191970" stroke="#191970" points="235.0651,-102.3002 243.2072,-95.5212 232.6147,-95.7431 235.0651,-102.3002"/>
</g>
<!-- Node200 -->
<g id="node13" class="node">
<title>Node200</title>
<g id="a_node13"><a xlink:href="classTileManager.html#a8ee071ff8b24926288437d310f9bc714" target="_top" xlink:title="TileManager::getTileData">
<polygon fill="none" stroke="#000000" points="233,-38.5 233,-57.5 373,-57.5 373,-38.5 233,-38.5"/>
<text text-anchor="middle" x="303" y="-45.5" font-family="Helvetica,sans-Serif" font-size="10.00" fill="#000000">TileManager::getTileData</text>
</a>
</g>
</g>
<!-- Node188&#45;&gt;Node200 -->
<g id="edge14" class="edge">
<title>Node188&#45;&gt;Node200</title>
<path fill="none" stroke="#191970" d="M90.9342,-298.2739C98.7923,-261.459 131.9093,-129.5774 214,-67 217.0038,-64.7102 220.2228,-62.6823 223.5905,-60.8875"/>
<polygon fill="#191970" stroke="#191970" points="225.1761,-64.0109 232.8068,-56.6608 222.258,-57.6481 225.1761,-64.0109"/>
</g>
<!-- Node201 -->
<g id="node14" class="node">
<title>Node201</title>
<g id="a_node14"><a xlink:href="classUIManager.html#a23bbbe53c18c31ff1c68c105dfa0dbd3" target="_top" xlink:title="Callback function for toggling the visibility of an UiGroup Callback function for Ui Widgets with the...">
<polygon fill="none" stroke="#000000" points="214,-623.5 214,-642.5 392,-642.5 392,-623.5 214,-623.5"/>
<text text-anchor="middle" x="303" y="-630.5" font-family="Helvetica,sans-Serif" font-size="10.00" fill="#000000">UIManager::toggleGroupVisibility</text>
</a>
</g>
</g>
<!-- Node188&#45;&gt;Node201 -->
<g id="edge15" class="edge">
<title>Node188&#45;&gt;Node201</title>
<path fill="none" stroke="#191970" d="M90.9377,-317.6469C99.1167,-356.1596 134.144,-500.9212 214,-586 227.9241,-600.8348 247.5937,-611.8979 264.9017,-619.5514"/>
<polygon fill="#191970" stroke="#191970" points="263.647,-622.8205 274.2229,-623.4549 266.351,-616.3638 263.647,-622.8205"/>
</g>
<!-- Node203 -->
<g id="node16" class="node">
<title>Node203</title>
<g id="a_node16"><a xlink:href="classEngine.html#a260d4834150eae6eec2bde34df6dc827" target="_top" xlink:title="Creates a new game Creates a new game. ">
<polygon fill="none" stroke="#000000" points="454.5,-266.5 454.5,-285.5 559.5,-285.5 559.5,-266.5 454.5,-266.5"/>
<text text-anchor="middle" x="507" y="-273.5" font-family="Helvetica,sans-Serif" font-size="10.00" fill="#000000">Engine::newGame</text>
</a>
</g>
</g>
<!-- Node188&#45;&gt;Node203 -->
<g id="edge19" class="edge">
<title>Node188&#45;&gt;Node203</title>
<path fill="none" stroke="#191970" d="M178.1588,-301.1744C258.1444,-295.0511 373.4997,-286.2201 444.179,-280.8093"/>
<polygon fill="#191970" stroke="#191970" points="444.5698,-284.2897 454.2735,-280.0365 444.0354,-277.3101 444.5698,-284.2897"/>
</g>
<!-- Node204 -->
<g id="node17" class="node">
<title>Node204</title>
<g id="a_node17"><a xlink:href="classEngine.html#ab5a909990be40701ebb4b57c3e716ed4" target="_top" xlink:title="Engine::saveGame">
<polygon fill="none" stroke="#000000" points="249,-228.5 249,-247.5 357,-247.5 357,-228.5 249,-228.5"/>
<text text-anchor="middle" x="303" y="-235.5" font-family="Helvetica,sans-Serif" font-size="10.00" fill="#000000">Engine::saveGame</text>
</a>
</g>
</g>
<!-- Node188&#45;&gt;Node204 -->
<g id="edge21" class="edge">
<title>Node188&#45;&gt;Node204</title>
<path fill="none" stroke="#191970" d="M113.2085,-298.3604C138.2284,-288.5709 178.5221,-273.2867 214,-262 227.1247,-257.8246 241.4834,-253.7441 254.7632,-250.1667"/>
<polygon fill="#191970" stroke="#191970" points="255.903,-253.4854 264.6696,-247.5358 254.1063,-246.7199 255.903,-253.4854"/>
</g>
<!-- Node206 -->
<g id="node19" class="node">
<title>Node206</title>
<g id="a_node19"><a xlink:href="classSettings.html#a53285dd5cbd5bfafe155187c74150dde" target="_top" xlink:title="Save settings to file. ">
<polygon fill="none" stroke="#000000" points="251,-.5 251,-19.5 355,-19.5 355,-.5 251,-.5"/>
<text text-anchor="middle" x="303" y="-7.5" font-family="Helvetica,sans-Serif" font-size="10.00" fill="#000000">Settings::writeFile</text>
</a>
</g>
</g>
<!-- Node188&#45;&gt;Node206 -->
<g id="edge26" class="edge">
<title>Node188&#45;&gt;Node206</title>
<path fill="none" stroke="#191970" d="M90.1804,-298.4637C95.6603,-258.4912 122.3749,-103.0868 214,-29 221.8322,-22.667 231.2827,-18.3099 241.0598,-15.3373"/>
<polygon fill="#191970" stroke="#191970" points="242.0865,-18.6872 250.898,-12.8044 240.3411,-11.9083 242.0865,-18.6872"/>
</g>
<!-- Node208 -->
<g id="node21" class="node">
<title>Node208</title>
<g id="a_node21"><a xlink:href="classUIManager.html#ac927e1cd3dea979202ea9dbf1195b583" target="_top" xlink:title="UIManager::changeResolution">
<polygon fill="none" stroke="#000000" points="222.5,-481.5 222.5,-500.5 383.5,-500.5 383.5,-481.5 222.5,-481.5"/>
<text text-anchor="middle" x="303" y="-488.5" font-family="Helvetica,sans-Serif" font-size="10.00" fill="#000000">UIManager::changeResolution</text>
</a>
</g>
</g>
<!-- Node188&#45;&gt;Node208 -->
<g id="edge28" class="edge">
<title>Node188&#45;&gt;Node208</title>
<path fill="none" stroke="#191970" d="M100.2043,-317.5812C134.7925,-347.159 240.1753,-437.276 283.7887,-474.5716"/>
<polygon fill="#191970" stroke="#191970" points="281.7737,-477.4537 291.6485,-481.2928 286.3231,-472.1336 281.7737,-477.4537"/>
</g>
<!-- Node193&#45;&gt;Node194 -->
<g id="edge6" class="edge">
<title>Node193&#45;&gt;Node194</title>
<path fill="none" stroke="#191970" d="M355.0056,-160.4704C381.9204,-159.6788 415.0052,-158.7057 443.4275,-157.8698"/>
<polygon fill="#191970" stroke="#191970" points="443.7751,-161.3612 453.6679,-157.5686 443.5693,-154.3642 443.7751,-161.3612"/>
</g>
<!-- Node195 -->
<g id="node8" class="node">
<title>Node195</title>
<g id="a_node8"><a xlink:href="classMap.html#afefe996cc1f62b61ec60d0ae415953bf" target="_top" xlink:title="Map::loadMapFromFile">
<polygon fill="none" stroke="#000000" points="641.5,-146.5 641.5,-165.5 766.5,-165.5 766.5,-146.5 641.5,-146.5"/>
<text text-anchor="middle" x="704" y="-153.5" font-family="Helvetica,sans-Serif" font-size="10.00" fill="#000000">Map::loadMapFromFile</text>
</a>
</g>
</g>
<!-- Node194&#45;&gt;Node195 -->
<g id="edge7" class="edge">
<title>Node194&#45;&gt;Node195</title>
<path fill="none" stroke="#191970" d="M560.0515,-156C581.8912,-156 607.5489,-156 631.1066,-156"/>
<polygon fill="#191970" stroke="#191970" points="631.4079,-159.5001 641.4079,-156 631.4078,-152.5001 631.4079,-159.5001"/>
</g>
<!-- Node197 -->
<g id="node10" class="node">
<title>Node197</title>
<g id="a_node10"><a xlink:href="classMapLayers.html#a0a64d01a42e8864b78e1bc54007cb7d9" target="_top" xlink:title="Toggle Drawing Layer Toggle Drawing Layer (use bitwise XOR to toggle layer) ">
<polygon fill="none" stroke="#000000" points="437,-84 437,-114 577,-114 577,-84 437,-84"/>
<text text-anchor="start" x="445" y="-102" font-family="Helvetica,sans-Serif" font-size="10.00" fill="#000000">MapLayers::deactivateAll</text>
<text text-anchor="middle" x="507" y="-91" font-family="Helvetica,sans-Serif" font-size="10.00" fill="#000000">Layers</text>
</a>
</g>
</g>
<!-- Node196&#45;&gt;Node197 -->
<g id="edge10" class="edge">
<title>Node196&#45;&gt;Node197</title>
<path fill="none" stroke="#191970" d="M384.2124,-91.1753C398.2497,-92.0698 412.8356,-92.9993 426.8447,-93.8921"/>
<polygon fill="#191970" stroke="#191970" points="426.7251,-97.3915 436.9275,-94.5346 427.1703,-90.4056 426.7251,-97.3915"/>
</g>
<!-- Node199 -->
<g id="node12" class="node">
<title>Node199</title>
<g id="a_node12"><a xlink:href="classMapLayers.html#a5db6ba7e194ada6a4d0334d0428ff89b" target="_top" xlink:title="Enable drawing layers. ">
<polygon fill="none" stroke="#000000" points="437,-45.5 437,-64.5 577,-64.5 577,-45.5 437,-45.5"/>
<text text-anchor="middle" x="507" y="-52.5" font-family="Helvetica,sans-Serif" font-size="10.00" fill="#000000">MapLayers::enableLayers</text>
</a>
</g>
</g>
<!-- Node196&#45;&gt;Node199 -->
<g id="edge12" class="edge">
<title>Node196&#45;&gt;Node199</title>
<path fill="none" stroke="#191970" d="M365.5931,-76.4883C387.2269,-73.2008 411.6555,-69.4886 434.0467,-66.086"/>
<polygon fill="#191970" stroke="#191970" points="434.8132,-69.5098 444.1738,-64.5471 433.7615,-62.5893 434.8132,-69.5098"/>
</g>
<!-- Node198 -->
<g id="node11" class="node">
<title>Node198</title>
<g id="a_node11"><a xlink:href="classMapLayers.html#a3b1b1f10dd431fa83e098a20e4c836b9" target="_top" xlink:title="Disable Drawing Layer Disable Drawing Layer ( Turned off by using bitwise AND with inversed pattern) ...">
<polygon fill="none" stroke="#000000" points="635.5,-89.5 635.5,-108.5 772.5,-108.5 772.5,-89.5 635.5,-89.5"/>
<text text-anchor="middle" x="704" y="-96.5" font-family="Helvetica,sans-Serif" font-size="10.00" fill="#000000">MapLayers::disableLayer</text>
</a>
</g>
</g>
<!-- Node197&#45;&gt;Node198 -->
<g id="edge11" class="edge">
<title>Node197&#45;&gt;Node198</title>
<path fill="none" stroke="#191970" d="M577.0095,-99C592.5227,-99 609.0676,-99 624.9143,-99"/>
<polygon fill="#191970" stroke="#191970" points="625.2092,-102.5001 635.2092,-99 625.2091,-95.5001 625.2092,-102.5001"/>
</g>
<!-- Node201&#45;&gt;Node189 -->
<g id="edge16" class="edge">
<title>Node201&#45;&gt;Node189</title>
<path fill="none" stroke="#191970" d="M331.8555,-642.5072C357.069,-650.6376 394.7407,-662.3598 428,-671 513.3856,-693.1816 534.6413,-700.7046 622,-713 686.1373,-722.0271 759.0017,-726.7876 815.0661,-729.2859"/>
<polygon fill="#191970" stroke="#191970" points="815.1923,-732.7944 825.3332,-729.7265 815.4925,-725.8009 815.1923,-732.7944"/>
</g>
<!-- Node201&#45;&gt;Node190 -->
<g id="edge18" class="edge">
<title>Node201&#45;&gt;Node190</title>
<path fill="none" stroke="#191970" d="M392.1806,-624.694C408.9788,-623.1294 426.2482,-621.521 442.1275,-620.042"/>
<polygon fill="#191970" stroke="#191970" points="442.7104,-623.503 452.3427,-619.0906 442.0612,-616.5332 442.7104,-623.503"/>
</g>
<!-- Node202 -->
<g id="node15" class="node">
<title>Node202</title>
<g id="a_node15"><a xlink:href="classUIManager.html#acf39ddcfeee8509c4292b6263cd57ad2" target="_top" xlink:title="Close all open menus but the build menu. ">
<polygon fill="none" stroke="#000000" points="428,-642.5 428,-661.5 586,-661.5 586,-642.5 428,-642.5"/>
<text text-anchor="middle" x="507" y="-649.5" font-family="Helvetica,sans-Serif" font-size="10.00" fill="#000000">UIManager::closeOpenMenus</text>
</a>
</g>
</g>
<!-- Node201&#45;&gt;Node202 -->
<g id="edge17" class="edge">
<title>Node201&#45;&gt;Node202</title>
<path fill="none" stroke="#191970" d="M392.1806,-641.306C400.7342,-642.1027 409.41,-642.9107 417.9623,-643.7073"/>
<polygon fill="#191970" stroke="#191970" points="417.6489,-647.1931 427.9304,-644.6357 418.2981,-640.2233 417.6489,-647.1931"/>
</g>
<!-- Node203&#45;&gt;Node192 -->
<g id="edge20" class="edge">
<title>Node203&#45;&gt;Node192</title>
<path fill="none" stroke="#191970" d="M559.569,-268.235C618.6103,-262.1707 715.392,-260.4171 786,-300 842.9707,-331.9378 880.7171,-402.9296 897.5117,-440.533"/>
<polygon fill="#191970" stroke="#191970" points="894.3235,-441.9783 901.511,-449.7623 900.7464,-439.1951 894.3235,-441.9783"/>
</g>
<!-- Node204&#45;&gt;Node203 -->
<g id="edge23" class="edge">
<title>Node204&#45;&gt;Node203</title>
<path fill="none" stroke="#191970" d="M354.2145,-247.54C381.9812,-252.7122 416.4891,-259.1401 445.6806,-264.5778"/>
<polygon fill="#191970" stroke="#191970" points="445.2926,-268.0656 455.7644,-266.4561 446.5745,-261.184 445.2926,-268.0656"/>
</g>
<!-- Node205 -->
<g id="node18" class="node">
<title>Node205</title>
<g id="a_node18"><a xlink:href="classMap.html#ae48ef4fa6a6f73d886211bca59123151" target="_top" xlink:title="Map::saveMapToFile">
<polygon fill="none" stroke="#000000" points="450.5,-228.5 450.5,-247.5 563.5,-247.5 563.5,-228.5 450.5,-228.5"/>
<text text-anchor="middle" x="507" y="-235.5" font-family="Helvetica,sans-Serif" font-size="10.00" fill="#000000">Map::saveMapToFile</text>
</a>
</g>
</g>
<!-- Node204&#45;&gt;Node205 -->
<g id="edge22" class="edge">
<title>Node204&#45;&gt;Node205</title>
<path fill="none" stroke="#191970" d="M357.1327,-238C382.6715,-238 413.3881,-238 440.346,-238"/>
<polygon fill="#191970" stroke="#191970" points="440.4752,-241.5001 450.4751,-238 440.4751,-234.5001 440.4752,-241.5001"/>
</g>
<!-- Node207 -->
<g id="node20" class="node">
<title>Node207</title>
<g id="a_node20"><a xlink:href="namespacefs.html#a9ce6574c55b8154911dfa170003ef14e" target="_top" xlink:title="fs::writeStringToFile">
<polygon fill="none" stroke="#000000" points="451,-.5 451,-19.5 563,-19.5 563,-.5 451,-.5"/>
<text text-anchor="middle" x="507" y="-7.5" font-family="Helvetica,sans-Serif" font-size="10.00" fill="#000000">fs::writeStringToFile</text>
</a>
</g>
</g>
<!-- Node206&#45;&gt;Node207 -->
<g id="edge27" class="edge">
<title>Node206&#45;&gt;Node207</title>
<path fill="none" stroke="#191970" d="M355.0056,-10C381.0793,-10 412.9434,-10 440.7496,-10"/>
<polygon fill="#191970" stroke="#191970" points="440.7921,-13.5001 450.7921,-10 440.7921,-6.5001 440.7921,-13.5001"/>
</g>
<!-- Node208&#45;&gt;Node192 -->
<g id="edge29" class="edge">
<title>Node208&#45;&gt;Node192</title>
<path fill="none" stroke="#191970" d="M383.5854,-482.7668C503.1268,-474.8936 725.4184,-465.4234 838.1277,-463.4891"/>
<polygon fill="#191970" stroke="#191970" points="838.4123,-466.9852 848.3567,-463.3302 838.3035,-459.986 838.4123,-466.9852"/>
</g>
<!-- Node208&#45;&gt;Node192 -->
<g id="edge49" class="edge">
<title>Node208&#45;&gt;Node192</title>
<path fill="none" stroke="#191970" d="M383.5854,-492.3011C503.1268,-489.8912 725.4184,-480.2395 838.1277,-472.4784"/>
<polygon fill="#191970" stroke="#191970" points="838.6276,-475.952 848.3567,-471.7574 838.1353,-468.9693 838.6276,-475.952"/>
</g>
<!-- Node209 -->
<g id="node22" class="node">
<title>Node209</title>
<g id="a_node22"><a xlink:href="classWindowManager.html#a02ff8708c66cbb980399eb967a37a937" target="_top" xlink:title="WindowManager::setScreen\lResolution">
<polygon fill="none" stroke="#000000" points="628,-397 628,-427 780,-427 780,-397 628,-397"/>
<text text-anchor="start" x="636" y="-415" font-family="Helvetica,sans-Serif" font-size="10.00" fill="#000000">WindowManager::setScreen</text>
<text text-anchor="middle" x="704" y="-404" font-family="Helvetica,sans-Serif" font-size="10.00" fill="#000000">Resolution</text>
</a>
</g>
</g>
<!-- Node208&#45;&gt;Node209 -->
<g id="edge30" class="edge">
<title>Node208&#45;&gt;Node209</title>
<path fill="none" stroke="#191970" d="M316.4047,-481.3443C338.4266,-466.0977 384.2017,-436.9534 428,-425 489.9722,-408.0866 562.6329,-405.3108 617.8416,-406.51"/>
<polygon fill="#191970" stroke="#191970" points="617.8514,-410.0114 627.9407,-406.7776 618.037,-403.0138 617.8514,-410.0114"/>
</g>
<!-- Node210 -->
<g id="node23" class="node">
<title>Node210</title>
<g id="a_node23"><a xlink:href="classComboBox.html#afddbdfd25efa15206eb724b641665cfc" target="_top" xlink:title="Get ID of selected element returns the ID of the selected element in the comboBox. ">
<polygon fill="none" stroke="#000000" points="440.5,-566.5 440.5,-585.5 573.5,-585.5 573.5,-566.5 440.5,-566.5"/>
<text text-anchor="middle" x="507" y="-573.5" font-family="Helvetica,sans-Serif" font-size="10.00" fill="#000000">ComboBox::getActiveID</text>
</a>
</g>
</g>
<!-- Node208&#45;&gt;Node210 -->
<g id="edge32" class="edge">
<title>Node208&#45;&gt;Node210</title>
<path fill="none" stroke="#191970" d="M318.1995,-500.6364C341.1636,-514.8164 386.443,-541.3147 428,-557 434.7143,-559.5342 441.8799,-561.8116 449.0523,-563.8341"/>
<polygon fill="#191970" stroke="#191970" points="448.2309,-567.2373 458.7953,-566.4343 450.0359,-560.474 448.2309,-567.2373"/>
</g>
<!-- Node212 -->
<g id="node25" class="node">
<title>Node212</title>
<g id="a_node25"><a xlink:href="classLayout.html#afa734c5af10f59f3dadb066054fe81ab" target="_top" xlink:title="Arrange the layout elements. ">
<polygon fill="none" stroke="#000000" points="437.5,-528.5 437.5,-547.5 576.5,-547.5 576.5,-528.5 437.5,-528.5"/>
<text text-anchor="middle" x="507" y="-535.5" font-family="Helvetica,sans-Serif" font-size="10.00" fill="#000000">Layout::arrangeElements</text>
</a>
</g>
</g>
<!-- Node208&#45;&gt;Node212 -->
<g id="edge34" class="edge">
<title>Node208&#45;&gt;Node212</title>
<path fill="none" stroke="#191970" d="M344.2824,-500.5112C376.3897,-507.9084 421.1168,-518.2132 455.554,-526.1473"/>
<polygon fill="#191970" stroke="#191970" points="454.8988,-529.5879 465.4294,-528.4224 456.4705,-522.7666 454.8988,-529.5879"/>
</g>
<!-- Node220 -->
<g id="node33" class="node">
<title>Node220</title>
<g id="a_node33"><a xlink:href="classMap.html#ab69938ac0e56eb0da1d1701221f3d185" target="_top" xlink:title="Refresh all the map tile textures. ">
<polygon fill="none" stroke="#000000" points="468.5,-434.5 468.5,-453.5 545.5,-453.5 545.5,-434.5 468.5,-434.5"/>
<text text-anchor="middle" x="507" y="-441.5" font-family="Helvetica,sans-Serif" font-size="10.00" fill="#000000">Map::refresh</text>
</a>
</g>
</g>
<!-- Node208&#45;&gt;Node220 -->
<g id="edge50" class="edge">
<title>Node208&#45;&gt;Node220</title>
<path fill="none" stroke="#191970" d="M344.2824,-481.4888C377.2374,-473.8963 423.4875,-463.2406 458.2598,-455.2294"/>
<polygon fill="#191970" stroke="#191970" points="459.2389,-458.5955 468.1978,-452.9397 457.6673,-451.7742 459.2389,-458.5955"/>
</g>
<!-- Node209&#45;&gt;Node192 -->
<g id="edge31" class="edge">
<title>Node209&#45;&gt;Node192</title>
<path fill="none" stroke="#191970" d="M761.7706,-427.0459C786.0449,-433.368 814.4546,-440.767 839.7109,-447.3448"/>
<polygon fill="#191970" stroke="#191970" points="839.0256,-450.7831 849.5849,-449.9165 840.7899,-444.009 839.0256,-450.7831"/>
</g>
<!-- Node211 -->
<g id="node24" class="node">
<title>Node211</title>
<g id="a_node24"><a xlink:href="classComboBox.html#ad0dba514b01ed2bb3c41c738c80a7d6a" target="_top" xlink:title="Set ID of selected element sets the ID of the selected element in the comboBox. ">
<polygon fill="none" stroke="#000000" points="638,-684.5 638,-703.5 770,-703.5 770,-684.5 638,-684.5"/>
<text text-anchor="middle" x="704" y="-691.5" font-family="Helvetica,sans-Serif" font-size="10.00" fill="#000000">ComboBox::setActiveID</text>
</a>
</g>
</g>
<!-- Node210&#45;&gt;Node211 -->
<g id="edge33" class="edge">
<title>Node210&#45;&gt;Node211</title>
<path fill="none" stroke="#191970" d="M570.2639,-585.6541C575.9203,-588.1198 581.2821,-591.1876 586,-595 614.7585,-618.2392 593.816,-646.0674 622,-670 626.8973,-674.1585 632.4847,-677.5969 638.3885,-680.4398"/>
<polygon fill="#191970" stroke="#191970" points="637.2981,-683.7783 647.8726,-684.4349 640.0156,-677.3273 637.2981,-683.7783"/>
</g>
<!-- Node212&#45;&gt;Node192 -->
<g id="edge35" class="edge">
<title>Node212&#45;&gt;Node192</title>
<path fill="none" stroke="#191970" d="M532.0244,-528.4863C580.8764,-515.9909 692.3565,-496.2539 786,-479 802.9432,-475.8782 821.2033,-472.4535 838.2897,-469.4997"/>
<polygon fill="#191970" stroke="#191970" points="838.9209,-472.9428 848.1955,-467.8209 837.7512,-466.0412 838.9209,-472.9428"/>
</g>
<!-- Node212&#45;&gt;Node192 -->
<g id="edge38" class="edge">
<title>Node212&#45;&gt;Node192</title>
<path fill="none" stroke="#191970" d="M576.6889,-532.9927C633.1489,-524.6978 714.739,-510.1299 786,-497 810.2593,-492.5302 837.2184,-487.4393 859.5666,-482.3716"/>
<polygon fill="#191970" stroke="#191970" points="860.5466,-485.7369 869.484,-480.0472 858.9492,-478.9216 860.5466,-485.7369"/>
</g>
<!-- Node213 -->
<g id="node26" class="node">
<title>Node213</title>
<g id="a_node26"><a xlink:href="classLayout.html#a79480df6d9dd2d32b23468c05c6ac944" target="_top" xlink:title="Calculates height and width of layout groups. ">
<polygon fill="none" stroke="#000000" points="623,-559 623,-589 785,-589 785,-559 623,-559"/>
<text text-anchor="start" x="631" y="-577" font-family="Helvetica,sans-Serif" font-size="10.00" fill="#000000">Layout::calculateLayoutGroup</text>
<text text-anchor="middle" x="704" y="-566" font-family="Helvetica,sans-Serif" font-size="10.00" fill="#000000">Dimensions</text>
</a>
</g>
</g>
<!-- Node212&#45;&gt;Node213 -->
<g id="edge36" class="edge">
<title>Node212&#45;&gt;Node213</title>
<path fill="none" stroke="#191970" d="M559.0171,-547.5057C575.5406,-550.5252 594.3284,-553.9585 612.7741,-557.3293"/>
<polygon fill="#191970" stroke="#191970" points="612.205,-560.7832 622.6713,-559.1379 613.4634,-553.8972 612.205,-560.7832"/>
</g>
<!-- Node214 -->
<g id="node27" class="node">
<title>Node214</title>
<g id="a_node27"><a xlink:href="classUIManager.html#a0d32c5b63c4110ff8e43ab06c1c7d761" target="_top" xlink:title="Get the Layoutgroup container Returns the container, that holds LayoutGroups. ">
<polygon fill="none" stroke="#000000" points="822,-646.5 822,-665.5 993,-665.5 993,-646.5 822,-646.5"/>
<text text-anchor="middle" x="907.5" y="-653.5" font-family="Helvetica,sans-Serif" font-size="10.00" fill="#000000">UIManager::getAllLayoutGroups</text>
</a>
</g>
</g>
<!-- Node212&#45;&gt;Node214 -->
<g id="edge39" class="edge">
<title>Node212&#45;&gt;Node214</title>
<path fill="none" stroke="#191970" d="M570.3623,-547.5339C575.9991,-550.0235 581.3295,-553.1297 586,-557 616.0214,-581.878 589.9797,-614.7537 622,-637 651.8433,-657.7338 740.8242,-660.9744 811.6009,-659.9447"/>
<polygon fill="#191970" stroke="#191970" points="811.9652,-663.439 821.902,-659.7634 811.842,-656.44 811.9652,-663.439"/>
</g>
<!-- Node215 -->
<g id="node28" class="node">
<title>Node215</title>
<g id="a_node28"><a xlink:href="classLayout.html#a99004e4afcea6a945e3890b19cce6236" target="_top" xlink:title="Arrange Elements that are aligned to a parent This is a seperate function, so it can recurse if a par...">
<polygon fill="none" stroke="#000000" points="622,-608.5 622,-627.5 786,-627.5 786,-608.5 622,-608.5"/>
<text text-anchor="middle" x="704" y="-615.5" font-family="Helvetica,sans-Serif" font-size="10.00" fill="#000000">Layout::arrangeChildElements</text>
</a>
</g>
</g>
<!-- Node212&#45;&gt;Node215 -->
<g id="edge40" class="edge">
<title>Node212&#45;&gt;Node215</title>
<path fill="none" stroke="#191970" d="M565.2136,-547.5333C572.4999,-549.9972 579.6227,-553.098 586,-557 606.9713,-569.8316 600.9754,-586.2559 622,-599 625.585,-601.1731 629.3963,-603.0977 633.338,-604.8022"/>
<polygon fill="#191970" stroke="#191970" points="632.1368,-608.09 642.7273,-608.3936 634.6376,-601.552 632.1368,-608.09"/>
</g>
<!-- Node213&#45;&gt;Node192 -->
<g id="edge37" class="edge">
<title>Node213&#45;&gt;Node192</title>
<path fill="none" stroke="#191970" d="M750.7411,-558.9662C762.473,-554.6344 774.8818,-549.5588 786,-544 819.472,-527.265 855.0628,-503.3091 879.0117,-486.1719"/>
<polygon fill="#191970" stroke="#191970" points="881.2291,-488.8877 887.2827,-480.1927 877.1281,-483.2148 881.2291,-488.8877"/>
</g>
<!-- Node215&#45;&gt;Node189 -->
<g id="edge44" class="edge">
<title>Node215&#45;&gt;Node189</title>
<path fill="none" stroke="#191970" d="M721.0003,-627.5235C756.6127,-647.4735 839.2422,-693.7622 881.5383,-717.4563"/>
<polygon fill="#191970" stroke="#191970" points="879.9701,-720.5896 890.405,-722.4234 883.3912,-714.4825 879.9701,-720.5896"/>
</g>
<!-- Node215&#45;&gt;Node192 -->
<g id="edge41" class="edge">
<title>Node215&#45;&gt;Node192</title>
<path fill="none" stroke="#191970" d="M729.492,-608.4515C746.4661,-604.8665 768.7364,-600.1379 786,-590 789.0289,-588.2213 847.2017,-523.4417 881.9381,-487.6909"/>
<polygon fill="#191970" stroke="#191970" points="884.8688,-489.7022 889.3833,-480.1173 879.8769,-484.795 884.8688,-489.7022"/>
</g>
<!-- Node215&#45;&gt;Node192 -->
<g id="edge42" class="edge">
<title>Node215&#45;&gt;Node192</title>
<path fill="none" stroke="#191970" d="M785.2408,-608.4405C785.4949,-608.2948 785.748,-608.148 786,-608 789.3181,-606.0515 858.8148,-528.4953 891.1797,-488.2383"/>
<polygon fill="#191970" stroke="#191970" points="894.0338,-490.2715 897.4852,-480.2546 888.5405,-485.9328 894.0338,-490.2715"/>
</g>
<!-- Node215&#45;&gt;Node214 -->
<g id="edge45" class="edge">
<title>Node215&#45;&gt;Node214</title>
<path fill="none" stroke="#191970" d="M755.089,-627.54C782.7877,-632.7122 817.211,-639.1401 846.3309,-644.5778"/>
<polygon fill="#191970" stroke="#191970" points="845.9174,-648.061 856.39,-646.4561 847.2024,-641.1799 845.9174,-648.061"/>
</g>
<!-- Node216 -->
<g id="node29" class="node">
<title>Node216</title>
<g id="a_node29"><a xlink:href="classUIManager.html#aa5b6dbe1a9d5c50b588c55e9c9673f58" target="_top" xlink:title="Get the Ui Element By ID Finds and returns an UiElement by its elementID parameter. ">
<polygon fill="none" stroke="#000000" points="825,-570.5 825,-589.5 990,-589.5 990,-570.5 825,-570.5"/>
<text text-anchor="middle" x="907.5" y="-577.5" font-family="Helvetica,sans-Serif" font-size="10.00" fill="#000000">UIManager::getUiElementByID</text>
</a>
</g>
</g>
<!-- Node215&#45;&gt;Node216 -->
<g id="edge43" class="edge">
<title>Node215&#45;&gt;Node216</title>
<path fill="none" stroke="#191970" d="M755.089,-608.46C782.7877,-603.2878 817.211,-596.8599 846.3309,-591.4222"/>
<polygon fill="#191970" stroke="#191970" points="847.2024,-594.8201 856.39,-589.5439 845.9174,-587.939 847.2024,-594.8201"/>
</g>
<!-- Node217 -->
<g id="node30" class="node">
<title>Node217</title>
<g id="a_node30"><a xlink:href="classUIElement.html#ad1c0d7431b71bdd9a3704a6d5c8a4643" target="_top" xlink:title="Get the position and the size of this ui element Gets the position and the size of this ui element...">
<polygon fill="none" stroke="#000000" points="827,-608.5 827,-627.5 988,-627.5 988,-608.5 827,-608.5"/>
<text text-anchor="middle" x="907.5" y="-615.5" font-family="Helvetica,sans-Serif" font-size="10.00" fill="#000000">UIElement::getUiElementRect</text>
</a>
</g>
</g>
<!-- Node215&#45;&gt;Node217 -->
<g id="edge46" class="edge">
<title>Node215&#45;&gt;Node217</title>
<path fill="none" stroke="#191970" d="M786.1847,-618C796.278,-618 806.6383,-618 816.8478,-618"/>
<polygon fill="#191970" stroke="#191970" points="816.9915,-621.5001 826.9915,-618 816.9915,-614.5001 816.9915,-621.5001"/>
</g>
<!-- Node218 -->
<g id="node31" class="node">
<title>Node218</title>
<g id="a_node31"><a xlink:href="classUIElement.html#aa7f624963eaeb31043d74219ee24386c" target="_top" xlink:title="Checks if the mouse cursor is over the current UI Element Check if the coordinates match the ones sto...">
<polygon fill="none" stroke="#000000" points="1065,-627.5 1065,-646.5 1202,-646.5 1202,-627.5 1065,-627.5"/>
<text text-anchor="middle" x="1133.5" y="-634.5" font-family="Helvetica,sans-Serif" font-size="10.00" fill="#000000">UIElement::isMouseOver</text>
</a>
</g>
</g>
<!-- Node217&#45;&gt;Node218 -->
<g id="edge47" class="edge">
<title>Node217&#45;&gt;Node218</title>
<path fill="none" stroke="#191970" d="M988.134,-624.779C1009.802,-626.6006 1033.204,-628.568 1054.7673,-630.3809"/>
<polygon fill="#191970" stroke="#191970" points="1054.6016,-633.8792 1064.8597,-631.2294 1055.1881,-626.9038 1054.6016,-633.8792"/>
</g>
<!-- Node219 -->
<g id="node32" class="node">
<title>Node219</title>
<g id="a_node32"><a xlink:href="classUIElement.html#a570841bf8b7970ca935b1a00e571036a" target="_top" xlink:title="Handling for the hovering event Check, if the mouse cursor is hovering over the element. virtual function to provide custom handling if necessary (e.g. Combobox) Per default, it&#39;s the same implementation as isMouseOver. ">
<polygon fill="none" stroke="#000000" points="1029,-589.5 1029,-608.5 1238,-608.5 1238,-589.5 1029,-589.5"/>
<text text-anchor="middle" x="1133.5" y="-596.5" font-family="Helvetica,sans-Serif" font-size="10.00" fill="#000000">UIElement::isMouseOverHoverableArea</text>
</a>
</g>
</g>
<!-- Node217&#45;&gt;Node219 -->
<g id="edge48" class="edge">
<title>Node217&#45;&gt;Node219</title>
<path fill="none" stroke="#191970" d="M988.134,-611.221C998.0217,-610.3898 1008.2705,-609.5281 1018.5409,-608.6647"/>
<polygon fill="#191970" stroke="#191970" points="1019.1343,-612.1273 1028.8059,-607.8017 1018.5478,-605.1519 1019.1343,-612.1273"/>
</g>
</g>
</svg>
        <g id="navigator" transform="translate(0 0)" fill="#404254">
                <rect fill="#f2f5e9" fill-opacity="0.5" stroke="#606060" stroke-width=".5" x="0" y="0" width="60" height="60"/>
                <use id="zoomplus" xlink:href="#zoomPlus" x="17" y="9" onmousedown="handleZoom(evt,'in')"/>
                <use id="zoomminus" xlink:href="#zoomMin" x="42" y="9" onmousedown="handleZoom(evt,'out')"/>
                <use id="reset" xlink:href="#resetDef" x="30" y="36" onmousedown="handleReset()"/>
                <g id="arrowUp" xlink:href="#dirArrow" transform="translate(30 24)" onmousedown="handlePan(0,-1)">
                  <use xlink:href="#rim" fill="#404040">
                        <set attributeName="fill" to="#808080" begin="arrowUp.mouseover" end="arrowUp.mouseout"/>
                  </use>
                  <path fill="none" stroke="white" stroke-width="1.5" d="M0,-3.0v7 M-2.5,-0.5L0,-3.0L2.5,-0.5"/>
                </g>
                <g id="arrowRight" xlink:href="#dirArrow" transform="rotate(90) translate(36 -43)" onmousedown="handlePan(1,0)">
                  <use xlink:href="#rim" fill="#404040">
                        <set attributeName="fill" to="#808080" begin="arrowRight.mouseover" end="arrowRight.mouseout"/>
                  </use>
                  <path fill="none" stroke="white" stroke-width="1.5" d="M0,-3.0v7 M-2.5,-0.5L0,-3.0L2.5,-0.5"/>
                </g>
                <g id="arrowDown" xlink:href="#dirArrow" transform="rotate(180) translate(-30 -48)" onmousedown="handlePan(0,1)">
                  <use xlink:href="#rim" fill="#404040">
                        <set attributeName="fill" to="#808080" begin="arrowDown.mouseover" end="arrowDown.mouseout"/>
                  </use>
                  <path fill="none" stroke="white" stroke-width="1.5" d="M0,-3.0v7 M-2.5,-0.5L0,-3.0L2.5,-0.5"/>
                </g>
                <g id="arrowLeft" xlink:href="#dirArrow" transform="rotate(270) translate(-36 17)" onmousedown="handlePan(-1,0)">
                  <use xlink:href="#rim" fill="#404040">
                        <set attributeName="fill" to="#808080" begin="arrowLeft.mouseover" end="arrowLeft.mouseout"/>
                  </use>
                  <path fill="none" stroke="white" stroke-width="1.5" d="M0,-3.0v7 M-2.5,-0.5L0,-3.0L2.5,-0.5"/>
                </g>
        </g>
        <svg viewBox="0 0 15 15" width="100%" height="30px" preserveAspectRatio="xMaxYMin meet">
         <g id="arrow_out" transform="scale(0.3 0.3)">
          <a xlink:href="classUIManager_aa78e356fc3b356d790c848319d1c387e_cgraph_org.svg" target="_base">
           <rect id="button" ry="5" rx="5" y="6" x="6" height="38" width="38"
                fill="#f2f5e9" fill-opacity="0.5" stroke="#606060" stroke-width="1.0"/>
           <path id="arrow"
             d="M 11.500037,31.436501 C 11.940474,20.09759 22.043105,11.32322 32.158766,21.979434 L 37.068811,17.246167 C 37.068811,17.246167 37.088388,32 37.088388,32 L 22.160133,31.978069 C 22.160133,31.978069 26.997745,27.140456 26.997745,27.140456 C 18.528582,18.264221 13.291696,25.230495 11.500037,31.436501 z"
             style="fill:#404040;"/>
          </a>
         </g>
        </svg>
</svg>
