<?xml version="1.0" encoding="UTF-8" standalone="no"?>
<!DOCTYPE svg PUBLIC "-//W3C//DTD SVG 1.1//EN"
 "http://www.w3.org/Graphics/SVG/1.1/DTD/svg11.dtd">
<!-- Generated by graphviz version 2.40.1 (20161225.0304)
 -->
<!-- Title: EventManager Pages: 1 -->
<!--zoomable 1011 -->
<svg id="main" version="1.1" xmlns="http://www.w3.org/2000/svg" xmlns:xlink="http://www.w3.org/1999/xlink" xml:space="preserve" onload="init(evt)">
<style type="text/css"><![CDATA[
.edge:hover path { stroke: red; }
.edge:hover polygon { stroke: red; fill: red; }
]]></style>
<script type="text/javascript"><![CDATA[
var edges = document.getElementsByTagName('g');
if (edges && edges.length) {
  for (var i=0;i<edges.length;i++) {
    if (edges[i].id.substr(0,4)=='edge') {
      edges[i].setAttribute('class','edge');
    }
  }
}
]]></script>
        <defs>
                <circle id="rim" cx="0" cy="0" r="7"/>
                <circle id="rim2" cx="0" cy="0" r="3.5"/>
                <g id="zoomPlus">
                        <use xlink:href="#rim" fill="#404040">
                                <set attributeName="fill" to="#808080" begin="zoomplus.mouseover" end="zoomplus.mouseout"/>
                        </use>
                        <path d="M-4,0h8M0,-4v8" fill="none" stroke="white" stroke-width="1.5" pointer-events="none"/>
                </g>
                <g id="zoomMin">
                        <use xlink:href="#rim" fill="#404040">
                                <set attributeName="fill" to="#808080" begin="zoomminus.mouseover" end="zoomminus.mouseout"/>
                        </use>
                        <path d="M-4,0h8" fill="none" stroke="white" stroke-width="1.5" pointer-events="none"/>
                </g>
                <g id="dirArrow">
                        <path fill="none" stroke="white" stroke-width="1.5" d="M0,-3.0v7 M-2.5,-0.5L0,-3.0L2.5,-0.5"/>
                </g>
               <g id="resetDef">
                       <use xlink:href="#rim2" fill="#404040">
                               <set attributeName="fill" to="#808080" begin="reset.mouseover" end="reset.mouseout"/>
                       </use>
               </g>
        </defs>

<script type="text/javascript">
var viewWidth = 879;
var viewHeight = 1011;
var sectionId = 'dynsection-1';
</script>
<script xlink:href="svgpan.js"/>
<svg id="graph" class="graph">
<g id="viewport">
<title>EventManager</title>
<!-- Node3 -->
<g id="node1" class="node">
<title>Node3</title>
<polygon fill="#bfbfbf" stroke="#000000" points="202.5,-.5 202.5,-189.5 342.5,-189.5 342.5,-.5 202.5,-.5"/>
<text text-anchor="middle" x="272.5" y="-177.5" font-family="Helvetica,sans-Serif" font-size="10.00" fill="#000000">EventManager</text>
<polyline fill="none" stroke="#000000" points="202.5,-170.5 342.5,-170.5 "/>
<text text-anchor="start" x="210.5" y="-158.5" font-family="Helvetica,sans-Serif" font-size="10.00" fill="#000000">&#45; m_placementAllowed</text>
<text text-anchor="start" x="210.5" y="-147.5" font-family="Helvetica,sans-Serif" font-size="10.00" fill="#000000">&#45; m_panning</text>
<text text-anchor="start" x="210.5" y="-136.5" font-family="Helvetica,sans-Serif" font-size="10.00" fill="#000000">&#45; m_skipLeftClick</text>
<text text-anchor="start" x="210.5" y="-125.5" font-family="Helvetica,sans-Serif" font-size="10.00" fill="#000000">&#45; m_tileInfoMode</text>
<text text-anchor="start" x="210.5" y="-114.5" font-family="Helvetica,sans-Serif" font-size="10.00" fill="#000000">&#45; m_cancelTileSelection</text>
<text text-anchor="start" x="210.5" y="-103.5" font-family="Helvetica,sans-Serif" font-size="10.00" fill="#000000">&#45; m_nodesToPlace</text>
<text text-anchor="start" x="210.5" y="-92.5" font-family="Helvetica,sans-Serif" font-size="10.00" fill="#000000">&#45; m_nodesToHighlight</text>
<text text-anchor="start" x="210.5" y="-81.5" font-family="Helvetica,sans-Serif" font-size="10.00" fill="#000000">&#45; m_timers</text>
<text text-anchor="start" x="210.5" y="-70.5" font-family="Helvetica,sans-Serif" font-size="10.00" fill="#000000">&#45; m_transparentBuildings</text>
<polyline fill="none" stroke="#000000" points="202.5,-63.5 342.5,-63.5 "/>
<text text-anchor="start" x="210.5" y="-51.5" font-family="Helvetica,sans-Serif" font-size="10.00" fill="#000000">+ EventManager()</text>
<text text-anchor="start" x="210.5" y="-40.5" font-family="Helvetica,sans-Serif" font-size="10.00" fill="#000000">+ ~EventManager()</text>
<text text-anchor="start" x="210.5" y="-29.5" font-family="Helvetica,sans-Serif" font-size="10.00" fill="#000000">+ checkEvents()</text>
<text text-anchor="start" x="210.5" y="-18.5" font-family="Helvetica,sans-Serif" font-size="10.00" fill="#000000">+ registerTimer()</text>
<text text-anchor="start" x="210.5" y="-7.5" font-family="Helvetica,sans-Serif" font-size="10.00" fill="#000000">+ unHighlightNodes()</text>
</g>
<!-- Node4 -->
<g id="node2" class="node">
<title>Node4</title>
<g id="a_node2"><a xlink:href="classSingleton.html" target="_top" xlink:title="{Singleton\&lt; EventManager \&gt;\n||+ instance()\l# Singleton()\l# ~Singleton()\l}">
<polygon fill="none" stroke="#000000" points="0,-698.5 0,-777.5 155,-777.5 155,-698.5 0,-698.5"/>
<text text-anchor="middle" x="77.5" y="-765.5" font-family="Helvetica,sans-Serif" font-size="10.00" fill="#000000">Singleton&lt; EventManager &gt;</text>
<polyline fill="none" stroke="#000000" points="0,-758.5 155,-758.5 "/>
<text text-anchor="middle" x="77.5" y="-746.5" font-family="Helvetica,sans-Serif" font-size="10.00" fill="#000000"> </text>
<polyline fill="none" stroke="#000000" points="0,-739.5 155,-739.5 "/>
<text text-anchor="start" x="8" y="-727.5" font-family="Helvetica,sans-Serif" font-size="10.00" fill="#000000">+ instance()</text>
<text text-anchor="start" x="8" y="-716.5" font-family="Helvetica,sans-Serif" font-size="10.00" fill="#000000"># Singleton()</text>
<text text-anchor="start" x="8" y="-705.5" font-family="Helvetica,sans-Serif" font-size="10.00" fill="#000000"># ~Singleton()</text>
</a>
</g>
</g>
<!-- Node4&#45;&gt;Node3 -->
<g id="edge1" class="edge">
<title>Node4&#45;&gt;Node3</title>
<path fill="none" stroke="#191970" d="M70.0589,-688.4216C59.9498,-607.1727 48.221,-441.9253 96.5,-314 118.8036,-254.902 163.5795,-199.5538 202.3847,-159.2845"/>
<polygon fill="none" stroke="#191970" points="66.5923,-688.9057 71.3423,-698.3761 73.5348,-688.0106 66.5923,-688.9057"/>
</g>
<!-- Node5 -->
<g id="node3" class="node">
<title>Node5</title>
<g id="a_node3"><a xlink:href="classSingleton.html" target="_top" xlink:title="Abstract Singleton implementation. ">
<polygon fill="none" stroke="#000000" points="91,-923.5 91,-1002.5 182,-1002.5 182,-923.5 91,-923.5"/>
<text text-anchor="middle" x="136.5" y="-990.5" font-family="Helvetica,sans-Serif" font-size="10.00" fill="#000000">Singleton&lt; T &gt;</text>
<polyline fill="none" stroke="#000000" points="91,-983.5 182,-983.5 "/>
<text text-anchor="middle" x="136.5" y="-971.5" font-family="Helvetica,sans-Serif" font-size="10.00" fill="#000000"> </text>
<polyline fill="none" stroke="#000000" points="91,-964.5 182,-964.5 "/>
<text text-anchor="start" x="99" y="-952.5" font-family="Helvetica,sans-Serif" font-size="10.00" fill="#000000">+ instance()</text>
<text text-anchor="start" x="99" y="-941.5" font-family="Helvetica,sans-Serif" font-size="10.00" fill="#000000"># Singleton()</text>
<text text-anchor="start" x="99" y="-930.5" font-family="Helvetica,sans-Serif" font-size="10.00" fill="#000000"># ~Singleton()</text>
</a>
</g>
</g>
<!-- Node5&#45;&gt;Node4 -->
<g id="edge2" class="edge">
<title>Node5&#45;&gt;Node4</title>
<path fill="none" stroke="#ffa500" d="M84.3045,-921.3119C80.3924,-916.2239 77.0025,-910.7679 74.5,-905 56.8411,-864.2992 61.3617,-812.5974 67.858,-777.5822"/>
<polygon fill="#ffa500" stroke="#ffa500" points="81.6889,-923.639 90.8295,-928.9963 87.0248,-919.1081 81.6889,-923.639"/>
<text text-anchor="middle" x="122.5" y="-897" font-family="Helvetica,sans-Serif" font-size="10.00" fill="#000000"> &lt; EventManager &gt;</text>
</g>
<!-- Node7 -->
<g id="node5" class="node">
<title>Node7</title>
<g id="a_node5"><a xlink:href="classSingleton.html" target="_top" xlink:title="{Singleton\&lt; UIManager \&gt;\n||+ instance()\l# Singleton()\l# ~Singleton()\l}">
<polygon fill="none" stroke="#000000" points="127,-796.5 127,-875.5 264,-875.5 264,-796.5 127,-796.5"/>
<text text-anchor="middle" x="195.5" y="-863.5" font-family="Helvetica,sans-Serif" font-size="10.00" fill="#000000">Singleton&lt; UIManager &gt;</text>
<polyline fill="none" stroke="#000000" points="127,-856.5 264,-856.5 "/>
<text text-anchor="middle" x="195.5" y="-844.5" font-family="Helvetica,sans-Serif" font-size="10.00" fill="#000000"> </text>
<polyline fill="none" stroke="#000000" points="127,-837.5 264,-837.5 "/>
<text text-anchor="start" x="135" y="-825.5" font-family="Helvetica,sans-Serif" font-size="10.00" fill="#000000">+ instance()</text>
<text text-anchor="start" x="135" y="-814.5" font-family="Helvetica,sans-Serif" font-size="10.00" fill="#000000"># Singleton()</text>
<text text-anchor="start" x="135" y="-803.5" font-family="Helvetica,sans-Serif" font-size="10.00" fill="#000000"># ~Singleton()</text>
</a>
</g>
</g>
<!-- Node5&#45;&gt;Node7 -->
<g id="edge5" class="edge">
<title>Node5&#45;&gt;Node7</title>
<path fill="none" stroke="#ffa500" d="M169.6794,-914.4816C171.4021,-911.3243 173.0266,-908.1483 174.5,-905 178.7992,-895.8137 182.4802,-885.5328 185.5038,-875.7697"/>
<polygon fill="#ffa500" stroke="#ffa500" points="166.5635,-912.8791 164.6082,-923.292 172.6302,-916.3712 166.5635,-912.8791"/>
<text text-anchor="middle" x="219" y="-897" font-family="Helvetica,sans-Serif" font-size="10.00" fill="#000000"> &lt; UIManager &gt;</text>
</g>
<!-- Node6 -->
<g id="node4" class="node">
<title>Node6</title>
<g id="a_node4"><a xlink:href="classUIManager.html" target="_top" xlink:title="Draws the UI to the screen Parses UiLayout.json file and instantiates UI widgets accordingly. Also takes care of layouting. ">
<polygon fill="none" stroke="#000000" points="106,-314.5 106,-679.5 285,-679.5 285,-314.5 106,-314.5"/>
<text text-anchor="middle" x="195.5" y="-667.5" font-family="Helvetica,sans-Serif" font-size="10.00" fill="#000000">UIManager</text>
<polyline fill="none" stroke="#000000" points="106,-660.5 285,-660.5 "/>
<text text-anchor="start" x="114" y="-648.5" font-family="Helvetica,sans-Serif" font-size="10.00" fill="#000000">+ Singleton&lt; UIManager &gt;</text>
<text text-anchor="start" x="114" y="-637.5" font-family="Helvetica,sans-Serif" font-size="10.00" fill="#000000">&#45; m_buildMenuLayout</text>
<text text-anchor="start" x="114" y="-626.5" font-family="Helvetica,sans-Serif" font-size="10.00" fill="#000000">&#45; m_uiElements</text>
<text text-anchor="start" x="114" y="-615.5" font-family="Helvetica,sans-Serif" font-size="10.00" fill="#000000">&#45; m_uiElementsForEventHandling</text>
<text text-anchor="start" x="114" y="-604.5" font-family="Helvetica,sans-Serif" font-size="10.00" fill="#000000">&#45; m_uiGroups</text>
<text text-anchor="start" x="114" y="-593.5" font-family="Helvetica,sans-Serif" font-size="10.00" fill="#000000">&#45; m_layoutGroups</text>
<text text-anchor="start" x="114" y="-582.5" font-family="Helvetica,sans-Serif" font-size="10.00" fill="#000000">&#45; m_buttonGroups</text>
<text text-anchor="start" x="114" y="-571.5" font-family="Helvetica,sans-Serif" font-size="10.00" fill="#000000">&#45; m_tooltip</text>
<text text-anchor="start" x="114" y="-560.5" font-family="Helvetica,sans-Serif" font-size="10.00" fill="#000000">&#45; m_fpsCounter</text>
<text text-anchor="start" x="114" y="-549.5" font-family="Helvetica,sans-Serif" font-size="10.00" fill="#000000">&#45; m_showDebugMenu</text>
<polyline fill="none" stroke="#000000" points="106,-542.5 285,-542.5 "/>
<text text-anchor="start" x="114" y="-530.5" font-family="Helvetica,sans-Serif" font-size="10.00" fill="#000000">+ init()</text>
<text text-anchor="start" x="114" y="-519.5" font-family="Helvetica,sans-Serif" font-size="10.00" fill="#000000">+ initializeDollarVariables()</text>
<text text-anchor="start" x="114" y="-508.5" font-family="Helvetica,sans-Serif" font-size="10.00" fill="#000000">+ drawUI()</text>
<text text-anchor="start" x="114" y="-497.5" font-family="Helvetica,sans-Serif" font-size="10.00" fill="#000000">+ toggleGroupVisibility()</text>
<text text-anchor="start" x="114" y="-486.5" font-family="Helvetica,sans-Serif" font-size="10.00" fill="#000000">+ toggleDebugMenu()</text>
<text text-anchor="start" x="114" y="-475.5" font-family="Helvetica,sans-Serif" font-size="10.00" fill="#000000">+ setFPSCounterText()</text>
<text text-anchor="start" x="114" y="-464.5" font-family="Helvetica,sans-Serif" font-size="10.00" fill="#000000">+ setBuildMenuPosition()</text>
<text text-anchor="start" x="114" y="-453.5" font-family="Helvetica,sans-Serif" font-size="10.00" fill="#000000">+ getAllUiElements()</text>
<text text-anchor="start" x="114" y="-442.5" font-family="Helvetica,sans-Serif" font-size="10.00" fill="#000000">+ getAllUiElementsForEvent</text>
<text text-anchor="start" x="114" y="-431.5" font-family="Helvetica,sans-Serif" font-size="10.00" fill="#000000">Handling()</text>
<text text-anchor="start" x="114" y="-420.5" font-family="Helvetica,sans-Serif" font-size="10.00" fill="#000000">+ getUiElementsOfGroup()</text>
<text text-anchor="start" x="114" y="-409.5" font-family="Helvetica,sans-Serif" font-size="10.00" fill="#000000">and 8 more...</text>
<text text-anchor="start" x="114" y="-398.5" font-family="Helvetica,sans-Serif" font-size="10.00" fill="#000000">&#45; UIManager()</text>
<text text-anchor="start" x="114" y="-387.5" font-family="Helvetica,sans-Serif" font-size="10.00" fill="#000000">&#45; ~UIManager()</text>
<text text-anchor="start" x="114" y="-376.5" font-family="Helvetica,sans-Serif" font-size="10.00" fill="#000000">&#45; setCallbackFunctions()</text>
<text text-anchor="start" x="114" y="-365.5" font-family="Helvetica,sans-Serif" font-size="10.00" fill="#000000">&#45; scaleCenterButtonImage()</text>
<text text-anchor="start" x="114" y="-354.5" font-family="Helvetica,sans-Serif" font-size="10.00" fill="#000000">&#45; createBuildMenu()</text>
<text text-anchor="start" x="114" y="-343.5" font-family="Helvetica,sans-Serif" font-size="10.00" fill="#000000">&#45; setBuildMenuLayout()</text>
<text text-anchor="start" x="114" y="-332.5" font-family="Helvetica,sans-Serif" font-size="10.00" fill="#000000">&#45; setupButtonTileImage()</text>
<text text-anchor="start" x="114" y="-321.5" font-family="Helvetica,sans-Serif" font-size="10.00" fill="#000000">&#45; addToLayoutGroup()</text>
</a>
</g>
</g>
<!-- Node6&#45;&gt;Node3 -->
<g id="edge3" class="edge">
<title>Node6&#45;&gt;Node3</title>
<path fill="none" stroke="#404040" d="M219.5312,-314.4017C225.2581,-278.9486 231.9395,-242.1928 239.5,-208 239.9757,-205.8485 240.4699,-203.6779 240.9801,-201.4935"/>
<polygon fill="none" stroke="#404040" points="241.01,-201.3705 238.5426,-194.5947 243.8483,-189.711 246.3156,-196.4869 241.01,-201.3705"/>
<text text-anchor="middle" x="276" y="-249.5" font-family="Helvetica,sans-Serif" font-size="10.00" fill="#000000"> &#45;m_uiManager</text>
</g>
<!-- Node7&#45;&gt;Node6 -->
<g id="edge4" class="edge">
<title>Node7&#45;&gt;Node6</title>
<path fill="none" stroke="#191970" d="M195.5,-786.245C195.5,-757.3395 195.5,-718.9378 195.5,-679.5896"/>
<polygon fill="none" stroke="#191970" points="192.0001,-786.4489 195.5,-796.4489 199.0001,-786.449 192.0001,-786.4489"/>
</g>
<!-- Node8 -->
<g id="node6" class="node">
<title>Node8</title>
<g id="a_node6"><a xlink:href="classPoint.html" target="_top" xlink:title="{Point\n|+ x\l+ y\l+ z\l+ height\l|+ operator==()\l+ operator!=()\l}">
<polygon fill="none" stroke="#000000" points="303,-446.5 303,-547.5 396,-547.5 396,-446.5 303,-446.5"/>
<text text-anchor="middle" x="349.5" y="-535.5" font-family="Helvetica,sans-Serif" font-size="10.00" fill="#000000">Point</text>
<polyline fill="none" stroke="#000000" points="303,-528.5 396,-528.5 "/>
<text text-anchor="start" x="311" y="-516.5" font-family="Helvetica,sans-Serif" font-size="10.00" fill="#000000">+ x</text>
<text text-anchor="start" x="311" y="-505.5" font-family="Helvetica,sans-Serif" font-size="10.00" fill="#000000">+ y</text>
<text text-anchor="start" x="311" y="-494.5" font-family="Helvetica,sans-Serif" font-size="10.00" fill="#000000">+ z</text>
<text text-anchor="start" x="311" y="-483.5" font-family="Helvetica,sans-Serif" font-size="10.00" fill="#000000">+ height</text>
<polyline fill="none" stroke="#000000" points="303,-476.5 396,-476.5 "/>
<text text-anchor="start" x="311" y="-464.5" font-family="Helvetica,sans-Serif" font-size="10.00" fill="#000000">+ operator==()</text>
<text text-anchor="start" x="311" y="-453.5" font-family="Helvetica,sans-Serif" font-size="10.00" fill="#000000">+ operator!=()</text>
</a>
</g>
</g>
<!-- Node8&#45;&gt;Node3 -->
<g id="edge6" class="edge">
<title>Node8&#45;&gt;Node3</title>
<path fill="none" stroke="#404040" d="M346.2889,-446.294C341.8517,-388.1227 332.0686,-290.176 312.5,-208 311.9576,-205.7225 311.3857,-203.4269 310.7879,-201.1192"/>
<polygon fill="none" stroke="#404040" points="310.7771,-201.0797 305.331,-196.3532 307.5993,-189.5081 313.0454,-194.2346 310.7771,-201.0797"/>
<text text-anchor="middle" x="387" y="-255" font-family="Helvetica,sans-Serif" font-size="10.00" fill="#000000"> &#45;m_pinchCenterCoords</text>
<text text-anchor="middle" x="387" y="-244" font-family="Helvetica,sans-Serif" font-size="10.00" fill="#000000">&#45;m_clickDownCoords</text>
</g>
<!-- Node9 -->
<g id="node7" class="node">
<title>Node9</title>
<g id="a_node7"><a xlink:href="classUIElement.html" target="_top" xlink:title="Base class for UI Elements Provides functions and variables for derived user interface elements...">
<polygon fill="none" stroke="#000000" points="540,-331 540,-663 695,-663 695,-331 540,-331"/>
<text text-anchor="middle" x="617.5" y="-651" font-family="Helvetica,sans-Serif" font-size="10.00" fill="#000000">UIElement</text>
<polyline fill="none" stroke="#000000" points="540,-644 695,-644 "/>
<text text-anchor="start" x="548" y="-632" font-family="Helvetica,sans-Serif" font-size="10.00" fill="#000000"># m_texture</text>
<text text-anchor="start" x="548" y="-621" font-family="Helvetica,sans-Serif" font-size="10.00" fill="#000000"># m_uiElementRect</text>
<text text-anchor="start" x="548" y="-610" font-family="Helvetica,sans-Serif" font-size="10.00" fill="#000000"># m_uiElementClipRect</text>
<text text-anchor="start" x="548" y="-599" font-family="Helvetica,sans-Serif" font-size="10.00" fill="#000000"># m_uiTextureRect</text>
<text text-anchor="start" x="548" y="-588" font-family="Helvetica,sans-Serif" font-size="10.00" fill="#000000">&#45; m_renderer</text>
<text text-anchor="start" x="548" y="-577" font-family="Helvetica,sans-Serif" font-size="10.00" fill="#000000">&#45; m_window</text>
<text text-anchor="start" x="548" y="-566" font-family="Helvetica,sans-Serif" font-size="10.00" fill="#000000">&#45; m_buttonState</text>
<text text-anchor="start" x="548" y="-555" font-family="Helvetica,sans-Serif" font-size="10.00" fill="#000000">&#45; m_visible</text>
<text text-anchor="start" x="548" y="-544" font-family="Helvetica,sans-Serif" font-size="10.00" fill="#000000">&#45; m_directTexture</text>
<polyline fill="none" stroke="#000000" points="540,-537 695,-537 "/>
<text text-anchor="start" x="548" y="-525" font-family="Helvetica,sans-Serif" font-size="10.00" fill="#000000">+ UIElement()</text>
<text text-anchor="start" x="548" y="-514" font-family="Helvetica,sans-Serif" font-size="10.00" fill="#000000">+ UIElement()</text>
<text text-anchor="start" x="548" y="-503" font-family="Helvetica,sans-Serif" font-size="10.00" fill="#000000">+ ~UIElement()</text>
<text text-anchor="start" x="548" y="-492" font-family="Helvetica,sans-Serif" font-size="10.00" fill="#000000">+ registerCallbackFunction()</text>
<text text-anchor="start" x="548" y="-481" font-family="Helvetica,sans-Serif" font-size="10.00" fill="#000000">+ registerCallbackFunction()</text>
<text text-anchor="start" x="548" y="-470" font-family="Helvetica,sans-Serif" font-size="10.00" fill="#000000">+ registerCallbackFunction()</text>
<text text-anchor="start" x="548" y="-459" font-family="Helvetica,sans-Serif" font-size="10.00" fill="#000000">+ onMouseButtonUp()</text>
<text text-anchor="start" x="548" y="-448" font-family="Helvetica,sans-Serif" font-size="10.00" fill="#000000">+ onMouseButtonDown()</text>
<text text-anchor="start" x="548" y="-437" font-family="Helvetica,sans-Serif" font-size="10.00" fill="#000000">+ onMouseEnter()</text>
<text text-anchor="start" x="548" y="-426" font-family="Helvetica,sans-Serif" font-size="10.00" fill="#000000">+ onMouseLeave()</text>
<text text-anchor="start" x="548" y="-415" font-family="Helvetica,sans-Serif" font-size="10.00" fill="#000000">and 24 more...</text>
<text text-anchor="start" x="548" y="-404" font-family="Helvetica,sans-Serif" font-size="10.00" fill="#000000"># renderTexture()</text>
<text text-anchor="start" x="548" y="-393" font-family="Helvetica,sans-Serif" font-size="10.00" fill="#000000"># drawSolidRect()</text>
<text text-anchor="start" x="548" y="-382" font-family="Helvetica,sans-Serif" font-size="10.00" fill="#000000"># drawLine()</text>
<text text-anchor="start" x="548" y="-371" font-family="Helvetica,sans-Serif" font-size="10.00" fill="#000000"># drawTextFrame()</text>
<text text-anchor="start" x="548" y="-360" font-family="Helvetica,sans-Serif" font-size="10.00" fill="#000000"># drawButtonFrame()</text>
<text text-anchor="start" x="548" y="-349" font-family="Helvetica,sans-Serif" font-size="10.00" fill="#000000"># drawFrame()</text>
<text text-anchor="start" x="548" y="-338" font-family="Helvetica,sans-Serif" font-size="10.00" fill="#000000"># changeTexture()</text>
</a>
</g>
</g>
<!-- Node9&#45;&gt;Node3 -->
<g id="edge7" class="edge">
<title>Node9&#45;&gt;Node3</title>
<path fill="none" stroke="#404040" d="M539.8974,-401.6513C516.4537,-369.5007 492.253,-332.4881 474.5,-296 456.6574,-259.3278 472.9746,-240.6222 448.5,-208 424.0192,-175.3696 387.1311,-149.6168 353.4396,-130.9892"/>
<polygon fill="none" stroke="#404040" points="353.2074,-130.8647 346.0292,-131.5532 342.6329,-125.192 349.811,-124.5035 353.2074,-130.8647"/>
<text text-anchor="middle" x="535.5" y="-249.5" font-family="Helvetica,sans-Serif" font-size="10.00" fill="#000000"> &#45;m_lastHoveredElement</text>
</g>
<!-- Node10 -->
<g id="node8" class="node">
<title>Node10</title>
<g id="a_node8"><a xlink:href="structUIElement_1_1ElementData.html" target="_top" xlink:title="{UIElement::ElementData\n|+ isToggleButton\l|}">
<polygon fill="none" stroke="#000000" points="615,-66.5 615,-123.5 752,-123.5 752,-66.5 615,-66.5"/>
<text text-anchor="middle" x="683.5" y="-111.5" font-family="Helvetica,sans-Serif" font-size="10.00" fill="#000000">UIElement::ElementData</text>
<polyline fill="none" stroke="#000000" points="615,-104.5 752,-104.5 "/>
<text text-anchor="start" x="623" y="-92.5" font-family="Helvetica,sans-Serif" font-size="10.00" fill="#000000">+ isToggleButton</text>
<polyline fill="none" stroke="#000000" points="615,-85.5 752,-85.5 "/>
<text text-anchor="middle" x="683.5" y="-73.5" font-family="Helvetica,sans-Serif" font-size="10.00" fill="#000000"> </text>
</a>
</g>
</g>
<!-- Node9&#45;&gt;Node10 -->
<g id="edge10" class="edge">
<title>Node9&#45;&gt;Node10</title>
<path fill="none" stroke="#404040" d="M599.7884,-330.9603C599.783,-290.1575 603.5329,-247.0049 614.5,-208 622.0581,-181.1194 637.9798,-154.3056 652.626,-133.5478"/>
<polygon fill="none" stroke="#404040" points="652.8265,-133.2725 653.1273,-126.0676 659.8936,-123.5742 659.5928,-130.779 652.8265,-133.2725"/>
<text text-anchor="middle" x="636" y="-249.5" font-family="Helvetica,sans-Serif" font-size="10.00" fill="#000000"> +parent</text>
</g>
<!-- Node10&#45;&gt;Node9 -->
<g id="edge8" class="edge">
<title>Node10&#45;&gt;Node9</title>
<path fill="none" stroke="#404040" d="M681.3216,-123.7558C678.1367,-162.8887 671.4812,-235.0281 661.5,-296 660.2641,-303.5498 658.927,-311.243 657.5144,-319.003"/>
<polygon fill="none" stroke="#404040" points="657.5107,-319.0234 660.3458,-325.6539 655.3158,-330.821 652.4807,-324.1906 657.5107,-319.0234"/>
<text text-anchor="middle" x="710.5" y="-249.5" font-family="Helvetica,sans-Serif" font-size="10.00" fill="#000000"> #elementData</text>
</g>
<!-- Node11 -->
<g id="node9" class="node">
<title>Node11</title>
<polygon fill="none" stroke="#bfbfbf" points="760.5,-468.5 760.5,-525.5 804.5,-525.5 804.5,-468.5 760.5,-468.5"/>
<text text-anchor="middle" x="782.5" y="-513.5" font-family="Helvetica,sans-Serif" font-size="10.00" fill="#000000">string</text>
<polyline fill="none" stroke="#bfbfbf" points="760.5,-506.5 804.5,-506.5 "/>
<text text-anchor="middle" x="782.5" y="-494.5" font-family="Helvetica,sans-Serif" font-size="10.00" fill="#000000"> </text>
<polyline fill="none" stroke="#bfbfbf" points="760.5,-487.5 804.5,-487.5 "/>
<text text-anchor="middle" x="782.5" y="-475.5" font-family="Helvetica,sans-Serif" font-size="10.00" fill="#000000"> </text>
</g>
<!-- Node11&#45;&gt;Node10 -->
<g id="edge9" class="edge">
<title>Node11&#45;&gt;Node10</title>
<path fill="none" stroke="#404040" d="M783.6443,-468.2207C784.8599,-415.2256 783.3386,-299.2778 752.5,-208 743.5624,-181.5461 727.5704,-154.754 713.2313,-133.9012"/>
<polygon fill="none" stroke="#404040" points="713.0699,-133.6727 706.3412,-131.0794 706.1471,-123.8709 712.8757,-126.4641 713.0699,-133.6727"/>
<text text-anchor="middle" x="821.5" y="-288" font-family="Helvetica,sans-Serif" font-size="10.00" fill="#000000"> +actionParameter</text>
<text text-anchor="middle" x="821.5" y="-277" font-family="Helvetica,sans-Serif" font-size="10.00" fill="#000000">+buildMenuID</text>
<text text-anchor="middle" x="821.5" y="-266" font-family="Helvetica,sans-Serif" font-size="10.00" fill="#000000">+actionID</text>
<text text-anchor="middle" x="821.5" y="-255" font-family="Helvetica,sans-Serif" font-size="10.00" fill="#000000">+text</text>
<text text-anchor="middle" x="821.5" y="-244" font-family="Helvetica,sans-Serif" font-size="10.00" fill="#000000">+elementID</text>
<text text-anchor="middle" x="821.5" y="-233" font-family="Helvetica,sans-Serif" font-size="10.00" fill="#000000">+layoutGroupName</text>
<text text-anchor="middle" x="821.5" y="-222" font-family="Helvetica,sans-Serif" font-size="10.00" fill="#000000">+tooltipText</text>
<text text-anchor="middle" x="821.5" y="-211" font-family="Helvetica,sans-Serif" font-size="10.00" fill="#000000">+textureID</text>
</g>
</g>
</svg>
        <g id="navigator" transform="translate(0 0)" fill="#404254">
                <rect fill="#f2f5e9" fill-opacity="0.5" stroke="#606060" stroke-width=".5" x="0" y="0" width="60" height="60"/>
                <use id="zoomplus" xlink:href="#zoomPlus" x="17" y="9" onmousedown="handleZoom(evt,'in')"/>
                <use id="zoomminus" xlink:href="#zoomMin" x="42" y="9" onmousedown="handleZoom(evt,'out')"/>
                <use id="reset" xlink:href="#resetDef" x="30" y="36" onmousedown="handleReset()"/>
                <g id="arrowUp" xlink:href="#dirArrow" transform="translate(30 24)" onmousedown="handlePan(0,-1)">
                  <use xlink:href="#rim" fill="#404040">
                        <set attributeName="fill" to="#808080" begin="arrowUp.mouseover" end="arrowUp.mouseout"/>
                  </use>
                  <path fill="none" stroke="white" stroke-width="1.5" d="M0,-3.0v7 M-2.5,-0.5L0,-3.0L2.5,-0.5"/>
                </g>
                <g id="arrowRight" xlink:href="#dirArrow" transform="rotate(90) translate(36 -43)" onmousedown="handlePan(1,0)">
                  <use xlink:href="#rim" fill="#404040">
                        <set attributeName="fill" to="#808080" begin="arrowRight.mouseover" end="arrowRight.mouseout"/>
                  </use>
                  <path fill="none" stroke="white" stroke-width="1.5" d="M0,-3.0v7 M-2.5,-0.5L0,-3.0L2.5,-0.5"/>
                </g>
                <g id="arrowDown" xlink:href="#dirArrow" transform="rotate(180) translate(-30 -48)" onmousedown="handlePan(0,1)">
                  <use xlink:href="#rim" fill="#404040">
                        <set attributeName="fill" to="#808080" begin="arrowDown.mouseover" end="arrowDown.mouseout"/>
                  </use>
                  <path fill="none" stroke="white" stroke-width="1.5" d="M0,-3.0v7 M-2.5,-0.5L0,-3.0L2.5,-0.5"/>
                </g>
                <g id="arrowLeft" xlink:href="#dirArrow" transform="rotate(270) translate(-36 17)" onmousedown="handlePan(-1,0)">
                  <use xlink:href="#rim" fill="#404040">
                        <set attributeName="fill" to="#808080" begin="arrowLeft.mouseover" end="arrowLeft.mouseout"/>
                  </use>
                  <path fill="none" stroke="white" stroke-width="1.5" d="M0,-3.0v7 M-2.5,-0.5L0,-3.0L2.5,-0.5"/>
                </g>
        </g>
        <svg viewBox="0 0 15 15" width="100%" height="30px" preserveAspectRatio="xMaxYMin meet">
         <g id="arrow_out" transform="scale(0.3 0.3)">
          <a xlink:href="classEventManager__coll__graph_org.svg" target="_base">
           <rect id="button" ry="5" rx="5" y="6" x="6" height="38" width="38"
                fill="#f2f5e9" fill-opacity="0.5" stroke="#606060" stroke-width="1.0"/>
           <path id="arrow"
             d="M 11.500037,31.436501 C 11.940474,20.09759 22.043105,11.32322 32.158766,21.979434 L 37.068811,17.246167 C 37.068811,17.246167 37.088388,32 37.088388,32 L 22.160133,31.978069 C 22.160133,31.978069 26.997745,27.140456 26.997745,27.140456 C 18.528582,18.264221 13.291696,25.230495 11.500037,31.436501 z"
             style="fill:#404040;"/>
          </a>
         </g>
        </svg>
</svg>
