<?xml version="1.0" encoding="UTF-8" standalone="no"?>
<!DOCTYPE svg PUBLIC "-//W3C//DTD SVG 1.1//EN"
 "http://www.w3.org/Graphics/SVG/1.1/DTD/svg11.dtd">
<!-- Generated by graphviz version 2.40.1 (20161225.0304)
 -->
<!-- Title: UIManager::initializeDollarVariables Pages: 1 -->
<!--zoomable 679 -->
<svg id="main" version="1.1" xmlns="http://www.w3.org/2000/svg" xmlns:xlink="http://www.w3.org/1999/xlink" xml:space="preserve" onload="init(evt)">
<style type="text/css"><![CDATA[
.edge:hover path { stroke: red; }
.edge:hover polygon { stroke: red; fill: red; }
]]></style>
<script type="text/javascript"><![CDATA[
var edges = document.getElementsByTagName('g');
if (edges && edges.length) {
  for (var i=0;i<edges.length;i++) {
    if (edges[i].id.substr(0,4)=='edge') {
      edges[i].setAttribute('class','edge');
    }
  }
}
]]></script>
        <defs>
                <circle id="rim" cx="0" cy="0" r="7"/>
                <circle id="rim2" cx="0" cy="0" r="3.5"/>
                <g id="zoomPlus">
                        <use xlink:href="#rim" fill="#404040">
                                <set attributeName="fill" to="#808080" begin="zoomplus.mouseover" end="zoomplus.mouseout"/>
                        </use>
                        <path d="M-4,0h8M0,-4v8" fill="none" stroke="white" stroke-width="1.5" pointer-events="none"/>
                </g>
                <g id="zoomMin">
                        <use xlink:href="#rim" fill="#404040">
                                <set attributeName="fill" to="#808080" begin="zoomminus.mouseover" end="zoomminus.mouseout"/>
                        </use>
                        <path d="M-4,0h8" fill="none" stroke="white" stroke-width="1.5" pointer-events="none"/>
                </g>
                <g id="dirArrow">
                        <path fill="none" stroke="white" stroke-width="1.5" d="M0,-3.0v7 M-2.5,-0.5L0,-3.0L2.5,-0.5"/>
                </g>
               <g id="resetDef">
                       <use xlink:href="#rim2" fill="#404040">
                               <set attributeName="fill" to="#808080" begin="reset.mouseover" end="reset.mouseout"/>
                       </use>
               </g>
        </defs>

<script type="text/javascript">
var viewWidth = 1268;
var viewHeight = 679;
var sectionId = 'dynsection-17';
</script>
<script xlink:href="svgpan.js"/>
<svg id="graph" class="graph">
<g id="viewport">
<title>UIManager::initializeDollarVariables</title>
<!-- Node128 -->
<g id="node1" class="node">
<title>Node128</title>
<polygon fill="#bfbfbf" stroke="#000000" points="0,-232.5 0,-262.5 146,-262.5 146,-232.5 0,-232.5"/>
<text text-anchor="start" x="8" y="-250.5" font-family="Helvetica,sans-Serif" font-size="10.00" fill="#000000">UIManager::initializeDollar</text>
<text text-anchor="middle" x="73" y="-239.5" font-family="Helvetica,sans-Serif" font-size="10.00" fill="#000000">Variables</text>
</g>
<!-- Node129 -->
<g id="node2" class="node">
<title>Node129</title>
<g id="a_node2"><a xlink:href="classUIManager.html#a1f663947ee80bfcb9567f82aa5d05607" target="_top" xlink:title="Get all Ui Element objects Returns a container that holds ALL UiElements, even those in buttongroups...">
<polygon fill="none" stroke="#000000" points="195,-466 195,-485 355,-485 355,-466 195,-466"/>
<text text-anchor="middle" x="275" y="-473" font-family="Helvetica,sans-Serif" font-size="10.00" fill="#000000">UIManager::getAllUiElements</text>
</a>
</g>
</g>
<!-- Node128&#45;&gt;Node129 -->
<g id="edge1" class="edge">
<title>Node128&#45;&gt;Node129</title>
<path fill="none" stroke="#191970" d="M76.2109,-262.7816C85.2652,-301.8559 114.8389,-405.8875 182,-456.5 184.3443,-458.2666 186.8125,-459.8794 189.3762,-461.3512"/>
<polygon fill="#191970" stroke="#191970" points="187.9043,-464.5279 198.4188,-465.8306 191.0116,-458.2553 187.9043,-464.5279"/>
</g>
<!-- Node130 -->
<g id="node3" class="node">
<title>Node130</title>
<g id="a_node3"><a xlink:href="namespaceutils_1_1strings.html#afa781708d9b82cab99d894cf7728ddf1" target="_top" xlink:title="checks if a string starts with a certain substring ">
<polygon fill="none" stroke="#000000" points="208.5,-428 208.5,-447 341.5,-447 341.5,-428 208.5,-428"/>
<text text-anchor="middle" x="275" y="-435" font-family="Helvetica,sans-Serif" font-size="10.00" fill="#000000">utils::strings::startsWith</text>
</a>
</g>
</g>
<!-- Node128&#45;&gt;Node130 -->
<g id="edge2" class="edge">
<title>Node128&#45;&gt;Node130</title>
<path fill="none" stroke="#191970" d="M78.0369,-262.7404C90.0893,-296.6746 123.9831,-378.6021 182,-418.5 187.1683,-422.0542 192.8556,-424.9715 198.7933,-427.3628"/>
<polygon fill="#191970" stroke="#191970" points="197.6968,-430.6873 208.2916,-430.7034 200.0193,-424.0838 197.6968,-430.6873"/>
</g>
<!-- Node131 -->
<g id="node4" class="node">
<title>Node131</title>
<g id="a_node4"><a xlink:href="classComboBox.html#a5cf164ba9b28158f7d3f326200b22b9b" target="_top" xlink:title="Clears the element&#39;s text field clears the text field of the comboBox. ">
<polygon fill="none" stroke="#000000" points="225,-390 225,-409 325,-409 325,-390 225,-390"/>
<text text-anchor="middle" x="275" y="-397" font-family="Helvetica,sans-Serif" font-size="10.00" fill="#000000">ComboBox::clear</text>
</a>
</g>
</g>
<!-- Node128&#45;&gt;Node131 -->
<g id="edge3" class="edge">
<title>Node128&#45;&gt;Node131</title>
<path fill="none" stroke="#191970" d="M80.8291,-262.729C96.1483,-290.8815 132.9217,-350.888 182,-380.5 191.931,-386.492 203.4309,-390.6253 214.8865,-393.4692"/>
<polygon fill="#191970" stroke="#191970" points="214.3857,-396.9421 224.9015,-395.6506 215.8755,-390.1025 214.3857,-396.9421"/>
</g>
<!-- Node132 -->
<g id="node5" class="node">
<title>Node132</title>
<g id="a_node5"><a xlink:href="classComboBox.html#a0c422945ffd5c8d65bc4d61bd092bece" target="_top" xlink:title="ComboBox::addElement">
<polygon fill="none" stroke="#000000" points="208,-352 208,-371 342,-371 342,-352 208,-352"/>
<text text-anchor="middle" x="275" y="-359" font-family="Helvetica,sans-Serif" font-size="10.00" fill="#000000">ComboBox::addElement</text>
</a>
</g>
</g>
<!-- Node128&#45;&gt;Node132 -->
<g id="edge4" class="edge">
<title>Node128&#45;&gt;Node132</title>
<path fill="none" stroke="#191970" d="M85.7195,-262.7083C104.4793,-284.0732 141.7217,-322.5841 182,-342.5 186.9856,-344.9652 192.2731,-347.1106 197.6961,-348.9777"/>
<polygon fill="#191970" stroke="#191970" points="196.9799,-352.4202 207.5682,-352.0469 199.0581,-345.7358 196.9799,-352.4202"/>
</g>
<!-- Node134 -->
<g id="node7" class="node">
<title>Node134</title>
<g id="a_node7"><a xlink:href="classSingleton.html#af5cb1e5749949e2b68416cfb8d378044" target="_top" xlink:title="Get an instance of the singleton. ">
<polygon fill="none" stroke="#000000" points="873,-329.5 873,-359.5 986,-359.5 986,-329.5 873,-329.5"/>
<text text-anchor="start" x="881" y="-347.5" font-family="Helvetica,sans-Serif" font-size="10.00" fill="#000000">Singleton&lt; Settings</text>
<text text-anchor="middle" x="929.5" y="-336.5" font-family="Helvetica,sans-Serif" font-size="10.00" fill="#000000"> &gt;::instance</text>
</a>
</g>
</g>
<!-- Node128&#45;&gt;Node134 -->
<g id="edge6" class="edge">
<title>Node128&#45;&gt;Node134</title>
<path fill="none" stroke="#191970" d="M110.7646,-232.4447C222.3913,-196.819 558.5831,-119.555 808,-219.5 857.3118,-239.2599 897.9637,-289.6304 917.3129,-320.2876"/>
<polygon fill="#191970" stroke="#191970" points="914.4672,-322.347 922.62,-329.1133 920.4662,-318.7397 914.4672,-322.347"/>
</g>
<!-- Node128&#45;&gt;Node134 -->
<g id="edge34" class="edge">
<title>Node128&#45;&gt;Node134</title>
<path fill="none" stroke="#191970" d="M145.9847,-232.4654C281.9845,-202.3877 580.9476,-146.5168 808,-237.5 850.9923,-254.7277 887.4022,-295.223 908.851,-321.3385"/>
<polygon fill="#191970" stroke="#191970" points="906.2615,-323.702 915.2786,-329.2645 911.6984,-319.2929 906.2615,-323.702"/>
</g>
<!-- Node135 -->
<g id="node8" class="node">
<title>Node135</title>
<g id="a_node8"><a xlink:href="classComboBox.html#ad0dba514b01ed2bb3c41c738c80a7d6a" target="_top" xlink:title="Set ID of selected element sets the ID of the selected element in the comboBox. ">
<polygon fill="none" stroke="#000000" points="645,-238 645,-257 777,-257 777,-238 645,-238"/>
<text text-anchor="middle" x="711" y="-245" font-family="Helvetica,sans-Serif" font-size="10.00" fill="#000000">ComboBox::setActiveID</text>
</a>
</g>
</g>
<!-- Node128&#45;&gt;Node135 -->
<g id="edge7" class="edge">
<title>Node128&#45;&gt;Node135</title>
<path fill="none" stroke="#191970" d="M146.1867,-247.5C267.9589,-247.5 510.9881,-247.5 634.7565,-247.5"/>
<polygon fill="#191970" stroke="#191970" points="634.9067,-251.0001 644.9067,-247.5 634.9066,-244.0001 634.9067,-251.0001"/>
</g>
<!-- Node136 -->
<g id="node9" class="node">
<title>Node136</title>
<g id="a_node9"><a xlink:href="classComboBox.html#a6c15ed04bb4eee2130939e9e2045a5eb" target="_top" xlink:title="ComboBox::count">
<polygon fill="none" stroke="#000000" points="223.5,-68 223.5,-87 326.5,-87 326.5,-68 223.5,-68"/>
<text text-anchor="middle" x="275" y="-75" font-family="Helvetica,sans-Serif" font-size="10.00" fill="#000000">ComboBox::count</text>
</a>
</g>
</g>
<!-- Node128&#45;&gt;Node136 -->
<g id="edge8" class="edge">
<title>Node128&#45;&gt;Node136</title>
<path fill="none" stroke="#191970" d="M79.8927,-232.4362C94.3473,-202.591 130.7807,-135.8701 182,-101.5 191.4241,-95.1761 202.4109,-90.5183 213.4633,-87.0878"/>
<polygon fill="#191970" stroke="#191970" points="214.467,-90.4415 223.1552,-84.378 212.5821,-83.7 214.467,-90.4415"/>
</g>
<!-- Node137 -->
<g id="node10" class="node">
<title>Node137</title>
<g id="a_node10"><a xlink:href="classComboBox.html#abcaec38988ca3a571907d33ddb84c5a6" target="_top" xlink:title="ComboBox::registerCallback\lFunction">
<polygon fill="none" stroke="#000000" points="413.5,-.5 413.5,-30.5 568.5,-30.5 568.5,-.5 413.5,-.5"/>
<text text-anchor="start" x="421.5" y="-18.5" font-family="Helvetica,sans-Serif" font-size="10.00" fill="#000000">ComboBox::registerCallback</text>
<text text-anchor="middle" x="491" y="-7.5" font-family="Helvetica,sans-Serif" font-size="10.00" fill="#000000">Function</text>
</a>
</g>
</g>
<!-- Node128&#45;&gt;Node137 -->
<g id="edge10" class="edge">
<title>Node128&#45;&gt;Node137</title>
<path fill="none" stroke="#191970" d="M83.0259,-232.2507C100.1607,-207.5045 137.5677,-158.9162 182,-134.5 255.9452,-93.866 297.3701,-142.6565 368,-96.5 391.2253,-81.3223 381.814,-62.1601 404,-45.5 409.4078,-41.4391 415.4057,-37.901 421.6509,-34.8237"/>
<polygon fill="#191970" stroke="#191970" points="423.2592,-37.938 430.9376,-30.6377 420.3826,-31.5563 423.2592,-37.938"/>
</g>
<!-- Node138 -->
<g id="node11" class="node">
<title>Node138</title>
<g id="a_node11"><a xlink:href="namespaceSignal.html#a6e0df6c5db8c544e147a57b4d89171ca" target="_top" xlink:title="This function creates a std::function by binding object to the member function pointer method...">
<polygon fill="none" stroke="#000000" points="239.5,-30 239.5,-49 310.5,-49 310.5,-30 239.5,-30"/>
<text text-anchor="middle" x="275" y="-37" font-family="Helvetica,sans-Serif" font-size="10.00" fill="#000000">Signal::slot</text>
</a>
</g>
</g>
<!-- Node128&#45;&gt;Node138 -->
<g id="edge11" class="edge">
<title>Node128&#45;&gt;Node138</title>
<path fill="none" stroke="#191970" d="M77.0608,-232.3334C87.6336,-195.9613 119.6247,-103.4648 182,-58.5 195.4881,-48.7768 212.7908,-43.7665 228.8058,-41.2647"/>
<polygon fill="#191970" stroke="#191970" points="229.6117,-44.6905 239.091,-39.9585 228.7297,-37.7463 229.6117,-44.6905"/>
</g>
<!-- Node139 -->
<g id="node12" class="node">
<title>Node139</title>
<g id="a_node12"><a xlink:href="classUIManager.html#a3ccb2fc669262f18ebdcdf3d5c43a3e8" target="_top" xlink:title="CallbackFunction that sets the Build Menu Position Used as callback function for the ComboBox that ho...">
<polygon fill="none" stroke="#000000" points="185,-314 185,-333 365,-333 365,-314 185,-314"/>
<text text-anchor="middle" x="275" y="-321" font-family="Helvetica,sans-Serif" font-size="10.00" fill="#000000">UIManager::setBuildMenuPosition</text>
</a>
</g>
</g>
<!-- Node128&#45;&gt;Node139 -->
<g id="edge12" class="edge">
<title>Node128&#45;&gt;Node139</title>
<path fill="none" stroke="#191970" d="M97.2093,-262.6934C118.7245,-275.5684 151.4169,-293.6239 182,-304.5 189.6166,-307.2087 197.729,-309.5769 205.8675,-311.6357"/>
<polygon fill="#191970" stroke="#191970" points="205.2373,-315.0834 215.7761,-313.9957 206.8592,-308.2739 205.2373,-315.0834"/>
</g>
<!-- Node153 -->
<g id="node26" class="node">
<title>Node153</title>
<g id="a_node26"><a xlink:href="classUIManager.html#ac927e1cd3dea979202ea9dbf1195b583" target="_top" xlink:title="UIManager::changeResolution">
<polygon fill="none" stroke="#000000" points="194.5,-276 194.5,-295 355.5,-295 355.5,-276 194.5,-276"/>
<text text-anchor="middle" x="275" y="-283" font-family="Helvetica,sans-Serif" font-size="10.00" fill="#000000">UIManager::changeResolution</text>
</a>
</g>
</g>
<!-- Node128&#45;&gt;Node153 -->
<g id="edge35" class="edge">
<title>Node128&#45;&gt;Node153</title>
<path fill="none" stroke="#191970" d="M146.2122,-261.2726C168.6307,-265.4899 193.0297,-270.0798 214.5017,-274.1191"/>
<polygon fill="#191970" stroke="#191970" points="213.9889,-277.584 224.4636,-275.9931 215.2831,-270.7046 213.9889,-277.584"/>
</g>
<!-- Node156 -->
<g id="node29" class="node">
<title>Node156</title>
<g id="a_node29"><a xlink:href="classUIManager.html#af2ffb4ee45e57152164643ef6cddda37" target="_top" xlink:title="UIManager::changeFullScreenMode">
<polygon fill="none" stroke="#000000" points="182,-144 182,-163 368,-163 368,-144 182,-144"/>
<text text-anchor="middle" x="275" y="-151" font-family="Helvetica,sans-Serif" font-size="10.00" fill="#000000">UIManager::changeFullScreenMode</text>
</a>
</g>
</g>
<!-- Node128&#45;&gt;Node156 -->
<g id="edge43" class="edge">
<title>Node128&#45;&gt;Node156</title>
<path fill="none" stroke="#191970" d="M92.4026,-232.3058C113.4013,-216.5374 148.4049,-192.17 182,-177.5 192.6373,-172.855 204.3658,-168.9616 215.8056,-165.7545"/>
<polygon fill="#191970" stroke="#191970" points="216.9846,-169.0627 225.7498,-163.1112 215.1863,-162.2977 216.9846,-169.0627"/>
</g>
<!-- Node133 -->
<g id="node6" class="node">
<title>Node133</title>
<g id="a_node6"><a xlink:href="classComboBox.html#aa344838cace46be94ba0cad37700b9ec" target="_top" xlink:title="ComboBox::centerTextLabel">
<polygon fill="none" stroke="#000000" points="414.5,-621 414.5,-640 567.5,-640 567.5,-621 414.5,-621"/>
<text text-anchor="middle" x="491" y="-628" font-family="Helvetica,sans-Serif" font-size="10.00" fill="#000000">ComboBox::centerTextLabel</text>
</a>
</g>
</g>
<!-- Node132&#45;&gt;Node133 -->
<g id="edge5" class="edge">
<title>Node132&#45;&gt;Node133</title>
<path fill="none" stroke="#191970" d="M342.1261,-364.961C351.8552,-368.1818 360.9468,-373.1078 368,-380.5 439.7286,-455.6761 332.78,-535.8419 404,-611.5 405.0928,-612.6609 406.2387,-613.7591 407.4317,-614.7978"/>
<polygon fill="#191970" stroke="#191970" points="405.7434,-617.8913 415.9248,-620.8223 409.7935,-612.1819 405.7434,-617.8913"/>
</g>
<!-- Node136&#45;&gt;Node137 -->
<g id="edge9" class="edge">
<title>Node136&#45;&gt;Node137</title>
<path fill="none" stroke="#191970" d="M326.9712,-68.2678C340.4273,-65.5 354.8325,-62.2015 368,-58.5 384.3765,-53.8965 387.9586,-51.1618 404,-45.5 414.7204,-41.7162 426.2028,-37.7181 437.1953,-33.9172"/>
<polygon fill="#191970" stroke="#191970" points="438.3865,-37.2087 446.6977,-30.6381 436.103,-30.5916 438.3865,-37.2087"/>
</g>
<!-- Node139&#45;&gt;Node134 -->
<g id="edge13" class="edge">
<title>Node139&#45;&gt;Node134</title>
<path fill="none" stroke="#191970" d="M354.0895,-333.1601C359.114,-335.6891 363.8224,-338.7663 368,-342.5 406.6694,-377.0608 362.269,-422.7055 404,-453.5 548.4813,-560.1168 640.745,-521.828 808,-456.5 853.3322,-438.7937 891.9375,-395.3728 912.8251,-368.0925"/>
<polygon fill="#191970" stroke="#191970" points="915.7959,-369.9635 918.9702,-359.8554 910.1852,-365.7777 915.7959,-369.9635"/>
</g>
<!-- Node140 -->
<g id="node13" class="node">
<title>Node140</title>
<g id="a_node13"><a xlink:href="classComboBox.html#afddbdfd25efa15206eb724b641665cfc" target="_top" xlink:title="Get ID of selected element returns the ID of the selected element in the comboBox. ">
<polygon fill="none" stroke="#000000" points="424.5,-276 424.5,-295 557.5,-295 557.5,-276 424.5,-276"/>
<text text-anchor="middle" x="491" y="-283" font-family="Helvetica,sans-Serif" font-size="10.00" fill="#000000">ComboBox::getActiveID</text>
</a>
</g>
</g>
<!-- Node139&#45;&gt;Node140 -->
<g id="edge14" class="edge">
<title>Node139&#45;&gt;Node140</title>
<path fill="none" stroke="#191970" d="M329.2271,-313.96C358.884,-308.7426 395.8037,-302.2475 426.8821,-296.78"/>
<polygon fill="#191970" stroke="#191970" points="427.5083,-300.2237 436.7506,-295.0439 426.2954,-293.3295 427.5083,-300.2237"/>
</g>
<!-- Node141 -->
<g id="node14" class="node">
<title>Node141</title>
<g id="a_node14"><a xlink:href="classUIManager.html#af885d42286536573cd418ed008abfc07" target="_top" xlink:title="UIManager::setBuildMenuLayout">
<polygon fill="none" stroke="#000000" points="404,-583 404,-602 578,-602 578,-583 404,-583"/>
<text text-anchor="middle" x="491" y="-590" font-family="Helvetica,sans-Serif" font-size="10.00" fill="#000000">UIManager::setBuildMenuLayout</text>
</a>
</g>
</g>
<!-- Node139&#45;&gt;Node141 -->
<g id="edge16" class="edge">
<title>Node139&#45;&gt;Node141</title>
<path fill="none" stroke="#191970" d="M355.9915,-333.2385C360.3803,-335.7791 364.4411,-338.8351 368,-342.5 433.0547,-409.4917 348.0856,-474.7098 404,-549.5 414.1089,-563.0215 429.6333,-572.5458 444.785,-579.1305"/>
<polygon fill="#191970" stroke="#191970" points="443.5343,-582.3998 454.1192,-582.86 446.1316,-575.8994 443.5343,-582.3998"/>
</g>
<!-- Node144 -->
<g id="node17" class="node">
<title>Node144</title>
<g id="a_node17"><a xlink:href="classLayout.html#afa734c5af10f59f3dadb066054fe81ab" target="_top" xlink:title="Arrange the layout elements. ">
<polygon fill="none" stroke="#000000" points="421.5,-425 421.5,-444 560.5,-444 560.5,-425 421.5,-425"/>
<text text-anchor="middle" x="491" y="-432" font-family="Helvetica,sans-Serif" font-size="10.00" fill="#000000">Layout::arrangeElements</text>
</a>
</g>
</g>
<!-- Node139&#45;&gt;Node144 -->
<g id="edge19" class="edge">
<title>Node139&#45;&gt;Node144</title>
<path fill="none" stroke="#191970" d="M348.6905,-333.0212C355.5052,-335.5133 362.0682,-338.6236 368,-342.5 391.2253,-357.6777 382.7486,-375.6631 404,-393.5 417.9805,-405.2342 435.8844,-414.4229 451.812,-421.1005"/>
<polygon fill="#191970" stroke="#191970" points="450.8359,-424.4793 461.421,-424.934 453.4298,-417.9776 450.8359,-424.4793"/>
</g>
<!-- Node140&#45;&gt;Node135 -->
<g id="edge15" class="edge">
<title>Node140&#45;&gt;Node135</title>
<path fill="none" stroke="#191970" d="M546.2313,-275.96C576.4374,-270.7426 614.0408,-264.2475 645.6947,-258.78"/>
<polygon fill="#191970" stroke="#191970" points="646.4876,-262.195 655.746,-257.0439 645.2961,-255.2971 646.4876,-262.195"/>
</g>
<!-- Node142 -->
<g id="node15" class="node">
<title>Node142</title>
<g id="a_node15"><a xlink:href="namespaceutils_1_1strings.html#a1460a4e19b93604e32bb76f8407c4221" target="_top" xlink:title="checks if a string ends with a certain substring ">
<polygon fill="none" stroke="#000000" points="647,-602 647,-621 775,-621 775,-602 647,-602"/>
<text text-anchor="middle" x="711" y="-609" font-family="Helvetica,sans-Serif" font-size="10.00" fill="#000000">utils::strings::endsWith</text>
</a>
</g>
</g>
<!-- Node141&#45;&gt;Node142 -->
<g id="edge17" class="edge">
<title>Node141&#45;&gt;Node142</title>
<path fill="none" stroke="#191970" d="M578.2658,-600.0366C597.6886,-601.714 618.1002,-603.4768 636.9331,-605.1033"/>
<polygon fill="#191970" stroke="#191970" points="636.6553,-608.5923 646.9194,-605.9658 637.2577,-601.6182 636.6553,-608.5923"/>
</g>
<!-- Node143 -->
<g id="node16" class="node">
<title>Node143</title>
<g id="a_node16"><a xlink:href="namespaceutils_1_1strings.html#ab8a6e07e519cb0ee76d762fe635901c1" target="_top" xlink:title="Erase First Occurrence of given substring from main string. ">
<polygon fill="none" stroke="#000000" points="642,-640.5 642,-670.5 780,-670.5 780,-640.5 642,-640.5"/>
<text text-anchor="start" x="650" y="-658.5" font-family="Helvetica,sans-Serif" font-size="10.00" fill="#000000">utils::strings::removeSub</text>
<text text-anchor="middle" x="711" y="-647.5" font-family="Helvetica,sans-Serif" font-size="10.00" fill="#000000">String</text>
</a>
</g>
</g>
<!-- Node141&#45;&gt;Node143 -->
<g id="edge18" class="edge">
<title>Node141&#45;&gt;Node143</title>
<path fill="none" stroke="#191970" d="M545.4833,-602.0242C556.4068,-604.5938 567.69,-607.7328 578,-611.5 594.9928,-617.709 597.1257,-623.9758 614,-630.5 620.4299,-632.986 627.1943,-635.3016 634.0354,-637.4398"/>
<polygon fill="#191970" stroke="#191970" points="633.4998,-640.9328 644.0834,-640.445 635.5056,-634.2263 633.4998,-640.9328"/>
</g>
<!-- Node144&#45;&gt;Node134 -->
<g id="edge20" class="edge">
<title>Node144&#45;&gt;Node134</title>
<path fill="none" stroke="#191970" d="M560.7787,-434.8692C626.2125,-437.3531 725.9861,-438.1329 808,-412.5 840.1264,-402.4591 872.1031,-381.6473 895.1825,-365.5029"/>
<polygon fill="#191970" stroke="#191970" points="897.4251,-368.204 903.5741,-359.5761 893.3868,-362.4863 897.4251,-368.204"/>
</g>
<!-- Node144&#45;&gt;Node134 -->
<g id="edge23" class="edge">
<title>Node144&#45;&gt;Node134</title>
<path fill="none" stroke="#191970" d="M524.3566,-444.0546C583.2059,-453.8413 708.637,-461.5553 808,-430.5 848.5118,-417.8383 888.7855,-388.0493 911.2807,-366.8222"/>
<polygon fill="#191970" stroke="#191970" points="913.8194,-369.234 918.4673,-359.7131 908.8966,-364.2575 913.8194,-369.234"/>
</g>
<!-- Node145 -->
<g id="node18" class="node">
<title>Node145</title>
<g id="a_node18"><a xlink:href="classLayout.html#a79480df6d9dd2d32b23468c05c6ac944" target="_top" xlink:title="Calculates height and width of layout groups. ">
<polygon fill="none" stroke="#000000" points="630,-382.5 630,-412.5 792,-412.5 792,-382.5 630,-382.5"/>
<text text-anchor="start" x="638" y="-400.5" font-family="Helvetica,sans-Serif" font-size="10.00" fill="#000000">Layout::calculateLayoutGroup</text>
<text text-anchor="middle" x="711" y="-389.5" font-family="Helvetica,sans-Serif" font-size="10.00" fill="#000000">Dimensions</text>
</a>
</g>
</g>
<!-- Node144&#45;&gt;Node145 -->
<g id="edge21" class="edge">
<title>Node144&#45;&gt;Node145</title>
<path fill="none" stroke="#191970" d="M547.6555,-424.9716C569.5872,-421.2831 595.2518,-416.9667 619.6548,-412.8626"/>
<polygon fill="#191970" stroke="#191970" points="620.3754,-416.2907 629.6564,-411.1805 619.2144,-409.3876 620.3754,-416.2907"/>
</g>
<!-- Node146 -->
<g id="node19" class="node">
<title>Node146</title>
<g id="a_node19"><a xlink:href="classUIManager.html#a0d32c5b63c4110ff8e43ab06c1c7d761" target="_top" xlink:title="Get the Layoutgroup container Returns the container, that holds LayoutGroups. ">
<polygon fill="none" stroke="#000000" points="844,-488 844,-507 1015,-507 1015,-488 844,-488"/>
<text text-anchor="middle" x="929.5" y="-495" font-family="Helvetica,sans-Serif" font-size="10.00" fill="#000000">UIManager::getAllLayoutGroups</text>
</a>
</g>
</g>
<!-- Node144&#45;&gt;Node146 -->
<g id="edge24" class="edge">
<title>Node144&#45;&gt;Node146</title>
<path fill="none" stroke="#191970" d="M515.534,-444.1348C540.0527,-453.3183 579.032,-466.7211 614,-473.5 686.7956,-487.6121 770.5418,-493.5148 833.4508,-495.9418"/>
<polygon fill="#191970" stroke="#191970" points="833.6378,-499.4507 843.7581,-496.3156 833.8915,-492.4553 833.6378,-499.4507"/>
</g>
<!-- Node147 -->
<g id="node20" class="node">
<title>Node147</title>
<g id="a_node20"><a xlink:href="classLayout.html#a99004e4afcea6a945e3890b19cce6236" target="_top" xlink:title="Arrange Elements that are aligned to a parent This is a seperate function, so it can recurse if a par...">
<polygon fill="none" stroke="#000000" points="629,-564 629,-583 793,-583 793,-564 629,-564"/>
<text text-anchor="middle" x="711" y="-571" font-family="Helvetica,sans-Serif" font-size="10.00" fill="#000000">Layout::arrangeChildElements</text>
</a>
</g>
</g>
<!-- Node144&#45;&gt;Node147 -->
<g id="edge25" class="edge">
<title>Node144&#45;&gt;Node147</title>
<path fill="none" stroke="#191970" d="M506.1215,-444.054C543.7216,-467.8105 641.6778,-529.701 687.1571,-558.4356"/>
<polygon fill="#191970" stroke="#191970" points="685.4492,-561.4966 695.7727,-563.8791 689.1882,-555.5788 685.4492,-561.4966"/>
</g>
<!-- Node145&#45;&gt;Node134 -->
<g id="edge22" class="edge">
<title>Node145&#45;&gt;Node134</title>
<path fill="none" stroke="#191970" d="M773.0289,-382.4541C801.1314,-375.6375 834.3958,-367.5688 863.0124,-360.6274"/>
<polygon fill="#191970" stroke="#191970" points="864.0313,-363.9818 872.9244,-358.2231 862.3812,-357.1791 864.0313,-363.9818"/>
</g>
<!-- Node147&#45;&gt;Node134 -->
<g id="edge26" class="edge">
<title>Node147&#45;&gt;Node134</title>
<path fill="none" stroke="#191970" d="M746.4672,-563.9936C766.373,-560.3248 790.623,-554.3248 808,-540.5 835.6868,-518.4729 826.4633,-500.2281 844,-469.5 864.8008,-433.0524 891.0592,-392.6224 908.9514,-367.6889"/>
<polygon fill="#191970" stroke="#191970" points="911.8279,-369.6848 914.9086,-359.5478 906.1787,-365.5511 911.8279,-369.6848"/>
</g>
<!-- Node147&#45;&gt;Node134 -->
<g id="edge27" class="edge">
<title>Node147&#45;&gt;Node134</title>
<path fill="none" stroke="#191970" d="M793.3817,-567.6879C798.5832,-565.1083 803.52,-562.0642 808,-558.5 835.6868,-536.4729 826.4633,-518.2281 844,-487.5 868.3326,-444.8639 900.1335,-396.7782 917.2741,-368.3843"/>
<polygon fill="#191970" stroke="#191970" points="920.422,-369.9367 922.493,-359.5463 914.3944,-366.3774 920.422,-369.9367"/>
</g>
<!-- Node147&#45;&gt;Node146 -->
<g id="edge30" class="edge">
<title>Node147&#45;&gt;Node146</title>
<path fill="none" stroke="#191970" d="M769.6861,-563.9672C782.762,-560.4998 796.2279,-555.8131 808,-549.5 827.1281,-539.242 824.7508,-526.5289 844,-516.5 848.5197,-514.1452 853.3214,-512.0814 858.2539,-510.2726"/>
<polygon fill="#191970" stroke="#191970" points="859.4631,-513.5593 867.8607,-507.0993 857.2675,-506.9125 859.4631,-513.5593"/>
</g>
<!-- Node148 -->
<g id="node21" class="node">
<title>Node148</title>
<g id="a_node21"><a xlink:href="classUIManager.html#aa5b6dbe1a9d5c50b588c55e9c9673f58" target="_top" xlink:title="Get the Ui Element By ID Finds and returns an UiElement by its elementID parameter. ">
<polygon fill="none" stroke="#000000" points="847,-526 847,-545 1012,-545 1012,-526 847,-526"/>
<text text-anchor="middle" x="929.5" y="-533" font-family="Helvetica,sans-Serif" font-size="10.00" fill="#000000">UIManager::getUiElementByID</text>
</a>
</g>
</g>
<!-- Node147&#45;&gt;Node148 -->
<g id="edge28" class="edge">
<title>Node147&#45;&gt;Node148</title>
<path fill="none" stroke="#191970" d="M765.8547,-563.96C795.8548,-558.7426 833.2019,-552.2475 864.64,-546.78"/>
<polygon fill="#191970" stroke="#191970" points="865.3703,-550.2056 874.6227,-545.0439 864.1708,-543.3091 865.3703,-550.2056"/>
</g>
<!-- Node149 -->
<g id="node22" class="node">
<title>Node149</title>
<g id="a_node22"><a xlink:href="classUIElement.html#a6451228b4c9bc058d69e4d4f2b03c719" target="_top" xlink:title="UIElement::getUiElementData">
<polygon fill="none" stroke="#000000" points="847.5,-602 847.5,-621 1011.5,-621 1011.5,-602 847.5,-602"/>
<text text-anchor="middle" x="929.5" y="-609" font-family="Helvetica,sans-Serif" font-size="10.00" fill="#000000">UIElement::getUiElementData</text>
</a>
</g>
</g>
<!-- Node147&#45;&gt;Node149 -->
<g id="edge29" class="edge">
<title>Node147&#45;&gt;Node149</title>
<path fill="none" stroke="#191970" d="M765.8547,-583.04C795.8548,-588.2574 833.2019,-594.7525 864.64,-600.22"/>
<polygon fill="#191970" stroke="#191970" points="864.1708,-603.6909 874.6227,-601.9561 865.3703,-596.7944 864.1708,-603.6909"/>
</g>
<!-- Node150 -->
<g id="node23" class="node">
<title>Node150</title>
<g id="a_node23"><a xlink:href="classUIElement.html#ad1c0d7431b71bdd9a3704a6d5c8a4643" target="_top" xlink:title="Get the position and the size of this ui element Gets the position and the size of this ui element...">
<polygon fill="none" stroke="#000000" points="849,-564 849,-583 1010,-583 1010,-564 849,-564"/>
<text text-anchor="middle" x="929.5" y="-571" font-family="Helvetica,sans-Serif" font-size="10.00" fill="#000000">UIElement::getUiElementRect</text>
</a>
</g>
</g>
<!-- Node147&#45;&gt;Node150 -->
<g id="edge31" class="edge">
<title>Node147&#45;&gt;Node150</title>
<path fill="none" stroke="#191970" d="M793.2941,-573.5C808.0377,-573.5 823.4799,-573.5 838.4527,-573.5"/>
<polygon fill="#191970" stroke="#191970" points="838.7292,-577.0001 848.7292,-573.5 838.7291,-570.0001 838.7292,-577.0001"/>
</g>
<!-- Node151 -->
<g id="node24" class="node">
<title>Node151</title>
<g id="a_node24"><a xlink:href="classUIElement.html#aa7f624963eaeb31043d74219ee24386c" target="_top" xlink:title="Checks if the mouse cursor is over the current UI Element Check if the coordinates match the ones sto...">
<polygon fill="none" stroke="#000000" points="1087,-583 1087,-602 1224,-602 1224,-583 1087,-583"/>
<text text-anchor="middle" x="1155.5" y="-590" font-family="Helvetica,sans-Serif" font-size="10.00" fill="#000000">UIElement::isMouseOver</text>
</a>
</g>
</g>
<!-- Node150&#45;&gt;Node151 -->
<g id="edge32" class="edge">
<title>Node150&#45;&gt;Node151</title>
<path fill="none" stroke="#191970" d="M1010.134,-580.279C1031.802,-582.1006 1055.204,-584.068 1076.7673,-585.8809"/>
<polygon fill="#191970" stroke="#191970" points="1076.6016,-589.3792 1086.8597,-586.7294 1077.1881,-582.4038 1076.6016,-589.3792"/>
</g>
<!-- Node152 -->
<g id="node25" class="node">
<title>Node152</title>
<g id="a_node25"><a xlink:href="classUIElement.html#a570841bf8b7970ca935b1a00e571036a" target="_top" xlink:title="Handling for the hovering event Check, if the mouse cursor is hovering over the element. virtual function to provide custom handling if necessary (e.g. Combobox) Per default, it&#39;s the same implementation as isMouseOver. ">
<polygon fill="none" stroke="#000000" points="1051,-545 1051,-564 1260,-564 1260,-545 1051,-545"/>
<text text-anchor="middle" x="1155.5" y="-552" font-family="Helvetica,sans-Serif" font-size="10.00" fill="#000000">UIElement::isMouseOverHoverableArea</text>
</a>
</g>
</g>
<!-- Node150&#45;&gt;Node152 -->
<g id="edge33" class="edge">
<title>Node150&#45;&gt;Node152</title>
<path fill="none" stroke="#191970" d="M1010.134,-566.721C1020.0217,-565.8898 1030.2705,-565.0281 1040.5409,-564.1647"/>
<polygon fill="#191970" stroke="#191970" points="1041.1343,-567.6273 1050.8059,-563.3017 1040.5478,-560.6519 1041.1343,-567.6273"/>
</g>
<!-- Node153&#45;&gt;Node134 -->
<g id="edge36" class="edge">
<title>Node153&#45;&gt;Node134</title>
<path fill="none" stroke="#191970" d="M355.9284,-291.9314C360.0322,-293.0516 364.0764,-294.2437 368,-295.5 384.6751,-300.8392 386.9597,-307.4754 404,-311.5 565.3358,-349.6046 762.0763,-345.7392 862.903,-343.4725"/>
<polygon fill="#191970" stroke="#191970" points="863.0279,-346.9707 872.9465,-343.2464 862.8702,-339.9725 863.0279,-346.9707"/>
</g>
<!-- Node153&#45;&gt;Node134 -->
<g id="edge41" class="edge">
<title>Node153&#45;&gt;Node134</title>
<path fill="none" stroke="#191970" d="M294.1897,-295.0186C313.214,-300.1156 343.0458,-305.5099 368,-313.5 384.6751,-318.8392 386.9597,-325.4754 404,-329.5 565.3358,-367.6046 762.0763,-363.7392 862.903,-355.056"/>
<polygon fill="#191970" stroke="#191970" points="863.3032,-358.5342 872.9465,-354.1458 862.6714,-351.5627 863.3032,-358.5342"/>
</g>
<!-- Node153&#45;&gt;Node140 -->
<g id="edge39" class="edge">
<title>Node153&#45;&gt;Node140</title>
<path fill="none" stroke="#191970" d="M355.7376,-285.5C374.9348,-285.5 395.3617,-285.5 414.369,-285.5"/>
<polygon fill="#191970" stroke="#191970" points="414.4644,-289.0001 424.4643,-285.5 414.4643,-282.0001 414.4644,-289.0001"/>
</g>
<!-- Node153&#45;&gt;Node144 -->
<g id="edge40" class="edge">
<title>Node153&#45;&gt;Node144</title>
<path fill="none" stroke="#191970" d="M352.896,-295.0716C358.3227,-297.6026 363.4396,-300.7055 368,-304.5 400.8001,-331.791 374.6853,-362.4953 404,-393.5 415.5746,-405.7419 431.54,-414.7029 446.6372,-421.0676"/>
<polygon fill="#191970" stroke="#191970" points="445.7902,-424.4947 456.3779,-424.8835 448.3435,-417.977 445.7902,-424.4947"/>
</g>
<!-- Node154 -->
<g id="node27" class="node">
<title>Node154</title>
<g id="a_node27"><a xlink:href="classWindowManager.html#a02ff8708c66cbb980399eb967a37a937" target="_top" xlink:title="WindowManager::setScreen\lResolution">
<polygon fill="none" stroke="#000000" points="635,-276.5 635,-306.5 787,-306.5 787,-276.5 635,-276.5"/>
<text text-anchor="start" x="643" y="-294.5" font-family="Helvetica,sans-Serif" font-size="10.00" fill="#000000">WindowManager::setScreen</text>
<text text-anchor="middle" x="711" y="-283.5" font-family="Helvetica,sans-Serif" font-size="10.00" fill="#000000">Resolution</text>
</a>
</g>
</g>
<!-- Node153&#45;&gt;Node154 -->
<g id="edge37" class="edge">
<title>Node153&#45;&gt;Node154</title>
<path fill="none" stroke="#191970" d="M327.5286,-295.0139C350.8616,-298.7796 378.7138,-302.6478 404,-304.5 481.1267,-310.1494 500.7584,-308.266 578,-304.5 593.1121,-303.7632 609.1558,-302.5581 624.6757,-301.1712"/>
<polygon fill="#191970" stroke="#191970" points="625.1486,-304.6425 634.7839,-300.2367 624.5041,-297.6723 625.1486,-304.6425"/>
</g>
<!-- Node155 -->
<g id="node28" class="node">
<title>Node155</title>
<g id="a_node28"><a xlink:href="classMap.html#ab69938ac0e56eb0da1d1701221f3d185" target="_top" xlink:title="Refresh all the map tile textures. ">
<polygon fill="none" stroke="#000000" points="452.5,-144 452.5,-163 529.5,-163 529.5,-144 452.5,-144"/>
<text text-anchor="middle" x="491" y="-151" font-family="Helvetica,sans-Serif" font-size="10.00" fill="#000000">Map::refresh</text>
</a>
</g>
</g>
<!-- Node153&#45;&gt;Node155 -->
<g id="edge42" class="edge">
<title>Node153&#45;&gt;Node155</title>
<path fill="none" stroke="#191970" d="M290.883,-275.7937C328.2664,-252.9483 422.0116,-195.6596 466.6443,-168.384"/>
<polygon fill="#191970" stroke="#191970" points="468.6773,-171.2435 475.385,-163.0425 465.0271,-165.2705 468.6773,-171.2435"/>
</g>
<!-- Node154&#45;&gt;Node134 -->
<g id="edge38" class="edge">
<title>Node154&#45;&gt;Node134</title>
<path fill="none" stroke="#191970" d="M773.0289,-306.5459C801.1314,-313.3625 834.3958,-321.4312 863.0124,-328.3726"/>
<polygon fill="#191970" stroke="#191970" points="862.3812,-331.8209 872.9244,-330.7769 864.0313,-325.0182 862.3812,-331.8209"/>
</g>
<!-- Node156&#45;&gt;Node134 -->
<g id="edge44" class="edge">
<title>Node156&#45;&gt;Node134</title>
<path fill="none" stroke="#191970" d="M289.9651,-143.9244C313.8742,-134.5025 362.2503,-122.9297 404,-117.5 582.122,-94.3344 654.075,-13.9192 808,-106.5 885.5938,-153.1701 916.2687,-267.9224 925.8469,-319.2894"/>
<polygon fill="#191970" stroke="#191970" points="922.4161,-319.9899 927.5799,-329.2412 929.3124,-318.789 922.4161,-319.9899"/>
</g>
<!-- Node156&#45;&gt;Node134 -->
<g id="edge49" class="edge">
<title>Node156&#45;&gt;Node134</title>
<path fill="none" stroke="#191970" d="M352.7783,-143.9928C369.5883,-140.8181 387.3228,-137.6689 404,-135.5 582.122,-112.3344 654.075,-31.9192 808,-124.5 880.6079,-168.1713 912.1328,-271.4564 923.7324,-319.4784"/>
<polygon fill="#191970" stroke="#191970" points="920.3595,-320.4274 926.0314,-329.3762 927.178,-318.8436 920.3595,-320.4274"/>
</g>
<!-- Node156&#45;&gt;Node140 -->
<g id="edge47" class="edge">
<title>Node156&#45;&gt;Node140</title>
<path fill="none" stroke="#191970" d="M290.883,-163.2063C328.2664,-186.0517 422.0116,-243.3404 466.6443,-270.616"/>
<polygon fill="#191970" stroke="#191970" points="465.0271,-273.7295 475.385,-275.9575 468.6773,-267.7565 465.0271,-273.7295"/>
</g>
<!-- Node156&#45;&gt;Node144 -->
<g id="edge48" class="edge">
<title>Node156&#45;&gt;Node144</title>
<path fill="none" stroke="#191970" d="M283.1484,-163.0247C299.5579,-182.2871 337.6115,-227.3686 368,-266.5 409.5923,-320.0586 456.2763,-385.3354 478.2555,-416.3966"/>
<polygon fill="#191970" stroke="#191970" points="475.6234,-418.7369 484.2505,-424.887 481.3416,-414.6993 475.6234,-418.7369"/>
</g>
<!-- Node156&#45;&gt;Node155 -->
<g id="edge50" class="edge">
<title>Node156&#45;&gt;Node155</title>
<path fill="none" stroke="#191970" d="M368.1707,-153.5C393.7002,-153.5 420.3566,-153.5 442.287,-153.5"/>
<polygon fill="#191970" stroke="#191970" points="442.3276,-157.0001 452.3275,-153.5 442.3275,-150.0001 442.3276,-157.0001"/>
</g>
<!-- Node157 -->
<g id="node30" class="node">
<title>Node157</title>
<g id="a_node30"><a xlink:href="classWindowManager.html#a92e1efc564e88b5d92ef674c2577997f" target="_top" xlink:title="sets the game&#39;s window mode Changes the game&#39;s window mode to fullscreen, borderless, or windowed ">
<polygon fill="none" stroke="#000000" points="614,-125 614,-144 808,-144 808,-125 614,-125"/>
<text text-anchor="middle" x="711" y="-132" font-family="Helvetica,sans-Serif" font-size="10.00" fill="#000000">WindowManager::setFullScreenMode</text>
</a>
</g>
</g>
<!-- Node156&#45;&gt;Node157 -->
<g id="edge45" class="edge">
<title>Node156&#45;&gt;Node157</title>
<path fill="none" stroke="#191970" d="M327.5286,-143.9861C350.8616,-140.2204 378.7138,-136.3522 404,-134.5 470.2034,-129.6507 544.6529,-129.5198 603.6556,-130.664"/>
<polygon fill="#191970" stroke="#191970" points="603.6651,-134.1649 613.7361,-130.8748 603.8115,-127.1664 603.6651,-134.1649"/>
</g>
<!-- Node157&#45;&gt;Node134 -->
<g id="edge46" class="edge">
<title>Node157&#45;&gt;Node134</title>
<path fill="none" stroke="#191970" d="M743.4615,-144.078C763.5056,-151.0986 788.9427,-162.1035 808,-177.5 858.2211,-218.0741 897.9059,-284.1953 917.0289,-319.8491"/>
<polygon fill="#191970" stroke="#191970" points="914.116,-321.8299 921.869,-329.0509 920.3113,-318.5712 914.116,-321.8299"/>
</g>
</g>
</svg>
        <g id="navigator" transform="translate(0 0)" fill="#404254">
                <rect fill="#f2f5e9" fill-opacity="0.5" stroke="#606060" stroke-width=".5" x="0" y="0" width="60" height="60"/>
                <use id="zoomplus" xlink:href="#zoomPlus" x="17" y="9" onmousedown="handleZoom(evt,'in')"/>
                <use id="zoomminus" xlink:href="#zoomMin" x="42" y="9" onmousedown="handleZoom(evt,'out')"/>
                <use id="reset" xlink:href="#resetDef" x="30" y="36" onmousedown="handleReset()"/>
                <g id="arrowUp" xlink:href="#dirArrow" transform="translate(30 24)" onmousedown="handlePan(0,-1)">
                  <use xlink:href="#rim" fill="#404040">
                        <set attributeName="fill" to="#808080" begin="arrowUp.mouseover" end="arrowUp.mouseout"/>
                  </use>
                  <path fill="none" stroke="white" stroke-width="1.5" d="M0,-3.0v7 M-2.5,-0.5L0,-3.0L2.5,-0.5"/>
                </g>
                <g id="arrowRight" xlink:href="#dirArrow" transform="rotate(90) translate(36 -43)" onmousedown="handlePan(1,0)">
                  <use xlink:href="#rim" fill="#404040">
                        <set attributeName="fill" to="#808080" begin="arrowRight.mouseover" end="arrowRight.mouseout"/>
                  </use>
                  <path fill="none" stroke="white" stroke-width="1.5" d="M0,-3.0v7 M-2.5,-0.5L0,-3.0L2.5,-0.5"/>
                </g>
                <g id="arrowDown" xlink:href="#dirArrow" transform="rotate(180) translate(-30 -48)" onmousedown="handlePan(0,1)">
                  <use xlink:href="#rim" fill="#404040">
                        <set attributeName="fill" to="#808080" begin="arrowDown.mouseover" end="arrowDown.mouseout"/>
                  </use>
                  <path fill="none" stroke="white" stroke-width="1.5" d="M0,-3.0v7 M-2.5,-0.5L0,-3.0L2.5,-0.5"/>
                </g>
                <g id="arrowLeft" xlink:href="#dirArrow" transform="rotate(270) translate(-36 17)" onmousedown="handlePan(-1,0)">
                  <use xlink:href="#rim" fill="#404040">
                        <set attributeName="fill" to="#808080" begin="arrowLeft.mouseover" end="arrowLeft.mouseout"/>
                  </use>
                  <path fill="none" stroke="white" stroke-width="1.5" d="M0,-3.0v7 M-2.5,-0.5L0,-3.0L2.5,-0.5"/>
                </g>
        </g>
        <svg viewBox="0 0 15 15" width="100%" height="30px" preserveAspectRatio="xMaxYMin meet">
         <g id="arrow_out" transform="scale(0.3 0.3)">
          <a xlink:href="classUIManager_a5c4cb8e02504ffa0d3faf45181feab9d_cgraph_org.svg" target="_base">
           <rect id="button" ry="5" rx="5" y="6" x="6" height="38" width="38"
                fill="#f2f5e9" fill-opacity="0.5" stroke="#606060" stroke-width="1.0"/>
           <path id="arrow"
             d="M 11.500037,31.436501 C 11.940474,20.09759 22.043105,11.32322 32.158766,21.979434 L 37.068811,17.246167 C 37.068811,17.246167 37.088388,32 37.088388,32 L 22.160133,31.978069 C 22.160133,31.978069 26.997745,27.140456 26.997745,27.140456 C 18.528582,18.264221 13.291696,25.230495 11.500037,31.436501 z"
             style="fill:#404040;"/>
          </a>
         </g>
        </svg>
</svg>
