<?xml version="1.0" encoding="UTF-8" standalone="no"?>
<!DOCTYPE svg PUBLIC "-//W3C//DTD SVG 1.1//EN"
 "http://www.w3.org/Graphics/SVG/1.1/DTD/svg11.dtd">
<!-- Generated by graphviz version 2.40.1 (20161225.0304)
 -->
<!-- Title: Engine::loadGame Pages: 1 -->
<!--zoomable 132 -->
<svg id="main" version="1.1" xmlns="http://www.w3.org/2000/svg" xmlns:xlink="http://www.w3.org/1999/xlink" xml:space="preserve" onload="init(evt)">
<style type="text/css"><![CDATA[
.edge:hover path { stroke: red; }
.edge:hover polygon { stroke: red; fill: red; }
]]></style>
<script type="text/javascript"><![CDATA[
var edges = document.getElementsByTagName('g');
if (edges && edges.length) {
  for (var i=0;i<edges.length;i++) {
    if (edges[i].id.substr(0,4)=='edge') {
      edges[i].setAttribute('class','edge');
    }
  }
}
]]></script>
        <defs>
                <circle id="rim" cx="0" cy="0" r="7"/>
                <circle id="rim2" cx="0" cy="0" r="3.5"/>
                <g id="zoomPlus">
                        <use xlink:href="#rim" fill="#404040">
                                <set attributeName="fill" to="#808080" begin="zoomplus.mouseover" end="zoomplus.mouseout"/>
                        </use>
                        <path d="M-4,0h8M0,-4v8" fill="none" stroke="white" stroke-width="1.5" pointer-events="none"/>
                </g>
                <g id="zoomMin">
                        <use xlink:href="#rim" fill="#404040">
                                <set attributeName="fill" to="#808080" begin="zoomminus.mouseover" end="zoomminus.mouseout"/>
                        </use>
                        <path d="M-4,0h8" fill="none" stroke="white" stroke-width="1.5" pointer-events="none"/>
                </g>
                <g id="dirArrow">
                        <path fill="none" stroke="white" stroke-width="1.5" d="M0,-3.0v7 M-2.5,-0.5L0,-3.0L2.5,-0.5"/>
                </g>
               <g id="resetDef">
                       <use xlink:href="#rim2" fill="#404040">
                               <set attributeName="fill" to="#808080" begin="reset.mouseover" end="reset.mouseout"/>
                       </use>
               </g>
        </defs>

<script type="text/javascript">
var viewWidth = 813;
var viewHeight = 132;
var sectionId = 'dynsection-8';
</script>
<script xlink:href="svgpan.js"/>
<svg id="graph" class="graph">
<g id="viewport">
<title>Engine::loadGame</title>
<!-- Node27 -->
<g id="node1" class="node">
<title>Node27</title>
<polygon fill="#bfbfbf" stroke="#000000" points="0,-28.4066 0,-47.4066 106,-47.4066 106,-28.4066 0,-28.4066"/>
<text text-anchor="middle" x="53" y="-35.4066" font-family="Helvetica,sans-Serif" font-size="10.00" fill="#000000">Engine::loadGame</text>
</g>
<!-- Node28 -->
<g id="node2" class="node">
<title>Node28</title>
<g id="a_node2"><a xlink:href="classEngine.html#a0ba57971ffb5173ecc425461f65a4cd8" target="_top" xlink:title="Quits the game Sets m_running to false and quitting the game. ">
<polygon fill="none" stroke="#000000" points="142,-66.4066 142,-85.4066 246,-85.4066 246,-66.4066 142,-66.4066"/>
<text text-anchor="middle" x="194" y="-73.4066" font-family="Helvetica,sans-Serif" font-size="10.00" fill="#000000">Engine::quitGame</text>
</a>
</g>
</g>
<!-- Node27&#45;&gt;Node28 -->
<g id="edge1" class="edge">
<title>Node27&#45;&gt;Node28</title>
<path fill="none" stroke="#191970" d="M98.4398,-50.1528C117.875,-55.3906 140.2311,-61.4157 158.4311,-66.3207"/>
<polygon fill="#191970" stroke="#191970" points="99.1465,-46.7184 88.5803,-47.4956 97.325,-53.4773 99.1465,-46.7184"/>
</g>
<!-- Node33 -->
<g id="node7" class="node">
<title>Node33</title>
<g id="a_node7"><a xlink:href="classUIManager.html#aa78e356fc3b356d790c848319d1c387e" target="_top" xlink:title="UIManager::setCallbackFunctions">
<polygon fill="none" stroke="#000000" points="282,-28.4066 282,-47.4066 460,-47.4066 460,-28.4066 282,-28.4066"/>
<text text-anchor="middle" x="371" y="-35.4066" font-family="Helvetica,sans-Serif" font-size="10.00" fill="#000000">UIManager::setCallbackFunctions</text>
</a>
</g>
</g>
<!-- Node27&#45;&gt;Node33 -->
<g id="edge10" class="edge">
<title>Node27&#45;&gt;Node33</title>
<path fill="none" stroke="#191970" d="M116.3498,-37.9066C163.7184,-37.9066 229.1124,-37.9066 281.7707,-37.9066"/>
<polygon fill="#191970" stroke="#191970" points="116.2261,-34.4067 106.2261,-37.9066 116.226,-41.4067 116.2261,-34.4067"/>
</g>
<!-- Node35 -->
<g id="node9" class="node">
<title>Node35</title>
<g id="a_node9"><a xlink:href="classGame.html#a560299f0291c281f7b44e7ef0dd7b264" target="_top" xlink:title="initializes and displays the main menu initializes and displays the main menu ">
<polygon fill="none" stroke="#000000" points="496,-66.4066 496,-85.4066 599,-85.4066 599,-66.4066 496,-66.4066"/>
<text text-anchor="middle" x="547.5" y="-73.4066" font-family="Helvetica,sans-Serif" font-size="10.00" fill="#000000">Game::mainMenu</text>
</a>
</g>
</g>
<!-- Node27&#45;&gt;Node35 -->
<g id="edge11" class="edge">
<title>Node27&#45;&gt;Node35</title>
<path fill="none" stroke="#191970" d="M99.1831,-26.0602C175.9308,-8.4934 333.7778,18.5797 460,-18.9066 491.2834,-28.1973 521.8332,-52.6029 537.215,-66.2749"/>
<polygon fill="#191970" stroke="#191970" points="98.2857,-22.6756 89.3463,-28.3621 99.8808,-29.4914 98.2857,-22.6756"/>
</g>
<!-- Node29 -->
<g id="node3" class="node">
<title>Node29</title>
<g id="a_node3"><a xlink:href="classEventManager.html#a65ec91fd5016d4f9c4167fb8babed2df" target="_top" xlink:title="EventManager::checkEvents">
<polygon fill="none" stroke="#000000" points="294,-104.4066 294,-123.4066 448,-123.4066 448,-104.4066 294,-104.4066"/>
<text text-anchor="middle" x="371" y="-111.4066" font-family="Helvetica,sans-Serif" font-size="10.00" fill="#000000">EventManager::checkEvents</text>
</a>
</g>
</g>
<!-- Node28&#45;&gt;Node29 -->
<g id="edge2" class="edge">
<title>Node28&#45;&gt;Node29</title>
<path fill="none" stroke="#191970" d="M248.3541,-87.6628C259.4832,-90.0641 271.119,-92.5705 282,-94.9066 296.3662,-97.991 312.0401,-101.3418 326.1756,-104.3585"/>
<polygon fill="#191970" stroke="#191970" points="248.8256,-84.184 238.3121,-85.495 247.3484,-91.0264 248.8256,-84.184"/>
</g>
<!-- Node28&#45;&gt;Node33 -->
<g id="edge6" class="edge">
<title>Node28&#45;&gt;Node33</title>
<path fill="none" stroke="#191970" d="M248.3541,-64.1504C259.4832,-61.7491 271.119,-59.2427 282,-56.9066 296.3662,-53.8222 312.0401,-50.4713 326.1756,-47.4547"/>
<polygon fill="#191970" stroke="#191970" points="247.3484,-60.7868 238.3121,-66.3182 248.8256,-67.6292 247.3484,-60.7868"/>
</g>
<!-- Node34 -->
<g id="node8" class="node">
<title>Node34</title>
<g id="a_node8"><a xlink:href="classGame.html#a8272be134d16c277bb014ad6a22fc357" target="_top" xlink:title="Game::quit">
<polygon fill="none" stroke="#000000" points="335.5,-66.4066 335.5,-85.4066 406.5,-85.4066 406.5,-66.4066 335.5,-66.4066"/>
<text text-anchor="middle" x="371" y="-73.4066" font-family="Helvetica,sans-Serif" font-size="10.00" fill="#000000">Game::quit</text>
</a>
</g>
</g>
<!-- Node28&#45;&gt;Node34 -->
<g id="edge7" class="edge">
<title>Node28&#45;&gt;Node34</title>
<path fill="none" stroke="#191970" d="M256.4886,-75.9066C282.9691,-75.9066 312.8596,-75.9066 335.4608,-75.9066"/>
<polygon fill="#191970" stroke="#191970" points="256.1485,-72.4067 246.1485,-75.9066 256.1485,-79.4067 256.1485,-72.4067"/>
</g>
<!-- Node30 -->
<g id="node4" class="node">
<title>Node30</title>
<g id="a_node4"><a xlink:href="classGame.html#a1c2ab25d5216b2f4b2fe41efd2c09114" target="_top" xlink:title="begins the game starts running the game ">
<polygon fill="none" stroke="#000000" points="513.5,-104.4066 513.5,-123.4066 581.5,-123.4066 581.5,-104.4066 513.5,-104.4066"/>
<text text-anchor="middle" x="547.5" y="-111.4066" font-family="Helvetica,sans-Serif" font-size="10.00" fill="#000000">Game::run</text>
</a>
</g>
</g>
<!-- Node29&#45;&gt;Node30 -->
<g id="edge3" class="edge">
<title>Node29&#45;&gt;Node30</title>
<path fill="none" stroke="#191970" d="M458.3664,-113.9066C477.9355,-113.9066 497.5625,-113.9066 513.398,-113.9066"/>
<polygon fill="#191970" stroke="#191970" points="458.1587,-110.4067 448.1587,-113.9066 458.1587,-117.4067 458.1587,-110.4067"/>
</g>
<!-- Node31 -->
<g id="node5" class="node">
<title>Node31</title>
<g id="a_node5"><a xlink:href="main_8cxx.html#af582d708d899e67ead623eac34a22387" target="_top" xlink:title="protected_main">
<polygon fill="none" stroke="#000000" points="635,-85.4066 635,-104.4066 728,-104.4066 728,-85.4066 635,-85.4066"/>
<text text-anchor="middle" x="681.5" y="-92.4066" font-family="Helvetica,sans-Serif" font-size="10.00" fill="#000000">protected_main</text>
</a>
</g>
</g>
<!-- Node30&#45;&gt;Node31 -->
<g id="edge4" class="edge">
<title>Node30&#45;&gt;Node31</title>
<path fill="none" stroke="#191970" d="M591.8611,-107.6166C605.6278,-105.6646 620.8396,-103.5077 634.7626,-101.5335"/>
<polygon fill="#191970" stroke="#191970" points="591.0702,-104.1936 581.6606,-109.0629 592.0529,-111.1243 591.0702,-104.1936"/>
</g>
<!-- Node32 -->
<g id="node6" class="node">
<title>Node32</title>
<g id="a_node6"><a xlink:href="main_8cxx.html#a3c04138a5bfe5d72780bb7e82a18e627" target="_top" xlink:title="main">
<polygon fill="none" stroke="#000000" points="764,-85.4066 764,-104.4066 805,-104.4066 805,-85.4066 764,-85.4066"/>
<text text-anchor="middle" x="784.5" y="-92.4066" font-family="Helvetica,sans-Serif" font-size="10.00" fill="#000000">main</text>
</a>
</g>
</g>
<!-- Node31&#45;&gt;Node32 -->
<g id="edge5" class="edge">
<title>Node31&#45;&gt;Node32</title>
<path fill="none" stroke="#191970" d="M738.2133,-94.9066C747.4322,-94.9066 756.4259,-94.9066 763.9965,-94.9066"/>
<polygon fill="#191970" stroke="#191970" points="738.1782,-91.4067 728.1782,-94.9066 738.1781,-98.4067 738.1782,-91.4067"/>
</g>
<!-- Node34&#45;&gt;Node35 -->
<g id="edge8" class="edge">
<title>Node34&#45;&gt;Node35</title>
<path fill="none" stroke="#191970" d="M417.0403,-75.9066C441.1836,-75.9066 470.8403,-75.9066 495.7739,-75.9066"/>
<polygon fill="#191970" stroke="#191970" points="416.7174,-72.4067 406.7174,-75.9066 416.7174,-79.4067 416.7174,-72.4067"/>
</g>
<!-- Node35&#45;&gt;Node31 -->
<g id="edge9" class="edge">
<title>Node35&#45;&gt;Node31</title>
<path fill="none" stroke="#191970" d="M609.2457,-84.6616C617.7846,-85.8723 626.438,-87.0993 634.6465,-88.2632"/>
<polygon fill="#191970" stroke="#191970" points="609.7003,-81.1911 599.3079,-83.2525 608.7175,-88.1218 609.7003,-81.1911"/>
</g>
</g>
</svg>
        <g id="navigator" transform="translate(0 0)" fill="#404254">
                <rect fill="#f2f5e9" fill-opacity="0.5" stroke="#606060" stroke-width=".5" x="0" y="0" width="60" height="60"/>
                <use id="zoomplus" xlink:href="#zoomPlus" x="17" y="9" onmousedown="handleZoom(evt,'in')"/>
                <use id="zoomminus" xlink:href="#zoomMin" x="42" y="9" onmousedown="handleZoom(evt,'out')"/>
                <use id="reset" xlink:href="#resetDef" x="30" y="36" onmousedown="handleReset()"/>
                <g id="arrowUp" xlink:href="#dirArrow" transform="translate(30 24)" onmousedown="handlePan(0,-1)">
                  <use xlink:href="#rim" fill="#404040">
                        <set attributeName="fill" to="#808080" begin="arrowUp.mouseover" end="arrowUp.mouseout"/>
                  </use>
                  <path fill="none" stroke="white" stroke-width="1.5" d="M0,-3.0v7 M-2.5,-0.5L0,-3.0L2.5,-0.5"/>
                </g>
                <g id="arrowRight" xlink:href="#dirArrow" transform="rotate(90) translate(36 -43)" onmousedown="handlePan(1,0)">
                  <use xlink:href="#rim" fill="#404040">
                        <set attributeName="fill" to="#808080" begin="arrowRight.mouseover" end="arrowRight.mouseout"/>
                  </use>
                  <path fill="none" stroke="white" stroke-width="1.5" d="M0,-3.0v7 M-2.5,-0.5L0,-3.0L2.5,-0.5"/>
                </g>
                <g id="arrowDown" xlink:href="#dirArrow" transform="rotate(180) translate(-30 -48)" onmousedown="handlePan(0,1)">
                  <use xlink:href="#rim" fill="#404040">
                        <set attributeName="fill" to="#808080" begin="arrowDown.mouseover" end="arrowDown.mouseout"/>
                  </use>
                  <path fill="none" stroke="white" stroke-width="1.5" d="M0,-3.0v7 M-2.5,-0.5L0,-3.0L2.5,-0.5"/>
                </g>
                <g id="arrowLeft" xlink:href="#dirArrow" transform="rotate(270) translate(-36 17)" onmousedown="handlePan(-1,0)">
                  <use xlink:href="#rim" fill="#404040">
                        <set attributeName="fill" to="#808080" begin="arrowLeft.mouseover" end="arrowLeft.mouseout"/>
                  </use>
                  <path fill="none" stroke="white" stroke-width="1.5" d="M0,-3.0v7 M-2.5,-0.5L0,-3.0L2.5,-0.5"/>
                </g>
        </g>
        <svg viewBox="0 0 15 15" width="100%" height="30px" preserveAspectRatio="xMaxYMin meet">
         <g id="arrow_out" transform="scale(0.3 0.3)">
          <a xlink:href="classEngine_a83b7dbeee899b36a13d5b07c7ad87ebc_icgraph_org.svg" target="_base">
           <rect id="button" ry="5" rx="5" y="6" x="6" height="38" width="38"
                fill="#f2f5e9" fill-opacity="0.5" stroke="#606060" stroke-width="1.0"/>
           <path id="arrow"
             d="M 11.500037,31.436501 C 11.940474,20.09759 22.043105,11.32322 32.158766,21.979434 L 37.068811,17.246167 C 37.068811,17.246167 37.088388,32 37.088388,32 L 22.160133,31.978069 C 22.160133,31.978069 26.997745,27.140456 26.997745,27.140456 C 18.528582,18.264221 13.291696,25.230495 11.500037,31.436501 z"
             style="fill:#404040;"/>
          </a>
         </g>
        </svg>
</svg>
