<?xml version="1.0" encoding="UTF-8" standalone="no"?>
<!DOCTYPE svg PUBLIC "-//W3C//DTD SVG 1.1//EN"
 "http://www.w3.org/Graphics/SVG/1.1/DTD/svg11.dtd">
<!-- Generated by graphviz version 2.40.1 (20161225.0304)
 -->
<!-- Title: Rectangle::height Pages: 1 -->
<svg width="289pt" height="180pt"
 viewBox="0.00 0.00 289.00 180.00" xmlns="http://www.w3.org/2000/svg" xmlns:xlink="http://www.w3.org/1999/xlink">
<g id="graph0" class="graph" transform="scale(1 1) rotate(0) translate(4 176)">
<title>Rectangle::height</title>
<!-- Node15 -->
<g id="node1" class="node">
<title>Node15</title>
<polygon fill="#bfbfbf" stroke="#000000" points="0,-76.5 0,-95.5 101,-95.5 101,-76.5 0,-76.5"/>
<text text-anchor="middle" x="50.5" y="-83.5" font-family="Helvetica,sans-Serif" font-size="10.00" fill="#000000">Rectangle::height</text>
</g>
<!-- Node16 -->
<g id="node2" class="node">
<title>Node16</title>
<g id="a_node2"><a xlink:href="classPixelBuffer.html#a5402df89a5dc5b23594a697285f21e34" target="_top" xlink:title="Scale the pixel buffer using nearest&#45;neighbor in both dimensions. ">
<polygon fill="none" stroke="#000000" points="158.5,-152.5 158.5,-171.5 259.5,-171.5 259.5,-152.5 158.5,-152.5"/>
<text text-anchor="middle" x="209" y="-159.5" font-family="Helvetica,sans-Serif" font-size="10.00" fill="#000000">PixelBuffer::scale</text>
</a>
</g>
</g>
<!-- Node15&#45;&gt;Node16 -->
<g id="edge1" class="edge">
<title>Node15&#45;&gt;Node16</title>
<path fill="none" stroke="#191970" d="M70.3722,-101.8124C87.2384,-114.5443 112.5315,-132.0634 137,-143 145.3798,-146.7455 154.6497,-149.8749 163.6713,-152.4418"/>
<polygon fill="#191970" stroke="#191970" points="72.4283,-98.9782 62.3695,-95.651 68.158,-104.5248 72.4283,-98.9782"/>
</g>
<!-- Node17 -->
<g id="node3" class="node">
<title>Node17</title>
<g id="a_node3"><a xlink:href="classPixelBuffer.html#abbad3bec56ca536a543c42024045c99d" target="_top" xlink:title="Crop the pixel buffer around a region. ">
<polygon fill="none" stroke="#000000" points="160.5,-114.5 160.5,-133.5 257.5,-133.5 257.5,-114.5 160.5,-114.5"/>
<text text-anchor="middle" x="209" y="-121.5" font-family="Helvetica,sans-Serif" font-size="10.00" fill="#000000">PixelBuffer::crop</text>
</a>
</g>
</g>
<!-- Node15&#45;&gt;Node17 -->
<g id="edge2" class="edge">
<title>Node15&#45;&gt;Node17</title>
<path fill="none" stroke="#191970" d="M100.4191,-97.968C122.6304,-103.2931 148.4205,-109.4762 169.2914,-114.4799"/>
<polygon fill="#191970" stroke="#191970" points="101.0367,-94.5169 90.4962,-95.589 99.4047,-101.324 101.0367,-94.5169"/>
</g>
<!-- Node18 -->
<g id="node4" class="node">
<title>Node18</title>
<g id="a_node4"><a xlink:href="classPixelBuffer.html#af2200c8401646984b4119c3c7ec8e6b5" target="_top" xlink:title="Expands the sprite with a center cross to reach a dimension. ">
<polygon fill="none" stroke="#000000" points="137,-76.5 137,-95.5 281,-95.5 281,-76.5 137,-76.5"/>
<text text-anchor="middle" x="209" y="-83.5" font-family="Helvetica,sans-Serif" font-size="10.00" fill="#000000">PixelBuffer::expandCenter</text>
</a>
</g>
</g>
<!-- Node15&#45;&gt;Node18 -->
<g id="edge3" class="edge">
<title>Node15&#45;&gt;Node18</title>
<path fill="none" stroke="#191970" d="M111.1877,-86C119.6123,-86 128.3334,-86 136.9405,-86"/>
<polygon fill="#191970" stroke="#191970" points="111.0862,-82.5001 101.0862,-86 111.0861,-89.5001 111.0862,-82.5001"/>
</g>
<!-- Node19 -->
<g id="node5" class="node">
<title>Node19</title>
<g id="a_node5"><a xlink:href="classPixelBuffer.html#a0d7a4fd0591121980a922794307c19e9" target="_top" xlink:title="Construct a PixelBuffer from bounds and a range. ">
<polygon fill="none" stroke="#000000" points="144.5,-38.5 144.5,-57.5 273.5,-57.5 273.5,-38.5 144.5,-38.5"/>
<text text-anchor="middle" x="209" y="-45.5" font-family="Helvetica,sans-Serif" font-size="10.00" fill="#000000">PixelBuffer::PixelBuffer</text>
</a>
</g>
</g>
<!-- Node15&#45;&gt;Node19 -->
<g id="edge4" class="edge">
<title>Node15&#45;&gt;Node19</title>
<path fill="none" stroke="#191970" d="M100.4191,-74.032C122.6304,-68.7069 148.4205,-62.5238 169.2914,-57.5201"/>
<polygon fill="#191970" stroke="#191970" points="99.4047,-70.676 90.4962,-76.411 101.0367,-77.4831 99.4047,-70.676"/>
</g>
<!-- Node20 -->
<g id="node6" class="node">
<title>Node20</title>
<g id="a_node6"><a xlink:href="classRectangle.html#a8e643108a9d90f031b397c7f561e9b66" target="_top" xlink:title="Rectangle::to_SDL">
<polygon fill="none" stroke="#000000" points="157,-.5 157,-19.5 261,-19.5 261,-.5 157,-.5"/>
<text text-anchor="middle" x="209" y="-7.5" font-family="Helvetica,sans-Serif" font-size="10.00" fill="#000000">Rectangle::to_SDL</text>
</a>
</g>
</g>
<!-- Node15&#45;&gt;Node20 -->
<g id="edge5" class="edge">
<title>Node15&#45;&gt;Node20</title>
<path fill="none" stroke="#191970" d="M70.3722,-70.1876C87.2384,-57.4557 112.5315,-39.9366 137,-29 145.3798,-25.2545 154.6497,-22.1251 163.6713,-19.5582"/>
<polygon fill="#191970" stroke="#191970" points="68.158,-67.4752 62.3695,-76.349 72.4283,-73.0218 68.158,-67.4752"/>
</g>
</g>
</svg>
