<?xml version="1.0" encoding="UTF-8" standalone="no"?>
<!DOCTYPE svg PUBLIC "-//W3C//DTD SVG 1.1//EN"
 "http://www.w3.org/Graphics/SVG/1.1/DTD/svg11.dtd">
<!-- Generated by graphviz version 2.40.1 (20161225.0304)
 -->
<!-- Title: Text::getFontSize Pages: 1 -->
<svg width="423pt" height="154pt"
 viewBox="0.00 0.00 423.00 154.00" xmlns="http://www.w3.org/2000/svg" xmlns:xlink="http://www.w3.org/1999/xlink">
<g id="graph0" class="graph" transform="scale(1 1) rotate(0) translate(4 150)">
<title>Text::getFontSize</title>
<!-- Node35 -->
<g id="node1" class="node">
<title>Node35</title>
<polygon fill="#bfbfbf" stroke="#000000" points="0,-82.5 0,-101.5 100,-101.5 100,-82.5 0,-82.5"/>
<text text-anchor="middle" x="50" y="-89.5" font-family="Helvetica,sans-Serif" font-size="10.00" fill="#000000">Text::getFontSize</text>
</g>
<!-- Node36 -->
<g id="node2" class="node">
<title>Node36</title>
<g id="a_node2"><a xlink:href="classText.html#a3bf5a064fd37d06b8d3dc5a700556897" target="_top" xlink:title="Draws a text string to the screen Draws a text string to the screen. This could either be a standalon...">
<polygon fill="none" stroke="#000000" points="136,-82.5 136,-101.5 266,-101.5 266,-82.5 136,-82.5"/>
<text text-anchor="middle" x="201" y="-89.5" font-family="Helvetica,sans-Serif" font-size="10.00" fill="#000000">Text::createTextTexture</text>
</a>
</g>
</g>
<!-- Node35&#45;&gt;Node36 -->
<g id="edge1" class="edge">
<title>Node35&#45;&gt;Node36</title>
<path fill="none" stroke="#191970" d="M100.2808,-92C108.4821,-92 117.1319,-92 125.7769,-92"/>
<polygon fill="#191970" stroke="#191970" points="125.896,-95.5001 135.8959,-92 125.8959,-88.5001 125.896,-95.5001"/>
</g>
<!-- Node37 -->
<g id="node3" class="node">
<title>Node37</title>
<g id="a_node3"><a xlink:href="namespacefs.html#a28e4c1324680c188092ecfe5fd8a91a3" target="_top" xlink:title="fs::getBasePath">
<polygon fill="none" stroke="#000000" points="312.5,-126.5 312.5,-145.5 404.5,-145.5 404.5,-126.5 312.5,-126.5"/>
<text text-anchor="middle" x="358.5" y="-133.5" font-family="Helvetica,sans-Serif" font-size="10.00" fill="#000000">fs::getBasePath</text>
</a>
</g>
</g>
<!-- Node36&#45;&gt;Node37 -->
<g id="edge2" class="edge">
<title>Node36&#45;&gt;Node37</title>
<path fill="none" stroke="#191970" d="M235.1752,-101.5473C258.4973,-108.0627 289.5968,-116.7508 314.7302,-123.7722"/>
<polygon fill="#191970" stroke="#191970" points="313.8186,-127.1515 324.3915,-126.4713 315.7021,-120.4097 313.8186,-127.1515"/>
</g>
<!-- Node38 -->
<g id="node4" class="node">
<title>Node38</title>
<g id="a_node4"><a xlink:href="classSingleton.html#af5cb1e5749949e2b68416cfb8d378044" target="_top" xlink:title="Get an instance of the singleton. ">
<polygon fill="none" stroke="#000000" points="302,-77 302,-107 415,-107 415,-77 302,-77"/>
<text text-anchor="start" x="310" y="-95" font-family="Helvetica,sans-Serif" font-size="10.00" fill="#000000">Singleton&lt; Settings</text>
<text text-anchor="middle" x="358.5" y="-84" font-family="Helvetica,sans-Serif" font-size="10.00" fill="#000000"> &gt;::instance</text>
</a>
</g>
</g>
<!-- Node36&#45;&gt;Node38 -->
<g id="edge3" class="edge">
<title>Node36&#45;&gt;Node38</title>
<path fill="none" stroke="#191970" d="M266.4259,-85.3366C274.7178,-85.2279 283.2128,-85.2215 291.5285,-85.3176"/>
<polygon fill="#191970" stroke="#191970" points="291.4999,-88.8175 301.5571,-85.4855 291.6172,-81.8185 291.4999,-88.8175"/>
</g>
<!-- Node36&#45;&gt;Node38 -->
<g id="edge6" class="edge">
<title>Node36&#45;&gt;Node38</title>
<path fill="none" stroke="#191970" d="M266.4259,-98.6634C274.7178,-98.7721 283.2128,-98.7785 291.5285,-98.6824"/>
<polygon fill="#191970" stroke="#191970" points="291.6172,-102.1815 301.5571,-98.5145 291.4999,-95.1825 291.6172,-102.1815"/>
</g>
<!-- Node39 -->
<g id="node5" class="node">
<title>Node39</title>
<g id="a_node5"><a xlink:href="structStrongType.html#acc66e6d6b9c95193a97a839560499933" target="_top" xlink:title="StrongType::get">
<polygon fill="none" stroke="#000000" points="312.5,-38.5 312.5,-57.5 404.5,-57.5 404.5,-38.5 312.5,-38.5"/>
<text text-anchor="middle" x="358.5" y="-45.5" font-family="Helvetica,sans-Serif" font-size="10.00" fill="#000000">StrongType::get</text>
</a>
</g>
</g>
<!-- Node36&#45;&gt;Node39 -->
<g id="edge4" class="edge">
<title>Node36&#45;&gt;Node39</title>
<path fill="none" stroke="#191970" d="M235.1752,-82.4527C258.4973,-75.9373 289.5968,-67.2492 314.7302,-60.2278"/>
<polygon fill="#191970" stroke="#191970" points="315.7021,-63.5903 324.3915,-57.5287 313.8186,-56.8485 315.7021,-63.5903"/>
</g>
<!-- Node40 -->
<g id="node6" class="node">
<title>Node40</title>
<g id="a_node6"><a xlink:href="namespacefs.html#a000d1f9ae14d782b6193298e6d27023f" target="_top" xlink:title="fs::fileExists">
<polygon fill="none" stroke="#000000" points="320.5,-.5 320.5,-19.5 396.5,-19.5 396.5,-.5 320.5,-.5"/>
<text text-anchor="middle" x="358.5" y="-7.5" font-family="Helvetica,sans-Serif" font-size="10.00" fill="#000000">fs::fileExists</text>
</a>
</g>
</g>
<!-- Node36&#45;&gt;Node40 -->
<g id="edge5" class="edge">
<title>Node36&#45;&gt;Node40</title>
<path fill="none" stroke="#191970" d="M214.1506,-82.3918C232.8994,-69.0274 268.7344,-44.7037 302,-29 306.4453,-26.9015 311.1861,-24.9276 315.9597,-23.1044"/>
<polygon fill="#191970" stroke="#191970" points="317.5023,-26.2687 325.7202,-19.5818 315.1259,-19.6844 317.5023,-26.2687"/>
</g>
</g>
</svg>
