<?xml version="1.0" encoding="UTF-8" standalone="no"?>
<!DOCTYPE svg PUBLIC "-//W3C//DTD SVG 1.1//EN"
 "http://www.w3.org/Graphics/SVG/1.1/DTD/svg11.dtd">
<!-- Generated by graphviz version 2.40.1 (20161225.0304)
 -->
<!-- Title: src/model/DataModel.hxx Pages: 1 -->
<svg width="855pt" height="420pt"
 viewBox="0.00 0.00 854.50 420.00" xmlns="http://www.w3.org/2000/svg" xmlns:xlink="http://www.w3.org/1999/xlink">
<g id="graph0" class="graph" transform="scale(1 1) rotate(0) translate(4 416)">
<title>src/model/DataModel.hxx</title>
<!-- Node0 -->
<g id="node1" class="node">
<title>Node0</title>
<polygon fill="#bfbfbf" stroke="#000000" points="81.5,-392.5 81.5,-411.5 222.5,-411.5 222.5,-392.5 81.5,-392.5"/>
<text text-anchor="middle" x="152" y="-399.5" font-family="Helvetica,sans-Serif" font-size="10.00" fill="#000000">src/model/DataModel.hxx</text>
</g>
<!-- Node1 -->
<g id="node2" class="node">
<title>Node1</title>
<g id="a_node2"><a xlink:href="iModel_8hxx.html" target="_top" xlink:title="iModel.hxx">
<polygon fill="none" stroke="#000000" points="0,-280.5 0,-299.5 70,-299.5 70,-280.5 0,-280.5"/>
<text text-anchor="middle" x="35" y="-287.5" font-family="Helvetica,sans-Serif" font-size="10.00" fill="#000000">iModel.hxx</text>
</a>
</g>
</g>
<!-- Node0&#45;&gt;Node1 -->
<g id="edge1" class="edge">
<title>Node0&#45;&gt;Node1</title>
<path fill="none" stroke="#191970" d="M134.6237,-392.4745C120.1368,-384.0345 99.4456,-370.7824 84,-356 69.0891,-341.7294 55.387,-322.5184 46.2868,-308.5037"/>
<polygon fill="#191970" stroke="#191970" points="49.0619,-306.343 40.7636,-299.7559 43.1429,-310.0802 49.0619,-306.343"/>
</g>
<!-- Node3 -->
<g id="node4" class="node">
<title>Node3</title>
<g id="a_node4"><a xlink:href="Observer_8hxx.html" target="_top" xlink:title="../util/Observer.hxx">
<polygon fill="none" stroke="#000000" points="126.5,-112.5 126.5,-131.5 235.5,-131.5 235.5,-112.5 126.5,-112.5"/>
<text text-anchor="middle" x="181" y="-119.5" font-family="Helvetica,sans-Serif" font-size="10.00" fill="#000000">../util/Observer.hxx</text>
</a>
</g>
</g>
<!-- Node0&#45;&gt;Node3 -->
<g id="edge3" class="edge">
<title>Node0&#45;&gt;Node3</title>
<path fill="none" stroke="#191970" d="M143.377,-392.4205C135.7728,-383.5373 124.863,-369.667 118,-356 104.2454,-328.609 98,-320.6506 98,-290 98,-290 98,-290 98,-234 98,-193.0829 134.2004,-157.3617 158.7865,-137.8195"/>
<polygon fill="#191970" stroke="#191970" points="161.1025,-140.4545 166.9202,-131.5999 156.8504,-134.8939 161.1025,-140.4545"/>
</g>
<!-- Node10 -->
<g id="node11" class="node">
<title>Node10</title>
<g id="a_node11"><a xlink:href="MessageQueue_8hxx.html" target="_top" xlink:title="../engine/MessageQueue.hxx">
<polygon fill="none" stroke="#000000" points="359.5,-280.5 359.5,-299.5 516.5,-299.5 516.5,-280.5 359.5,-280.5"/>
<text text-anchor="middle" x="438" y="-287.5" font-family="Helvetica,sans-Serif" font-size="10.00" fill="#000000">../engine/MessageQueue.hxx</text>
</a>
</g>
</g>
<!-- Node0&#45;&gt;Node10 -->
<g id="edge11" class="edge">
<title>Node0&#45;&gt;Node10</title>
<path fill="none" stroke="#191970" d="M186.4231,-392.4573C216.0823,-383.9098 259.8557,-370.5136 297,-356 337.3099,-340.2494 382.3558,-318.3817 410.4434,-304.2109"/>
<polygon fill="#191970" stroke="#191970" points="412.3045,-307.1912 419.6355,-299.5422 409.1346,-300.9501 412.3045,-307.1912"/>
</g>
<!-- Node21 -->
<g id="node22" class="node">
<title>Node21</title>
<g id="a_node22"><a xlink:href="UIMQDispatcher_8hxx.html" target="_top" xlink:title="../engine/UIMQDispatcher.hxx">
<polygon fill="none" stroke="#000000" points="126.5,-336.5 126.5,-355.5 287.5,-355.5 287.5,-336.5 126.5,-336.5"/>
<text text-anchor="middle" x="207" y="-343.5" font-family="Helvetica,sans-Serif" font-size="10.00" fill="#000000">../engine/UIMQDispatcher.hxx</text>
</a>
</g>
</g>
<!-- Node0&#45;&gt;Node21 -->
<g id="edge26" class="edge">
<title>Node0&#45;&gt;Node21</title>
<path fill="none" stroke="#191970" d="M161.5803,-392.2455C169.5458,-384.1352 181.0641,-372.4075 190.5079,-362.7919"/>
<polygon fill="#191970" stroke="#191970" points="193.0195,-365.2297 197.5295,-355.6427 188.0253,-360.3247 193.0195,-365.2297"/>
</g>
<!-- Node2 -->
<g id="node3" class="node">
<title>Node2</title>
<polygon fill="none" stroke="#bfbfbf" points="101,-56.5 101,-75.5 159,-75.5 159,-56.5 101,-56.5"/>
<text text-anchor="middle" x="130" y="-63.5" font-family="Helvetica,sans-Serif" font-size="10.00" fill="#000000">memory</text>
</g>
<!-- Node1&#45;&gt;Node2 -->
<g id="edge2" class="edge">
<title>Node1&#45;&gt;Node2</title>
<path fill="none" stroke="#191970" d="M38.6779,-280.4531C46.6606,-259.8206 66.2845,-209.5768 84,-168 96.5072,-138.6466 111.9011,-104.971 121.3289,-84.6029"/>
<polygon fill="#191970" stroke="#191970" points="124.5168,-86.0479 125.5538,-75.5039 118.1679,-83.0998 124.5168,-86.0479"/>
</g>
<!-- Node3&#45;&gt;Node2 -->
<g id="edge5" class="edge">
<title>Node3&#45;&gt;Node2</title>
<path fill="none" stroke="#191970" d="M172.1165,-112.2455C164.8034,-104.2155 154.2609,-92.6394 145.5533,-83.0781"/>
<polygon fill="#191970" stroke="#191970" points="148.1028,-80.6795 138.7817,-75.6427 142.9273,-85.3928 148.1028,-80.6795"/>
</g>
<!-- Node4 -->
<g id="node5" class="node">
<title>Node4</title>
<polygon fill="none" stroke="#bfbfbf" points="436.5,-56.5 436.5,-75.5 483.5,-75.5 483.5,-56.5 436.5,-56.5"/>
<text text-anchor="middle" x="460" y="-63.5" font-family="Helvetica,sans-Serif" font-size="10.00" fill="#000000">vector</text>
</g>
<!-- Node3&#45;&gt;Node4 -->
<g id="edge4" class="edge">
<title>Node3&#45;&gt;Node4</title>
<path fill="none" stroke="#191970" d="M228.6448,-112.4369C285.0216,-101.1211 377.4291,-82.5734 426.6659,-72.6907"/>
<polygon fill="#191970" stroke="#191970" points="427.373,-76.1187 436.4887,-70.7191 425.9954,-69.2556 427.373,-76.1187"/>
</g>
<!-- Node5 -->
<g id="node6" class="node">
<title>Node5</title>
<g id="a_node6"><a xlink:href="Meta_8hxx.html" target="_top" xlink:title="Meta.hxx">
<polygon fill="none" stroke="#000000" points="200,-56.5 200,-75.5 262,-75.5 262,-56.5 200,-56.5"/>
<text text-anchor="middle" x="231" y="-63.5" font-family="Helvetica,sans-Serif" font-size="10.00" fill="#000000">Meta.hxx</text>
</a>
</g>
</g>
<!-- Node3&#45;&gt;Node5 -->
<g id="edge6" class="edge">
<title>Node3&#45;&gt;Node5</title>
<path fill="none" stroke="#191970" d="M189.7093,-112.2455C196.8073,-104.2958 207.0084,-92.8706 215.495,-83.3656"/>
<polygon fill="#191970" stroke="#191970" points="218.3411,-85.4331 222.3905,-75.6427 213.1195,-80.771 218.3411,-85.4331"/>
</g>
<!-- Node6 -->
<g id="node7" class="node">
<title>Node6</title>
<polygon fill="none" stroke="#bfbfbf" points="79,-.5 79,-19.5 139,-19.5 139,-.5 79,-.5"/>
<text text-anchor="middle" x="109" y="-7.5" font-family="Helvetica,sans-Serif" font-size="10.00" fill="#000000">iostream</text>
</g>
<!-- Node5&#45;&gt;Node6 -->
<g id="edge7" class="edge">
<title>Node5&#45;&gt;Node6</title>
<path fill="none" stroke="#191970" d="M210.0275,-56.3733C190.4433,-47.3838 161.0039,-33.8706 138.949,-23.7471"/>
<polygon fill="#191970" stroke="#191970" points="140.2473,-20.4919 129.6989,-19.5011 137.3271,-26.8538 140.2473,-20.4919"/>
</g>
<!-- Node7 -->
<g id="node8" class="node">
<title>Node7</title>
<polygon fill="none" stroke="#bfbfbf" points="157.5,-.5 157.5,-19.5 226.5,-19.5 226.5,-.5 157.5,-.5"/>
<text text-anchor="middle" x="192" y="-7.5" font-family="Helvetica,sans-Serif" font-size="10.00" fill="#000000">type_traits</text>
</g>
<!-- Node5&#45;&gt;Node7 -->
<g id="edge8" class="edge">
<title>Node5&#45;&gt;Node7</title>
<path fill="none" stroke="#191970" d="M224.2067,-56.2455C218.7822,-48.4564 211.0339,-37.3308 204.4967,-27.9439"/>
<polygon fill="#191970" stroke="#191970" points="207.3025,-25.8485 198.7154,-19.6427 201.5583,-29.849 207.3025,-25.8485"/>
</g>
<!-- Node8 -->
<g id="node9" class="node">
<title>Node8</title>
<polygon fill="none" stroke="#bfbfbf" points="244.5,-.5 244.5,-19.5 295.5,-19.5 295.5,-.5 244.5,-.5"/>
<text text-anchor="middle" x="270" y="-7.5" font-family="Helvetica,sans-Serif" font-size="10.00" fill="#000000">variant</text>
</g>
<!-- Node5&#45;&gt;Node8 -->
<g id="edge9" class="edge">
<title>Node5&#45;&gt;Node8</title>
<path fill="none" stroke="#191970" d="M237.7933,-56.2455C243.2178,-48.4564 250.9661,-37.3308 257.5033,-27.9439"/>
<polygon fill="#191970" stroke="#191970" points="260.4417,-29.849 263.2846,-19.6427 254.6975,-25.8485 260.4417,-29.849"/>
</g>
<!-- Node9 -->
<g id="node10" class="node">
<title>Node9</title>
<polygon fill="none" stroke="#bfbfbf" points="313.5,-.5 313.5,-19.5 354.5,-19.5 354.5,-.5 313.5,-.5"/>
<text text-anchor="middle" x="334" y="-7.5" font-family="Helvetica,sans-Serif" font-size="10.00" fill="#000000">tuple</text>
</g>
<!-- Node5&#45;&gt;Node9 -->
<g id="edge10" class="edge">
<title>Node5&#45;&gt;Node9</title>
<path fill="none" stroke="#191970" d="M248.9412,-56.2455C265.04,-47.4928 288.8879,-34.527 307.2391,-24.5496"/>
<polygon fill="#191970" stroke="#191970" points="309.1507,-27.4942 316.2644,-19.6427 305.8071,-21.3444 309.1507,-27.4942"/>
</g>
<!-- Node10&#45;&gt;Node4 -->
<g id="edge15" class="edge">
<title>Node10&#45;&gt;Node4</title>
<path fill="none" stroke="#191970" d="M473.9657,-280.454C492.3626,-273.5484 513.1215,-262.1556 524,-244 556.383,-189.9545 504.2822,-116.9419 476.1399,-83.7463"/>
<polygon fill="#191970" stroke="#191970" points="478.4575,-81.0786 469.2468,-75.8429 473.1821,-85.6797 478.4575,-81.0786"/>
</g>
<!-- Node11 -->
<g id="node12" class="node">
<title>Node11</title>
<polygon fill="none" stroke="#bfbfbf" points="739.5,-224.5 739.5,-243.5 846.5,-243.5 846.5,-224.5 739.5,-224.5"/>
<text text-anchor="middle" x="793" y="-231.5" font-family="Helvetica,sans-Serif" font-size="10.00" fill="#000000">condition_variable</text>
</g>
<!-- Node10&#45;&gt;Node11 -->
<g id="edge12" class="edge">
<title>Node10&#45;&gt;Node11</title>
<path fill="none" stroke="#191970" d="M499.1802,-280.4713C556.2055,-271.5723 643.9156,-257.8408 729.1261,-244.294"/>
<polygon fill="#191970" stroke="#191970" points="729.9078,-247.7138 739.2337,-242.6861 728.808,-240.8007 729.9078,-247.7138"/>
</g>
<!-- Node12 -->
<g id="node13" class="node">
<title>Node12</title>
<polygon fill="none" stroke="#bfbfbf" points="216,-224.5 216,-243.5 264,-243.5 264,-224.5 216,-224.5"/>
<text text-anchor="middle" x="240" y="-231.5" font-family="Helvetica,sans-Serif" font-size="10.00" fill="#000000">mutex</text>
</g>
<!-- Node10&#45;&gt;Node12 -->
<g id="edge13" class="edge">
<title>Node10&#45;&gt;Node12</title>
<path fill="none" stroke="#191970" d="M402.851,-280.4456C371.4275,-271.8495 323.8835,-258.7109 273.8361,-244.2021"/>
<polygon fill="#191970" stroke="#191970" points="274.7116,-240.8118 264.132,-241.3806 272.7572,-247.5334 274.7116,-240.8118"/>
</g>
<!-- Node13 -->
<g id="node14" class="node">
<title>Node13</title>
<polygon fill="none" stroke="#bfbfbf" points="380.5,-224.5 380.5,-243.5 427.5,-243.5 427.5,-224.5 380.5,-224.5"/>
<text text-anchor="middle" x="404" y="-231.5" font-family="Helvetica,sans-Serif" font-size="10.00" fill="#000000">deque</text>
</g>
<!-- Node10&#45;&gt;Node13 -->
<g id="edge14" class="edge">
<title>Node10&#45;&gt;Node13</title>
<path fill="none" stroke="#191970" d="M432.0777,-280.2455C427.3973,-272.5367 420.7327,-261.5598 415.0711,-252.2348"/>
<polygon fill="#191970" stroke="#191970" points="418.0361,-250.3741 409.8545,-243.6427 412.0525,-254.007 418.0361,-250.3741"/>
</g>
<!-- Node14 -->
<g id="node15" class="node">
<title>Node14</title>
<polygon fill="none" stroke="#bfbfbf" points="325.5,-112.5 325.5,-131.5 390.5,-131.5 390.5,-112.5 325.5,-112.5"/>
<text text-anchor="middle" x="358" y="-119.5" font-family="Helvetica,sans-Serif" font-size="10.00" fill="#000000">functional</text>
</g>
<!-- Node10&#45;&gt;Node14 -->
<g id="edge16" class="edge">
<title>Node10&#45;&gt;Node14</title>
<path fill="none" stroke="#191970" d="M464.601,-280.397C480.5873,-273.0839 499.5998,-261.291 509,-244 513.2456,-236.1906 511.6107,-232.4969 509,-224 500.1659,-195.2485 494.3766,-186.9268 471,-168 450.4221,-151.3392 422.998,-139.9814 400.3198,-132.7201"/>
<polygon fill="#191970" stroke="#191970" points="401.1872,-129.3256 390.6013,-129.7617 399.1486,-136.0222 401.1872,-129.3256"/>
</g>
<!-- Node15 -->
<g id="node16" class="node">
<title>Node15</title>
<polygon fill="none" stroke="#bfbfbf" points="446,-224.5 446,-243.5 500,-243.5 500,-224.5 446,-224.5"/>
<text text-anchor="middle" x="473" y="-231.5" font-family="Helvetica,sans-Serif" font-size="10.00" fill="#000000">ciso646</text>
</g>
<!-- Node10&#45;&gt;Node15 -->
<g id="edge17" class="edge">
<title>Node10&#45;&gt;Node15</title>
<path fill="none" stroke="#191970" d="M444.0965,-280.2455C448.9145,-272.5367 455.7751,-261.5598 461.6032,-252.2348"/>
<polygon fill="#191970" stroke="#191970" points="464.6413,-253.9777 466.9733,-243.6427 458.7053,-250.2677 464.6413,-253.9777"/>
</g>
<!-- Node16 -->
<g id="node17" class="node">
<title>Node16</title>
<g id="a_node17"><a xlink:href="Events_8hxx.html" target="_top" xlink:title="../Events.hxx">
<polygon fill="none" stroke="#000000" points="282,-224.5 282,-243.5 362,-243.5 362,-224.5 282,-224.5"/>
<text text-anchor="middle" x="322" y="-231.5" font-family="Helvetica,sans-Serif" font-size="10.00" fill="#000000">../Events.hxx</text>
</a>
</g>
</g>
<!-- Node10&#45;&gt;Node16 -->
<g id="edge18" class="edge">
<title>Node10&#45;&gt;Node16</title>
<path fill="none" stroke="#191970" d="M418.0589,-280.3733C399.5214,-271.4241 371.6972,-257.9917 350.7587,-247.8835"/>
<polygon fill="#191970" stroke="#191970" points="352.2081,-244.6967 341.6809,-243.5011 349.1648,-251.0006 352.2081,-244.6967"/>
</g>
<!-- Node20 -->
<g id="node21" class="node">
<title>Node20</title>
<g id="a_node21"><a xlink:href="MessageQueue_8inl_8hxx.html" target="_top" xlink:title="MessageQueue.inl.hxx">
<polygon fill="none" stroke="#000000" points="594.5,-224.5 594.5,-243.5 721.5,-243.5 721.5,-224.5 594.5,-224.5"/>
<text text-anchor="middle" x="658" y="-231.5" font-family="Helvetica,sans-Serif" font-size="10.00" fill="#000000">MessageQueue.inl.hxx</text>
</a>
</g>
</g>
<!-- Node10&#45;&gt;Node20 -->
<g id="edge25" class="edge">
<title>Node10&#45;&gt;Node20</title>
<path fill="none" stroke="#191970" d="M475.8193,-280.3733C513.1938,-270.8598 570.4724,-256.2797 610.8071,-246.0127"/>
<polygon fill="#191970" stroke="#191970" points="611.8466,-249.3598 620.6742,-243.5011 610.1198,-242.5761 611.8466,-249.3598"/>
</g>
<!-- Node16&#45;&gt;Node5 -->
<g id="edge21" class="edge">
<title>Node16&#45;&gt;Node5</title>
<path fill="none" stroke="#191970" d="M361.0715,-224.4843C402.9266,-213.8993 464.2892,-197.0951 471,-188 476.2775,-180.8474 474.8782,-175.9982 471,-168 453.4653,-131.8373 435.89,-130.0863 400,-112 358.9732,-91.3251 307.5081,-79.0317 272.2157,-72.4279"/>
<polygon fill="#191970" stroke="#191970" points="272.7246,-68.9633 262.2627,-70.636 271.4843,-75.8525 272.7246,-68.9633"/>
</g>
<!-- Node17 -->
<g id="node18" class="node">
<title>Node17</title>
<polygon fill="none" stroke="#bfbfbf" points="300,-168.5 300,-187.5 344,-187.5 344,-168.5 300,-168.5"/>
<text text-anchor="middle" x="322" y="-175.5" font-family="Helvetica,sans-Serif" font-size="10.00" fill="#000000">string</text>
</g>
<!-- Node16&#45;&gt;Node17 -->
<g id="edge19" class="edge">
<title>Node16&#45;&gt;Node17</title>
<path fill="none" stroke="#191970" d="M322,-224.2455C322,-216.9382 322,-206.6944 322,-197.7046"/>
<polygon fill="#191970" stroke="#191970" points="325.5001,-197.6426 322,-187.6427 318.5001,-197.6427 325.5001,-197.6426"/>
</g>
<!-- Node18 -->
<g id="node19" class="node">
<title>Node18</title>
<polygon fill="none" stroke="#bfbfbf" points="362,-168.5 362,-187.5 462,-187.5 462,-168.5 362,-168.5"/>
<text text-anchor="middle" x="412" y="-175.5" font-family="Helvetica,sans-Serif" font-size="10.00" fill="#000000">betterEnums.hxx</text>
</g>
<!-- Node16&#45;&gt;Node18 -->
<g id="edge20" class="edge">
<title>Node16&#45;&gt;Node18</title>
<path fill="none" stroke="#191970" d="M337.6768,-224.2455C351.4856,-215.6534 371.8193,-203.0014 387.7292,-193.1018"/>
<polygon fill="#191970" stroke="#191970" points="389.8613,-195.8974 396.5028,-187.6427 386.1632,-189.954 389.8613,-195.8974"/>
</g>
<!-- Node19 -->
<g id="node20" class="node">
<title>Node19</title>
<g id="a_node20"><a xlink:href="UIEvents_8hxx.html" target="_top" xlink:title="events/UIEvents.hxx">
<polygon fill="none" stroke="#000000" points="164.5,-168.5 164.5,-187.5 281.5,-187.5 281.5,-168.5 164.5,-168.5"/>
<text text-anchor="middle" x="223" y="-175.5" font-family="Helvetica,sans-Serif" font-size="10.00" fill="#000000">events/UIEvents.hxx</text>
</a>
</g>
</g>
<!-- Node16&#45;&gt;Node19 -->
<g id="edge22" class="edge">
<title>Node16&#45;&gt;Node19</title>
<path fill="none" stroke="#191970" d="M304.7555,-224.2455C289.4239,-215.5731 266.7801,-202.7645 249.2084,-192.825"/>
<polygon fill="#191970" stroke="#191970" points="250.4741,-189.5198 240.0469,-187.6427 247.0276,-195.6126 250.4741,-189.5198"/>
</g>
<!-- Node19&#45;&gt;Node3 -->
<g id="edge24" class="edge">
<title>Node19&#45;&gt;Node3</title>
<path fill="none" stroke="#191970" d="M215.6842,-168.2455C209.7821,-160.3761 201.3258,-149.101 194.2406,-139.6542"/>
<polygon fill="#191970" stroke="#191970" points="197.0321,-137.5427 188.232,-131.6427 191.432,-141.7427 197.0321,-137.5427"/>
</g>
<!-- Node19&#45;&gt;Node14 -->
<g id="edge23" class="edge">
<title>Node19&#45;&gt;Node14</title>
<path fill="none" stroke="#191970" d="M246.2073,-168.3733C268.1699,-159.2629 301.3332,-145.5062 325.8401,-135.3404"/>
<polygon fill="#191970" stroke="#191970" points="327.1997,-138.5657 335.0955,-131.5011 324.5176,-132.0999 327.1997,-138.5657"/>
</g>
<!-- Node21&#45;&gt;Node3 -->
<g id="edge27" class="edge">
<title>Node21&#45;&gt;Node3</title>
<path fill="none" stroke="#191970" d="M202.6738,-336.2811C192.0996,-311.9291 165.1424,-246.0862 156,-188 154.618,-179.2192 153.8102,-176.6149 156,-168 158.4785,-158.2493 163.4873,-148.3309 168.3751,-140.2128"/>
<polygon fill="#191970" stroke="#191970" points="171.4313,-141.9312 173.8985,-131.6276 165.5444,-138.1437 171.4313,-141.9312"/>
</g>
<!-- Node21&#45;&gt;Node10 -->
<g id="edge28" class="edge">
<title>Node21&#45;&gt;Node10</title>
<path fill="none" stroke="#191970" d="M246.4478,-336.4369C285.8156,-326.8932 346.4034,-312.2052 388.8708,-301.9101"/>
<polygon fill="#191970" stroke="#191970" points="389.821,-305.2812 398.7149,-299.5237 388.1717,-298.4783 389.821,-305.2812"/>
</g>
</g>
</svg>
