<?xml version="1.0" encoding="UTF-8" standalone="no"?>
<!DOCTYPE svg PUBLIC "-//W3C//DTD SVG 1.1//EN"
 "http://www.w3.org/Graphics/SVG/1.1/DTD/svg11.dtd">
<!-- Generated by graphviz version 2.40.1 (20161225.0304)
 -->
<!-- Title: src/util/desktop/Filesystem.cxx Pages: 1 -->
<!--zoomable 420 -->
<svg id="main" version="1.1" xmlns="http://www.w3.org/2000/svg" xmlns:xlink="http://www.w3.org/1999/xlink" xml:space="preserve" onload="init(evt)">
<style type="text/css"><![CDATA[
.edge:hover path { stroke: red; }
.edge:hover polygon { stroke: red; fill: red; }
]]></style>
<script type="text/javascript"><![CDATA[
var edges = document.getElementsByTagName('g');
if (edges && edges.length) {
  for (var i=0;i<edges.length;i++) {
    if (edges[i].id.substr(0,4)=='edge') {
      edges[i].setAttribute('class','edge');
    }
  }
}
]]></script>
        <defs>
                <circle id="rim" cx="0" cy="0" r="7"/>
                <circle id="rim2" cx="0" cy="0" r="3.5"/>
                <g id="zoomPlus">
                        <use xlink:href="#rim" fill="#404040">
                                <set attributeName="fill" to="#808080" begin="zoomplus.mouseover" end="zoomplus.mouseout"/>
                        </use>
                        <path d="M-4,0h8M0,-4v8" fill="none" stroke="white" stroke-width="1.5" pointer-events="none"/>
                </g>
                <g id="zoomMin">
                        <use xlink:href="#rim" fill="#404040">
                                <set attributeName="fill" to="#808080" begin="zoomminus.mouseover" end="zoomminus.mouseout"/>
                        </use>
                        <path d="M-4,0h8" fill="none" stroke="white" stroke-width="1.5" pointer-events="none"/>
                </g>
                <g id="dirArrow">
                        <path fill="none" stroke="white" stroke-width="1.5" d="M0,-3.0v7 M-2.5,-0.5L0,-3.0L2.5,-0.5"/>
                </g>
               <g id="resetDef">
                       <use xlink:href="#rim2" fill="#404040">
                               <set attributeName="fill" to="#808080" begin="reset.mouseover" end="reset.mouseout"/>
                       </use>
               </g>
        </defs>

<script type="text/javascript">
var viewWidth = 1246;
var viewHeight = 420;
var sectionId = 'dynsection-0';
</script>
<script xlink:href="svgpan.js"/>
<svg id="graph" class="graph">
<g id="viewport">
<title>src/util/desktop/Filesystem.cxx</title>
<!-- Node0 -->
<g id="node1" class="node">
<title>Node0</title>
<polygon fill="#bfbfbf" stroke="#000000" points="712.5,-392.5 712.5,-411.5 879.5,-411.5 879.5,-392.5 712.5,-392.5"/>
<text text-anchor="middle" x="796" y="-399.5" font-family="Helvetica,sans-Serif" font-size="10.00" fill="#000000">src/util/desktop/Filesystem.cxx</text>
</g>
<!-- Node1 -->
<g id="node2" class="node">
<title>Node1</title>
<g id="a_node2"><a xlink:href="Filesystem_8hxx.html" target="_top" xlink:title="Filesystem.hxx">
<polygon fill="none" stroke="#000000" points="289,-336.5 289,-355.5 379,-355.5 379,-336.5 289,-336.5"/>
<text text-anchor="middle" x="334" y="-343.5" font-family="Helvetica,sans-Serif" font-size="10.00" fill="#000000">Filesystem.hxx</text>
</a>
</g>
</g>
<!-- Node0&#45;&gt;Node1 -->
<g id="edge1" class="edge">
<title>Node0&#45;&gt;Node1</title>
<path fill="none" stroke="#191970" d="M717.3663,-392.4686C623.9939,-381.1508 470.669,-362.5659 389.0886,-352.6774"/>
<polygon fill="#191970" stroke="#191970" points="389.3737,-349.1864 379.0251,-351.4576 388.5313,-356.1356 389.3737,-349.1864"/>
</g>
<!-- Node12 -->
<g id="node13" class="node">
<title>Node12</title>
<g id="a_node13"><a xlink:href="LOG_8hxx.html" target="_top" xlink:title="LOG.hxx">
<polygon fill="none" stroke="#000000" points="541,-112.5 541,-131.5 599,-131.5 599,-112.5 541,-112.5"/>
<text text-anchor="middle" x="570" y="-119.5" font-family="Helvetica,sans-Serif" font-size="10.00" fill="#000000">LOG.hxx</text>
</a>
</g>
</g>
<!-- Node0&#45;&gt;Node12 -->
<g id="edge45" class="edge">
<title>Node0&#45;&gt;Node12</title>
<path fill="none" stroke="#191970" d="M790.393,-392.4834C779.8226,-373.6141 758,-329.8343 758,-290 758,-290 758,-290 758,-234 758,-165.4721 664.668,-137.9103 609.5255,-127.6064"/>
<polygon fill="#191970" stroke="#191970" points="609.8298,-124.1064 599.375,-125.8229 608.6184,-131.0007 609.8298,-124.1064"/>
</g>
<!-- Node18 -->
<g id="node19" class="node">
<title>Node18</title>
<polygon fill="none" stroke="#bfbfbf" points="768.5,-56.5 768.5,-75.5 823.5,-75.5 823.5,-56.5 768.5,-56.5"/>
<text text-anchor="middle" x="796" y="-63.5" font-family="Helvetica,sans-Serif" font-size="10.00" fill="#000000">fstream</text>
</g>
<!-- Node0&#45;&gt;Node18 -->
<g id="edge46" class="edge">
<title>Node0&#45;&gt;Node18</title>
<path fill="none" stroke="#191970" d="M796,-392.4116C796,-373.0538 796,-327.9167 796,-290 796,-290 796,-290 796,-178 796,-145.7116 796,-108.1872 796,-85.8048"/>
<polygon fill="#191970" stroke="#191970" points="799.5001,-85.5883 796,-75.5884 792.5001,-85.5884 799.5001,-85.5883"/>
</g>
<!-- Node20 -->
<g id="node21" class="node">
<title>Node20</title>
<polygon fill="none" stroke="#bfbfbf" points="842,-56.5 842,-75.5 886,-75.5 886,-56.5 842,-56.5"/>
<text text-anchor="middle" x="864" y="-63.5" font-family="Helvetica,sans-Serif" font-size="10.00" fill="#000000">SDL.h</text>
</g>
<!-- Node0&#45;&gt;Node20 -->
<g id="edge47" class="edge">
<title>Node0&#45;&gt;Node20</title>
<path fill="none" stroke="#191970" d="M801.607,-392.4834C812.1774,-373.6141 834,-329.8343 834,-290 834,-290 834,-290 834,-178 834,-144.4397 846.7236,-107.0899 855.5984,-85.12"/>
<polygon fill="#191970" stroke="#191970" points="858.9286,-86.2294 859.5734,-75.6542 852.4745,-83.5191 858.9286,-86.2294"/>
</g>
<!-- Node32 -->
<g id="node33" class="node">
<title>Node32</title>
<g id="a_node33"><a xlink:href="Settings_8hxx.html" target="_top" xlink:title="Settings.hxx">
<polygon fill="none" stroke="#000000" points="967.5,-112.5 967.5,-131.5 1044.5,-131.5 1044.5,-112.5 967.5,-112.5"/>
<text text-anchor="middle" x="1006" y="-119.5" font-family="Helvetica,sans-Serif" font-size="10.00" fill="#000000">Settings.hxx</text>
</a>
</g>
</g>
<!-- Node0&#45;&gt;Node32 -->
<g id="edge40" class="edge">
<title>Node0&#45;&gt;Node32</title>
<path fill="none" stroke="#191970" d="M828.8071,-392.408C871.0256,-377.808 939,-345.6587 939,-290 939,-290 939,-290 939,-234 939,-195.7946 968.0669,-159.3286 987.9102,-138.8854"/>
<polygon fill="#191970" stroke="#191970" points="990.597,-141.1503 995.2353,-131.6248 985.6691,-136.1788 990.597,-141.1503"/>
</g>
<!-- Node2 -->
<g id="node3" class="node">
<title>Node2</title>
<polygon fill="none" stroke="#bfbfbf" points="165,-280.5 165,-299.5 219,-299.5 219,-280.5 165,-280.5"/>
<text text-anchor="middle" x="192" y="-287.5" font-family="Helvetica,sans-Serif" font-size="10.00" fill="#000000">ciso646</text>
</g>
<!-- Node1&#45;&gt;Node2 -->
<g id="edge2" class="edge">
<title>Node1&#45;&gt;Node2</title>
<path fill="none" stroke="#191970" d="M309.5893,-336.3733C286.3858,-327.2226 251.2962,-313.3844 225.4858,-303.2057"/>
<polygon fill="#191970" stroke="#191970" points="226.6789,-299.9139 216.0921,-299.5011 224.1108,-306.4258 226.6789,-299.9139"/>
</g>
<!-- Node3 -->
<g id="node4" class="node">
<title>Node3</title>
<polygon fill="none" stroke="#bfbfbf" points="984,-56.5 984,-75.5 1028,-75.5 1028,-56.5 984,-56.5"/>
<text text-anchor="middle" x="1006" y="-63.5" font-family="Helvetica,sans-Serif" font-size="10.00" fill="#000000">string</text>
</g>
<!-- Node1&#45;&gt;Node3 -->
<g id="edge3" class="edge">
<title>Node1&#45;&gt;Node3</title>
<path fill="none" stroke="#191970" d="M358.0278,-336.4254C402.9097,-318.5074 502.4972,-278.5914 586,-244 731.3992,-183.7679 904.1523,-109.7857 974.1729,-79.6973"/>
<polygon fill="#191970" stroke="#191970" points="975.938,-82.7482 983.7428,-75.5834 973.1735,-76.3173 975.938,-82.7482"/>
</g>
<!-- Node4 -->
<g id="node5" class="node">
<title>Node4</title>
<polygon fill="none" stroke="#bfbfbf" points="39.5,-224.5 39.5,-243.5 86.5,-243.5 86.5,-224.5 39.5,-224.5"/>
<text text-anchor="middle" x="63" y="-231.5" font-family="Helvetica,sans-Serif" font-size="10.00" fill="#000000">vector</text>
</g>
<!-- Node1&#45;&gt;Node4 -->
<g id="edge4" class="edge">
<title>Node1&#45;&gt;Node4</title>
<path fill="none" stroke="#191970" d="M319.8767,-336.4881C295.604,-320.2638 246.7754,-288.1956 228,-280 175.0989,-256.9083 156.3458,-260.3726 96.7042,-244.081"/>
<polygon fill="#191970" stroke="#191970" points="97.3435,-240.6251 86.7695,-241.2896 95.4499,-247.3642 97.3435,-240.6251"/>
</g>
<!-- Node5 -->
<g id="node6" class="node">
<title>Node5</title>
<g id="a_node6"><a xlink:href="PixelBuffer_8hxx.html" target="_top" xlink:title="../util/PixelBuffer.hxx">
<polygon fill="none" stroke="#000000" points="275,-280.5 275,-299.5 393,-299.5 393,-280.5 275,-280.5"/>
<text text-anchor="middle" x="334" y="-287.5" font-family="Helvetica,sans-Serif" font-size="10.00" fill="#000000">../util/PixelBuffer.hxx</text>
</a>
</g>
</g>
<!-- Node1&#45;&gt;Node5 -->
<g id="edge5" class="edge">
<title>Node1&#45;&gt;Node5</title>
<path fill="none" stroke="#191970" d="M334,-336.2455C334,-328.9382 334,-318.6944 334,-309.7046"/>
<polygon fill="#191970" stroke="#191970" points="337.5001,-309.6426 334,-299.6427 330.5001,-309.6427 337.5001,-309.6426"/>
</g>
<!-- Node5&#45;&gt;Node4 -->
<g id="edge6" class="edge">
<title>Node5&#45;&gt;Node4</title>
<path fill="none" stroke="#191970" d="M275.4355,-280.4194C229.3029,-272.4767 163.214,-260.227 96.5494,-243.9379"/>
<polygon fill="#191970" stroke="#191970" points="97.2596,-240.5082 86.7118,-241.5053 95.5792,-247.3035 97.2596,-240.5082"/>
</g>
<!-- Node6 -->
<g id="node7" class="node">
<title>Node6</title>
<g id="a_node7"><a xlink:href="Rectangle_8hxx.html" target="_top" xlink:title="../util/Rectangle.hxx">
<polygon fill="none" stroke="#000000" points="213.5,-224.5 213.5,-243.5 326.5,-243.5 326.5,-224.5 213.5,-224.5"/>
<text text-anchor="middle" x="270" y="-231.5" font-family="Helvetica,sans-Serif" font-size="10.00" fill="#000000">../util/Rectangle.hxx</text>
</a>
</g>
</g>
<!-- Node5&#45;&gt;Node6 -->
<g id="edge7" class="edge">
<title>Node5&#45;&gt;Node6</title>
<path fill="none" stroke="#191970" d="M322.8521,-280.2455C313.4913,-272.0549 299.9142,-260.1749 288.8651,-250.5069"/>
<polygon fill="#191970" stroke="#191970" points="290.8508,-247.5937 281.0202,-243.6427 286.2412,-252.8618 290.8508,-247.5937"/>
</g>
<!-- Node26 -->
<g id="node27" class="node">
<title>Node26</title>
<g id="a_node27"><a xlink:href="Range_8hxx.html" target="_top" xlink:title="../util/Range.hxx">
<polygon fill="none" stroke="#000000" points="481,-224.5 481,-243.5 577,-243.5 577,-224.5 481,-224.5"/>
<text text-anchor="middle" x="529" y="-231.5" font-family="Helvetica,sans-Serif" font-size="10.00" fill="#000000">../util/Range.hxx</text>
</a>
</g>
</g>
<!-- Node5&#45;&gt;Node26 -->
<g id="edge32" class="edge">
<title>Node5&#45;&gt;Node26</title>
<path fill="none" stroke="#191970" d="M367.5217,-280.3733C400.3683,-270.9404 450.5595,-256.5265 486.2578,-246.2747"/>
<polygon fill="#191970" stroke="#191970" points="487.2703,-249.6255 495.9157,-243.5011 485.3381,-242.8974 487.2703,-249.6255"/>
</g>
<!-- Node29 -->
<g id="node30" class="node">
<title>Node29</title>
<g id="a_node30"><a xlink:href="Color_8hxx.html" target="_top" xlink:title="../util/Color.hxx">
<polygon fill="none" stroke="#000000" points="105,-224.5 105,-243.5 195,-243.5 195,-224.5 105,-224.5"/>
<text text-anchor="middle" x="150" y="-231.5" font-family="Helvetica,sans-Serif" font-size="10.00" fill="#000000">../util/Color.hxx</text>
</a>
</g>
</g>
<!-- Node5&#45;&gt;Node29 -->
<g id="edge36" class="edge">
<title>Node5&#45;&gt;Node29</title>
<path fill="none" stroke="#191970" d="M302.3693,-280.3733C271.6404,-271.021 224.824,-256.7725 191.1978,-246.5385"/>
<polygon fill="#191970" stroke="#191970" points="191.8038,-243.0644 181.218,-243.5011 189.7656,-249.7612 191.8038,-243.0644"/>
</g>
<!-- Node31 -->
<g id="node32" class="node">
<title>Node31</title>
<g id="a_node32"><a xlink:href="PixelBuffer_8inl_8hxx.html" target="_top" xlink:title="PixelBuffer.inl.hxx">
<polygon fill="none" stroke="#000000" points="344.5,-224.5 344.5,-243.5 449.5,-243.5 449.5,-224.5 344.5,-224.5"/>
<text text-anchor="middle" x="397" y="-231.5" font-family="Helvetica,sans-Serif" font-size="10.00" fill="#000000">PixelBuffer.inl.hxx</text>
</a>
</g>
</g>
<!-- Node5&#45;&gt;Node31 -->
<g id="edge39" class="edge">
<title>Node5&#45;&gt;Node31</title>
<path fill="none" stroke="#191970" d="M344.9738,-280.2455C354.1882,-272.0549 367.5532,-260.1749 378.4297,-250.5069"/>
<polygon fill="#191970" stroke="#191970" points="381.0032,-252.9023 386.152,-243.6427 376.3526,-247.6704 381.0032,-252.9023"/>
</g>
<!-- Node7 -->
<g id="node8" class="node">
<title>Node7</title>
<polygon fill="none" stroke="#bfbfbf" points="687.5,-.5 687.5,-19.5 728.5,-19.5 728.5,-.5 687.5,-.5"/>
<text text-anchor="middle" x="708" y="-7.5" font-family="Helvetica,sans-Serif" font-size="10.00" fill="#000000">tuple</text>
</g>
<!-- Node6&#45;&gt;Node7 -->
<g id="edge8" class="edge">
<title>Node6&#45;&gt;Node7</title>
<path fill="none" stroke="#191970" d="M268.4963,-224.112C266.1736,-210.7571 260.9091,-186.4989 251,-168 222.3575,-114.5284 131.6602,-100.3917 173,-56 209.7271,-16.5615 588.9277,-29.7254 677.3076,-19.2018"/>
<polygon fill="#191970" stroke="#191970" points="677.8507,-22.6595 687.1998,-17.6749 676.7829,-15.7414 677.8507,-22.6595"/>
</g>
<!-- Node8 -->
<g id="node9" class="node">
<title>Node8</title>
<polygon fill="none" stroke="#bfbfbf" points="165,-.5 165,-19.5 225,-19.5 225,-.5 165,-.5"/>
<text text-anchor="middle" x="195" y="-7.5" font-family="Helvetica,sans-Serif" font-size="10.00" fill="#000000">iostream</text>
</g>
<!-- Node6&#45;&gt;Node8 -->
<g id="edge9" class="edge">
<title>Node6&#45;&gt;Node8</title>
<path fill="none" stroke="#191970" d="M224.589,-224.4711C189.7074,-216.1225 145.7362,-203.0006 135,-188 127.5672,-177.6149 101.8665,-133.0755 140,-56 146.2286,-43.4107 157.6516,-32.9826 168.4799,-25.2564"/>
<polygon fill="#191970" stroke="#191970" points="170.5302,-28.0964 176.9259,-19.6497 166.6587,-22.2644 170.5302,-28.0964"/>
</g>
<!-- Node9 -->
<g id="node10" class="node">
<title>Node9</title>
<g id="a_node10"><a xlink:href="iShape_8hxx.html" target="_top" xlink:title="../util/iShape.hxx">
<polygon fill="none" stroke="#000000" points="144,-168.5 144,-187.5 242,-187.5 242,-168.5 144,-168.5"/>
<text text-anchor="middle" x="193" y="-175.5" font-family="Helvetica,sans-Serif" font-size="10.00" fill="#000000">../util/iShape.hxx</text>
</a>
</g>
</g>
<!-- Node6&#45;&gt;Node9 -->
<g id="edge10" class="edge">
<title>Node6&#45;&gt;Node9</title>
<path fill="none" stroke="#191970" d="M256.5876,-224.2455C244.9943,-215.814 228.0252,-203.4729 214.5322,-193.6598"/>
<polygon fill="#191970" stroke="#191970" points="216.4047,-190.6938 206.2587,-187.6427 212.2874,-196.355 216.4047,-190.6938"/>
</g>
<!-- Node10 -->
<g id="node11" class="node">
<title>Node10</title>
<g id="a_node11"><a xlink:href="Rectangle_8inl_8hxx.html" target="_top" xlink:title="Rectangle.inl.hxx">
<polygon fill="none" stroke="#000000" points="298.5,-168.5 298.5,-187.5 399.5,-187.5 399.5,-168.5 298.5,-168.5"/>
<text text-anchor="middle" x="349" y="-175.5" font-family="Helvetica,sans-Serif" font-size="10.00" fill="#000000">Rectangle.inl.hxx</text>
</a>
</g>
</g>
<!-- Node6&#45;&gt;Node10 -->
<g id="edge11" class="edge">
<title>Node6&#45;&gt;Node10</title>
<path fill="none" stroke="#191970" d="M283.7607,-224.2455C295.6552,-215.814 313.065,-203.4729 326.9085,-193.6598"/>
<polygon fill="#191970" stroke="#191970" points="329.2628,-196.2811 335.3969,-187.6427 325.2146,-190.5704 329.2628,-196.2811"/>
</g>
<!-- Node11 -->
<g id="node12" class="node">
<title>Node11</title>
<polygon fill="none" stroke="#bfbfbf" points="182,-56.5 182,-75.5 246,-75.5 246,-56.5 182,-56.5"/>
<text text-anchor="middle" x="214" y="-63.5" font-family="Helvetica,sans-Serif" font-size="10.00" fill="#000000">algorithm</text>
</g>
<!-- Node10&#45;&gt;Node11 -->
<g id="edge12" class="edge">
<title>Node10&#45;&gt;Node11</title>
<path fill="none" stroke="#191970" d="M337.49,-168.4509C314.3758,-149.2747 262.0892,-105.8962 233.5254,-82.1988"/>
<polygon fill="#191970" stroke="#191970" points="235.4119,-79.2162 225.4809,-75.5249 230.9424,-84.6036 235.4119,-79.2162"/>
</g>
<!-- Node10&#45;&gt;Node12 -->
<g id="edge13" class="edge">
<title>Node10&#45;&gt;Node12</title>
<path fill="none" stroke="#191970" d="M386.7401,-168.4369C426.9724,-158.2423 490.3696,-142.1778 531.0566,-131.868"/>
<polygon fill="#191970" stroke="#191970" points="532.0496,-135.2271 540.8835,-129.3779 530.3301,-128.4415 532.0496,-135.2271"/>
</g>
<!-- Node12&#45;&gt;Node3 -->
<g id="edge14" class="edge">
<title>Node12&#45;&gt;Node3</title>
<path fill="none" stroke="#191970" d="M599.0462,-120.685C664.5074,-117.3014 828.5472,-106.4722 973.8114,-75.8876"/>
<polygon fill="#191970" stroke="#191970" points="974.7491,-79.2662 983.7934,-73.748 973.2819,-72.4217 974.7491,-79.2662"/>
</g>
<!-- Node12&#45;&gt;Node8 -->
<g id="edge18" class="edge">
<title>Node12&#45;&gt;Node8</title>
<path fill="none" stroke="#191970" d="M540.6926,-118.7335C479.0225,-111.6011 337.8431,-93.8397 293,-76 276.9586,-69.6183 239.6425,-43.094 215.9648,-25.675"/>
<polygon fill="#191970" stroke="#191970" points="218.0435,-22.8591 207.9232,-19.7236 213.8793,-28.4858 218.0435,-22.8591"/>
</g>
<!-- Node12&#45;&gt;Node11 -->
<g id="edge24" class="edge">
<title>Node12&#45;&gt;Node11</title>
<path fill="none" stroke="#191970" d="M540.8308,-118.3324C485.7571,-111.2614 362.7641,-94.7728 260,-76 258.7338,-75.7687 257.4492,-75.528 256.1534,-75.2799"/>
<polygon fill="#191970" stroke="#191970" points="256.6087,-71.8016 246.1158,-73.2679 255.2328,-78.6651 256.6087,-71.8016"/>
</g>
<!-- Node13 -->
<g id="node14" class="node">
<title>Node13</title>
<g id="a_node14"><a xlink:href="Exception_8hxx.html" target="_top" xlink:title="Exception.hxx">
<polygon fill="none" stroke="#000000" points="664,-56.5 664,-75.5 750,-75.5 750,-56.5 664,-56.5"/>
<text text-anchor="middle" x="707" y="-63.5" font-family="Helvetica,sans-Serif" font-size="10.00" fill="#000000">Exception.hxx</text>
</a>
</g>
</g>
<!-- Node12&#45;&gt;Node13 -->
<g id="edge15" class="edge">
<title>Node12&#45;&gt;Node13</title>
<path fill="none" stroke="#191970" d="M593.5511,-112.3733C615.8391,-103.2629 649.4937,-89.5062 674.3637,-79.3404"/>
<polygon fill="#191970" stroke="#191970" points="675.8239,-82.5247 683.7562,-75.5011 673.1753,-76.0451 675.8239,-82.5247"/>
</g>
<!-- Node16 -->
<g id="node17" class="node">
<title>Node16</title>
<polygon fill="none" stroke="#bfbfbf" points="302,-56.5 302,-75.5 352,-75.5 352,-56.5 302,-56.5"/>
<text text-anchor="middle" x="327" y="-63.5" font-family="Helvetica,sans-Serif" font-size="10.00" fill="#000000">chrono</text>
</g>
<!-- Node12&#45;&gt;Node16 -->
<g id="edge19" class="edge">
<title>Node12&#45;&gt;Node16</title>
<path fill="none" stroke="#191970" d="M540.7717,-116.2345C502.0441,-108.4504 431.4099,-93.7532 361.9822,-76.1284"/>
<polygon fill="#191970" stroke="#191970" points="362.7528,-72.7129 352.1971,-73.6225 361.0161,-79.494 362.7528,-72.7129"/>
</g>
<!-- Node17 -->
<g id="node18" class="node">
<title>Node17</title>
<polygon fill="none" stroke="#bfbfbf" points="370,-56.5 370,-75.5 414,-75.5 414,-56.5 370,-56.5"/>
<text text-anchor="middle" x="392" y="-63.5" font-family="Helvetica,sans-Serif" font-size="10.00" fill="#000000">ctime</text>
</g>
<!-- Node12&#45;&gt;Node17 -->
<g id="edge20" class="edge">
<title>Node12&#45;&gt;Node17</title>
<path fill="none" stroke="#191970" d="M540.9688,-112.9977C513.2121,-104.3726 469.9403,-90.8795 423.6205,-76.1797"/>
<polygon fill="#191970" stroke="#191970" points="424.5982,-72.818 414.0078,-73.1256 422.4785,-79.4894 424.5982,-72.818"/>
</g>
<!-- Node12&#45;&gt;Node18 -->
<g id="edge21" class="edge">
<title>Node12&#45;&gt;Node18</title>
<path fill="none" stroke="#191970" d="M599.1968,-115.1352C634.4901,-106.7844 695.9282,-92.0801 758.1504,-76.1731"/>
<polygon fill="#191970" stroke="#191970" points="759.3229,-79.4857 768.1395,-73.6106 757.5835,-72.7053 759.3229,-79.4857"/>
</g>
<!-- Node19 -->
<g id="node20" class="node">
<title>Node19</title>
<polygon fill="none" stroke="#bfbfbf" points="432,-56.5 432,-75.5 488,-75.5 488,-56.5 432,-56.5"/>
<text text-anchor="middle" x="460" y="-63.5" font-family="Helvetica,sans-Serif" font-size="10.00" fill="#000000">sstream</text>
</g>
<!-- Node12&#45;&gt;Node19 -->
<g id="edge22" class="edge">
<title>Node12&#45;&gt;Node19</title>
<path fill="none" stroke="#191970" d="M550.8395,-112.2455C533.4889,-103.4125 507.7099,-90.2887 488.0417,-80.2758"/>
<polygon fill="#191970" stroke="#191970" points="489.4405,-77.0605 478.941,-75.6427 486.2647,-83.2986 489.4405,-77.0605"/>
</g>
<!-- Node12&#45;&gt;Node20 -->
<g id="edge23" class="edge">
<title>Node12&#45;&gt;Node20</title>
<path fill="none" stroke="#191970" d="M599.3322,-118.1118C648.0444,-111.3737 748.53,-96.28 832,-76 832.099,-75.976 832.1981,-75.9518 832.2974,-75.9274"/>
<polygon fill="#191970" stroke="#191970" points="832.9919,-79.3657 841.7234,-73.3647 831.1554,-72.6109 832.9919,-79.3657"/>
</g>
<!-- Node21 -->
<g id="node22" class="node">
<title>Node21</title>
<polygon fill="none" stroke="#bfbfbf" points="506,-56.5 506,-75.5 554,-75.5 554,-56.5 506,-56.5"/>
<text text-anchor="middle" x="530" y="-63.5" font-family="Helvetica,sans-Serif" font-size="10.00" fill="#000000">mutex</text>
</g>
<!-- Node12&#45;&gt;Node21 -->
<g id="edge25" class="edge">
<title>Node12&#45;&gt;Node21</title>
<path fill="none" stroke="#191970" d="M563.0325,-112.2455C557.4689,-104.4564 549.522,-93.3308 542.8171,-83.9439"/>
<polygon fill="#191970" stroke="#191970" points="545.5481,-81.7457 536.8876,-75.6427 539.852,-85.8144 545.5481,-81.7457"/>
</g>
<!-- Node22 -->
<g id="node23" class="node">
<title>Node22</title>
<g id="a_node23"><a xlink:href="Meta_8hxx.html" target="_top" xlink:title="Meta.hxx">
<polygon fill="none" stroke="#000000" points="904,-56.5 904,-75.5 966,-75.5 966,-56.5 904,-56.5"/>
<text text-anchor="middle" x="935" y="-63.5" font-family="Helvetica,sans-Serif" font-size="10.00" fill="#000000">Meta.hxx</text>
</a>
</g>
</g>
<!-- Node12&#45;&gt;Node22 -->
<g id="edge26" class="edge">
<title>Node12&#45;&gt;Node22</title>
<path fill="none" stroke="#191970" d="M599.0131,-117.9774C669.2178,-108.2334 845.5292,-83.6978 893.5333,-75.9242"/>
<polygon fill="#191970" stroke="#191970" points="894.3724,-79.331 903.6264,-74.1722 893.1751,-72.4341 894.3724,-79.331"/>
</g>
<!-- Node25 -->
<g id="node26" class="node">
<title>Node25</title>
<g id="a_node26"><a xlink:href="LOG_8inl_8hxx.html" target="_top" xlink:title="LOG.inl.hxx">
<polygon fill="none" stroke="#000000" points="572.5,-56.5 572.5,-75.5 645.5,-75.5 645.5,-56.5 572.5,-56.5"/>
<text text-anchor="middle" x="609" y="-63.5" font-family="Helvetica,sans-Serif" font-size="10.00" fill="#000000">LOG.inl.hxx</text>
</a>
</g>
</g>
<!-- Node12&#45;&gt;Node25 -->
<g id="edge31" class="edge">
<title>Node12&#45;&gt;Node25</title>
<path fill="none" stroke="#191970" d="M576.7933,-112.2455C582.2178,-104.4564 589.9661,-93.3308 596.5033,-83.9439"/>
<polygon fill="#191970" stroke="#191970" points="599.4417,-85.849 602.2846,-75.6427 593.6975,-81.8485 599.4417,-85.849"/>
</g>
<!-- Node14 -->
<g id="node15" class="node">
<title>Node14</title>
<polygon fill="none" stroke="#bfbfbf" points="746.5,-.5 746.5,-19.5 811.5,-19.5 811.5,-.5 746.5,-.5"/>
<text text-anchor="middle" x="779" y="-7.5" font-family="Helvetica,sans-Serif" font-size="10.00" fill="#000000">stdexcept</text>
</g>
<!-- Node13&#45;&gt;Node14 -->
<g id="edge16" class="edge">
<title>Node13&#45;&gt;Node14</title>
<path fill="none" stroke="#191970" d="M719.5414,-56.2455C730.2787,-47.8943 745.9473,-35.7076 758.5047,-25.9408"/>
<polygon fill="#191970" stroke="#191970" points="760.8575,-28.5449 766.6023,-19.6427 756.5599,-23.0194 760.8575,-28.5449"/>
</g>
<!-- Node15 -->
<g id="node16" class="node">
<title>Node15</title>
<polygon fill="none" stroke="#bfbfbf" points="604.5,-.5 604.5,-19.5 669.5,-19.5 669.5,-.5 604.5,-.5"/>
<text text-anchor="middle" x="637" y="-7.5" font-family="Helvetica,sans-Serif" font-size="10.00" fill="#000000">exception</text>
</g>
<!-- Node13&#45;&gt;Node15 -->
<g id="edge17" class="edge">
<title>Node13&#45;&gt;Node15</title>
<path fill="none" stroke="#191970" d="M694.8069,-56.2455C684.3679,-47.8943 669.1345,-35.7076 656.926,-25.9408"/>
<polygon fill="#191970" stroke="#191970" points="659.0485,-23.1566 649.0533,-19.6427 654.6756,-28.6227 659.0485,-23.1566"/>
</g>
<!-- Node22&#45;&gt;Node7 -->
<g id="edge30" class="edge">
<title>Node22&#45;&gt;Node7</title>
<path fill="none" stroke="#191970" d="M903.5723,-58.077C900.6761,-57.3668 897.7849,-56.6653 895,-56 827.9593,-39.9842 807.9572,-39.7567 738.2118,-20.141"/>
<polygon fill="#191970" stroke="#191970" points="739.0842,-16.7504 728.508,-17.3785 737.1675,-23.4829 739.0842,-16.7504"/>
</g>
<!-- Node22&#45;&gt;Node8 -->
<g id="edge27" class="edge">
<title>Node22&#45;&gt;Node8</title>
<path fill="none" stroke="#191970" d="M903.6661,-57.602C900.7502,-56.9915 897.8288,-56.4429 895,-56 766.4088,-35.8678 364.5743,-17.2867 235.414,-11.7008"/>
<polygon fill="#191970" stroke="#191970" points="235.3207,-8.1937 225.1795,-11.2608 235.0199,-15.1872 235.3207,-8.1937"/>
</g>
<!-- Node23 -->
<g id="node24" class="node">
<title>Node23</title>
<polygon fill="none" stroke="#bfbfbf" points="861.5,-.5 861.5,-19.5 930.5,-19.5 930.5,-.5 861.5,-.5"/>
<text text-anchor="middle" x="896" y="-7.5" font-family="Helvetica,sans-Serif" font-size="10.00" fill="#000000">type_traits</text>
</g>
<!-- Node22&#45;&gt;Node23 -->
<g id="edge28" class="edge">
<title>Node22&#45;&gt;Node23</title>
<path fill="none" stroke="#191970" d="M928.2067,-56.2455C922.7822,-48.4564 915.0339,-37.3308 908.4967,-27.9439"/>
<polygon fill="#191970" stroke="#191970" points="911.3025,-25.8485 902.7154,-19.6427 905.5583,-29.849 911.3025,-25.8485"/>
</g>
<!-- Node24 -->
<g id="node25" class="node">
<title>Node24</title>
<polygon fill="none" stroke="#bfbfbf" points="948.5,-.5 948.5,-19.5 999.5,-19.5 999.5,-.5 948.5,-.5"/>
<text text-anchor="middle" x="974" y="-7.5" font-family="Helvetica,sans-Serif" font-size="10.00" fill="#000000">variant</text>
</g>
<!-- Node22&#45;&gt;Node24 -->
<g id="edge29" class="edge">
<title>Node22&#45;&gt;Node24</title>
<path fill="none" stroke="#191970" d="M941.7933,-56.2455C947.2178,-48.4564 954.9661,-37.3308 961.5033,-27.9439"/>
<polygon fill="#191970" stroke="#191970" points="964.4417,-29.849 967.2846,-19.6427 958.6975,-25.8485 964.4417,-29.849"/>
</g>
<!-- Node26&#45;&gt;Node22 -->
<g id="edge34" class="edge">
<title>Node26&#45;&gt;Node22</title>
<path fill="none" stroke="#191970" d="M551.9916,-224.4862C620.4406,-196.1625 823.0573,-112.3211 902.5109,-79.4438"/>
<polygon fill="#191970" stroke="#191970" points="904.1076,-82.5709 912.0096,-75.5133 901.4311,-76.1028 904.1076,-82.5709"/>
</g>
<!-- Node27 -->
<g id="node28" class="node">
<title>Node27</title>
<polygon fill="none" stroke="#bfbfbf" points="560.5,-168.5 560.5,-187.5 613.5,-187.5 613.5,-168.5 560.5,-168.5"/>
<text text-anchor="middle" x="587" y="-175.5" font-family="Helvetica,sans-Serif" font-size="10.00" fill="#000000">iterator</text>
</g>
<!-- Node26&#45;&gt;Node27 -->
<g id="edge33" class="edge">
<title>Node26&#45;&gt;Node27</title>
<path fill="none" stroke="#191970" d="M539.1028,-224.2455C547.5028,-216.1352 559.6494,-204.4075 569.6084,-194.7919"/>
<polygon fill="#191970" stroke="#191970" points="572.25,-197.1066 577.0129,-187.6427 567.3878,-192.0707 572.25,-197.1066"/>
</g>
<!-- Node28 -->
<g id="node29" class="node">
<title>Node28</title>
<g id="a_node29"><a xlink:href="Range_8inl_8hxx.html" target="_top" xlink:title="Range.inl.hxx">
<polygon fill="none" stroke="#000000" points="459.5,-168.5 459.5,-187.5 542.5,-187.5 542.5,-168.5 459.5,-168.5"/>
<text text-anchor="middle" x="501" y="-175.5" font-family="Helvetica,sans-Serif" font-size="10.00" fill="#000000">Range.inl.hxx</text>
</a>
</g>
</g>
<!-- Node26&#45;&gt;Node28 -->
<g id="edge35" class="edge">
<title>Node26&#45;&gt;Node28</title>
<path fill="none" stroke="#191970" d="M524.1228,-224.2455C520.3487,-216.6973 515.0079,-206.0158 510.4099,-196.8197"/>
<polygon fill="#191970" stroke="#191970" points="513.424,-195.0217 505.8213,-187.6427 507.163,-198.1522 513.424,-195.0217"/>
</g>
<!-- Node29&#45;&gt;Node8 -->
<g id="edge38" class="edge">
<title>Node29&#45;&gt;Node8</title>
<path fill="none" stroke="#191970" d="M134.6926,-224.4046C123.2963,-216.2816 108.6141,-203.4994 102,-188 78.974,-134.0409 71.0496,-105.8383 102,-56 113.6252,-37.2804 135.3765,-25.9474 154.9216,-19.2161"/>
<polygon fill="#191970" stroke="#191970" points="156.0865,-22.5189 164.5796,-16.185 153.9903,-15.8401 156.0865,-22.5189"/>
</g>
<!-- Node30 -->
<g id="node31" class="node">
<title>Node30</title>
<polygon fill="none" stroke="#bfbfbf" points="0,-168.5 0,-187.5 50,-187.5 50,-168.5 0,-168.5"/>
<text text-anchor="middle" x="25" y="-175.5" font-family="Helvetica,sans-Serif" font-size="10.00" fill="#000000">cstdint</text>
</g>
<!-- Node29&#45;&gt;Node30 -->
<g id="edge37" class="edge">
<title>Node29&#45;&gt;Node30</title>
<path fill="none" stroke="#191970" d="M128.5117,-224.3733C108.356,-215.3435 78.012,-201.7494 55.382,-191.6111"/>
<polygon fill="#191970" stroke="#191970" points="56.7649,-188.3955 46.2079,-187.5011 53.9029,-194.7838 56.7649,-188.3955"/>
</g>
<!-- Node32&#45;&gt;Node3 -->
<g id="edge41" class="edge">
<title>Node32&#45;&gt;Node3</title>
<path fill="none" stroke="#191970" d="M1006,-112.2455C1006,-104.9382 1006,-94.6944 1006,-85.7046"/>
<polygon fill="#191970" stroke="#191970" points="1009.5001,-85.6426 1006,-75.6427 1002.5001,-85.6427 1009.5001,-85.6426"/>
</g>
<!-- Node32&#45;&gt;Node22 -->
<g id="edge43" class="edge">
<title>Node32&#45;&gt;Node22</title>
<path fill="none" stroke="#191970" d="M993.6327,-112.2455C983.0446,-103.8943 967.5936,-91.7076 955.2107,-81.9408"/>
<polygon fill="#191970" stroke="#191970" points="957.2447,-79.0875 947.2255,-75.6427 952.9097,-84.5837 957.2447,-79.0875"/>
</g>
<!-- Node33 -->
<g id="node34" class="node">
<title>Node33</title>
<g id="a_node34"><a xlink:href="Singleton_8hxx.html" target="_top" xlink:title="../../util/Singleton.hxx">
<polygon fill="none" stroke="#000000" points="1118,-56.5 1118,-75.5 1238,-75.5 1238,-56.5 1118,-56.5"/>
<text text-anchor="middle" x="1178" y="-63.5" font-family="Helvetica,sans-Serif" font-size="10.00" fill="#000000">../../util/Singleton.hxx</text>
</a>
</g>
</g>
<!-- Node32&#45;&gt;Node33 -->
<g id="edge42" class="edge">
<title>Node32&#45;&gt;Node33</title>
<path fill="none" stroke="#191970" d="M1035.5679,-112.3733C1064.1688,-103.0613 1107.6788,-88.8953 1139.0819,-78.671"/>
<polygon fill="#191970" stroke="#191970" points="1140.3928,-81.9251 1148.818,-75.5011 1138.2257,-75.269 1140.3928,-81.9251"/>
</g>
<!-- Node34 -->
<g id="node35" class="node">
<title>Node34</title>
<polygon fill="none" stroke="#bfbfbf" points="1046.5,-56.5 1046.5,-75.5 1099.5,-75.5 1099.5,-56.5 1046.5,-56.5"/>
<text text-anchor="middle" x="1073" y="-63.5" font-family="Helvetica,sans-Serif" font-size="10.00" fill="#000000">cstddef</text>
</g>
<!-- Node32&#45;&gt;Node34 -->
<g id="edge44" class="edge">
<title>Node32&#45;&gt;Node34</title>
<path fill="none" stroke="#191970" d="M1017.6705,-112.2455C1027.5661,-103.9746 1041.9627,-91.9416 1053.5901,-82.2232"/>
<polygon fill="#191970" stroke="#191970" points="1056.035,-84.7413 1061.4632,-75.6427 1051.5458,-79.3703 1056.035,-84.7413"/>
</g>
</g>
</svg>
        <g id="navigator" transform="translate(0 0)" fill="#404254">
                <rect fill="#f2f5e9" fill-opacity="0.5" stroke="#606060" stroke-width=".5" x="0" y="0" width="60" height="60"/>
                <use id="zoomplus" xlink:href="#zoomPlus" x="17" y="9" onmousedown="handleZoom(evt,'in')"/>
                <use id="zoomminus" xlink:href="#zoomMin" x="42" y="9" onmousedown="handleZoom(evt,'out')"/>
                <use id="reset" xlink:href="#resetDef" x="30" y="36" onmousedown="handleReset()"/>
                <g id="arrowUp" xlink:href="#dirArrow" transform="translate(30 24)" onmousedown="handlePan(0,-1)">
                  <use xlink:href="#rim" fill="#404040">
                        <set attributeName="fill" to="#808080" begin="arrowUp.mouseover" end="arrowUp.mouseout"/>
                  </use>
                  <path fill="none" stroke="white" stroke-width="1.5" d="M0,-3.0v7 M-2.5,-0.5L0,-3.0L2.5,-0.5"/>
                </g>
                <g id="arrowRight" xlink:href="#dirArrow" transform="rotate(90) translate(36 -43)" onmousedown="handlePan(1,0)">
                  <use xlink:href="#rim" fill="#404040">
                        <set attributeName="fill" to="#808080" begin="arrowRight.mouseover" end="arrowRight.mouseout"/>
                  </use>
                  <path fill="none" stroke="white" stroke-width="1.5" d="M0,-3.0v7 M-2.5,-0.5L0,-3.0L2.5,-0.5"/>
                </g>
                <g id="arrowDown" xlink:href="#dirArrow" transform="rotate(180) translate(-30 -48)" onmousedown="handlePan(0,1)">
                  <use xlink:href="#rim" fill="#404040">
                        <set attributeName="fill" to="#808080" begin="arrowDown.mouseover" end="arrowDown.mouseout"/>
                  </use>
                  <path fill="none" stroke="white" stroke-width="1.5" d="M0,-3.0v7 M-2.5,-0.5L0,-3.0L2.5,-0.5"/>
                </g>
                <g id="arrowLeft" xlink:href="#dirArrow" transform="rotate(270) translate(-36 17)" onmousedown="handlePan(-1,0)">
                  <use xlink:href="#rim" fill="#404040">
                        <set attributeName="fill" to="#808080" begin="arrowLeft.mouseover" end="arrowLeft.mouseout"/>
                  </use>
                  <path fill="none" stroke="white" stroke-width="1.5" d="M0,-3.0v7 M-2.5,-0.5L0,-3.0L2.5,-0.5"/>
                </g>
        </g>
        <svg viewBox="0 0 15 15" width="100%" height="30px" preserveAspectRatio="xMaxYMin meet">
         <g id="arrow_out" transform="scale(0.3 0.3)">
          <a xlink:href="desktop_2Filesystem_8cxx__incl_org.svg" target="_base">
           <rect id="button" ry="5" rx="5" y="6" x="6" height="38" width="38"
                fill="#f2f5e9" fill-opacity="0.5" stroke="#606060" stroke-width="1.0"/>
           <path id="arrow"
             d="M 11.500037,31.436501 C 11.940474,20.09759 22.043105,11.32322 32.158766,21.979434 L 37.068811,17.246167 C 37.068811,17.246167 37.088388,32 37.088388,32 L 22.160133,31.978069 C 22.160133,31.978069 26.997745,27.140456 26.997745,27.140456 C 18.528582,18.264221 13.291696,25.230495 11.500037,31.436501 z"
             style="fill:#404040;"/>
          </a>
         </g>
        </svg>
</svg>
