<?xml version="1.0" encoding="UTF-8" standalone="no"?>
<!DOCTYPE svg PUBLIC "-//W3C//DTD SVG 1.1//EN"
 "http://www.w3.org/Graphics/SVG/1.1/DTD/svg11.dtd">
<!-- Generated by graphviz version 2.40.1 (20161225.0304)
 -->
<!-- Title: src Pages: 1 -->
<svg width="318pt" height="364pt"
 viewBox="0.00 0.00 318.00 364.00" xmlns="http://www.w3.org/2000/svg" xmlns:xlink="http://www.w3.org/1999/xlink">
<g id="graph0" class="graph" transform="scale(1 1) rotate(0) translate(4 360)">
<title>src</title>
<g id="clust1" class="cluster">
<title>clusterdir_68267d1309a1af8e8297ef4c3efbcdba</title>
<g id="a_clust1"><a xlink:href="dir_68267d1309a1af8e8297ef4c3efbcdba.html" target="_top">
<polygon fill="#eeeeff" stroke="#000000" points="8,-8 8,-348 302,-348 302,-8 8,-8"/>
</a>
</g>
</g>
<!-- dir_68267d1309a1af8e8297ef4c3efbcdba -->
<g id="node1" class="node">
<title>dir_68267d1309a1af8e8297ef4c3efbcdba</title>
<text text-anchor="middle" x="267" y="-319.5" font-family="Helvetica,sans-Serif" font-size="10.00" fill="#000000">src</text>
</g>
<!-- dir_6e232b759d489f630412e22c99aac6d0 -->
<g id="node6" class="node">
<title>dir_6e232b759d489f630412e22c99aac6d0</title>
<g id="a_node6"><a xlink:href="dir_6e232b759d489f630412e22c99aac6d0.html" target="_top" xlink:title="Scripting">
<polygon fill="#ffffff" stroke="#000000" points="218.5,-268 159.5,-268 159.5,-232 218.5,-232 218.5,-268"/>
<text text-anchor="middle" x="189" y="-247.5" font-family="Helvetica,sans-Serif" font-size="10.00" fill="#000000">Scripting</text>
</a>
</g>
</g>
<!-- dir_68267d1309a1af8e8297ef4c3efbcdba&#45;&gt;dir_6e232b759d489f630412e22c99aac6d0 -->
<g id="edge2" class="edge">
<title>dir_68267d1309a1af8e8297ef4c3efbcdba&#45;&gt;dir_6e232b759d489f630412e22c99aac6d0</title>
<path fill="none" stroke="#000000" d="M247.3173,-303.8314C237.8949,-295.1337 226.4599,-284.5783 216.2204,-275.1265"/>
<polygon fill="#000000" stroke="#000000" points="218.3984,-272.3738 208.6764,-268.1628 213.6505,-277.5175 218.3984,-272.3738"/>
<g id="a_edge2&#45;headlabel"><a xlink:href="dir_000000_000014.html" target="_top" xlink:title="1">
<text text-anchor="middle" x="222.9656" y="-270.2257" font-family="Helvetica,sans-Serif" font-size="10.00" fill="#000000">1</text>
</a>
</g>
</g>
<!-- dir_1826a32a9d780ddbaf96ec88be56c4cd -->
<g id="node7" class="node">
<title>dir_1826a32a9d780ddbaf96ec88be56c4cd</title>
<g id="a_node7"><a xlink:href="dir_1826a32a9d780ddbaf96ec88be56c4cd.html" target="_top" xlink:title="services">
<polygon fill="#ffffff" stroke="#000000" points="293.5,-268 236.5,-268 236.5,-232 293.5,-232 293.5,-268"/>
<text text-anchor="middle" x="265" y="-247.5" font-family="Helvetica,sans-Serif" font-size="10.00" fill="#000000">services</text>
</a>
</g>
</g>
<!-- dir_68267d1309a1af8e8297ef4c3efbcdba&#45;&gt;dir_1826a32a9d780ddbaf96ec88be56c4cd -->
<g id="edge3" class="edge">
<title>dir_68267d1309a1af8e8297ef4c3efbcdba&#45;&gt;dir_1826a32a9d780ddbaf96ec88be56c4cd</title>
<path fill="none" stroke="#000000" d="M266.4953,-303.8314C266.2814,-296.131 266.0271,-286.9743 265.7894,-278.4166"/>
<polygon fill="#000000" stroke="#000000" points="269.2879,-278.3122 265.5115,-268.4133 262.2906,-278.5066 269.2879,-278.3122"/>
<g id="a_edge3&#45;headlabel"><a xlink:href="dir_000000_000015.html" target="_top" xlink:title="3">
<text text-anchor="middle" x="272.2258" y="-279.3266" font-family="Helvetica,sans-Serif" font-size="10.00" fill="#000000">3</text>
</a>
</g>
</g>
<!-- dir_659facb5ea1bf65b3deecf95a0be0132 -->
<g id="node2" class="node">
<title>dir_659facb5ea1bf65b3deecf95a0be0132</title>
<g id="a_node2"><a xlink:href="dir_659facb5ea1bf65b3deecf95a0be0132.html" target="_top" xlink:title="doc">
<polygon fill="#ffffff" stroke="#000000" points="222,-340 168,-340 168,-304 222,-304 222,-340"/>
<text text-anchor="middle" x="195" y="-319.5" font-family="Helvetica,sans-Serif" font-size="10.00" fill="#000000">doc</text>
</a>
</g>
</g>
<!-- dir_2052808828190f934b76e979ee65af8a -->
<g id="node3" class="node">
<title>dir_2052808828190f934b76e979ee65af8a</title>
<g id="a_node3"><a xlink:href="dir_2052808828190f934b76e979ee65af8a.html" target="_top" xlink:title="engine">
<polygon fill="#ffffff" stroke="#ff0000" points="200,-52 146,-52 146,-16 200,-16 200,-52"/>
<text text-anchor="middle" x="173" y="-31.5" font-family="Helvetica,sans-Serif" font-size="10.00" fill="#000000">engine</text>
</a>
</g>
</g>
<!-- dir_b7878ad5ecbf2506f4125b9d34c97e45 -->
<g id="node8" class="node">
<title>dir_b7878ad5ecbf2506f4125b9d34c97e45</title>
<g id="a_node8"><a xlink:href="dir_b7878ad5ecbf2506f4125b9d34c97e45.html" target="_top" xlink:title="util">
<polygon fill="#ffffff" stroke="#ff0000" points="216,-196 162,-196 162,-160 216,-160 216,-196"/>
<text text-anchor="middle" x="189" y="-175.5" font-family="Helvetica,sans-Serif" font-size="10.00" fill="#000000">util</text>
</a>
</g>
</g>
<!-- dir_2052808828190f934b76e979ee65af8a&#45;&gt;dir_b7878ad5ecbf2506f4125b9d34c97e45 -->
<g id="edge1" class="edge">
<title>dir_2052808828190f934b76e979ee65af8a&#45;&gt;dir_b7878ad5ecbf2506f4125b9d34c97e45</title>
<path fill="none" stroke="#000000" d="M179.6682,-52.0896C184.8572,-76.5727 190.0235,-120.5174 191.3391,-149.4713"/>
<polygon fill="#000000" stroke="#000000" points="187.8494,-149.8714 191.6468,-159.7623 194.8463,-149.6621 187.8494,-149.8714"/>
<g id="a_edge1&#45;headlabel"><a xlink:href="dir_000002_000016.html" target="_top" xlink:title="46">
<text text-anchor="middle" x="184.904" y="-143.8632" font-family="Helvetica,sans-Serif" font-size="10.00" fill="#000000">46</text>
</a>
</g>
</g>
<!-- dir_14e1e259e8275dc0c459acef3bbf05ae -->
<g id="node4" class="node">
<title>dir_14e1e259e8275dc0c459acef3bbf05ae</title>
<g id="a_node4"><a xlink:href="dir_14e1e259e8275dc0c459acef3bbf05ae.html" target="_top" xlink:title="events">
<polygon fill="#ffffff" stroke="#000000" points="246,-124 192,-124 192,-88 246,-88 246,-124"/>
<text text-anchor="middle" x="219" y="-103.5" font-family="Helvetica,sans-Serif" font-size="10.00" fill="#000000">events</text>
</a>
</g>
</g>
<!-- dir_14e1e259e8275dc0c459acef3bbf05ae&#45;&gt;dir_2052808828190f934b76e979ee65af8a -->
<g id="edge10" class="edge">
<title>dir_14e1e259e8275dc0c459acef3bbf05ae&#45;&gt;dir_2052808828190f934b76e979ee65af8a</title>
<path fill="none" stroke="#000000" d="M207.3923,-87.8314C202.2022,-79.7079 195.9768,-69.9637 190.2575,-61.0118"/>
<polygon fill="#000000" stroke="#000000" points="193.0974,-58.9559 184.764,-52.4133 187.1985,-62.7246 193.0974,-58.9559"/>
<g id="a_edge10&#45;headlabel"><a xlink:href="dir_000012_000002.html" target="_top" xlink:title="2">
<text text-anchor="middle" x="197.4253" y="-57.9564" font-family="Helvetica,sans-Serif" font-size="10.00" fill="#000000">2</text>
</a>
</g>
</g>
<!-- dir_14e1e259e8275dc0c459acef3bbf05ae&#45;&gt;dir_b7878ad5ecbf2506f4125b9d34c97e45 -->
<g id="edge11" class="edge">
<title>dir_14e1e259e8275dc0c459acef3bbf05ae&#45;&gt;dir_b7878ad5ecbf2506f4125b9d34c97e45</title>
<path fill="none" stroke="#000000" d="M217.3038,-124.4133C214.74,-132.3991 210.9734,-141.9155 206.9478,-150.6975"/>
<polygon fill="#000000" stroke="#000000" points="203.7329,-149.3059 202.5227,-159.8314 210.0326,-152.3579 203.7329,-149.3059"/>
<g id="a_edge11&#45;headlabel"><a xlink:href="dir_000012_000016.html" target="_top" xlink:title="2">
<text text-anchor="middle" x="202.745" y="-142.333" font-family="Helvetica,sans-Serif" font-size="10.00" fill="#000000">2</text>
</a>
</g>
</g>
<!-- dir_5dd65160827af56e6353642206b80129 -->
<g id="node5" class="node">
<title>dir_5dd65160827af56e6353642206b80129</title>
<g id="a_node5"><a xlink:href="dir_5dd65160827af56e6353642206b80129.html" target="_top" xlink:title="model">
<polygon fill="#ffffff" stroke="#000000" points="141,-268 87,-268 87,-232 141,-232 141,-268"/>
<text text-anchor="middle" x="114" y="-247.5" font-family="Helvetica,sans-Serif" font-size="10.00" fill="#000000">model</text>
</a>
</g>
</g>
<!-- dir_5dd65160827af56e6353642206b80129&#45;&gt;dir_2052808828190f934b76e979ee65af8a -->
<g id="edge12" class="edge">
<title>dir_5dd65160827af56e6353642206b80129&#45;&gt;dir_2052808828190f934b76e979ee65af8a</title>
<path fill="none" stroke="#000000" d="M118.9288,-231.9555C129.2321,-194.235 153.1097,-106.8188 165.3956,-61.8399"/>
<polygon fill="#000000" stroke="#000000" points="168.785,-62.7139 168.0437,-52.1451 162.0324,-60.8694 168.785,-62.7139"/>
<g id="a_edge12&#45;headlabel"><a xlink:href="dir_000013_000002.html" target="_top" xlink:title="2">
<text text-anchor="middle" x="170.5768" y="-64.4296" font-family="Helvetica,sans-Serif" font-size="10.00" fill="#000000">2</text>
</a>
</g>
</g>
<!-- dir_5dd65160827af56e6353642206b80129&#45;&gt;dir_b7878ad5ecbf2506f4125b9d34c97e45 -->
<g id="edge13" class="edge">
<title>dir_5dd65160827af56e6353642206b80129&#45;&gt;dir_b7878ad5ecbf2506f4125b9d34c97e45</title>
<path fill="none" stroke="#000000" d="M132.9257,-231.8314C141.9857,-223.1337 152.9809,-212.5783 162.8265,-203.1265"/>
<polygon fill="#000000" stroke="#000000" points="165.2904,-205.613 170.0804,-196.1628 160.4426,-200.5633 165.2904,-205.613"/>
<g id="a_edge13&#45;headlabel"><a xlink:href="dir_000013_000016.html" target="_top" xlink:title="3">
<text text-anchor="middle" x="164.6636" y="-207.6506" font-family="Helvetica,sans-Serif" font-size="10.00" fill="#000000">3</text>
</a>
</g>
</g>
<!-- dir_6e232b759d489f630412e22c99aac6d0&#45;&gt;dir_b7878ad5ecbf2506f4125b9d34c97e45 -->
<g id="edge6" class="edge">
<title>dir_6e232b759d489f630412e22c99aac6d0&#45;&gt;dir_b7878ad5ecbf2506f4125b9d34c97e45</title>
<path fill="none" stroke="#000000" d="M189,-231.8314C189,-224.131 189,-214.9743 189,-206.4166"/>
<polygon fill="#000000" stroke="#000000" points="192.5001,-206.4132 189,-196.4133 185.5001,-206.4133 192.5001,-206.4132"/>
<g id="a_edge6&#45;headlabel"><a xlink:href="dir_000014_000016.html" target="_top" xlink:title="1">
<text text-anchor="middle" x="195.3393" y="-207.5079" font-family="Helvetica,sans-Serif" font-size="10.00" fill="#000000">1</text>
</a>
</g>
</g>
<!-- dir_1826a32a9d780ddbaf96ec88be56c4cd&#45;&gt;dir_2052808828190f934b76e979ee65af8a -->
<g id="edge7" class="edge">
<title>dir_1826a32a9d780ddbaf96ec88be56c4cd&#45;&gt;dir_2052808828190f934b76e979ee65af8a</title>
<path fill="none" stroke="#000000" d="M268.7893,-231.9886C274.424,-200.4215 281.6955,-134.0837 255,-88 244.7629,-70.328 226.1468,-57.3695 209.237,-48.5833"/>
<polygon fill="#000000" stroke="#000000" points="210.6056,-45.3569 200.0823,-44.1279 207.5424,-51.651 210.6056,-45.3569"/>
<g id="a_edge7&#45;headlabel"><a xlink:href="dir_000015_000002.html" target="_top" xlink:title="6">
<text text-anchor="middle" x="215.0803" y="-41.8769" font-family="Helvetica,sans-Serif" font-size="10.00" fill="#000000">6</text>
</a>
</g>
</g>
<!-- dir_1826a32a9d780ddbaf96ec88be56c4cd&#45;&gt;dir_14e1e259e8275dc0c459acef3bbf05ae -->
<g id="edge9" class="edge">
<title>dir_1826a32a9d780ddbaf96ec88be56c4cd&#45;&gt;dir_14e1e259e8275dc0c459acef3bbf05ae</title>
<path fill="none" stroke="#000000" d="M259.1741,-231.7623C251.2935,-207.0928 237.1635,-162.8598 227.9358,-133.9731"/>
<polygon fill="#000000" stroke="#000000" points="231.1557,-132.5503 224.7786,-124.0896 224.4876,-134.6805 231.1557,-132.5503"/>
<g id="a_edge9&#45;headlabel"><a xlink:href="dir_000015_000012.html" target="_top" xlink:title="1">
<text text-anchor="middle" x="234.9541" y="-132.6105" font-family="Helvetica,sans-Serif" font-size="10.00" fill="#000000">1</text>
</a>
</g>
</g>
<!-- dir_1826a32a9d780ddbaf96ec88be56c4cd&#45;&gt;dir_b7878ad5ecbf2506f4125b9d34c97e45 -->
<g id="edge8" class="edge">
<title>dir_1826a32a9d780ddbaf96ec88be56c4cd&#45;&gt;dir_b7878ad5ecbf2506f4125b9d34c97e45</title>
<path fill="none" stroke="#000000" d="M245.822,-231.8314C236.6412,-223.1337 225.4994,-212.5783 215.5224,-203.1265"/>
<polygon fill="#000000" stroke="#000000" points="217.8385,-200.4995 208.1719,-196.1628 213.0243,-205.5811 217.8385,-200.4995"/>
<g id="a_edge8&#45;headlabel"><a xlink:href="dir_000015_000016.html" target="_top" xlink:title="10">
<text text-anchor="middle" x="222.4007" y="-198.4104" font-family="Helvetica,sans-Serif" font-size="10.00" fill="#000000">10</text>
</a>
</g>
</g>
<!-- dir_b7878ad5ecbf2506f4125b9d34c97e45&#45;&gt;dir_2052808828190f934b76e979ee65af8a -->
<g id="edge4" class="edge">
<title>dir_b7878ad5ecbf2506f4125b9d34c97e45&#45;&gt;dir_2052808828190f934b76e979ee65af8a</title>
<path fill="none" stroke="#000000" d="M182.3004,-159.7623C177.1116,-135.201 171.9531,-91.2474 170.653,-62.3541"/>
<polygon fill="#000000" stroke="#000000" points="174.1437,-61.9826 170.3517,-52.0896 167.1467,-62.1881 174.1437,-61.9826"/>
<g id="a_edge4&#45;headlabel"><a xlink:href="dir_000016_000002.html" target="_top" xlink:title="3">
<text text-anchor="middle" x="177.0872" y="-62.9923" font-family="Helvetica,sans-Serif" font-size="10.00" fill="#000000">3</text>
</a>
</g>
</g>
<!-- dir_b7878ad5ecbf2506f4125b9d34c97e45&#45;&gt;dir_14e1e259e8275dc0c459acef3bbf05ae -->
<g id="edge5" class="edge">
<title>dir_b7878ad5ecbf2506f4125b9d34c97e45&#45;&gt;dir_14e1e259e8275dc0c459acef3bbf05ae</title>
<path fill="none" stroke="#000000" d="M190.6179,-159.8314C193.157,-151.8771 196.9085,-142.369 200.9287,-133.5723"/>
<polygon fill="#000000" stroke="#000000" points="204.1548,-134.9403 205.3518,-124.4133 197.8513,-131.8962 204.1548,-134.9403"/>
<g id="a_edge5&#45;headlabel"><a xlink:href="dir_000016_000012.html" target="_top" xlink:title="1">
<text text-anchor="middle" x="205.1484" y="-136.9119" font-family="Helvetica,sans-Serif" font-size="10.00" fill="#000000">1</text>
</a>
</g>
</g>
<!-- dir_b39b5091e8d1d2be4b7fc59d57749634 -->
<g id="node9" class="node">
<title>dir_b39b5091e8d1d2be4b7fc59d57749634</title>
<g id="a_node9"><a xlink:href="dir_b39b5091e8d1d2be4b7fc59d57749634.html" target="_top" xlink:title="view">
<polygon fill="#ffffff" stroke="#000000" points="150,-340 96,-340 96,-304 150,-304 150,-340"/>
<text text-anchor="middle" x="123" y="-319.5" font-family="Helvetica,sans-Serif" font-size="10.00" fill="#000000">view</text>
</a>
</g>
</g>
<!-- dir_85ebecfd8b3c6e060c2257c3b57eaa6c -->
<g id="node10" class="node">
<title>dir_85ebecfd8b3c6e060c2257c3b57eaa6c</title>
<g id="a_node10"><a xlink:href="dir_85ebecfd8b3c6e060c2257c3b57eaa6c.html" target="_top" xlink:title="Windows">
<polygon fill="#ffffff" stroke="#000000" points="77.5,-340 16.5,-340 16.5,-304 77.5,-304 77.5,-340"/>
<text text-anchor="middle" x="47" y="-319.5" font-family="Helvetica,sans-Serif" font-size="10.00" fill="#000000">Windows</text>
</a>
</g>
</g>
</g>
</svg>
