<?xml version="1.0" encoding="UTF-8" standalone="no"?>
<!DOCTYPE svg PUBLIC "-//W3C//DTD SVG 1.1//EN"
 "http://www.w3.org/Graphics/SVG/1.1/DTD/svg11.dtd">
<!-- Generated by graphviz version 2.40.1 (20161225.0304)
 -->
<!-- Title: src/engine Pages: 1 -->
<svg width="319pt" height="399pt"
 viewBox="0.00 0.00 319.08 399.00" xmlns="http://www.w3.org/2000/svg" xmlns:xlink="http://www.w3.org/1999/xlink">
<g id="graph0" class="graph" transform="scale(1 1) rotate(0) translate(4 395)">
<title>src/engine</title>
<g id="clust1" class="cluster">
<title>clusterdir_68267d1309a1af8e8297ef4c3efbcdba</title>
<g id="a_clust1"><a xlink:href="dir_68267d1309a1af8e8297ef4c3efbcdba.html" target="_top" xlink:title="src">
<polygon fill="#ddddee" stroke="#000000" points="8,-8 8,-383 238,-383 238,-8 8,-8"/>
<text text-anchor="middle" x="123" y="-371" font-family="Helvetica,sans-Serif" font-size="10.00" fill="#000000">src</text>
</a>
</g>
</g>
<g id="clust2" class="cluster">
<title>clusterdir_2052808828190f934b76e979ee65af8a</title>
<g id="a_clust2"><a xlink:href="dir_2052808828190f934b76e979ee65af8a.html" target="_top">
<polygon fill="#eeeeff" stroke="#000000" points="16,-16 16,-356 230,-356 230,-16 16,-16"/>
</a>
</g>
</g>
<!-- dir_2052808828190f934b76e979ee65af8a -->
<g id="node1" class="node">
<title>dir_2052808828190f934b76e979ee65af8a</title>
<text text-anchor="middle" x="195" y="-327.5" font-family="Helvetica,sans-Serif" font-size="10.00" fill="#000000">engine</text>
</g>
<!-- dir_4fe8ccee3eb27515a7d94c329d7794e3 -->
<g id="node2" class="node">
<title>dir_4fe8ccee3eb27515a7d94c329d7794e3</title>
<g id="a_node2"><a xlink:href="dir_4fe8ccee3eb27515a7d94c329d7794e3.html" target="_top" xlink:title="audio">
<polygon fill="#ffffff" stroke="#000000" points="78,-348 24,-348 24,-312 78,-312 78,-348"/>
<text text-anchor="middle" x="51" y="-327.5" font-family="Helvetica,sans-Serif" font-size="10.00" fill="#000000">audio</text>
</a>
</g>
</g>
<!-- dir_8c0f887d135e3a09c81f308091ce630b -->
<g id="node3" class="node">
<title>dir_8c0f887d135e3a09c81f308091ce630b</title>
<g id="a_node3"><a xlink:href="dir_8c0f887d135e3a09c81f308091ce630b.html" target="_top" xlink:title="basics">
<polygon fill="#ffffff" stroke="#000000" points="151,-276 97,-276 97,-240 151,-240 151,-276"/>
<text text-anchor="middle" x="124" y="-255.5" font-family="Helvetica,sans-Serif" font-size="10.00" fill="#000000">basics</text>
</a>
</g>
</g>
<!-- dir_4fe8ccee3eb27515a7d94c329d7794e3&#45;&gt;dir_8c0f887d135e3a09c81f308091ce630b -->
<g id="edge11" class="edge">
<title>dir_4fe8ccee3eb27515a7d94c329d7794e3&#45;&gt;dir_8c0f887d135e3a09c81f308091ce630b</title>
<path fill="none" stroke="#000000" d="M69.421,-311.8314C78.1529,-303.219 88.7317,-292.7851 98.2423,-283.4048"/>
<polygon fill="#000000" stroke="#000000" points="100.923,-285.6769 105.5849,-276.1628 96.0075,-280.6931 100.923,-285.6769"/>
<g id="a_edge11&#45;headlabel"><a xlink:href="dir_000003_000004.html" target="_top" xlink:title="1">
<text text-anchor="middle" x="100.3575" y="-287.7225" font-family="Helvetica,sans-Serif" font-size="10.00" fill="#000000">1</text>
</a>
</g>
</g>
<!-- dir_b7878ad5ecbf2506f4125b9d34c97e45 -->
<g id="node8" class="node">
<title>dir_b7878ad5ecbf2506f4125b9d34c97e45</title>
<g id="a_node8"><a xlink:href="dir_b7878ad5ecbf2506f4125b9d34c97e45.html" target="_top" xlink:title="util">
<polygon fill="none" stroke="#ff0000" points="300,-60 246,-60 246,-24 300,-24 300,-60"/>
<text text-anchor="middle" x="273" y="-39.5" font-family="Helvetica,sans-Serif" font-size="10.00" fill="#000000">util</text>
</a>
</g>
</g>
<!-- dir_4fe8ccee3eb27515a7d94c329d7794e3&#45;&gt;dir_b7878ad5ecbf2506f4125b9d34c97e45 -->
<g id="edge10" class="edge">
<title>dir_4fe8ccee3eb27515a7d94c329d7794e3&#45;&gt;dir_b7878ad5ecbf2506f4125b9d34c97e45</title>
<path fill="none" stroke="#000000" d="M78.1188,-316.4206C81.1144,-314.9266 84.1211,-313.4296 87,-312 159.2907,-276.1026 189.9047,-272.2449 233,-204 259.2398,-162.4472 268.2682,-104.8282 271.3734,-70.6823"/>
<polygon fill="#000000" stroke="#000000" points="274.8817,-70.7175 272.1878,-60.4709 267.9038,-70.1609 274.8817,-70.7175"/>
<g id="a_edge10&#45;headlabel"><a xlink:href="dir_000003_000016.html" target="_top" xlink:title="1">
<text text-anchor="middle" x="277.4263" y="-72.0264" font-family="Helvetica,sans-Serif" font-size="10.00" fill="#000000">1</text>
</a>
</g>
</g>
<!-- dir_3ccf6d3192f3ffcbe7eee38747026054 -->
<g id="node4" class="node">
<title>dir_3ccf6d3192f3ffcbe7eee38747026054</title>
<g id="a_node4"><a xlink:href="dir_3ccf6d3192f3ffcbe7eee38747026054.html" target="_top" xlink:title="common">
<polygon fill="#ffffff" stroke="#000000" points="153.5,-204 94.5,-204 94.5,-168 153.5,-168 153.5,-204"/>
<text text-anchor="middle" x="124" y="-183.5" font-family="Helvetica,sans-Serif" font-size="10.00" fill="#000000">common</text>
</a>
</g>
</g>
<!-- dir_8c0f887d135e3a09c81f308091ce630b&#45;&gt;dir_3ccf6d3192f3ffcbe7eee38747026054 -->
<g id="edge17" class="edge">
<title>dir_8c0f887d135e3a09c81f308091ce630b&#45;&gt;dir_3ccf6d3192f3ffcbe7eee38747026054</title>
<path fill="none" stroke="#000000" d="M118.0476,-239.8314C117.2972,-232.131 117.0763,-222.9743 117.3849,-214.4166"/>
<polygon fill="#000000" stroke="#000000" points="120.8792,-214.6161 118.024,-204.4133 113.8935,-214.1697 120.8792,-214.6161"/>
<g id="a_edge17&#45;headlabel"><a xlink:href="dir_000004_000005.html" target="_top" xlink:title="4">
<text text-anchor="middle" x="123.4836" y="-215.8844" font-family="Helvetica,sans-Serif" font-size="10.00" fill="#000000">4</text>
</a>
</g>
</g>
<!-- dir_8c0f887d135e3a09c81f308091ce630b&#45;&gt;dir_b7878ad5ecbf2506f4125b9d34c97e45 -->
<g id="edge16" class="edge">
<title>dir_8c0f887d135e3a09c81f308091ce630b&#45;&gt;dir_b7878ad5ecbf2506f4125b9d34c97e45</title>
<path fill="none" stroke="#000000" d="M137.0718,-239.5456C144.4273,-229.131 153.7615,-215.8642 162,-204 195.0615,-156.3887 233.1668,-100.5652 255.0344,-68.4368"/>
<polygon fill="#000000" stroke="#000000" points="258.0228,-70.2666 260.7539,-60.0298 252.2351,-66.3291 258.0228,-70.2666"/>
<g id="a_edge16&#45;headlabel"><a xlink:href="dir_000004_000016.html" target="_top" xlink:title="10">
<text text-anchor="middle" x="258.3483" y="-72.3357" font-family="Helvetica,sans-Serif" font-size="10.00" fill="#000000">10</text>
</a>
</g>
</g>
<!-- dir_3ccf6d3192f3ffcbe7eee38747026054&#45;&gt;dir_8c0f887d135e3a09c81f308091ce630b -->
<g id="edge9" class="edge">
<title>dir_3ccf6d3192f3ffcbe7eee38747026054&#45;&gt;dir_8c0f887d135e3a09c81f308091ce630b</title>
<path fill="none" stroke="#000000" d="M129.976,-204.4133C130.7071,-212.0593 130.9203,-221.1084 130.6155,-229.5726"/>
<polygon fill="#000000" stroke="#000000" points="127.1048,-229.6264 129.9524,-239.8314 134.0902,-230.078 127.1048,-229.6264"/>
<g id="a_edge9&#45;headlabel"><a xlink:href="dir_000005_000004.html" target="_top" xlink:title="2">
<text text-anchor="middle" x="124.5032" y="-223.3562" font-family="Helvetica,sans-Serif" font-size="10.00" fill="#000000">2</text>
</a>
</g>
</g>
<!-- dir_e1c1a612157aa4e0d7fb3dd5a06054d7 -->
<g id="node5" class="node">
<title>dir_e1c1a612157aa4e0d7fb3dd5a06054d7</title>
<g id="a_node5"><a xlink:href="dir_e1c1a612157aa4e0d7fb3dd5a06054d7.html" target="_top" xlink:title="GameObjects">
<polygon fill="#ffffff" stroke="#000000" points="159.5,-60 76.5,-60 76.5,-24 159.5,-24 159.5,-60"/>
<text text-anchor="middle" x="118" y="-39.5" font-family="Helvetica,sans-Serif" font-size="10.00" fill="#000000">GameObjects</text>
</a>
</g>
</g>
<!-- dir_3ccf6d3192f3ffcbe7eee38747026054&#45;&gt;dir_e1c1a612157aa4e0d7fb3dd5a06054d7 -->
<g id="edge8" class="edge">
<title>dir_3ccf6d3192f3ffcbe7eee38747026054&#45;&gt;dir_e1c1a612157aa4e0d7fb3dd5a06054d7</title>
<path fill="none" stroke="#000000" d="M107.9814,-167.9165C102.7439,-157.6179 98.1082,-144.3436 96,-132 92.4508,-111.2195 96.1415,-87.6301 101.7621,-69.8163"/>
<polygon fill="#000000" stroke="#000000" points="105.0881,-70.9094 105.1513,-60.3148 98.495,-68.5576 105.0881,-70.9094"/>
<g id="a_edge8&#45;headlabel"><a xlink:href="dir_000005_000006.html" target="_top" xlink:title="1">
<text text-anchor="middle" x="106.5547" y="-72.749" font-family="Helvetica,sans-Serif" font-size="10.00" fill="#000000">1</text>
</a>
</g>
</g>
<!-- dir_3e7675e027e995ce76f0b1e50f5f7211 -->
<g id="node6" class="node">
<title>dir_3e7675e027e995ce76f0b1e50f5f7211</title>
<g id="a_node6"><a xlink:href="dir_3e7675e027e995ce76f0b1e50f5f7211.html" target="_top" xlink:title="map">
<polygon fill="#ffffff" stroke="#000000" points="168,-132 114,-132 114,-96 168,-96 168,-132"/>
<text text-anchor="middle" x="141" y="-111.5" font-family="Helvetica,sans-Serif" font-size="10.00" fill="#000000">map</text>
</a>
</g>
</g>
<!-- dir_3ccf6d3192f3ffcbe7eee38747026054&#45;&gt;dir_3e7675e027e995ce76f0b1e50f5f7211 -->
<g id="edge7" class="edge">
<title>dir_3ccf6d3192f3ffcbe7eee38747026054&#45;&gt;dir_3e7675e027e995ce76f0b1e50f5f7211</title>
<path fill="none" stroke="#000000" d="M122.3374,-167.8314C123.4169,-160.0463 125.389,-150.7729 127.7524,-142.1347"/>
<polygon fill="#000000" stroke="#000000" points="131.1476,-142.9976 130.6764,-132.4133 124.4443,-140.9813 131.1476,-142.9976"/>
<g id="a_edge7&#45;headlabel"><a xlink:href="dir_000005_000007.html" target="_top" xlink:title="1">
<text text-anchor="middle" x="132.8313" y="-144.7577" font-family="Helvetica,sans-Serif" font-size="10.00" fill="#000000">1</text>
</a>
</g>
</g>
<!-- dir_e1c1a612157aa4e0d7fb3dd5a06054d7&#45;&gt;dir_8c0f887d135e3a09c81f308091ce630b -->
<g id="edge15" class="edge">
<title>dir_e1c1a612157aa4e0d7fb3dd5a06054d7&#45;&gt;dir_8c0f887d135e3a09c81f308091ce630b</title>
<path fill="none" stroke="#000000" d="M108.263,-60.3193C93.4378,-90.7016 68.5745,-153.2028 85,-204 88.1688,-213.7999 93.8532,-223.3169 99.9191,-231.5617"/>
<polygon fill="#000000" stroke="#000000" points="97.3529,-233.9602 106.2892,-239.6517 102.8526,-229.6297 97.3529,-233.9602"/>
<g id="a_edge15&#45;headlabel"><a xlink:href="dir_000006_000004.html" target="_top" xlink:title="3">
<text text-anchor="middle" x="92.8984" y="-230.3926" font-family="Helvetica,sans-Serif" font-size="10.00" fill="#000000">3</text>
</a>
</g>
</g>
<!-- dir_e1c1a612157aa4e0d7fb3dd5a06054d7&#45;&gt;dir_3ccf6d3192f3ffcbe7eee38747026054 -->
<g id="edge14" class="edge">
<title>dir_e1c1a612157aa4e0d7fb3dd5a06054d7&#45;&gt;dir_3ccf6d3192f3ffcbe7eee38747026054</title>
<path fill="none" stroke="#000000" d="M118.8387,-60.3148C115.8123,-78.5311 109.774,-107.2567 114,-132 115.4988,-140.7755 118.2751,-150.0215 120.8657,-158.3341"/>
<polygon fill="#000000" stroke="#000000" points="117.5319,-159.4007 123.8352,-167.9165 124.2182,-157.3286 117.5319,-159.4007"/>
<g id="a_edge14&#45;headlabel"><a xlink:href="dir_000006_000005.html" target="_top" xlink:title="1">
<text text-anchor="middle" x="113.7559" y="-154.3076" font-family="Helvetica,sans-Serif" font-size="10.00" fill="#000000">1</text>
</a>
</g>
</g>
<!-- dir_e1c1a612157aa4e0d7fb3dd5a06054d7&#45;&gt;dir_3e7675e027e995ce76f0b1e50f5f7211 -->
<g id="edge13" class="edge">
<title>dir_e1c1a612157aa4e0d7fb3dd5a06054d7&#45;&gt;dir_3e7675e027e995ce76f0b1e50f5f7211</title>
<path fill="none" stroke="#000000" d="M129.858,-60.4133C133.1021,-68.2292 136.2734,-77.5113 138.6934,-86.136"/>
<polygon fill="#000000" stroke="#000000" points="135.3007,-86.9965 141.1485,-95.8314 142.0866,-85.2781 135.3007,-86.9965"/>
<g id="a_edge13&#45;headlabel"><a xlink:href="dir_000006_000007.html" target="_top" xlink:title="1">
<text text-anchor="middle" x="131.666" y="-81.7089" font-family="Helvetica,sans-Serif" font-size="10.00" fill="#000000">1</text>
</a>
</g>
</g>
<!-- dir_e1c1a612157aa4e0d7fb3dd5a06054d7&#45;&gt;dir_b7878ad5ecbf2506f4125b9d34c97e45 -->
<g id="edge12" class="edge">
<title>dir_e1c1a612157aa4e0d7fb3dd5a06054d7&#45;&gt;dir_b7878ad5ecbf2506f4125b9d34c97e45</title>
<path fill="none" stroke="#000000" d="M159.7773,-42C185.0262,-42 210.2751,-42 235.524,-42"/>
<polygon fill="#000000" stroke="#000000" points="235.5789,-45.5001 245.5789,-42 235.5789,-38.5001 235.5789,-45.5001"/>
<g id="a_edge12&#45;headlabel"><a xlink:href="dir_000006_000016.html" target="_top" xlink:title="1">
<text text-anchor="middle" x="231.9843" y="-45.8393" font-family="Helvetica,sans-Serif" font-size="10.00" fill="#000000">1</text>
</a>
</g>
</g>
<!-- dir_3e7675e027e995ce76f0b1e50f5f7211&#45;&gt;dir_3ccf6d3192f3ffcbe7eee38747026054 -->
<g id="edge5" class="edge">
<title>dir_3e7675e027e995ce76f0b1e50f5f7211&#45;&gt;dir_3ccf6d3192f3ffcbe7eee38747026054</title>
<path fill="none" stroke="#000000" d="M142.6284,-132.4133C141.5304,-140.2292 139.5449,-149.5113 137.1734,-158.136"/>
<polygon fill="#000000" stroke="#000000" points="133.786,-157.2464 134.2422,-167.8314 140.4864,-159.2721 133.786,-157.2464"/>
<g id="a_edge5&#45;headlabel"><a xlink:href="dir_000007_000005.html" target="_top" xlink:title="3">
<text text-anchor="middle" x="132.1084" y="-150.4839" font-family="Helvetica,sans-Serif" font-size="10.00" fill="#000000">3</text>
</a>
</g>
</g>
<!-- dir_3e7675e027e995ce76f0b1e50f5f7211&#45;&gt;dir_e1c1a612157aa4e0d7fb3dd5a06054d7 -->
<g id="edge6" class="edge">
<title>dir_3e7675e027e995ce76f0b1e50f5f7211&#45;&gt;dir_e1c1a612157aa4e0d7fb3dd5a06054d7</title>
<path fill="none" stroke="#000000" d="M129.2437,-95.8314C125.9982,-88.0463 122.8184,-78.7729 120.3828,-70.1347"/>
<polygon fill="#000000" stroke="#000000" points="123.7666,-69.2396 117.906,-60.4133 116.9833,-70.9678 123.7666,-69.2396"/>
<g id="a_edge6&#45;headlabel"><a xlink:href="dir_000007_000006.html" target="_top" xlink:title="1">
<text text-anchor="middle" x="127.4054" y="-69.522" font-family="Helvetica,sans-Serif" font-size="10.00" fill="#000000">1</text>
</a>
</g>
</g>
<!-- dir_3e7675e027e995ce76f0b1e50f5f7211&#45;&gt;dir_b7878ad5ecbf2506f4125b9d34c97e45 -->
<g id="edge4" class="edge">
<title>dir_3e7675e027e995ce76f0b1e50f5f7211&#45;&gt;dir_b7878ad5ecbf2506f4125b9d34c97e45</title>
<path fill="none" stroke="#000000" d="M168.0307,-99.256C187.8301,-88.4563 214.9193,-73.6804 236.6189,-61.8442"/>
<polygon fill="#000000" stroke="#000000" points="238.4489,-64.8329 245.5518,-56.9717 235.0969,-58.6877 238.4489,-64.8329"/>
<g id="a_edge4&#45;headlabel"><a xlink:href="dir_000007_000016.html" target="_top" xlink:title="3">
<text text-anchor="middle" x="236.6528" y="-66.5468" font-family="Helvetica,sans-Serif" font-size="10.00" fill="#000000">3</text>
</a>
</g>
</g>
<!-- dir_dafb870456d4817504c840071e25f057 -->
<g id="node7" class="node">
<title>dir_dafb870456d4817504c840071e25f057</title>
<g id="a_node7"><a xlink:href="dir_dafb870456d4817504c840071e25f057.html" target="_top" xlink:title="ui">
<polygon fill="#ffffff" stroke="#ff0000" points="150,-348 96,-348 96,-312 150,-312 150,-348"/>
<text text-anchor="middle" x="123" y="-327.5" font-family="Helvetica,sans-Serif" font-size="10.00" fill="#000000">ui</text>
</a>
</g>
</g>
<!-- dir_dafb870456d4817504c840071e25f057&#45;&gt;dir_8c0f887d135e3a09c81f308091ce630b -->
<g id="edge3" class="edge">
<title>dir_dafb870456d4817504c840071e25f057&#45;&gt;dir_8c0f887d135e3a09c81f308091ce630b</title>
<path fill="none" stroke="#000000" d="M123.2523,-311.8314C123.3593,-304.131 123.4865,-294.9743 123.6053,-286.4166"/>
<polygon fill="#000000" stroke="#000000" points="127.1049,-286.4609 123.7443,-276.4133 120.1056,-286.3637 127.1049,-286.4609"/>
<g id="a_edge3&#45;headlabel"><a xlink:href="dir_000008_000004.html" target="_top" xlink:title="7">
<text text-anchor="middle" x="129.8941" y="-287.5946" font-family="Helvetica,sans-Serif" font-size="10.00" fill="#000000">7</text>
</a>
</g>
</g>
<!-- dir_dafb870456d4817504c840071e25f057&#45;&gt;dir_b7878ad5ecbf2506f4125b9d34c97e45 -->
<g id="edge2" class="edge">
<title>dir_dafb870456d4817504c840071e25f057&#45;&gt;dir_b7878ad5ecbf2506f4125b9d34c97e45</title>
<path fill="none" stroke="#000000" d="M150.2775,-315.6995C153.1887,-314.3729 156.1334,-313.1116 159,-312 213.6995,-290.7883 250.6215,-322.801 286,-276 332.2709,-214.7899 303.3148,-116.7767 284.8558,-69.4005"/>
<polygon fill="#000000" stroke="#000000" points="288.0891,-68.0598 281.107,-60.091 281.5958,-70.6746 288.0891,-68.0598"/>
<g id="a_edge2&#45;headlabel"><a xlink:href="dir_000008_000016.html" target="_top" xlink:title="8">
<text text-anchor="middle" x="292.0655" y="-67.8337" font-family="Helvetica,sans-Serif" font-size="10.00" fill="#000000">8</text>
</a>
</g>
</g>
<!-- dir_b7878ad5ecbf2506f4125b9d34c97e45&#45;&gt;dir_8c0f887d135e3a09c81f308091ce630b -->
<g id="edge1" class="edge">
<title>dir_b7878ad5ecbf2506f4125b9d34c97e45&#45;&gt;dir_8c0f887d135e3a09c81f308091ce630b</title>
<path fill="none" stroke="#000000" d="M267.5203,-60.1966C256.0337,-97.5046 228.932,-181.0848 210,-204 196.7359,-220.0548 177.402,-232.7907 160.424,-241.8523"/>
<polygon fill="#000000" stroke="#000000" points="158.6095,-238.8486 151.2876,-246.5063 161.7868,-245.086 158.6095,-238.8486"/>
<g id="a_edge1&#45;headlabel"><a xlink:href="dir_000016_000004.html" target="_top" xlink:title="3">
<text text-anchor="middle" x="160.5238" y="-232.1871" font-family="Helvetica,sans-Serif" font-size="10.00" fill="#000000">3</text>
</a>
</g>
</g>
</g>
</svg>
