<?xml version="1.0" encoding="UTF-8" standalone="no"?>
<!DOCTYPE svg PUBLIC "-//W3C//DTD SVG 1.1//EN"
 "http://www.w3.org/Graphics/SVG/1.1/DTD/svg11.dtd">
<!-- Generated by graphviz version 2.40.1 (20161225.0304)
 -->
<!-- Title: src/engine/Engine.cxx Pages: 1 -->
<svg width="1516pt" height="476pt"
 viewBox="0.00 0.00 1515.50 476.00" xmlns="http://www.w3.org/2000/svg" xmlns:xlink="http://www.w3.org/1999/xlink">
<g id="graph0" class="graph" transform="scale(1 1) rotate(0) translate(4 472)">
<title>src/engine/Engine.cxx</title>
<!-- Node0 -->
<g id="node1" class="node">
<title>Node0</title>
<polygon fill="#bfbfbf" stroke="#000000" points="813.5,-448.5 813.5,-467.5 936.5,-467.5 936.5,-448.5 813.5,-448.5"/>
<text text-anchor="middle" x="875" y="-455.5" font-family="Helvetica,sans-Serif" font-size="10.00" fill="#000000">src/engine/Engine.cxx</text>
</g>
<!-- Node1 -->
<g id="node2" class="node">
<title>Node1</title>
<g id="a_node2"><a xlink:href="Engine_8hxx.html" target="_top" xlink:title="Engine.hxx">
<polygon fill="none" stroke="#000000" points="702.5,-392.5 702.5,-411.5 773.5,-411.5 773.5,-392.5 702.5,-392.5"/>
<text text-anchor="middle" x="738" y="-399.5" font-family="Helvetica,sans-Serif" font-size="10.00" fill="#000000">Engine.hxx</text>
</a>
</g>
</g>
<!-- Node0&#45;&gt;Node1 -->
<g id="edge1" class="edge">
<title>Node0&#45;&gt;Node1</title>
<path fill="none" stroke="#191970" d="M851.4489,-448.3733C829.1609,-439.2629 795.5063,-425.5062 770.6363,-415.3404"/>
<polygon fill="#191970" stroke="#191970" points="771.8247,-412.0451 761.2438,-411.5011 769.1761,-418.5247 771.8247,-412.0451"/>
</g>
<!-- Node25 -->
<g id="node26" class="node">
<title>Node25</title>
<g id="a_node26"><a xlink:href="Camera_8hxx.html" target="_top" xlink:title="basics/Camera.hxx">
<polygon fill="none" stroke="#000000" points="66,-168.5 66,-187.5 176,-187.5 176,-168.5 66,-168.5"/>
<text text-anchor="middle" x="121" y="-175.5" font-family="Helvetica,sans-Serif" font-size="10.00" fill="#000000">basics/Camera.hxx</text>
</a>
</g>
</g>
<!-- Node0&#45;&gt;Node25 -->
<g id="edge44" class="edge">
<title>Node0&#45;&gt;Node25</title>
<path fill="none" stroke="#191970" d="M813.3,-455.8301C625.8872,-448.4271 76,-420.3692 76,-346 76,-346 76,-346 76,-290 76,-254.7698 95.4078,-217.5087 108.7324,-196.0783"/>
<polygon fill="#191970" stroke="#191970" points="111.6822,-197.9621 114.1655,-187.6623 105.8012,-194.1655 111.6822,-197.9621"/>
</g>
<!-- Node26 -->
<g id="node27" class="node">
<title>Node26</title>
<g id="a_node27"><a xlink:href="mapEdit_8hxx.html" target="_top" xlink:title="basics/mapEdit.hxx">
<polygon fill="none" stroke="#000000" points="1146,-336.5 1146,-355.5 1258,-355.5 1258,-336.5 1146,-336.5"/>
<text text-anchor="middle" x="1202" y="-343.5" font-family="Helvetica,sans-Serif" font-size="10.00" fill="#000000">basics/mapEdit.hxx</text>
</a>
</g>
</g>
<!-- Node0&#45;&gt;Node26 -->
<g id="edge47" class="edge">
<title>Node0&#45;&gt;Node26</title>
<path fill="none" stroke="#191970" d="M902.8798,-448.4509C961.6427,-428.3242 1098.2466,-381.5363 1164.5548,-358.8253"/>
<polygon fill="#191970" stroke="#191970" points="1165.8644,-362.0764 1174.1907,-355.5249 1163.5961,-355.4541 1165.8644,-362.0764"/>
</g>
<!-- Node27 -->
<g id="node28" class="node">
<title>Node27</title>
<g id="a_node28"><a xlink:href="Settings_8hxx.html" target="_top" xlink:title="basics/Settings.hxx">
<polygon fill="none" stroke="#000000" points="1272.5,-224.5 1272.5,-243.5 1383.5,-243.5 1383.5,-224.5 1272.5,-224.5"/>
<text text-anchor="middle" x="1328" y="-231.5" font-family="Helvetica,sans-Serif" font-size="10.00" fill="#000000">basics/Settings.hxx</text>
</a>
</g>
</g>
<!-- Node0&#45;&gt;Node27 -->
<g id="edge49" class="edge">
<title>Node0&#45;&gt;Node27</title>
<path fill="none" stroke="#191970" d="M935.8974,-448.468C1032.7849,-432.2824 1216.2793,-397.1457 1267,-356 1299.8117,-329.3825 1316.5171,-280.6075 1323.629,-253.4891"/>
<polygon fill="#191970" stroke="#191970" points="1327.0648,-254.1732 1326.0393,-243.6281 1320.265,-252.5111 1327.0648,-254.1732"/>
</g>
<!-- Node33 -->
<g id="node34" class="node">
<title>Node33</title>
<g id="a_node34"><a xlink:href="ResourcesManager_8hxx.html" target="_top" xlink:title="ResourcesManager.hxx">
<polygon fill="none" stroke="#000000" points="811,-224.5 811,-243.5 939,-243.5 939,-224.5 811,-224.5"/>
<text text-anchor="middle" x="875" y="-231.5" font-family="Helvetica,sans-Serif" font-size="10.00" fill="#000000">ResourcesManager.hxx</text>
</a>
</g>
</g>
<!-- Node0&#45;&gt;Node33 -->
<g id="edge58" class="edge">
<title>Node0&#45;&gt;Node33</title>
<path fill="none" stroke="#191970" d="M875,-448.375C875,-414.4851 875,-300.2317 875,-253.8332"/>
<polygon fill="#191970" stroke="#191970" points="878.5001,-253.5891 875,-243.5891 871.5001,-253.5892 878.5001,-253.5891"/>
</g>
<!-- Node2 -->
<g id="node3" class="node">
<title>Node2</title>
<polygon fill="none" stroke="#bfbfbf" points="422,-112.5 422,-131.5 466,-131.5 466,-112.5 422,-112.5"/>
<text text-anchor="middle" x="444" y="-119.5" font-family="Helvetica,sans-Serif" font-size="10.00" fill="#000000">SDL.h</text>
</g>
<!-- Node1&#45;&gt;Node2 -->
<g id="edge2" class="edge">
<title>Node1&#45;&gt;Node2</title>
<path fill="none" stroke="#191970" d="M726.2758,-392.2278C706.1098,-374.249 667,-333.7424 667,-290 667,-290 667,-290 667,-234 667,-178.8799 611.232,-192.7878 562,-168 533.8182,-153.8107 500.1537,-141.0752 476.0083,-132.622"/>
<polygon fill="#191970" stroke="#191970" points="476.8815,-129.2209 466.2867,-129.2697 474.5994,-135.8385 476.8815,-129.2209"/>
</g>
<!-- Node3 -->
<g id="node4" class="node">
<title>Node3</title>
<g id="a_node4"><a xlink:href="WindowManager_8hxx.html" target="_top" xlink:title="WindowManager.hxx">
<polygon fill="none" stroke="#000000" points="918,-168.5 918,-187.5 1036,-187.5 1036,-168.5 918,-168.5"/>
<text text-anchor="middle" x="977" y="-175.5" font-family="Helvetica,sans-Serif" font-size="10.00" fill="#000000">WindowManager.hxx</text>
</a>
</g>
</g>
<!-- Node1&#45;&gt;Node3 -->
<g id="edge3" class="edge">
<title>Node1&#45;&gt;Node3</title>
<path fill="none" stroke="#191970" d="M756.5133,-392.4125C796.4811,-370.8862 891.768,-314.9938 948,-244 959.0226,-230.0838 966.7335,-211.3268 971.4186,-197.3656"/>
<polygon fill="#191970" stroke="#191970" points="974.7707,-198.3728 974.4163,-187.7839 968.0901,-196.2827 974.7707,-198.3728"/>
</g>
<!-- Node7 -->
<g id="node8" class="node">
<title>Node7</title>
<g id="a_node8"><a xlink:href="Singleton_8hxx.html" target="_top" xlink:title="../util/Singleton.hxx">
<polygon fill="none" stroke="#000000" points="1026.5,-112.5 1026.5,-131.5 1137.5,-131.5 1137.5,-112.5 1026.5,-112.5"/>
<text text-anchor="middle" x="1082" y="-119.5" font-family="Helvetica,sans-Serif" font-size="10.00" fill="#000000">../util/Singleton.hxx</text>
</a>
</g>
</g>
<!-- Node1&#45;&gt;Node7 -->
<g id="edge43" class="edge">
<title>Node1&#45;&gt;Node7</title>
<path fill="none" stroke="#191970" d="M773.7433,-397.9409C861.037,-387.0376 1078,-353.5463 1078,-290 1078,-290 1078,-290 1078,-234 1078,-201.691 1079.683,-164.1727 1080.8656,-141.7971"/>
<polygon fill="#191970" stroke="#191970" points="1084.3728,-141.7613 1081.4269,-131.5843 1077.3833,-141.3771 1084.3728,-141.7613"/>
</g>
<!-- Node8 -->
<g id="node9" class="node">
<title>Node8</title>
<g id="a_node9"><a xlink:href="point_8hxx.html" target="_top" xlink:title="basics/point.hxx">
<polygon fill="none" stroke="#000000" points="32,-112.5 32,-131.5 128,-131.5 128,-112.5 32,-112.5"/>
<text text-anchor="middle" x="80" y="-119.5" font-family="Helvetica,sans-Serif" font-size="10.00" fill="#000000">basics/point.hxx</text>
</a>
</g>
</g>
<!-- Node1&#45;&gt;Node8 -->
<g id="edge9" class="edge">
<title>Node1&#45;&gt;Node8</title>
<path fill="none" stroke="#191970" d="M702.4047,-400.404C554.9865,-393.3303 0,-361.9236 0,-290 0,-290 0,-290 0,-234 0,-193.601 34.8919,-157.7136 58.5894,-137.9987"/>
<polygon fill="#191970" stroke="#191970" points="60.8125,-140.7024 66.4291,-131.7189 56.4361,-135.2391 60.8125,-140.7024"/>
</g>
<!-- Node9 -->
<g id="node10" class="node">
<title>Node9</title>
<g id="a_node10"><a xlink:href="Map_8hxx.html" target="_top" xlink:title="Map.hxx">
<polygon fill="none" stroke="#000000" points="421,-336.5 421,-355.5 479,-355.5 479,-336.5 421,-336.5"/>
<text text-anchor="middle" x="450" y="-343.5" font-family="Helvetica,sans-Serif" font-size="10.00" fill="#000000">Map.hxx</text>
</a>
</g>
</g>
<!-- Node1&#45;&gt;Node9 -->
<g id="edge10" class="edge">
<title>Node1&#45;&gt;Node9</title>
<path fill="none" stroke="#191970" d="M702.3967,-395.0771C648.1336,-384.526 545.1278,-364.4971 488.9402,-353.5717"/>
<polygon fill="#191970" stroke="#191970" points="489.5001,-350.1151 479.0159,-351.642 488.164,-356.9864 489.5001,-350.1151"/>
</g>
<!-- Node3&#45;&gt;Node2 -->
<g id="edge7" class="edge">
<title>Node3&#45;&gt;Node2</title>
<path fill="none" stroke="#191970" d="M917.9081,-173.3228C801.0374,-163.9709 546.2397,-143.045 476.1303,-131.6231"/>
<polygon fill="#191970" stroke="#191970" points="476.6603,-128.1621 466.1941,-129.8075 475.4021,-135.048 476.6603,-128.1621"/>
</g>
<!-- Node4 -->
<g id="node5" class="node">
<title>Node4</title>
<polygon fill="none" stroke="#bfbfbf" points="882,-56.5 882,-75.5 926,-75.5 926,-56.5 882,-56.5"/>
<text text-anchor="middle" x="904" y="-63.5" font-family="Helvetica,sans-Serif" font-size="10.00" fill="#000000">string</text>
</g>
<!-- Node3&#45;&gt;Node4 -->
<g id="edge4" class="edge">
<title>Node3&#45;&gt;Node4</title>
<path fill="none" stroke="#191970" d="M979.1468,-168.2943C981.6045,-154.7213 984.099,-129.7443 974,-112 965.4442,-96.9672 949.7273,-85.9733 935.3509,-78.5103"/>
<polygon fill="#191970" stroke="#191970" points="936.7154,-75.283 926.1858,-74.1091 933.6851,-81.5931 936.7154,-75.283"/>
</g>
<!-- Node5 -->
<g id="node6" class="node">
<title>Node5</title>
<polygon fill="none" stroke="#bfbfbf" points="1156,-112.5 1156,-131.5 1216,-131.5 1216,-112.5 1156,-112.5"/>
<text text-anchor="middle" x="1186" y="-119.5" font-family="Helvetica,sans-Serif" font-size="10.00" fill="#000000">iostream</text>
</g>
<!-- Node3&#45;&gt;Node5 -->
<g id="edge5" class="edge">
<title>Node3&#45;&gt;Node5</title>
<path fill="none" stroke="#191970" d="M1012.9284,-168.3733C1049.9979,-158.4408 1107.6786,-142.9856 1146.1329,-132.6821"/>
<polygon fill="#191970" stroke="#191970" points="1147.1995,-136.0199 1155.9529,-130.0509 1145.3877,-129.2584 1147.1995,-136.0199"/>
</g>
<!-- Node6 -->
<g id="node7" class="node">
<title>Node6</title>
<polygon fill="none" stroke="#bfbfbf" points="225.5,-56.5 225.5,-75.5 272.5,-75.5 272.5,-56.5 225.5,-56.5"/>
<text text-anchor="middle" x="249" y="-63.5" font-family="Helvetica,sans-Serif" font-size="10.00" fill="#000000">vector</text>
</g>
<!-- Node3&#45;&gt;Node6 -->
<g id="edge6" class="edge">
<title>Node3&#45;&gt;Node6</title>
<path fill="none" stroke="#191970" d="M974.7331,-168.3093C970.6511,-153.2893 960.5099,-124.7886 940,-112 878.5273,-73.6696 360.6292,-86.8338 289,-76 286.8148,-75.6695 284.5748,-75.2732 282.3251,-74.8319"/>
<polygon fill="#191970" stroke="#191970" points="283.0584,-71.4096 272.5391,-72.6726 281.55,-78.2452 283.0584,-71.4096"/>
</g>
<!-- Node3&#45;&gt;Node7 -->
<g id="edge8" class="edge">
<title>Node3&#45;&gt;Node7</title>
<path fill="none" stroke="#191970" d="M995.2896,-168.2455C1011.7762,-159.4527 1036.2352,-146.4079 1054.9765,-136.4125"/>
<polygon fill="#191970" stroke="#191970" points="1056.7435,-139.4368 1063.92,-131.6427 1053.4494,-133.2604 1056.7435,-139.4368"/>
</g>
<!-- Node9&#45;&gt;Node6 -->
<g id="edge11" class="edge">
<title>Node9&#45;&gt;Node6</title>
<path fill="none" stroke="#191970" d="M420.7032,-344.5138C330.3309,-338.0994 59.7649,-304.5407 23,-132 21.1475,-123.3063 17.3762,-118.8837 23,-112 46.8583,-82.7964 157.9585,-71.6645 215.0022,-67.8208"/>
<polygon fill="#191970" stroke="#191970" points="215.562,-71.2923 225.32,-67.1655 215.1183,-64.3064 215.562,-71.2923"/>
</g>
<!-- Node10 -->
<g id="node11" class="node">
<title>Node10</title>
<polygon fill="none" stroke="#bfbfbf" points="423,-280.5 423,-299.5 477,-299.5 477,-280.5 423,-280.5"/>
<text text-anchor="middle" x="450" y="-287.5" font-family="Helvetica,sans-Serif" font-size="10.00" fill="#000000">random</text>
</g>
<!-- Node9&#45;&gt;Node10 -->
<g id="edge12" class="edge">
<title>Node9&#45;&gt;Node10</title>
<path fill="none" stroke="#191970" d="M450,-336.2455C450,-328.9382 450,-318.6944 450,-309.7046"/>
<polygon fill="#191970" stroke="#191970" points="453.5001,-309.6426 450,-299.6427 446.5001,-309.6427 453.5001,-309.6426"/>
</g>
<!-- Node11 -->
<g id="node12" class="node">
<title>Node11</title>
<g id="a_node12"><a xlink:href="MapNode_8hxx.html" target="_top" xlink:title="GameObjects/MapNode.hxx">
<polygon fill="none" stroke="#000000" points="319,-224.5 319,-243.5 471,-243.5 471,-224.5 319,-224.5"/>
<text text-anchor="middle" x="395" y="-231.5" font-family="Helvetica,sans-Serif" font-size="10.00" fill="#000000">GameObjects/MapNode.hxx</text>
</a>
</g>
</g>
<!-- Node9&#45;&gt;Node11 -->
<g id="edge13" class="edge">
<title>Node9&#45;&gt;Node11</title>
<path fill="none" stroke="#191970" d="M440.4743,-336.1898C432.3877,-327.3706 421.0108,-313.7278 414,-300 406.5432,-285.3988 401.6153,-267.4424 398.651,-253.9473"/>
<polygon fill="#191970" stroke="#191970" points="402.0189,-252.9425 396.6104,-243.8322 395.1572,-254.3269 402.0189,-252.9425"/>
</g>
<!-- Node23 -->
<g id="node24" class="node">
<title>Node23</title>
<g id="a_node24"><a xlink:href="TerrainGenerator_8hxx.html" target="_top" xlink:title="map/TerrainGenerator.hxx">
<polygon fill="none" stroke="#000000" points="495.5,-280.5 495.5,-299.5 638.5,-299.5 638.5,-280.5 495.5,-280.5"/>
<text text-anchor="middle" x="567" y="-287.5" font-family="Helvetica,sans-Serif" font-size="10.00" fill="#000000">map/TerrainGenerator.hxx</text>
</a>
</g>
</g>
<!-- Node9&#45;&gt;Node23 -->
<g id="edge39" class="edge">
<title>Node9&#45;&gt;Node23</title>
<path fill="none" stroke="#191970" d="M470.113,-336.3733C488.8103,-327.4241 516.8744,-313.9917 537.9934,-303.8835"/>
<polygon fill="#191970" stroke="#191970" points="539.6405,-306.9755 547.1494,-299.5011 536.6183,-300.6614 539.6405,-306.9755"/>
</g>
<!-- Node11&#45;&gt;Node2 -->
<g id="edge14" class="edge">
<title>Node11&#45;&gt;Node2</title>
<path fill="none" stroke="#191970" d="M449.2751,-224.4773C487.6241,-216.5154 534.2146,-203.9104 546,-188 551.2909,-180.8573 550.8234,-175.4664 546,-168 541.8511,-161.5777 504.2276,-145.6569 475.8717,-134.3496"/>
<polygon fill="#191970" stroke="#191970" points="476.8849,-130.9866 466.2984,-130.5656 474.3117,-137.4965 476.8849,-130.9866"/>
</g>
<!-- Node11&#45;&gt;Node4 -->
<g id="edge16" class="edge">
<title>Node11&#45;&gt;Node4</title>
<path fill="none" stroke="#191970" d="M432.0228,-224.4827C462.95,-215.6952 503.4777,-201.9323 513,-188 548.4277,-136.1647 459.5707,-198.2621 413,-132 407.8888,-124.7276 407.0149,-118.572 413,-112 443.8659,-78.1072 766.7408,-68.7284 871.4296,-66.5684"/>
<polygon fill="#191970" stroke="#191970" points="871.7729,-70.0624 881.7018,-66.3654 871.6346,-63.0637 871.7729,-70.0624"/>
</g>
<!-- Node11&#45;&gt;Node6 -->
<g id="edge18" class="edge">
<title>Node11&#45;&gt;Node6</title>
<path fill="none" stroke="#191970" d="M327.3359,-224.4731C284.9544,-216.9632 235.9879,-204.9178 223,-188 199.4958,-157.3837 221.322,-110.2635 236.7521,-84.4598"/>
<polygon fill="#191970" stroke="#191970" points="239.9014,-86.0254 242.2449,-75.6929 233.9695,-82.3088 239.9014,-86.0254"/>
</g>
<!-- Node11&#45;&gt;Node8 -->
<g id="edge27" class="edge">
<title>Node11&#45;&gt;Node8</title>
<path fill="none" stroke="#191970" d="M318.8013,-228.8685C224.4334,-221.7235 73.9677,-207.4333 57,-188 45.1038,-174.3751 54.8593,-154.2402 65.0854,-139.7959"/>
<polygon fill="#191970" stroke="#191970" points="68.0244,-141.7147 71.3241,-131.6467 62.4661,-137.4595 68.0244,-141.7147"/>
</g>
<!-- Node12 -->
<g id="node13" class="node">
<title>Node12</title>
<polygon fill="none" stroke="#bfbfbf" points="364,-168.5 364,-187.5 422,-187.5 422,-168.5 364,-168.5"/>
<text text-anchor="middle" x="393" y="-175.5" font-family="Helvetica,sans-Serif" font-size="10.00" fill="#000000">memory</text>
</g>
<!-- Node11&#45;&gt;Node12 -->
<g id="edge15" class="edge">
<title>Node11&#45;&gt;Node12</title>
<path fill="none" stroke="#191970" d="M394.6516,-224.2455C394.3907,-216.9382 394.0248,-206.6944 393.7037,-197.7046"/>
<polygon fill="#191970" stroke="#191970" points="397.1992,-197.5113 393.3444,-187.6427 390.2036,-197.7613 397.1992,-197.5113"/>
</g>
<!-- Node13 -->
<g id="node14" class="node">
<title>Node13</title>
<polygon fill="none" stroke="#bfbfbf" points="440,-168.5 440,-187.5 504,-187.5 504,-168.5 440,-168.5"/>
<text text-anchor="middle" x="472" y="-175.5" font-family="Helvetica,sans-Serif" font-size="10.00" fill="#000000">algorithm</text>
</g>
<!-- Node11&#45;&gt;Node13 -->
<g id="edge17" class="edge">
<title>Node11&#45;&gt;Node13</title>
<path fill="none" stroke="#191970" d="M408.4124,-224.2455C420.0057,-215.814 436.9748,-203.4729 450.4678,-193.6598"/>
<polygon fill="#191970" stroke="#191970" points="452.7126,-196.355 458.7413,-187.6427 448.5953,-190.6938 452.7126,-196.355"/>
</g>
<!-- Node14 -->
<g id="node15" class="node">
<title>Node14</title>
<g id="a_node15"><a xlink:href="Sprite_8hxx.html" target="_top" xlink:title="../Sprite.hxx">
<polygon fill="none" stroke="#000000" points="232.5,-168.5 232.5,-187.5 307.5,-187.5 307.5,-168.5 232.5,-168.5"/>
<text text-anchor="middle" x="270" y="-175.5" font-family="Helvetica,sans-Serif" font-size="10.00" fill="#000000">../Sprite.hxx</text>
</a>
</g>
</g>
<!-- Node11&#45;&gt;Node14 -->
<g id="edge19" class="edge">
<title>Node11&#45;&gt;Node14</title>
<path fill="none" stroke="#191970" d="M373.5117,-224.3733C353.356,-215.3435 323.012,-201.7494 300.382,-191.6111"/>
<polygon fill="#191970" stroke="#191970" points="301.7649,-188.3955 291.2079,-187.5011 298.9029,-194.7838 301.7649,-188.3955"/>
</g>
<!-- Node15 -->
<g id="node16" class="node">
<title>Node15</title>
<g id="a_node16"><a xlink:href="enums_8hxx.html" target="_top" xlink:title="common/enums.hxx">
<polygon fill="none" stroke="#000000" points="298,-56.5 298,-75.5 414,-75.5 414,-56.5 298,-56.5"/>
<text text-anchor="middle" x="356" y="-63.5" font-family="Helvetica,sans-Serif" font-size="10.00" fill="#000000">common/enums.hxx</text>
</a>
</g>
</g>
<!-- Node11&#45;&gt;Node15 -->
<g id="edge26" class="edge">
<title>Node11&#45;&gt;Node15</title>
<path fill="none" stroke="#191970" d="M382.5788,-224.18C372.9984,-215.7529 360.4865,-202.6707 355,-188 342.1963,-153.7632 347.109,-110.2461 351.671,-85.5181"/>
<polygon fill="#191970" stroke="#191970" points="355.1292,-86.0745 353.6774,-75.5796 348.2676,-84.6892 355.1292,-86.0745"/>
</g>
<!-- Node18 -->
<g id="node19" class="node">
<title>Node18</title>
<g id="a_node19"><a xlink:href="TileManager_8hxx.html" target="_top" xlink:title="../TileManager.hxx">
<polygon fill="none" stroke="#000000" points="733,-168.5 733,-187.5 839,-187.5 839,-168.5 733,-168.5"/>
<text text-anchor="middle" x="786" y="-175.5" font-family="Helvetica,sans-Serif" font-size="10.00" fill="#000000">../TileManager.hxx</text>
</a>
</g>
</g>
<!-- Node11&#45;&gt;Node18 -->
<g id="edge28" class="edge">
<title>Node11&#45;&gt;Node18</title>
<path fill="none" stroke="#191970" d="M461.771,-224.4369C534.8443,-213.9712 651.1109,-197.3192 722.757,-187.0578"/>
<polygon fill="#191970" stroke="#191970" points="723.5908,-190.4742 732.9935,-185.5917 722.5983,-183.5449 723.5908,-190.4742"/>
</g>
<!-- Node14&#45;&gt;Node2 -->
<g id="edge20" class="edge">
<title>Node14&#45;&gt;Node2</title>
<path fill="none" stroke="#191970" d="M299.9117,-168.3733C331.2125,-158.2994 380.1647,-142.5447 412.166,-132.2454"/>
<polygon fill="#191970" stroke="#191970" points="413.4697,-135.5027 421.9166,-129.1073 411.3251,-128.8393 413.4697,-135.5027"/>
</g>
<!-- Node14&#45;&gt;Node6 -->
<g id="edge21" class="edge">
<title>Node14&#45;&gt;Node6</title>
<path fill="none" stroke="#191970" d="M268.2096,-168.4509C264.769,-150.1013 257.1733,-109.5908 252.6317,-85.3693"/>
<polygon fill="#191970" stroke="#191970" points="256.0689,-84.7086 250.7859,-75.5249 249.1888,-85.9986 256.0689,-84.7086"/>
</g>
<!-- Node14&#45;&gt;Node8 -->
<g id="edge22" class="edge">
<title>Node14&#45;&gt;Node8</title>
<path fill="none" stroke="#191970" d="M237.3378,-168.3733C205.4702,-158.9807 156.8469,-144.6496 122.093,-134.4064"/>
<polygon fill="#191970" stroke="#191970" points="122.8175,-130.9711 112.236,-131.5011 120.8385,-137.6855 122.8175,-130.9711"/>
</g>
<!-- Node14&#45;&gt;Node15 -->
<g id="edge23" class="edge">
<title>Node14&#45;&gt;Node15</title>
<path fill="none" stroke="#191970" d="M277.3323,-168.4509C291.7396,-149.688 323.9383,-107.7548 342.3644,-83.758"/>
<polygon fill="#191970" stroke="#191970" points="345.372,-85.588 348.6862,-75.5249 339.8199,-81.3248 345.372,-85.588"/>
</g>
<!-- Node16 -->
<g id="node17" class="node">
<title>Node16</title>
<polygon fill="none" stroke="#bfbfbf" points="280,-.5 280,-19.5 336,-19.5 336,-.5 280,-.5"/>
<text text-anchor="middle" x="308" y="-7.5" font-family="Helvetica,sans-Serif" font-size="10.00" fill="#000000">stddef.h</text>
</g>
<!-- Node15&#45;&gt;Node16 -->
<g id="edge24" class="edge">
<title>Node15&#45;&gt;Node16</title>
<path fill="none" stroke="#191970" d="M347.639,-56.2455C340.825,-48.2958 331.0319,-36.8706 322.8848,-27.3656"/>
<polygon fill="#191970" stroke="#191970" points="325.4305,-24.9575 316.2651,-19.6427 320.1157,-29.513 325.4305,-24.9575"/>
</g>
<!-- Node17 -->
<g id="node18" class="node">
<title>Node17</title>
<polygon fill="none" stroke="#bfbfbf" points="354,-.5 354,-19.5 454,-19.5 454,-.5 354,-.5"/>
<text text-anchor="middle" x="404" y="-7.5" font-family="Helvetica,sans-Serif" font-size="10.00" fill="#000000">betterEnums.hxx</text>
</g>
<!-- Node15&#45;&gt;Node17 -->
<g id="edge25" class="edge">
<title>Node15&#45;&gt;Node17</title>
<path fill="none" stroke="#191970" d="M364.361,-56.2455C371.175,-48.2958 380.9681,-36.8706 389.1152,-27.3656"/>
<polygon fill="#191970" stroke="#191970" points="391.8843,-29.513 395.7349,-19.6427 386.5695,-24.9575 391.8843,-29.513"/>
</g>
<!-- Node18&#45;&gt;Node2 -->
<g id="edge29" class="edge">
<title>Node18&#45;&gt;Node2</title>
<path fill="none" stroke="#191970" d="M732.971,-170.0768C728.2467,-169.3735 723.537,-168.6733 719,-168 613.7457,-152.3805 583.5071,-156.6369 476.1614,-131.9705"/>
<polygon fill="#191970" stroke="#191970" points="476.7604,-128.5164 466.2271,-129.6567 475.1725,-135.3339 476.7604,-128.5164"/>
</g>
<!-- Node18&#45;&gt;Node4 -->
<g id="edge31" class="edge">
<title>Node18&#45;&gt;Node4</title>
<path fill="none" stroke="#191970" d="M790.6843,-168.0805C797.5801,-154.2534 811.554,-128.9766 829,-112 842.111,-99.2418 859.3696,-88.3531 874.0255,-80.377"/>
<polygon fill="#191970" stroke="#191970" points="875.9765,-83.3062 883.2109,-75.5658 872.7285,-77.1053 875.9765,-83.3062"/>
</g>
<!-- Node18&#45;&gt;Node7 -->
<g id="edge37" class="edge">
<title>Node18&#45;&gt;Node7</title>
<path fill="none" stroke="#191970" d="M836.5479,-168.4369C887.8445,-158.7321 967.2579,-143.708 1021.7818,-133.3926"/>
<polygon fill="#191970" stroke="#191970" points="1022.4855,-136.8217 1031.6606,-131.5237 1021.1842,-129.9437 1022.4855,-136.8217"/>
</g>
<!-- Node19 -->
<g id="node20" class="node">
<title>Node19</title>
<polygon fill="none" stroke="#bfbfbf" points="838.5,-112.5 838.5,-131.5 931.5,-131.5 931.5,-112.5 838.5,-112.5"/>
<text text-anchor="middle" x="885" y="-119.5" font-family="Helvetica,sans-Serif" font-size="10.00" fill="#000000">unordered_map</text>
</g>
<!-- Node18&#45;&gt;Node19 -->
<g id="edge30" class="edge">
<title>Node18&#45;&gt;Node19</title>
<path fill="none" stroke="#191970" d="M803.2445,-168.2455C818.5761,-159.5731 841.2199,-146.7645 858.7916,-136.825"/>
<polygon fill="#191970" stroke="#191970" points="860.9724,-139.6126 867.9531,-131.6427 857.5259,-133.5198 860.9724,-139.6126"/>
</g>
<!-- Node20 -->
<g id="node21" class="node">
<title>Node20</title>
<g id="a_node21"><a xlink:href="tileData_8hxx.html" target="_top" xlink:title="tileData.hxx">
<polygon fill="none" stroke="#000000" points="484.5,-112.5 484.5,-131.5 561.5,-131.5 561.5,-112.5 484.5,-112.5"/>
<text text-anchor="middle" x="523" y="-119.5" font-family="Helvetica,sans-Serif" font-size="10.00" fill="#000000">tileData.hxx</text>
</a>
</g>
</g>
<!-- Node18&#45;&gt;Node20 -->
<g id="edge32" class="edge">
<title>Node18&#45;&gt;Node20</title>
<path fill="none" stroke="#191970" d="M741.0875,-168.4369C693.9704,-158.4043 620.1553,-142.6871 571.6737,-132.364"/>
<polygon fill="#191970" stroke="#191970" points="572.2411,-128.9064 561.7315,-130.247 570.7833,-135.7529 572.2411,-128.9064"/>
</g>
<!-- Node21 -->
<g id="node22" class="node">
<title>Node21</title>
<polygon fill="none" stroke="#bfbfbf" points="580,-112.5 580,-131.5 638,-131.5 638,-112.5 580,-112.5"/>
<text text-anchor="middle" x="609" y="-119.5" font-family="Helvetica,sans-Serif" font-size="10.00" fill="#000000">json.hxx</text>
</g>
<!-- Node18&#45;&gt;Node21 -->
<g id="edge36" class="edge">
<title>Node18&#45;&gt;Node21</title>
<path fill="none" stroke="#191970" d="M755.5726,-168.3733C725.7441,-158.936 680.1573,-144.5131 647.7515,-134.2604"/>
<polygon fill="#191970" stroke="#191970" points="648.7397,-130.9021 638.1497,-131.2225 646.6281,-137.576 648.7397,-130.9021"/>
</g>
<!-- Node22 -->
<g id="node23" class="node">
<title>Node22</title>
<polygon fill="none" stroke="#bfbfbf" points="656.5,-112.5 656.5,-131.5 781.5,-131.5 781.5,-112.5 656.5,-112.5"/>
<text text-anchor="middle" x="719" y="-119.5" font-family="Helvetica,sans-Serif" font-size="10.00" fill="#000000">../common/enums.hxx</text>
</g>
<!-- Node18&#45;&gt;Node22 -->
<g id="edge38" class="edge">
<title>Node18&#45;&gt;Node22</title>
<path fill="none" stroke="#191970" d="M774.3295,-168.2455C764.4339,-159.9746 750.0373,-147.9416 738.4099,-138.2232"/>
<polygon fill="#191970" stroke="#191970" points="740.4542,-135.3703 730.5368,-131.6427 735.965,-140.7413 740.4542,-135.3703"/>
</g>
<!-- Node20&#45;&gt;Node4 -->
<g id="edge33" class="edge">
<title>Node20&#45;&gt;Node4</title>
<path fill="none" stroke="#191970" d="M561.7293,-113.6952C564.8609,-113.0957 567.9805,-112.5225 571,-112 680.8558,-92.9918 812.1853,-76.7376 871.7694,-69.7117"/>
<polygon fill="#191970" stroke="#191970" points="872.1812,-73.1874 881.7059,-68.5473 871.3665,-66.235 872.1812,-73.1874"/>
</g>
<!-- Node20&#45;&gt;Node6 -->
<g id="edge34" class="edge">
<title>Node20&#45;&gt;Node6</title>
<path fill="none" stroke="#191970" d="M484.4975,-113.9285C481.2858,-113.2704 478.0878,-112.6204 475,-112 392.4491,-95.413 371.2065,-94.2174 289,-76 286.8423,-75.5218 284.6232,-75.0135 282.3889,-74.4894"/>
<polygon fill="#191970" stroke="#191970" points="283.1818,-71.0803 272.6395,-72.1335 281.5376,-77.8845 283.1818,-71.0803"/>
</g>
<!-- Node20&#45;&gt;Node15 -->
<g id="edge35" class="edge">
<title>Node20&#45;&gt;Node15</title>
<path fill="none" stroke="#191970" d="M494.2917,-112.3733C466.6423,-103.1016 424.6424,-89.0178 394.1834,-78.804"/>
<polygon fill="#191970" stroke="#191970" points="394.9276,-75.3621 384.3337,-75.5011 392.7021,-81.9989 394.9276,-75.3621"/>
</g>
<!-- Node23&#45;&gt;Node6 -->
<g id="edge42" class="edge">
<title>Node23&#45;&gt;Node6</title>
<path fill="none" stroke="#191970" d="M565.376,-280.2614C561.0665,-257.4119 547.2402,-199.8868 513,-168 478.4318,-135.8077 457.1404,-148.8206 413,-132 367.1261,-114.5188 314.5528,-93.1166 281.5609,-79.5177"/>
<polygon fill="#191970" stroke="#191970" points="282.5586,-76.1431 271.9798,-75.5609 279.8866,-82.6131 282.5586,-76.1431"/>
</g>
<!-- Node23&#45;&gt;Node11 -->
<g id="edge40" class="edge">
<title>Node23&#45;&gt;Node11</title>
<path fill="none" stroke="#191970" d="M537.4321,-280.3733C508.8312,-271.0613 465.3212,-256.8953 433.9181,-246.671"/>
<polygon fill="#191970" stroke="#191970" points="434.7743,-243.269 424.182,-243.5011 432.6072,-249.9251 434.7743,-243.269"/>
</g>
<!-- Node24 -->
<g id="node25" class="node">
<title>Node24</title>
<polygon fill="none" stroke="#bfbfbf" points="598,-224.5 598,-243.5 636,-243.5 636,-224.5 598,-224.5"/>
<text text-anchor="middle" x="617" y="-231.5" font-family="Helvetica,sans-Serif" font-size="10.00" fill="#000000">map</text>
</g>
<!-- Node23&#45;&gt;Node24 -->
<g id="edge41" class="edge">
<title>Node23&#45;&gt;Node24</title>
<path fill="none" stroke="#191970" d="M575.7093,-280.2455C582.8073,-272.2958 593.0084,-260.8706 601.495,-251.3656"/>
<polygon fill="#191970" stroke="#191970" points="604.3411,-253.4331 608.3905,-243.6427 599.1195,-248.771 604.3411,-253.4331"/>
</g>
<!-- Node25&#45;&gt;Node2 -->
<g id="edge45" class="edge">
<title>Node25&#45;&gt;Node2</title>
<path fill="none" stroke="#191970" d="M176.1587,-168.4369C244.0366,-156.6686 357.0306,-137.0783 412.002,-127.5476"/>
<polygon fill="#191970" stroke="#191970" points="412.6248,-130.992 421.8799,-125.8351 411.4289,-124.0949 412.6248,-130.992"/>
</g>
<!-- Node25&#45;&gt;Node8 -->
<g id="edge46" class="edge">
<title>Node25&#45;&gt;Node8</title>
<path fill="none" stroke="#191970" d="M113.8583,-168.2455C108.1556,-160.4564 100.01,-149.3308 93.1375,-139.9439"/>
<polygon fill="#191970" stroke="#191970" points="95.7913,-137.6437 87.0598,-131.6427 90.1432,-141.7789 95.7913,-137.6437"/>
</g>
<!-- Node26&#45;&gt;Node4 -->
<g id="edge48" class="edge">
<title>Node26&#45;&gt;Node4</title>
<path fill="none" stroke="#191970" d="M1208.3789,-336.2715C1220.1283,-317.3847 1244,-274.0797 1244,-234 1244,-234 1244,-234 1244,-178 1244,-147.4754 1248.0206,-132.0451 1225,-112 1203.4066,-93.1976 1013.4279,-75.2301 936.316,-68.6439"/>
<polygon fill="#191970" stroke="#191970" points="936.4725,-65.1447 926.2135,-67.7912 935.8837,-72.1199 936.4725,-65.1447"/>
</g>
<!-- Node27&#45;&gt;Node4 -->
<g id="edge50" class="edge">
<title>Node27&#45;&gt;Node4</title>
<path fill="none" stroke="#191970" d="M1322.161,-224.1559C1316.6615,-214.8597 1308.2133,-200.516 1301,-188 1281.6212,-154.3751 1290.1928,-133.6747 1258,-112 1205.8317,-76.8763 1013.886,-68.5323 936.5796,-66.5824"/>
<polygon fill="#191970" stroke="#191970" points="936.5371,-63.0806 926.4586,-66.3476 936.3747,-70.0787 936.5371,-63.0806"/>
</g>
<!-- Node27&#45;&gt;Node7 -->
<g id="edge51" class="edge">
<title>Node27&#45;&gt;Node7</title>
<path fill="none" stroke="#191970" d="M1307.0262,-224.4509C1263.3639,-204.5722 1162.5763,-158.6852 1112.0374,-135.6756"/>
<polygon fill="#191970" stroke="#191970" points="1113.4722,-132.4832 1102.9207,-131.5249 1110.5716,-138.8539 1113.4722,-132.4832"/>
</g>
<!-- Node28 -->
<g id="node29" class="node">
<title>Node28</title>
<g id="a_node29"><a xlink:href="Meta_8hxx.html" target="_top" xlink:title="../../util/Meta.hxx">
<polygon fill="none" stroke="#000000" points="1310,-168.5 1310,-187.5 1408,-187.5 1408,-168.5 1310,-168.5"/>
<text text-anchor="middle" x="1359" y="-175.5" font-family="Helvetica,sans-Serif" font-size="10.00" fill="#000000">../../util/Meta.hxx</text>
</a>
</g>
</g>
<!-- Node27&#45;&gt;Node28 -->
<g id="edge52" class="edge">
<title>Node27&#45;&gt;Node28</title>
<path fill="none" stroke="#191970" d="M1333.3998,-224.2455C1337.6227,-216.617 1343.6173,-205.7881 1348.7441,-196.5267"/>
<polygon fill="#191970" stroke="#191970" points="1351.881,-198.0867 1353.6621,-187.6427 1345.7568,-194.6965 1351.881,-198.0867"/>
</g>
<!-- Node32 -->
<g id="node33" class="node">
<title>Node32</title>
<polygon fill="none" stroke="#bfbfbf" points="1426.5,-168.5 1426.5,-187.5 1479.5,-187.5 1479.5,-168.5 1426.5,-168.5"/>
<text text-anchor="middle" x="1453" y="-175.5" font-family="Helvetica,sans-Serif" font-size="10.00" fill="#000000">cstddef</text>
</g>
<!-- Node27&#45;&gt;Node32 -->
<g id="edge57" class="edge">
<title>Node27&#45;&gt;Node32</title>
<path fill="none" stroke="#191970" d="M1349.4883,-224.3733C1369.644,-215.3435 1399.988,-201.7494 1422.618,-191.6111"/>
<polygon fill="#191970" stroke="#191970" points="1424.0971,-194.7838 1431.7921,-187.5011 1421.2351,-188.3955 1424.0971,-194.7838"/>
</g>
<!-- Node28&#45;&gt;Node5 -->
<g id="edge53" class="edge">
<title>Node28&#45;&gt;Node5</title>
<path fill="none" stroke="#191970" d="M1329.2602,-168.3733C1300.493,-159.0613 1256.73,-144.8953 1225.1444,-134.671"/>
<polygon fill="#191970" stroke="#191970" points="1225.9436,-131.251 1215.3517,-131.5011 1223.7878,-137.9107 1225.9436,-131.251"/>
</g>
<!-- Node29 -->
<g id="node30" class="node">
<title>Node29</title>
<polygon fill="none" stroke="#bfbfbf" points="1369.5,-112.5 1369.5,-131.5 1438.5,-131.5 1438.5,-112.5 1369.5,-112.5"/>
<text text-anchor="middle" x="1404" y="-119.5" font-family="Helvetica,sans-Serif" font-size="10.00" fill="#000000">type_traits</text>
</g>
<!-- Node28&#45;&gt;Node29 -->
<g id="edge54" class="edge">
<title>Node28&#45;&gt;Node29</title>
<path fill="none" stroke="#191970" d="M1366.8384,-168.2455C1373.162,-160.3761 1382.2224,-149.101 1389.8136,-139.6542"/>
<polygon fill="#191970" stroke="#191970" points="1392.7158,-141.6302 1396.2514,-131.6427 1387.2592,-137.2454 1392.7158,-141.6302"/>
</g>
<!-- Node30 -->
<g id="node31" class="node">
<title>Node30</title>
<polygon fill="none" stroke="#bfbfbf" points="1456.5,-112.5 1456.5,-131.5 1507.5,-131.5 1507.5,-112.5 1456.5,-112.5"/>
<text text-anchor="middle" x="1482" y="-119.5" font-family="Helvetica,sans-Serif" font-size="10.00" fill="#000000">variant</text>
</g>
<!-- Node28&#45;&gt;Node30 -->
<g id="edge55" class="edge">
<title>Node28&#45;&gt;Node30</title>
<path fill="none" stroke="#191970" d="M1380.1445,-168.3733C1399.8892,-159.3838 1429.5698,-145.8706 1451.8055,-135.7471"/>
<polygon fill="#191970" stroke="#191970" points="1453.4806,-138.8302 1461.1315,-131.5011 1450.58,-132.4594 1453.4806,-138.8302"/>
</g>
<!-- Node31 -->
<g id="node32" class="node">
<title>Node31</title>
<polygon fill="none" stroke="#bfbfbf" points="1310.5,-112.5 1310.5,-131.5 1351.5,-131.5 1351.5,-112.5 1310.5,-112.5"/>
<text text-anchor="middle" x="1331" y="-119.5" font-family="Helvetica,sans-Serif" font-size="10.00" fill="#000000">tuple</text>
</g>
<!-- Node28&#45;&gt;Node31 -->
<g id="edge56" class="edge">
<title>Node28&#45;&gt;Node31</title>
<path fill="none" stroke="#191970" d="M1354.1228,-168.2455C1350.3487,-160.6973 1345.0079,-150.0158 1340.4099,-140.8197"/>
<polygon fill="#191970" stroke="#191970" points="1343.424,-139.0217 1335.8213,-131.6427 1337.163,-142.1522 1343.424,-139.0217"/>
</g>
<!-- Node33&#45;&gt;Node2 -->
<g id="edge61" class="edge">
<title>Node33&#45;&gt;Node2</title>
<path fill="none" stroke="#191970" d="M838.5195,-224.4288C807.6346,-215.9609 762.3913,-202.6934 724,-188 704.3153,-180.4661 701.1096,-174.3129 681,-168 595.3546,-141.1139 567.1476,-153.402 476.147,-131.9878"/>
<polygon fill="#191970" stroke="#191970" points="476.7878,-128.5418 466.2444,-129.5845 475.1368,-135.3443 476.7878,-128.5418"/>
</g>
<!-- Node33&#45;&gt;Node5 -->
<g id="edge59" class="edge">
<title>Node33&#45;&gt;Node5</title>
<path fill="none" stroke="#191970" d="M918.2593,-224.489C953.0063,-216.3284 1002.7951,-203.4551 1045,-188 1085.8658,-173.0353 1131.1047,-150.7856 1159.0491,-136.335"/>
<polygon fill="#191970" stroke="#191970" points="1160.9292,-139.3019 1168.1766,-131.5737 1157.6916,-133.0956 1160.9292,-139.3019"/>
</g>
<!-- Node33&#45;&gt;Node18 -->
<g id="edge62" class="edge">
<title>Node33&#45;&gt;Node18</title>
<path fill="none" stroke="#191970" d="M859.4974,-224.2455C845.842,-215.6534 825.7343,-203.0014 810.0011,-193.1018"/>
<polygon fill="#191970" stroke="#191970" points="811.6529,-190.006 801.325,-187.6427 807.9249,-195.9307 811.6529,-190.006"/>
</g>
<!-- Node33&#45;&gt;Node19 -->
<g id="edge60" class="edge">
<title>Node33&#45;&gt;Node19</title>
<path fill="none" stroke="#191970" d="M875.8526,-224.4509C877.4836,-206.184 881.0754,-165.9553 883.2413,-141.6976"/>
<polygon fill="#191970" stroke="#191970" points="886.7463,-141.7966 884.1496,-131.5249 879.774,-141.174 886.7463,-141.7966"/>
</g>
</g>
</svg>
