<?xml version="1.0" encoding="UTF-8" standalone="no"?>
<!DOCTYPE svg PUBLIC "-//W3C//DTD SVG 1.1//EN"
 "http://www.w3.org/Graphics/SVG/1.1/DTD/svg11.dtd">
<!-- Generated by graphviz version 2.40.1 (20161225.0304)
 -->
<!-- Title: src/Events.hxx Pages: 1 -->
<!--zoomable 364 -->
<svg id="main" version="1.1" xmlns="http://www.w3.org/2000/svg" xmlns:xlink="http://www.w3.org/1999/xlink" xml:space="preserve" onload="init(evt)">
<style type="text/css"><![CDATA[
.edge:hover path { stroke: red; }
.edge:hover polygon { stroke: red; fill: red; }
]]></style>
<script type="text/javascript"><![CDATA[
var edges = document.getElementsByTagName('g');
if (edges && edges.length) {
  for (var i=0;i<edges.length;i++) {
    if (edges[i].id.substr(0,4)=='edge') {
      edges[i].setAttribute('class','edge');
    }
  }
}
]]></script>
        <defs>
                <circle id="rim" cx="0" cy="0" r="7"/>
                <circle id="rim2" cx="0" cy="0" r="3.5"/>
                <g id="zoomPlus">
                        <use xlink:href="#rim" fill="#404040">
                                <set attributeName="fill" to="#808080" begin="zoomplus.mouseover" end="zoomplus.mouseout"/>
                        </use>
                        <path d="M-4,0h8M0,-4v8" fill="none" stroke="white" stroke-width="1.5" pointer-events="none"/>
                </g>
                <g id="zoomMin">
                        <use xlink:href="#rim" fill="#404040">
                                <set attributeName="fill" to="#808080" begin="zoomminus.mouseover" end="zoomminus.mouseout"/>
                        </use>
                        <path d="M-4,0h8" fill="none" stroke="white" stroke-width="1.5" pointer-events="none"/>
                </g>
                <g id="dirArrow">
                        <path fill="none" stroke="white" stroke-width="1.5" d="M0,-3.0v7 M-2.5,-0.5L0,-3.0L2.5,-0.5"/>
                </g>
               <g id="resetDef">
                       <use xlink:href="#rim2" fill="#404040">
                               <set attributeName="fill" to="#808080" begin="reset.mouseover" end="reset.mouseout"/>
                       </use>
               </g>
        </defs>

<script type="text/javascript">
var viewWidth = 1286;
var viewHeight = 364;
var sectionId = 'dynsection-1';
</script>
<script xlink:href="svgpan.js"/>
<svg id="graph" class="graph">
<g id="viewport">
<title>src/Events.hxx</title>
<!-- Node13 -->
<g id="node1" class="node">
<title>Node13</title>
<polygon fill="#bfbfbf" stroke="#000000" points="329,-336.5 329,-355.5 417,-355.5 417,-336.5 329,-336.5"/>
<text text-anchor="middle" x="373" y="-343.5" font-family="Helvetica,sans-Serif" font-size="10.00" fill="#000000">src/Events.hxx</text>
</g>
<!-- Node14 -->
<g id="node2" class="node">
<title>Node14</title>
<g id="a_node2"><a xlink:href="MessageQueue_8hxx.html" target="_top" xlink:title="src/engine/MessageQueue.hxx">
<polygon fill="none" stroke="#000000" points="37.5,-224.5 37.5,-243.5 202.5,-243.5 202.5,-224.5 37.5,-224.5"/>
<text text-anchor="middle" x="120" y="-231.5" font-family="Helvetica,sans-Serif" font-size="10.00" fill="#000000">src/engine/MessageQueue.hxx</text>
</a>
</g>
</g>
<!-- Node13&#45;&gt;Node14 -->
<g id="edge1" class="edge">
<title>Node13&#45;&gt;Node14</title>
<path fill="none" stroke="#191970" d="M342.0446,-332.2964C290.0257,-309.2683 186.3731,-263.3826 141.516,-243.5249"/>
<polygon fill="#191970" stroke="#191970" points="340.8685,-335.6033 351.4294,-336.4509 343.7021,-329.2025 340.8685,-335.6033"/>
</g>
<!-- Node23 -->
<g id="node11" class="node">
<title>Node23</title>
<g id="a_node11"><a xlink:href="GameService_8hxx.html" target="_top" xlink:title="src/GameService.hxx">
<polygon fill="none" stroke="#000000" points="565,-280.5 565,-299.5 685,-299.5 685,-280.5 565,-280.5"/>
<text text-anchor="middle" x="625" y="-287.5" font-family="Helvetica,sans-Serif" font-size="10.00" fill="#000000">src/GameService.hxx</text>
</a>
</g>
</g>
<!-- Node13&#45;&gt;Node23 -->
<g id="edge11" class="edge">
<title>Node13&#45;&gt;Node23</title>
<path fill="none" stroke="#191970" d="M425.9089,-334.2425C472.3322,-323.9262 538.9893,-309.1135 582.1435,-299.5237"/>
<polygon fill="#191970" stroke="#191970" points="425.0366,-330.8508 416.034,-336.4369 426.5552,-337.6842 425.0366,-330.8508"/>
</g>
<!-- Node15 -->
<g id="node3" class="node">
<title>Node15</title>
<g id="a_node3"><a xlink:href="UIMQDispatcher_8hxx.html" target="_top" xlink:title="src/engine/UIMQDispatcher.hxx">
<polygon fill="none" stroke="#000000" points="44.5,-168.5 44.5,-187.5 213.5,-187.5 213.5,-168.5 44.5,-168.5"/>
<text text-anchor="middle" x="129" y="-175.5" font-family="Helvetica,sans-Serif" font-size="10.00" fill="#000000">src/engine/UIMQDispatcher.hxx</text>
</a>
</g>
</g>
<!-- Node14&#45;&gt;Node15 -->
<g id="edge2" class="edge">
<title>Node14&#45;&gt;Node15</title>
<path fill="none" stroke="#191970" d="M123.189,-214.1575C124.6358,-205.155 126.2807,-194.9199 127.4503,-187.6427"/>
<polygon fill="#191970" stroke="#191970" points="119.6989,-213.8168 121.5677,-224.2455 126.6102,-214.9276 119.6989,-213.8168"/>
</g>
<!-- Node16 -->
<g id="node4" class="node">
<title>Node16</title>
<g id="a_node4"><a xlink:href="DataModel_8hxx.html" target="_top" xlink:title="src/model/DataModel.hxx">
<polygon fill="none" stroke="#000000" points="2.5,-112.5 2.5,-131.5 143.5,-131.5 143.5,-112.5 2.5,-112.5"/>
<text text-anchor="middle" x="73" y="-119.5" font-family="Helvetica,sans-Serif" font-size="10.00" fill="#000000">src/model/DataModel.hxx</text>
</a>
</g>
</g>
<!-- Node14&#45;&gt;Node16 -->
<g id="edge9" class="edge">
<title>Node14&#45;&gt;Node16</title>
<path fill="none" stroke="#191970" d="M74.9177,-220.3627C59.4897,-213.2965 43.891,-202.9211 35,-188 23.1559,-168.123 45.2623,-144.5798 60.4373,-131.6713"/>
<polygon fill="#191970" stroke="#191970" points="73.8642,-223.7159 84.4402,-224.3459 76.5654,-217.258 73.8642,-223.7159"/>
</g>
<!-- Node19 -->
<g id="node7" class="node">
<title>Node19</title>
<g id="a_node7"><a xlink:href="Game_8hxx.html" target="_top" xlink:title="src/Game.hxx">
<polygon fill="none" stroke="#000000" points="624,-168.5 624,-187.5 708,-187.5 708,-168.5 624,-168.5"/>
<text text-anchor="middle" x="666" y="-175.5" font-family="Helvetica,sans-Serif" font-size="10.00" fill="#000000">src/Game.hxx</text>
</a>
</g>
</g>
<!-- Node14&#45;&gt;Node19 -->
<g id="edge6" class="edge">
<title>Node14&#45;&gt;Node19</title>
<path fill="none" stroke="#191970" d="M212.9205,-223.9243C385.1314,-206.7526 430.1865,-208.1504 598,-188 606.4117,-186.99 615.388,-185.771 623.9688,-184.5367"/>
<polygon fill="#191970" stroke="#191970" points="212.3461,-220.4642 202.7457,-224.9456 213.0453,-227.4292 212.3461,-220.4642"/>
</g>
<!-- Node22 -->
<g id="node10" class="node">
<title>Node22</title>
<g id="a_node10"><a xlink:href="AudioMixer_8cxx.html" target="_top" xlink:title="src/services/AudioMixer.cxx">
<polygon fill="none" stroke="#000000" points="264,-168.5 264,-187.5 416,-187.5 416,-168.5 264,-168.5"/>
<text text-anchor="middle" x="340" y="-175.5" font-family="Helvetica,sans-Serif" font-size="10.00" fill="#000000">src/services/AudioMixer.cxx</text>
</a>
</g>
</g>
<!-- Node14&#45;&gt;Node22 -->
<g id="edge10" class="edge">
<title>Node14&#45;&gt;Node22</title>
<path fill="none" stroke="#191970" d="M167.7278,-221.8511C208.2112,-211.5462 265.476,-196.9697 302.6742,-187.5011"/>
<polygon fill="#191970" stroke="#191970" points="166.6469,-218.5145 157.8193,-224.3733 168.3737,-225.2982 166.6469,-218.5145"/>
</g>
<!-- Node15&#45;&gt;Node16 -->
<g id="edge3" class="edge">
<title>Node15&#45;&gt;Node16</title>
<path fill="none" stroke="#191970" d="M112.0751,-161.0751C102.4402,-151.4402 90.7196,-139.7196 82.6427,-131.6427"/>
<polygon fill="#191970" stroke="#191970" points="109.6996,-163.6493 119.2455,-168.2455 114.6493,-158.6996 109.6996,-163.6493"/>
</g>
<!-- Node17 -->
<g id="node5" class="node">
<title>Node17</title>
<g id="a_node5"><a xlink:href="ButtonState_8hxx.html" target="_top" xlink:title="src/model/ButtonState.hxx">
<polygon fill="none" stroke="#000000" points="0,-56.5 0,-75.5 146,-75.5 146,-56.5 0,-56.5"/>
<text text-anchor="middle" x="73" y="-63.5" font-family="Helvetica,sans-Serif" font-size="10.00" fill="#000000">src/model/ButtonState.hxx</text>
</a>
</g>
</g>
<!-- Node16&#45;&gt;Node17 -->
<g id="edge4" class="edge">
<title>Node16&#45;&gt;Node17</title>
<path fill="none" stroke="#191970" d="M73,-102.1575C73,-93.155 73,-82.9199 73,-75.6427"/>
<polygon fill="#191970" stroke="#191970" points="69.5001,-102.2455 73,-112.2455 76.5001,-102.2456 69.5001,-102.2455"/>
</g>
<!-- Node18 -->
<g id="node6" class="node">
<title>Node18</title>
<g id="a_node6"><a xlink:href="ButtonState_8cxx.html" target="_top" xlink:title="src/model/ButtonState.cxx">
<polygon fill="none" stroke="#000000" points="0,-.5 0,-19.5 146,-19.5 146,-.5 0,-.5"/>
<text text-anchor="middle" x="73" y="-7.5" font-family="Helvetica,sans-Serif" font-size="10.00" fill="#000000">src/model/ButtonState.cxx</text>
</a>
</g>
</g>
<!-- Node17&#45;&gt;Node18 -->
<g id="edge5" class="edge">
<title>Node17&#45;&gt;Node18</title>
<path fill="none" stroke="#191970" d="M73,-46.1575C73,-37.155 73,-26.9199 73,-19.6427"/>
<polygon fill="#191970" stroke="#191970" points="69.5001,-46.2455 73,-56.2455 76.5001,-46.2456 69.5001,-46.2455"/>
</g>
<!-- Node20 -->
<g id="node8" class="node">
<title>Node20</title>
<g id="a_node8"><a xlink:href="Game_8cxx.html" target="_top" xlink:title="src/Game.cxx">
<polygon fill="none" stroke="#000000" points="673.5,-112.5 673.5,-131.5 756.5,-131.5 756.5,-112.5 673.5,-112.5"/>
<text text-anchor="middle" x="715" y="-119.5" font-family="Helvetica,sans-Serif" font-size="10.00" fill="#000000">src/Game.cxx</text>
</a>
</g>
</g>
<!-- Node19&#45;&gt;Node20 -->
<g id="edge7" class="edge">
<title>Node19&#45;&gt;Node20</title>
<path fill="none" stroke="#191970" d="M681.3122,-160.5004C689.6447,-150.9775 699.6353,-139.5596 706.5627,-131.6427"/>
<polygon fill="#191970" stroke="#191970" points="678.4862,-158.415 674.5351,-168.2455 683.7543,-163.0245 678.4862,-158.415"/>
</g>
<!-- Node21 -->
<g id="node9" class="node">
<title>Node21</title>
<g id="a_node9"><a xlink:href="main_8cxx.html" target="_top" xlink:title="src/main.cxx">
<polygon fill="none" stroke="#000000" points="576.5,-112.5 576.5,-131.5 655.5,-131.5 655.5,-112.5 576.5,-112.5"/>
<text text-anchor="middle" x="616" y="-119.5" font-family="Helvetica,sans-Serif" font-size="10.00" fill="#000000">src/main.cxx</text>
</a>
</g>
</g>
<!-- Node19&#45;&gt;Node21 -->
<g id="edge8" class="edge">
<title>Node19&#45;&gt;Node21</title>
<path fill="none" stroke="#191970" d="M650.3753,-160.5004C641.8727,-150.9775 631.6782,-139.5596 624.6095,-131.6427"/>
<polygon fill="#191970" stroke="#191970" points="648.0197,-163.1172 657.2907,-168.2455 653.2413,-158.4551 648.0197,-163.1172"/>
</g>
<!-- Node23&#45;&gt;Node19 -->
<g id="edge12" class="edge">
<title>Node23&#45;&gt;Node19</title>
<path fill="none" stroke="#191970" d="M695.173,-282.7793C771.0949,-274.245 883.1075,-259.2653 896,-244 901.7354,-237.209 901.6355,-230.8742 896,-224 895.2497,-223.0848 774.1743,-199.2164 708.0172,-186.2318"/>
<polygon fill="#191970" stroke="#191970" points="694.7299,-279.3069 685.1773,-283.8892 695.5025,-286.2641 694.7299,-279.3069"/>
</g>
<!-- Node24 -->
<g id="node12" class="node">
<title>Node24</title>
<g id="a_node12"><a xlink:href="Randomizer_8hxx.html" target="_top" xlink:title="src/services/Randomizer.hxx">
<polygon fill="none" stroke="#000000" points="391,-224.5 391,-243.5 547,-243.5 547,-224.5 391,-224.5"/>
<text text-anchor="middle" x="469" y="-231.5" font-family="Helvetica,sans-Serif" font-size="10.00" fill="#000000">src/services/Randomizer.hxx</text>
</a>
</g>
</g>
<!-- Node23&#45;&gt;Node24 -->
<g id="edge13" class="edge">
<title>Node23&#45;&gt;Node24</title>
<path fill="none" stroke="#191970" d="M588.5716,-276.9231C560.0539,-266.686 521.0619,-252.6889 495.4674,-243.5011"/>
<polygon fill="#191970" stroke="#191970" points="587.5881,-280.2887 598.1826,-280.3733 589.9532,-273.7004 587.5881,-280.2887"/>
</g>
<!-- Node26 -->
<g id="node14" class="node">
<title>Node26</title>
<g id="a_node14"><a xlink:href="GameClock_8hxx.html" target="_top" xlink:title="src/services/GameClock.hxx">
<polygon fill="none" stroke="#000000" points="943.5,-224.5 943.5,-243.5 1098.5,-243.5 1098.5,-224.5 943.5,-224.5"/>
<text text-anchor="middle" x="1021" y="-231.5" font-family="Helvetica,sans-Serif" font-size="10.00" fill="#000000">src/services/GameClock.hxx</text>
</a>
</g>
</g>
<!-- Node23&#45;&gt;Node26 -->
<g id="edge17" class="edge">
<title>Node23&#45;&gt;Node26</title>
<path fill="none" stroke="#191970" d="M695.1688,-280.0771C768.181,-269.7522 881.7001,-253.699 953.6488,-243.5244"/>
<polygon fill="#191970" stroke="#191970" points="694.5553,-276.629 685.1439,-281.4948 695.5355,-283.56 694.5553,-276.629"/>
</g>
<!-- Node29 -->
<g id="node17" class="node">
<title>Node29</title>
<g id="a_node17"><a xlink:href="ResourceManager_8hxx.html" target="_top" xlink:title="src/services/ResourceManager.hxx">
<polygon fill="none" stroke="#000000" points="703,-224.5 703,-243.5 887,-243.5 887,-224.5 703,-224.5"/>
<text text-anchor="middle" x="795" y="-231.5" font-family="Helvetica,sans-Serif" font-size="10.00" fill="#000000">src/services/ResourceManager.hxx</text>
</a>
</g>
</g>
<!-- Node23&#45;&gt;Node29 -->
<g id="edge23" class="edge">
<title>Node23&#45;&gt;Node29</title>
<path fill="none" stroke="#191970" d="M663.886,-277.1905C695.0312,-266.9309 738.0223,-252.7691 766.1573,-243.5011"/>
<polygon fill="#191970" stroke="#191970" points="662.6269,-273.9202 654.224,-280.3733 664.8171,-280.5687 662.6269,-273.9202"/>
</g>
<!-- Node31 -->
<g id="node19" class="node">
<title>Node31</title>
<g id="a_node19"><a xlink:href="GameService_8cxx.html" target="_top" xlink:title="src/GameService.cxx">
<polygon fill="none" stroke="#000000" points="565.5,-224.5 565.5,-243.5 684.5,-243.5 684.5,-224.5 565.5,-224.5"/>
<text text-anchor="middle" x="625" y="-231.5" font-family="Helvetica,sans-Serif" font-size="10.00" fill="#000000">src/GameService.cxx</text>
</a>
</g>
</g>
<!-- Node23&#45;&gt;Node31 -->
<g id="edge27" class="edge">
<title>Node23&#45;&gt;Node31</title>
<path fill="none" stroke="#191970" d="M625,-270.1575C625,-261.155 625,-250.9199 625,-243.6427"/>
<polygon fill="#191970" stroke="#191970" points="621.5001,-270.2455 625,-280.2455 628.5001,-270.2456 621.5001,-270.2455"/>
</g>
<!-- Node32 -->
<g id="node20" class="node">
<title>Node32</title>
<g id="a_node20"><a xlink:href="AudioMixer_8hxx.html" target="_top" xlink:title="src/services/AudioMixer.hxx">
<polygon fill="none" stroke="#000000" points="221,-224.5 221,-243.5 373,-243.5 373,-224.5 221,-224.5"/>
<text text-anchor="middle" x="297" y="-231.5" font-family="Helvetica,sans-Serif" font-size="10.00" fill="#000000">src/services/AudioMixer.hxx</text>
</a>
</g>
</g>
<!-- Node23&#45;&gt;Node32 -->
<g id="edge28" class="edge">
<title>Node23&#45;&gt;Node32</title>
<path fill="none" stroke="#191970" d="M558.7775,-278.6937C498.2635,-268.3621 409.7747,-253.2542 352.7815,-243.5237"/>
<polygon fill="#191970" stroke="#191970" points="558.541,-282.2039 568.9875,-280.4369 559.7192,-275.3038 558.541,-282.2039"/>
</g>
<!-- Node24&#45;&gt;Node19 -->
<g id="edge14" class="edge">
<title>Node24&#45;&gt;Node19</title>
<path fill="none" stroke="#191970" d="M512.6629,-221.5882C548.8569,-211.2996 599.5494,-196.8895 632.5764,-187.5011"/>
<polygon fill="#191970" stroke="#191970" points="511.5274,-218.2723 502.8655,-224.3733 513.4415,-225.0055 511.5274,-218.2723"/>
</g>
<!-- Node24&#45;&gt;Node22 -->
<g id="edge15" class="edge">
<title>Node24&#45;&gt;Node22</title>
<path fill="none" stroke="#191970" d="M437.6329,-220.3833C414.1716,-210.1985 382.6815,-196.5284 361.8865,-187.5011"/>
<polygon fill="#191970" stroke="#191970" points="436.2574,-223.6017 446.8241,-224.3733 439.0449,-217.1806 436.2574,-223.6017"/>
</g>
<!-- Node25 -->
<g id="node13" class="node">
<title>Node25</title>
<g id="a_node13"><a xlink:href="Randomizer_8cxx.html" target="_top" xlink:title="src/services/Randomizer.cxx">
<polygon fill="none" stroke="#000000" points="434.5,-168.5 434.5,-187.5 589.5,-187.5 589.5,-168.5 434.5,-168.5"/>
<text text-anchor="middle" x="512" y="-175.5" font-family="Helvetica,sans-Serif" font-size="10.00" fill="#000000">src/services/Randomizer.cxx</text>
</a>
</g>
</g>
<!-- Node24&#45;&gt;Node25 -->
<g id="edge16" class="edge">
<title>Node24&#45;&gt;Node25</title>
<path fill="none" stroke="#191970" d="M482.6592,-216.2112C489.9263,-206.7472 498.5781,-195.4797 504.5958,-187.6427"/>
<polygon fill="#191970" stroke="#191970" points="479.8043,-214.1824 476.49,-224.2455 485.3564,-218.4456 479.8043,-214.1824"/>
</g>
<!-- Node26&#45;&gt;Node19 -->
<g id="edge18" class="edge">
<title>Node26&#45;&gt;Node19</title>
<path fill="none" stroke="#191970" d="M942.3277,-223.0528C880.8613,-214.2688 793.3468,-201.2548 717,-188 714.1553,-187.5061 711.2248,-186.9795 708.2746,-186.4359"/>
<polygon fill="#191970" stroke="#191970" points="941.9509,-226.5344 952.3446,-224.4799 942.9383,-219.6044 941.9509,-226.5344"/>
</g>
<!-- Node26&#45;&gt;Node22 -->
<g id="edge21" class="edge">
<title>Node26&#45;&gt;Node22</title>
<path fill="none" stroke="#191970" d="M933.3323,-226.947C920.803,-225.9505 908.0739,-224.9444 896,-224 686.6954,-207.629 633.9632,-208.2693 425,-188 422.19,-187.7274 419.329,-187.4402 416.4398,-187.1421"/>
<polygon fill="#191970" stroke="#191970" points="933.075,-230.4375 943.3213,-227.7427 933.6309,-223.4596 933.075,-230.4375"/>
</g>
<!-- Node27 -->
<g id="node15" class="node">
<title>Node27</title>
<g id="a_node15"><a xlink:href="GameClock_8inl_8hxx.html" target="_top" xlink:title="src/services/GameClock.inl.hxx">
<polygon fill="none" stroke="#000000" points="936,-168.5 936,-187.5 1106,-187.5 1106,-168.5 936,-168.5"/>
<text text-anchor="middle" x="1021" y="-175.5" font-family="Helvetica,sans-Serif" font-size="10.00" fill="#000000">src/services/GameClock.inl.hxx</text>
</a>
</g>
</g>
<!-- Node26&#45;&gt;Node27 -->
<g id="edge19" class="edge">
<title>Node26&#45;&gt;Node27</title>
<path fill="none" stroke="#191970" d="M1014.5113,-214.1575C1013.919,-205.155 1014.3335,-194.9199 1015.7549,-187.6427"/>
<polygon fill="#191970" stroke="#191970" points="1011.0561,-214.739 1015.7332,-224.2455 1018.0053,-213.8972 1011.0561,-214.739"/>
</g>
<!-- Node28 -->
<g id="node16" class="node">
<title>Node28</title>
<g id="a_node16"><a xlink:href="GameClock_8cxx.html" target="_top" xlink:title="src/services/GameClock.cxx">
<polygon fill="none" stroke="#000000" points="1124,-168.5 1124,-187.5 1278,-187.5 1278,-168.5 1124,-168.5"/>
<text text-anchor="middle" x="1201" y="-175.5" font-family="Helvetica,sans-Serif" font-size="10.00" fill="#000000">src/services/GameClock.cxx</text>
</a>
</g>
</g>
<!-- Node26&#45;&gt;Node28 -->
<g id="edge22" class="edge">
<title>Node26&#45;&gt;Node28</title>
<path fill="none" stroke="#191970" d="M1061.7459,-221.3235C1094.7563,-211.0536 1140.5417,-196.8093 1170.4607,-187.5011"/>
<polygon fill="#191970" stroke="#191970" points="1060.4519,-218.0605 1051.9431,-224.3733 1062.5314,-224.7445 1060.4519,-218.0605"/>
</g>
<!-- Node27&#45;&gt;Node26 -->
<g id="edge20" class="edge">
<title>Node27&#45;&gt;Node26</title>
<path fill="none" stroke="#191970" d="M1027.4795,-197.7046C1028.0821,-206.6944 1027.6779,-216.9382 1026.2668,-224.2455"/>
<polygon fill="#191970" stroke="#191970" points="1030.9368,-197.1421 1026.2451,-187.6427 1023.9889,-197.9945 1030.9368,-197.1421"/>
</g>
<!-- Node29&#45;&gt;Node19 -->
<g id="edge24" class="edge">
<title>Node29&#45;&gt;Node19</title>
<path fill="none" stroke="#191970" d="M763.6329,-220.3833C740.1716,-210.1985 708.6815,-196.5284 687.8865,-187.5011"/>
<polygon fill="#191970" stroke="#191970" points="762.2574,-223.6017 772.8241,-224.3733 765.0449,-217.1806 762.2574,-223.6017"/>
</g>
<!-- Node29&#45;&gt;Node22 -->
<g id="edge25" class="edge">
<title>Node29&#45;&gt;Node22</title>
<path fill="none" stroke="#191970" d="M707.4828,-223.2286C623.1115,-212.8445 496.7222,-197.2889 416.3328,-187.3948"/>
<polygon fill="#191970" stroke="#191970" points="707.205,-226.7208 717.5577,-224.4686 708.0602,-219.7732 707.205,-226.7208"/>
</g>
<!-- Node30 -->
<g id="node18" class="node">
<title>Node30</title>
<g id="a_node18"><a xlink:href="ResourceManager_8cxx.html" target="_top" xlink:title="src/services/ResourceManager.cxx">
<polygon fill="none" stroke="#000000" points="726.5,-168.5 726.5,-187.5 909.5,-187.5 909.5,-168.5 726.5,-168.5"/>
<text text-anchor="middle" x="818" y="-175.5" font-family="Helvetica,sans-Serif" font-size="10.00" fill="#000000">src/services/ResourceManager.cxx</text>
</a>
</g>
</g>
<!-- Node29&#45;&gt;Node30 -->
<g id="edge26" class="edge">
<title>Node29&#45;&gt;Node30</title>
<path fill="none" stroke="#191970" d="M802.9066,-214.7493C806.6617,-205.6064 810.9851,-195.0798 814.0396,-187.6427"/>
<polygon fill="#191970" stroke="#191970" points="799.568,-213.6656 799.0063,-224.2455 806.0431,-216.3251 799.568,-213.6656"/>
</g>
<!-- Node32&#45;&gt;Node22 -->
<g id="edge29" class="edge">
<title>Node32&#45;&gt;Node22</title>
<path fill="none" stroke="#191970" d="M310.6592,-216.2112C317.9263,-206.7472 326.5781,-195.4797 332.5958,-187.6427"/>
<polygon fill="#191970" stroke="#191970" points="307.8043,-214.1824 304.49,-224.2455 313.3564,-218.4456 307.8043,-214.1824"/>
</g>
</g>
</svg>
        <g id="navigator" transform="translate(0 0)" fill="#404254">
                <rect fill="#f2f5e9" fill-opacity="0.5" stroke="#606060" stroke-width=".5" x="0" y="0" width="60" height="60"/>
                <use id="zoomplus" xlink:href="#zoomPlus" x="17" y="9" onmousedown="handleZoom(evt,'in')"/>
                <use id="zoomminus" xlink:href="#zoomMin" x="42" y="9" onmousedown="handleZoom(evt,'out')"/>
                <use id="reset" xlink:href="#resetDef" x="30" y="36" onmousedown="handleReset()"/>
                <g id="arrowUp" xlink:href="#dirArrow" transform="translate(30 24)" onmousedown="handlePan(0,-1)">
                  <use xlink:href="#rim" fill="#404040">
                        <set attributeName="fill" to="#808080" begin="arrowUp.mouseover" end="arrowUp.mouseout"/>
                  </use>
                  <path fill="none" stroke="white" stroke-width="1.5" d="M0,-3.0v7 M-2.5,-0.5L0,-3.0L2.5,-0.5"/>
                </g>
                <g id="arrowRight" xlink:href="#dirArrow" transform="rotate(90) translate(36 -43)" onmousedown="handlePan(1,0)">
                  <use xlink:href="#rim" fill="#404040">
                        <set attributeName="fill" to="#808080" begin="arrowRight.mouseover" end="arrowRight.mouseout"/>
                  </use>
                  <path fill="none" stroke="white" stroke-width="1.5" d="M0,-3.0v7 M-2.5,-0.5L0,-3.0L2.5,-0.5"/>
                </g>
                <g id="arrowDown" xlink:href="#dirArrow" transform="rotate(180) translate(-30 -48)" onmousedown="handlePan(0,1)">
                  <use xlink:href="#rim" fill="#404040">
                        <set attributeName="fill" to="#808080" begin="arrowDown.mouseover" end="arrowDown.mouseout"/>
                  </use>
                  <path fill="none" stroke="white" stroke-width="1.5" d="M0,-3.0v7 M-2.5,-0.5L0,-3.0L2.5,-0.5"/>
                </g>
                <g id="arrowLeft" xlink:href="#dirArrow" transform="rotate(270) translate(-36 17)" onmousedown="handlePan(-1,0)">
                  <use xlink:href="#rim" fill="#404040">
                        <set attributeName="fill" to="#808080" begin="arrowLeft.mouseover" end="arrowLeft.mouseout"/>
                  </use>
                  <path fill="none" stroke="white" stroke-width="1.5" d="M0,-3.0v7 M-2.5,-0.5L0,-3.0L2.5,-0.5"/>
                </g>
        </g>
        <svg viewBox="0 0 15 15" width="100%" height="30px" preserveAspectRatio="xMaxYMin meet">
         <g id="arrow_out" transform="scale(0.3 0.3)">
          <a xlink:href="Events_8hxx__dep__incl_org.svg" target="_base">
           <rect id="button" ry="5" rx="5" y="6" x="6" height="38" width="38"
                fill="#f2f5e9" fill-opacity="0.5" stroke="#606060" stroke-width="1.0"/>
           <path id="arrow"
             d="M 11.500037,31.436501 C 11.940474,20.09759 22.043105,11.32322 32.158766,21.979434 L 37.068811,17.246167 C 37.068811,17.246167 37.088388,32 37.088388,32 L 22.160133,31.978069 C 22.160133,31.978069 26.997745,27.140456 26.997745,27.140456 C 18.528582,18.264221 13.291696,25.230495 11.500037,31.436501 z"
             style="fill:#404040;"/>
          </a>
         </g>
        </svg>
</svg>
