<?xml version="1.0" encoding="UTF-8" standalone="no"?>
<!DOCTYPE svg PUBLIC "-//W3C//DTD SVG 1.1//EN"
 "http://www.w3.org/Graphics/SVG/1.1/DTD/svg11.dtd">
<!-- Generated by graphviz version 2.40.1 (20161225.0304)
 -->
<!-- Title: src/Events.hxx Pages: 1 -->
<svg width="428pt" height="252pt"
 viewBox="0.00 0.00 428.00 252.00" xmlns="http://www.w3.org/2000/svg" xmlns:xlink="http://www.w3.org/1999/xlink">
<g id="graph0" class="graph" transform="scale(1 1) rotate(0) translate(4 248)">
<title>src/Events.hxx</title>
<!-- Node0 -->
<g id="node1" class="node">
<title>Node0</title>
<polygon fill="#bfbfbf" stroke="#000000" points="107,-224.5 107,-243.5 195,-243.5 195,-224.5 107,-224.5"/>
<text text-anchor="middle" x="151" y="-231.5" font-family="Helvetica,sans-Serif" font-size="10.00" fill="#000000">src/Events.hxx</text>
</g>
<!-- Node1 -->
<g id="node2" class="node">
<title>Node1</title>
<polygon fill="none" stroke="#bfbfbf" points="0,-168.5 0,-187.5 44,-187.5 44,-168.5 0,-168.5"/>
<text text-anchor="middle" x="22" y="-175.5" font-family="Helvetica,sans-Serif" font-size="10.00" fill="#000000">string</text>
</g>
<!-- Node0&#45;&gt;Node1 -->
<g id="edge1" class="edge">
<title>Node0&#45;&gt;Node1</title>
<path fill="none" stroke="#191970" d="M128.8241,-224.3733C108.0234,-215.3435 76.7083,-201.7494 53.3542,-191.6111"/>
<polygon fill="#191970" stroke="#191970" points="54.4532,-188.2727 43.8865,-187.5011 51.6657,-194.6938 54.4532,-188.2727"/>
</g>
<!-- Node2 -->
<g id="node3" class="node">
<title>Node2</title>
<polygon fill="none" stroke="#bfbfbf" points="62,-168.5 62,-187.5 162,-187.5 162,-168.5 62,-168.5"/>
<text text-anchor="middle" x="112" y="-175.5" font-family="Helvetica,sans-Serif" font-size="10.00" fill="#000000">betterEnums.hxx</text>
</g>
<!-- Node0&#45;&gt;Node2 -->
<g id="edge2" class="edge">
<title>Node0&#45;&gt;Node2</title>
<path fill="none" stroke="#191970" d="M144.2067,-224.2455C138.7822,-216.4564 131.0339,-205.3308 124.4967,-195.9439"/>
<polygon fill="#191970" stroke="#191970" points="127.3025,-193.8485 118.7154,-187.6427 121.5583,-197.849 127.3025,-193.8485"/>
</g>
<!-- Node3 -->
<g id="node4" class="node">
<title>Node3</title>
<g id="a_node4"><a xlink:href="Meta_8hxx.html" target="_top" xlink:title="util/Meta.hxx">
<polygon fill="none" stroke="#000000" points="192,-56.5 192,-75.5 272,-75.5 272,-56.5 192,-56.5"/>
<text text-anchor="middle" x="232" y="-63.5" font-family="Helvetica,sans-Serif" font-size="10.00" fill="#000000">util/Meta.hxx</text>
</a>
</g>
</g>
<!-- Node0&#45;&gt;Node3 -->
<g id="edge3" class="edge">
<title>Node0&#45;&gt;Node3</title>
<path fill="none" stroke="#191970" d="M155.587,-224.4862C168.5021,-197.6994 205.3585,-121.2565 222.7289,-85.2289"/>
<polygon fill="#191970" stroke="#191970" points="226.0712,-86.3556 227.2616,-75.8279 219.7658,-83.3155 226.0712,-86.3556"/>
</g>
<!-- Node8 -->
<g id="node9" class="node">
<title>Node8</title>
<g id="a_node9"><a xlink:href="UIEvents_8hxx.html" target="_top" xlink:title="events/UIEvents.hxx">
<polygon fill="none" stroke="#000000" points="218.5,-168.5 218.5,-187.5 335.5,-187.5 335.5,-168.5 218.5,-168.5"/>
<text text-anchor="middle" x="277" y="-175.5" font-family="Helvetica,sans-Serif" font-size="10.00" fill="#000000">events/UIEvents.hxx</text>
</a>
</g>
</g>
<!-- Node0&#45;&gt;Node8 -->
<g id="edge8" class="edge">
<title>Node0&#45;&gt;Node8</title>
<path fill="none" stroke="#191970" d="M172.6602,-224.3733C192.9772,-215.3435 223.564,-201.7494 246.375,-191.6111"/>
<polygon fill="#191970" stroke="#191970" points="247.9059,-194.7609 255.6225,-187.5011 245.0628,-188.3642 247.9059,-194.7609"/>
</g>
<!-- Node4 -->
<g id="node5" class="node">
<title>Node4</title>
<polygon fill="none" stroke="#bfbfbf" points="80,-.5 80,-19.5 140,-19.5 140,-.5 80,-.5"/>
<text text-anchor="middle" x="110" y="-7.5" font-family="Helvetica,sans-Serif" font-size="10.00" fill="#000000">iostream</text>
</g>
<!-- Node3&#45;&gt;Node4 -->
<g id="edge4" class="edge">
<title>Node3&#45;&gt;Node4</title>
<path fill="none" stroke="#191970" d="M211.0275,-56.3733C191.4433,-47.3838 162.0039,-33.8706 139.949,-23.7471"/>
<polygon fill="#191970" stroke="#191970" points="141.2473,-20.4919 130.6989,-19.5011 138.3271,-26.8538 141.2473,-20.4919"/>
</g>
<!-- Node5 -->
<g id="node6" class="node">
<title>Node5</title>
<polygon fill="none" stroke="#bfbfbf" points="158.5,-.5 158.5,-19.5 227.5,-19.5 227.5,-.5 158.5,-.5"/>
<text text-anchor="middle" x="193" y="-7.5" font-family="Helvetica,sans-Serif" font-size="10.00" fill="#000000">type_traits</text>
</g>
<!-- Node3&#45;&gt;Node5 -->
<g id="edge5" class="edge">
<title>Node3&#45;&gt;Node5</title>
<path fill="none" stroke="#191970" d="M225.2067,-56.2455C219.7822,-48.4564 212.0339,-37.3308 205.4967,-27.9439"/>
<polygon fill="#191970" stroke="#191970" points="208.3025,-25.8485 199.7154,-19.6427 202.5583,-29.849 208.3025,-25.8485"/>
</g>
<!-- Node6 -->
<g id="node7" class="node">
<title>Node6</title>
<polygon fill="none" stroke="#bfbfbf" points="245.5,-.5 245.5,-19.5 296.5,-19.5 296.5,-.5 245.5,-.5"/>
<text text-anchor="middle" x="271" y="-7.5" font-family="Helvetica,sans-Serif" font-size="10.00" fill="#000000">variant</text>
</g>
<!-- Node3&#45;&gt;Node6 -->
<g id="edge6" class="edge">
<title>Node3&#45;&gt;Node6</title>
<path fill="none" stroke="#191970" d="M238.7933,-56.2455C244.2178,-48.4564 251.9661,-37.3308 258.5033,-27.9439"/>
<polygon fill="#191970" stroke="#191970" points="261.4417,-29.849 264.2846,-19.6427 255.6975,-25.8485 261.4417,-29.849"/>
</g>
<!-- Node7 -->
<g id="node8" class="node">
<title>Node7</title>
<polygon fill="none" stroke="#bfbfbf" points="314.5,-.5 314.5,-19.5 355.5,-19.5 355.5,-.5 314.5,-.5"/>
<text text-anchor="middle" x="335" y="-7.5" font-family="Helvetica,sans-Serif" font-size="10.00" fill="#000000">tuple</text>
</g>
<!-- Node3&#45;&gt;Node7 -->
<g id="edge7" class="edge">
<title>Node3&#45;&gt;Node7</title>
<path fill="none" stroke="#191970" d="M249.9412,-56.2455C266.04,-47.4928 289.8879,-34.527 308.2391,-24.5496"/>
<polygon fill="#191970" stroke="#191970" points="310.1507,-27.4942 317.2644,-19.6427 306.8071,-21.3444 310.1507,-27.4942"/>
</g>
<!-- Node9 -->
<g id="node10" class="node">
<title>Node9</title>
<polygon fill="none" stroke="#bfbfbf" points="218.5,-112.5 218.5,-131.5 283.5,-131.5 283.5,-112.5 218.5,-112.5"/>
<text text-anchor="middle" x="251" y="-119.5" font-family="Helvetica,sans-Serif" font-size="10.00" fill="#000000">functional</text>
</g>
<!-- Node8&#45;&gt;Node9 -->
<g id="edge9" class="edge">
<title>Node8&#45;&gt;Node9</title>
<path fill="none" stroke="#191970" d="M272.4711,-168.2455C268.9666,-160.6973 264.0073,-150.0158 259.7377,-140.8197"/>
<polygon fill="#191970" stroke="#191970" points="262.8627,-139.2389 255.477,-131.6427 256.5136,-142.1867 262.8627,-139.2389"/>
</g>
<!-- Node10 -->
<g id="node11" class="node">
<title>Node10</title>
<g id="a_node11"><a xlink:href="Observer_8hxx.html" target="_top" xlink:title="../util/Observer.hxx">
<polygon fill="none" stroke="#000000" points="301.5,-112.5 301.5,-131.5 410.5,-131.5 410.5,-112.5 301.5,-112.5"/>
<text text-anchor="middle" x="356" y="-119.5" font-family="Helvetica,sans-Serif" font-size="10.00" fill="#000000">../util/Observer.hxx</text>
</a>
</g>
</g>
<!-- Node8&#45;&gt;Node10 -->
<g id="edge10" class="edge">
<title>Node8&#45;&gt;Node10</title>
<path fill="none" stroke="#191970" d="M290.7607,-168.2455C302.6552,-159.814 320.065,-147.4729 333.9085,-137.6598"/>
<polygon fill="#191970" stroke="#191970" points="336.2628,-140.2811 342.3969,-131.6427 332.2146,-134.5704 336.2628,-140.2811"/>
</g>
<!-- Node10&#45;&gt;Node3 -->
<g id="edge13" class="edge">
<title>Node10&#45;&gt;Node3</title>
<path fill="none" stroke="#191970" d="M334.6836,-112.3733C314.7784,-103.3838 284.8564,-89.8706 262.44,-79.7471"/>
<polygon fill="#191970" stroke="#191970" points="263.5925,-76.4272 253.0382,-75.5011 260.7113,-82.8068 263.5925,-76.4272"/>
</g>
<!-- Node11 -->
<g id="node12" class="node">
<title>Node11</title>
<polygon fill="none" stroke="#bfbfbf" points="296.5,-56.5 296.5,-75.5 343.5,-75.5 343.5,-56.5 296.5,-56.5"/>
<text text-anchor="middle" x="320" y="-63.5" font-family="Helvetica,sans-Serif" font-size="10.00" fill="#000000">vector</text>
</g>
<!-- Node10&#45;&gt;Node11 -->
<g id="edge11" class="edge">
<title>Node10&#45;&gt;Node11</title>
<path fill="none" stroke="#191970" d="M349.7293,-112.2455C344.7736,-104.5367 337.717,-93.5598 331.7224,-84.2348"/>
<polygon fill="#191970" stroke="#191970" points="334.5506,-82.1618 326.1989,-75.6427 328.6624,-85.9471 334.5506,-82.1618"/>
</g>
<!-- Node12 -->
<g id="node13" class="node">
<title>Node12</title>
<polygon fill="none" stroke="#bfbfbf" points="362,-56.5 362,-75.5 420,-75.5 420,-56.5 362,-56.5"/>
<text text-anchor="middle" x="391" y="-63.5" font-family="Helvetica,sans-Serif" font-size="10.00" fill="#000000">memory</text>
</g>
<!-- Node10&#45;&gt;Node12 -->
<g id="edge12" class="edge">
<title>Node10&#45;&gt;Node12</title>
<path fill="none" stroke="#191970" d="M362.0965,-112.2455C366.9145,-104.5367 373.7751,-93.5598 379.6032,-84.2348"/>
<polygon fill="#191970" stroke="#191970" points="382.6413,-85.9777 384.9733,-75.6427 376.7053,-82.2677 382.6413,-85.9777"/>
</g>
</g>
</svg>
