<?xml version="1.0" encoding="UTF-8" standalone="no"?>
<!DOCTYPE svg PUBLIC "-//W3C//DTD SVG 1.1//EN"
 "http://www.w3.org/Graphics/SVG/1.1/DTD/svg11.dtd">
<!-- Generated by graphviz version 2.40.1 (20161225.0304)
 -->
<!-- Title: src/util/Filesystem.hxx Pages: 1 -->
<svg width="2822pt" height="95pt"
 viewBox="0.00 0.00 2821.50 95.00" xmlns="http://www.w3.org/2000/svg" xmlns:xlink="http://www.w3.org/1999/xlink">
<g id="graph0" class="graph" transform="scale(1 1) rotate(0) translate(4 91)">
<title>src/util/Filesystem.hxx</title>
<!-- Node31 -->
<g id="node1" class="node">
<title>Node31</title>
<polygon fill="#bfbfbf" stroke="#000000" points="1355,-67.5 1355,-86.5 1481,-86.5 1481,-67.5 1355,-67.5"/>
<text text-anchor="middle" x="1418" y="-74.5" font-family="Helvetica,sans-Serif" font-size="10.00" fill="#000000">src/util/Filesystem.hxx</text>
</g>
<!-- Node32 -->
<g id="node2" class="node">
<title>Node32</title>
<g id="a_node2"><a xlink:href="Settings_8cxx.html" target="_top" xlink:title="src/engine/basics/Settings.cxx">
<polygon fill="none" stroke="#000000" points="0,-6 0,-25 164,-25 164,-6 0,-6"/>
<text text-anchor="middle" x="82" y="-13" font-family="Helvetica,sans-Serif" font-size="10.00" fill="#000000">src/engine/basics/Settings.cxx</text>
</a>
</g>
</g>
<!-- Node31&#45;&gt;Node32 -->
<g id="edge1" class="edge">
<title>Node31&#45;&gt;Node32</title>
<path fill="none" stroke="#191970" d="M1344.5435,-75.5586C1113.3449,-70.8211 402.3756,-54.668 173,-31 159.2903,-29.5854 144.5221,-27.372 130.9538,-25.0561"/>
<polygon fill="#191970" stroke="#191970" points="1344.7908,-79.0643 1354.8601,-75.7689 1344.9336,-72.0657 1344.7908,-79.0643"/>
</g>
<!-- Node33 -->
<g id="node3" class="node">
<title>Node33</title>
<g id="a_node3"><a xlink:href="TerrainGenerator_8cxx.html" target="_top" xlink:title="src/engine/map/TerrainGenerator.cxx">
<polygon fill="none" stroke="#000000" points="182,-6 182,-25 378,-25 378,-6 182,-6"/>
<text text-anchor="middle" x="280" y="-13" font-family="Helvetica,sans-Serif" font-size="10.00" fill="#000000">src/engine/map/TerrainGenerator.cxx</text>
</a>
</g>
</g>
<!-- Node31&#45;&gt;Node33 -->
<g id="edge2" class="edge">
<title>Node31&#45;&gt;Node33</title>
<path fill="none" stroke="#191970" d="M1344.7586,-76.2266C1175.6681,-73.8963 745.1325,-64.8446 387,-31 371.2095,-29.5077 354.1853,-27.3119 338.4624,-25.0394"/>
<polygon fill="#191970" stroke="#191970" points="1344.7452,-79.7266 1354.7913,-76.3611 1344.8391,-72.7272 1344.7452,-79.7266"/>
</g>
<!-- Node34 -->
<g id="node4" class="node">
<title>Node34</title>
<g id="a_node4"><a xlink:href="Map_8cxx.html" target="_top" xlink:title="src/engine/Map.cxx">
<polygon fill="none" stroke="#000000" points="396,-6 396,-25 506,-25 506,-6 396,-6"/>
<text text-anchor="middle" x="451" y="-13" font-family="Helvetica,sans-Serif" font-size="10.00" fill="#000000">src/engine/Map.cxx</text>
</a>
</g>
</g>
<!-- Node31&#45;&gt;Node34 -->
<g id="edge3" class="edge">
<title>Node31&#45;&gt;Node34</title>
<path fill="none" stroke="#191970" d="M1344.7211,-75.0328C1159.2248,-69.7692 674.5127,-54.1714 515,-31 505.2703,-29.5866 494.8551,-27.3736 485.313,-25.0578"/>
<polygon fill="#191970" stroke="#191970" points="1344.822,-78.5369 1354.9167,-75.3202 1345.0193,-71.5397 1344.822,-78.5369"/>
</g>
<!-- Node35 -->
<g id="node5" class="node">
<title>Node35</title>
<g id="a_node5"><a xlink:href="ResourcesManager_8cxx.html" target="_top" xlink:title="src/engine/ResourcesManager.cxx">
<polygon fill="none" stroke="#000000" points="524.5,-6 524.5,-25 705.5,-25 705.5,-6 524.5,-6"/>
<text text-anchor="middle" x="615" y="-13" font-family="Helvetica,sans-Serif" font-size="10.00" fill="#000000">src/engine/ResourcesManager.cxx</text>
</a>
</g>
</g>
<!-- Node31&#45;&gt;Node35 -->
<g id="edge4" class="edge">
<title>Node31&#45;&gt;Node35</title>
<path fill="none" stroke="#191970" d="M1344.6317,-74.3836C1216.4119,-69.3256 943.3535,-56.3953 714,-31 699.7348,-29.4205 684.3822,-27.2492 670.1248,-25.0317"/>
<polygon fill="#191970" stroke="#191970" points="1344.5975,-77.8849 1354.7263,-74.7774 1344.8704,-70.8902 1344.5975,-77.8849"/>
</g>
<!-- Node36 -->
<g id="node6" class="node">
<title>Node36</title>
<g id="a_node6"><a xlink:href="TileManager_8cxx.html" target="_top" xlink:title="src/engine/TileManager.cxx">
<polygon fill="none" stroke="#000000" points="723.5,-6 723.5,-25 872.5,-25 872.5,-6 723.5,-6"/>
<text text-anchor="middle" x="798" y="-13" font-family="Helvetica,sans-Serif" font-size="10.00" fill="#000000">src/engine/TileManager.cxx</text>
</a>
</g>
</g>
<!-- Node31&#45;&gt;Node36 -->
<g id="edge5" class="edge">
<title>Node31&#45;&gt;Node36</title>
<path fill="none" stroke="#191970" d="M1344.9091,-73.0432C1241.3428,-66.9137 1046.1046,-53.4316 881,-31 869.0892,-29.3818 856.2929,-27.2099 844.4005,-25.0051"/>
<polygon fill="#191970" stroke="#191970" points="1344.7582,-76.5403 1354.9458,-73.6311 1345.1676,-69.5522 1344.7582,-76.5403"/>
</g>
<!-- Node37 -->
<g id="node7" class="node">
<title>Node37</title>
<g id="a_node7"><a xlink:href="Text_8cxx.html" target="_top" xlink:title="src/engine/ui/widgets\l/Text.cxx">
<polygon fill="none" stroke="#000000" points="890,-.5 890,-30.5 1010,-30.5 1010,-.5 890,-.5"/>
<text text-anchor="start" x="898" y="-18.5" font-family="Helvetica,sans-Serif" font-size="10.00" fill="#000000">src/engine/ui/widgets</text>
<text text-anchor="middle" x="950" y="-7.5" font-family="Helvetica,sans-Serif" font-size="10.00" fill="#000000">/Text.cxx</text>
</a>
</g>
</g>
<!-- Node31&#45;&gt;Node37 -->
<g id="edge6" class="edge">
<title>Node31&#45;&gt;Node37</title>
<path fill="none" stroke="#191970" d="M1344.813,-70.9121C1264.5384,-63.6887 1132.0693,-50.1619 1019,-31 1016.0948,-30.5077 1013.1278,-29.9714 1010.1363,-29.4038"/>
<polygon fill="#191970" stroke="#191970" points="1344.5496,-74.4024 1354.8209,-71.8043 1345.1713,-67.4301 1344.5496,-74.4024"/>
</g>
<!-- Node38 -->
<g id="node8" class="node">
<title>Node38</title>
<g id="a_node8"><a xlink:href="UIManager_8cxx.html" target="_top" xlink:title="src/engine/UIManager.cxx">
<polygon fill="none" stroke="#000000" points="1028,-6 1028,-25 1170,-25 1170,-6 1028,-6"/>
<text text-anchor="middle" x="1099" y="-13" font-family="Helvetica,sans-Serif" font-size="10.00" fill="#000000">src/engine/UIManager.cxx</text>
</a>
</g>
</g>
<!-- Node31&#45;&gt;Node38 -->
<g id="edge7" class="edge">
<title>Node31&#45;&gt;Node38</title>
<path fill="none" stroke="#191970" d="M1358.1217,-65.4965C1309.7784,-56.204 1240.0045,-42.7805 1179,-31 1168.9988,-29.0687 1158.2952,-26.9976 1148.0753,-25.0183"/>
<polygon fill="#191970" stroke="#191970" points="1357.6206,-68.9642 1368.1015,-67.4147 1358.9419,-62.09 1357.6206,-68.9642"/>
</g>
<!-- Node39 -->
<g id="node9" class="node">
<title>Node39</title>
<g id="a_node9"><a xlink:href="WindowManager_8cxx.html" target="_top" xlink:title="src/engine/WindowManager.cxx">
<polygon fill="none" stroke="#000000" points="1188,-6 1188,-25 1358,-25 1358,-6 1188,-6"/>
<text text-anchor="middle" x="1273" y="-13" font-family="Helvetica,sans-Serif" font-size="10.00" fill="#000000">src/engine/WindowManager.cxx</text>
</a>
</g>
</g>
<!-- Node31&#45;&gt;Node39 -->
<g id="edge8" class="edge">
<title>Node31&#45;&gt;Node39</title>
<path fill="none" stroke="#191970" d="M1385.8001,-63.3428C1358.3824,-51.7139 1319.695,-35.3051 1295.4972,-25.0419"/>
<polygon fill="#191970" stroke="#191970" points="1384.7709,-66.708 1395.3438,-67.3906 1387.5042,-60.2637 1384.7709,-66.708"/>
</g>
<!-- Node40 -->
<g id="node10" class="node">
<title>Node40</title>
<g id="a_node10"><a xlink:href="Game_8cxx.html" target="_top" xlink:title="src/Game.cxx">
<polygon fill="none" stroke="#000000" points="1376.5,-6 1376.5,-25 1459.5,-25 1459.5,-6 1376.5,-6"/>
<text text-anchor="middle" x="1418" y="-13" font-family="Helvetica,sans-Serif" font-size="10.00" fill="#000000">src/Game.cxx</text>
</a>
</g>
</g>
<!-- Node31&#45;&gt;Node40 -->
<g id="edge9" class="edge">
<title>Node31&#45;&gt;Node40</title>
<path fill="none" stroke="#191970" d="M1418,-57.2462C1418,-46.5519 1418,-33.814 1418,-25.2449"/>
<polygon fill="#191970" stroke="#191970" points="1414.5001,-57.3906 1418,-67.3906 1421.5001,-57.3907 1414.5001,-57.3906"/>
</g>
<!-- Node41 -->
<g id="node11" class="node">
<title>Node41</title>
<g id="a_node11"><a xlink:href="ScriptEngine_8cxx.html" target="_top" xlink:title="src/Scripting/ScriptEngine.cxx">
<polygon fill="none" stroke="#000000" points="1477.5,-6 1477.5,-25 1638.5,-25 1638.5,-6 1477.5,-6"/>
<text text-anchor="middle" x="1558" y="-13" font-family="Helvetica,sans-Serif" font-size="10.00" fill="#000000">src/Scripting/ScriptEngine.cxx</text>
</a>
</g>
</g>
<!-- Node31&#45;&gt;Node41 -->
<g id="edge10" class="edge">
<title>Node31&#45;&gt;Node41</title>
<path fill="none" stroke="#191970" d="M1449.0895,-63.3428C1475.5618,-51.7139 1512.9152,-35.3051 1536.2786,-25.0419"/>
<polygon fill="#191970" stroke="#191970" points="1447.6229,-60.1642 1439.875,-67.3906 1450.4383,-66.5731 1447.6229,-60.1642"/>
</g>
<!-- Node42 -->
<g id="node12" class="node">
<title>Node42</title>
<g id="a_node12"><a xlink:href="AudioMixer_8cxx.html" target="_top" xlink:title="src/services/AudioMixer.cxx">
<polygon fill="none" stroke="#000000" points="1657,-6 1657,-25 1809,-25 1809,-6 1657,-6"/>
<text text-anchor="middle" x="1733" y="-13" font-family="Helvetica,sans-Serif" font-size="10.00" fill="#000000">src/services/AudioMixer.cxx</text>
</a>
</g>
</g>
<!-- Node31&#45;&gt;Node42 -->
<g id="edge11" class="edge">
<title>Node31&#45;&gt;Node42</title>
<path fill="none" stroke="#191970" d="M1476.9284,-65.4949C1536.7783,-53.81 1628.383,-35.9252 1684.2714,-25.0137"/>
<polygon fill="#191970" stroke="#191970" points="1476.0171,-62.1067 1466.8731,-67.4581 1477.3585,-68.977 1476.0171,-62.1067"/>
</g>
<!-- Node43 -->
<g id="node13" class="node">
<title>Node43</title>
<g id="a_node13"><a xlink:href="ResourceManager_8cxx.html" target="_top" xlink:title="src/services/ResourceManager.cxx">
<polygon fill="none" stroke="#000000" points="1827.5,-6 1827.5,-25 2010.5,-25 2010.5,-6 1827.5,-6"/>
<text text-anchor="middle" x="1919" y="-13" font-family="Helvetica,sans-Serif" font-size="10.00" fill="#000000">src/services/ResourceManager.cxx</text>
</a>
</g>
</g>
<!-- Node31&#45;&gt;Node43 -->
<g id="edge12" class="edge">
<title>Node31&#45;&gt;Node43</title>
<path fill="none" stroke="#191970" d="M1491.1437,-69.4268C1571.4235,-60.9195 1704.0561,-46.2894 1818,-31 1831.4506,-29.1952 1845.8814,-27.0849 1859.5056,-25.0128"/>
<polygon fill="#191970" stroke="#191970" points="1490.7127,-65.9528 1481.1359,-70.4844 1491.4483,-72.9141 1490.7127,-65.9528"/>
</g>
<!-- Node44 -->
<g id="node14" class="node">
<title>Node44</title>
<g id="a_node14"><a xlink:href="android_2Filesystem_8cxx.html" target="_top" xlink:title="src/util/android/Filesystem.cxx">
<polygon fill="none" stroke="#000000" points="2028.5,-6 2028.5,-25 2193.5,-25 2193.5,-6 2028.5,-6"/>
<text text-anchor="middle" x="2111" y="-13" font-family="Helvetica,sans-Serif" font-size="10.00" fill="#000000">src/util/android/Filesystem.cxx</text>
</a>
</g>
</g>
<!-- Node31&#45;&gt;Node44 -->
<g id="edge13" class="edge">
<title>Node31&#45;&gt;Node44</title>
<path fill="none" stroke="#191970" d="M1491.3299,-73.5865C1604.9083,-67.8062 1830.0862,-54.379 2020,-31 2033.043,-29.3944 2047.0669,-27.227 2060.1052,-25.0226"/>
<polygon fill="#191970" stroke="#191970" points="1490.8347,-70.1069 1481.0234,-74.1056 1491.1868,-77.0981 1490.8347,-70.1069"/>
</g>
<!-- Node45 -->
<g id="node15" class="node">
<title>Node45</title>
<g id="a_node15"><a xlink:href="desktop_2Filesystem_8cxx.html" target="_top" xlink:title="src/util/desktop/Filesystem.cxx">
<polygon fill="none" stroke="#000000" points="2211.5,-6 2211.5,-25 2378.5,-25 2378.5,-6 2211.5,-6"/>
<text text-anchor="middle" x="2295" y="-13" font-family="Helvetica,sans-Serif" font-size="10.00" fill="#000000">src/util/desktop/Filesystem.cxx</text>
</a>
</g>
</g>
<!-- Node31&#45;&gt;Node45 -->
<g id="edge14" class="edge">
<title>Node31&#45;&gt;Node45</title>
<path fill="none" stroke="#191970" d="M1491.1425,-75.3588C1630.1983,-71.6529 1942.1242,-60.5314 2203,-31 2216.5194,-29.4696 2231.072,-27.2747 2244.5241,-25.0161"/>
<polygon fill="#191970" stroke="#191970" points="1490.9362,-71.8629 1481.0312,-75.6232 1491.1193,-78.8605 1490.9362,-71.8629"/>
</g>
<!-- Node46 -->
<g id="node16" class="node">
<title>Node46</title>
<g id="a_node16"><a xlink:href="Filesystem_8cxx.html" target="_top" xlink:title="src/util/Filesystem.cxx">
<polygon fill="none" stroke="#000000" points="2396.5,-6 2396.5,-25 2521.5,-25 2521.5,-6 2396.5,-6"/>
<text text-anchor="middle" x="2459" y="-13" font-family="Helvetica,sans-Serif" font-size="10.00" fill="#000000">src/util/Filesystem.cxx</text>
</a>
</g>
</g>
<!-- Node31&#45;&gt;Node46 -->
<g id="edge15" class="edge">
<title>Node31&#45;&gt;Node46</title>
<path fill="none" stroke="#191970" d="M1491.1712,-75.1198C1686.0829,-69.8571 2214.7628,-53.8534 2388,-31 2398.7572,-29.5809 2410.2995,-27.366 2420.8855,-25.0502"/>
<polygon fill="#191970" stroke="#191970" points="1490.9357,-71.6248 1481.0333,-75.392 1491.1236,-78.6223 1490.9357,-71.6248"/>
</g>
<!-- Node47 -->
<g id="node17" class="node">
<title>Node47</title>
<g id="a_node17"><a xlink:href="LOG_8cxx.html" target="_top" xlink:title="src/util/LOG.cxx">
<polygon fill="none" stroke="#000000" points="2539.5,-6 2539.5,-25 2632.5,-25 2632.5,-6 2539.5,-6"/>
<text text-anchor="middle" x="2586" y="-13" font-family="Helvetica,sans-Serif" font-size="10.00" fill="#000000">src/util/LOG.cxx</text>
</a>
</g>
</g>
<!-- Node31&#45;&gt;Node47 -->
<g id="edge16" class="edge">
<title>Node31&#45;&gt;Node47</title>
<path fill="none" stroke="#191970" d="M1491.395,-76.199C1705.9896,-73.5034 2329.8212,-63.0534 2531,-31 2539.5234,-29.642 2548.6057,-27.4168 2556.8826,-25.0708"/>
<polygon fill="#191970" stroke="#191970" points="1491.1405,-72.7018 1481.1845,-76.3253 1491.2271,-79.7013 1491.1405,-72.7018"/>
</g>
<!-- Node48 -->
<g id="node18" class="node">
<title>Node48</title>
<g id="a_node18"><a xlink:href="macOS_2Filesystem_8cxx.html" target="_top" xlink:title="src/util/macOS/Filesystem.cxx">
<polygon fill="none" stroke="#000000" points="2650.5,-6 2650.5,-25 2813.5,-25 2813.5,-6 2650.5,-6"/>
<text text-anchor="middle" x="2732" y="-13" font-family="Helvetica,sans-Serif" font-size="10.00" fill="#000000">src/util/macOS/Filesystem.cxx</text>
</a>
</g>
</g>
<!-- Node31&#45;&gt;Node48 -->
<g id="edge17" class="edge">
<title>Node31&#45;&gt;Node48</title>
<path fill="none" stroke="#191970" d="M1491.4049,-75.5237C1719.9443,-70.7248 2416.9076,-54.5073 2642,-31 2655.5616,-29.5837 2670.1683,-27.3698 2683.5875,-25.0539"/>
<polygon fill="#191970" stroke="#191970" points="1491.1274,-72.0286 1481.2027,-75.7368 1491.2737,-79.0271 1491.1274,-72.0286"/>
</g>
</g>
</svg>
