<?xml version="1.0" encoding="UTF-8" standalone="no"?>
<!DOCTYPE svg PUBLIC "-//W3C//DTD SVG 1.1//EN"
 "http://www.w3.org/Graphics/SVG/1.1/DTD/svg11.dtd">
<!-- Generated by graphviz version 2.40.1 (20161225.0304)
 -->
<!-- Title: src/Game.hxx Pages: 1 -->
<svg width="1727pt" height="420pt"
 viewBox="0.00 0.00 1727.00 420.00" xmlns="http://www.w3.org/2000/svg" xmlns:xlink="http://www.w3.org/1999/xlink">
<g id="graph0" class="graph" transform="scale(1 1) rotate(0) translate(4 416)">
<title>src/Game.hxx</title>
<!-- Node0 -->
<g id="node1" class="node">
<title>Node0</title>
<polygon fill="#bfbfbf" stroke="#000000" points="1006,-392.5 1006,-411.5 1090,-411.5 1090,-392.5 1006,-392.5"/>
<text text-anchor="middle" x="1048" y="-399.5" font-family="Helvetica,sans-Serif" font-size="10.00" fill="#000000">src/Game.hxx</text>
</g>
<!-- Node1 -->
<g id="node2" class="node">
<title>Node1</title>
<g id="a_node2"><a xlink:href="ScriptEngine_8hxx.html" target="_top" xlink:title="Scripting/ScriptEngine.hxx">
<polygon fill="none" stroke="#000000" points="271,-336.5 271,-355.5 415,-355.5 415,-336.5 271,-336.5"/>
<text text-anchor="middle" x="343" y="-343.5" font-family="Helvetica,sans-Serif" font-size="10.00" fill="#000000">Scripting/ScriptEngine.hxx</text>
</a>
</g>
</g>
<!-- Node0&#45;&gt;Node1 -->
<g id="edge1" class="edge">
<title>Node0&#45;&gt;Node1</title>
<path fill="none" stroke="#191970" d="M1005.9185,-399.4785C905.8208,-393.3486 645.6976,-376.6415 429,-356 427.8777,-355.8931 426.7474,-355.7839 425.6105,-355.6726"/>
<polygon fill="#191970" stroke="#191970" points="425.5402,-352.1476 415.238,-354.6204 424.8337,-359.1118 425.5402,-352.1476"/>
</g>
<!-- Node2 -->
<g id="node3" class="node">
<title>Node2</title>
<g id="a_node3"><a xlink:href="MessageQueue_8hxx.html" target="_top" xlink:title="engine/MessageQueue.hxx">
<polygon fill="none" stroke="#000000" points="305,-280.5 305,-299.5 453,-299.5 453,-280.5 305,-280.5"/>
<text text-anchor="middle" x="379" y="-287.5" font-family="Helvetica,sans-Serif" font-size="10.00" fill="#000000">engine/MessageQueue.hxx</text>
</a>
</g>
</g>
<!-- Node0&#45;&gt;Node2 -->
<g id="edge2" class="edge">
<title>Node0&#45;&gt;Node2</title>
<path fill="none" stroke="#191970" d="M1005.6069,-401.6874C889.0148,-400.3489 565.6754,-393.2832 467,-356 438.7516,-345.3267 411.8259,-322.6582 395.3663,-306.8848"/>
<polygon fill="#191970" stroke="#191970" points="397.7425,-304.3124 388.1669,-299.7782 392.8249,-309.2942 397.7425,-304.3124"/>
</g>
<!-- Node12 -->
<g id="node13" class="node">
<title>Node12</title>
<g id="a_node13"><a xlink:href="Meta_8hxx.html" target="_top" xlink:title="util/Meta.hxx">
<polygon fill="none" stroke="#000000" points="585,-56.5 585,-75.5 665,-75.5 665,-56.5 585,-56.5"/>
<text text-anchor="middle" x="625" y="-63.5" font-family="Helvetica,sans-Serif" font-size="10.00" fill="#000000">util/Meta.hxx</text>
</a>
</g>
</g>
<!-- Node0&#45;&gt;Node12 -->
<g id="edge24" class="edge">
<title>Node0&#45;&gt;Node12</title>
<path fill="none" stroke="#191970" d="M1005.8461,-398.1485C874.4424,-385.583 481,-343.4935 481,-290 481,-290 481,-290 481,-234 481,-162.5725 556.9655,-106.2768 598.5463,-80.8126"/>
<polygon fill="#191970" stroke="#191970" points="600.5439,-83.6965 607.3428,-75.5709 596.9606,-77.6832 600.5439,-83.6965"/>
</g>
<!-- Node21 -->
<g id="node22" class="node">
<title>Node21</title>
<g id="a_node22"><a xlink:href="GameService_8hxx.html" target="_top" xlink:title="GameService.hxx">
<polygon fill="none" stroke="#000000" points="996.5,-280.5 996.5,-299.5 1099.5,-299.5 1099.5,-280.5 996.5,-280.5"/>
<text text-anchor="middle" x="1048" y="-287.5" font-family="Helvetica,sans-Serif" font-size="10.00" fill="#000000">GameService.hxx</text>
</a>
</g>
</g>
<!-- Node0&#45;&gt;Node21 -->
<g id="edge25" class="edge">
<title>Node0&#45;&gt;Node21</title>
<path fill="none" stroke="#191970" d="M1048,-392.4509C1048,-374.184 1048,-333.9553 1048,-309.6976"/>
<polygon fill="#191970" stroke="#191970" points="1051.5001,-309.5249 1048,-299.5249 1044.5001,-309.5249 1051.5001,-309.5249"/>
</g>
<!-- Node23 -->
<g id="node24" class="node">
<title>Node23</title>
<g id="a_node24"><a xlink:href="Randomizer_8hxx.html" target="_top" xlink:title="services/Randomizer.hxx">
<polygon fill="none" stroke="#000000" points="691.5,-336.5 691.5,-355.5 830.5,-355.5 830.5,-336.5 691.5,-336.5"/>
<text text-anchor="middle" x="761" y="-343.5" font-family="Helvetica,sans-Serif" font-size="10.00" fill="#000000">services/Randomizer.hxx</text>
</a>
</g>
</g>
<!-- Node0&#45;&gt;Node23 -->
<g id="edge28" class="edge">
<title>Node0&#45;&gt;Node23</title>
<path fill="none" stroke="#191970" d="M1005.9604,-393.7971C956.8579,-384.2162 875.3063,-368.3037 819.91,-357.4946"/>
<polygon fill="#191970" stroke="#191970" points="820.3696,-354.0184 809.8844,-355.5384 819.029,-360.8888 820.3696,-354.0184"/>
</g>
<!-- Node26 -->
<g id="node27" class="node">
<title>Node26</title>
<g id="a_node27"><a xlink:href="LOG_8hxx.html" target="_top" xlink:title="LOG.hxx">
<polygon fill="none" stroke="#000000" points="1167,-280.5 1167,-299.5 1225,-299.5 1225,-280.5 1167,-280.5"/>
<text text-anchor="middle" x="1196" y="-287.5" font-family="Helvetica,sans-Serif" font-size="10.00" fill="#000000">LOG.hxx</text>
</a>
</g>
</g>
<!-- Node0&#45;&gt;Node26 -->
<g id="edge62" class="edge">
<title>Node0&#45;&gt;Node26</title>
<path fill="none" stroke="#191970" d="M1060.6184,-392.4509C1086.1768,-373.1094 1144.2707,-329.1465 1175.3984,-305.5904"/>
<polygon fill="#191970" stroke="#191970" points="1177.5515,-308.3503 1183.4135,-299.5249 1173.3274,-302.7684 1177.5515,-308.3503"/>
</g>
<!-- Node27 -->
<g id="node28" class="node">
<title>Node27</title>
<g id="a_node28"><a xlink:href="Exception_8hxx.html" target="_top" xlink:title="Exception.hxx">
<polygon fill="none" stroke="#000000" points="1568,-224.5 1568,-243.5 1654,-243.5 1654,-224.5 1568,-224.5"/>
<text text-anchor="middle" x="1611" y="-231.5" font-family="Helvetica,sans-Serif" font-size="10.00" fill="#000000">Exception.hxx</text>
</a>
</g>
</g>
<!-- Node0&#45;&gt;Node27 -->
<g id="edge63" class="edge">
<title>Node0&#45;&gt;Node27</title>
<path fill="none" stroke="#191970" d="M1090.1505,-399.659C1185.0029,-394.0544 1412.6651,-378.6281 1486,-356 1536.1634,-340.5216 1556.4844,-340.4061 1590,-300 1600.9033,-286.8551 1606.1722,-267.9803 1608.7025,-253.7798"/>
<polygon fill="#191970" stroke="#191970" points="1612.2084,-253.9949 1610.2,-243.5922 1605.2828,-252.9769 1612.2084,-253.9949"/>
</g>
<!-- Node37 -->
<g id="node38" class="node">
<title>Node37</title>
<g id="a_node38"><a xlink:href="GameClock_8hxx.html" target="_top" xlink:title="services/GameClock.hxx">
<polygon fill="none" stroke="#000000" points="1306.5,-336.5 1306.5,-355.5 1443.5,-355.5 1443.5,-336.5 1306.5,-336.5"/>
<text text-anchor="middle" x="1375" y="-343.5" font-family="Helvetica,sans-Serif" font-size="10.00" fill="#000000">services/GameClock.hxx</text>
</a>
</g>
</g>
<!-- Node0&#45;&gt;Node37 -->
<g id="edge47" class="edge">
<title>Node0&#45;&gt;Node37</title>
<path fill="none" stroke="#191970" d="M1090.0801,-394.7936C1145.5865,-385.2879 1243.8649,-368.4574 1309.2273,-357.2638"/>
<polygon fill="#191970" stroke="#191970" points="1310.1576,-360.6555 1319.4233,-355.5177 1308.976,-353.756 1310.1576,-360.6555"/>
</g>
<!-- Node39 -->
<g id="node40" class="node">
<title>Node39</title>
<polygon fill="none" stroke="#bfbfbf" points="1533,-280.5 1533,-299.5 1581,-299.5 1581,-280.5 1533,-280.5"/>
<text text-anchor="middle" x="1557" y="-287.5" font-family="Helvetica,sans-Serif" font-size="10.00" fill="#000000">thread</text>
</g>
<!-- Node0&#45;&gt;Node39 -->
<g id="edge64" class="edge">
<title>Node0&#45;&gt;Node39</title>
<path fill="none" stroke="#191970" d="M1090.0938,-399.6182C1179.7499,-394.1571 1386.7701,-379.375 1453,-356 1485.3213,-344.5926 1517.9379,-321.5975 1537.8101,-305.9966"/>
<polygon fill="#191970" stroke="#191970" points="1540.1475,-308.6085 1545.7528,-299.6178 1535.7643,-303.1506 1540.1475,-308.6085"/>
</g>
<!-- Node41 -->
<g id="node42" class="node">
<title>Node41</title>
<g id="a_node42"><a xlink:href="ResourceManager_8hxx.html" target="_top" xlink:title="services/ResourceManager.hxx">
<polygon fill="none" stroke="#000000" points="848.5,-336.5 848.5,-355.5 1015.5,-355.5 1015.5,-336.5 848.5,-336.5"/>
<text text-anchor="middle" x="932" y="-343.5" font-family="Helvetica,sans-Serif" font-size="10.00" fill="#000000">services/ResourceManager.hxx</text>
</a>
</g>
</g>
<!-- Node0&#45;&gt;Node41 -->
<g id="edge56" class="edge">
<title>Node0&#45;&gt;Node41</title>
<path fill="none" stroke="#191970" d="M1028.0589,-392.3733C1009.5214,-383.4241 981.6972,-369.9917 960.7587,-359.8835"/>
<polygon fill="#191970" stroke="#191970" points="962.2081,-356.6967 951.6809,-355.5011 959.1648,-363.0006 962.2081,-356.6967"/>
</g>
<!-- Node44 -->
<g id="node45" class="node">
<title>Node44</title>
<g id="a_node45"><a xlink:href="Game_8inl_8hxx.html" target="_top" xlink:title="Game.inl.hxx">
<polygon fill="none" stroke="#000000" points="1637,-336.5 1637,-355.5 1719,-355.5 1719,-336.5 1637,-336.5"/>
<text text-anchor="middle" x="1678" y="-343.5" font-family="Helvetica,sans-Serif" font-size="10.00" fill="#000000">Game.inl.hxx</text>
</a>
</g>
</g>
<!-- Node0&#45;&gt;Node44 -->
<g id="edge65" class="edge">
<title>Node0&#45;&gt;Node44</title>
<path fill="none" stroke="#191970" d="M1090.3532,-400.0648C1185.7563,-395.3882 1424.6436,-381.9007 1623,-356 1624.2721,-355.8339 1625.5595,-355.6583 1626.8572,-355.4746"/>
<polygon fill="#191970" stroke="#191970" points="1627.5706,-358.9062 1636.9249,-353.9316 1626.5101,-351.987 1627.5706,-358.9062"/>
</g>
<!-- Node3 -->
<g id="node4" class="node">
<title>Node3</title>
<polygon fill="none" stroke="#bfbfbf" points="217.5,-224.5 217.5,-243.5 324.5,-243.5 324.5,-224.5 217.5,-224.5"/>
<text text-anchor="middle" x="271" y="-231.5" font-family="Helvetica,sans-Serif" font-size="10.00" fill="#000000">condition_variable</text>
</g>
<!-- Node2&#45;&gt;Node3 -->
<g id="edge3" class="edge">
<title>Node2&#45;&gt;Node3</title>
<path fill="none" stroke="#191970" d="M360.1878,-280.2455C343.1527,-271.4125 317.8425,-258.2887 298.5319,-248.2758"/>
<polygon fill="#191970" stroke="#191970" points="300.0853,-245.1388 289.5966,-243.6427 296.863,-251.353 300.0853,-245.1388"/>
</g>
<!-- Node4 -->
<g id="node5" class="node">
<title>Node4</title>
<polygon fill="none" stroke="#bfbfbf" points="874,-224.5 874,-243.5 922,-243.5 922,-224.5 874,-224.5"/>
<text text-anchor="middle" x="898" y="-231.5" font-family="Helvetica,sans-Serif" font-size="10.00" fill="#000000">mutex</text>
</g>
<!-- Node2&#45;&gt;Node4 -->
<g id="edge4" class="edge">
<title>Node2&#45;&gt;Node4</title>
<path fill="none" stroke="#191970" d="M453.3692,-283.7856C572.3883,-273.7241 798.2063,-254.1205 863.939,-243.6627"/>
<polygon fill="#191970" stroke="#191970" points="864.7539,-247.0729 873.9899,-241.8819 863.5326,-240.1802 864.7539,-247.0729"/>
</g>
<!-- Node5 -->
<g id="node6" class="node">
<title>Node5</title>
<polygon fill="none" stroke="#bfbfbf" points="381.5,-224.5 381.5,-243.5 428.5,-243.5 428.5,-224.5 381.5,-224.5"/>
<text text-anchor="middle" x="405" y="-231.5" font-family="Helvetica,sans-Serif" font-size="10.00" fill="#000000">deque</text>
</g>
<!-- Node2&#45;&gt;Node5 -->
<g id="edge5" class="edge">
<title>Node2&#45;&gt;Node5</title>
<path fill="none" stroke="#191970" d="M383.5289,-280.2455C387.0334,-272.6973 391.9927,-262.0158 396.2623,-252.8197"/>
<polygon fill="#191970" stroke="#191970" points="399.4864,-254.1867 400.523,-243.6427 393.1373,-251.2389 399.4864,-254.1867"/>
</g>
<!-- Node6 -->
<g id="node7" class="node">
<title>Node6</title>
<polygon fill="none" stroke="#bfbfbf" points="335.5,-56.5 335.5,-75.5 382.5,-75.5 382.5,-56.5 335.5,-56.5"/>
<text text-anchor="middle" x="359" y="-63.5" font-family="Helvetica,sans-Serif" font-size="10.00" fill="#000000">vector</text>
</g>
<!-- Node2&#45;&gt;Node6 -->
<g id="edge6" class="edge">
<title>Node2&#45;&gt;Node6</title>
<path fill="none" stroke="#191970" d="M377.2746,-280.159C375.6993,-270.865 373.4079,-256.5229 372,-244 365.5588,-186.7093 361.6134,-118.669 359.9384,-85.7686"/>
<polygon fill="#191970" stroke="#191970" points="363.4289,-85.4873 359.4403,-75.672 356.4374,-85.8323 363.4289,-85.4873"/>
</g>
<!-- Node7 -->
<g id="node8" class="node">
<title>Node7</title>
<polygon fill="none" stroke="#bfbfbf" points="611.5,-112.5 611.5,-131.5 676.5,-131.5 676.5,-112.5 611.5,-112.5"/>
<text text-anchor="middle" x="644" y="-119.5" font-family="Helvetica,sans-Serif" font-size="10.00" fill="#000000">functional</text>
</g>
<!-- Node2&#45;&gt;Node7 -->
<g id="edge7" class="edge">
<title>Node2&#45;&gt;Node7</title>
<path fill="none" stroke="#191970" d="M394.0068,-280.4862C437.9954,-252.5991 566.8775,-170.8927 620.3391,-137.0001"/>
<polygon fill="#191970" stroke="#191970" points="622.2575,-139.928 628.8293,-131.6177 618.5095,-134.016 622.2575,-139.928"/>
</g>
<!-- Node8 -->
<g id="node9" class="node">
<title>Node8</title>
<polygon fill="none" stroke="#bfbfbf" points="0,-224.5 0,-243.5 54,-243.5 54,-224.5 0,-224.5"/>
<text text-anchor="middle" x="27" y="-231.5" font-family="Helvetica,sans-Serif" font-size="10.00" fill="#000000">ciso646</text>
</g>
<!-- Node2&#45;&gt;Node8 -->
<g id="edge8" class="edge">
<title>Node2&#45;&gt;Node8</title>
<path fill="none" stroke="#191970" d="M304.7873,-281.8848C242.7759,-274.4882 151.9027,-262.2218 63.9177,-243.9816"/>
<polygon fill="#191970" stroke="#191970" points="64.5426,-240.5365 54.0366,-241.905 63.1029,-247.3869 64.5426,-240.5365"/>
</g>
<!-- Node9 -->
<g id="node10" class="node">
<title>Node9</title>
<g id="a_node10"><a xlink:href="Events_8hxx.html" target="_top" xlink:title="../Events.hxx">
<polygon fill="none" stroke="#000000" points="602,-224.5 602,-243.5 682,-243.5 682,-224.5 602,-224.5"/>
<text text-anchor="middle" x="642" y="-231.5" font-family="Helvetica,sans-Serif" font-size="10.00" fill="#000000">../Events.hxx</text>
</a>
</g>
</g>
<!-- Node2&#45;&gt;Node9 -->
<g id="edge9" class="edge">
<title>Node2&#45;&gt;Node9</title>
<path fill="none" stroke="#191970" d="M423.9125,-280.4369C470.4817,-270.521 543.1317,-255.0518 591.6249,-244.7263"/>
<polygon fill="#191970" stroke="#191970" points="592.5363,-248.1107 601.5881,-242.6048 591.0784,-241.2642 592.5363,-248.1107"/>
</g>
<!-- Node20 -->
<g id="node21" class="node">
<title>Node20</title>
<g id="a_node21"><a xlink:href="MessageQueue_8inl_8hxx.html" target="_top" xlink:title="MessageQueue.inl.hxx">
<polygon fill="none" stroke="#000000" points="72.5,-224.5 72.5,-243.5 199.5,-243.5 199.5,-224.5 72.5,-224.5"/>
<text text-anchor="middle" x="136" y="-231.5" font-family="Helvetica,sans-Serif" font-size="10.00" fill="#000000">MessageQueue.inl.hxx</text>
</a>
</g>
</g>
<!-- Node2&#45;&gt;Node20 -->
<g id="edge23" class="edge">
<title>Node2&#45;&gt;Node20</title>
<path fill="none" stroke="#191970" d="M337.5029,-280.4369C295.9153,-270.8529 231.8166,-256.0812 187.1169,-245.78"/>
<polygon fill="#191970" stroke="#191970" points="187.8565,-242.3588 177.3259,-243.5237 186.2845,-249.18 187.8565,-242.3588"/>
</g>
<!-- Node10 -->
<g id="node11" class="node">
<title>Node10</title>
<polygon fill="none" stroke="#bfbfbf" points="877,-168.5 877,-187.5 921,-187.5 921,-168.5 877,-168.5"/>
<text text-anchor="middle" x="899" y="-175.5" font-family="Helvetica,sans-Serif" font-size="10.00" fill="#000000">string</text>
</g>
<!-- Node9&#45;&gt;Node10 -->
<g id="edge10" class="edge">
<title>Node9&#45;&gt;Node10</title>
<path fill="none" stroke="#191970" d="M682.1013,-226.4759C726.5167,-217.9513 800.1599,-203.2503 863,-188 864.2765,-187.6902 865.5763,-187.3669 866.8877,-187.034"/>
<polygon fill="#191970" stroke="#191970" points="868.2032,-190.3065 876.9752,-184.3649 866.4125,-183.5394 868.2032,-190.3065"/>
</g>
<!-- Node11 -->
<g id="node12" class="node">
<title>Node11</title>
<polygon fill="none" stroke="#bfbfbf" points="721,-168.5 721,-187.5 821,-187.5 821,-168.5 721,-168.5"/>
<text text-anchor="middle" x="771" y="-175.5" font-family="Helvetica,sans-Serif" font-size="10.00" fill="#000000">betterEnums.hxx</text>
</g>
<!-- Node9&#45;&gt;Node11 -->
<g id="edge11" class="edge">
<title>Node9&#45;&gt;Node11</title>
<path fill="none" stroke="#191970" d="M664.1759,-224.3733C684.9766,-215.3435 716.2917,-201.7494 739.6458,-191.6111"/>
<polygon fill="#191970" stroke="#191970" points="741.3343,-194.6938 749.1135,-187.5011 738.5468,-188.2727 741.3343,-194.6938"/>
</g>
<!-- Node9&#45;&gt;Node12 -->
<g id="edge12" class="edge">
<title>Node9&#45;&gt;Node12</title>
<path fill="none" stroke="#191970" d="M682.4378,-225.4291C736.2969,-213.8231 825.3842,-193.8814 830,-188 835.4879,-181.0075 834.6805,-175.5568 830,-168 796.3173,-113.6191 723.9828,-87.3024 674.8954,-75.2551"/>
<polygon fill="#191970" stroke="#191970" points="675.6356,-71.8339 665.1012,-72.9639 674.041,-78.6499 675.6356,-71.8339"/>
</g>
<!-- Node17 -->
<g id="node18" class="node">
<title>Node17</title>
<g id="a_node18"><a xlink:href="UIEvents_8hxx.html" target="_top" xlink:title="events/UIEvents.hxx">
<polygon fill="none" stroke="#000000" points="585.5,-168.5 585.5,-187.5 702.5,-187.5 702.5,-168.5 585.5,-168.5"/>
<text text-anchor="middle" x="644" y="-175.5" font-family="Helvetica,sans-Serif" font-size="10.00" fill="#000000">events/UIEvents.hxx</text>
</a>
</g>
</g>
<!-- Node9&#45;&gt;Node17 -->
<g id="edge17" class="edge">
<title>Node9&#45;&gt;Node17</title>
<path fill="none" stroke="#191970" d="M642.3484,-224.2455C642.6093,-216.9382 642.9752,-206.6944 643.2963,-197.7046"/>
<polygon fill="#191970" stroke="#191970" points="646.7964,-197.7613 643.6556,-187.6427 639.8008,-197.5113 646.7964,-197.7613"/>
</g>
<!-- Node13 -->
<g id="node14" class="node">
<title>Node13</title>
<polygon fill="none" stroke="#bfbfbf" points="820,-.5 820,-19.5 880,-19.5 880,-.5 820,-.5"/>
<text text-anchor="middle" x="850" y="-7.5" font-family="Helvetica,sans-Serif" font-size="10.00" fill="#000000">iostream</text>
</g>
<!-- Node12&#45;&gt;Node13 -->
<g id="edge13" class="edge">
<title>Node12&#45;&gt;Node13</title>
<path fill="none" stroke="#191970" d="M663.4232,-56.4369C704.2385,-46.2784 768.4713,-30.2916 809.9106,-19.9778"/>
<polygon fill="#191970" stroke="#191970" points="810.8115,-23.3604 819.6701,-17.5488 809.1208,-16.5677 810.8115,-23.3604"/>
</g>
<!-- Node14 -->
<g id="node15" class="node">
<title>Node14</title>
<polygon fill="none" stroke="#bfbfbf" points="663.5,-.5 663.5,-19.5 732.5,-19.5 732.5,-.5 663.5,-.5"/>
<text text-anchor="middle" x="698" y="-7.5" font-family="Helvetica,sans-Serif" font-size="10.00" fill="#000000">type_traits</text>
</g>
<!-- Node12&#45;&gt;Node14 -->
<g id="edge14" class="edge">
<title>Node12&#45;&gt;Node14</title>
<path fill="none" stroke="#191970" d="M637.7156,-56.2455C648.602,-47.8943 664.4883,-35.7076 677.22,-25.9408"/>
<polygon fill="#191970" stroke="#191970" points="679.6261,-28.5063 685.4301,-19.6427 675.3654,-22.9523 679.6261,-28.5063"/>
</g>
<!-- Node15 -->
<g id="node16" class="node">
<title>Node15</title>
<polygon fill="none" stroke="#bfbfbf" points="535.5,-.5 535.5,-19.5 586.5,-19.5 586.5,-.5 535.5,-.5"/>
<text text-anchor="middle" x="561" y="-7.5" font-family="Helvetica,sans-Serif" font-size="10.00" fill="#000000">variant</text>
</g>
<!-- Node12&#45;&gt;Node15 -->
<g id="edge15" class="edge">
<title>Node12&#45;&gt;Node15</title>
<path fill="none" stroke="#191970" d="M613.8521,-56.2455C604.4913,-48.0549 590.9142,-36.1749 579.8651,-26.5069"/>
<polygon fill="#191970" stroke="#191970" points="581.8508,-23.5937 572.0202,-19.6427 577.2412,-28.8618 581.8508,-23.5937"/>
</g>
<!-- Node16 -->
<g id="node17" class="node">
<title>Node16</title>
<polygon fill="none" stroke="#bfbfbf" points="604.5,-.5 604.5,-19.5 645.5,-19.5 645.5,-.5 604.5,-.5"/>
<text text-anchor="middle" x="625" y="-7.5" font-family="Helvetica,sans-Serif" font-size="10.00" fill="#000000">tuple</text>
</g>
<!-- Node12&#45;&gt;Node16 -->
<g id="edge16" class="edge">
<title>Node12&#45;&gt;Node16</title>
<path fill="none" stroke="#191970" d="M625,-56.2455C625,-48.9382 625,-38.6944 625,-29.7046"/>
<polygon fill="#191970" stroke="#191970" points="628.5001,-29.6426 625,-19.6427 621.5001,-29.6427 628.5001,-29.6426"/>
</g>
<!-- Node17&#45;&gt;Node7 -->
<g id="edge18" class="edge">
<title>Node17&#45;&gt;Node7</title>
<path fill="none" stroke="#191970" d="M644,-168.2455C644,-160.9382 644,-150.6944 644,-141.7046"/>
<polygon fill="#191970" stroke="#191970" points="647.5001,-141.6426 644,-131.6427 640.5001,-141.6427 647.5001,-141.6426"/>
</g>
<!-- Node18 -->
<g id="node19" class="node">
<title>Node18</title>
<g id="a_node19"><a xlink:href="Observer_8hxx.html" target="_top" xlink:title="../util/Observer.hxx">
<polygon fill="none" stroke="#000000" points="381.5,-112.5 381.5,-131.5 490.5,-131.5 490.5,-112.5 381.5,-112.5"/>
<text text-anchor="middle" x="436" y="-119.5" font-family="Helvetica,sans-Serif" font-size="10.00" fill="#000000">../util/Observer.hxx</text>
</a>
</g>
</g>
<!-- Node17&#45;&gt;Node18 -->
<g id="edge19" class="edge">
<title>Node17&#45;&gt;Node18</title>
<path fill="none" stroke="#191970" d="M608.2435,-168.3733C573.0574,-158.9001 519.2119,-144.4032 481.1044,-134.1435"/>
<polygon fill="#191970" stroke="#191970" points="481.856,-130.7213 471.2899,-131.5011 480.0361,-137.4806 481.856,-130.7213"/>
</g>
<!-- Node18&#45;&gt;Node6 -->
<g id="edge20" class="edge">
<title>Node18&#45;&gt;Node6</title>
<path fill="none" stroke="#191970" d="M422.5876,-112.2455C410.9943,-103.814 394.0252,-91.4729 380.5322,-81.6598"/>
<polygon fill="#191970" stroke="#191970" points="382.4047,-78.6938 372.2587,-75.6427 378.2874,-84.355 382.4047,-78.6938"/>
</g>
<!-- Node18&#45;&gt;Node12 -->
<g id="edge22" class="edge">
<title>Node18&#45;&gt;Node12</title>
<path fill="none" stroke="#191970" d="M468.4903,-112.3733C500.1902,-102.9807 548.5576,-88.6496 583.1286,-78.4064"/>
<polygon fill="#191970" stroke="#191970" points="584.3401,-81.6979 592.9337,-75.5011 582.3514,-74.9863 584.3401,-81.6979"/>
</g>
<!-- Node19 -->
<g id="node20" class="node">
<title>Node19</title>
<polygon fill="none" stroke="#bfbfbf" points="407,-56.5 407,-75.5 465,-75.5 465,-56.5 407,-56.5"/>
<text text-anchor="middle" x="436" y="-63.5" font-family="Helvetica,sans-Serif" font-size="10.00" fill="#000000">memory</text>
</g>
<!-- Node18&#45;&gt;Node19 -->
<g id="edge21" class="edge">
<title>Node18&#45;&gt;Node19</title>
<path fill="none" stroke="#191970" d="M436,-112.2455C436,-104.9382 436,-94.6944 436,-85.7046"/>
<polygon fill="#191970" stroke="#191970" points="439.5001,-85.6426 436,-75.6427 432.5001,-85.6427 439.5001,-85.6426"/>
</g>
<!-- Node21&#45;&gt;Node9 -->
<g id="edge26" class="edge">
<title>Node21&#45;&gt;Node9</title>
<path fill="none" stroke="#191970" d="M996.4323,-281.4349C993.2421,-280.9396 990.0784,-280.4574 987,-280 882.4668,-264.4664 759.7406,-248.6875 692.4685,-240.2486"/>
<polygon fill="#191970" stroke="#191970" points="692.5164,-236.7273 682.1591,-238.9584 691.6471,-243.6732 692.5164,-236.7273"/>
</g>
<!-- Node22 -->
<g id="node23" class="node">
<title>Node22</title>
<g id="a_node23"><a xlink:href="GameService_8inl_8hxx.html" target="_top" xlink:title="GameService.inl.hxx">
<polygon fill="none" stroke="#000000" points="738,-224.5 738,-243.5 856,-243.5 856,-224.5 738,-224.5"/>
<text text-anchor="middle" x="797" y="-231.5" font-family="Helvetica,sans-Serif" font-size="10.00" fill="#000000">GameService.inl.hxx</text>
</a>
</g>
</g>
<!-- Node21&#45;&gt;Node22 -->
<g id="edge27" class="edge">
<title>Node21&#45;&gt;Node22</title>
<path fill="none" stroke="#191970" d="M1005.1368,-280.4369C962.0898,-270.8328 895.6927,-256.0191 849.509,-245.7152"/>
<polygon fill="#191970" stroke="#191970" points="850.2087,-242.2853 839.6865,-243.5237 848.6843,-249.1173 850.2087,-242.2853"/>
</g>
<!-- Node23&#45;&gt;Node21 -->
<g id="edge31" class="edge">
<title>Node23&#45;&gt;Node21</title>
<path fill="none" stroke="#191970" d="M810.011,-336.4369C859.6447,-326.7522 936.4273,-311.7703 989.2834,-301.4569"/>
<polygon fill="#191970" stroke="#191970" points="990.0466,-304.8741 999.1912,-299.5237 988.706,-298.0036 990.0466,-304.8741"/>
</g>
<!-- Node24 -->
<g id="node25" class="node">
<title>Node24</title>
<polygon fill="none" stroke="#bfbfbf" points="509,-280.5 509,-299.5 563,-299.5 563,-280.5 509,-280.5"/>
<text text-anchor="middle" x="536" y="-287.5" font-family="Helvetica,sans-Serif" font-size="10.00" fill="#000000">random</text>
</g>
<!-- Node23&#45;&gt;Node24 -->
<g id="edge29" class="edge">
<title>Node23&#45;&gt;Node24</title>
<path fill="none" stroke="#191970" d="M719.9809,-336.4188C683.73,-327.8614 629.1887,-314.7684 572.8874,-300.1759"/>
<polygon fill="#191970" stroke="#191970" points="573.6608,-296.7607 563.1016,-297.6289 571.8975,-303.535 573.6608,-296.7607"/>
</g>
<!-- Node25 -->
<g id="node26" class="node">
<title>Node25</title>
<polygon fill="none" stroke="#bfbfbf" points="581.5,-280.5 581.5,-299.5 634.5,-299.5 634.5,-280.5 581.5,-280.5"/>
<text text-anchor="middle" x="608" y="-287.5" font-family="Helvetica,sans-Serif" font-size="10.00" fill="#000000">iterator</text>
</g>
<!-- Node23&#45;&gt;Node25 -->
<g id="edge30" class="edge">
<title>Node23&#45;&gt;Node25</title>
<path fill="none" stroke="#191970" d="M734.6984,-336.3733C709.5872,-327.1822 671.5562,-313.2624 643.7128,-303.0713"/>
<polygon fill="#191970" stroke="#191970" points="644.5522,-299.6516 633.9584,-299.5011 642.1462,-306.2251 644.5522,-299.6516"/>
</g>
<!-- Node23&#45;&gt;Node26 -->
<g id="edge32" class="edge">
<title>Node23&#45;&gt;Node26</title>
<path fill="none" stroke="#191970" d="M830.8903,-337.0026C923.2543,-325.1121 1082.8623,-304.5648 1156.581,-295.0746"/>
<polygon fill="#191970" stroke="#191970" points="1157.3449,-298.5053 1166.8161,-293.757 1156.451,-291.5626 1157.3449,-298.5053"/>
</g>
<!-- Node26&#45;&gt;Node4 -->
<g id="edge44" class="edge">
<title>Node26&#45;&gt;Node4</title>
<path fill="none" stroke="#191970" d="M1166.9556,-283.6201C1161.0242,-282.3737 1154.8181,-281.1101 1149,-280 1054.6921,-262.0059 1029.8522,-264.2373 936,-244 934.7246,-243.725 933.4277,-243.4353 932.1197,-243.1346"/>
<polygon fill="#191970" stroke="#191970" points="932.5889,-239.6464 922.0442,-240.6761 930.9295,-246.4469 932.5889,-239.6464"/>
</g>
<!-- Node26&#45;&gt;Node10 -->
<g id="edge33" class="edge">
<title>Node26&#45;&gt;Node10</title>
<path fill="none" stroke="#191970" d="M1175.4738,-280.4914C1155.7792,-271.3149 1125.2415,-256.9469 1099,-244 1081.5308,-235.3811 1078.1183,-231.1544 1060,-224 1053.8885,-221.5868 976.0841,-199.6322 930.9158,-186.9462"/>
<polygon fill="#191970" stroke="#191970" points="931.8464,-183.5722 921.2726,-184.2394 929.9546,-190.3118 931.8464,-183.5722"/>
</g>
<!-- Node26&#45;&gt;Node12 -->
<g id="edge45" class="edge">
<title>Node26&#45;&gt;Node12</title>
<path fill="none" stroke="#191970" d="M1225.0591,-284.0595C1231.9196,-282.6927 1239.2126,-281.2687 1246,-280 1339.6845,-262.488 1513.7489,-297.4372 1453,-224 1352.9961,-103.1088 839.6544,-73.8866 675.5261,-67.583"/>
<polygon fill="#191970" stroke="#191970" points="675.3515,-64.0742 665.2283,-67.2002 675.0914,-71.0694 675.3515,-64.0742"/>
</g>
<!-- Node26&#45;&gt;Node13 -->
<g id="edge37" class="edge">
<title>Node26&#45;&gt;Node13</title>
<path fill="none" stroke="#191970" d="M1166.9824,-284.0692C1160.412,-282.7288 1153.4664,-281.3137 1147,-280 1067.903,-263.9303 1033.2569,-292.8428 969,-244 968.4009,-243.5446 887.6848,-84.3551 859.5443,-28.8338"/>
<polygon fill="#191970" stroke="#191970" points="862.5755,-27.0724 854.9329,-19.7348 856.3316,-30.2369 862.5755,-27.0724"/>
</g>
<!-- Node26&#45;&gt;Node27 -->
<g id="edge34" class="edge">
<title>Node26&#45;&gt;Node27</title>
<path fill="none" stroke="#191970" d="M1225.0102,-283.7748C1231.8727,-282.4198 1239.1789,-281.0725 1246,-280 1381.0867,-258.7602 1418.8357,-264.9254 1557.7349,-244.0929"/>
<polygon fill="#191970" stroke="#191970" points="1558.5529,-247.5088 1567.9132,-242.5455 1557.5007,-240.5883 1558.5529,-247.5088"/>
</g>
<!-- Node30 -->
<g id="node31" class="node">
<title>Node30</title>
<polygon fill="none" stroke="#bfbfbf" points="1500,-224.5 1500,-243.5 1550,-243.5 1550,-224.5 1500,-224.5"/>
<text text-anchor="middle" x="1525" y="-231.5" font-family="Helvetica,sans-Serif" font-size="10.00" fill="#000000">chrono</text>
</g>
<!-- Node26&#45;&gt;Node30 -->
<g id="edge38" class="edge">
<title>Node26&#45;&gt;Node30</title>
<path fill="none" stroke="#191970" d="M1225.0384,-283.9447C1231.8997,-282.5826 1239.1983,-281.1896 1246,-280 1352.2473,-261.418 1380.2889,-265.4228 1486,-244 1487.2716,-243.7423 1488.5639,-243.4694 1489.8672,-243.1848"/>
<polygon fill="#191970" stroke="#191970" points="1490.9722,-246.5209 1499.9118,-240.8345 1489.3774,-239.705 1490.9722,-246.5209"/>
</g>
<!-- Node31 -->
<g id="node32" class="node">
<title>Node31</title>
<polygon fill="none" stroke="#bfbfbf" points="1108,-224.5 1108,-243.5 1152,-243.5 1152,-224.5 1108,-224.5"/>
<text text-anchor="middle" x="1130" y="-231.5" font-family="Helvetica,sans-Serif" font-size="10.00" fill="#000000">ctime</text>
</g>
<!-- Node26&#45;&gt;Node31 -->
<g id="edge39" class="edge">
<title>Node26&#45;&gt;Node31</title>
<path fill="none" stroke="#191970" d="M1184.5037,-280.2455C1174.7558,-271.9746 1160.5741,-259.9416 1149.1202,-250.2232"/>
<polygon fill="#191970" stroke="#191970" points="1151.2541,-247.4437 1141.3646,-243.6427 1146.7253,-252.7813 1151.2541,-247.4437"/>
</g>
<!-- Node32 -->
<g id="node33" class="node">
<title>Node32</title>
<polygon fill="none" stroke="#bfbfbf" points="1170.5,-224.5 1170.5,-243.5 1225.5,-243.5 1225.5,-224.5 1170.5,-224.5"/>
<text text-anchor="middle" x="1198" y="-231.5" font-family="Helvetica,sans-Serif" font-size="10.00" fill="#000000">fstream</text>
</g>
<!-- Node26&#45;&gt;Node32 -->
<g id="edge40" class="edge">
<title>Node26&#45;&gt;Node32</title>
<path fill="none" stroke="#191970" d="M1196.3484,-280.2455C1196.6093,-272.9382 1196.9752,-262.6944 1197.2963,-253.7046"/>
<polygon fill="#191970" stroke="#191970" points="1200.7964,-253.7613 1197.6556,-243.6427 1193.8008,-253.5113 1200.7964,-253.7613"/>
</g>
<!-- Node33 -->
<g id="node34" class="node">
<title>Node33</title>
<polygon fill="none" stroke="#bfbfbf" points="1244,-224.5 1244,-243.5 1300,-243.5 1300,-224.5 1244,-224.5"/>
<text text-anchor="middle" x="1272" y="-231.5" font-family="Helvetica,sans-Serif" font-size="10.00" fill="#000000">sstream</text>
</g>
<!-- Node26&#45;&gt;Node33 -->
<g id="edge41" class="edge">
<title>Node26&#45;&gt;Node33</title>
<path fill="none" stroke="#191970" d="M1209.2382,-280.2455C1220.681,-271.814 1237.4296,-259.4729 1250.7475,-249.6598"/>
<polygon fill="#191970" stroke="#191970" points="1252.9391,-252.3924 1258.9135,-243.6427 1248.7867,-246.757 1252.9391,-252.3924"/>
</g>
<!-- Node34 -->
<g id="node35" class="node">
<title>Node34</title>
<polygon fill="none" stroke="#bfbfbf" points="1318,-224.5 1318,-243.5 1362,-243.5 1362,-224.5 1318,-224.5"/>
<text text-anchor="middle" x="1340" y="-231.5" font-family="Helvetica,sans-Serif" font-size="10.00" fill="#000000">SDL.h</text>
</g>
<!-- Node26&#45;&gt;Node34 -->
<g id="edge42" class="edge">
<title>Node26&#45;&gt;Node34</title>
<path fill="none" stroke="#191970" d="M1220.7545,-280.3733C1244.9979,-270.9453 1282.0363,-256.5414 1308.3955,-246.2906"/>
<polygon fill="#191970" stroke="#191970" points="1309.8747,-249.4708 1317.9261,-242.5843 1307.3375,-242.9468 1309.8747,-249.4708"/>
</g>
<!-- Node35 -->
<g id="node36" class="node">
<title>Node35</title>
<polygon fill="none" stroke="#bfbfbf" points="1380,-224.5 1380,-243.5 1444,-243.5 1444,-224.5 1380,-224.5"/>
<text text-anchor="middle" x="1412" y="-231.5" font-family="Helvetica,sans-Serif" font-size="10.00" fill="#000000">algorithm</text>
</g>
<!-- Node26&#45;&gt;Node35 -->
<g id="edge43" class="edge">
<title>Node26&#45;&gt;Node35</title>
<path fill="none" stroke="#191970" d="M1225.1307,-282.4476C1262.4433,-272.774 1327.3716,-255.9407 1370.018,-244.8842"/>
<polygon fill="#191970" stroke="#191970" points="1371.0178,-248.2408 1379.8194,-242.3431 1369.261,-241.4648 1371.0178,-248.2408"/>
</g>
<!-- Node36 -->
<g id="node37" class="node">
<title>Node36</title>
<g id="a_node37"><a xlink:href="LOG_8inl_8hxx.html" target="_top" xlink:title="LOG.inl.hxx">
<polygon fill="none" stroke="#000000" points="978.5,-224.5 978.5,-243.5 1051.5,-243.5 1051.5,-224.5 978.5,-224.5"/>
<text text-anchor="middle" x="1015" y="-231.5" font-family="Helvetica,sans-Serif" font-size="10.00" fill="#000000">LOG.inl.hxx</text>
</a>
</g>
</g>
<!-- Node26&#45;&gt;Node36 -->
<g id="edge46" class="edge">
<title>Node26&#45;&gt;Node36</title>
<path fill="none" stroke="#191970" d="M1166.9192,-281.0026C1136.723,-271.6601 1089.2539,-256.9736 1055.4178,-246.505"/>
<polygon fill="#191970" stroke="#191970" points="1056.4137,-243.1494 1045.8259,-243.5373 1054.3446,-249.8367 1056.4137,-243.1494"/>
</g>
<!-- Node28 -->
<g id="node29" class="node">
<title>Node28</title>
<polygon fill="none" stroke="#bfbfbf" points="1500.5,-168.5 1500.5,-187.5 1565.5,-187.5 1565.5,-168.5 1500.5,-168.5"/>
<text text-anchor="middle" x="1533" y="-175.5" font-family="Helvetica,sans-Serif" font-size="10.00" fill="#000000">stdexcept</text>
</g>
<!-- Node27&#45;&gt;Node28 -->
<g id="edge35" class="edge">
<title>Node27&#45;&gt;Node28</title>
<path fill="none" stroke="#191970" d="M1597.4134,-224.2455C1585.6695,-215.814 1568.4801,-203.4729 1554.8118,-193.6598"/>
<polygon fill="#191970" stroke="#191970" points="1556.5954,-190.6316 1546.4309,-187.6427 1552.5129,-196.3179 1556.5954,-190.6316"/>
</g>
<!-- Node29 -->
<g id="node30" class="node">
<title>Node29</title>
<polygon fill="none" stroke="#bfbfbf" points="1583.5,-168.5 1583.5,-187.5 1648.5,-187.5 1648.5,-168.5 1583.5,-168.5"/>
<text text-anchor="middle" x="1616" y="-175.5" font-family="Helvetica,sans-Serif" font-size="10.00" fill="#000000">exception</text>
</g>
<!-- Node27&#45;&gt;Node29 -->
<g id="edge36" class="edge">
<title>Node27&#45;&gt;Node29</title>
<path fill="none" stroke="#191970" d="M1611.8709,-224.2455C1612.5234,-216.9382 1613.438,-206.6944 1614.2407,-197.7046"/>
<polygon fill="#191970" stroke="#191970" points="1617.7358,-197.9143 1615.139,-187.6427 1610.7635,-197.2918 1617.7358,-197.9143"/>
</g>
<!-- Node37&#45;&gt;Node4 -->
<g id="edge51" class="edge">
<title>Node37&#45;&gt;Node4</title>
<path fill="none" stroke="#191970" d="M1316.7484,-336.4567C1272.6612,-328.5613 1210.8806,-316.0512 1158,-300 1135.0977,-293.0483 1130.9112,-286.9223 1108,-280 1033.237,-257.4114 1012.0116,-261.9439 936,-244 934.7302,-243.7002 933.4381,-243.3895 932.134,-243.071"/>
<polygon fill="#191970" stroke="#191970" points="932.6288,-239.5862 922.0764,-240.5338 930.9165,-246.3736 932.6288,-239.5862"/>
</g>
<!-- Node37&#45;&gt;Node7 -->
<g id="edge52" class="edge">
<title>Node37&#45;&gt;Node7</title>
<path fill="none" stroke="#191970" d="M1393.8834,-336.4326C1421.7822,-322.5762 1475.9083,-296.7526 1524,-280 1584.2644,-259.0071 1623.9396,-294.4656 1663,-244 1673.8853,-229.9363 1681.143,-190.1528 1658,-168 1622.4116,-133.9344 875.1069,-124.2818 686.7874,-122.3861"/>
<polygon fill="#191970" stroke="#191970" points="686.7486,-118.8857 676.7145,-122.2868 686.6795,-125.8853 686.7486,-118.8857"/>
</g>
<!-- Node37&#45;&gt;Node21 -->
<g id="edge53" class="edge">
<title>Node37&#45;&gt;Node21</title>
<path fill="none" stroke="#191970" d="M1319.1582,-336.4369C1260.9609,-326.4704 1170.0041,-310.8937 1109.7122,-300.5685"/>
<polygon fill="#191970" stroke="#191970" points="1110.0159,-297.0696 1099.5685,-298.8313 1108.8342,-303.9691 1110.0159,-297.0696"/>
</g>
<!-- Node37&#45;&gt;Node30 -->
<g id="edge50" class="edge">
<title>Node37&#45;&gt;Node30</title>
<path fill="none" stroke="#191970" d="M1388.8233,-336.2532C1401.847,-327.0258 1421.8642,-312.7287 1439,-300 1461.6438,-283.1799 1487.2506,-263.4329 1504.5898,-249.9512"/>
<polygon fill="#191970" stroke="#191970" points="1507.1062,-252.4276 1512.844,-243.5209 1502.8043,-246.9054 1507.1062,-252.4276"/>
</g>
<!-- Node38 -->
<g id="node39" class="node">
<title>Node38</title>
<polygon fill="none" stroke="#bfbfbf" points="1255.5,-280.5 1255.5,-299.5 1302.5,-299.5 1302.5,-280.5 1255.5,-280.5"/>
<text text-anchor="middle" x="1279" y="-287.5" font-family="Helvetica,sans-Serif" font-size="10.00" fill="#000000">queue</text>
</g>
<!-- Node37&#45;&gt;Node38 -->
<g id="edge48" class="edge">
<title>Node37&#45;&gt;Node38</title>
<path fill="none" stroke="#191970" d="M1358.2781,-336.2455C1343.4111,-327.5731 1321.4534,-314.7645 1304.4142,-304.825"/>
<polygon fill="#191970" stroke="#191970" points="1305.9317,-301.6582 1295.5303,-299.6427 1302.4045,-307.7047 1305.9317,-301.6582"/>
</g>
<!-- Node37&#45;&gt;Node39 -->
<g id="edge49" class="edge">
<title>Node37&#45;&gt;Node39</title>
<path fill="none" stroke="#191970" d="M1406.2869,-336.3733C1438.8002,-326.3692 1489.5216,-310.7626 1523.0046,-300.4601"/>
<polygon fill="#191970" stroke="#191970" points="1524.2747,-303.7313 1532.8032,-297.4452 1522.216,-297.0409 1524.2747,-303.7313"/>
</g>
<!-- Node40 -->
<g id="node41" class="node">
<title>Node40</title>
<g id="a_node41"><a xlink:href="GameClock_8inl_8hxx.html" target="_top" xlink:title="GameClock.inl.hxx">
<polygon fill="none" stroke="#000000" points="1320.5,-280.5 1320.5,-299.5 1429.5,-299.5 1429.5,-280.5 1320.5,-280.5"/>
<text text-anchor="middle" x="1375" y="-287.5" font-family="Helvetica,sans-Serif" font-size="10.00" fill="#000000">GameClock.inl.hxx</text>
</a>
</g>
</g>
<!-- Node37&#45;&gt;Node40 -->
<g id="edge54" class="edge">
<title>Node37&#45;&gt;Node40</title>
<path fill="none" stroke="#191970" d="M1369.7332,-336.2455C1368.3221,-328.9382 1367.9179,-318.6944 1368.5205,-309.7046"/>
<polygon fill="#191970" stroke="#191970" points="1372.0111,-309.9945 1369.7549,-299.6427 1365.0632,-309.1421 1372.0111,-309.9945"/>
</g>
<!-- Node40&#45;&gt;Node37 -->
<g id="edge55" class="edge">
<title>Node40&#45;&gt;Node37</title>
<path fill="none" stroke="#191970" d="M1380.2451,-299.6427C1381.6665,-306.9199 1382.081,-317.155 1381.4887,-326.1575"/>
<polygon fill="#191970" stroke="#191970" points="1377.9947,-325.8972 1380.2668,-336.2455 1384.9439,-326.739 1377.9947,-325.8972"/>
</g>
<!-- Node41&#45;&gt;Node10 -->
<g id="edge58" class="edge">
<title>Node41&#45;&gt;Node10</title>
<path fill="none" stroke="#191970" d="M920.8274,-336.4969C903.8868,-322.4869 870.2505,-296.203 838,-280 792.4119,-257.0961 758.8879,-285.347 729,-244 723.7926,-236.7961 723.5975,-231.0587 729,-224 737.4655,-212.9394 820.0098,-194.3187 866.8865,-184.5041"/>
<polygon fill="#191970" stroke="#191970" points="867.7817,-187.893 876.8628,-182.4355 866.3604,-181.0388 867.7817,-187.893"/>
</g>
<!-- Node41&#45;&gt;Node12 -->
<g id="edge60" class="edge">
<title>Node41&#45;&gt;Node12</title>
<path fill="none" stroke="#191970" d="M864.1248,-336.462C801.8218,-327.1734 714.4304,-312.6455 682,-300 671.1147,-295.7555 600.0889,-253.2873 593,-244 571.9993,-216.4865 568.5366,-201.7983 576,-168 582.9169,-136.6769 600.9441,-103.8159 613.095,-84.1214"/>
<polygon fill="#191970" stroke="#191970" points="616.1147,-85.895 618.5136,-75.5753 610.2028,-82.1466 616.1147,-85.895"/>
</g>
<!-- Node41&#45;&gt;Node21 -->
<g id="edge59" class="edge">
<title>Node41&#45;&gt;Node21</title>
<path fill="none" stroke="#191970" d="M951.9411,-336.3733C970.4786,-327.4241 998.3028,-313.9917 1019.2413,-303.8835"/>
<polygon fill="#191970" stroke="#191970" points="1020.8352,-307.0006 1028.3191,-299.5011 1017.7919,-300.6967 1020.8352,-307.0006"/>
</g>
<!-- Node42 -->
<g id="node43" class="node">
<title>Node42</title>
<polygon fill="none" stroke="#bfbfbf" points="885.5,-280.5 885.5,-299.5 978.5,-299.5 978.5,-280.5 885.5,-280.5"/>
<text text-anchor="middle" x="932" y="-287.5" font-family="Helvetica,sans-Serif" font-size="10.00" fill="#000000">unordered_map</text>
</g>
<!-- Node41&#45;&gt;Node42 -->
<g id="edge57" class="edge">
<title>Node41&#45;&gt;Node42</title>
<path fill="none" stroke="#191970" d="M932,-336.2455C932,-328.9382 932,-318.6944 932,-309.7046"/>
<polygon fill="#191970" stroke="#191970" points="935.5001,-309.6426 932,-299.6427 928.5001,-309.6427 935.5001,-309.6426"/>
</g>
<!-- Node43 -->
<g id="node44" class="node">
<title>Node43</title>
<g id="a_node44"><a xlink:href="ResourceManager_8inl_8hxx.html" target="_top" xlink:title="ResourceManager.inl.hxx">
<polygon fill="none" stroke="#000000" points="691,-280.5 691,-299.5 829,-299.5 829,-280.5 691,-280.5"/>
<text text-anchor="middle" x="760" y="-287.5" font-family="Helvetica,sans-Serif" font-size="10.00" fill="#000000">ResourceManager.inl.hxx</text>
</a>
</g>
</g>
<!-- Node41&#45;&gt;Node43 -->
<g id="edge61" class="edge">
<title>Node41&#45;&gt;Node43</title>
<path fill="none" stroke="#191970" d="M902.4321,-336.3733C873.8312,-327.0613 830.3212,-312.8953 798.9181,-302.671"/>
<polygon fill="#191970" stroke="#191970" points="799.7743,-299.269 789.182,-299.5011 797.6072,-305.9251 799.7743,-299.269"/>
</g>
</g>
</svg>
