<?xml version="1.0" encoding="UTF-8" standalone="no"?>
<!DOCTYPE svg PUBLIC "-//W3C//DTD SVG 1.1//EN"
 "http://www.w3.org/Graphics/SVG/1.1/DTD/svg11.dtd">
<!-- Generated by graphviz version 2.40.1 (20161225.0304)
 -->
<!-- Title: src/services/GameClock.cxx Pages: 1 -->
<svg width="1216pt" height="420pt"
 viewBox="0.00 0.00 1216.00 420.00" xmlns="http://www.w3.org/2000/svg" xmlns:xlink="http://www.w3.org/1999/xlink">
<g id="graph0" class="graph" transform="scale(1 1) rotate(0) translate(4 416)">
<title>src/services/GameClock.cxx</title>
<!-- Node0 -->
<g id="node1" class="node">
<title>Node0</title>
<polygon fill="#bfbfbf" stroke="#000000" points="471,-392.5 471,-411.5 625,-411.5 625,-392.5 471,-392.5"/>
<text text-anchor="middle" x="548" y="-399.5" font-family="Helvetica,sans-Serif" font-size="10.00" fill="#000000">src/services/GameClock.cxx</text>
</g>
<!-- Node1 -->
<g id="node2" class="node">
<title>Node1</title>
<g id="a_node2"><a xlink:href="GameClock_8hxx.html" target="_top" xlink:title="GameClock.hxx">
<polygon fill="none" stroke="#000000" points="241,-336.5 241,-355.5 335,-355.5 335,-336.5 241,-336.5"/>
<text text-anchor="middle" x="288" y="-343.5" font-family="Helvetica,sans-Serif" font-size="10.00" fill="#000000">GameClock.hxx</text>
</a>
</g>
</g>
<!-- Node0&#45;&gt;Node1 -->
<g id="edge1" class="edge">
<title>Node0&#45;&gt;Node1</title>
<path fill="none" stroke="#191970" d="M503.5998,-392.4369C458.9159,-382.8127 389.943,-367.957 342.0912,-357.6504"/>
<polygon fill="#191970" stroke="#191970" points="342.7298,-354.2078 332.217,-355.5237 341.2559,-361.0508 342.7298,-354.2078"/>
</g>
<!-- Node22 -->
<g id="node23" class="node">
<title>Node22</title>
<g id="a_node23"><a xlink:href="LOG_8hxx.html" target="_top" xlink:title="../util/LOG.hxx">
<polygon fill="none" stroke="#000000" points="765,-336.5 765,-355.5 851,-355.5 851,-336.5 765,-336.5"/>
<text text-anchor="middle" x="808" y="-343.5" font-family="Helvetica,sans-Serif" font-size="10.00" fill="#000000">../util/LOG.hxx</text>
</a>
</g>
</g>
<!-- Node0&#45;&gt;Node22 -->
<g id="edge25" class="edge">
<title>Node0&#45;&gt;Node22</title>
<path fill="none" stroke="#191970" d="M592.4002,-392.4369C637.3549,-382.7543 706.8939,-367.7767 754.7765,-357.4635"/>
<polygon fill="#191970" stroke="#191970" points="755.6099,-360.8644 764.6488,-355.3372 754.136,-354.0213 755.6099,-360.8644"/>
</g>
<!-- Node2 -->
<g id="node3" class="node">
<title>Node2</title>
<polygon fill="none" stroke="#bfbfbf" points="362.5,-280.5 362.5,-299.5 409.5,-299.5 409.5,-280.5 362.5,-280.5"/>
<text text-anchor="middle" x="386" y="-287.5" font-family="Helvetica,sans-Serif" font-size="10.00" fill="#000000">queue</text>
</g>
<!-- Node1&#45;&gt;Node2 -->
<g id="edge2" class="edge">
<title>Node1&#45;&gt;Node2</title>
<path fill="none" stroke="#191970" d="M305.0703,-336.2455C320.247,-327.5731 342.6621,-314.7645 360.0563,-304.825"/>
<polygon fill="#191970" stroke="#191970" points="362.1794,-307.643 369.1253,-299.6427 358.7064,-301.5653 362.1794,-307.643"/>
</g>
<!-- Node3 -->
<g id="node4" class="node">
<title>Node3</title>
<polygon fill="none" stroke="#bfbfbf" points="0,-280.5 0,-299.5 48,-299.5 48,-280.5 0,-280.5"/>
<text text-anchor="middle" x="24" y="-287.5" font-family="Helvetica,sans-Serif" font-size="10.00" fill="#000000">thread</text>
</g>
<!-- Node1&#45;&gt;Node3 -->
<g id="edge3" class="edge">
<title>Node1&#45;&gt;Node3</title>
<path fill="none" stroke="#191970" d="M240.6501,-337.1701C194.8061,-328.4309 123.4167,-314.3195 62,-300 60.7294,-299.7038 59.4366,-299.396 58.1319,-299.08"/>
<polygon fill="#191970" stroke="#191970" points="58.623,-295.5947 48.0717,-296.554 56.9182,-302.384 58.623,-295.5947"/>
</g>
<!-- Node4 -->
<g id="node5" class="node">
<title>Node4</title>
<polygon fill="none" stroke="#bfbfbf" points="494,-280.5 494,-299.5 544,-299.5 544,-280.5 494,-280.5"/>
<text text-anchor="middle" x="519" y="-287.5" font-family="Helvetica,sans-Serif" font-size="10.00" fill="#000000">chrono</text>
</g>
<!-- Node1&#45;&gt;Node4 -->
<g id="edge4" class="edge">
<title>Node1&#45;&gt;Node4</title>
<path fill="none" stroke="#191970" d="M331.9925,-336.4769C369.8434,-328.1155 426.1257,-315.2851 483.7774,-300.2225"/>
<polygon fill="#191970" stroke="#191970" points="485.0137,-303.5164 493.7935,-297.5864 483.232,-296.7469 485.0137,-303.5164"/>
</g>
<!-- Node5 -->
<g id="node6" class="node">
<title>Node5</title>
<polygon fill="none" stroke="#bfbfbf" points="428,-280.5 428,-299.5 476,-299.5 476,-280.5 428,-280.5"/>
<text text-anchor="middle" x="452" y="-287.5" font-family="Helvetica,sans-Serif" font-size="10.00" fill="#000000">mutex</text>
</g>
<!-- Node1&#45;&gt;Node5 -->
<g id="edge5" class="edge">
<title>Node1&#45;&gt;Node5</title>
<path fill="none" stroke="#191970" d="M316.1926,-336.3733C344.4972,-326.7083 388.1156,-311.8142 418.2463,-301.5256"/>
<polygon fill="#191970" stroke="#191970" points="419.5734,-304.771 427.9059,-298.2273 417.3113,-298.1465 419.5734,-304.771"/>
</g>
<!-- Node6 -->
<g id="node7" class="node">
<title>Node6</title>
<polygon fill="none" stroke="#bfbfbf" points="263.5,-112.5 263.5,-131.5 328.5,-131.5 328.5,-112.5 263.5,-112.5"/>
<text text-anchor="middle" x="296" y="-119.5" font-family="Helvetica,sans-Serif" font-size="10.00" fill="#000000">functional</text>
</g>
<!-- Node1&#45;&gt;Node6 -->
<g id="edge6" class="edge">
<title>Node1&#45;&gt;Node6</title>
<path fill="none" stroke="#191970" d="M240.702,-341.3712C189.5255,-335.2705 112.8249,-322.5727 95,-300 38.579,-228.5511 185.2486,-162.5144 257.9573,-135.2207"/>
<polygon fill="#191970" stroke="#191970" points="259.5251,-138.3731 267.6971,-131.63 257.1037,-131.8052 259.5251,-138.3731"/>
</g>
<!-- Node7 -->
<g id="node8" class="node">
<title>Node7</title>
<g id="a_node8"><a xlink:href="GameService_8hxx.html" target="_top" xlink:title="../GameService.hxx">
<polygon fill="none" stroke="#000000" points="232,-280.5 232,-299.5 344,-299.5 344,-280.5 232,-280.5"/>
<text text-anchor="middle" x="288" y="-287.5" font-family="Helvetica,sans-Serif" font-size="10.00" fill="#000000">../GameService.hxx</text>
</a>
</g>
</g>
<!-- Node1&#45;&gt;Node7 -->
<g id="edge7" class="edge">
<title>Node1&#45;&gt;Node7</title>
<path fill="none" stroke="#191970" d="M288,-336.2455C288,-328.9382 288,-318.6944 288,-309.7046"/>
<polygon fill="#191970" stroke="#191970" points="291.5001,-309.6426 288,-299.6427 284.5001,-309.6427 291.5001,-309.6426"/>
</g>
<!-- Node21 -->
<g id="node22" class="node">
<title>Node21</title>
<g id="a_node22"><a xlink:href="GameClock_8inl_8hxx.html" target="_top" xlink:title="GameClock.inl.hxx">
<polygon fill="none" stroke="#000000" points="104.5,-280.5 104.5,-299.5 213.5,-299.5 213.5,-280.5 104.5,-280.5"/>
<text text-anchor="middle" x="159" y="-287.5" font-family="Helvetica,sans-Serif" font-size="10.00" fill="#000000">GameClock.inl.hxx</text>
</a>
</g>
</g>
<!-- Node1&#45;&gt;Node21 -->
<g id="edge23" class="edge">
<title>Node1&#45;&gt;Node21</title>
<path fill="none" stroke="#191970" d="M260.5821,-336.3733C238.1156,-327.3838 206.7667,-313.8706 184.7641,-303.7471"/>
<polygon fill="#191970" stroke="#191970" points="186.211,-300.56 175.6692,-299.5011 183.2498,-306.9028 186.211,-300.56"/>
</g>
<!-- Node8 -->
<g id="node9" class="node">
<title>Node8</title>
<g id="a_node9"><a xlink:href="Events_8hxx.html" target="_top" xlink:title="Events.hxx">
<polygon fill="none" stroke="#000000" points="619.5,-224.5 619.5,-243.5 690.5,-243.5 690.5,-224.5 619.5,-224.5"/>
<text text-anchor="middle" x="655" y="-231.5" font-family="Helvetica,sans-Serif" font-size="10.00" fill="#000000">Events.hxx</text>
</a>
</g>
</g>
<!-- Node7&#45;&gt;Node8 -->
<g id="edge8" class="edge">
<title>Node7&#45;&gt;Node8</title>
<path fill="none" stroke="#191970" d="M344.019,-281.3763C347.0568,-280.9103 350.0656,-280.4492 353,-280 443.7503,-266.1078 549.8577,-249.9702 609.0584,-240.9759"/>
<polygon fill="#191970" stroke="#191970" points="609.8402,-244.3974 619.2011,-239.4351 608.7888,-237.4768 609.8402,-244.3974"/>
</g>
<!-- Node20 -->
<g id="node21" class="node">
<title>Node20</title>
<g id="a_node21"><a xlink:href="GameService_8inl_8hxx.html" target="_top" xlink:title="GameService.inl.hxx">
<polygon fill="none" stroke="#000000" points="229,-224.5 229,-243.5 347,-243.5 347,-224.5 229,-224.5"/>
<text text-anchor="middle" x="288" y="-231.5" font-family="Helvetica,sans-Serif" font-size="10.00" fill="#000000">GameService.inl.hxx</text>
</a>
</g>
</g>
<!-- Node7&#45;&gt;Node20 -->
<g id="edge22" class="edge">
<title>Node7&#45;&gt;Node20</title>
<path fill="none" stroke="#191970" d="M288,-280.2455C288,-272.9382 288,-262.6944 288,-253.7046"/>
<polygon fill="#191970" stroke="#191970" points="291.5001,-253.6426 288,-243.6427 284.5001,-253.6427 291.5001,-253.6426"/>
</g>
<!-- Node9 -->
<g id="node10" class="node">
<title>Node9</title>
<polygon fill="none" stroke="#bfbfbf" points="770,-168.5 770,-187.5 814,-187.5 814,-168.5 770,-168.5"/>
<text text-anchor="middle" x="792" y="-175.5" font-family="Helvetica,sans-Serif" font-size="10.00" fill="#000000">string</text>
</g>
<!-- Node8&#45;&gt;Node9 -->
<g id="edge9" class="edge">
<title>Node8&#45;&gt;Node9</title>
<path fill="none" stroke="#191970" d="M678.5511,-224.3733C701.1092,-215.1524 735.3112,-201.1721 760.2642,-190.9723"/>
<polygon fill="#191970" stroke="#191970" points="761.7311,-194.1539 769.6634,-187.1303 759.0825,-187.6743 761.7311,-194.1539"/>
</g>
<!-- Node10 -->
<g id="node11" class="node">
<title>Node10</title>
<polygon fill="none" stroke="#bfbfbf" points="605,-168.5 605,-187.5 705,-187.5 705,-168.5 605,-168.5"/>
<text text-anchor="middle" x="655" y="-175.5" font-family="Helvetica,sans-Serif" font-size="10.00" fill="#000000">betterEnums.hxx</text>
</g>
<!-- Node8&#45;&gt;Node10 -->
<g id="edge10" class="edge">
<title>Node8&#45;&gt;Node10</title>
<path fill="none" stroke="#191970" d="M655,-224.2455C655,-216.9382 655,-206.6944 655,-197.7046"/>
<polygon fill="#191970" stroke="#191970" points="658.5001,-197.6426 655,-187.6427 651.5001,-197.6427 658.5001,-197.6426"/>
</g>
<!-- Node11 -->
<g id="node12" class="node">
<title>Node11</title>
<g id="a_node12"><a xlink:href="Meta_8hxx.html" target="_top" xlink:title="util/Meta.hxx">
<polygon fill="none" stroke="#000000" points="693,-56.5 693,-75.5 773,-75.5 773,-56.5 693,-56.5"/>
<text text-anchor="middle" x="733" y="-63.5" font-family="Helvetica,sans-Serif" font-size="10.00" fill="#000000">util/Meta.hxx</text>
</a>
</g>
</g>
<!-- Node8&#45;&gt;Node11 -->
<g id="edge11" class="edge">
<title>Node8&#45;&gt;Node11</title>
<path fill="none" stroke="#191970" d="M673.8355,-224.3831C687.2795,-216.4878 704.5859,-204.0108 714,-188 732.844,-155.9516 734.8756,-111.331 734.226,-85.8833"/>
<polygon fill="#191970" stroke="#191970" points="737.7128,-85.496 733.7897,-75.6543 730.7191,-85.7944 737.7128,-85.496"/>
</g>
<!-- Node16 -->
<g id="node17" class="node">
<title>Node16</title>
<g id="a_node17"><a xlink:href="UIEvents_8hxx.html" target="_top" xlink:title="events/UIEvents.hxx">
<polygon fill="none" stroke="#000000" points="469.5,-168.5 469.5,-187.5 586.5,-187.5 586.5,-168.5 469.5,-168.5"/>
<text text-anchor="middle" x="528" y="-175.5" font-family="Helvetica,sans-Serif" font-size="10.00" fill="#000000">events/UIEvents.hxx</text>
</a>
</g>
</g>
<!-- Node8&#45;&gt;Node16 -->
<g id="edge16" class="edge">
<title>Node8&#45;&gt;Node16</title>
<path fill="none" stroke="#191970" d="M633.1679,-224.3733C612.6897,-215.3435 581.8601,-201.7494 558.8681,-191.6111"/>
<polygon fill="#191970" stroke="#191970" points="560.1093,-188.3333 549.5472,-187.5011 557.285,-194.7383 560.1093,-188.3333"/>
</g>
<!-- Node12 -->
<g id="node13" class="node">
<title>Node12</title>
<polygon fill="none" stroke="#bfbfbf" points="854,-.5 854,-19.5 914,-19.5 914,-.5 854,-.5"/>
<text text-anchor="middle" x="884" y="-7.5" font-family="Helvetica,sans-Serif" font-size="10.00" fill="#000000">iostream</text>
</g>
<!-- Node11&#45;&gt;Node12 -->
<g id="edge12" class="edge">
<title>Node11&#45;&gt;Node12</title>
<path fill="none" stroke="#191970" d="M758.9578,-56.3733C783.7407,-47.1822 821.2746,-33.2624 848.754,-23.0713"/>
<polygon fill="#191970" stroke="#191970" points="850.2219,-26.26 858.3809,-19.5011 847.7879,-19.6968 850.2219,-26.26"/>
</g>
<!-- Node13 -->
<g id="node14" class="node">
<title>Node13</title>
<polygon fill="none" stroke="#bfbfbf" points="766.5,-.5 766.5,-19.5 835.5,-19.5 835.5,-.5 766.5,-.5"/>
<text text-anchor="middle" x="801" y="-7.5" font-family="Helvetica,sans-Serif" font-size="10.00" fill="#000000">type_traits</text>
</g>
<!-- Node11&#45;&gt;Node13 -->
<g id="edge13" class="edge">
<title>Node11&#45;&gt;Node13</title>
<path fill="none" stroke="#191970" d="M744.8447,-56.2455C754.888,-47.9746 769.4995,-35.9416 781.3004,-26.2232"/>
<polygon fill="#191970" stroke="#191970" points="783.7967,-28.7015 789.291,-19.6427 779.3467,-23.298 783.7967,-28.7015"/>
</g>
<!-- Node14 -->
<g id="node15" class="node">
<title>Node14</title>
<polygon fill="none" stroke="#bfbfbf" points="638.5,-.5 638.5,-19.5 689.5,-19.5 689.5,-.5 638.5,-.5"/>
<text text-anchor="middle" x="664" y="-7.5" font-family="Helvetica,sans-Serif" font-size="10.00" fill="#000000">variant</text>
</g>
<!-- Node11&#45;&gt;Node14 -->
<g id="edge14" class="edge">
<title>Node11&#45;&gt;Node14</title>
<path fill="none" stroke="#191970" d="M720.9811,-56.2455C710.7902,-47.9746 695.9638,-35.9416 683.9893,-26.2232"/>
<polygon fill="#191970" stroke="#191970" points="685.8514,-23.2268 675.8812,-19.6427 681.4402,-28.662 685.8514,-23.2268"/>
</g>
<!-- Node15 -->
<g id="node16" class="node">
<title>Node15</title>
<polygon fill="none" stroke="#bfbfbf" points="707.5,-.5 707.5,-19.5 748.5,-19.5 748.5,-.5 707.5,-.5"/>
<text text-anchor="middle" x="728" y="-7.5" font-family="Helvetica,sans-Serif" font-size="10.00" fill="#000000">tuple</text>
</g>
<!-- Node11&#45;&gt;Node15 -->
<g id="edge15" class="edge">
<title>Node11&#45;&gt;Node15</title>
<path fill="none" stroke="#191970" d="M732.1291,-56.2455C731.4766,-48.9382 730.562,-38.6944 729.7593,-29.7046"/>
<polygon fill="#191970" stroke="#191970" points="733.2365,-29.2918 728.861,-19.6427 726.2642,-29.9143 733.2365,-29.2918"/>
</g>
<!-- Node16&#45;&gt;Node6 -->
<g id="edge17" class="edge">
<title>Node16&#45;&gt;Node6</title>
<path fill="none" stroke="#191970" d="M488.3814,-168.4369C446.6866,-158.3726 381.2915,-142.5876 338.5314,-132.2662"/>
<polygon fill="#191970" stroke="#191970" points="339.2497,-128.8391 328.7076,-129.8949 337.6072,-135.6437 339.2497,-128.8391"/>
</g>
<!-- Node17 -->
<g id="node18" class="node">
<title>Node17</title>
<g id="a_node18"><a xlink:href="Observer_8hxx.html" target="_top" xlink:title="../util/Observer.hxx">
<polygon fill="none" stroke="#000000" points="534.5,-112.5 534.5,-131.5 643.5,-131.5 643.5,-112.5 534.5,-112.5"/>
<text text-anchor="middle" x="589" y="-119.5" font-family="Helvetica,sans-Serif" font-size="10.00" fill="#000000">../util/Observer.hxx</text>
</a>
</g>
</g>
<!-- Node16&#45;&gt;Node17 -->
<g id="edge18" class="edge">
<title>Node16&#45;&gt;Node17</title>
<path fill="none" stroke="#191970" d="M538.6254,-168.2455C547.5473,-160.0549 560.488,-148.1749 571.0192,-138.5069"/>
<polygon fill="#191970" stroke="#191970" points="573.4968,-140.9837 578.4964,-131.6427 568.7629,-135.8271 573.4968,-140.9837"/>
</g>
<!-- Node17&#45;&gt;Node11 -->
<g id="edge21" class="edge">
<title>Node17&#45;&gt;Node11</title>
<path fill="none" stroke="#191970" d="M613.7545,-112.3733C637.2849,-103.2226 672.8687,-89.3844 699.0426,-79.2057"/>
<polygon fill="#191970" stroke="#191970" points="700.5171,-82.3877 708.5685,-75.5011 697.9799,-75.8636 700.5171,-82.3877"/>
</g>
<!-- Node18 -->
<g id="node19" class="node">
<title>Node18</title>
<polygon fill="none" stroke="#bfbfbf" points="596.5,-56.5 596.5,-75.5 643.5,-75.5 643.5,-56.5 596.5,-56.5"/>
<text text-anchor="middle" x="620" y="-63.5" font-family="Helvetica,sans-Serif" font-size="10.00" fill="#000000">vector</text>
</g>
<!-- Node17&#45;&gt;Node18 -->
<g id="edge19" class="edge">
<title>Node17&#45;&gt;Node18</title>
<path fill="none" stroke="#191970" d="M594.3998,-112.2455C598.6227,-104.617 604.6173,-93.7881 609.7441,-84.5267"/>
<polygon fill="#191970" stroke="#191970" points="612.881,-86.0867 614.6621,-75.6427 606.7568,-82.6965 612.881,-86.0867"/>
</g>
<!-- Node19 -->
<g id="node20" class="node">
<title>Node19</title>
<polygon fill="none" stroke="#bfbfbf" points="520,-56.5 520,-75.5 578,-75.5 578,-56.5 520,-56.5"/>
<text text-anchor="middle" x="549" y="-63.5" font-family="Helvetica,sans-Serif" font-size="10.00" fill="#000000">memory</text>
</g>
<!-- Node17&#45;&gt;Node19 -->
<g id="edge20" class="edge">
<title>Node17&#45;&gt;Node19</title>
<path fill="none" stroke="#191970" d="M582.0325,-112.2455C576.4689,-104.4564 568.522,-93.3308 561.8171,-83.9439"/>
<polygon fill="#191970" stroke="#191970" points="564.5481,-81.7457 555.8876,-75.6427 558.852,-85.8144 564.5481,-81.7457"/>
</g>
<!-- Node21&#45;&gt;Node1 -->
<g id="edge24" class="edge">
<title>Node21&#45;&gt;Node1</title>
<path fill="none" stroke="#191970" d="M186.1038,-299.5011C208.4869,-308.4482 239.8377,-321.9559 261.9271,-332.1109"/>
<polygon fill="#191970" stroke="#191970" points="260.5239,-335.3184 271.0661,-336.3733 263.4828,-328.9744 260.5239,-335.3184"/>
</g>
<!-- Node22&#45;&gt;Node4 -->
<g id="edge31" class="edge">
<title>Node22&#45;&gt;Node4</title>
<path fill="none" stroke="#191970" d="M764.8461,-339.6667C715.9889,-332.1761 633.8519,-318.6185 554.3535,-300.13"/>
<polygon fill="#191970" stroke="#191970" points="554.7065,-296.6175 544.1704,-297.7308 553.1012,-303.4309 554.7065,-296.6175"/>
</g>
<!-- Node22&#45;&gt;Node5 -->
<g id="edge37" class="edge">
<title>Node22&#45;&gt;Node5</title>
<path fill="none" stroke="#191970" d="M764.7814,-341.9661C704.3539,-335.8625 591.1149,-322.7395 485.8697,-299.9141"/>
<polygon fill="#191970" stroke="#191970" points="486.557,-296.4816 476.0381,-297.7479 485.0508,-303.3177 486.557,-296.4816"/>
</g>
<!-- Node22&#45;&gt;Node9 -->
<g id="edge26" class="edge">
<title>Node22&#45;&gt;Node9</title>
<path fill="none" stroke="#191970" d="M807.0939,-336.4862C804.5647,-309.9293 797.3872,-234.5651 793.9205,-198.1655"/>
<polygon fill="#191970" stroke="#191970" points="797.3684,-197.451 792.936,-187.8279 790.3999,-198.1147 797.3684,-197.451"/>
</g>
<!-- Node22&#45;&gt;Node11 -->
<g id="edge38" class="edge">
<title>Node22&#45;&gt;Node11</title>
<path fill="none" stroke="#191970" d="M813.607,-336.4834C824.1774,-317.6141 846,-273.8343 846,-234 846,-234 846,-234 846,-178 846,-131.5439 797.2263,-97.7874 763.7658,-80.0953"/>
<polygon fill="#191970" stroke="#191970" points="765.2883,-76.943 754.7875,-75.534 762.1177,-83.1838 765.2883,-76.943"/>
</g>
<!-- Node22&#45;&gt;Node12 -->
<g id="edge30" class="edge">
<title>Node22&#45;&gt;Node12</title>
<path fill="none" stroke="#191970" d="M820.5499,-336.4082C842.136,-318.7155 884,-278.6472 884,-234 884,-234 884,-234 884,-122 884,-89.7116 884,-52.1872 884,-29.8048"/>
<polygon fill="#191970" stroke="#191970" points="887.5001,-29.5883 884,-19.5884 880.5001,-29.5884 887.5001,-29.5883"/>
</g>
<!-- Node23 -->
<g id="node24" class="node">
<title>Node23</title>
<g id="a_node24"><a xlink:href="Exception_8hxx.html" target="_top" xlink:title="Exception.hxx">
<polygon fill="none" stroke="#000000" points="912,-280.5 912,-299.5 998,-299.5 998,-280.5 912,-280.5"/>
<text text-anchor="middle" x="955" y="-287.5" font-family="Helvetica,sans-Serif" font-size="10.00" fill="#000000">Exception.hxx</text>
</a>
</g>
</g>
<!-- Node22&#45;&gt;Node23 -->
<g id="edge27" class="edge">
<title>Node22&#45;&gt;Node23</title>
<path fill="none" stroke="#191970" d="M833.2702,-336.3733C857.3966,-327.1822 893.9362,-313.2624 920.6877,-303.0713"/>
<polygon fill="#191970" stroke="#191970" points="921.9607,-306.3318 930.0596,-299.5011 919.4687,-299.7904 921.9607,-306.3318"/>
</g>
<!-- Node26 -->
<g id="node27" class="node">
<title>Node26</title>
<polygon fill="none" stroke="#bfbfbf" points="1016,-280.5 1016,-299.5 1060,-299.5 1060,-280.5 1016,-280.5"/>
<text text-anchor="middle" x="1038" y="-287.5" font-family="Helvetica,sans-Serif" font-size="10.00" fill="#000000">ctime</text>
</g>
<!-- Node22&#45;&gt;Node26 -->
<g id="edge32" class="edge">
<title>Node22&#45;&gt;Node26</title>
<path fill="none" stroke="#191970" d="M851.3549,-337.0884C889.712,-328.9561 947.3724,-316.1292 1005.9319,-300.1376"/>
<polygon fill="#191970" stroke="#191970" points="1007.0083,-303.4715 1015.7171,-297.4377 1005.1464,-296.7237 1007.0083,-303.4715"/>
</g>
<!-- Node27 -->
<g id="node28" class="node">
<title>Node27</title>
<polygon fill="none" stroke="#bfbfbf" points="1078.5,-280.5 1078.5,-299.5 1133.5,-299.5 1133.5,-280.5 1078.5,-280.5"/>
<text text-anchor="middle" x="1106" y="-287.5" font-family="Helvetica,sans-Serif" font-size="10.00" fill="#000000">fstream</text>
</g>
<!-- Node22&#45;&gt;Node27 -->
<g id="edge33" class="edge">
<title>Node22&#45;&gt;Node27</title>
<path fill="none" stroke="#191970" d="M851.1854,-339.6023C901.1599,-331.9303 986.097,-318.0667 1068.4218,-299.9727"/>
<polygon fill="#191970" stroke="#191970" points="1069.1828,-303.3891 1078.1858,-297.8037 1067.6648,-296.5556 1069.1828,-303.3891"/>
</g>
<!-- Node28 -->
<g id="node29" class="node">
<title>Node28</title>
<polygon fill="none" stroke="#bfbfbf" points="1152,-280.5 1152,-299.5 1208,-299.5 1208,-280.5 1152,-280.5"/>
<text text-anchor="middle" x="1180" y="-287.5" font-family="Helvetica,sans-Serif" font-size="10.00" fill="#000000">sstream</text>
</g>
<!-- Node22&#45;&gt;Node28 -->
<g id="edge34" class="edge">
<title>Node22&#45;&gt;Node28</title>
<path fill="none" stroke="#191970" d="M851.1296,-341.8558C913.3292,-335.4905 1031.9422,-321.9006 1141.8781,-300.0211"/>
<polygon fill="#191970" stroke="#191970" points="1142.6966,-303.4266 1151.8066,-298.0174 1141.3118,-296.5649 1142.6966,-303.4266"/>
</g>
<!-- Node29 -->
<g id="node30" class="node">
<title>Node29</title>
<polygon fill="none" stroke="#bfbfbf" points="562,-280.5 562,-299.5 606,-299.5 606,-280.5 562,-280.5"/>
<text text-anchor="middle" x="584" y="-287.5" font-family="Helvetica,sans-Serif" font-size="10.00" fill="#000000">SDL.h</text>
</g>
<!-- Node22&#45;&gt;Node29 -->
<g id="edge35" class="edge">
<title>Node22&#45;&gt;Node29</title>
<path fill="none" stroke="#191970" d="M764.8259,-336.7233C727.6959,-328.5186 672.5252,-315.7906 616.0917,-300.1608"/>
<polygon fill="#191970" stroke="#191970" points="616.8611,-296.7418 606.288,-297.4194 614.9759,-303.4832 616.8611,-296.7418"/>
</g>
<!-- Node30 -->
<g id="node31" class="node">
<title>Node30</title>
<polygon fill="none" stroke="#bfbfbf" points="624,-280.5 624,-299.5 688,-299.5 688,-280.5 624,-280.5"/>
<text text-anchor="middle" x="656" y="-287.5" font-family="Helvetica,sans-Serif" font-size="10.00" fill="#000000">algorithm</text>
</g>
<!-- Node22&#45;&gt;Node30 -->
<g id="edge36" class="edge">
<title>Node22&#45;&gt;Node30</title>
<path fill="none" stroke="#191970" d="M781.8703,-336.3733C756.9232,-327.1822 719.1408,-313.2624 691.4794,-303.0713"/>
<polygon fill="#191970" stroke="#191970" points="692.3822,-299.674 681.7888,-299.5011 689.9622,-306.2424 692.3822,-299.674"/>
</g>
<!-- Node31 -->
<g id="node32" class="node">
<title>Node31</title>
<g id="a_node32"><a xlink:href="LOG_8inl_8hxx.html" target="_top" xlink:title="LOG.inl.hxx">
<polygon fill="none" stroke="#000000" points="706.5,-280.5 706.5,-299.5 779.5,-299.5 779.5,-280.5 706.5,-280.5"/>
<text text-anchor="middle" x="743" y="-287.5" font-family="Helvetica,sans-Serif" font-size="10.00" fill="#000000">LOG.inl.hxx</text>
</a>
</g>
</g>
<!-- Node22&#45;&gt;Node31 -->
<g id="edge39" class="edge">
<title>Node22&#45;&gt;Node31</title>
<path fill="none" stroke="#191970" d="M796.6779,-336.2455C787.0777,-327.9746 773.1108,-315.9416 761.8305,-306.2232"/>
<polygon fill="#191970" stroke="#191970" points="764.053,-303.5182 754.1924,-299.6427 759.484,-308.8214 764.053,-303.5182"/>
</g>
<!-- Node24 -->
<g id="node25" class="node">
<title>Node24</title>
<polygon fill="none" stroke="#bfbfbf" points="917.5,-224.5 917.5,-243.5 982.5,-243.5 982.5,-224.5 917.5,-224.5"/>
<text text-anchor="middle" x="950" y="-231.5" font-family="Helvetica,sans-Serif" font-size="10.00" fill="#000000">stdexcept</text>
</g>
<!-- Node23&#45;&gt;Node24 -->
<g id="edge28" class="edge">
<title>Node23&#45;&gt;Node24</title>
<path fill="none" stroke="#191970" d="M954.1291,-280.2455C953.4766,-272.9382 952.562,-262.6944 951.7593,-253.7046"/>
<polygon fill="#191970" stroke="#191970" points="955.2365,-253.2918 950.861,-243.6427 948.2642,-253.9143 955.2365,-253.2918"/>
</g>
<!-- Node25 -->
<g id="node26" class="node">
<title>Node25</title>
<polygon fill="none" stroke="#bfbfbf" points="1000.5,-224.5 1000.5,-243.5 1065.5,-243.5 1065.5,-224.5 1000.5,-224.5"/>
<text text-anchor="middle" x="1033" y="-231.5" font-family="Helvetica,sans-Serif" font-size="10.00" fill="#000000">exception</text>
</g>
<!-- Node23&#45;&gt;Node25 -->
<g id="edge29" class="edge">
<title>Node23&#45;&gt;Node25</title>
<path fill="none" stroke="#191970" d="M968.5866,-280.2455C980.3305,-271.814 997.5199,-259.4729 1011.1882,-249.6598"/>
<polygon fill="#191970" stroke="#191970" points="1013.4871,-252.3179 1019.5691,-243.6427 1009.4046,-246.6316 1013.4871,-252.3179"/>
</g>
</g>
</svg>
