<?xml version="1.0" encoding="UTF-8" standalone="no"?>
<!DOCTYPE svg PUBLIC "-//W3C//DTD SVG 1.1//EN"
 "http://www.w3.org/Graphics/SVG/1.1/DTD/svg11.dtd">
<!-- Generated by graphviz version 2.40.1 (20161225.0304)
 -->
<!-- Title: src/services/GameClock.inl.hxx Pages: 1 -->
<svg width="698pt" height="420pt"
 viewBox="0.00 0.00 698.00 420.00" xmlns="http://www.w3.org/2000/svg" xmlns:xlink="http://www.w3.org/1999/xlink">
<g id="graph0" class="graph" transform="scale(1 1) rotate(0) translate(4 416)">
<title>src/services/GameClock.inl.hxx</title>
<!-- Node0 -->
<g id="node1" class="node">
<title>Node0</title>
<polygon fill="#bfbfbf" stroke="#000000" points="104.5,-392.5 104.5,-411.5 274.5,-411.5 274.5,-392.5 104.5,-392.5"/>
<text text-anchor="middle" x="189.5" y="-399.5" font-family="Helvetica,sans-Serif" font-size="10.00" fill="#000000">src/services/GameClock.inl.hxx</text>
</g>
<!-- Node1 -->
<g id="node2" class="node">
<title>Node1</title>
<g id="a_node2"><a xlink:href="GameClock_8hxx.html" target="_top" xlink:title="GameClock.hxx">
<polygon fill="none" stroke="#000000" points="142.5,-336.5 142.5,-355.5 236.5,-355.5 236.5,-336.5 142.5,-336.5"/>
<text text-anchor="middle" x="189.5" y="-343.5" font-family="Helvetica,sans-Serif" font-size="10.00" fill="#000000">GameClock.hxx</text>
</a>
</g>
</g>
<!-- Node0&#45;&gt;Node1 -->
<g id="edge1" class="edge">
<title>Node0&#45;&gt;Node1</title>
<path fill="none" stroke="#191970" d="M184.2332,-392.2455C182.8221,-384.9382 182.4179,-374.6944 183.0205,-365.7046"/>
<polygon fill="#191970" stroke="#191970" points="186.5111,-365.9945 184.2549,-355.6427 179.5632,-365.1421 186.5111,-365.9945"/>
</g>
<!-- Node1&#45;&gt;Node0 -->
<g id="edge23" class="edge">
<title>Node1&#45;&gt;Node0</title>
<path fill="none" stroke="#191970" d="M194.7451,-355.6427C196.1665,-362.9199 196.581,-373.155 195.9887,-382.1575"/>
<polygon fill="#191970" stroke="#191970" points="192.4947,-381.8972 194.7668,-392.2455 199.4439,-382.739 192.4947,-381.8972"/>
</g>
<!-- Node2 -->
<g id="node3" class="node">
<title>Node2</title>
<polygon fill="none" stroke="#bfbfbf" points="0,-280.5 0,-299.5 47,-299.5 47,-280.5 0,-280.5"/>
<text text-anchor="middle" x="23.5" y="-287.5" font-family="Helvetica,sans-Serif" font-size="10.00" fill="#000000">queue</text>
</g>
<!-- Node1&#45;&gt;Node2 -->
<g id="edge2" class="edge">
<title>Node1&#45;&gt;Node2</title>
<path fill="none" stroke="#191970" d="M160.9636,-336.3733C132.064,-326.624 87.3922,-311.554 56.8705,-301.2575"/>
<polygon fill="#191970" stroke="#191970" points="57.6996,-297.8435 47.1054,-297.9633 55.462,-304.4762 57.6996,-297.8435"/>
</g>
<!-- Node3 -->
<g id="node4" class="node">
<title>Node3</title>
<polygon fill="none" stroke="#bfbfbf" points="65.5,-280.5 65.5,-299.5 113.5,-299.5 113.5,-280.5 65.5,-280.5"/>
<text text-anchor="middle" x="89.5" y="-287.5" font-family="Helvetica,sans-Serif" font-size="10.00" fill="#000000">thread</text>
</g>
<!-- Node1&#45;&gt;Node3 -->
<g id="edge3" class="edge">
<title>Node1&#45;&gt;Node3</title>
<path fill="none" stroke="#191970" d="M172.0813,-336.2455C156.4515,-327.4928 133.2981,-314.527 115.4815,-304.5496"/>
<polygon fill="#191970" stroke="#191970" points="117.1543,-301.475 106.7191,-299.6427 113.734,-307.5825 117.1543,-301.475"/>
</g>
<!-- Node4 -->
<g id="node5" class="node">
<title>Node4</title>
<polygon fill="none" stroke="#bfbfbf" points="131.5,-280.5 131.5,-299.5 181.5,-299.5 181.5,-280.5 131.5,-280.5"/>
<text text-anchor="middle" x="156.5" y="-287.5" font-family="Helvetica,sans-Serif" font-size="10.00" fill="#000000">chrono</text>
</g>
<!-- Node1&#45;&gt;Node4 -->
<g id="edge4" class="edge">
<title>Node1&#45;&gt;Node4</title>
<path fill="none" stroke="#191970" d="M183.7518,-336.2455C179.2565,-328.617 172.8752,-317.7881 167.4175,-308.5267"/>
<polygon fill="#191970" stroke="#191970" points="170.2747,-306.4811 162.1823,-299.6427 164.2439,-310.035 170.2747,-306.4811"/>
</g>
<!-- Node5 -->
<g id="node6" class="node">
<title>Node5</title>
<polygon fill="none" stroke="#bfbfbf" points="199.5,-280.5 199.5,-299.5 247.5,-299.5 247.5,-280.5 199.5,-280.5"/>
<text text-anchor="middle" x="223.5" y="-287.5" font-family="Helvetica,sans-Serif" font-size="10.00" fill="#000000">mutex</text>
</g>
<!-- Node1&#45;&gt;Node5 -->
<g id="edge5" class="edge">
<title>Node1&#45;&gt;Node5</title>
<path fill="none" stroke="#191970" d="M195.4223,-336.2455C200.1027,-328.5367 206.7673,-317.5598 212.4289,-308.2348"/>
<polygon fill="#191970" stroke="#191970" points="215.4475,-310.007 217.6455,-299.6427 209.4639,-306.3741 215.4475,-310.007"/>
</g>
<!-- Node6 -->
<g id="node7" class="node">
<title>Node6</title>
<polygon fill="none" stroke="#bfbfbf" points="294,-112.5 294,-131.5 359,-131.5 359,-112.5 294,-112.5"/>
<text text-anchor="middle" x="326.5" y="-119.5" font-family="Helvetica,sans-Serif" font-size="10.00" fill="#000000">functional</text>
</g>
<!-- Node1&#45;&gt;Node6 -->
<g id="edge6" class="edge">
<title>Node1&#45;&gt;Node6</title>
<path fill="none" stroke="#191970" d="M210.5545,-336.4265C225.449,-328.6271 244.7818,-316.2514 256.5,-300 292.206,-250.4813 268.2732,-223.1286 294.5,-168 299.2266,-158.0648 306.0222,-147.9303 312.1364,-139.7116"/>
<polygon fill="#191970" stroke="#191970" points="315.0252,-141.6973 318.3732,-131.6454 309.4875,-137.4155 315.0252,-141.6973"/>
</g>
<!-- Node7 -->
<g id="node8" class="node">
<title>Node7</title>
<g id="a_node8"><a xlink:href="GameService_8hxx.html" target="_top" xlink:title="../GameService.hxx">
<polygon fill="none" stroke="#000000" points="309.5,-280.5 309.5,-299.5 421.5,-299.5 421.5,-280.5 309.5,-280.5"/>
<text text-anchor="middle" x="365.5" y="-287.5" font-family="Helvetica,sans-Serif" font-size="10.00" fill="#000000">../GameService.hxx</text>
</a>
</g>
</g>
<!-- Node1&#45;&gt;Node7 -->
<g id="edge7" class="edge">
<title>Node1&#45;&gt;Node7</title>
<path fill="none" stroke="#191970" d="M219.7555,-336.3733C249.1483,-327.021 293.9292,-312.7725 326.0934,-302.5385"/>
<polygon fill="#191970" stroke="#191970" points="327.1713,-305.8685 335.6393,-299.5011 325.0488,-299.198 327.1713,-305.8685"/>
</g>
<!-- Node8 -->
<g id="node9" class="node">
<title>Node8</title>
<g id="a_node9"><a xlink:href="Events_8hxx.html" target="_top" xlink:title="Events.hxx">
<polygon fill="none" stroke="#000000" points="445,-224.5 445,-243.5 516,-243.5 516,-224.5 445,-224.5"/>
<text text-anchor="middle" x="480.5" y="-231.5" font-family="Helvetica,sans-Serif" font-size="10.00" fill="#000000">Events.hxx</text>
</a>
</g>
</g>
<!-- Node7&#45;&gt;Node8 -->
<g id="edge8" class="edge">
<title>Node7&#45;&gt;Node8</title>
<path fill="none" stroke="#191970" d="M385.2692,-280.3733C403.6469,-271.4241 431.2312,-257.9917 451.9893,-247.8835"/>
<polygon fill="#191970" stroke="#191970" points="453.5304,-251.026 460.9888,-243.5011 450.4657,-244.7325 453.5304,-251.026"/>
</g>
<!-- Node20 -->
<g id="node21" class="node">
<title>Node20</title>
<g id="a_node21"><a xlink:href="GameService_8inl_8hxx.html" target="_top" xlink:title="GameService.inl.hxx">
<polygon fill="none" stroke="#000000" points="306.5,-224.5 306.5,-243.5 424.5,-243.5 424.5,-224.5 306.5,-224.5"/>
<text text-anchor="middle" x="365.5" y="-231.5" font-family="Helvetica,sans-Serif" font-size="10.00" fill="#000000">GameService.inl.hxx</text>
</a>
</g>
</g>
<!-- Node7&#45;&gt;Node20 -->
<g id="edge22" class="edge">
<title>Node7&#45;&gt;Node20</title>
<path fill="none" stroke="#191970" d="M365.5,-280.2455C365.5,-272.9382 365.5,-262.6944 365.5,-253.7046"/>
<polygon fill="#191970" stroke="#191970" points="369.0001,-253.6426 365.5,-243.6427 362.0001,-253.6427 369.0001,-253.6426"/>
</g>
<!-- Node9 -->
<g id="node10" class="node">
<title>Node9</title>
<polygon fill="none" stroke="#bfbfbf" points="595.5,-168.5 595.5,-187.5 639.5,-187.5 639.5,-168.5 595.5,-168.5"/>
<text text-anchor="middle" x="617.5" y="-175.5" font-family="Helvetica,sans-Serif" font-size="10.00" fill="#000000">string</text>
</g>
<!-- Node8&#45;&gt;Node9 -->
<g id="edge9" class="edge">
<title>Node8&#45;&gt;Node9</title>
<path fill="none" stroke="#191970" d="M504.0511,-224.3733C526.6092,-215.1524 560.8112,-201.1721 585.7642,-190.9723"/>
<polygon fill="#191970" stroke="#191970" points="587.2311,-194.1539 595.1634,-187.1303 584.5825,-187.6743 587.2311,-194.1539"/>
</g>
<!-- Node10 -->
<g id="node11" class="node">
<title>Node10</title>
<polygon fill="none" stroke="#bfbfbf" points="303.5,-168.5 303.5,-187.5 403.5,-187.5 403.5,-168.5 303.5,-168.5"/>
<text text-anchor="middle" x="353.5" y="-175.5" font-family="Helvetica,sans-Serif" font-size="10.00" fill="#000000">betterEnums.hxx</text>
</g>
<!-- Node8&#45;&gt;Node10 -->
<g id="edge10" class="edge">
<title>Node8&#45;&gt;Node10</title>
<path fill="none" stroke="#191970" d="M458.6679,-224.3733C438.1897,-215.3435 407.3601,-201.7494 384.3681,-191.6111"/>
<polygon fill="#191970" stroke="#191970" points="385.6093,-188.3333 375.0472,-187.5011 382.785,-194.7383 385.6093,-188.3333"/>
</g>
<!-- Node11 -->
<g id="node12" class="node">
<title>Node11</title>
<g id="a_node12"><a xlink:href="Meta_8hxx.html" target="_top" xlink:title="util/Meta.hxx">
<polygon fill="none" stroke="#000000" points="526.5,-56.5 526.5,-75.5 606.5,-75.5 606.5,-56.5 526.5,-56.5"/>
<text text-anchor="middle" x="566.5" y="-63.5" font-family="Helvetica,sans-Serif" font-size="10.00" fill="#000000">util/Meta.hxx</text>
</a>
</g>
</g>
<!-- Node8&#45;&gt;Node11 -->
<g id="edge11" class="edge">
<title>Node8&#45;&gt;Node11</title>
<path fill="none" stroke="#191970" d="M503.5202,-224.4676C518.8139,-216.8924 537.9551,-204.7723 548.5,-188 568.264,-156.564 569.5101,-111.726 568.2581,-86.0744"/>
<polygon fill="#191970" stroke="#191970" points="571.7273,-85.4984 567.5646,-75.7557 564.7431,-85.9679 571.7273,-85.4984"/>
</g>
<!-- Node16 -->
<g id="node17" class="node">
<title>Node16</title>
<g id="a_node17"><a xlink:href="UIEvents_8hxx.html" target="_top" xlink:title="events/UIEvents.hxx">
<polygon fill="none" stroke="#000000" points="422,-168.5 422,-187.5 539,-187.5 539,-168.5 422,-168.5"/>
<text text-anchor="middle" x="480.5" y="-175.5" font-family="Helvetica,sans-Serif" font-size="10.00" fill="#000000">events/UIEvents.hxx</text>
</a>
</g>
</g>
<!-- Node8&#45;&gt;Node16 -->
<g id="edge16" class="edge">
<title>Node8&#45;&gt;Node16</title>
<path fill="none" stroke="#191970" d="M480.5,-224.2455C480.5,-216.9382 480.5,-206.6944 480.5,-197.7046"/>
<polygon fill="#191970" stroke="#191970" points="484.0001,-197.6426 480.5,-187.6427 477.0001,-197.6427 484.0001,-197.6426"/>
</g>
<!-- Node12 -->
<g id="node13" class="node">
<title>Node12</title>
<polygon fill="none" stroke="#bfbfbf" points="414.5,-.5 414.5,-19.5 474.5,-19.5 474.5,-.5 414.5,-.5"/>
<text text-anchor="middle" x="444.5" y="-7.5" font-family="Helvetica,sans-Serif" font-size="10.00" fill="#000000">iostream</text>
</g>
<!-- Node11&#45;&gt;Node12 -->
<g id="edge12" class="edge">
<title>Node11&#45;&gt;Node12</title>
<path fill="none" stroke="#191970" d="M545.5275,-56.3733C525.9433,-47.3838 496.5039,-33.8706 474.449,-23.7471"/>
<polygon fill="#191970" stroke="#191970" points="475.7473,-20.4919 465.1989,-19.5011 472.8271,-26.8538 475.7473,-20.4919"/>
</g>
<!-- Node13 -->
<g id="node14" class="node">
<title>Node13</title>
<polygon fill="none" stroke="#bfbfbf" points="493,-.5 493,-19.5 562,-19.5 562,-.5 493,-.5"/>
<text text-anchor="middle" x="527.5" y="-7.5" font-family="Helvetica,sans-Serif" font-size="10.00" fill="#000000">type_traits</text>
</g>
<!-- Node11&#45;&gt;Node13 -->
<g id="edge13" class="edge">
<title>Node11&#45;&gt;Node13</title>
<path fill="none" stroke="#191970" d="M559.7067,-56.2455C554.2822,-48.4564 546.5339,-37.3308 539.9967,-27.9439"/>
<polygon fill="#191970" stroke="#191970" points="542.8025,-25.8485 534.2154,-19.6427 537.0583,-29.849 542.8025,-25.8485"/>
</g>
<!-- Node14 -->
<g id="node15" class="node">
<title>Node14</title>
<polygon fill="none" stroke="#bfbfbf" points="580,-.5 580,-19.5 631,-19.5 631,-.5 580,-.5"/>
<text text-anchor="middle" x="605.5" y="-7.5" font-family="Helvetica,sans-Serif" font-size="10.00" fill="#000000">variant</text>
</g>
<!-- Node11&#45;&gt;Node14 -->
<g id="edge14" class="edge">
<title>Node11&#45;&gt;Node14</title>
<path fill="none" stroke="#191970" d="M573.2933,-56.2455C578.7178,-48.4564 586.4661,-37.3308 593.0033,-27.9439"/>
<polygon fill="#191970" stroke="#191970" points="595.9417,-29.849 598.7846,-19.6427 590.1975,-25.8485 595.9417,-29.849"/>
</g>
<!-- Node15 -->
<g id="node16" class="node">
<title>Node15</title>
<polygon fill="none" stroke="#bfbfbf" points="649,-.5 649,-19.5 690,-19.5 690,-.5 649,-.5"/>
<text text-anchor="middle" x="669.5" y="-7.5" font-family="Helvetica,sans-Serif" font-size="10.00" fill="#000000">tuple</text>
</g>
<!-- Node11&#45;&gt;Node15 -->
<g id="edge15" class="edge">
<title>Node11&#45;&gt;Node15</title>
<path fill="none" stroke="#191970" d="M584.4412,-56.2455C600.54,-47.4928 624.3879,-34.527 642.7391,-24.5496"/>
<polygon fill="#191970" stroke="#191970" points="644.6507,-27.4942 651.7644,-19.6427 641.3071,-21.3444 644.6507,-27.4942"/>
</g>
<!-- Node16&#45;&gt;Node6 -->
<g id="edge17" class="edge">
<title>Node16&#45;&gt;Node6</title>
<path fill="none" stroke="#191970" d="M454.0265,-168.3733C428.6403,-159.1419 390.1355,-145.1402 362.078,-134.9375"/>
<polygon fill="#191970" stroke="#191970" points="363.2222,-131.6293 352.6281,-131.5011 360.8299,-138.2079 363.2222,-131.6293"/>
</g>
<!-- Node17 -->
<g id="node18" class="node">
<title>Node17</title>
<g id="a_node18"><a xlink:href="Observer_8hxx.html" target="_top" xlink:title="../util/Observer.hxx">
<polygon fill="none" stroke="#000000" points="427,-112.5 427,-131.5 536,-131.5 536,-112.5 427,-112.5"/>
<text text-anchor="middle" x="481.5" y="-119.5" font-family="Helvetica,sans-Serif" font-size="10.00" fill="#000000">../util/Observer.hxx</text>
</a>
</g>
</g>
<!-- Node16&#45;&gt;Node17 -->
<g id="edge18" class="edge">
<title>Node16&#45;&gt;Node17</title>
<path fill="none" stroke="#191970" d="M480.6742,-168.2455C480.8047,-160.9382 480.9876,-150.6944 481.1481,-141.7046"/>
<polygon fill="#191970" stroke="#191970" points="484.6486,-141.7036 481.3278,-131.6427 477.6497,-141.5786 484.6486,-141.7036"/>
</g>
<!-- Node17&#45;&gt;Node11 -->
<g id="edge21" class="edge">
<title>Node17&#45;&gt;Node11</title>
<path fill="none" stroke="#191970" d="M496.3059,-112.2455C509.2256,-103.7337 528.1931,-91.2375 543.1552,-81.3801"/>
<polygon fill="#191970" stroke="#191970" points="545.4387,-84.067 551.8638,-75.6427 541.5876,-78.2216 545.4387,-84.067"/>
</g>
<!-- Node18 -->
<g id="node19" class="node">
<title>Node18</title>
<polygon fill="none" stroke="#bfbfbf" points="459,-56.5 459,-75.5 506,-75.5 506,-56.5 459,-56.5"/>
<text text-anchor="middle" x="482.5" y="-63.5" font-family="Helvetica,sans-Serif" font-size="10.00" fill="#000000">vector</text>
</g>
<!-- Node17&#45;&gt;Node18 -->
<g id="edge19" class="edge">
<title>Node17&#45;&gt;Node18</title>
<path fill="none" stroke="#191970" d="M481.6742,-112.2455C481.8047,-104.9382 481.9876,-94.6944 482.1481,-85.7046"/>
<polygon fill="#191970" stroke="#191970" points="485.6486,-85.7036 482.3278,-75.6427 478.6497,-85.5786 485.6486,-85.7036"/>
</g>
<!-- Node19 -->
<g id="node20" class="node">
<title>Node19</title>
<polygon fill="none" stroke="#bfbfbf" points="382.5,-56.5 382.5,-75.5 440.5,-75.5 440.5,-56.5 382.5,-56.5"/>
<text text-anchor="middle" x="411.5" y="-63.5" font-family="Helvetica,sans-Serif" font-size="10.00" fill="#000000">memory</text>
</g>
<!-- Node17&#45;&gt;Node19 -->
<g id="edge20" class="edge">
<title>Node17&#45;&gt;Node19</title>
<path fill="none" stroke="#191970" d="M469.3069,-112.2455C458.8679,-103.8943 443.6345,-91.7076 431.426,-81.9408"/>
<polygon fill="#191970" stroke="#191970" points="433.5485,-79.1566 423.5533,-75.6427 429.1756,-84.6227 433.5485,-79.1566"/>
</g>
</g>
</svg>
