<?xml version="1.0" encoding="UTF-8" standalone="no"?>
<!DOCTYPE svg PUBLIC "-//W3C//DTD SVG 1.1//EN"
 "http://www.w3.org/Graphics/SVG/1.1/DTD/svg11.dtd">
<!-- Generated by graphviz version 2.40.1 (20161225.0304)
 -->
<!-- Title: Graphical Class Hierarchy Pages: 1 -->
<svg width="720pt" height="160pt"
 viewBox="0.00 0.00 720.00 159.50" xmlns="http://www.w3.org/2000/svg" xmlns:xlink="http://www.w3.org/1999/xlink">
<g id="graph0" class="graph" transform="scale(1 1) rotate(0) translate(4 155.5)">
<title>Graphical Class Hierarchy</title>
<!-- Node136 -->
<g id="node1" class="node">
<title>Node136</title>
<g id="a_node1"><a xlink:href="classiModel.html" target="_top" xlink:title="iModel">
<polygon fill="none" stroke="#000000" points="266,-72 266,-91 315,-91 315,-72 266,-72"/>
<text text-anchor="middle" x="290.5" y="-79" font-family="Helvetica,sans-Serif" font-size="10.00" fill="#000000">iModel</text>
</a>
</g>
</g>
<!-- Node2 -->
<g id="node2" class="node">
<title>Node2</title>
<g id="a_node2"><a xlink:href="structDataModel.html" target="_top" xlink:title="DataModel\&lt; DataList \&gt;">
<polygon fill="none" stroke="#000000" points="443.5,-95 443.5,-114 575.5,-114 575.5,-95 443.5,-95"/>
<text text-anchor="middle" x="509.5" y="-102" font-family="Helvetica,sans-Serif" font-size="10.00" fill="#000000">DataModel&lt; DataList &gt;</text>
</a>
</g>
</g>
<!-- Node136&#45;&gt;Node2 -->
<g id="edge1" class="edge">
<title>Node136&#45;&gt;Node2</title>
<path fill="none" stroke="#191970" d="M325.285,-85.1532C356.9384,-88.4776 404.5154,-93.4742 443.389,-97.5568"/>
<polygon fill="#191970" stroke="#191970" points="325.5073,-81.6574 315.1964,-84.0937 324.7761,-88.6191 325.5073,-81.6574"/>
</g>
<!-- Node14 -->
<g id="node3" class="node">
<title>Node14</title>
<g id="a_node3"><a xlink:href="structDataModel.html" target="_top" xlink:title="DataModel\&lt; ButtonNotifications \&gt;">
<polygon fill="none" stroke="#000000" points="417,-49 417,-68 602,-68 602,-49 417,-49"/>
<text text-anchor="middle" x="509.5" y="-56" font-family="Helvetica,sans-Serif" font-size="10.00" fill="#000000">DataModel&lt; ButtonNotifications &gt;</text>
</a>
</g>
</g>
<!-- Node136&#45;&gt;Node14 -->
<g id="edge2" class="edge">
<title>Node136&#45;&gt;Node14</title>
<path fill="none" stroke="#191970" d="M325.3688,-77.838C350.6342,-75.1845 386.0126,-71.469 419.0141,-68.0031"/>
<polygon fill="#191970" stroke="#191970" points="324.7761,-74.3809 315.1964,-78.9063 325.5073,-81.3426 324.7761,-74.3809"/>
</g>
<!-- Node15 -->
<g id="node4" class="node">
<title>Node15</title>
<g id="a_node4"><a xlink:href="classButtonState.html" target="_top" xlink:title="ButtonState">
<polygon fill="none" stroke="#000000" points="638,-49 638,-68 712,-68 712,-49 638,-49"/>
<text text-anchor="middle" x="675" y="-56" font-family="Helvetica,sans-Serif" font-size="10.00" fill="#000000">ButtonState</text>
</a>
</g>
</g>
<!-- Node14&#45;&gt;Node15 -->
<g id="edge3" class="edge">
<title>Node14&#45;&gt;Node15</title>
<path fill="none" stroke="#191970" d="M612.5899,-58.5C621.5019,-58.5 630.0783,-58.5 637.8698,-58.5"/>
<polygon fill="#191970" stroke="#191970" points="612.4093,-55.0001 602.4093,-58.5 612.4093,-62.0001 612.4093,-55.0001"/>
</g>
<!-- Node12 -->
<g id="node5" class="node">
<title>Node12</title>
<g id="a_node5"><a xlink:href="structUIMQDispatcher.html" target="_top" xlink:title="UIMQDispatcher\&lt; VariantType\l\&lt; ButtonNotifications \&gt; \&gt;">
<polygon fill="none" stroke="#000000" points="0,-11.5 0,-41.5 164,-41.5 164,-11.5 0,-11.5"/>
<text text-anchor="start" x="8" y="-29.5" font-family="Helvetica,sans-Serif" font-size="10.00" fill="#000000">UIMQDispatcher&lt; VariantType</text>
<text text-anchor="middle" x="82" y="-18.5" font-family="Helvetica,sans-Serif" font-size="10.00" fill="#000000">&lt; ButtonNotifications &gt; &gt;</text>
</a>
</g>
</g>
<!-- Node13 -->
<g id="node6" class="node">
<title>Node13</title>
<g id="a_node6"><a xlink:href="classSubject.html" target="_top" xlink:title="Subject\&lt; VariantType\l\&lt; ButtonNotifications\l \&gt;, UIMQDispatcher\&lt; VariantType\l\&lt; ButtonNotifications \&gt; \&gt; \&gt;">
<polygon fill="none" stroke="#000000" points="200,-.5 200,-52.5 381,-52.5 381,-.5 200,-.5"/>
<text text-anchor="start" x="208" y="-40.5" font-family="Helvetica,sans-Serif" font-size="10.00" fill="#000000">Subject&lt; VariantType</text>
<text text-anchor="start" x="208" y="-29.5" font-family="Helvetica,sans-Serif" font-size="10.00" fill="#000000">&lt; ButtonNotifications</text>
<text text-anchor="start" x="208" y="-18.5" font-family="Helvetica,sans-Serif" font-size="10.00" fill="#000000"> &gt;, UIMQDispatcher&lt; VariantType</text>
<text text-anchor="middle" x="290.5" y="-7.5" font-family="Helvetica,sans-Serif" font-size="10.00" fill="#000000">&lt; ButtonNotifications &gt; &gt; &gt;</text>
</a>
</g>
</g>
<!-- Node12&#45;&gt;Node13 -->
<g id="edge4" class="edge">
<title>Node12&#45;&gt;Node13</title>
<path fill="none" stroke="#8b1a1a" d="M174.3673,-26.5C182.8358,-26.5 191.4102,-26.5 199.8632,-26.5"/>
<polygon fill="#8b1a1a" stroke="#8b1a1a" points="174.1055,-23.0001 164.1054,-26.5 174.1054,-30.0001 174.1055,-23.0001"/>
</g>
<!-- Node13&#45;&gt;Node14 -->
<g id="edge5" class="edge">
<title>Node13&#45;&gt;Node14</title>
<path fill="none" stroke="#191970" d="M391.1436,-41.2059C409.2028,-43.8447 427.5855,-46.5308 444.3094,-48.9744"/>
<polygon fill="#191970" stroke="#191970" points="391.5575,-37.7293 381.1565,-39.7466 390.5454,-44.6558 391.5575,-37.7293"/>
</g>
<!-- Node0 -->
<g id="node7" class="node">
<title>Node0</title>
<g id="a_node7"><a xlink:href="structUIMQDispatcher.html" target="_top" xlink:title="UIMQDispatcher\&lt; VariantType\l\&lt; DataList \&gt; \&gt;">
<polygon fill="none" stroke="#000000" points="0,-115.5 0,-145.5 164,-145.5 164,-115.5 0,-115.5"/>
<text text-anchor="start" x="8" y="-133.5" font-family="Helvetica,sans-Serif" font-size="10.00" fill="#000000">UIMQDispatcher&lt; VariantType</text>
<text text-anchor="middle" x="82" y="-122.5" font-family="Helvetica,sans-Serif" font-size="10.00" fill="#000000">&lt; DataList &gt; &gt;</text>
</a>
</g>
</g>
<!-- Node1 -->
<g id="node8" class="node">
<title>Node1</title>
<g id="a_node8"><a xlink:href="classSubject.html" target="_top" xlink:title="Subject\&lt; VariantType\l\&lt; DataList \&gt;, UIMQDispatcher\l\&lt; VariantType\&lt; DataList \&gt; \&gt; \&gt;">
<polygon fill="none" stroke="#000000" points="205.5,-110 205.5,-151 375.5,-151 375.5,-110 205.5,-110"/>
<text text-anchor="start" x="213.5" y="-139" font-family="Helvetica,sans-Serif" font-size="10.00" fill="#000000">Subject&lt; VariantType</text>
<text text-anchor="start" x="213.5" y="-128" font-family="Helvetica,sans-Serif" font-size="10.00" fill="#000000">&lt; DataList &gt;, UIMQDispatcher</text>
<text text-anchor="middle" x="290.5" y="-117" font-family="Helvetica,sans-Serif" font-size="10.00" fill="#000000">&lt; VariantType&lt; DataList &gt; &gt; &gt;</text>
</a>
</g>
</g>
<!-- Node0&#45;&gt;Node1 -->
<g id="edge6" class="edge">
<title>Node0&#45;&gt;Node1</title>
<path fill="none" stroke="#8b1a1a" d="M174.3591,-130.5C184.6806,-130.5 195.1596,-130.5 205.3844,-130.5"/>
<polygon fill="#8b1a1a" stroke="#8b1a1a" points="174.1055,-127.0001 164.1054,-130.5 174.1054,-134.0001 174.1055,-127.0001"/>
</g>
<!-- Node1&#45;&gt;Node2 -->
<g id="edge7" class="edge">
<title>Node1&#45;&gt;Node2</title>
<path fill="none" stroke="#191970" d="M385.8807,-119.1763C405.2915,-116.8718 425.3042,-114.4959 443.4238,-112.3447"/>
<polygon fill="#191970" stroke="#191970" points="385.3158,-115.7187 375.7982,-120.3733 386.1411,-122.6698 385.3158,-115.7187"/>
</g>
</g>
</svg>
