<?xml version="1.0" encoding="UTF-8" standalone="no"?>
<!DOCTYPE svg PUBLIC "-//W3C//DTD SVG 1.1//EN"
 "http://www.w3.org/Graphics/SVG/1.1/DTD/svg11.dtd">
<!-- Generated by graphviz version 2.40.1 (20161225.0304)
 -->
<!-- Title: src/main.cxx Pages: 1 -->
<svg width="1692pt" height="476pt"
 viewBox="0.00 0.00 1691.50 476.00" xmlns="http://www.w3.org/2000/svg" xmlns:xlink="http://www.w3.org/1999/xlink">
<g id="graph0" class="graph" transform="scale(1 1) rotate(0) translate(4 472)">
<title>src/main.cxx</title>
<!-- Node0 -->
<g id="node1" class="node">
<title>Node0</title>
<polygon fill="#bfbfbf" stroke="#000000" points="1522.5,-448.5 1522.5,-467.5 1601.5,-467.5 1601.5,-448.5 1522.5,-448.5"/>
<text text-anchor="middle" x="1562" y="-455.5" font-family="Helvetica,sans-Serif" font-size="10.00" fill="#000000">src/main.cxx</text>
</g>
<!-- Node1 -->
<g id="node2" class="node">
<title>Node1</title>
<polygon fill="none" stroke="#bfbfbf" points="846,-.5 846,-19.5 906,-19.5 906,-.5 846,-.5"/>
<text text-anchor="middle" x="876" y="-7.5" font-family="Helvetica,sans-Serif" font-size="10.00" fill="#000000">iostream</text>
</g>
<!-- Node0&#45;&gt;Node1 -->
<g id="edge1" class="edge">
<title>Node0&#45;&gt;Node1</title>
<path fill="none" stroke="#191970" d="M1522.214,-457.2881C1278.7097,-452.6773 0,-424.7168 0,-346 0,-346 0,-346 0,-122 0,-36.5868 663.7262,-15.009 835.7014,-10.8516"/>
<polygon fill="#191970" stroke="#191970" points="835.9312,-14.3473 845.8461,-10.613 835.7665,-7.3492 835.9312,-14.3473"/>
</g>
<!-- Node2 -->
<g id="node3" class="node">
<title>Node2</title>
<g id="a_node3"><a xlink:href="Game_8hxx.html" target="_top" xlink:title="Game.hxx">
<polygon fill="none" stroke="#000000" points="980.5,-392.5 980.5,-411.5 1047.5,-411.5 1047.5,-392.5 980.5,-392.5"/>
<text text-anchor="middle" x="1014" y="-399.5" font-family="Helvetica,sans-Serif" font-size="10.00" fill="#000000">Game.hxx</text>
</a>
</g>
</g>
<!-- Node0&#45;&gt;Node2 -->
<g id="edge2" class="edge">
<title>Node0&#45;&gt;Node2</title>
<path fill="none" stroke="#191970" d="M1522.1478,-453.9275C1422.2567,-443.7197 1161.7707,-417.1007 1057.7933,-406.4752"/>
<polygon fill="#191970" stroke="#191970" points="1057.9511,-402.9732 1047.6471,-405.4384 1057.2394,-409.9369 1057.9511,-402.9732"/>
</g>
<!-- Node27 -->
<g id="node28" class="node">
<title>Node27</title>
<g id="a_node28"><a xlink:href="LOG_8hxx.html" target="_top" xlink:title="LOG.hxx">
<polygon fill="none" stroke="#000000" points="1341,-280.5 1341,-299.5 1399,-299.5 1399,-280.5 1341,-280.5"/>
<text text-anchor="middle" x="1370" y="-287.5" font-family="Helvetica,sans-Serif" font-size="10.00" fill="#000000">LOG.hxx</text>
</a>
</g>
</g>
<!-- Node0&#45;&gt;Node27 -->
<g id="edge69" class="edge">
<title>Node0&#45;&gt;Node27</title>
<path fill="none" stroke="#191970" d="M1551.1271,-448.4862C1519.7253,-421.0096 1428.6132,-341.2866 1388.8887,-306.5276"/>
<polygon fill="#191970" stroke="#191970" points="1391.0624,-303.7789 1381.2319,-299.8279 1386.4529,-309.047 1391.0624,-303.7789"/>
</g>
<!-- Node28 -->
<g id="node29" class="node">
<title>Node28</title>
<g id="a_node29"><a xlink:href="Exception_8hxx.html" target="_top" xlink:title="Exception.hxx">
<polygon fill="none" stroke="#000000" points="1557,-224.5 1557,-243.5 1643,-243.5 1643,-224.5 1557,-224.5"/>
<text text-anchor="middle" x="1600" y="-231.5" font-family="Helvetica,sans-Serif" font-size="10.00" fill="#000000">Exception.hxx</text>
</a>
</g>
</g>
<!-- Node0&#45;&gt;Node28 -->
<g id="edge68" class="edge">
<title>Node0&#45;&gt;Node28</title>
<path fill="none" stroke="#191970" d="M1563.6328,-448.375C1569.3942,-414.4133 1588.8465,-299.7472 1596.6853,-253.5392"/>
<polygon fill="#191970" stroke="#191970" points="1600.1514,-254.0337 1598.3733,-243.5891 1593.25,-252.8629 1600.1514,-254.0337"/>
</g>
<!-- Node46 -->
<g id="node47" class="node">
<title>Node46</title>
<polygon fill="none" stroke="#bfbfbf" points="1628.5,-392.5 1628.5,-411.5 1683.5,-411.5 1683.5,-392.5 1628.5,-392.5"/>
<text text-anchor="middle" x="1656" y="-399.5" font-family="Helvetica,sans-Serif" font-size="10.00" fill="#000000">signal.h</text>
</g>
<!-- Node0&#45;&gt;Node46 -->
<g id="edge70" class="edge">
<title>Node0&#45;&gt;Node46</title>
<path fill="none" stroke="#191970" d="M1578.3736,-448.2455C1592.9308,-439.5731 1614.431,-426.7645 1631.1152,-416.825"/>
<polygon fill="#191970" stroke="#191970" points="1633.0144,-419.7676 1639.8141,-411.6427 1629.4317,-413.7539 1633.0144,-419.7676"/>
</g>
<!-- Node3 -->
<g id="node4" class="node">
<title>Node3</title>
<g id="a_node4"><a xlink:href="ScriptEngine_8hxx.html" target="_top" xlink:title="Scripting/ScriptEngine.hxx">
<polygon fill="none" stroke="#000000" points="855,-336.5 855,-355.5 999,-355.5 999,-336.5 855,-336.5"/>
<text text-anchor="middle" x="927" y="-343.5" font-family="Helvetica,sans-Serif" font-size="10.00" fill="#000000">Scripting/ScriptEngine.hxx</text>
</a>
</g>
</g>
<!-- Node2&#45;&gt;Node3 -->
<g id="edge3" class="edge">
<title>Node2&#45;&gt;Node3</title>
<path fill="none" stroke="#191970" d="M998.8458,-392.2455C985.4973,-383.6534 965.8414,-371.0014 950.4617,-361.1018"/>
<polygon fill="#191970" stroke="#191970" points="952.2836,-358.1121 941.9806,-355.6427 948.4949,-363.9982 952.2836,-358.1121"/>
</g>
<!-- Node4 -->
<g id="node5" class="node">
<title>Node4</title>
<g id="a_node5"><a xlink:href="MessageQueue_8hxx.html" target="_top" xlink:title="engine/MessageQueue.hxx">
<polygon fill="none" stroke="#000000" points="230,-280.5 230,-299.5 378,-299.5 378,-280.5 230,-280.5"/>
<text text-anchor="middle" x="304" y="-287.5" font-family="Helvetica,sans-Serif" font-size="10.00" fill="#000000">engine/MessageQueue.hxx</text>
</a>
</g>
</g>
<!-- Node2&#45;&gt;Node4 -->
<g id="edge4" class="edge">
<title>Node2&#45;&gt;Node4</title>
<path fill="none" stroke="#191970" d="M980.2918,-401.3651C899.1908,-399.305 687.0703,-390.7456 514,-356 450.4818,-343.2481 379.0007,-318.4434 337.9557,-303.1403"/>
<polygon fill="#191970" stroke="#191970" points="339.0372,-299.8077 328.4452,-299.5609 336.5714,-306.3591 339.0372,-299.8077"/>
</g>
<!-- Node14 -->
<g id="node15" class="node">
<title>Node14</title>
<g id="a_node15"><a xlink:href="Meta_8hxx.html" target="_top" xlink:title="util/Meta.hxx">
<polygon fill="none" stroke="#000000" points="942,-56.5 942,-75.5 1022,-75.5 1022,-56.5 942,-56.5"/>
<text text-anchor="middle" x="982" y="-63.5" font-family="Helvetica,sans-Serif" font-size="10.00" fill="#000000">util/Meta.hxx</text>
</a>
</g>
</g>
<!-- Node2&#45;&gt;Node14 -->
<g id="edge26" class="edge">
<title>Node2&#45;&gt;Node14</title>
<path fill="none" stroke="#191970" d="M1047.7052,-399.4127C1130.0272,-392.8757 1339.5194,-374.8683 1407,-356 1522.3047,-323.7595 1587.2896,-344.7332 1652,-244 1656.8043,-236.5213 1652.3956,-232.8801 1652,-224 1650.8878,-199.0369 1664.1025,-186.2181 1647,-168 1604.8427,-123.0928 1180.6673,-82.9391 1032.6422,-70.1944"/>
<polygon fill="#191970" stroke="#191970" points="1032.7326,-66.6894 1022.4707,-69.3245 1032.136,-73.664 1032.7326,-66.6894"/>
</g>
<!-- Node22 -->
<g id="node23" class="node">
<title>Node22</title>
<g id="a_node23"><a xlink:href="GameService_8hxx.html" target="_top" xlink:title="GameService.hxx">
<polygon fill="none" stroke="#000000" points="731.5,-280.5 731.5,-299.5 834.5,-299.5 834.5,-280.5 731.5,-280.5"/>
<text text-anchor="middle" x="783" y="-287.5" font-family="Helvetica,sans-Serif" font-size="10.00" fill="#000000">GameService.hxx</text>
</a>
</g>
</g>
<!-- Node2&#45;&gt;Node22 -->
<g id="edge27" class="edge">
<title>Node2&#45;&gt;Node22</title>
<path fill="none" stroke="#191970" d="M980.2442,-398.6289C911.6111,-391.4341 760.9853,-373.7765 746,-356 733.1666,-340.7761 748.5022,-320.4418 763.1481,-306.3861"/>
<polygon fill="#191970" stroke="#191970" points="765.5126,-308.9668 770.5913,-299.6686 760.8226,-303.7703 765.5126,-308.9668"/>
</g>
<!-- Node24 -->
<g id="node25" class="node">
<title>Node24</title>
<g id="a_node25"><a xlink:href="Randomizer_8hxx.html" target="_top" xlink:title="services/Randomizer.hxx">
<polygon fill="none" stroke="#000000" points="1202.5,-336.5 1202.5,-355.5 1341.5,-355.5 1341.5,-336.5 1202.5,-336.5"/>
<text text-anchor="middle" x="1272" y="-343.5" font-family="Helvetica,sans-Serif" font-size="10.00" fill="#000000">services/Randomizer.hxx</text>
</a>
</g>
</g>
<!-- Node2&#45;&gt;Node24 -->
<g id="edge30" class="edge">
<title>Node2&#45;&gt;Node24</title>
<path fill="none" stroke="#191970" d="M1047.729,-394.679C1091.0109,-385.2845 1166.6219,-368.8728 1217.9669,-357.7281"/>
<polygon fill="#191970" stroke="#191970" points="1218.8656,-361.1146 1227.8956,-355.573 1217.3807,-354.2739 1218.8656,-361.1146"/>
</g>
<!-- Node2&#45;&gt;Node27 -->
<g id="edge64" class="edge">
<title>Node2&#45;&gt;Node27</title>
<path fill="none" stroke="#191970" d="M1047.542,-399.4925C1128.2394,-393.1708 1328.2502,-375.6762 1351,-356 1364.0796,-344.6875 1368.4374,-325.0097 1369.7578,-310.0758"/>
<polygon fill="#191970" stroke="#191970" points="1373.2678,-309.9592 1370.2695,-299.7975 1366.2765,-309.6111 1373.2678,-309.9592"/>
</g>
<!-- Node2&#45;&gt;Node28 -->
<g id="edge65" class="edge">
<title>Node2&#45;&gt;Node28</title>
<path fill="none" stroke="#191970" d="M1047.7819,-399.2105C1124.7479,-392.6032 1311.0927,-375.1123 1371,-356 1413.0309,-342.5908 1524.8085,-278.2778 1574.9941,-248.8083"/>
<polygon fill="#191970" stroke="#191970" points="1577.0534,-251.6576 1583.8947,-243.5677 1573.5017,-245.6255 1577.0534,-251.6576"/>
</g>
<!-- Node38 -->
<g id="node39" class="node">
<title>Node38</title>
<g id="a_node39"><a xlink:href="GameClock_8hxx.html" target="_top" xlink:title="services/GameClock.hxx">
<polygon fill="none" stroke="#000000" points="523.5,-336.5 523.5,-355.5 660.5,-355.5 660.5,-336.5 523.5,-336.5"/>
<text text-anchor="middle" x="592" y="-343.5" font-family="Helvetica,sans-Serif" font-size="10.00" fill="#000000">services/GameClock.hxx</text>
</a>
</g>
</g>
<!-- Node2&#45;&gt;Node38 -->
<g id="edge49" class="edge">
<title>Node2&#45;&gt;Node38</title>
<path fill="none" stroke="#191970" d="M980.1793,-397.5119C913.5386,-388.6686 763.6825,-368.7825 670.8808,-356.4676"/>
<polygon fill="#191970" stroke="#191970" points="671.0656,-352.9615 660.6921,-355.1155 670.1447,-359.9007 671.0656,-352.9615"/>
</g>
<!-- Node40 -->
<g id="node41" class="node">
<title>Node40</title>
<polygon fill="none" stroke="#bfbfbf" points="665,-280.5 665,-299.5 713,-299.5 713,-280.5 665,-280.5"/>
<text text-anchor="middle" x="689" y="-287.5" font-family="Helvetica,sans-Serif" font-size="10.00" fill="#000000">thread</text>
</g>
<!-- Node2&#45;&gt;Node40 -->
<g id="edge66" class="edge">
<title>Node2&#45;&gt;Node40</title>
<path fill="none" stroke="#191970" d="M980.207,-399.5849C915.5626,-394.4527 777.2315,-380.8482 737,-356 719.0032,-344.8846 705.6722,-324.2867 697.6858,-309.0469"/>
<polygon fill="#191970" stroke="#191970" points="700.7697,-307.3866 693.214,-299.9595 694.4889,-310.4773 700.7697,-307.3866"/>
</g>
<!-- Node42 -->
<g id="node43" class="node">
<title>Node42</title>
<g id="a_node43"><a xlink:href="ResourceManager_8hxx.html" target="_top" xlink:title="services/ResourceManager.hxx">
<polygon fill="none" stroke="#000000" points="1017.5,-336.5 1017.5,-355.5 1184.5,-355.5 1184.5,-336.5 1017.5,-336.5"/>
<text text-anchor="middle" x="1101" y="-343.5" font-family="Helvetica,sans-Serif" font-size="10.00" fill="#000000">services/ResourceManager.hxx</text>
</a>
</g>
</g>
<!-- Node2&#45;&gt;Node42 -->
<g id="edge58" class="edge">
<title>Node2&#45;&gt;Node42</title>
<path fill="none" stroke="#191970" d="M1029.1542,-392.2455C1042.5027,-383.6534 1062.1586,-371.0014 1077.5383,-361.1018"/>
<polygon fill="#191970" stroke="#191970" points="1079.5051,-363.9982 1086.0194,-355.6427 1075.7164,-358.1121 1079.5051,-363.9982"/>
</g>
<!-- Node45 -->
<g id="node46" class="node">
<title>Node45</title>
<g id="a_node46"><a xlink:href="Game_8inl_8hxx.html" target="_top" xlink:title="Game.inl.hxx">
<polygon fill="none" stroke="#000000" points="755,-336.5 755,-355.5 837,-355.5 837,-336.5 755,-336.5"/>
<text text-anchor="middle" x="796" y="-343.5" font-family="Helvetica,sans-Serif" font-size="10.00" fill="#000000">Game.inl.hxx</text>
</a>
</g>
</g>
<!-- Node2&#45;&gt;Node45 -->
<g id="edge67" class="edge">
<title>Node2&#45;&gt;Node45</title>
<path fill="none" stroke="#191970" d="M980.4153,-393.3727C943.6729,-383.9343 884.5062,-368.7355 843.1272,-358.1061"/>
<polygon fill="#191970" stroke="#191970" points="843.8335,-354.6739 833.2771,-355.5758 842.0918,-361.4538 843.8335,-354.6739"/>
</g>
<!-- Node5 -->
<g id="node6" class="node">
<title>Node5</title>
<polygon fill="none" stroke="#bfbfbf" points="387.5,-224.5 387.5,-243.5 494.5,-243.5 494.5,-224.5 387.5,-224.5"/>
<text text-anchor="middle" x="441" y="-231.5" font-family="Helvetica,sans-Serif" font-size="10.00" fill="#000000">condition_variable</text>
</g>
<!-- Node4&#45;&gt;Node5 -->
<g id="edge5" class="edge">
<title>Node4&#45;&gt;Node5</title>
<path fill="none" stroke="#191970" d="M327.5511,-280.3733C349.8391,-271.2629 383.4937,-257.5062 408.3637,-247.3404"/>
<polygon fill="#191970" stroke="#191970" points="409.8239,-250.5247 417.7562,-243.5011 407.1753,-244.0451 409.8239,-250.5247"/>
</g>
<!-- Node6 -->
<g id="node7" class="node">
<title>Node6</title>
<polygon fill="none" stroke="#bfbfbf" points="651,-224.5 651,-243.5 699,-243.5 699,-224.5 651,-224.5"/>
<text text-anchor="middle" x="675" y="-231.5" font-family="Helvetica,sans-Serif" font-size="10.00" fill="#000000">mutex</text>
</g>
<!-- Node4&#45;&gt;Node6 -->
<g id="edge6" class="edge">
<title>Node4&#45;&gt;Node6</title>
<path fill="none" stroke="#191970" d="M378.0732,-280.5544C462.5676,-269.6886 594.1841,-252.4563 640.9771,-243.7784"/>
<polygon fill="#191970" stroke="#191970" points="641.8543,-247.1721 650.9658,-241.7655 640.4714,-240.31 641.8543,-247.1721"/>
</g>
<!-- Node7 -->
<g id="node8" class="node">
<title>Node7</title>
<polygon fill="none" stroke="#bfbfbf" points="104.5,-224.5 104.5,-243.5 151.5,-243.5 151.5,-224.5 104.5,-224.5"/>
<text text-anchor="middle" x="128" y="-231.5" font-family="Helvetica,sans-Serif" font-size="10.00" fill="#000000">deque</text>
</g>
<!-- Node4&#45;&gt;Node7 -->
<g id="edge7" class="edge">
<title>Node4&#45;&gt;Node7</title>
<path fill="none" stroke="#191970" d="M273.7445,-280.3733C242.5273,-270.4405 193.9525,-254.9849 161.5699,-244.6813"/>
<polygon fill="#191970" stroke="#191970" points="162.2581,-241.2275 151.6676,-241.5306 160.1356,-247.8979 162.2581,-241.2275"/>
</g>
<!-- Node8 -->
<g id="node9" class="node">
<title>Node8</title>
<polygon fill="none" stroke="#bfbfbf" points="506.5,-56.5 506.5,-75.5 553.5,-75.5 553.5,-56.5 506.5,-56.5"/>
<text text-anchor="middle" x="530" y="-63.5" font-family="Helvetica,sans-Serif" font-size="10.00" fill="#000000">vector</text>
</g>
<!-- Node4&#45;&gt;Node8 -->
<g id="edge8" class="edge">
<title>Node4&#45;&gt;Node8</title>
<path fill="none" stroke="#191970" d="M359.3103,-280.4881C414.7103,-270.4482 493.1512,-254.6339 503,-244 543.629,-200.132 538.6141,-122.432 533.4838,-85.9575"/>
<polygon fill="#191970" stroke="#191970" points="536.8762,-84.9973 531.8717,-75.6589 529.9604,-86.0799 536.8762,-84.9973"/>
</g>
<!-- Node9 -->
<g id="node10" class="node">
<title>Node9</title>
<polygon fill="none" stroke="#bfbfbf" points="43.5,-112.5 43.5,-131.5 108.5,-131.5 108.5,-112.5 43.5,-112.5"/>
<text text-anchor="middle" x="76" y="-119.5" font-family="Helvetica,sans-Serif" font-size="10.00" fill="#000000">functional</text>
</g>
<!-- Node4&#45;&gt;Node9 -->
<g id="edge9" class="edge">
<title>Node4&#45;&gt;Node9</title>
<path fill="none" stroke="#191970" d="M229.7831,-282.5195C177.3794,-275.6538 113.3503,-263.5277 95,-244 69.0545,-216.3898 69.8789,-168.7488 72.8758,-141.8984"/>
<polygon fill="#191970" stroke="#191970" points="76.3721,-142.1572 74.2215,-131.7829 69.4332,-141.234 76.3721,-142.1572"/>
</g>
<!-- Node10 -->
<g id="node11" class="node">
<title>Node10</title>
<polygon fill="none" stroke="#bfbfbf" points="170,-224.5 170,-243.5 224,-243.5 224,-224.5 170,-224.5"/>
<text text-anchor="middle" x="197" y="-231.5" font-family="Helvetica,sans-Serif" font-size="10.00" fill="#000000">ciso646</text>
</g>
<!-- Node4&#45;&gt;Node10 -->
<g id="edge10" class="edge">
<title>Node4&#45;&gt;Node10</title>
<path fill="none" stroke="#191970" d="M285.362,-280.2455C268.5614,-271.4527 243.6366,-258.4079 224.5382,-248.4125"/>
<polygon fill="#191970" stroke="#191970" points="225.9073,-245.1787 215.4244,-243.6427 222.6614,-251.3807 225.9073,-245.1787"/>
</g>
<!-- Node11 -->
<g id="node12" class="node">
<title>Node11</title>
<g id="a_node12"><a xlink:href="Events_8hxx.html" target="_top" xlink:title="../Events.hxx">
<polygon fill="none" stroke="#000000" points="553,-224.5 553,-243.5 633,-243.5 633,-224.5 553,-224.5"/>
<text text-anchor="middle" x="593" y="-231.5" font-family="Helvetica,sans-Serif" font-size="10.00" fill="#000000">../Events.hxx</text>
</a>
</g>
</g>
<!-- Node4&#45;&gt;Node11 -->
<g id="edge11" class="edge">
<title>Node4&#45;&gt;Node11</title>
<path fill="none" stroke="#191970" d="M353.3525,-280.4369C406.2098,-270.1946 489.6436,-254.0275 542.8181,-243.7238"/>
<polygon fill="#191970" stroke="#191970" points="543.5544,-247.1463 552.7059,-241.8078 542.2227,-240.2742 543.5544,-247.1463"/>
</g>
<!-- Node21 -->
<g id="node22" class="node">
<title>Node21</title>
<g id="a_node22"><a xlink:href="MessageQueue_8inl_8hxx.html" target="_top" xlink:title="MessageQueue.inl.hxx">
<polygon fill="none" stroke="#000000" points="242.5,-224.5 242.5,-243.5 369.5,-243.5 369.5,-224.5 242.5,-224.5"/>
<text text-anchor="middle" x="306" y="-231.5" font-family="Helvetica,sans-Serif" font-size="10.00" fill="#000000">MessageQueue.inl.hxx</text>
</a>
</g>
</g>
<!-- Node4&#45;&gt;Node21 -->
<g id="edge25" class="edge">
<title>Node4&#45;&gt;Node21</title>
<path fill="none" stroke="#191970" d="M304.3484,-280.2455C304.6093,-272.9382 304.9752,-262.6944 305.2963,-253.7046"/>
<polygon fill="#191970" stroke="#191970" points="308.7964,-253.7613 305.6556,-243.6427 301.8008,-253.5113 308.7964,-253.7613"/>
</g>
<!-- Node12 -->
<g id="node13" class="node">
<title>Node12</title>
<polygon fill="none" stroke="#bfbfbf" points="842,-168.5 842,-187.5 886,-187.5 886,-168.5 842,-168.5"/>
<text text-anchor="middle" x="864" y="-175.5" font-family="Helvetica,sans-Serif" font-size="10.00" fill="#000000">string</text>
</g>
<!-- Node11&#45;&gt;Node12 -->
<g id="edge12" class="edge">
<title>Node11&#45;&gt;Node12</title>
<path fill="none" stroke="#191970" d="M633.1047,-225.7809C636.1141,-225.1747 639.1047,-224.5756 642,-224 724.5845,-207.5814 746.037,-207.2832 828,-188 829.2786,-187.6992 830.5802,-187.3834 831.8932,-187.0568"/>
<polygon fill="#191970" stroke="#191970" points="833.1995,-190.3329 841.987,-184.4142 831.4265,-183.5611 833.1995,-190.3329"/>
</g>
<!-- Node13 -->
<g id="node14" class="node">
<title>Node13</title>
<polygon fill="none" stroke="#bfbfbf" points="686,-168.5 686,-187.5 786,-187.5 786,-168.5 686,-168.5"/>
<text text-anchor="middle" x="736" y="-175.5" font-family="Helvetica,sans-Serif" font-size="10.00" fill="#000000">betterEnums.hxx</text>
</g>
<!-- Node11&#45;&gt;Node13 -->
<g id="edge13" class="edge">
<title>Node11&#45;&gt;Node13</title>
<path fill="none" stroke="#191970" d="M617.5826,-224.3733C640.9496,-215.2226 676.2862,-201.3844 702.2784,-191.2057"/>
<polygon fill="#191970" stroke="#191970" points="703.703,-194.4066 711.7382,-187.5011 701.1505,-187.8886 703.703,-194.4066"/>
</g>
<!-- Node11&#45;&gt;Node14 -->
<g id="edge14" class="edge">
<title>Node11&#45;&gt;Node14</title>
<path fill="none" stroke="#191970" d="M633.2668,-225.6276C687.8446,-214.1574 780.2228,-194.2649 795,-188 829.579,-173.3401 918.9566,-110.9698 960.359,-81.5186"/>
<polygon fill="#191970" stroke="#191970" points="962.5488,-84.2558 968.6573,-75.5992 958.4837,-78.5571 962.5488,-84.2558"/>
</g>
<!-- Node18 -->
<g id="node19" class="node">
<title>Node18</title>
<g id="a_node19"><a xlink:href="UIEvents_8hxx.html" target="_top" xlink:title="events/UIEvents.hxx">
<polygon fill="none" stroke="#000000" points="550.5,-168.5 550.5,-187.5 667.5,-187.5 667.5,-168.5 550.5,-168.5"/>
<text text-anchor="middle" x="609" y="-175.5" font-family="Helvetica,sans-Serif" font-size="10.00" fill="#000000">events/UIEvents.hxx</text>
</a>
</g>
</g>
<!-- Node11&#45;&gt;Node18 -->
<g id="edge19" class="edge">
<title>Node11&#45;&gt;Node18</title>
<path fill="none" stroke="#191970" d="M595.787,-224.2455C597.8977,-216.8579 600.866,-206.4689 603.4547,-197.4087"/>
<polygon fill="#191970" stroke="#191970" points="606.863,-198.2195 606.245,-187.6427 600.1323,-196.2964 606.863,-198.2195"/>
</g>
<!-- Node14&#45;&gt;Node1 -->
<g id="edge15" class="edge">
<title>Node14&#45;&gt;Node1</title>
<path fill="none" stroke="#191970" d="M963.5362,-56.2455C946.8926,-47.4527 922.2007,-34.4079 903.2808,-24.4125"/>
<polygon fill="#191970" stroke="#191970" points="904.7291,-21.2193 894.2522,-19.6427 901.4592,-27.4086 904.7291,-21.2193"/>
</g>
<!-- Node15 -->
<g id="node16" class="node">
<title>Node15</title>
<polygon fill="none" stroke="#bfbfbf" points="1052.5,-.5 1052.5,-19.5 1121.5,-19.5 1121.5,-.5 1052.5,-.5"/>
<text text-anchor="middle" x="1087" y="-7.5" font-family="Helvetica,sans-Serif" font-size="10.00" fill="#000000">type_traits</text>
</g>
<!-- Node14&#45;&gt;Node15 -->
<g id="edge16" class="edge">
<title>Node14&#45;&gt;Node15</title>
<path fill="none" stroke="#191970" d="M1000.2896,-56.2455C1016.7762,-47.4527 1041.2352,-34.4079 1059.9765,-24.4125"/>
<polygon fill="#191970" stroke="#191970" points="1061.7435,-27.4368 1068.92,-19.6427 1058.4494,-21.2604 1061.7435,-27.4368"/>
</g>
<!-- Node16 -->
<g id="node17" class="node">
<title>Node16</title>
<polygon fill="none" stroke="#bfbfbf" points="924.5,-.5 924.5,-19.5 975.5,-19.5 975.5,-.5 924.5,-.5"/>
<text text-anchor="middle" x="950" y="-7.5" font-family="Helvetica,sans-Serif" font-size="10.00" fill="#000000">variant</text>
</g>
<!-- Node14&#45;&gt;Node16 -->
<g id="edge17" class="edge">
<title>Node14&#45;&gt;Node16</title>
<path fill="none" stroke="#191970" d="M976.426,-56.2455C972.0669,-48.617 965.8789,-37.7881 960.5867,-28.5267"/>
<polygon fill="#191970" stroke="#191970" points="963.5104,-26.5886 955.5101,-19.6427 957.4327,-30.0616 963.5104,-26.5886"/>
</g>
<!-- Node17 -->
<g id="node18" class="node">
<title>Node17</title>
<polygon fill="none" stroke="#bfbfbf" points="993.5,-.5 993.5,-19.5 1034.5,-19.5 1034.5,-.5 993.5,-.5"/>
<text text-anchor="middle" x="1014" y="-7.5" font-family="Helvetica,sans-Serif" font-size="10.00" fill="#000000">tuple</text>
</g>
<!-- Node14&#45;&gt;Node17 -->
<g id="edge18" class="edge">
<title>Node14&#45;&gt;Node17</title>
<path fill="none" stroke="#191970" d="M987.574,-56.2455C991.9331,-48.617 998.1211,-37.7881 1003.4133,-28.5267"/>
<polygon fill="#191970" stroke="#191970" points="1006.5673,-30.0616 1008.4899,-19.6427 1000.4896,-26.5886 1006.5673,-30.0616"/>
</g>
<!-- Node18&#45;&gt;Node9 -->
<g id="edge20" class="edge">
<title>Node18&#45;&gt;Node9</title>
<path fill="none" stroke="#191970" d="M550.435,-171.8468C442.2627,-160.4816 213.5325,-136.4499 118.6431,-126.4803"/>
<polygon fill="#191970" stroke="#191970" points="118.8603,-122.984 108.5493,-125.4198 118.1288,-129.9457 118.8603,-122.984"/>
</g>
<!-- Node19 -->
<g id="node20" class="node">
<title>Node19</title>
<g id="a_node20"><a xlink:href="Observer_8hxx.html" target="_top" xlink:title="../util/Observer.hxx">
<polygon fill="none" stroke="#000000" points="554.5,-112.5 554.5,-131.5 663.5,-131.5 663.5,-112.5 554.5,-112.5"/>
<text text-anchor="middle" x="609" y="-119.5" font-family="Helvetica,sans-Serif" font-size="10.00" fill="#000000">../util/Observer.hxx</text>
</a>
</g>
</g>
<!-- Node18&#45;&gt;Node19 -->
<g id="edge21" class="edge">
<title>Node18&#45;&gt;Node19</title>
<path fill="none" stroke="#191970" d="M609,-168.2455C609,-160.9382 609,-150.6944 609,-141.7046"/>
<polygon fill="#191970" stroke="#191970" points="612.5001,-141.6426 609,-131.6427 605.5001,-141.6427 612.5001,-141.6426"/>
</g>
<!-- Node19&#45;&gt;Node8 -->
<g id="edge22" class="edge">
<title>Node19&#45;&gt;Node8</title>
<path fill="none" stroke="#191970" d="M595.2393,-112.2455C583.3448,-103.814 565.935,-91.4729 552.0915,-81.6598"/>
<polygon fill="#191970" stroke="#191970" points="553.7854,-78.5704 543.6031,-75.6427 549.7372,-84.2811 553.7854,-78.5704"/>
</g>
<!-- Node19&#45;&gt;Node14 -->
<g id="edge24" class="edge">
<title>Node19&#45;&gt;Node14</title>
<path fill="none" stroke="#191970" d="M663.6369,-113.7971C735.7175,-102.9754 861.6015,-84.0759 931.5336,-73.5767"/>
<polygon fill="#191970" stroke="#191970" points="932.4767,-76.9744 941.8462,-72.0284 931.4374,-70.052 932.4767,-76.9744"/>
</g>
<!-- Node20 -->
<g id="node21" class="node">
<title>Node20</title>
<polygon fill="none" stroke="#bfbfbf" points="580,-56.5 580,-75.5 638,-75.5 638,-56.5 580,-56.5"/>
<text text-anchor="middle" x="609" y="-63.5" font-family="Helvetica,sans-Serif" font-size="10.00" fill="#000000">memory</text>
</g>
<!-- Node19&#45;&gt;Node20 -->
<g id="edge23" class="edge">
<title>Node19&#45;&gt;Node20</title>
<path fill="none" stroke="#191970" d="M609,-112.2455C609,-104.9382 609,-94.6944 609,-85.7046"/>
<polygon fill="#191970" stroke="#191970" points="612.5001,-85.6426 609,-75.6427 605.5001,-85.6427 612.5001,-85.6426"/>
</g>
<!-- Node22&#45;&gt;Node11 -->
<g id="edge28" class="edge">
<title>Node22&#45;&gt;Node11</title>
<path fill="none" stroke="#191970" d="M750.3378,-280.3733C718.4702,-270.9807 669.8469,-256.6496 635.093,-246.4064"/>
<polygon fill="#191970" stroke="#191970" points="635.8175,-242.9711 625.236,-243.5011 633.8385,-249.6855 635.8175,-242.9711"/>
</g>
<!-- Node23 -->
<g id="node24" class="node">
<title>Node23</title>
<g id="a_node24"><a xlink:href="GameService_8inl_8hxx.html" target="_top" xlink:title="GameService.inl.hxx">
<polygon fill="none" stroke="#000000" points="717,-224.5 717,-243.5 835,-243.5 835,-224.5 717,-224.5"/>
<text text-anchor="middle" x="776" y="-231.5" font-family="Helvetica,sans-Serif" font-size="10.00" fill="#000000">GameService.inl.hxx</text>
</a>
</g>
</g>
<!-- Node22&#45;&gt;Node23 -->
<g id="edge29" class="edge">
<title>Node22&#45;&gt;Node23</title>
<path fill="none" stroke="#191970" d="M781.7807,-280.2455C780.8673,-272.9382 779.5868,-262.6944 778.4631,-253.7046"/>
<polygon fill="#191970" stroke="#191970" points="781.9187,-253.1313 777.2053,-243.6427 774.9728,-253.9996 781.9187,-253.1313"/>
</g>
<!-- Node24&#45;&gt;Node22 -->
<g id="edge33" class="edge">
<title>Node24&#45;&gt;Node22</title>
<path fill="none" stroke="#191970" d="M1202.2658,-337.0034C1199.4745,-336.6611 1196.711,-336.3255 1194,-336 1070.0905,-321.1239 924.972,-305.2427 844.5671,-296.5791"/>
<polygon fill="#191970" stroke="#191970" points="844.9294,-293.098 834.6122,-295.5077 844.1803,-300.0578 844.9294,-293.098"/>
</g>
<!-- Node25 -->
<g id="node26" class="node">
<title>Node25</title>
<polygon fill="none" stroke="#bfbfbf" points="1197,-280.5 1197,-299.5 1251,-299.5 1251,-280.5 1197,-280.5"/>
<text text-anchor="middle" x="1224" y="-287.5" font-family="Helvetica,sans-Serif" font-size="10.00" fill="#000000">random</text>
</g>
<!-- Node24&#45;&gt;Node25 -->
<g id="edge31" class="edge">
<title>Node24&#45;&gt;Node25</title>
<path fill="none" stroke="#191970" d="M1263.639,-336.2455C1256.825,-328.2958 1247.0319,-316.8706 1238.8848,-307.3656"/>
<polygon fill="#191970" stroke="#191970" points="1241.4305,-304.9575 1232.2651,-299.6427 1236.1157,-309.513 1241.4305,-304.9575"/>
</g>
<!-- Node26 -->
<g id="node27" class="node">
<title>Node26</title>
<polygon fill="none" stroke="#bfbfbf" points="1269.5,-280.5 1269.5,-299.5 1322.5,-299.5 1322.5,-280.5 1269.5,-280.5"/>
<text text-anchor="middle" x="1296" y="-287.5" font-family="Helvetica,sans-Serif" font-size="10.00" fill="#000000">iterator</text>
</g>
<!-- Node24&#45;&gt;Node26 -->
<g id="edge32" class="edge">
<title>Node24&#45;&gt;Node26</title>
<path fill="none" stroke="#191970" d="M1276.1805,-336.2455C1279.381,-328.7776 1283.896,-318.2427 1287.8084,-309.1137"/>
<polygon fill="#191970" stroke="#191970" points="1291.1452,-310.2129 1291.8674,-299.6427 1284.7112,-307.4554 1291.1452,-310.2129"/>
</g>
<!-- Node24&#45;&gt;Node27 -->
<g id="edge34" class="edge">
<title>Node24&#45;&gt;Node27</title>
<path fill="none" stroke="#191970" d="M1289.0703,-336.2455C1304.247,-327.5731 1326.6621,-314.7645 1344.0563,-304.825"/>
<polygon fill="#191970" stroke="#191970" points="1346.1794,-307.643 1353.1253,-299.6427 1342.7064,-301.5653 1346.1794,-307.643"/>
</g>
<!-- Node27&#45;&gt;Node1 -->
<g id="edge39" class="edge">
<title>Node27&#45;&gt;Node1</title>
<path fill="none" stroke="#191970" d="M1340.625,-281.8855C1337.7219,-281.1994 1334.8106,-280.5564 1332,-280 1214.1067,-256.6627 1168.6664,-303.0627 1064,-244 971.5956,-191.8567 907.2571,-74.6421 884.7906,-28.8433"/>
<polygon fill="#191970" stroke="#191970" points="887.9014,-27.236 880.4176,-19.7365 881.5912,-30.2661 887.9014,-27.236"/>
</g>
<!-- Node27&#45;&gt;Node6 -->
<g id="edge46" class="edge">
<title>Node27&#45;&gt;Node6</title>
<path fill="none" stroke="#191970" d="M1340.665,-281.6611C1337.7538,-281.0204 1334.8297,-280.4493 1332,-280 1060.992,-236.9664 983.3948,-291.2642 709.593,-243.8846"/>
<polygon fill="#191970" stroke="#191970" points="709.8071,-240.3685 699.3516,-242.0811 708.593,-247.2624 709.8071,-240.3685"/>
</g>
<!-- Node27&#45;&gt;Node12 -->
<g id="edge35" class="edge">
<title>Node27&#45;&gt;Node12</title>
<path fill="none" stroke="#191970" d="M1340.6333,-281.8428C1337.7285,-281.1653 1334.8146,-280.536 1332,-280 1199.6473,-254.7957 1160.5881,-280.8703 1031,-244 1010.7274,-238.2321 1007.4518,-232.1163 988,-224 957.0832,-211.0998 921.1306,-197.9627 895.9241,-189.0487"/>
<polygon fill="#191970" stroke="#191970" points="896.7535,-185.6304 886.1587,-185.6164 894.4324,-192.2344 896.7535,-185.6304"/>
</g>
<!-- Node27&#45;&gt;Node14 -->
<g id="edge47" class="edge">
<title>Node27&#45;&gt;Node14</title>
<path fill="none" stroke="#191970" d="M1340.7506,-282.2975C1313.3671,-274.5148 1271.7286,-261.1945 1238,-244 1142.9986,-195.5692 1042.622,-116.2768 1001.3935,-82.2942"/>
<polygon fill="#191970" stroke="#191970" points="1003.4473,-79.4503 993.5168,-75.7578 998.9772,-84.8372 1003.4473,-79.4503"/>
</g>
<!-- Node27&#45;&gt;Node28 -->
<g id="edge36" class="edge">
<title>Node27&#45;&gt;Node28</title>
<path fill="none" stroke="#191970" d="M1399.1297,-282.9076C1437.3062,-273.6124 1504.816,-257.1752 1550.9444,-245.944"/>
<polygon fill="#191970" stroke="#191970" points="1551.845,-249.327 1560.7331,-243.5606 1550.189,-242.5257 1551.845,-249.327"/>
</g>
<!-- Node31 -->
<g id="node32" class="node">
<title>Node31</title>
<polygon fill="none" stroke="#bfbfbf" points="929,-224.5 929,-243.5 979,-243.5 979,-224.5 929,-224.5"/>
<text text-anchor="middle" x="954" y="-231.5" font-family="Helvetica,sans-Serif" font-size="10.00" fill="#000000">chrono</text>
</g>
<!-- Node27&#45;&gt;Node31 -->
<g id="edge40" class="edge">
<title>Node27&#45;&gt;Node31</title>
<path fill="none" stroke="#191970" d="M1340.6406,-281.8037C1337.7343,-281.1341 1334.8181,-280.5173 1332,-280 1182.9766,-252.6419 1142.1091,-270.887 993,-244 991.7231,-243.7698 990.4263,-243.5203 989.1193,-243.2557"/>
<polygon fill="#191970" stroke="#191970" points="989.5813,-239.7723 979.0573,-240.9958 988.0473,-246.6022 989.5813,-239.7723"/>
</g>
<!-- Node32 -->
<g id="node33" class="node">
<title>Node32</title>
<polygon fill="none" stroke="#bfbfbf" points="1073,-224.5 1073,-243.5 1117,-243.5 1117,-224.5 1073,-224.5"/>
<text text-anchor="middle" x="1095" y="-231.5" font-family="Helvetica,sans-Serif" font-size="10.00" fill="#000000">ctime</text>
</g>
<!-- Node27&#45;&gt;Node32 -->
<g id="edge41" class="edge">
<title>Node27&#45;&gt;Node32</title>
<path fill="none" stroke="#191970" d="M1340.6003,-282.004C1337.7022,-281.2939 1334.7988,-280.6129 1332,-280 1241.636,-260.2118 1216.8898,-265.8415 1127,-244 1126.901,-243.976 1126.8019,-243.9518 1126.7026,-243.9274"/>
<polygon fill="#191970" stroke="#191970" points="1127.8446,-240.6109 1117.2766,-241.3646 1126.008,-247.3657 1127.8446,-240.6109"/>
</g>
<!-- Node33 -->
<g id="node34" class="node">
<title>Node33</title>
<polygon fill="none" stroke="#bfbfbf" points="1135.5,-224.5 1135.5,-243.5 1190.5,-243.5 1190.5,-224.5 1135.5,-224.5"/>
<text text-anchor="middle" x="1163" y="-231.5" font-family="Helvetica,sans-Serif" font-size="10.00" fill="#000000">fstream</text>
</g>
<!-- Node27&#45;&gt;Node33 -->
<g id="edge42" class="edge">
<title>Node27&#45;&gt;Node33</title>
<path fill="none" stroke="#191970" d="M1340.781,-282.0953C1304.0008,-272.1451 1240.7692,-255.039 1200.4691,-244.1366"/>
<polygon fill="#191970" stroke="#191970" points="1201.3144,-240.7395 1190.7474,-241.5065 1199.4864,-247.4966 1201.3144,-240.7395"/>
</g>
<!-- Node34 -->
<g id="node35" class="node">
<title>Node34</title>
<polygon fill="none" stroke="#bfbfbf" points="1247,-224.5 1247,-243.5 1303,-243.5 1303,-224.5 1247,-224.5"/>
<text text-anchor="middle" x="1275" y="-231.5" font-family="Helvetica,sans-Serif" font-size="10.00" fill="#000000">sstream</text>
</g>
<!-- Node27&#45;&gt;Node34 -->
<g id="edge43" class="edge">
<title>Node27&#45;&gt;Node34</title>
<path fill="none" stroke="#191970" d="M1353.4523,-280.2455C1338.7401,-271.5731 1317.0112,-258.7645 1300.1495,-248.825"/>
<polygon fill="#191970" stroke="#191970" points="1301.7502,-245.7057 1291.3581,-243.6427 1298.1954,-251.736 1301.7502,-245.7057"/>
</g>
<!-- Node35 -->
<g id="node36" class="node">
<title>Node35</title>
<polygon fill="none" stroke="#bfbfbf" points="1321,-224.5 1321,-243.5 1365,-243.5 1365,-224.5 1321,-224.5"/>
<text text-anchor="middle" x="1343" y="-231.5" font-family="Helvetica,sans-Serif" font-size="10.00" fill="#000000">SDL.h</text>
</g>
<!-- Node27&#45;&gt;Node35 -->
<g id="edge44" class="edge">
<title>Node27&#45;&gt;Node35</title>
<path fill="none" stroke="#191970" d="M1365.297,-280.2455C1361.6576,-272.6973 1356.5076,-262.0158 1352.0738,-252.8197"/>
<polygon fill="#191970" stroke="#191970" points="1355.1449,-251.1303 1347.6491,-243.6427 1348.8395,-254.1704 1355.1449,-251.1303"/>
</g>
<!-- Node36 -->
<g id="node37" class="node">
<title>Node36</title>
<polygon fill="none" stroke="#bfbfbf" points="1383,-224.5 1383,-243.5 1447,-243.5 1447,-224.5 1383,-224.5"/>
<text text-anchor="middle" x="1415" y="-231.5" font-family="Helvetica,sans-Serif" font-size="10.00" fill="#000000">algorithm</text>
</g>
<!-- Node27&#45;&gt;Node36 -->
<g id="edge45" class="edge">
<title>Node27&#45;&gt;Node36</title>
<path fill="none" stroke="#191970" d="M1377.8384,-280.2455C1384.162,-272.3761 1393.2224,-261.101 1400.8136,-251.6542"/>
<polygon fill="#191970" stroke="#191970" points="1403.7158,-253.6302 1407.2514,-243.6427 1398.2592,-249.2454 1403.7158,-253.6302"/>
</g>
<!-- Node37 -->
<g id="node38" class="node">
<title>Node37</title>
<g id="a_node38"><a xlink:href="LOG_8inl_8hxx.html" target="_top" xlink:title="LOG.inl.hxx">
<polygon fill="none" stroke="#000000" points="1465.5,-224.5 1465.5,-243.5 1538.5,-243.5 1538.5,-224.5 1465.5,-224.5"/>
<text text-anchor="middle" x="1502" y="-231.5" font-family="Helvetica,sans-Serif" font-size="10.00" fill="#000000">LOG.inl.hxx</text>
</a>
</g>
</g>
<!-- Node27&#45;&gt;Node37 -->
<g id="edge48" class="edge">
<title>Node27&#45;&gt;Node37</title>
<path fill="none" stroke="#191970" d="M1392.6916,-280.3733C1414.0711,-271.3032 1446.3057,-257.6279 1470.2362,-247.4755"/>
<polygon fill="#191970" stroke="#191970" points="1471.7656,-250.6287 1479.6045,-243.5011 1469.0317,-244.1846 1471.7656,-250.6287"/>
</g>
<!-- Node29 -->
<g id="node30" class="node">
<title>Node29</title>
<polygon fill="none" stroke="#bfbfbf" points="1489.5,-168.5 1489.5,-187.5 1554.5,-187.5 1554.5,-168.5 1489.5,-168.5"/>
<text text-anchor="middle" x="1522" y="-175.5" font-family="Helvetica,sans-Serif" font-size="10.00" fill="#000000">stdexcept</text>
</g>
<!-- Node28&#45;&gt;Node29 -->
<g id="edge37" class="edge">
<title>Node28&#45;&gt;Node29</title>
<path fill="none" stroke="#191970" d="M1586.4134,-224.2455C1574.6695,-215.814 1557.4801,-203.4729 1543.8118,-193.6598"/>
<polygon fill="#191970" stroke="#191970" points="1545.5954,-190.6316 1535.4309,-187.6427 1541.5129,-196.3179 1545.5954,-190.6316"/>
</g>
<!-- Node30 -->
<g id="node31" class="node">
<title>Node30</title>
<polygon fill="none" stroke="#bfbfbf" points="1572.5,-168.5 1572.5,-187.5 1637.5,-187.5 1637.5,-168.5 1572.5,-168.5"/>
<text text-anchor="middle" x="1605" y="-175.5" font-family="Helvetica,sans-Serif" font-size="10.00" fill="#000000">exception</text>
</g>
<!-- Node28&#45;&gt;Node30 -->
<g id="edge38" class="edge">
<title>Node28&#45;&gt;Node30</title>
<path fill="none" stroke="#191970" d="M1600.8709,-224.2455C1601.5234,-216.9382 1602.438,-206.6944 1603.2407,-197.7046"/>
<polygon fill="#191970" stroke="#191970" points="1606.7358,-197.9143 1604.139,-187.6427 1599.7635,-197.2918 1606.7358,-197.9143"/>
</g>
<!-- Node38&#45;&gt;Node6 -->
<g id="edge53" class="edge">
<title>Node38&#45;&gt;Node6</title>
<path fill="none" stroke="#191970" d="M595.1179,-336.3755C599.7813,-322.899 609.4919,-298.036 623,-280 631.4673,-268.6945 643.079,-258.1003 653.1821,-249.9352"/>
<polygon fill="#191970" stroke="#191970" points="655.4699,-252.5897 661.2116,-243.6856 651.1704,-247.0657 655.4699,-252.5897"/>
</g>
<!-- Node38&#45;&gt;Node9 -->
<g id="edge54" class="edge">
<title>Node38&#45;&gt;Node9</title>
<path fill="none" stroke="#191970" d="M523.2936,-342.6813C396.8191,-334.9885 134.9404,-311.1532 79,-244 54.9246,-215.0989 62.7995,-167.6073 69.8881,-141.211"/>
<polygon fill="#191970" stroke="#191970" points="73.2496,-142.1855 72.6877,-131.6056 66.5293,-140.2268 73.2496,-142.1855"/>
</g>
<!-- Node38&#45;&gt;Node22 -->
<g id="edge55" class="edge">
<title>Node38&#45;&gt;Node22</title>
<path fill="none" stroke="#191970" d="M624.8341,-336.3733C656.8695,-326.9807 705.7487,-312.6496 740.6855,-302.4064"/>
<polygon fill="#191970" stroke="#191970" points="741.9831,-305.6733 750.5944,-299.5011 740.0136,-298.9561 741.9831,-305.6733"/>
</g>
<!-- Node38&#45;&gt;Node31 -->
<g id="edge52" class="edge">
<title>Node38&#45;&gt;Node31</title>
<path fill="none" stroke="#191970" d="M598.1485,-336.474C608.2617,-321.6796 629.9097,-293.4825 656,-280 678.9943,-268.1174 844.3175,-247.1402 918.3327,-238.2124"/>
<polygon fill="#191970" stroke="#191970" points="919.0507,-241.6515 928.5626,-236.9852 918.2169,-234.7013 919.0507,-241.6515"/>
</g>
<!-- Node39 -->
<g id="node40" class="node">
<title>Node39</title>
<polygon fill="none" stroke="#bfbfbf" points="396.5,-280.5 396.5,-299.5 443.5,-299.5 443.5,-280.5 396.5,-280.5"/>
<text text-anchor="middle" x="420" y="-287.5" font-family="Helvetica,sans-Serif" font-size="10.00" fill="#000000">queue</text>
</g>
<!-- Node38&#45;&gt;Node39 -->
<g id="edge50" class="edge">
<title>Node38&#45;&gt;Node39</title>
<path fill="none" stroke="#191970" d="M562.4321,-336.3733C532.0978,-326.4969 484.9925,-311.1603 453.3479,-300.8575"/>
<polygon fill="#191970" stroke="#191970" points="454.2501,-297.4704 443.6578,-297.7026 452.083,-304.1265 454.2501,-297.4704"/>
</g>
<!-- Node38&#45;&gt;Node40 -->
<g id="edge51" class="edge">
<title>Node38&#45;&gt;Node40</title>
<path fill="none" stroke="#191970" d="M608.8961,-336.2455C623.918,-327.5731 646.1043,-314.7645 663.321,-304.825"/>
<polygon fill="#191970" stroke="#191970" points="665.3871,-307.6737 672.2975,-299.6427 661.8872,-301.6114 665.3871,-307.6737"/>
</g>
<!-- Node41 -->
<g id="node42" class="node">
<title>Node41</title>
<g id="a_node42"><a xlink:href="GameClock_8inl_8hxx.html" target="_top" xlink:title="GameClock.inl.hxx">
<polygon fill="none" stroke="#000000" points="461.5,-280.5 461.5,-299.5 570.5,-299.5 570.5,-280.5 461.5,-280.5"/>
<text text-anchor="middle" x="516" y="-287.5" font-family="Helvetica,sans-Serif" font-size="10.00" fill="#000000">GameClock.inl.hxx</text>
</a>
</g>
</g>
<!-- Node38&#45;&gt;Node41 -->
<g id="edge56" class="edge">
<title>Node38&#45;&gt;Node41</title>
<path fill="none" stroke="#191970" d="M573.495,-336.2455C560.673,-327.9746 544.0353,-315.9416 531.8286,-306.2232"/>
<polygon fill="#191970" stroke="#191970" points="533.7849,-303.3001 523.8413,-299.6427 529.3338,-308.7027 533.7849,-303.3001"/>
</g>
<!-- Node41&#45;&gt;Node38 -->
<g id="edge57" class="edge">
<title>Node41&#45;&gt;Node38</title>
<path fill="none" stroke="#191970" d="M534.3316,-299.6427C547.1189,-307.8795 563.7593,-319.9058 576.0058,-329.645"/>
<polygon fill="#191970" stroke="#191970" points="574.0826,-332.595 584.0287,-336.2455 578.5299,-327.1893 574.0826,-332.595"/>
</g>
<!-- Node42&#45;&gt;Node12 -->
<g id="edge60" class="edge">
<title>Node42&#45;&gt;Node12</title>
<path fill="none" stroke="#191970" d="M1040.525,-336.4974C981.0986,-326.6093 897.7769,-311.0541 887,-300 860.4062,-272.7221 859.5707,-224.9546 861.6021,-197.9939"/>
<polygon fill="#191970" stroke="#191970" points="865.1057,-198.1233 862.5814,-187.8336 858.138,-197.4517 865.1057,-198.1233"/>
</g>
<!-- Node42&#45;&gt;Node14 -->
<g id="edge62" class="edge">
<title>Node42&#45;&gt;Node14</title>
<path fill="none" stroke="#191970" d="M1028.3958,-336.4927C984.5571,-329.1093 934.6067,-317.202 921,-300 868.3455,-233.4326 936.8969,-126.0706 968.0566,-83.8603"/>
<polygon fill="#191970" stroke="#191970" points="971.0141,-85.7518 974.2491,-75.6629 965.4287,-81.5324 971.0141,-85.7518"/>
</g>
<!-- Node42&#45;&gt;Node22 -->
<g id="edge61" class="edge">
<title>Node42&#45;&gt;Node22</title>
<path fill="none" stroke="#191970" d="M1046.6952,-336.4369C990.6026,-326.559 903.2162,-311.1701 844.5843,-300.845"/>
<polygon fill="#191970" stroke="#191970" points="845.1644,-297.3934 834.7089,-299.106 843.9503,-304.2873 845.1644,-297.3934"/>
</g>
<!-- Node43 -->
<g id="node44" class="node">
<title>Node43</title>
<polygon fill="none" stroke="#bfbfbf" points="929.5,-280.5 929.5,-299.5 1022.5,-299.5 1022.5,-280.5 929.5,-280.5"/>
<text text-anchor="middle" x="976" y="-287.5" font-family="Helvetica,sans-Serif" font-size="10.00" fill="#000000">unordered_map</text>
</g>
<!-- Node42&#45;&gt;Node43 -->
<g id="edge59" class="edge">
<title>Node42&#45;&gt;Node43</title>
<path fill="none" stroke="#191970" d="M1079.5117,-336.3733C1059.356,-327.3435 1029.012,-313.7494 1006.382,-303.6111"/>
<polygon fill="#191970" stroke="#191970" points="1007.7649,-300.3955 997.2079,-299.5011 1004.9029,-306.7838 1007.7649,-300.3955"/>
</g>
<!-- Node44 -->
<g id="node45" class="node">
<title>Node44</title>
<g id="a_node45"><a xlink:href="ResourceManager_8inl_8hxx.html" target="_top" xlink:title="ResourceManager.inl.hxx">
<polygon fill="none" stroke="#000000" points="1041,-280.5 1041,-299.5 1179,-299.5 1179,-280.5 1041,-280.5"/>
<text text-anchor="middle" x="1110" y="-287.5" font-family="Helvetica,sans-Serif" font-size="10.00" fill="#000000">ResourceManager.inl.hxx</text>
</a>
</g>
</g>
<!-- Node42&#45;&gt;Node44 -->
<g id="edge63" class="edge">
<title>Node42&#45;&gt;Node44</title>
<path fill="none" stroke="#191970" d="M1102.5677,-336.2455C1103.7421,-328.9382 1105.3884,-318.6944 1106.8332,-309.7046"/>
<polygon fill="#191970" stroke="#191970" points="1110.3191,-310.0714 1108.4503,-299.6427 1103.4078,-308.9606 1110.3191,-310.0714"/>
</g>
</g>
</svg>
