<?xml version="1.0" encoding="UTF-8" standalone="no"?>
<!DOCTYPE svg PUBLIC "-//W3C//DTD SVG 1.1//EN"
 "http://www.w3.org/Graphics/SVG/1.1/DTD/svg11.dtd">
<!-- Generated by graphviz version 2.40.1 (20161225.0304)
 -->
<!-- Title: src/engine/GameObjects/MapNode.cxx Pages: 1 -->
<svg width="2008pt" height="319pt"
 viewBox="0.00 0.00 2008.01 319.00" xmlns="http://www.w3.org/2000/svg" xmlns:xlink="http://www.w3.org/1999/xlink">
<g id="graph0" class="graph" transform="scale(1 1) rotate(0) translate(4 315)">
<title>src/engine/GameObjects/MapNode.cxx</title>
<!-- Node0 -->
<g id="node1" class="node">
<title>Node0</title>
<polygon fill="#bfbfbf" stroke="#000000" points="785.0086,-280.5 785.0086,-310.5 921.0086,-310.5 921.0086,-280.5 785.0086,-280.5"/>
<text text-anchor="start" x="793.0086" y="-298.5" font-family="Helvetica,sans-Serif" font-size="10.00" fill="#000000">src/engine/GameObjects</text>
<text text-anchor="middle" x="853.0086" y="-287.5" font-family="Helvetica,sans-Serif" font-size="10.00" fill="#000000">/MapNode.cxx</text>
</g>
<!-- Node1 -->
<g id="node2" class="node">
<title>Node1</title>
<polygon fill="none" stroke="#bfbfbf" points="164.5086,-224.5 164.5086,-243.5 213.5086,-243.5 213.5086,-224.5 164.5086,-224.5"/>
<text text-anchor="middle" x="189.0086" y="-231.5" font-family="Helvetica,sans-Serif" font-size="10.00" fill="#000000">cstdlib</text>
</g>
<!-- Node0&#45;&gt;Node1 -->
<g id="edge1" class="edge">
<title>Node0&#45;&gt;Node1</title>
<path fill="none" stroke="#191970" d="M784.5656,-293.6354C669.0859,-289.6486 428.5167,-277.7189 228.0086,-244 226.5439,-243.7537 225.0535,-243.4793 223.552,-243.1833"/>
<polygon fill="#191970" stroke="#191970" points="224.1524,-239.7315 213.6317,-240.9828 222.6364,-246.5654 224.1524,-239.7315"/>
</g>
<!-- Node2 -->
<g id="node3" class="node">
<title>Node2</title>
<g id="a_node3"><a xlink:href="MapNode_8hxx.html" target="_top" xlink:title="MapNode.hxx">
<polygon fill="none" stroke="#000000" points="694.5086,-224.5 694.5086,-243.5 777.5086,-243.5 777.5086,-224.5 694.5086,-224.5"/>
<text text-anchor="middle" x="736.0086" y="-231.5" font-family="Helvetica,sans-Serif" font-size="10.00" fill="#000000">MapNode.hxx</text>
</a>
</g>
</g>
<!-- Node0&#45;&gt;Node2 -->
<g id="edge2" class="edge">
<title>Node0&#45;&gt;Node2</title>
<path fill="none" stroke="#191970" d="M824.3872,-280.4554C805.7217,-270.644 781.5088,-257.9167 763.1475,-248.2653"/>
<polygon fill="#191970" stroke="#191970" points="764.6196,-245.0851 754.1395,-243.5303 761.3627,-251.2812 764.6196,-245.0851"/>
</g>
<!-- Node19 -->
<g id="node20" class="node">
<title>Node19</title>
<g id="a_node20"><a xlink:href="LOG_8hxx.html" target="_top" xlink:title="LOG.hxx">
<polygon fill="none" stroke="#000000" points="1513.0086,-168.5 1513.0086,-187.5 1571.0086,-187.5 1571.0086,-168.5 1513.0086,-168.5"/>
<text text-anchor="middle" x="1542.0086" y="-175.5" font-family="Helvetica,sans-Serif" font-size="10.00" fill="#000000">LOG.hxx</text>
</a>
</g>
</g>
<!-- Node0&#45;&gt;Node19 -->
<g id="edge28" class="edge">
<title>Node0&#45;&gt;Node19</title>
<path fill="none" stroke="#191970" d="M921.2746,-283.8581C1064.013,-259.516 1390.1158,-203.9033 1502.8276,-184.6818"/>
<polygon fill="#191970" stroke="#191970" points="1503.4784,-188.1215 1512.7477,-182.9901 1502.3016,-181.2211 1503.4784,-188.1215"/>
</g>
<!-- Node34 -->
<g id="node35" class="node">
<title>Node34</title>
<g id="a_node35"><a xlink:href="MapLayers_8hxx.html" target="_top" xlink:title="../map/MapLayers.hxx">
<polygon fill="none" stroke="#000000" points="17.0086,-112.5 17.0086,-131.5 141.0086,-131.5 141.0086,-112.5 17.0086,-112.5"/>
<text text-anchor="middle" x="79.0086" y="-119.5" font-family="Helvetica,sans-Serif" font-size="10.00" fill="#000000">../map/MapLayers.hxx</text>
</a>
</g>
</g>
<!-- Node0&#45;&gt;Node34 -->
<g id="edge47" class="edge">
<title>Node0&#45;&gt;Node34</title>
<path fill="none" stroke="#191970" d="M784.7095,-286.9062C673.6554,-272.0863 447.5738,-238.3821 261.0086,-188 207.3244,-173.5025 147.0141,-150.1777 111.0643,-135.4903"/>
<polygon fill="#191970" stroke="#191970" points="112.1757,-132.1629 101.5963,-131.5913 109.5101,-138.6356 112.1757,-132.1629"/>
</g>
<!-- Node35 -->
<g id="node36" class="node">
<title>Node35</title>
<g id="a_node36"><a xlink:href="GameStates_8hxx.html" target="_top" xlink:title="GameStates.hxx">
<polygon fill="none" stroke="#000000" points="996.0086,-168.5 996.0086,-187.5 1094.0086,-187.5 1094.0086,-168.5 996.0086,-168.5"/>
<text text-anchor="middle" x="1045.0086" y="-175.5" font-family="Helvetica,sans-Serif" font-size="10.00" fill="#000000">GameStates.hxx</text>
</a>
</g>
</g>
<!-- Node0&#45;&gt;Node35 -->
<g id="edge50" class="edge">
<title>Node0&#45;&gt;Node35</title>
<path fill="none" stroke="#191970" d="M877.7162,-280.3795C914.6903,-257.7521 983.9877,-215.3435 1020.7174,-192.8657"/>
<polygon fill="#191970" stroke="#191970" points="1022.6117,-195.8099 1029.3143,-187.6046 1018.9578,-189.8392 1022.6117,-195.8099"/>
</g>
<!-- Node36 -->
<g id="node37" class="node">
<title>Node36</title>
<g id="a_node37"><a xlink:href="Settings_8hxx.html" target="_top" xlink:title="Settings.hxx">
<polygon fill="none" stroke="#000000" points="1118.5086,-168.5 1118.5086,-187.5 1195.5086,-187.5 1195.5086,-168.5 1118.5086,-168.5"/>
<text text-anchor="middle" x="1157.0086" y="-175.5" font-family="Helvetica,sans-Serif" font-size="10.00" fill="#000000">Settings.hxx</text>
</a>
</g>
</g>
<!-- Node0&#45;&gt;Node36 -->
<g id="edge54" class="edge">
<title>Node0&#45;&gt;Node36</title>
<path fill="none" stroke="#191970" d="M891.8192,-280.4992C951.6158,-257.3871 1065.3297,-213.4351 1122.4483,-191.358"/>
<polygon fill="#191970" stroke="#191970" points="1124.0351,-194.4971 1132.1008,-187.6272 1121.5114,-187.9678 1124.0351,-194.4971"/>
</g>
<!-- Node3 -->
<g id="node4" class="node">
<title>Node3</title>
<polygon fill="none" stroke="#bfbfbf" points="349.0086,-112.5 349.0086,-131.5 393.0086,-131.5 393.0086,-112.5 349.0086,-112.5"/>
<text text-anchor="middle" x="371.0086" y="-119.5" font-family="Helvetica,sans-Serif" font-size="10.00" fill="#000000">SDL.h</text>
</g>
<!-- Node2&#45;&gt;Node3 -->
<g id="edge3" class="edge">
<title>Node2&#45;&gt;Node3</title>
<path fill="none" stroke="#191970" d="M704.7718,-224.4963C645.7729,-206.5318 513.9121,-166.3136 403.0086,-132 402.9079,-131.9688 402.8069,-131.9376 402.7058,-131.9063"/>
<polygon fill="#191970" stroke="#191970" points="403.6257,-128.5271 393.0375,-128.9019 401.5484,-135.2118 403.6257,-128.5271"/>
</g>
<!-- Node4 -->
<g id="node5" class="node">
<title>Node4</title>
<polygon fill="none" stroke="#bfbfbf" points="920.0086,-168.5 920.0086,-187.5 978.0086,-187.5 978.0086,-168.5 920.0086,-168.5"/>
<text text-anchor="middle" x="949.0086" y="-175.5" font-family="Helvetica,sans-Serif" font-size="10.00" fill="#000000">memory</text>
</g>
<!-- Node2&#45;&gt;Node4 -->
<g id="edge4" class="edge">
<title>Node2&#45;&gt;Node4</title>
<path fill="none" stroke="#191970" d="M772.6247,-224.3733C810.9217,-214.3046 870.8044,-198.5607 909.9796,-188.2612"/>
<polygon fill="#191970" stroke="#191970" points="910.9301,-191.6303 919.7114,-185.7026 909.1501,-184.8604 910.9301,-191.6303"/>
</g>
<!-- Node5 -->
<g id="node6" class="node">
<title>Node5</title>
<polygon fill="none" stroke="#bfbfbf" points="1010.0086,-56.5 1010.0086,-75.5 1054.0086,-75.5 1054.0086,-56.5 1010.0086,-56.5"/>
<text text-anchor="middle" x="1032.0086" y="-63.5" font-family="Helvetica,sans-Serif" font-size="10.00" fill="#000000">string</text>
</g>
<!-- Node2&#45;&gt;Node5 -->
<g id="edge5" class="edge">
<title>Node2&#45;&gt;Node5</title>
<path fill="none" stroke="#191970" d="M756.0963,-224.3395C774.6736,-215.2893 802.961,-201.2133 827.0086,-188 893.5977,-151.4119 970.0242,-104.6116 1007.9931,-81.0247"/>
<polygon fill="#191970" stroke="#191970" points="1010.1491,-83.8053 1016.7882,-75.5486 1006.4492,-77.863 1010.1491,-83.8053"/>
</g>
<!-- Node6 -->
<g id="node7" class="node">
<title>Node6</title>
<polygon fill="none" stroke="#bfbfbf" points="1240.0086,-112.5 1240.0086,-131.5 1304.0086,-131.5 1304.0086,-112.5 1240.0086,-112.5"/>
<text text-anchor="middle" x="1272.0086" y="-119.5" font-family="Helvetica,sans-Serif" font-size="10.00" fill="#000000">algorithm</text>
</g>
<!-- Node2&#45;&gt;Node6 -->
<g id="edge6" class="edge">
<title>Node2&#45;&gt;Node6</title>
<path fill="none" stroke="#191970" d="M777.5801,-233.4427C877.7239,-231.5434 1129.6146,-223.2938 1205.0086,-188 1227.7539,-177.3524 1247.3539,-155.6738 1259.3772,-140.0635"/>
<polygon fill="#191970" stroke="#191970" points="1262.4254,-141.8273 1265.5473,-131.7028 1256.7931,-137.6707 1262.4254,-141.8273"/>
</g>
<!-- Node7 -->
<g id="node8" class="node">
<title>Node7</title>
<polygon fill="none" stroke="#bfbfbf" points="157.5086,-56.5 157.5086,-75.5 204.5086,-75.5 204.5086,-56.5 157.5086,-56.5"/>
<text text-anchor="middle" x="181.0086" y="-63.5" font-family="Helvetica,sans-Serif" font-size="10.00" fill="#000000">vector</text>
</g>
<!-- Node2&#45;&gt;Node7 -->
<g id="edge7" class="edge">
<title>Node2&#45;&gt;Node7</title>
<path fill="none" stroke="#191970" d="M694.2573,-231.4282C546.0039,-221.8623 51.4288,-186.0819 8.0086,-132 -30.7215,-83.7598 86.5428,-70.7503 147.154,-67.264"/>
<polygon fill="#191970" stroke="#191970" points="147.6069,-70.7454 157.4128,-66.7335 147.2453,-63.7547 147.6069,-70.7454"/>
</g>
<!-- Node8 -->
<g id="node9" class="node">
<title>Node8</title>
<g id="a_node9"><a xlink:href="Sprite_8hxx.html" target="_top" xlink:title="../Sprite.hxx">
<polygon fill="none" stroke="#000000" points="308.5086,-168.5 308.5086,-187.5 383.5086,-187.5 383.5086,-168.5 308.5086,-168.5"/>
<text text-anchor="middle" x="346.0086" y="-175.5" font-family="Helvetica,sans-Serif" font-size="10.00" fill="#000000">../Sprite.hxx</text>
</a>
</g>
</g>
<!-- Node2&#45;&gt;Node8 -->
<g id="edge8" class="edge">
<title>Node2&#45;&gt;Node8</title>
<path fill="none" stroke="#191970" d="M694.2718,-228.007C621.2108,-217.5162 470.6068,-195.891 393.6091,-184.8349"/>
<polygon fill="#191970" stroke="#191970" points="394.0928,-181.3686 383.6968,-183.4116 393.0978,-188.2975 394.0928,-181.3686"/>
</g>
<!-- Node9 -->
<g id="node10" class="node">
<title>Node9</title>
<g id="a_node10"><a xlink:href="point_8hxx.html" target="_top" xlink:title="basics/point.hxx">
<polygon fill="none" stroke="#000000" points="159.0086,-112.5 159.0086,-131.5 255.0086,-131.5 255.0086,-112.5 159.0086,-112.5"/>
<text text-anchor="middle" x="207.0086" y="-119.5" font-family="Helvetica,sans-Serif" font-size="10.00" fill="#000000">basics/point.hxx</text>
</a>
</g>
</g>
<!-- Node2&#45;&gt;Node9 -->
<g id="edge16" class="edge">
<title>Node2&#45;&gt;Node9</title>
<path fill="none" stroke="#191970" d="M694.1908,-232.2855C599.5383,-227.972 371.5691,-215.0298 300.0086,-188 270.7218,-176.9378 242.1328,-154.3607 224.5532,-138.7142"/>
<polygon fill="#191970" stroke="#191970" points="226.5939,-135.8375 216.8528,-131.6708 221.8694,-141.0027 226.5939,-135.8375"/>
</g>
<!-- Node10 -->
<g id="node11" class="node">
<title>Node10</title>
<g id="a_node11"><a xlink:href="enums_8hxx.html" target="_top" xlink:title="common/enums.hxx">
<polygon fill="none" stroke="#000000" points="392.0086,-56.5 392.0086,-75.5 508.0086,-75.5 508.0086,-56.5 392.0086,-56.5"/>
<text text-anchor="middle" x="450.0086" y="-63.5" font-family="Helvetica,sans-Serif" font-size="10.00" fill="#000000">common/enums.hxx</text>
</a>
</g>
</g>
<!-- Node2&#45;&gt;Node10 -->
<g id="edge15" class="edge">
<title>Node2&#45;&gt;Node10</title>
<path fill="none" stroke="#191970" d="M753.0143,-224.4486C788.4631,-203.3855 864.1546,-151.6696 829.0086,-112 808.7768,-89.164 621.6019,-75.3816 518.085,-69.4422"/>
<polygon fill="#191970" stroke="#191970" points="518.2126,-65.9439 508.0313,-68.8749 517.8182,-72.9328 518.2126,-65.9439"/>
</g>
<!-- Node13 -->
<g id="node14" class="node">
<title>Node13</title>
<g id="a_node14"><a xlink:href="TileManager_8hxx.html" target="_top" xlink:title="../TileManager.hxx">
<polygon fill="none" stroke="#000000" points="623.0086,-168.5 623.0086,-187.5 729.0086,-187.5 729.0086,-168.5 623.0086,-168.5"/>
<text text-anchor="middle" x="676.0086" y="-175.5" font-family="Helvetica,sans-Serif" font-size="10.00" fill="#000000">../TileManager.hxx</text>
</a>
</g>
</g>
<!-- Node2&#45;&gt;Node13 -->
<g id="edge17" class="edge">
<title>Node2&#45;&gt;Node13</title>
<path fill="none" stroke="#191970" d="M725.5574,-224.2455C716.7818,-216.0549 704.0532,-204.1749 693.6946,-194.5069"/>
<polygon fill="#191970" stroke="#191970" points="696.0388,-191.9072 686.3401,-187.6427 691.2625,-197.0246 696.0388,-191.9072"/>
</g>
<!-- Node8&#45;&gt;Node3 -->
<g id="edge9" class="edge">
<title>Node8&#45;&gt;Node3</title>
<path fill="none" stroke="#191970" d="M350.3633,-168.2455C353.7331,-160.6973 358.5016,-150.0158 362.607,-140.8197"/>
<polygon fill="#191970" stroke="#191970" points="365.8233,-142.2009 366.7039,-131.6427 359.4313,-139.3473 365.8233,-142.2009"/>
</g>
<!-- Node8&#45;&gt;Node7 -->
<g id="edge10" class="edge">
<title>Node8&#45;&gt;Node7</title>
<path fill="none" stroke="#191970" d="M335.3284,-168.407C320.1025,-154.9678 291.0038,-130.1488 264.0086,-112 246.5221,-100.2438 225.7912,-88.7527 209.4223,-80.1963"/>
<polygon fill="#191970" stroke="#191970" points="210.8384,-76.9886 200.3462,-75.5176 207.631,-83.2106 210.8384,-76.9886"/>
</g>
<!-- Node8&#45;&gt;Node9 -->
<g id="edge11" class="edge">
<title>Node8&#45;&gt;Node9</title>
<path fill="none" stroke="#191970" d="M322.1137,-168.3733C299.5004,-159.2629 265.3545,-145.5062 240.1214,-135.3404"/>
<polygon fill="#191970" stroke="#191970" points="241.1753,-131.9917 230.5918,-131.5011 238.5594,-138.4845 241.1753,-131.9917"/>
</g>
<!-- Node8&#45;&gt;Node10 -->
<g id="edge12" class="edge">
<title>Node8&#45;&gt;Node10</title>
<path fill="none" stroke="#191970" d="M341.5163,-168.1003C335.9935,-154.2967 328.6594,-129.0477 340.0086,-112 350.5584,-96.1532 367.725,-85.7555 385.3927,-78.9369"/>
<polygon fill="#191970" stroke="#191970" points="386.9335,-82.1062 395.2207,-75.5052 384.6259,-75.4975 386.9335,-82.1062"/>
</g>
<!-- Node11 -->
<g id="node12" class="node">
<title>Node11</title>
<polygon fill="none" stroke="#bfbfbf" points="374.0086,-.5 374.0086,-19.5 430.0086,-19.5 430.0086,-.5 374.0086,-.5"/>
<text text-anchor="middle" x="402.0086" y="-7.5" font-family="Helvetica,sans-Serif" font-size="10.00" fill="#000000">stddef.h</text>
</g>
<!-- Node10&#45;&gt;Node11 -->
<g id="edge13" class="edge">
<title>Node10&#45;&gt;Node11</title>
<path fill="none" stroke="#191970" d="M441.6477,-56.2455C434.8336,-48.2958 425.0406,-36.8706 416.8934,-27.3656"/>
<polygon fill="#191970" stroke="#191970" points="419.4392,-24.9575 410.2738,-19.6427 414.1243,-29.513 419.4392,-24.9575"/>
</g>
<!-- Node12 -->
<g id="node13" class="node">
<title>Node12</title>
<polygon fill="none" stroke="#bfbfbf" points="448.0086,-.5 448.0086,-19.5 548.0086,-19.5 548.0086,-.5 448.0086,-.5"/>
<text text-anchor="middle" x="498.0086" y="-7.5" font-family="Helvetica,sans-Serif" font-size="10.00" fill="#000000">betterEnums.hxx</text>
</g>
<!-- Node10&#45;&gt;Node12 -->
<g id="edge14" class="edge">
<title>Node10&#45;&gt;Node12</title>
<path fill="none" stroke="#191970" d="M458.3696,-56.2455C465.1837,-48.2958 474.9767,-36.8706 483.1239,-27.3656"/>
<polygon fill="#191970" stroke="#191970" points="485.893,-29.513 489.7435,-19.6427 480.5781,-24.9575 485.893,-29.513"/>
</g>
<!-- Node13&#45;&gt;Node3 -->
<g id="edge18" class="edge">
<title>Node13&#45;&gt;Node3</title>
<path fill="none" stroke="#191970" d="M622.9893,-171.2439C567.6673,-163.6878 478.6169,-150.095 403.0086,-132 402.9096,-131.9763 402.8104,-131.9524 402.711,-131.9284"/>
<polygon fill="#191970" stroke="#191970" points="403.8469,-128.6098 393.2804,-129.3847 402.0238,-135.3683 403.8469,-128.6098"/>
</g>
<!-- Node13&#45;&gt;Node5 -->
<g id="edge20" class="edge">
<title>Node13&#45;&gt;Node5</title>
<path fill="none" stroke="#191970" d="M708.6058,-168.4285C739.625,-159.2661 787.5802,-144.9607 829.0086,-132 889.6889,-113.0165 960.211,-89.8345 1000.1297,-76.6077"/>
<polygon fill="#191970" stroke="#191970" points="1001.4425,-79.8598 1009.8319,-73.3892 999.2385,-73.2159 1001.4425,-79.8598"/>
</g>
<!-- Node14 -->
<g id="node15" class="node">
<title>Node14</title>
<polygon fill="none" stroke="#bfbfbf" points="726.5086,-112.5 726.5086,-131.5 819.5086,-131.5 819.5086,-112.5 726.5086,-112.5"/>
<text text-anchor="middle" x="773.0086" y="-119.5" font-family="Helvetica,sans-Serif" font-size="10.00" fill="#000000">unordered_map</text>
</g>
<!-- Node13&#45;&gt;Node14 -->
<g id="edge19" class="edge">
<title>Node13&#45;&gt;Node14</title>
<path fill="none" stroke="#191970" d="M692.9048,-168.2455C707.9266,-159.5731 730.113,-146.7645 747.3297,-136.825"/>
<polygon fill="#191970" stroke="#191970" points="749.3957,-139.6737 756.3062,-131.6427 745.8958,-133.6114 749.3957,-139.6737"/>
</g>
<!-- Node15 -->
<g id="node16" class="node">
<title>Node15</title>
<g id="a_node16"><a xlink:href="tileData_8hxx.html" target="_top" xlink:title="tileData.hxx">
<polygon fill="none" stroke="#000000" points="411.5086,-112.5 411.5086,-131.5 488.5086,-131.5 488.5086,-112.5 411.5086,-112.5"/>
<text text-anchor="middle" x="450.0086" y="-119.5" font-family="Helvetica,sans-Serif" font-size="10.00" fill="#000000">tileData.hxx</text>
</a>
</g>
</g>
<!-- Node13&#45;&gt;Node15 -->
<g id="edge21" class="edge">
<title>Node13&#45;&gt;Node15</title>
<path fill="none" stroke="#191970" d="M637.4147,-168.4369C598.9803,-158.9133 539.8726,-144.2672 498.3376,-133.9753"/>
<polygon fill="#191970" stroke="#191970" points="498.9917,-130.5316 488.4435,-131.5237 497.3081,-137.3261 498.9917,-130.5316"/>
</g>
<!-- Node16 -->
<g id="node17" class="node">
<title>Node16</title>
<polygon fill="none" stroke="#bfbfbf" points="507.0086,-112.5 507.0086,-131.5 565.0086,-131.5 565.0086,-112.5 507.0086,-112.5"/>
<text text-anchor="middle" x="536.0086" y="-119.5" font-family="Helvetica,sans-Serif" font-size="10.00" fill="#000000">json.hxx</text>
</g>
<!-- Node13&#45;&gt;Node16 -->
<g id="edge25" class="edge">
<title>Node13&#45;&gt;Node16</title>
<path fill="none" stroke="#191970" d="M651.9418,-168.3733C629.1658,-159.2629 594.7742,-145.5062 569.3596,-135.3404"/>
<polygon fill="#191970" stroke="#191970" points="570.3461,-131.9654 559.7615,-131.5011 567.7463,-138.4648 570.3461,-131.9654"/>
</g>
<!-- Node17 -->
<g id="node18" class="node">
<title>Node17</title>
<g id="a_node18"><a xlink:href="Singleton_8hxx.html" target="_top" xlink:title="Singleton.hxx">
<polygon fill="none" stroke="#000000" points="990.5086,-112.5 990.5086,-131.5 1073.5086,-131.5 1073.5086,-112.5 990.5086,-112.5"/>
<text text-anchor="middle" x="1032.0086" y="-119.5" font-family="Helvetica,sans-Serif" font-size="10.00" fill="#000000">Singleton.hxx</text>
</a>
</g>
</g>
<!-- Node13&#45;&gt;Node17 -->
<g id="edge26" class="edge">
<title>Node13&#45;&gt;Node17</title>
<path fill="none" stroke="#191970" d="M729.3054,-169.6162C797.1084,-158.9506 913.4241,-140.6538 980.4068,-130.1172"/>
<polygon fill="#191970" stroke="#191970" points="980.9845,-133.5694 990.3191,-128.5579 979.8967,-126.6544 980.9845,-133.5694"/>
</g>
<!-- Node18 -->
<g id="node19" class="node">
<title>Node18</title>
<polygon fill="none" stroke="#bfbfbf" points="583.5086,-112.5 583.5086,-131.5 708.5086,-131.5 708.5086,-112.5 583.5086,-112.5"/>
<text text-anchor="middle" x="646.0086" y="-119.5" font-family="Helvetica,sans-Serif" font-size="10.00" fill="#000000">../common/enums.hxx</text>
</g>
<!-- Node13&#45;&gt;Node18 -->
<g id="edge27" class="edge">
<title>Node13&#45;&gt;Node18</title>
<path fill="none" stroke="#191970" d="M670.783,-168.2455C666.6963,-160.617 660.8951,-149.7881 655.9337,-140.5267"/>
<polygon fill="#191970" stroke="#191970" points="658.9818,-138.8047 651.1744,-131.6427 652.8114,-142.1103 658.9818,-138.8047"/>
</g>
<!-- Node15&#45;&gt;Node5 -->
<g id="edge22" class="edge">
<title>Node15&#45;&gt;Node5</title>
<path fill="none" stroke="#191970" d="M488.7104,-113.5231C491.8482,-112.9622 494.9767,-112.4448 498.0086,-112 686.9775,-84.2779 916.2013,-71.4389 999.6537,-67.4381"/>
<polygon fill="#191970" stroke="#191970" points="999.9471,-70.9282 1009.7717,-66.9624 999.6184,-63.936 999.9471,-70.9282"/>
</g>
<!-- Node15&#45;&gt;Node7 -->
<g id="edge23" class="edge">
<title>Node15&#45;&gt;Node7</title>
<path fill="none" stroke="#191970" d="M411.4964,-113.976C408.2868,-113.3075 405.092,-112.6421 402.0086,-112 335.5496,-98.1606 257.8466,-81.9894 214.5426,-72.978"/>
<polygon fill="#191970" stroke="#191970" points="215.0616,-69.5111 204.5583,-70.9003 213.6355,-76.3642 215.0616,-69.5111"/>
</g>
<!-- Node15&#45;&gt;Node10 -->
<g id="edge24" class="edge">
<title>Node15&#45;&gt;Node10</title>
<path fill="none" stroke="#191970" d="M450.0086,-112.2455C450.0086,-104.9382 450.0086,-94.6944 450.0086,-85.7046"/>
<polygon fill="#191970" stroke="#191970" points="453.5087,-85.6426 450.0086,-75.6427 446.5087,-85.6427 453.5087,-85.6426"/>
</g>
<!-- Node19&#45;&gt;Node3 -->
<g id="edge38" class="edge">
<title>Node19&#45;&gt;Node3</title>
<path fill="none" stroke="#191970" d="M1512.8746,-177.0396C1340.4528,-171.3284 459.2835,-141.7541 403.0086,-132 402.9083,-131.9826 402.8078,-131.965 402.7072,-131.9471"/>
<polygon fill="#191970" stroke="#191970" points="403.7351,-128.5924 393.2042,-129.7545 402.1613,-135.4132 403.7351,-128.5924"/>
</g>
<!-- Node19&#45;&gt;Node5 -->
<g id="edge29" class="edge">
<title>Node19&#45;&gt;Node5</title>
<path fill="none" stroke="#191970" d="M1512.8665,-173.3067C1474.8228,-166.6587 1406.5434,-152.9293 1351.0086,-132 1333.1496,-125.2695 1331.1047,-118.0646 1313.0086,-112 1225.9647,-82.8286 1117.3371,-71.7735 1064.2448,-67.9018"/>
<polygon fill="#191970" stroke="#191970" points="1064.3051,-64.3977 1054.0877,-67.2003 1063.8227,-71.3811 1064.3051,-64.3977"/>
</g>
<!-- Node19&#45;&gt;Node6 -->
<g id="edge39" class="edge">
<title>Node19&#45;&gt;Node6</title>
<path fill="none" stroke="#191970" d="M1512.9901,-172.1519C1470.2635,-163.5161 1387.9247,-146.7779 1318.0086,-132 1316.7493,-131.7338 1315.4708,-131.4625 1314.1802,-131.1878"/>
<polygon fill="#191970" stroke="#191970" points="1314.6808,-127.7156 1304.1691,-129.0408 1313.2129,-134.56 1314.6808,-127.7156"/>
</g>
<!-- Node20 -->
<g id="node21" class="node">
<title>Node20</title>
<g id="a_node21"><a xlink:href="Exception_8hxx.html" target="_top" xlink:title="Exception.hxx">
<polygon fill="none" stroke="#000000" points="1852.0086,-112.5 1852.0086,-131.5 1938.0086,-131.5 1938.0086,-112.5 1852.0086,-112.5"/>
<text text-anchor="middle" x="1895.0086" y="-119.5" font-family="Helvetica,sans-Serif" font-size="10.00" fill="#000000">Exception.hxx</text>
</a>
</g>
</g>
<!-- Node19&#45;&gt;Node20 -->
<g id="edge30" class="edge">
<title>Node19&#45;&gt;Node20</title>
<path fill="none" stroke="#191970" d="M1571.1257,-173.9289C1623.2991,-166.5524 1736.3883,-150.1939 1842.0315,-132.1193"/>
<polygon fill="#191970" stroke="#191970" points="1842.6397,-135.5662 1851.9017,-130.4217 1841.4531,-128.6674 1842.6397,-135.5662"/>
</g>
<!-- Node23 -->
<g id="node24" class="node">
<title>Node23</title>
<polygon fill="none" stroke="#bfbfbf" points="1648.0086,-56.5 1648.0086,-75.5 1708.0086,-75.5 1708.0086,-56.5 1648.0086,-56.5"/>
<text text-anchor="middle" x="1678.0086" y="-63.5" font-family="Helvetica,sans-Serif" font-size="10.00" fill="#000000">iostream</text>
</g>
<!-- Node19&#45;&gt;Node23 -->
<g id="edge33" class="edge">
<title>Node19&#45;&gt;Node23</title>
<path fill="none" stroke="#191970" d="M1571.2866,-175.4536C1620.5539,-170.4957 1716.6618,-157.7051 1737.0086,-132 1751.5964,-113.5706 1727.7002,-93.6069 1706.0934,-80.5188"/>
<polygon fill="#191970" stroke="#191970" points="1707.8139,-77.4708 1697.3997,-75.5226 1704.326,-83.5399 1707.8139,-77.4708"/>
</g>
<!-- Node24 -->
<g id="node25" class="node">
<title>Node24</title>
<polygon fill="none" stroke="#bfbfbf" points="1784.0086,-112.5 1784.0086,-131.5 1834.0086,-131.5 1834.0086,-112.5 1784.0086,-112.5"/>
<text text-anchor="middle" x="1809.0086" y="-119.5" font-family="Helvetica,sans-Serif" font-size="10.00" fill="#000000">chrono</text>
</g>
<!-- Node19&#45;&gt;Node24 -->
<g id="edge34" class="edge">
<title>Node19&#45;&gt;Node24</title>
<path fill="none" stroke="#191970" d="M1571.2655,-172.6009C1614.7536,-164.4618 1698.959,-148.2647 1770.0086,-132 1771.2734,-131.7105 1772.5598,-131.4103 1773.8581,-131.1027"/>
<polygon fill="#191970" stroke="#191970" points="1775.0001,-134.4265 1783.8801,-128.6475 1773.3345,-127.6275 1775.0001,-134.4265"/>
</g>
<!-- Node25 -->
<g id="node26" class="node">
<title>Node25</title>
<polygon fill="none" stroke="#bfbfbf" points="1956.0086,-112.5 1956.0086,-131.5 2000.0086,-131.5 2000.0086,-112.5 1956.0086,-112.5"/>
<text text-anchor="middle" x="1978.0086" y="-119.5" font-family="Helvetica,sans-Serif" font-size="10.00" fill="#000000">ctime</text>
</g>
<!-- Node19&#45;&gt;Node25 -->
<g id="edge35" class="edge">
<title>Node19&#45;&gt;Node25</title>
<path fill="none" stroke="#191970" d="M1571.0549,-176.685C1636.5161,-173.3014 1800.5559,-162.4722 1945.82,-131.8876"/>
<polygon fill="#191970" stroke="#191970" points="1946.7578,-135.2662 1955.8021,-129.748 1945.2906,-128.4217 1946.7578,-135.2662"/>
</g>
<!-- Node26 -->
<g id="node27" class="node">
<title>Node26</title>
<polygon fill="none" stroke="#bfbfbf" points="1440.5086,-112.5 1440.5086,-131.5 1495.5086,-131.5 1495.5086,-112.5 1440.5086,-112.5"/>
<text text-anchor="middle" x="1468.0086" y="-119.5" font-family="Helvetica,sans-Serif" font-size="10.00" fill="#000000">fstream</text>
</g>
<!-- Node19&#45;&gt;Node26 -->
<g id="edge36" class="edge">
<title>Node19&#45;&gt;Node26</title>
<path fill="none" stroke="#191970" d="M1529.1188,-168.2455C1518.0833,-159.8943 1501.9794,-147.7076 1489.0733,-137.9408"/>
<polygon fill="#191970" stroke="#191970" points="1490.8369,-134.8862 1480.7508,-131.6427 1486.6128,-140.4681 1490.8369,-134.8862"/>
</g>
<!-- Node27 -->
<g id="node28" class="node">
<title>Node27</title>
<polygon fill="none" stroke="#bfbfbf" points="1514.0086,-112.5 1514.0086,-131.5 1570.0086,-131.5 1570.0086,-112.5 1514.0086,-112.5"/>
<text text-anchor="middle" x="1542.0086" y="-119.5" font-family="Helvetica,sans-Serif" font-size="10.00" fill="#000000">sstream</text>
</g>
<!-- Node19&#45;&gt;Node27 -->
<g id="edge37" class="edge">
<title>Node19&#45;&gt;Node27</title>
<path fill="none" stroke="#191970" d="M1542.0086,-168.2455C1542.0086,-160.9382 1542.0086,-150.6944 1542.0086,-141.7046"/>
<polygon fill="#191970" stroke="#191970" points="1545.5087,-141.6426 1542.0086,-131.6427 1538.5087,-141.6427 1545.5087,-141.6426"/>
</g>
<!-- Node28 -->
<g id="node29" class="node">
<title>Node28</title>
<polygon fill="none" stroke="#bfbfbf" points="1588.0086,-112.5 1588.0086,-131.5 1636.0086,-131.5 1636.0086,-112.5 1588.0086,-112.5"/>
<text text-anchor="middle" x="1612.0086" y="-119.5" font-family="Helvetica,sans-Serif" font-size="10.00" fill="#000000">mutex</text>
</g>
<!-- Node19&#45;&gt;Node28 -->
<g id="edge40" class="edge">
<title>Node19&#45;&gt;Node28</title>
<path fill="none" stroke="#191970" d="M1554.2017,-168.2455C1564.6407,-159.8943 1579.8741,-147.7076 1592.0826,-137.9408"/>
<polygon fill="#191970" stroke="#191970" points="1594.333,-140.6227 1599.9553,-131.6427 1589.9601,-135.1566 1594.333,-140.6227"/>
</g>
<!-- Node29 -->
<g id="node30" class="node">
<title>Node29</title>
<g id="a_node30"><a xlink:href="Meta_8hxx.html" target="_top" xlink:title="Meta.hxx">
<polygon fill="none" stroke="#000000" points="1360.0086,-112.5 1360.0086,-131.5 1422.0086,-131.5 1422.0086,-112.5 1360.0086,-112.5"/>
<text text-anchor="middle" x="1391.0086" y="-119.5" font-family="Helvetica,sans-Serif" font-size="10.00" fill="#000000">Meta.hxx</text>
</a>
</g>
</g>
<!-- Node19&#45;&gt;Node29 -->
<g id="edge41" class="edge">
<title>Node19&#45;&gt;Node29</title>
<path fill="none" stroke="#191970" d="M1516.0508,-168.3733C1491.2679,-159.1822 1453.734,-145.2624 1426.2546,-135.0713"/>
<polygon fill="#191970" stroke="#191970" points="1427.2208,-131.6968 1416.6277,-131.5011 1424.7867,-138.26 1427.2208,-131.6968"/>
</g>
<!-- Node33 -->
<g id="node34" class="node">
<title>Node33</title>
<g id="a_node34"><a xlink:href="LOG_8inl_8hxx.html" target="_top" xlink:title="LOG.inl.hxx">
<polygon fill="none" stroke="#000000" points="1654.5086,-112.5 1654.5086,-131.5 1727.5086,-131.5 1727.5086,-112.5 1654.5086,-112.5"/>
<text text-anchor="middle" x="1691.0086" y="-119.5" font-family="Helvetica,sans-Serif" font-size="10.00" fill="#000000">LOG.inl.hxx</text>
</a>
</g>
</g>
<!-- Node19&#45;&gt;Node33 -->
<g id="edge46" class="edge">
<title>Node19&#45;&gt;Node33</title>
<path fill="none" stroke="#191970" d="M1567.6227,-168.3733C1592.0773,-159.1822 1629.1141,-145.2624 1656.2295,-135.0713"/>
<polygon fill="#191970" stroke="#191970" points="1657.5995,-138.2956 1665.7289,-131.5011 1655.1368,-131.7431 1657.5995,-138.2956"/>
</g>
<!-- Node21 -->
<g id="node22" class="node">
<title>Node21</title>
<polygon fill="none" stroke="#bfbfbf" points="1820.5086,-56.5 1820.5086,-75.5 1885.5086,-75.5 1885.5086,-56.5 1820.5086,-56.5"/>
<text text-anchor="middle" x="1853.0086" y="-63.5" font-family="Helvetica,sans-Serif" font-size="10.00" fill="#000000">stdexcept</text>
</g>
<!-- Node20&#45;&gt;Node21 -->
<g id="edge31" class="edge">
<title>Node20&#45;&gt;Node21</title>
<path fill="none" stroke="#191970" d="M1887.6928,-112.2455C1881.7907,-104.3761 1873.3344,-93.101 1866.2493,-83.6542"/>
<polygon fill="#191970" stroke="#191970" points="1869.0407,-81.5427 1860.2407,-75.6427 1863.4407,-85.7427 1869.0407,-81.5427"/>
</g>
<!-- Node22 -->
<g id="node23" class="node">
<title>Node22</title>
<polygon fill="none" stroke="#bfbfbf" points="1903.5086,-56.5 1903.5086,-75.5 1968.5086,-75.5 1968.5086,-56.5 1903.5086,-56.5"/>
<text text-anchor="middle" x="1936.0086" y="-63.5" font-family="Helvetica,sans-Serif" font-size="10.00" fill="#000000">exception</text>
</g>
<!-- Node20&#45;&gt;Node22 -->
<g id="edge32" class="edge">
<title>Node20&#45;&gt;Node22</title>
<path fill="none" stroke="#191970" d="M1902.1503,-112.2455C1907.8531,-104.4564 1915.9986,-93.3308 1922.8711,-83.9439"/>
<polygon fill="#191970" stroke="#191970" points="1925.8654,-85.7789 1928.9488,-75.6427 1920.2174,-81.6437 1925.8654,-85.7789"/>
</g>
<!-- Node29&#45;&gt;Node23 -->
<g id="edge42" class="edge">
<title>Node29&#45;&gt;Node23</title>
<path fill="none" stroke="#191970" d="M1422.3075,-114.1805C1425.5777,-113.4191 1428.8571,-112.6785 1432.0086,-112 1504.2273,-96.4527 1589.0288,-81.2663 1637.8431,-72.8194"/>
<polygon fill="#191970" stroke="#191970" points="1638.7274,-76.2186 1647.9879,-71.0713 1637.5388,-69.3203 1638.7274,-76.2186"/>
</g>
<!-- Node30 -->
<g id="node31" class="node">
<title>Node30</title>
<polygon fill="none" stroke="#bfbfbf" points="1356.5086,-56.5 1356.5086,-75.5 1425.5086,-75.5 1425.5086,-56.5 1356.5086,-56.5"/>
<text text-anchor="middle" x="1391.0086" y="-63.5" font-family="Helvetica,sans-Serif" font-size="10.00" fill="#000000">type_traits</text>
</g>
<!-- Node29&#45;&gt;Node30 -->
<g id="edge43" class="edge">
<title>Node29&#45;&gt;Node30</title>
<path fill="none" stroke="#191970" d="M1391.0086,-112.2455C1391.0086,-104.9382 1391.0086,-94.6944 1391.0086,-85.7046"/>
<polygon fill="#191970" stroke="#191970" points="1394.5087,-85.6426 1391.0086,-75.6427 1387.5087,-85.6427 1394.5087,-85.6426"/>
</g>
<!-- Node31 -->
<g id="node32" class="node">
<title>Node31</title>
<polygon fill="none" stroke="#bfbfbf" points="1443.5086,-56.5 1443.5086,-75.5 1494.5086,-75.5 1494.5086,-56.5 1443.5086,-56.5"/>
<text text-anchor="middle" x="1469.0086" y="-63.5" font-family="Helvetica,sans-Serif" font-size="10.00" fill="#000000">variant</text>
</g>
<!-- Node29&#45;&gt;Node31 -->
<g id="edge44" class="edge">
<title>Node29&#45;&gt;Node31</title>
<path fill="none" stroke="#191970" d="M1404.5952,-112.2455C1416.3391,-103.814 1433.5285,-91.4729 1447.1968,-81.6598"/>
<polygon fill="#191970" stroke="#191970" points="1449.4958,-84.3179 1455.5778,-75.6427 1445.4133,-78.6316 1449.4958,-84.3179"/>
</g>
<!-- Node32 -->
<g id="node33" class="node">
<title>Node32</title>
<polygon fill="none" stroke="#bfbfbf" points="1297.5086,-56.5 1297.5086,-75.5 1338.5086,-75.5 1338.5086,-56.5 1297.5086,-56.5"/>
<text text-anchor="middle" x="1318.0086" y="-63.5" font-family="Helvetica,sans-Serif" font-size="10.00" fill="#000000">tuple</text>
</g>
<!-- Node29&#45;&gt;Node32 -->
<g id="edge45" class="edge">
<title>Node29&#45;&gt;Node32</title>
<path fill="none" stroke="#191970" d="M1378.293,-112.2455C1367.4066,-103.8943 1351.5204,-91.7076 1338.7886,-81.9408"/>
<polygon fill="#191970" stroke="#191970" points="1340.6432,-78.9523 1330.5786,-75.6427 1336.3826,-84.5063 1340.6432,-78.9523"/>
</g>
<!-- Node34&#45;&gt;Node7 -->
<g id="edge49" class="edge">
<title>Node34&#45;&gt;Node7</title>
<path fill="none" stroke="#191970" d="M96.7757,-112.2455C112.7182,-103.4928 136.3345,-90.527 154.5076,-80.5496"/>
<polygon fill="#191970" stroke="#191970" points="156.3638,-83.5233 163.4452,-75.6427 152.995,-77.3873 156.3638,-83.5233"/>
</g>
<!-- Node34&#45;&gt;Node10 -->
<g id="edge48" class="edge">
<title>Node34&#45;&gt;Node10</title>
<path fill="none" stroke="#191970" d="M141.1057,-112.6269C207.6197,-102.587 312.8732,-86.6997 381.6906,-76.3122"/>
<polygon fill="#191970" stroke="#191970" points="382.625,-79.7109 391.9905,-74.7575 381.5801,-72.7893 382.625,-79.7109"/>
</g>
<!-- Node35&#45;&gt;Node5 -->
<g id="edge51" class="edge">
<title>Node35&#45;&gt;Node5</title>
<path fill="none" stroke="#191970" d="M1057.0848,-168.4935C1071.4424,-155.957 1092.357,-133.021 1083.0086,-112 1077.5579,-99.7432 1067.0488,-89.3755 1056.9797,-81.6036"/>
<polygon fill="#191970" stroke="#191970" points="1058.9126,-78.6828 1048.746,-75.7012 1054.8343,-84.3721 1058.9126,-78.6828"/>
</g>
<!-- Node35&#45;&gt;Node10 -->
<g id="edge53" class="edge">
<title>Node35&#45;&gt;Node10</title>
<path fill="none" stroke="#191970" d="M1023.8138,-168.498C990.223,-153.8677 922.3706,-126.0483 862.0086,-112 743.0228,-84.308 600.695,-73.1152 518.289,-68.7163"/>
<polygon fill="#191970" stroke="#191970" points="518.2178,-65.2081 508.0508,-68.1884 517.8573,-72.1988 518.2178,-65.2081"/>
</g>
<!-- Node35&#45;&gt;Node17 -->
<g id="edge52" class="edge">
<title>Node35&#45;&gt;Node17</title>
<path fill="none" stroke="#191970" d="M1042.7442,-168.2455C1041.0292,-160.8579 1038.6175,-150.4689 1036.5142,-141.4087"/>
<polygon fill="#191970" stroke="#191970" points="1039.9178,-140.5922 1034.2471,-131.6427 1033.0992,-142.1751 1039.9178,-140.5922"/>
</g>
<!-- Node36&#45;&gt;Node5 -->
<g id="edge55" class="edge">
<title>Node36&#45;&gt;Node5</title>
<path fill="none" stroke="#191970" d="M1169.1521,-168.2927C1184.3854,-154.9339 1206.9206,-130.4435 1193.0086,-112 1177.5161,-91.461 1106.482,-77.3336 1064.116,-70.5703"/>
<polygon fill="#191970" stroke="#191970" points="1064.4309,-67.0775 1054.0139,-69.0101 1063.3624,-73.9955 1064.4309,-67.0775"/>
</g>
<!-- Node36&#45;&gt;Node17 -->
<g id="edge56" class="edge">
<title>Node36&#45;&gt;Node17</title>
<path fill="none" stroke="#191970" d="M1135.5204,-168.3733C1115.3646,-159.3435 1085.0206,-145.7494 1062.3906,-135.6111"/>
<polygon fill="#191970" stroke="#191970" points="1063.7735,-132.3955 1053.2165,-131.5011 1060.9116,-138.7838 1063.7735,-132.3955"/>
</g>
<!-- Node36&#45;&gt;Node29 -->
<g id="edge57" class="edge">
<title>Node36&#45;&gt;Node29</title>
<path fill="none" stroke="#191970" d="M1195.649,-168.7527C1238.1911,-158.5717 1306.3136,-142.2689 1349.8388,-131.8526"/>
<polygon fill="#191970" stroke="#191970" points="1350.896,-135.1985 1359.8067,-129.4671 1349.2667,-128.3908 1350.896,-135.1985"/>
</g>
<!-- Node37 -->
<g id="node38" class="node">
<title>Node37</title>
<polygon fill="none" stroke="#bfbfbf" points="1130.5086,-112.5 1130.5086,-131.5 1183.5086,-131.5 1183.5086,-112.5 1130.5086,-112.5"/>
<text text-anchor="middle" x="1157.0086" y="-119.5" font-family="Helvetica,sans-Serif" font-size="10.00" fill="#000000">cstddef</text>
</g>
<!-- Node36&#45;&gt;Node37 -->
<g id="edge58" class="edge">
<title>Node36&#45;&gt;Node37</title>
<path fill="none" stroke="#191970" d="M1157.0086,-168.2455C1157.0086,-160.9382 1157.0086,-150.6944 1157.0086,-141.7046"/>
<polygon fill="#191970" stroke="#191970" points="1160.5087,-141.6426 1157.0086,-131.6427 1153.5087,-141.6427 1160.5087,-141.6426"/>
</g>
</g>
</svg>
