<?xml version="1.0" encoding="UTF-8" standalone="no"?>
<!DOCTYPE svg PUBLIC "-//W3C//DTD SVG 1.1//EN"
 "http://www.w3.org/Graphics/SVG/1.1/DTD/svg11.dtd">
<!-- Generated by graphviz version 2.40.1 (20161225.0304)
 -->
<!-- Title: src/engine/MessageQueue.hxx Pages: 1 -->
<svg width="715pt" height="308pt"
 viewBox="0.00 0.00 714.50 308.00" xmlns="http://www.w3.org/2000/svg" xmlns:xlink="http://www.w3.org/1999/xlink">
<g id="graph0" class="graph" transform="scale(1 1) rotate(0) translate(4 304)">
<title>src/engine/MessageQueue.hxx</title>
<!-- Node0 -->
<g id="node1" class="node">
<title>Node0</title>
<polygon fill="#bfbfbf" stroke="#000000" points="204,-280.5 204,-299.5 369,-299.5 369,-280.5 204,-280.5"/>
<text text-anchor="middle" x="286.5" y="-287.5" font-family="Helvetica,sans-Serif" font-size="10.00" fill="#000000">src/engine/MessageQueue.hxx</text>
</g>
<!-- Node1 -->
<g id="node2" class="node">
<title>Node1</title>
<polygon fill="none" stroke="#bfbfbf" points="0,-224.5 0,-243.5 107,-243.5 107,-224.5 0,-224.5"/>
<text text-anchor="middle" x="53.5" y="-231.5" font-family="Helvetica,sans-Serif" font-size="10.00" fill="#000000">condition_variable</text>
</g>
<!-- Node0&#45;&gt;Node1 -->
<g id="edge1" class="edge">
<title>Node0&#45;&gt;Node1</title>
<path fill="none" stroke="#191970" d="M246.7106,-280.4369C207.002,-270.8932 145.8896,-256.2052 103.0545,-245.9101"/>
<polygon fill="#191970" stroke="#191970" points="103.6663,-242.4575 93.1253,-243.5237 102.0305,-249.2637 103.6663,-242.4575"/>
</g>
<!-- Node2 -->
<g id="node3" class="node">
<title>Node2</title>
<polygon fill="none" stroke="#bfbfbf" points="125.5,-224.5 125.5,-243.5 173.5,-243.5 173.5,-224.5 125.5,-224.5"/>
<text text-anchor="middle" x="149.5" y="-231.5" font-family="Helvetica,sans-Serif" font-size="10.00" fill="#000000">mutex</text>
</g>
<!-- Node0&#45;&gt;Node2 -->
<g id="edge2" class="edge">
<title>Node0&#45;&gt;Node2</title>
<path fill="none" stroke="#191970" d="M262.9489,-280.3733C240.6609,-271.2629 207.0063,-257.5062 182.1363,-247.3404"/>
<polygon fill="#191970" stroke="#191970" points="183.3247,-244.0451 172.7438,-243.5011 180.6761,-250.5247 183.3247,-244.0451"/>
</g>
<!-- Node3 -->
<g id="node4" class="node">
<title>Node3</title>
<polygon fill="none" stroke="#bfbfbf" points="192,-224.5 192,-243.5 239,-243.5 239,-224.5 192,-224.5"/>
<text text-anchor="middle" x="215.5" y="-231.5" font-family="Helvetica,sans-Serif" font-size="10.00" fill="#000000">deque</text>
</g>
<!-- Node0&#45;&gt;Node3 -->
<g id="edge3" class="edge">
<title>Node0&#45;&gt;Node3</title>
<path fill="none" stroke="#191970" d="M274.1327,-280.2455C263.5446,-271.8943 248.0936,-259.7076 235.7107,-249.9408"/>
<polygon fill="#191970" stroke="#191970" points="237.7447,-247.0875 227.7255,-243.6427 233.4097,-252.5837 237.7447,-247.0875"/>
</g>
<!-- Node4 -->
<g id="node5" class="node">
<title>Node4</title>
<polygon fill="none" stroke="#bfbfbf" points="290,-56.5 290,-75.5 337,-75.5 337,-56.5 290,-56.5"/>
<text text-anchor="middle" x="313.5" y="-63.5" font-family="Helvetica,sans-Serif" font-size="10.00" fill="#000000">vector</text>
</g>
<!-- Node0&#45;&gt;Node4 -->
<g id="edge4" class="edge">
<title>Node0&#45;&gt;Node4</title>
<path fill="none" stroke="#191970" d="M284.7219,-280.1152C280.1779,-252.7681 269.6411,-174.0275 286.5,-112 289.2176,-102.0015 294.7175,-91.9556 300.0484,-83.8139"/>
<polygon fill="#191970" stroke="#191970" points="302.9755,-85.7354 305.8381,-75.5346 297.239,-81.7239 302.9755,-85.7354"/>
</g>
<!-- Node5 -->
<g id="node6" class="node">
<title>Node5</title>
<polygon fill="none" stroke="#bfbfbf" points="296,-112.5 296,-131.5 361,-131.5 361,-112.5 296,-112.5"/>
<text text-anchor="middle" x="328.5" y="-119.5" font-family="Helvetica,sans-Serif" font-size="10.00" fill="#000000">functional</text>
</g>
<!-- Node0&#45;&gt;Node5 -->
<g id="edge5" class="edge">
<title>Node0&#45;&gt;Node5</title>
<path fill="none" stroke="#191970" d="M288.8784,-280.4862C295.5464,-253.8144 314.5221,-177.9117 323.5762,-141.695"/>
<polygon fill="#191970" stroke="#191970" points="327.0131,-142.3782 326.043,-131.8279 320.2221,-140.6804 327.0131,-142.3782"/>
</g>
<!-- Node6 -->
<g id="node7" class="node">
<title>Node6</title>
<polygon fill="none" stroke="#bfbfbf" points="333.5,-224.5 333.5,-243.5 387.5,-243.5 387.5,-224.5 333.5,-224.5"/>
<text text-anchor="middle" x="360.5" y="-231.5" font-family="Helvetica,sans-Serif" font-size="10.00" fill="#000000">ciso646</text>
</g>
<!-- Node0&#45;&gt;Node6 -->
<g id="edge6" class="edge">
<title>Node0&#45;&gt;Node6</title>
<path fill="none" stroke="#191970" d="M299.3898,-280.2455C310.4254,-271.8943 326.5292,-259.7076 339.4353,-249.9408"/>
<polygon fill="#191970" stroke="#191970" points="341.8959,-252.4681 347.7579,-243.6427 337.6717,-246.8862 341.8959,-252.4681"/>
</g>
<!-- Node7 -->
<g id="node8" class="node">
<title>Node7</title>
<g id="a_node8"><a xlink:href="Events_8hxx.html" target="_top" xlink:title="../Events.hxx">
<polygon fill="none" stroke="#000000" points="440.5,-224.5 440.5,-243.5 520.5,-243.5 520.5,-224.5 440.5,-224.5"/>
<text text-anchor="middle" x="480.5" y="-231.5" font-family="Helvetica,sans-Serif" font-size="10.00" fill="#000000">../Events.hxx</text>
</a>
</g>
</g>
<!-- Node0&#45;&gt;Node7 -->
<g id="edge7" class="edge">
<title>Node0&#45;&gt;Node7</title>
<path fill="none" stroke="#191970" d="M319.8498,-280.3733C352.528,-270.9404 402.4618,-256.5265 437.977,-246.2747"/>
<polygon fill="#191970" stroke="#191970" points="438.9484,-249.6373 447.5854,-243.5011 437.007,-242.9119 438.9484,-249.6373"/>
</g>
<!-- Node18 -->
<g id="node19" class="node">
<title>Node18</title>
<g id="a_node19"><a xlink:href="MessageQueue_8inl_8hxx.html" target="_top" xlink:title="MessageQueue.inl.hxx">
<polygon fill="none" stroke="#000000" points="539,-224.5 539,-243.5 666,-243.5 666,-224.5 539,-224.5"/>
<text text-anchor="middle" x="602.5" y="-231.5" font-family="Helvetica,sans-Serif" font-size="10.00" fill="#000000">MessageQueue.inl.hxx</text>
</a>
</g>
</g>
<!-- Node0&#45;&gt;Node18 -->
<g id="edge21" class="edge">
<title>Node0&#45;&gt;Node18</title>
<path fill="none" stroke="#191970" d="M340.4633,-280.4369C395.3395,-270.712 480.357,-255.6456 538.575,-245.3285"/>
<polygon fill="#191970" stroke="#191970" points="539.5235,-248.715 548.7593,-243.5237 538.3019,-241.8224 539.5235,-248.715"/>
</g>
<!-- Node8 -->
<g id="node9" class="node">
<title>Node8</title>
<polygon fill="none" stroke="#bfbfbf" points="544.5,-168.5 544.5,-187.5 588.5,-187.5 588.5,-168.5 544.5,-168.5"/>
<text text-anchor="middle" x="566.5" y="-175.5" font-family="Helvetica,sans-Serif" font-size="10.00" fill="#000000">string</text>
</g>
<!-- Node7&#45;&gt;Node8 -->
<g id="edge8" class="edge">
<title>Node7&#45;&gt;Node8</title>
<path fill="none" stroke="#191970" d="M495.4801,-224.2455C508.6751,-215.6534 528.1051,-203.0014 543.3079,-193.1018"/>
<polygon fill="#191970" stroke="#191970" points="545.2215,-196.0325 551.6916,-187.6427 541.4017,-190.1665 545.2215,-196.0325"/>
</g>
<!-- Node9 -->
<g id="node10" class="node">
<title>Node9</title>
<polygon fill="none" stroke="#bfbfbf" points="606.5,-168.5 606.5,-187.5 706.5,-187.5 706.5,-168.5 606.5,-168.5"/>
<text text-anchor="middle" x="656.5" y="-175.5" font-family="Helvetica,sans-Serif" font-size="10.00" fill="#000000">betterEnums.hxx</text>
</g>
<!-- Node7&#45;&gt;Node9 -->
<g id="edge9" class="edge">
<title>Node7&#45;&gt;Node9</title>
<path fill="none" stroke="#191970" d="M510.7555,-224.3733C540.1483,-215.021 584.9292,-200.7725 617.0934,-190.5385"/>
<polygon fill="#191970" stroke="#191970" points="618.1713,-193.8685 626.6393,-187.5011 616.0488,-187.198 618.1713,-193.8685"/>
</g>
<!-- Node10 -->
<g id="node11" class="node">
<title>Node10</title>
<g id="a_node11"><a xlink:href="Meta_8hxx.html" target="_top" xlink:title="util/Meta.hxx">
<polygon fill="none" stroke="#000000" points="476.5,-56.5 476.5,-75.5 556.5,-75.5 556.5,-56.5 476.5,-56.5"/>
<text text-anchor="middle" x="516.5" y="-63.5" font-family="Helvetica,sans-Serif" font-size="10.00" fill="#000000">util/Meta.hxx</text>
</a>
</g>
</g>
<!-- Node7&#45;&gt;Node10 -->
<g id="edge10" class="edge">
<title>Node7&#45;&gt;Node10</title>
<path fill="none" stroke="#191970" d="M484.7262,-224.311C488.5774,-215.1244 494.1594,-200.8549 497.5,-188 506.7156,-152.5376 512.0953,-110.0418 514.6531,-85.7146"/>
<polygon fill="#191970" stroke="#191970" points="518.1497,-85.9217 515.66,-75.6236 511.1843,-85.2266 518.1497,-85.9217"/>
</g>
<!-- Node15 -->
<g id="node16" class="node">
<title>Node15</title>
<g id="a_node16"><a xlink:href="UIEvents_8hxx.html" target="_top" xlink:title="events/UIEvents.hxx">
<polygon fill="none" stroke="#000000" points="371,-168.5 371,-187.5 488,-187.5 488,-168.5 371,-168.5"/>
<text text-anchor="middle" x="429.5" y="-175.5" font-family="Helvetica,sans-Serif" font-size="10.00" fill="#000000">events/UIEvents.hxx</text>
</a>
</g>
</g>
<!-- Node7&#45;&gt;Node15 -->
<g id="edge15" class="edge">
<title>Node7&#45;&gt;Node15</title>
<path fill="none" stroke="#191970" d="M471.6165,-224.2455C464.3034,-216.2155 453.7609,-204.6394 445.0533,-195.0781"/>
<polygon fill="#191970" stroke="#191970" points="447.6028,-192.6795 438.2817,-187.6427 442.4273,-197.3928 447.6028,-192.6795"/>
</g>
<!-- Node11 -->
<g id="node12" class="node">
<title>Node11</title>
<polygon fill="none" stroke="#bfbfbf" points="364.5,-.5 364.5,-19.5 424.5,-19.5 424.5,-.5 364.5,-.5"/>
<text text-anchor="middle" x="394.5" y="-7.5" font-family="Helvetica,sans-Serif" font-size="10.00" fill="#000000">iostream</text>
</g>
<!-- Node10&#45;&gt;Node11 -->
<g id="edge11" class="edge">
<title>Node10&#45;&gt;Node11</title>
<path fill="none" stroke="#191970" d="M495.5275,-56.3733C475.9433,-47.3838 446.5039,-33.8706 424.449,-23.7471"/>
<polygon fill="#191970" stroke="#191970" points="425.7473,-20.4919 415.1989,-19.5011 422.8271,-26.8538 425.7473,-20.4919"/>
</g>
<!-- Node12 -->
<g id="node13" class="node">
<title>Node12</title>
<polygon fill="none" stroke="#bfbfbf" points="443,-.5 443,-19.5 512,-19.5 512,-.5 443,-.5"/>
<text text-anchor="middle" x="477.5" y="-7.5" font-family="Helvetica,sans-Serif" font-size="10.00" fill="#000000">type_traits</text>
</g>
<!-- Node10&#45;&gt;Node12 -->
<g id="edge12" class="edge">
<title>Node10&#45;&gt;Node12</title>
<path fill="none" stroke="#191970" d="M509.7067,-56.2455C504.2822,-48.4564 496.5339,-37.3308 489.9967,-27.9439"/>
<polygon fill="#191970" stroke="#191970" points="492.8025,-25.8485 484.2154,-19.6427 487.0583,-29.849 492.8025,-25.8485"/>
</g>
<!-- Node13 -->
<g id="node14" class="node">
<title>Node13</title>
<polygon fill="none" stroke="#bfbfbf" points="530,-.5 530,-19.5 581,-19.5 581,-.5 530,-.5"/>
<text text-anchor="middle" x="555.5" y="-7.5" font-family="Helvetica,sans-Serif" font-size="10.00" fill="#000000">variant</text>
</g>
<!-- Node10&#45;&gt;Node13 -->
<g id="edge13" class="edge">
<title>Node10&#45;&gt;Node13</title>
<path fill="none" stroke="#191970" d="M523.2933,-56.2455C528.7178,-48.4564 536.4661,-37.3308 543.0033,-27.9439"/>
<polygon fill="#191970" stroke="#191970" points="545.9417,-29.849 548.7846,-19.6427 540.1975,-25.8485 545.9417,-29.849"/>
</g>
<!-- Node14 -->
<g id="node15" class="node">
<title>Node14</title>
<polygon fill="none" stroke="#bfbfbf" points="599,-.5 599,-19.5 640,-19.5 640,-.5 599,-.5"/>
<text text-anchor="middle" x="619.5" y="-7.5" font-family="Helvetica,sans-Serif" font-size="10.00" fill="#000000">tuple</text>
</g>
<!-- Node10&#45;&gt;Node14 -->
<g id="edge14" class="edge">
<title>Node10&#45;&gt;Node14</title>
<path fill="none" stroke="#191970" d="M534.4412,-56.2455C550.54,-47.4928 574.3879,-34.527 592.7391,-24.5496"/>
<polygon fill="#191970" stroke="#191970" points="594.6507,-27.4942 601.7644,-19.6427 591.3071,-21.3444 594.6507,-27.4942"/>
</g>
<!-- Node15&#45;&gt;Node5 -->
<g id="edge16" class="edge">
<title>Node15&#45;&gt;Node5</title>
<path fill="none" stroke="#191970" d="M411.9071,-168.2455C396.121,-159.4928 372.7361,-146.527 354.7413,-136.5496"/>
<polygon fill="#191970" stroke="#191970" points="356.3341,-133.4308 345.8913,-131.6427 352.9397,-139.5528 356.3341,-133.4308"/>
</g>
<!-- Node16 -->
<g id="node17" class="node">
<title>Node16</title>
<g id="a_node17"><a xlink:href="Observer_8hxx.html" target="_top" xlink:title="../util/Observer.hxx">
<polygon fill="none" stroke="#000000" points="379,-112.5 379,-131.5 488,-131.5 488,-112.5 379,-112.5"/>
<text text-anchor="middle" x="433.5" y="-119.5" font-family="Helvetica,sans-Serif" font-size="10.00" fill="#000000">../util/Observer.hxx</text>
</a>
</g>
</g>
<!-- Node15&#45;&gt;Node16 -->
<g id="edge17" class="edge">
<title>Node15&#45;&gt;Node16</title>
<path fill="none" stroke="#191970" d="M430.1967,-168.2455C430.7187,-160.9382 431.4504,-150.6944 432.0925,-141.7046"/>
<polygon fill="#191970" stroke="#191970" points="435.5898,-141.8667 432.8112,-131.6427 428.6076,-141.3679 435.5898,-141.8667"/>
</g>
<!-- Node16&#45;&gt;Node4 -->
<g id="edge18" class="edge">
<title>Node16&#45;&gt;Node4</title>
<path fill="none" stroke="#191970" d="M412.8713,-112.3733C393.6081,-103.3838 364.6514,-89.8706 342.9581,-79.7471"/>
<polygon fill="#191970" stroke="#191970" points="344.4015,-76.5584 333.8595,-75.5011 341.4413,-82.9017 344.4015,-76.5584"/>
</g>
<!-- Node16&#45;&gt;Node10 -->
<g id="edge20" class="edge">
<title>Node16&#45;&gt;Node10</title>
<path fill="none" stroke="#191970" d="M447.9575,-112.2455C460.5732,-103.7337 479.0944,-91.2375 493.7045,-81.3801"/>
<polygon fill="#191970" stroke="#191970" points="495.8761,-84.1371 502.2082,-75.6427 491.9609,-78.3343 495.8761,-84.1371"/>
</g>
<!-- Node17 -->
<g id="node18" class="node">
<title>Node17</title>
<polygon fill="none" stroke="#bfbfbf" points="400.5,-56.5 400.5,-75.5 458.5,-75.5 458.5,-56.5 400.5,-56.5"/>
<text text-anchor="middle" x="429.5" y="-63.5" font-family="Helvetica,sans-Serif" font-size="10.00" fill="#000000">memory</text>
</g>
<!-- Node16&#45;&gt;Node17 -->
<g id="edge19" class="edge">
<title>Node16&#45;&gt;Node17</title>
<path fill="none" stroke="#191970" d="M432.8033,-112.2455C432.2813,-104.9382 431.5496,-94.6944 430.9075,-85.7046"/>
<polygon fill="#191970" stroke="#191970" points="434.3924,-85.3679 430.1888,-75.6427 427.4102,-85.8667 434.3924,-85.3679"/>
</g>
</g>
</svg>
