<?xml version="1.0" encoding="UTF-8" standalone="no"?>
<!DOCTYPE svg PUBLIC "-//W3C//DTD SVG 1.1//EN"
 "http://www.w3.org/Graphics/SVG/1.1/DTD/svg11.dtd">
<!-- Generated by graphviz version 2.40.1 (20161225.0304)
 -->
<!-- Title: src/engine/MessageQueue.hxx Pages: 1 -->
<svg width="487pt" height="252pt"
 viewBox="0.00 0.00 486.50 252.00" xmlns="http://www.w3.org/2000/svg" xmlns:xlink="http://www.w3.org/1999/xlink">
<g id="graph0" class="graph" transform="scale(1 1) rotate(0) translate(4 248)">
<title>src/engine/MessageQueue.hxx</title>
<!-- Node19 -->
<g id="node1" class="node">
<title>Node19</title>
<polygon fill="#bfbfbf" stroke="#000000" points="149,-224.5 149,-243.5 314,-243.5 314,-224.5 149,-224.5"/>
<text text-anchor="middle" x="231.5" y="-231.5" font-family="Helvetica,sans-Serif" font-size="10.00" fill="#000000">src/engine/MessageQueue.hxx</text>
</g>
<!-- Node20 -->
<g id="node2" class="node">
<title>Node20</title>
<g id="a_node2"><a xlink:href="UIMQDispatcher_8hxx.html" target="_top" xlink:title="src/engine/UIMQDispatcher.hxx">
<polygon fill="none" stroke="#000000" points="0,-168.5 0,-187.5 169,-187.5 169,-168.5 0,-168.5"/>
<text text-anchor="middle" x="84.5" y="-175.5" font-family="Helvetica,sans-Serif" font-size="10.00" fill="#000000">src/engine/UIMQDispatcher.hxx</text>
</a>
</g>
</g>
<!-- Node19&#45;&gt;Node20 -->
<g id="edge1" class="edge">
<title>Node19&#45;&gt;Node20</title>
<path fill="none" stroke="#191970" d="M196.8206,-220.7888C169.9802,-210.5639 133.453,-196.6488 109.4404,-187.5011"/>
<polygon fill="#191970" stroke="#191970" points="195.6389,-224.0839 206.2298,-224.3733 198.1309,-217.5425 195.6389,-224.0839"/>
</g>
<!-- Node21 -->
<g id="node3" class="node">
<title>Node21</title>
<g id="a_node3"><a xlink:href="DataModel_8hxx.html" target="_top" xlink:title="src/model/DataModel.hxx">
<polygon fill="none" stroke="#000000" points="40,-112.5 40,-131.5 181,-131.5 181,-112.5 40,-112.5"/>
<text text-anchor="middle" x="110.5" y="-119.5" font-family="Helvetica,sans-Serif" font-size="10.00" fill="#000000">src/model/DataModel.hxx</text>
</a>
</g>
</g>
<!-- Node19&#45;&gt;Node21 -->
<g id="edge8" class="edge">
<title>Node19&#45;&gt;Node21</title>
<path fill="none" stroke="#191970" d="M218.9752,-216.0221C208.7424,-202.0423 193.4147,-182.6299 177.5,-168 161.815,-153.5812 141.323,-140.168 127.1519,-131.5906"/>
<polygon fill="#191970" stroke="#191970" points="216.2501,-218.2282 224.9188,-224.3194 221.9407,-214.1518 216.2501,-218.2282"/>
</g>
<!-- Node24 -->
<g id="node6" class="node">
<title>Node24</title>
<g id="a_node6"><a xlink:href="Game_8hxx.html" target="_top" xlink:title="src/Game.hxx">
<polygon fill="none" stroke="#000000" points="224.5,-168.5 224.5,-187.5 308.5,-187.5 308.5,-168.5 224.5,-168.5"/>
<text text-anchor="middle" x="266.5" y="-175.5" font-family="Helvetica,sans-Serif" font-size="10.00" fill="#000000">src/Game.hxx</text>
</a>
</g>
</g>
<!-- Node19&#45;&gt;Node24 -->
<g id="edge5" class="edge">
<title>Node19&#45;&gt;Node24</title>
<path fill="none" stroke="#191970" d="M242.9815,-215.6296C248.8196,-206.2887 255.6752,-195.3197 260.4733,-187.6427"/>
<polygon fill="#191970" stroke="#191970" points="239.9286,-213.9105 237.5965,-224.2455 245.8646,-217.6206 239.9286,-213.9105"/>
</g>
<!-- Node27 -->
<g id="node9" class="node">
<title>Node27</title>
<g id="a_node9"><a xlink:href="AudioMixer_8cxx.html" target="_top" xlink:title="src/services/AudioMixer.cxx">
<polygon fill="none" stroke="#000000" points="326.5,-168.5 326.5,-187.5 478.5,-187.5 478.5,-168.5 326.5,-168.5"/>
<text text-anchor="middle" x="402.5" y="-175.5" font-family="Helvetica,sans-Serif" font-size="10.00" fill="#000000">src/services/AudioMixer.cxx</text>
</a>
</g>
</g>
<!-- Node19&#45;&gt;Node27 -->
<g id="edge9" class="edge">
<title>Node19&#45;&gt;Node27</title>
<path fill="none" stroke="#191970" d="M270.6148,-221.1905C301.9432,-210.9309 345.1871,-196.7691 373.4876,-187.5011"/>
<polygon fill="#191970" stroke="#191970" points="269.31,-217.9348 260.8959,-224.3733 271.4886,-224.5872 269.31,-217.9348"/>
</g>
<!-- Node20&#45;&gt;Node21 -->
<g id="edge2" class="edge">
<title>Node20&#45;&gt;Node21</title>
<path fill="none" stroke="#191970" d="M93.3011,-159.0437C97.5775,-149.8331 102.533,-139.1598 106.023,-131.6427"/>
<polygon fill="#191970" stroke="#191970" points="90.0655,-157.7015 89.0289,-168.2455 96.4146,-160.6494 90.0655,-157.7015"/>
</g>
<!-- Node22 -->
<g id="node4" class="node">
<title>Node22</title>
<g id="a_node4"><a xlink:href="ButtonState_8hxx.html" target="_top" xlink:title="src/model/ButtonState.hxx">
<polygon fill="none" stroke="#000000" points="37.5,-56.5 37.5,-75.5 183.5,-75.5 183.5,-56.5 37.5,-56.5"/>
<text text-anchor="middle" x="110.5" y="-63.5" font-family="Helvetica,sans-Serif" font-size="10.00" fill="#000000">src/model/ButtonState.hxx</text>
</a>
</g>
</g>
<!-- Node21&#45;&gt;Node22 -->
<g id="edge3" class="edge">
<title>Node21&#45;&gt;Node22</title>
<path fill="none" stroke="#191970" d="M110.5,-102.1575C110.5,-93.155 110.5,-82.9199 110.5,-75.6427"/>
<polygon fill="#191970" stroke="#191970" points="107.0001,-102.2455 110.5,-112.2455 114.0001,-102.2456 107.0001,-102.2455"/>
</g>
<!-- Node23 -->
<g id="node5" class="node">
<title>Node23</title>
<g id="a_node5"><a xlink:href="ButtonState_8cxx.html" target="_top" xlink:title="src/model/ButtonState.cxx">
<polygon fill="none" stroke="#000000" points="37.5,-.5 37.5,-19.5 183.5,-19.5 183.5,-.5 37.5,-.5"/>
<text text-anchor="middle" x="110.5" y="-7.5" font-family="Helvetica,sans-Serif" font-size="10.00" fill="#000000">src/model/ButtonState.cxx</text>
</a>
</g>
</g>
<!-- Node22&#45;&gt;Node23 -->
<g id="edge4" class="edge">
<title>Node22&#45;&gt;Node23</title>
<path fill="none" stroke="#191970" d="M110.5,-46.1575C110.5,-37.155 110.5,-26.9199 110.5,-19.6427"/>
<polygon fill="#191970" stroke="#191970" points="107.0001,-46.2455 110.5,-56.2455 114.0001,-46.2456 107.0001,-46.2455"/>
</g>
<!-- Node25 -->
<g id="node7" class="node">
<title>Node25</title>
<g id="a_node7"><a xlink:href="Game_8cxx.html" target="_top" xlink:title="src/Game.cxx">
<polygon fill="none" stroke="#000000" points="212,-112.5 212,-131.5 295,-131.5 295,-112.5 212,-112.5"/>
<text text-anchor="middle" x="253.5" y="-119.5" font-family="Helvetica,sans-Serif" font-size="10.00" fill="#000000">src/Game.cxx</text>
</a>
</g>
</g>
<!-- Node24&#45;&gt;Node25 -->
<g id="edge6" class="edge">
<title>Node24&#45;&gt;Node25</title>
<path fill="none" stroke="#191970" d="M261.9625,-158.4538C259.8561,-149.3803 257.4464,-138.9998 255.7385,-131.6427"/>
<polygon fill="#191970" stroke="#191970" points="258.5649,-159.2961 264.2356,-168.2455 265.3835,-157.7131 258.5649,-159.2961"/>
</g>
<!-- Node26 -->
<g id="node8" class="node">
<title>Node26</title>
<g id="a_node8"><a xlink:href="main_8cxx.html" target="_top" xlink:title="src/main.cxx">
<polygon fill="none" stroke="#000000" points="313,-112.5 313,-131.5 392,-131.5 392,-112.5 313,-112.5"/>
<text text-anchor="middle" x="352.5" y="-119.5" font-family="Helvetica,sans-Serif" font-size="10.00" fill="#000000">src/main.cxx</text>
</a>
</g>
</g>
<!-- Node24&#45;&gt;Node26 -->
<g id="edge7" class="edge">
<title>Node24&#45;&gt;Node26</title>
<path fill="none" stroke="#191970" d="M289.8905,-162.769C305.1299,-152.8456 324.5509,-140.1994 337.6916,-131.6427"/>
<polygon fill="#191970" stroke="#191970" points="287.9502,-159.8558 281.4801,-168.2455 291.7699,-165.7218 287.9502,-159.8558"/>
</g>
</g>
</svg>
