<?xml version="1.0" encoding="UTF-8" standalone="no"?>
<!DOCTYPE svg PUBLIC "-//W3C//DTD SVG 1.1//EN"
 "http://www.w3.org/Graphics/SVG/1.1/DTD/svg11.dtd">
<!-- Generated by graphviz version 2.40.1 (20161225.0304)
 -->
<!-- Title: fs::fileExists Pages: 1 -->
<!--zoomable 254 -->
<svg id="main" version="1.1" xmlns="http://www.w3.org/2000/svg" xmlns:xlink="http://www.w3.org/1999/xlink" xml:space="preserve" onload="init(evt)">
<style type="text/css"><![CDATA[
.edge:hover path { stroke: red; }
.edge:hover polygon { stroke: red; fill: red; }
]]></style>
<script type="text/javascript"><![CDATA[
var edges = document.getElementsByTagName('g');
if (edges && edges.length) {
  for (var i=0;i<edges.length;i++) {
    if (edges[i].id.substr(0,4)=='edge') {
      edges[i].setAttribute('class','edge');
    }
  }
}
]]></script>
        <defs>
                <circle id="rim" cx="0" cy="0" r="7"/>
                <circle id="rim2" cx="0" cy="0" r="3.5"/>
                <g id="zoomPlus">
                        <use xlink:href="#rim" fill="#404040">
                                <set attributeName="fill" to="#808080" begin="zoomplus.mouseover" end="zoomplus.mouseout"/>
                        </use>
                        <path d="M-4,0h8M0,-4v8" fill="none" stroke="white" stroke-width="1.5" pointer-events="none"/>
                </g>
                <g id="zoomMin">
                        <use xlink:href="#rim" fill="#404040">
                                <set attributeName="fill" to="#808080" begin="zoomminus.mouseover" end="zoomminus.mouseout"/>
                        </use>
                        <path d="M-4,0h8" fill="none" stroke="white" stroke-width="1.5" pointer-events="none"/>
                </g>
                <g id="dirArrow">
                        <path fill="none" stroke="white" stroke-width="1.5" d="M0,-3.0v7 M-2.5,-0.5L0,-3.0L2.5,-0.5"/>
                </g>
               <g id="resetDef">
                       <use xlink:href="#rim2" fill="#404040">
                               <set attributeName="fill" to="#808080" begin="reset.mouseover" end="reset.mouseout"/>
                       </use>
               </g>
        </defs>

<script type="text/javascript">
var viewWidth = 1224;
var viewHeight = 254;
var sectionId = 'dynsection-0';
</script>
<script xlink:href="svgpan.js"/>
<svg id="graph" class="graph">
<g id="viewport">
<title>fs::fileExists</title>
<!-- Node1 -->
<g id="node1" class="node">
<title>Node1</title>
<polygon fill="#bfbfbf" stroke="#000000" points="0,-57.5 0,-76.5 76,-76.5 76,-57.5 0,-57.5"/>
<text text-anchor="middle" x="38" y="-64.5" font-family="Helvetica,sans-Serif" font-size="10.00" fill="#000000">fs::fileExists</text>
</g>
<!-- Node2 -->
<g id="node2" class="node">
<title>Node2</title>
<g id="a_node2"><a xlink:href="classResourcesManager.html#a54721d26f52c4887b735d2cdaf60b078" target="_top" xlink:title="ResourcesManager::create\lSurfaceFromFile">
<polygon fill="none" stroke="#000000" points="132,-153 132,-183 277,-183 277,-153 132,-153"/>
<text text-anchor="start" x="140" y="-171" font-family="Helvetica,sans-Serif" font-size="10.00" fill="#000000">ResourcesManager::create</text>
<text text-anchor="middle" x="204.5" y="-160" font-family="Helvetica,sans-Serif" font-size="10.00" fill="#000000">SurfaceFromFile</text>
</a>
</g>
</g>
<!-- Node1&#45;&gt;Node2 -->
<g id="edge1" class="edge">
<title>Node1&#45;&gt;Node2</title>
<path fill="none" stroke="#191970" d="M62.2356,-81.7015C93.6,-100.7273 147.9687,-133.7077 179.6365,-152.9177"/>
<polygon fill="#191970" stroke="#191970" points="64.0291,-78.6958 53.6639,-76.5018 60.3986,-84.6808 64.0291,-78.6958"/>
</g>
<!-- Node10 -->
<g id="node10" class="node">
<title>Node10</title>
<g id="a_node10"><a xlink:href="classText.html#a3bf5a064fd37d06b8d3dc5a700556897" target="_top" xlink:title="Draws a text string to the screen Draws a text string to the screen. This could either be a standalon...">
<polygon fill="none" stroke="#000000" points="139.5,-76.5 139.5,-95.5 269.5,-95.5 269.5,-76.5 139.5,-76.5"/>
<text text-anchor="middle" x="204.5" y="-83.5" font-family="Helvetica,sans-Serif" font-size="10.00" fill="#000000">Text::createTextTexture</text>
</a>
</g>
</g>
<!-- Node1&#45;&gt;Node10 -->
<g id="edge10" class="edge">
<title>Node1&#45;&gt;Node10</title>
<path fill="none" stroke="#191970" d="M86.2067,-72.5011C102.8015,-74.3948 121.6687,-76.5478 139.3844,-78.5694"/>
<polygon fill="#191970" stroke="#191970" points="86.5308,-69.0154 76.1985,-71.359 85.7371,-75.9703 86.5308,-69.0154"/>
</g>
<!-- Node19 -->
<g id="node19" class="node">
<title>Node19</title>
<g id="a_node19"><a xlink:href="classWindowManager.html#a3a283b34c19aaa20296befaabad4d29b" target="_top" xlink:title="Construct a new WindowManager object. ">
<polygon fill="none" stroke="#000000" points="112,-38.5 112,-57.5 297,-57.5 297,-38.5 112,-38.5"/>
<text text-anchor="middle" x="204.5" y="-45.5" font-family="Helvetica,sans-Serif" font-size="10.00" fill="#000000">WindowManager::WindowManager</text>
</a>
</g>
</g>
<!-- Node1&#45;&gt;Node19 -->
<g id="edge20" class="edge">
<title>Node1&#45;&gt;Node19</title>
<path fill="none" stroke="#191970" d="M86.3272,-61.4852C97.237,-60.2402 109.1241,-58.8837 121.0175,-57.5265"/>
<polygon fill="#191970" stroke="#191970" points="85.7371,-58.0297 76.1985,-62.641 86.5308,-64.9846 85.7371,-58.0297"/>
</g>
<!-- Node20 -->
<g id="node20" class="node">
<title>Node20</title>
<g id="a_node20"><a xlink:href="desktop_2Filesystem_8cxx.html#a4d36fc93e1ad546bbbd83efa8a1ebba2" target="_top" xlink:title="forEachFileType">
<polygon fill="none" stroke="#000000" points="158.5,-.5 158.5,-19.5 250.5,-19.5 250.5,-.5 158.5,-.5"/>
<text text-anchor="middle" x="204.5" y="-7.5" font-family="Helvetica,sans-Serif" font-size="10.00" fill="#000000">forEachFileType</text>
</a>
</g>
</g>
<!-- Node1&#45;&gt;Node20 -->
<g id="edge21" class="edge">
<title>Node1&#45;&gt;Node20</title>
<path fill="none" stroke="#191970" d="M62.6092,-52.2177C76.659,-44.3333 94.844,-35.0396 112,-29 126.6908,-23.8282 143.2165,-19.8783 158.1922,-16.9557"/>
<polygon fill="#191970" stroke="#191970" points="60.5314,-49.375 53.6066,-57.3937 64.0204,-55.4435 60.5314,-49.375"/>
</g>
<!-- Node3 -->
<g id="node3" class="node">
<title>Node3</title>
<g id="a_node3"><a xlink:href="classResourcesManager.html#ab376a89547592db4cca25309eac2931c" target="_top" xlink:title="ResourcesManager::loadTexture">
<polygon fill="none" stroke="#000000" points="338.5,-201.5 338.5,-220.5 509.5,-220.5 509.5,-201.5 338.5,-201.5"/>
<text text-anchor="middle" x="424" y="-208.5" font-family="Helvetica,sans-Serif" font-size="10.00" fill="#000000">ResourcesManager::loadTexture</text>
</a>
</g>
</g>
<!-- Node2&#45;&gt;Node3 -->
<g id="edge2" class="edge">
<title>Node2&#45;&gt;Node3</title>
<path fill="none" stroke="#191970" d="M287.2305,-184.2069C316.9136,-190.0218 349.4086,-196.3876 375.2741,-201.4546"/>
<polygon fill="#191970" stroke="#191970" points="287.7718,-180.7465 277.2854,-182.2587 286.426,-187.6159 287.7718,-180.7465"/>
</g>
<!-- Node8 -->
<g id="node8" class="node">
<title>Node8</title>
<g id="a_node8"><a xlink:href="classResourcesManager.html#ac221a499e20ca7aedd00028842c7a101" target="_top" xlink:title="ResourcesManager::loadUITexture">
<polygon fill="none" stroke="#000000" points="333,-158.5 333,-177.5 515,-177.5 515,-158.5 333,-158.5"/>
<text text-anchor="middle" x="424" y="-165.5" font-family="Helvetica,sans-Serif" font-size="10.00" fill="#000000">ResourcesManager::loadUITexture</text>
</a>
</g>
</g>
<!-- Node2&#45;&gt;Node8 -->
<g id="edge8" class="edge">
<title>Node2&#45;&gt;Node8</title>
<path fill="none" stroke="#191970" d="M287.3926,-168C302.1722,-168 317.6442,-168 332.6443,-168"/>
<polygon fill="#191970" stroke="#191970" points="287.2855,-164.5001 277.2854,-168 287.2854,-171.5001 287.2855,-164.5001"/>
</g>
<!-- Node4 -->
<g id="node4" class="node">
<title>Node4</title>
<g id="a_node4"><a xlink:href="classTileManager.html#a9e03faf9425ee26a2f5fb1fa4c94d173" target="_top" xlink:title="TileManager::addJSONObject\lToTileData">
<polygon fill="none" stroke="#000000" points="555,-202 555,-232 711,-232 711,-202 555,-202"/>
<text text-anchor="start" x="563" y="-220" font-family="Helvetica,sans-Serif" font-size="10.00" fill="#000000">TileManager::addJSONObject</text>
<text text-anchor="middle" x="633" y="-209" font-family="Helvetica,sans-Serif" font-size="10.00" fill="#000000">ToTileData</text>
</a>
</g>
</g>
<!-- Node3&#45;&gt;Node4 -->
<g id="edge3" class="edge">
<title>Node3&#45;&gt;Node4</title>
<path fill="none" stroke="#191970" d="M519.8697,-213.7522C531.6028,-214.0891 543.482,-214.4301 554.9103,-214.7582"/>
<polygon fill="#191970" stroke="#191970" points="519.7077,-210.2462 509.6113,-213.4577 519.5067,-217.2434 519.7077,-210.2462"/>
</g>
<!-- Node5 -->
<g id="node5" class="node">
<title>Node5</title>
<g id="a_node5"><a xlink:href="classTileManager.html#a1575d9a9530e13fe0286b8fece9e47ea" target="_top" xlink:title="TileManager::init">
<polygon fill="none" stroke="#000000" points="751,-207.5 751,-226.5 849,-226.5 849,-207.5 751,-207.5"/>
<text text-anchor="middle" x="800" y="-214.5" font-family="Helvetica,sans-Serif" font-size="10.00" fill="#000000">TileManager::init</text>
</a>
</g>
</g>
<!-- Node4&#45;&gt;Node5 -->
<g id="edge4" class="edge">
<title>Node4&#45;&gt;Node5</title>
<path fill="none" stroke="#191970" d="M721.3214,-217C731.5119,-217 741.6063,-217 750.9948,-217"/>
<polygon fill="#191970" stroke="#191970" points="721.1215,-213.5001 711.1215,-217 721.1214,-220.5001 721.1215,-213.5001"/>
</g>
<!-- Node6 -->
<g id="node6" class="node">
<title>Node6</title>
<g id="a_node6"><a xlink:href="classTileManager.html#ac6f5d9eb4db57f9ad597223658574394" target="_top" xlink:title="TileManager::TileManager">
<polygon fill="none" stroke="#000000" points="885,-226.5 885,-245.5 1028,-245.5 1028,-226.5 885,-226.5"/>
<text text-anchor="middle" x="956.5" y="-233.5" font-family="Helvetica,sans-Serif" font-size="10.00" fill="#000000">TileManager::TileManager</text>
</a>
</g>
</g>
<!-- Node5&#45;&gt;Node6 -->
<g id="edge5" class="edge">
<title>Node5&#45;&gt;Node6</title>
<path fill="none" stroke="#191970" d="M859.1731,-224.184C867.5918,-225.206 876.3242,-226.2662 884.9473,-227.3131"/>
<polygon fill="#191970" stroke="#191970" points="859.4371,-220.6904 849.0882,-222.9596 858.5934,-227.6394 859.4371,-220.6904"/>
</g>
<!-- Node7 -->
<g id="node7" class="node">
<title>Node7</title>
<g id="a_node7"><a xlink:href="classTileManager.html#af094937b10637c493557e22b42cf25ed" target="_top" xlink:title="TileManager::getAllTileData">
<polygon fill="none" stroke="#000000" points="1064,-207.5 1064,-226.5 1216,-226.5 1216,-207.5 1064,-207.5"/>
<text text-anchor="middle" x="1140" y="-214.5" font-family="Helvetica,sans-Serif" font-size="10.00" fill="#000000">TileManager::getAllTileData</text>
</a>
</g>
</g>
<!-- Node5&#45;&gt;Node7 -->
<g id="edge7" class="edge">
<title>Node5&#45;&gt;Node7</title>
<path fill="none" stroke="#191970" d="M859.3322,-217C916.1451,-217 1002.1219,-217 1063.9405,-217"/>
<polygon fill="#191970" stroke="#191970" points="859.0758,-213.5001 849.0758,-217 859.0758,-220.5001 859.0758,-213.5001"/>
</g>
<!-- Node6&#45;&gt;Node7 -->
<g id="edge6" class="edge">
<title>Node6&#45;&gt;Node7</title>
<path fill="none" stroke="#191970" d="M1038.4402,-227.5157C1046.8686,-226.643 1055.4087,-225.7588 1063.7716,-224.8929"/>
<polygon fill="#191970" stroke="#191970" points="1037.8206,-224.0611 1028.2343,-228.5725 1038.5416,-231.0239 1037.8206,-224.0611"/>
</g>
<!-- Node9 -->
<g id="node9" class="node">
<title>Node9</title>
<g id="a_node9"><a xlink:href="classResourcesManager.html#a7fe5ff24c1df6a60214bea3ca474d155" target="_top" xlink:title="ResourcesManager::Resources\lManager">
<polygon fill="none" stroke="#000000" points="551,-153 551,-183 715,-183 715,-153 551,-153"/>
<text text-anchor="start" x="559" y="-171" font-family="Helvetica,sans-Serif" font-size="10.00" fill="#000000">ResourcesManager::Resources</text>
<text text-anchor="middle" x="633" y="-160" font-family="Helvetica,sans-Serif" font-size="10.00" fill="#000000">Manager</text>
</a>
</g>
</g>
<!-- Node8&#45;&gt;Node9 -->
<g id="edge9" class="edge">
<title>Node8&#45;&gt;Node9</title>
<path fill="none" stroke="#191970" d="M525.1284,-168C533.7268,-168 542.3558,-168 550.782,-168"/>
<polygon fill="#191970" stroke="#191970" points="525.0625,-164.5001 515.0625,-168 525.0624,-171.5001 525.0625,-164.5001"/>
</g>
<!-- Node11 -->
<g id="node11" class="node">
<title>Node11</title>
<g id="a_node11"><a xlink:href="classText.html#a14b9f0937696af5fd95317eb8313bf92" target="_top" xlink:title="sets the text for this text widget. ">
<polygon fill="none" stroke="#000000" points="385,-76.5 385,-95.5 463,-95.5 463,-76.5 385,-76.5"/>
<text text-anchor="middle" x="424" y="-83.5" font-family="Helvetica,sans-Serif" font-size="10.00" fill="#000000">Text::setText</text>
</a>
</g>
</g>
<!-- Node10&#45;&gt;Node11 -->
<g id="edge11" class="edge">
<title>Node10&#45;&gt;Node11</title>
<path fill="none" stroke="#191970" d="M280.03,-86C315.2705,-86 355.7415,-86 384.7815,-86"/>
<polygon fill="#191970" stroke="#191970" points="279.763,-82.5001 269.7629,-86 279.7629,-89.5001 279.763,-82.5001"/>
</g>
<!-- Node18 -->
<g id="node18" class="node">
<title>Node18</title>
<g id="a_node18"><a xlink:href="classText.html#af6db01e16738de0391ad928c54334f0e" target="_top" xlink:title="gets the Font size of this element gets the font size of the element ">
<polygon fill="none" stroke="#000000" points="374,-38.5 374,-57.5 474,-57.5 474,-38.5 374,-38.5"/>
<text text-anchor="middle" x="424" y="-45.5" font-family="Helvetica,sans-Serif" font-size="10.00" fill="#000000">Text::getFontSize</text>
</a>
</g>
</g>
<!-- Node10&#45;&gt;Node18 -->
<g id="edge19" class="edge">
<title>Node10&#45;&gt;Node18</title>
<path fill="none" stroke="#191970" d="M269.7095,-74.7109C303.003,-68.9471 342.8823,-62.0431 373.7562,-56.6982"/>
<polygon fill="#191970" stroke="#191970" points="268.8622,-71.3054 259.6058,-76.46 270.0563,-78.2028 268.8622,-71.3054"/>
</g>
<!-- Node12 -->
<g id="node12" class="node">
<title>Node12</title>
<g id="a_node12"><a xlink:href="classText.html#a398a47abd355749d9e99bf74aa6a4a8d" target="_top" xlink:title="Sets the Font size of this element. ">
<polygon fill="none" stroke="#000000" points="583.5,-114.5 583.5,-133.5 682.5,-133.5 682.5,-114.5 583.5,-114.5"/>
<text text-anchor="middle" x="633" y="-121.5" font-family="Helvetica,sans-Serif" font-size="10.00" fill="#000000">Text::setFontSize</text>
</a>
</g>
</g>
<!-- Node11&#45;&gt;Node12 -->
<g id="edge12" class="edge">
<title>Node11&#45;&gt;Node12</title>
<path fill="none" stroke="#191970" d="M473.2358,-94.952C506.3647,-100.9754 549.8971,-108.8904 583.153,-114.9369"/>
<polygon fill="#191970" stroke="#191970" points="473.7761,-91.4929 463.3113,-93.1475 472.5239,-98.38 473.7761,-91.4929"/>
</g>
<!-- Node13 -->
<g id="node13" class="node">
<title>Node13</title>
<g id="a_node13"><a xlink:href="classText.html#ab3e26143fccc52699bcc5149cae852bc" target="_top" xlink:title="default Constructor ">
<polygon fill="none" stroke="#000000" points="768.5,-95.5 768.5,-114.5 831.5,-114.5 831.5,-95.5 768.5,-95.5"/>
<text text-anchor="middle" x="800" y="-102.5" font-family="Helvetica,sans-Serif" font-size="10.00" fill="#000000">Text::Text</text>
</a>
</g>
</g>
<!-- Node11&#45;&gt;Node13 -->
<g id="edge14" class="edge">
<title>Node11&#45;&gt;Node13</title>
<path fill="none" stroke="#191970" d="M473.2929,-88.4909C551.7847,-92.4572 702.9826,-100.0975 768.4746,-103.407"/>
<polygon fill="#191970" stroke="#191970" points="473.3385,-84.9888 463.1745,-87.9796 472.9851,-91.9799 473.3385,-84.9888"/>
</g>
<!-- Node14 -->
<g id="node14" class="node">
<title>Node14</title>
<g id="a_node14"><a xlink:href="classTextField.html#abe03b4b6ebf469645940cfa018bcdca2" target="_top" xlink:title="TextField::addText">
<polygon fill="none" stroke="#000000" points="581,-38.5 581,-57.5 685,-57.5 685,-38.5 581,-38.5"/>
<text text-anchor="middle" x="633" y="-45.5" font-family="Helvetica,sans-Serif" font-size="10.00" fill="#000000">TextField::addText</text>
</a>
</g>
</g>
<!-- Node11&#45;&gt;Node14 -->
<g id="edge15" class="edge">
<title>Node11&#45;&gt;Node14</title>
<path fill="none" stroke="#191970" d="M473.4404,-77.0108C505.7786,-71.1312 547.9636,-63.4612 580.8353,-57.4845"/>
<polygon fill="#191970" stroke="#191970" points="472.5239,-73.62 463.3113,-78.8525 473.7761,-80.5071 472.5239,-73.62"/>
</g>
<!-- Node15 -->
<g id="node15" class="node">
<title>Node15</title>
<g id="a_node15"><a xlink:href="classGame.html#a560299f0291c281f7b44e7ef0dd7b264" target="_top" xlink:title="initializes and displays the main menu initializes and displays the main menu ">
<polygon fill="none" stroke="#000000" points="581.5,-.5 581.5,-19.5 684.5,-19.5 684.5,-.5 581.5,-.5"/>
<text text-anchor="middle" x="633" y="-7.5" font-family="Helvetica,sans-Serif" font-size="10.00" fill="#000000">Game::mainMenu</text>
</a>
</g>
</g>
<!-- Node11&#45;&gt;Node15 -->
<g id="edge16" class="edge">
<title>Node11&#45;&gt;Node15</title>
<path fill="none" stroke="#191970" d="M473.1089,-81.3361C487.2626,-78.5424 502.2993,-74.0897 515,-67 535.3138,-55.6606 530.8113,-40.5607 551,-29 560.2573,-23.6989 570.9029,-19.8762 581.3921,-17.1197"/>
<polygon fill="#191970" stroke="#191970" points="472.2584,-77.9313 463.0049,-83.0911 473.4564,-84.8281 472.2584,-77.9313"/>
</g>
<!-- Node12&#45;&gt;Node13 -->
<g id="edge13" class="edge">
<title>Node12&#45;&gt;Node13</title>
<path fill="none" stroke="#191970" d="M692.6095,-117.2181C718.1039,-114.3175 746.8427,-111.0478 768.1709,-108.6213"/>
<polygon fill="#191970" stroke="#191970" points="692.1936,-113.7427 682.6534,-118.3508 692.9849,-120.6979 692.1936,-113.7427"/>
</g>
<!-- Node16 -->
<g id="node16" class="node">
<title>Node16</title>
<g id="a_node16"><a xlink:href="main_8cxx.html#af582d708d899e67ead623eac34a22387" target="_top" xlink:title="protected_main">
<polygon fill="none" stroke="#000000" points="753.5,-.5 753.5,-19.5 846.5,-19.5 846.5,-.5 753.5,-.5"/>
<text text-anchor="middle" x="800" y="-7.5" font-family="Helvetica,sans-Serif" font-size="10.00" fill="#000000">protected_main</text>
</a>
</g>
</g>
<!-- Node15&#45;&gt;Node16 -->
<g id="edge17" class="edge">
<title>Node15&#45;&gt;Node16</title>
<path fill="none" stroke="#191970" d="M695.1564,-10C714.476,-10 735.4297,-10 753.4899,-10"/>
<polygon fill="#191970" stroke="#191970" points="694.9245,-6.5001 684.9244,-10 694.9244,-13.5001 694.9245,-6.5001"/>
</g>
<!-- Node17 -->
<g id="node17" class="node">
<title>Node17</title>
<g id="a_node17"><a xlink:href="main_8cxx.html#a3c04138a5bfe5d72780bb7e82a18e627" target="_top" xlink:title="main">
<polygon fill="none" stroke="#000000" points="936,-.5 936,-19.5 977,-19.5 977,-.5 936,-.5"/>
<text text-anchor="middle" x="956.5" y="-7.5" font-family="Helvetica,sans-Serif" font-size="10.00" fill="#000000">main</text>
</a>
</g>
</g>
<!-- Node16&#45;&gt;Node17 -->
<g id="edge18" class="edge">
<title>Node16&#45;&gt;Node17</title>
<path fill="none" stroke="#191970" d="M856.8876,-10C884.482,-10 915.9146,-10 935.9637,-10"/>
<polygon fill="#191970" stroke="#191970" points="856.5315,-6.5001 846.5314,-10 856.5314,-13.5001 856.5315,-6.5001"/>
</g>
</g>
</svg>
        <g id="navigator" transform="translate(0 0)" fill="#404254">
                <rect fill="#f2f5e9" fill-opacity="0.5" stroke="#606060" stroke-width=".5" x="0" y="0" width="60" height="60"/>
                <use id="zoomplus" xlink:href="#zoomPlus" x="17" y="9" onmousedown="handleZoom(evt,'in')"/>
                <use id="zoomminus" xlink:href="#zoomMin" x="42" y="9" onmousedown="handleZoom(evt,'out')"/>
                <use id="reset" xlink:href="#resetDef" x="30" y="36" onmousedown="handleReset()"/>
                <g id="arrowUp" xlink:href="#dirArrow" transform="translate(30 24)" onmousedown="handlePan(0,-1)">
                  <use xlink:href="#rim" fill="#404040">
                        <set attributeName="fill" to="#808080" begin="arrowUp.mouseover" end="arrowUp.mouseout"/>
                  </use>
                  <path fill="none" stroke="white" stroke-width="1.5" d="M0,-3.0v7 M-2.5,-0.5L0,-3.0L2.5,-0.5"/>
                </g>
                <g id="arrowRight" xlink:href="#dirArrow" transform="rotate(90) translate(36 -43)" onmousedown="handlePan(1,0)">
                  <use xlink:href="#rim" fill="#404040">
                        <set attributeName="fill" to="#808080" begin="arrowRight.mouseover" end="arrowRight.mouseout"/>
                  </use>
                  <path fill="none" stroke="white" stroke-width="1.5" d="M0,-3.0v7 M-2.5,-0.5L0,-3.0L2.5,-0.5"/>
                </g>
                <g id="arrowDown" xlink:href="#dirArrow" transform="rotate(180) translate(-30 -48)" onmousedown="handlePan(0,1)">
                  <use xlink:href="#rim" fill="#404040">
                        <set attributeName="fill" to="#808080" begin="arrowDown.mouseover" end="arrowDown.mouseout"/>
                  </use>
                  <path fill="none" stroke="white" stroke-width="1.5" d="M0,-3.0v7 M-2.5,-0.5L0,-3.0L2.5,-0.5"/>
                </g>
                <g id="arrowLeft" xlink:href="#dirArrow" transform="rotate(270) translate(-36 17)" onmousedown="handlePan(-1,0)">
                  <use xlink:href="#rim" fill="#404040">
                        <set attributeName="fill" to="#808080" begin="arrowLeft.mouseover" end="arrowLeft.mouseout"/>
                  </use>
                  <path fill="none" stroke="white" stroke-width="1.5" d="M0,-3.0v7 M-2.5,-0.5L0,-3.0L2.5,-0.5"/>
                </g>
        </g>
        <svg viewBox="0 0 15 15" width="100%" height="30px" preserveAspectRatio="xMaxYMin meet">
         <g id="arrow_out" transform="scale(0.3 0.3)">
          <a xlink:href="namespacefs_a000d1f9ae14d782b6193298e6d27023f_icgraph_org.svg" target="_base">
           <rect id="button" ry="5" rx="5" y="6" x="6" height="38" width="38"
                fill="#f2f5e9" fill-opacity="0.5" stroke="#606060" stroke-width="1.0"/>
           <path id="arrow"
             d="M 11.500037,31.436501 C 11.940474,20.09759 22.043105,11.32322 32.158766,21.979434 L 37.068811,17.246167 C 37.068811,17.246167 37.088388,32 37.088388,32 L 22.160133,31.978069 C 22.160133,31.978069 26.997745,27.140456 26.997745,27.140456 C 18.528582,18.264221 13.291696,25.230495 11.500037,31.436501 z"
             style="fill:#404040;"/>
          </a>
         </g>
        </svg>
</svg>
