<?xml version="1.0" encoding="UTF-8" standalone="no"?>
<!DOCTYPE svg PUBLIC "-//W3C//DTD SVG 1.1//EN"
 "http://www.w3.org/Graphics/SVG/1.1/DTD/svg11.dtd">
<!-- Generated by graphviz version 2.40.1 (20161225.0304)
 -->
<!-- Title: fs::readFileAsString Pages: 1 -->
<svg width="745pt" height="389pt"
 viewBox="0.00 0.00 745.00 389.00" xmlns="http://www.w3.org/2000/svg" xmlns:xlink="http://www.w3.org/1999/xlink">
<g id="graph0" class="graph" transform="scale(1 1) rotate(0) translate(4 385)">
<title>fs::readFileAsString</title>
<!-- Node54 -->
<g id="node1" class="node">
<title>Node54</title>
<polygon fill="#bfbfbf" stroke="#000000" points="0,-164.5 0,-183.5 110,-183.5 110,-164.5 0,-164.5"/>
<text text-anchor="middle" x="55" y="-171.5" font-family="Helvetica,sans-Serif" font-size="10.00" fill="#000000">fs::readFileAsString</text>
</g>
<!-- Node55 -->
<g id="node2" class="node">
<title>Node55</title>
<g id="a_node2"><a xlink:href="classSettings.html#adb0042e7d1b48ef2888966b4eaefb751" target="_top" xlink:title="Load settings from file. ">
<polygon fill="none" stroke="#000000" points="197,-361.5 197,-380.5 298,-380.5 298,-361.5 197,-361.5"/>
<text text-anchor="middle" x="247.5" y="-368.5" font-family="Helvetica,sans-Serif" font-size="10.00" fill="#000000">Settings::readFile</text>
</a>
</g>
</g>
<!-- Node54&#45;&gt;Node55 -->
<g id="edge1" class="edge">
<title>Node54&#45;&gt;Node55</title>
<path fill="none" stroke="#191970" d="M59.0668,-193.7324C67.8578,-231.0713 92.3284,-311.9034 146,-352 160.5059,-362.8369 179.3647,-368.0803 196.8838,-370.4569"/>
<polygon fill="#191970" stroke="#191970" points="62.4094,-192.6389 56.8271,-183.634 55.5755,-194.1547 62.4094,-192.6389"/>
</g>
<!-- Node57 -->
<g id="node4" class="node">
<title>Node57</title>
<g id="a_node4"><a xlink:href="classMap.html#afefe996cc1f62b61ec60d0ae415953bf" target="_top" xlink:title="Map\&lt; ObserverSPtr\&lt;\l Notification \&gt;, Set\l\&lt; typename Notification\l::TransitionType \&gt; \&gt;::loadMapFromFile">
<polygon fill="none" stroke="#000000" points="146,-290 146,-342 349,-342 349,-290 146,-290"/>
<text text-anchor="start" x="154" y="-330" font-family="Helvetica,sans-Serif" font-size="10.00" fill="#000000">Map&lt; ObserverSPtr&lt;</text>
<text text-anchor="start" x="154" y="-319" font-family="Helvetica,sans-Serif" font-size="10.00" fill="#000000"> Notification &gt;, Set</text>
<text text-anchor="start" x="154" y="-308" font-family="Helvetica,sans-Serif" font-size="10.00" fill="#000000">&lt; typename Notification</text>
<text text-anchor="middle" x="247.5" y="-297" font-family="Helvetica,sans-Serif" font-size="10.00" fill="#000000">::TransitionType &gt; &gt;::loadMapFromFile</text>
</a>
</g>
</g>
<!-- Node54&#45;&gt;Node57 -->
<g id="edge3" class="edge">
<title>Node54&#45;&gt;Node57</title>
<path fill="none" stroke="#191970" d="M66.2361,-192.5279C81.5028,-216.2305 110.952,-257.0715 146,-281 150.7722,-284.2581 155.8769,-287.2404 161.1638,-289.9659"/>
<polygon fill="#191970" stroke="#191970" points="69.0363,-190.4055 60.756,-183.7959 63.1072,-194.1266 69.0363,-190.4055"/>
</g>
<!-- Node58 -->
<g id="node5" class="node">
<title>Node58</title>
<g id="a_node5"><a xlink:href="classTerrainGenerator.html#ac94cfaeb9dc89453018399361da5174a" target="_top" xlink:title="TerrainGenerator::loadTerrain\lDataFromJSON">
<polygon fill="none" stroke="#000000" points="168.5,-241 168.5,-271 326.5,-271 326.5,-241 168.5,-241"/>
<text text-anchor="start" x="176.5" y="-259" font-family="Helvetica,sans-Serif" font-size="10.00" fill="#000000">TerrainGenerator::loadTerrain</text>
<text text-anchor="middle" x="247.5" y="-248" font-family="Helvetica,sans-Serif" font-size="10.00" fill="#000000">DataFromJSON</text>
</a>
</g>
</g>
<!-- Node54&#45;&gt;Node58 -->
<g id="edge4" class="edge">
<title>Node54&#45;&gt;Node58</title>
<path fill="none" stroke="#191970" d="M75.9895,-189.867C93.7828,-202.6315 120.4179,-220.1677 146,-231 154.9408,-234.7858 164.5776,-238.0811 174.2289,-240.9256"/>
<polygon fill="#191970" stroke="#191970" points="77.6805,-186.7675 67.5432,-183.6878 73.5474,-192.417 77.6805,-186.7675"/>
</g>
<!-- Node61 -->
<g id="node8" class="node">
<title>Node61</title>
<g id="a_node8"><a xlink:href="classResourcesManager.html#ac221a499e20ca7aedd00028842c7a101" target="_top" xlink:title="ResourcesManager::loadUITexture">
<polygon fill="none" stroke="#000000" points="156.5,-202.5 156.5,-221.5 338.5,-221.5 338.5,-202.5 156.5,-202.5"/>
<text text-anchor="middle" x="247.5" y="-209.5" font-family="Helvetica,sans-Serif" font-size="10.00" fill="#000000">ResourcesManager::loadUITexture</text>
</a>
</g>
</g>
<!-- Node54&#45;&gt;Node61 -->
<g id="edge7" class="edge">
<title>Node54&#45;&gt;Node61</title>
<path fill="none" stroke="#191970" d="M109.7146,-185.6163C121.6638,-188.0994 134.2497,-190.6738 146,-193 162.0915,-196.1856 179.6467,-199.5213 195.5637,-202.4928"/>
<polygon fill="#191970" stroke="#191970" points="110.3635,-182.1764 99.8593,-183.5594 108.9333,-189.0287 110.3635,-182.1764"/>
</g>
<!-- Node63 -->
<g id="node10" class="node">
<title>Node63</title>
<g id="a_node10"><a xlink:href="classTileManager.html#a1575d9a9530e13fe0286b8fece9e47ea" target="_top" xlink:title="TileManager::init">
<polygon fill="none" stroke="#000000" points="198.5,-164.5 198.5,-183.5 296.5,-183.5 296.5,-164.5 198.5,-164.5"/>
<text text-anchor="middle" x="247.5" y="-171.5" font-family="Helvetica,sans-Serif" font-size="10.00" fill="#000000">TileManager::init</text>
</a>
</g>
</g>
<!-- Node54&#45;&gt;Node63 -->
<g id="edge9" class="edge">
<title>Node54&#45;&gt;Node63</title>
<path fill="none" stroke="#191970" d="M120.4787,-174C145.9305,-174 174.5905,-174 198.2369,-174"/>
<polygon fill="#191970" stroke="#191970" points="120.1628,-170.5001 110.1628,-174 120.1627,-177.5001 120.1628,-170.5001"/>
</g>
<!-- Node66 -->
<g id="node13" class="node">
<title>Node66</title>
<g id="a_node13"><a xlink:href="UIManager_8cxx.html#a93ebc51d97942bf4e32123b5c61c4141" target="_top" xlink:title="BETTER_ENUM">
<polygon fill="none" stroke="#000000" points="203,-126.5 203,-145.5 292,-145.5 292,-126.5 203,-126.5"/>
<text text-anchor="middle" x="247.5" y="-133.5" font-family="Helvetica,sans-Serif" font-size="10.00" fill="#000000">BETTER_ENUM</text>
</a>
</g>
</g>
<!-- Node54&#45;&gt;Node66 -->
<g id="edge13" class="edge">
<title>Node54&#45;&gt;Node66</title>
<path fill="none" stroke="#191970" d="M109.7146,-162.3837C121.6638,-159.9006 134.2497,-157.3262 146,-155 164.6415,-151.3096 185.2474,-147.4178 202.995,-144.1241"/>
<polygon fill="#191970" stroke="#191970" points="108.9333,-158.9713 99.8593,-164.4406 110.3635,-165.8236 108.9333,-158.9713"/>
</g>
<!-- Node67 -->
<g id="node14" class="node">
<title>Node67</title>
<g id="a_node14"><a xlink:href="classAudioMixer.html#add40bb51b99554f0408efe1630bf983d" target="_top" xlink:title="AudioMixer::AudioMixer">
<polygon fill="none" stroke="#000000" points="181.5,-88.5 181.5,-107.5 313.5,-107.5 313.5,-88.5 181.5,-88.5"/>
<text text-anchor="middle" x="247.5" y="-95.5" font-family="Helvetica,sans-Serif" font-size="10.00" fill="#000000">AudioMixer::AudioMixer</text>
</a>
</g>
</g>
<!-- Node54&#45;&gt;Node67 -->
<g id="edge14" class="edge">
<title>Node54&#45;&gt;Node67</title>
<path fill="none" stroke="#191970" d="M75.2313,-158.1961C92.928,-145.1661 119.8267,-127.2215 146,-117 157.105,-112.6631 169.2897,-109.2973 181.2438,-106.6907"/>
<polygon fill="#191970" stroke="#191970" points="72.7504,-155.6829 66.8684,-164.495 76.9619,-161.2744 72.7504,-155.6829"/>
</g>
<!-- Node68 -->
<g id="node15" class="node">
<title>Node68</title>
<g id="a_node15"><a xlink:href="classResourceManager.html#a9825fcd46b3af5c1f1bf22eb8dd23936" target="_top" xlink:title="Creates the ResourceManager. ">
<polygon fill="none" stroke="#000000" points="171,-39 171,-69 324,-69 324,-39 171,-39"/>
<text text-anchor="start" x="179" y="-57" font-family="Helvetica,sans-Serif" font-size="10.00" fill="#000000">ResourceManager::Resource</text>
<text text-anchor="middle" x="247.5" y="-46" font-family="Helvetica,sans-Serif" font-size="10.00" fill="#000000">Manager</text>
</a>
</g>
</g>
<!-- Node54&#45;&gt;Node68 -->
<g id="edge15" class="edge">
<title>Node54&#45;&gt;Node68</title>
<path fill="none" stroke="#191970" d="M67.1152,-156.1896C82.7741,-134.5778 112.0906,-98.6048 146,-79 153.6986,-74.5491 162.1686,-70.8861 170.8327,-67.8725"/>
<polygon fill="#191970" stroke="#191970" points="64.1695,-154.2935 61.2668,-164.483 69.8902,-158.3277 64.1695,-154.2935"/>
</g>
<!-- Node69 -->
<g id="node16" class="node">
<title>Node69</title>
<g id="a_node16"><a xlink:href="desktop_2Filesystem_8cxx.html#a4d36fc93e1ad546bbbd83efa8a1ebba2" target="_top" xlink:title="forEachFileType">
<polygon fill="none" stroke="#000000" points="201.5,-.5 201.5,-19.5 293.5,-19.5 293.5,-.5 201.5,-.5"/>
<text text-anchor="middle" x="247.5" y="-7.5" font-family="Helvetica,sans-Serif" font-size="10.00" fill="#000000">forEachFileType</text>
</a>
</g>
</g>
<!-- Node54&#45;&gt;Node69 -->
<g id="edge16" class="edge">
<title>Node54&#45;&gt;Node69</title>
<path fill="none" stroke="#191970" d="M61.2792,-154.8296C72.7147,-123.1451 100.0886,-60.2546 146,-29 162.0793,-18.0539 182.7613,-12.9734 201.2562,-10.7527"/>
<polygon fill="#191970" stroke="#191970" points="57.969,-153.6929 58.0083,-164.2877 64.5846,-155.9808 57.969,-153.6929"/>
</g>
<!-- Node56 -->
<g id="node3" class="node">
<title>Node56</title>
<g id="a_node3"><a xlink:href="classSettings.html#ab7169a6eefce79566dd07db3b1e5e967" target="_top" xlink:title="Settings::Settings">
<polygon fill="none" stroke="#000000" points="416,-361.5 416,-380.5 518,-380.5 518,-361.5 416,-361.5"/>
<text text-anchor="middle" x="467" y="-368.5" font-family="Helvetica,sans-Serif" font-size="10.00" fill="#000000">Settings::Settings</text>
</a>
</g>
</g>
<!-- Node55&#45;&gt;Node56 -->
<g id="edge2" class="edge">
<title>Node55&#45;&gt;Node56</title>
<path fill="none" stroke="#191970" d="M308.3561,-371C342.1626,-371 383.7488,-371 415.861,-371"/>
<polygon fill="#191970" stroke="#191970" points="308.1334,-367.5001 298.1333,-371 308.1333,-374.5001 308.1334,-367.5001"/>
</g>
<!-- Node59 -->
<g id="node6" class="node">
<title>Node59</title>
<g id="a_node6"><a xlink:href="classTerrainGenerator.html#afd2668a80a6f5043d2b8d6c7a5044ede" target="_top" xlink:title="TerrainGenerator::generate\lTerrain">
<polygon fill="none" stroke="#000000" points="393,-249 393,-279 541,-279 541,-249 393,-249"/>
<text text-anchor="start" x="401" y="-267" font-family="Helvetica,sans-Serif" font-size="10.00" fill="#000000">TerrainGenerator::generate</text>
<text text-anchor="middle" x="467" y="-256" font-family="Helvetica,sans-Serif" font-size="10.00" fill="#000000">Terrain</text>
</a>
</g>
</g>
<!-- Node58&#45;&gt;Node59 -->
<g id="edge5" class="edge">
<title>Node58&#45;&gt;Node59</title>
<path fill="none" stroke="#191970" d="M336.9868,-259.2615C355.5976,-259.9398 375.0138,-260.6474 392.9933,-261.3027"/>
<polygon fill="#191970" stroke="#191970" points="336.8654,-255.7548 326.7445,-258.8882 336.6104,-262.7502 336.8654,-255.7548"/>
</g>
<!-- Node60 -->
<g id="node7" class="node">
<title>Node60</title>
<g id="a_node7"><a xlink:href="classMap.html#a26eceeccd7b6ed693909b1927a25c67a" target="_top" xlink:title="Map\&lt; ObserverSPtr\&lt;\l Notification \&gt;, Set\l\&lt; typename Notification\l::TransitionType \&gt; \&gt;::Map">
<polygon fill="none" stroke="#000000" points="590.5,-238 590.5,-290 731.5,-290 731.5,-238 590.5,-238"/>
<text text-anchor="start" x="598.5" y="-278" font-family="Helvetica,sans-Serif" font-size="10.00" fill="#000000">Map&lt; ObserverSPtr&lt;</text>
<text text-anchor="start" x="598.5" y="-267" font-family="Helvetica,sans-Serif" font-size="10.00" fill="#000000"> Notification &gt;, Set</text>
<text text-anchor="start" x="598.5" y="-256" font-family="Helvetica,sans-Serif" font-size="10.00" fill="#000000">&lt; typename Notification</text>
<text text-anchor="middle" x="661" y="-245" font-family="Helvetica,sans-Serif" font-size="10.00" fill="#000000">::TransitionType &gt; &gt;::Map</text>
</a>
</g>
</g>
<!-- Node59&#45;&gt;Node60 -->
<g id="edge6" class="edge">
<title>Node59&#45;&gt;Node60</title>
<path fill="none" stroke="#191970" d="M551.496,-264C564.4711,-264 577.7497,-264 590.3822,-264"/>
<polygon fill="#191970" stroke="#191970" points="551.1735,-260.5001 541.1735,-264 551.1734,-267.5001 551.1735,-260.5001"/>
</g>
<!-- Node62 -->
<g id="node9" class="node">
<title>Node62</title>
<g id="a_node9"><a xlink:href="classResourcesManager.html#a7fe5ff24c1df6a60214bea3ca474d155" target="_top" xlink:title="ResourcesManager::Resources\lManager">
<polygon fill="none" stroke="#000000" points="385,-200 385,-230 549,-230 549,-200 385,-200"/>
<text text-anchor="start" x="393" y="-218" font-family="Helvetica,sans-Serif" font-size="10.00" fill="#000000">ResourcesManager::Resources</text>
<text text-anchor="middle" x="467" y="-207" font-family="Helvetica,sans-Serif" font-size="10.00" fill="#000000">Manager</text>
</a>
</g>
</g>
<!-- Node61&#45;&gt;Node62 -->
<g id="edge8" class="edge">
<title>Node61&#45;&gt;Node62</title>
<path fill="none" stroke="#191970" d="M348.7879,-213.3843C360.8742,-213.5495 373.0981,-213.7166 384.8688,-213.8775"/>
<polygon fill="#191970" stroke="#191970" points="348.7278,-209.8833 338.6808,-213.2462 348.632,-216.8826 348.7278,-209.8833"/>
</g>
<!-- Node64 -->
<g id="node11" class="node">
<title>Node64</title>
<g id="a_node11"><a xlink:href="classTileManager.html#ac6f5d9eb4db57f9ad597223658574394" target="_top" xlink:title="TileManager::TileManager">
<polygon fill="none" stroke="#000000" points="395.5,-161.5 395.5,-180.5 538.5,-180.5 538.5,-161.5 395.5,-161.5"/>
<text text-anchor="middle" x="467" y="-168.5" font-family="Helvetica,sans-Serif" font-size="10.00" fill="#000000">TileManager::TileManager</text>
</a>
</g>
</g>
<!-- Node63&#45;&gt;Node64 -->
<g id="edge10" class="edge">
<title>Node63&#45;&gt;Node64</title>
<path fill="none" stroke="#191970" d="M306.9376,-173.1876C334.2194,-172.8148 366.7946,-172.3696 395.4146,-171.9784"/>
<polygon fill="#191970" stroke="#191970" points="306.7113,-169.6903 296.7601,-173.3267 306.807,-176.6897 306.7113,-169.6903"/>
</g>
<!-- Node65 -->
<g id="node12" class="node">
<title>Node65</title>
<g id="a_node12"><a xlink:href="classTileManager.html#af094937b10637c493557e22b42cf25ed" target="_top" xlink:title="TileManager::getAllTileData">
<polygon fill="none" stroke="#000000" points="585,-142.5 585,-161.5 737,-161.5 737,-142.5 585,-142.5"/>
<text text-anchor="middle" x="661" y="-149.5" font-family="Helvetica,sans-Serif" font-size="10.00" fill="#000000">TileManager::getAllTileData</text>
</a>
</g>
</g>
<!-- Node63&#45;&gt;Node65 -->
<g id="edge12" class="edge">
<title>Node63&#45;&gt;Node65</title>
<path fill="none" stroke="#191970" d="M304.8814,-162.7353C329.4487,-158.4547 358.5239,-154.1047 385,-152 452.35,-146.646 529.2371,-147.1898 584.7244,-148.7588"/>
<polygon fill="#191970" stroke="#191970" points="304.2336,-159.2955 295.0022,-164.4945 305.4609,-166.187 304.2336,-159.2955"/>
</g>
<!-- Node64&#45;&gt;Node65 -->
<g id="edge11" class="edge">
<title>Node64&#45;&gt;Node65</title>
<path fill="none" stroke="#191970" d="M548.6413,-163.0042C560.6004,-161.833 572.8791,-160.6304 584.7252,-159.4702"/>
<polygon fill="#191970" stroke="#191970" points="548.2985,-159.5209 538.6873,-163.9791 548.9808,-166.4876 548.2985,-159.5209"/>
</g>
</g>
</svg>
