<?xml version="1.0" encoding="UTF-8" standalone="no"?>
<!DOCTYPE svg PUBLIC "-//W3C//DTD SVG 1.1//EN"
 "http://www.w3.org/Graphics/SVG/1.1/DTD/svg11.dtd">
<!-- Generated by graphviz version 2.40.1 (20161225.0304)
 -->
<!-- Title: fs::getBasePath Pages: 1 -->
<!--zoomable 432 -->
<svg id="main" version="1.1" xmlns="http://www.w3.org/2000/svg" xmlns:xlink="http://www.w3.org/1999/xlink" xml:space="preserve" onload="init(evt)">
<style type="text/css"><![CDATA[
.edge:hover path { stroke: red; }
.edge:hover polygon { stroke: red; fill: red; }
]]></style>
<script type="text/javascript"><![CDATA[
var edges = document.getElementsByTagName('g');
if (edges && edges.length) {
  for (var i=0;i<edges.length;i++) {
    if (edges[i].id.substr(0,4)=='edge') {
      edges[i].setAttribute('class','edge');
    }
  }
}
]]></script>
        <defs>
                <circle id="rim" cx="0" cy="0" r="7"/>
                <circle id="rim2" cx="0" cy="0" r="3.5"/>
                <g id="zoomPlus">
                        <use xlink:href="#rim" fill="#404040">
                                <set attributeName="fill" to="#808080" begin="zoomplus.mouseover" end="zoomplus.mouseout"/>
                        </use>
                        <path d="M-4,0h8M0,-4v8" fill="none" stroke="white" stroke-width="1.5" pointer-events="none"/>
                </g>
                <g id="zoomMin">
                        <use xlink:href="#rim" fill="#404040">
                                <set attributeName="fill" to="#808080" begin="zoomminus.mouseover" end="zoomminus.mouseout"/>
                        </use>
                        <path d="M-4,0h8" fill="none" stroke="white" stroke-width="1.5" pointer-events="none"/>
                </g>
                <g id="dirArrow">
                        <path fill="none" stroke="white" stroke-width="1.5" d="M0,-3.0v7 M-2.5,-0.5L0,-3.0L2.5,-0.5"/>
                </g>
               <g id="resetDef">
                       <use xlink:href="#rim2" fill="#404040">
                               <set attributeName="fill" to="#808080" begin="reset.mouseover" end="reset.mouseout"/>
                       </use>
               </g>
        </defs>

<script type="text/javascript">
var viewWidth = 1240;
var viewHeight = 432;
var sectionId = 'dynsection-1';
</script>
<script xlink:href="svgpan.js"/>
<svg id="graph" class="graph">
<g id="viewport">
<title>fs::getBasePath</title>
<!-- Node22 -->
<g id="node1" class="node">
<title>Node22</title>
<polygon fill="#bfbfbf" stroke="#000000" points="0,-145.5 0,-164.5 92,-164.5 92,-145.5 0,-145.5"/>
<text text-anchor="middle" x="46" y="-152.5" font-family="Helvetica,sans-Serif" font-size="10.00" fill="#000000">fs::getBasePath</text>
</g>
<!-- Node23 -->
<g id="node2" class="node">
<title>Node23</title>
<g id="a_node2"><a xlink:href="classResourcesManager.html#a54721d26f52c4887b735d2cdaf60b078" target="_top" xlink:title="ResourcesManager::create\lSurfaceFromFile">
<polygon fill="none" stroke="#000000" points="148,-331 148,-361 293,-361 293,-331 148,-331"/>
<text text-anchor="start" x="156" y="-349" font-family="Helvetica,sans-Serif" font-size="10.00" fill="#000000">ResourcesManager::create</text>
<text text-anchor="middle" x="220.5" y="-338" font-family="Helvetica,sans-Serif" font-size="10.00" fill="#000000">SurfaceFromFile</text>
</a>
</g>
</g>
<!-- Node22&#45;&gt;Node23 -->
<g id="edge1" class="edge">
<title>Node22&#45;&gt;Node23</title>
<path fill="none" stroke="#191970" d="M57.1658,-173.3897C71.8627,-196.8599 99.2241,-238.1158 128,-269 150.2205,-292.8485 179.7085,-316.2247 199.3555,-330.8483"/>
<polygon fill="#191970" stroke="#191970" points="60.0764,-171.4416 51.8418,-164.7752 54.1219,-175.1218 60.0764,-171.4416"/>
</g>
<!-- Node31 -->
<g id="node10" class="node">
<title>Node31</title>
<g id="a_node10"><a xlink:href="classText.html#a3bf5a064fd37d06b8d3dc5a700556897" target="_top" xlink:title="Draws a text string to the screen Draws a text string to the screen. This could either be a standalon...">
<polygon fill="none" stroke="#000000" points="155.5,-240.5 155.5,-259.5 285.5,-259.5 285.5,-240.5 155.5,-240.5"/>
<text text-anchor="middle" x="220.5" y="-247.5" font-family="Helvetica,sans-Serif" font-size="10.00" fill="#000000">Text::createTextTexture</text>
</a>
</g>
</g>
<!-- Node22&#45;&gt;Node31 -->
<g id="edge10" class="edge">
<title>Node22&#45;&gt;Node31</title>
<path fill="none" stroke="#191970" d="M59.8585,-172.5414C74.7646,-190.1481 100.1122,-216.6576 128,-231 136.456,-235.3488 145.8284,-238.7024 155.2679,-241.2884"/>
<polygon fill="#191970" stroke="#191970" points="62.4695,-170.206 53.4144,-164.7055 57.063,-174.6523 62.4695,-170.206"/>
</g>
<!-- Node40 -->
<g id="node19" class="node">
<title>Node40</title>
<g id="a_node19"><a xlink:href="classWindowManager.html#a3a283b34c19aaa20296befaabad4d29b" target="_top" xlink:title="Construct a new WindowManager object. ">
<polygon fill="none" stroke="#000000" points="128,-202.5 128,-221.5 313,-221.5 313,-202.5 128,-202.5"/>
<text text-anchor="middle" x="220.5" y="-209.5" font-family="Helvetica,sans-Serif" font-size="10.00" fill="#000000">WindowManager::WindowManager</text>
</a>
</g>
</g>
<!-- Node22&#45;&gt;Node40 -->
<g id="edge20" class="edge">
<title>Node22&#45;&gt;Node40</title>
<path fill="none" stroke="#191970" d="M77.0713,-168.6035C92.2567,-174.9681 110.9026,-182.3676 128,-188 144.5456,-193.4506 163.0798,-198.4675 179.1878,-202.4895"/>
<polygon fill="#191970" stroke="#191970" points="78.2157,-165.287 67.6431,-164.5995 75.4794,-171.73 78.2157,-165.287"/>
</g>
<!-- Node41 -->
<g id="node20" class="node">
<title>Node41</title>
<g id="a_node20"><a xlink:href="classGame.html#afa220e533b80333d5b3c8dbba01fdd16" target="_top" xlink:title="starts setting up the game starts game initialization. ">
<polygon fill="none" stroke="#000000" points="393,-159.5 393,-178.5 487,-178.5 487,-159.5 393,-159.5"/>
<text text-anchor="middle" x="440" y="-166.5" font-family="Helvetica,sans-Serif" font-size="10.00" fill="#000000">Game::initialize</text>
</a>
</g>
</g>
<!-- Node22&#45;&gt;Node41 -->
<g id="edge21" class="edge">
<title>Node22&#45;&gt;Node41</title>
<path fill="none" stroke="#191970" d="M102.4916,-157.0073C180.5899,-159.7824 320.1243,-164.7405 392.9035,-167.3265"/>
<polygon fill="#191970" stroke="#191970" points="102.4734,-153.5046 92.3554,-156.6471 102.2248,-160.5001 102.4734,-153.5046"/>
</g>
<!-- Node42 -->
<g id="node21" class="node">
<title>Node42</title>
<g id="a_node21"><a xlink:href="ScriptEngine_8cxx.html#a4d2a8186429cb8b469e21c03dc4c8e33" target="_top" xlink:title="print">
<polygon fill="none" stroke="#000000" points="201,-126.5 201,-145.5 240,-145.5 240,-126.5 201,-126.5"/>
<text text-anchor="middle" x="220.5" y="-133.5" font-family="Helvetica,sans-Serif" font-size="10.00" fill="#000000">print</text>
</a>
</g>
</g>
<!-- Node22&#45;&gt;Node42 -->
<g id="edge23" class="edge">
<title>Node22&#45;&gt;Node42</title>
<path fill="none" stroke="#191970" d="M102.5228,-148.8457C136.2608,-145.1722 177.0261,-140.7336 200.7333,-138.1522"/>
<polygon fill="#191970" stroke="#191970" points="101.867,-145.3963 92.3047,-149.9582 102.6248,-152.3552 101.867,-145.3963"/>
</g>
<!-- Node43 -->
<g id="node22" class="node">
<title>Node43</title>
<g id="a_node22"><a xlink:href="classResourceManager.html#a9825fcd46b3af5c1f1bf22eb8dd23936" target="_top" xlink:title="Creates the ResourceManager. ">
<polygon fill="none" stroke="#000000" points="144,-77 144,-107 297,-107 297,-77 144,-77"/>
<text text-anchor="start" x="152" y="-95" font-family="Helvetica,sans-Serif" font-size="10.00" fill="#000000">ResourceManager::Resource</text>
<text text-anchor="middle" x="220.5" y="-84" font-family="Helvetica,sans-Serif" font-size="10.00" fill="#000000">Manager</text>
</a>
</g>
</g>
<!-- Node22&#45;&gt;Node43 -->
<g id="edge24" class="edge">
<title>Node22&#45;&gt;Node43</title>
<path fill="none" stroke="#191970" d="M73.3262,-140.9132C89.0419,-133.1748 109.3179,-123.7975 128,-117 137.8485,-113.4166 148.4517,-110.0829 158.8417,-107.0929"/>
<polygon fill="#191970" stroke="#191970" points="71.5654,-137.8803 64.1852,-145.4819 74.6949,-144.1418 71.5654,-137.8803"/>
</g>
<!-- Node44 -->
<g id="node23" class="node">
<title>Node44</title>
<g id="a_node23"><a xlink:href="desktop_2Filesystem_8cxx.html#a4d36fc93e1ad546bbbd83efa8a1ebba2" target="_top" xlink:title="forEachFileType">
<polygon fill="none" stroke="#000000" points="174.5,-38.5 174.5,-57.5 266.5,-57.5 266.5,-38.5 174.5,-38.5"/>
<text text-anchor="middle" x="220.5" y="-45.5" font-family="Helvetica,sans-Serif" font-size="10.00" fill="#000000">forEachFileType</text>
</a>
</g>
</g>
<!-- Node22&#45;&gt;Node44 -->
<g id="edge25" class="edge">
<title>Node22&#45;&gt;Node44</title>
<path fill="none" stroke="#191970" d="M57.8034,-137.0768C72.0044,-117.0118 97.7496,-85.0783 128,-68 142.0213,-60.0841 158.863,-55.2979 174.311,-52.4052"/>
<polygon fill="#191970" stroke="#191970" points="54.8884,-135.1389 52.1162,-145.3647 60.6602,-139.0996 54.8884,-135.1389"/>
</g>
<!-- Node45 -->
<g id="node24" class="node">
<title>Node45</title>
<g id="a_node24"><a xlink:href="classLOG.html#a6fc1e3db47b4b54e899cf480f8a2306f" target="_top" xlink:title="Write log message to error.log file. ">
<polygon fill="none" stroke="#000000" points="166.5,-.5 166.5,-19.5 274.5,-19.5 274.5,-.5 166.5,-.5"/>
<text text-anchor="middle" x="220.5" y="-7.5" font-family="Helvetica,sans-Serif" font-size="10.00" fill="#000000">LOG::writeErrorLog</text>
</a>
</g>
</g>
<!-- Node22&#45;&gt;Node45 -->
<g id="edge26" class="edge">
<title>Node22&#45;&gt;Node45</title>
<path fill="none" stroke="#191970" d="M52.9593,-135.6921C64.166,-107.5123 88.9874,-55.5884 128,-29 139.2442,-21.3367 152.9206,-16.6453 166.2702,-13.8043"/>
<polygon fill="#191970" stroke="#191970" points="49.6162,-134.6364 49.3296,-145.2273 56.1582,-137.1267 49.6162,-134.6364"/>
</g>
<!-- Node24 -->
<g id="node3" class="node">
<title>Node24</title>
<g id="a_node3"><a xlink:href="classResourcesManager.html#ab376a89547592db4cca25309eac2931c" target="_top" xlink:title="ResourcesManager::loadTexture">
<polygon fill="none" stroke="#000000" points="354.5,-379.5 354.5,-398.5 525.5,-398.5 525.5,-379.5 354.5,-379.5"/>
<text text-anchor="middle" x="440" y="-386.5" font-family="Helvetica,sans-Serif" font-size="10.00" fill="#000000">ResourcesManager::loadTexture</text>
</a>
</g>
</g>
<!-- Node23&#45;&gt;Node24 -->
<g id="edge2" class="edge">
<title>Node23&#45;&gt;Node24</title>
<path fill="none" stroke="#191970" d="M303.2305,-362.2069C332.9136,-368.0218 365.4086,-374.3876 391.2741,-379.4546"/>
<polygon fill="#191970" stroke="#191970" points="303.7718,-358.7465 293.2854,-360.2587 302.426,-365.6159 303.7718,-358.7465"/>
</g>
<!-- Node29 -->
<g id="node8" class="node">
<title>Node29</title>
<g id="a_node8"><a xlink:href="classResourcesManager.html#ac221a499e20ca7aedd00028842c7a101" target="_top" xlink:title="ResourcesManager::loadUITexture">
<polygon fill="none" stroke="#000000" points="349,-336.5 349,-355.5 531,-355.5 531,-336.5 349,-336.5"/>
<text text-anchor="middle" x="440" y="-343.5" font-family="Helvetica,sans-Serif" font-size="10.00" fill="#000000">ResourcesManager::loadUITexture</text>
</a>
</g>
</g>
<!-- Node23&#45;&gt;Node29 -->
<g id="edge8" class="edge">
<title>Node23&#45;&gt;Node29</title>
<path fill="none" stroke="#191970" d="M303.3926,-346C318.1722,-346 333.6442,-346 348.6443,-346"/>
<polygon fill="#191970" stroke="#191970" points="303.2855,-342.5001 293.2854,-346 303.2854,-349.5001 303.2855,-342.5001"/>
</g>
<!-- Node25 -->
<g id="node4" class="node">
<title>Node25</title>
<g id="a_node4"><a xlink:href="classTileManager.html#a9e03faf9425ee26a2f5fb1fa4c94d173" target="_top" xlink:title="TileManager::addJSONObject\lToTileData">
<polygon fill="none" stroke="#000000" points="571,-380 571,-410 727,-410 727,-380 571,-380"/>
<text text-anchor="start" x="579" y="-398" font-family="Helvetica,sans-Serif" font-size="10.00" fill="#000000">TileManager::addJSONObject</text>
<text text-anchor="middle" x="649" y="-387" font-family="Helvetica,sans-Serif" font-size="10.00" fill="#000000">ToTileData</text>
</a>
</g>
</g>
<!-- Node24&#45;&gt;Node25 -->
<g id="edge3" class="edge">
<title>Node24&#45;&gt;Node25</title>
<path fill="none" stroke="#191970" d="M535.8697,-391.7522C547.6028,-392.0891 559.482,-392.4301 570.9103,-392.7582"/>
<polygon fill="#191970" stroke="#191970" points="535.7077,-388.2462 525.6113,-391.4577 535.5067,-395.2434 535.7077,-388.2462"/>
</g>
<!-- Node26 -->
<g id="node5" class="node">
<title>Node26</title>
<g id="a_node5"><a xlink:href="classTileManager.html#a1575d9a9530e13fe0286b8fece9e47ea" target="_top" xlink:title="TileManager::init">
<polygon fill="none" stroke="#000000" points="767,-385.5 767,-404.5 865,-404.5 865,-385.5 767,-385.5"/>
<text text-anchor="middle" x="816" y="-392.5" font-family="Helvetica,sans-Serif" font-size="10.00" fill="#000000">TileManager::init</text>
</a>
</g>
</g>
<!-- Node25&#45;&gt;Node26 -->
<g id="edge4" class="edge">
<title>Node25&#45;&gt;Node26</title>
<path fill="none" stroke="#191970" d="M737.3214,-395C747.5119,-395 757.6063,-395 766.9948,-395"/>
<polygon fill="#191970" stroke="#191970" points="737.1215,-391.5001 727.1215,-395 737.1214,-398.5001 737.1215,-391.5001"/>
</g>
<!-- Node27 -->
<g id="node6" class="node">
<title>Node27</title>
<g id="a_node6"><a xlink:href="classTileManager.html#ac6f5d9eb4db57f9ad597223658574394" target="_top" xlink:title="TileManager::TileManager">
<polygon fill="none" stroke="#000000" points="901,-404.5 901,-423.5 1044,-423.5 1044,-404.5 901,-404.5"/>
<text text-anchor="middle" x="972.5" y="-411.5" font-family="Helvetica,sans-Serif" font-size="10.00" fill="#000000">TileManager::TileManager</text>
</a>
</g>
</g>
<!-- Node26&#45;&gt;Node27 -->
<g id="edge5" class="edge">
<title>Node26&#45;&gt;Node27</title>
<path fill="none" stroke="#191970" d="M875.1731,-402.184C883.5918,-403.206 892.3242,-404.2662 900.9473,-405.3131"/>
<polygon fill="#191970" stroke="#191970" points="875.4371,-398.6904 865.0882,-400.9596 874.5934,-405.6394 875.4371,-398.6904"/>
</g>
<!-- Node28 -->
<g id="node7" class="node">
<title>Node28</title>
<g id="a_node7"><a xlink:href="classTileManager.html#af094937b10637c493557e22b42cf25ed" target="_top" xlink:title="TileManager::getAllTileData">
<polygon fill="none" stroke="#000000" points="1080,-385.5 1080,-404.5 1232,-404.5 1232,-385.5 1080,-385.5"/>
<text text-anchor="middle" x="1156" y="-392.5" font-family="Helvetica,sans-Serif" font-size="10.00" fill="#000000">TileManager::getAllTileData</text>
</a>
</g>
</g>
<!-- Node26&#45;&gt;Node28 -->
<g id="edge7" class="edge">
<title>Node26&#45;&gt;Node28</title>
<path fill="none" stroke="#191970" d="M875.3322,-395C932.1451,-395 1018.1219,-395 1079.9405,-395"/>
<polygon fill="#191970" stroke="#191970" points="875.0758,-391.5001 865.0758,-395 875.0758,-398.5001 875.0758,-391.5001"/>
</g>
<!-- Node27&#45;&gt;Node28 -->
<g id="edge6" class="edge">
<title>Node27&#45;&gt;Node28</title>
<path fill="none" stroke="#191970" d="M1054.4402,-405.5157C1062.8686,-404.643 1071.4087,-403.7588 1079.7716,-402.8929"/>
<polygon fill="#191970" stroke="#191970" points="1053.8206,-402.0611 1044.2343,-406.5725 1054.5416,-409.0239 1053.8206,-402.0611"/>
</g>
<!-- Node30 -->
<g id="node9" class="node">
<title>Node30</title>
<g id="a_node9"><a xlink:href="classResourcesManager.html#a7fe5ff24c1df6a60214bea3ca474d155" target="_top" xlink:title="ResourcesManager::Resources\lManager">
<polygon fill="none" stroke="#000000" points="567,-331 567,-361 731,-361 731,-331 567,-331"/>
<text text-anchor="start" x="575" y="-349" font-family="Helvetica,sans-Serif" font-size="10.00" fill="#000000">ResourcesManager::Resources</text>
<text text-anchor="middle" x="649" y="-338" font-family="Helvetica,sans-Serif" font-size="10.00" fill="#000000">Manager</text>
</a>
</g>
</g>
<!-- Node29&#45;&gt;Node30 -->
<g id="edge9" class="edge">
<title>Node29&#45;&gt;Node30</title>
<path fill="none" stroke="#191970" d="M541.1284,-346C549.7268,-346 558.3558,-346 566.782,-346"/>
<polygon fill="#191970" stroke="#191970" points="541.0625,-342.5001 531.0625,-346 541.0624,-349.5001 541.0625,-342.5001"/>
</g>
<!-- Node32 -->
<g id="node11" class="node">
<title>Node32</title>
<g id="a_node11"><a xlink:href="classText.html#a14b9f0937696af5fd95317eb8313bf92" target="_top" xlink:title="sets the text for this text widget. ">
<polygon fill="none" stroke="#000000" points="401,-249.5 401,-268.5 479,-268.5 479,-249.5 401,-249.5"/>
<text text-anchor="middle" x="440" y="-256.5" font-family="Helvetica,sans-Serif" font-size="10.00" fill="#000000">Text::setText</text>
</a>
</g>
</g>
<!-- Node31&#45;&gt;Node32 -->
<g id="edge11" class="edge">
<title>Node31&#45;&gt;Node32</title>
<path fill="none" stroke="#191970" d="M296.03,-253.0969C331.2705,-254.5418 371.7415,-256.2012 400.7815,-257.392"/>
<polygon fill="#191970" stroke="#191970" points="295.898,-249.5886 285.7629,-252.6759 295.6111,-256.5828 295.898,-249.5886"/>
</g>
<!-- Node39 -->
<g id="node18" class="node">
<title>Node39</title>
<g id="a_node18"><a xlink:href="classText.html#af6db01e16738de0391ad928c54334f0e" target="_top" xlink:title="gets the Font size of this element gets the font size of the element ">
<polygon fill="none" stroke="#000000" points="390,-211.5 390,-230.5 490,-230.5 490,-211.5 390,-211.5"/>
<text text-anchor="middle" x="440" y="-218.5" font-family="Helvetica,sans-Serif" font-size="10.00" fill="#000000">Text::getFontSize</text>
</a>
</g>
</g>
<!-- Node31&#45;&gt;Node39 -->
<g id="edge19" class="edge">
<title>Node31&#45;&gt;Node39</title>
<path fill="none" stroke="#191970" d="M295.7113,-240.0632C326.8442,-235.95 362.1059,-231.2912 389.9775,-227.6089"/>
<polygon fill="#191970" stroke="#191970" points="295.2183,-236.5978 285.7629,-241.3776 296.1353,-243.5375 295.2183,-236.5978"/>
</g>
<!-- Node33 -->
<g id="node12" class="node">
<title>Node33</title>
<g id="a_node12"><a xlink:href="classText.html#a398a47abd355749d9e99bf74aa6a4a8d" target="_top" xlink:title="Sets the Font size of this element. ">
<polygon fill="none" stroke="#000000" points="599.5,-292.5 599.5,-311.5 698.5,-311.5 698.5,-292.5 599.5,-292.5"/>
<text text-anchor="middle" x="649" y="-299.5" font-family="Helvetica,sans-Serif" font-size="10.00" fill="#000000">Text::setFontSize</text>
</a>
</g>
</g>
<!-- Node32&#45;&gt;Node33 -->
<g id="edge12" class="edge">
<title>Node32&#45;&gt;Node33</title>
<path fill="none" stroke="#191970" d="M489.1164,-269.1053C523.4056,-276.16 568.8832,-285.5166 602.5675,-292.4469"/>
<polygon fill="#191970" stroke="#191970" points="489.8115,-265.6751 479.3113,-267.088 488.4008,-272.5315 489.8115,-265.6751"/>
</g>
<!-- Node34 -->
<g id="node13" class="node">
<title>Node34</title>
<g id="a_node13"><a xlink:href="classText.html#ab3e26143fccc52699bcc5149cae852bc" target="_top" xlink:title="default Constructor ">
<polygon fill="none" stroke="#000000" points="784.5,-273.5 784.5,-292.5 847.5,-292.5 847.5,-273.5 784.5,-273.5"/>
<text text-anchor="middle" x="816" y="-280.5" font-family="Helvetica,sans-Serif" font-size="10.00" fill="#000000">Text::Text</text>
</a>
</g>
</g>
<!-- Node32&#45;&gt;Node34 -->
<g id="edge14" class="edge">
<title>Node32&#45;&gt;Node34</title>
<path fill="none" stroke="#191970" d="M489.2929,-262.1464C567.7847,-267.1565 718.9826,-276.8074 784.4746,-280.9877"/>
<polygon fill="#191970" stroke="#191970" points="489.3772,-258.6447 479.1745,-261.5005 488.9312,-265.6305 489.3772,-258.6447"/>
</g>
<!-- Node35 -->
<g id="node14" class="node">
<title>Node35</title>
<g id="a_node14"><a xlink:href="classTextField.html#abe03b4b6ebf469645940cfa018bcdca2" target="_top" xlink:title="TextField::addText">
<polygon fill="none" stroke="#000000" points="597,-216.5 597,-235.5 701,-235.5 701,-216.5 597,-216.5"/>
<text text-anchor="middle" x="649" y="-223.5" font-family="Helvetica,sans-Serif" font-size="10.00" fill="#000000">TextField::addText</text>
</a>
</g>
</g>
<!-- Node32&#45;&gt;Node35 -->
<g id="edge15" class="edge">
<title>Node32&#45;&gt;Node35</title>
<path fill="none" stroke="#191970" d="M489.4404,-251.1936C521.7786,-246.0876 563.9636,-239.4268 596.8353,-234.2365"/>
<polygon fill="#191970" stroke="#191970" points="488.643,-247.7761 479.3113,-252.793 489.7348,-254.6904 488.643,-247.7761"/>
</g>
<!-- Node36 -->
<g id="node15" class="node">
<title>Node36</title>
<g id="a_node15"><a xlink:href="classGame.html#a560299f0291c281f7b44e7ef0dd7b264" target="_top" xlink:title="initializes and displays the main menu initializes and displays the main menu ">
<polygon fill="none" stroke="#000000" points="597.5,-178.5 597.5,-197.5 700.5,-197.5 700.5,-178.5 597.5,-178.5"/>
<text text-anchor="middle" x="649" y="-185.5" font-family="Helvetica,sans-Serif" font-size="10.00" fill="#000000">Game::mainMenu</text>
</a>
</g>
</g>
<!-- Node32&#45;&gt;Node36 -->
<g id="edge16" class="edge">
<title>Node32&#45;&gt;Node36</title>
<path fill="none" stroke="#191970" d="M489.1834,-253.6914C503.2188,-250.8796 518.1729,-246.5786 531,-240 550.3132,-230.0948 547.7962,-217.1156 567,-207 576.309,-202.0965 586.8681,-198.4482 597.2376,-195.7371"/>
<polygon fill="#191970" stroke="#191970" points="488.3946,-250.2769 479.1693,-255.4869 489.6301,-257.167 488.3946,-250.2769"/>
</g>
<!-- Node33&#45;&gt;Node34 -->
<g id="edge13" class="edge">
<title>Node33&#45;&gt;Node34</title>
<path fill="none" stroke="#191970" d="M708.6095,-295.2181C734.1039,-292.3175 762.8427,-289.0478 784.1709,-286.6213"/>
<polygon fill="#191970" stroke="#191970" points="708.1936,-291.7427 698.6534,-296.3508 708.9849,-298.6979 708.1936,-291.7427"/>
</g>
<!-- Node37 -->
<g id="node16" class="node">
<title>Node37</title>
<g id="a_node16"><a xlink:href="main_8cxx.html#af582d708d899e67ead623eac34a22387" target="_top" xlink:title="protected_main">
<polygon fill="none" stroke="#000000" points="769.5,-159.5 769.5,-178.5 862.5,-178.5 862.5,-159.5 769.5,-159.5"/>
<text text-anchor="middle" x="816" y="-166.5" font-family="Helvetica,sans-Serif" font-size="10.00" fill="#000000">protected_main</text>
</a>
</g>
</g>
<!-- Node36&#45;&gt;Node37 -->
<g id="edge17" class="edge">
<title>Node36&#45;&gt;Node37</title>
<path fill="none" stroke="#191970" d="M710.8894,-180.9587C730.2828,-178.7523 751.3465,-176.3558 769.4899,-174.2916"/>
<polygon fill="#191970" stroke="#191970" points="710.4646,-177.4843 700.9244,-182.0924 711.256,-184.4395 710.4646,-177.4843"/>
</g>
<!-- Node38 -->
<g id="node17" class="node">
<title>Node38</title>
<g id="a_node17"><a xlink:href="main_8cxx.html#a3c04138a5bfe5d72780bb7e82a18e627" target="_top" xlink:title="main">
<polygon fill="none" stroke="#000000" points="952,-159.5 952,-178.5 993,-178.5 993,-159.5 952,-159.5"/>
<text text-anchor="middle" x="972.5" y="-166.5" font-family="Helvetica,sans-Serif" font-size="10.00" fill="#000000">main</text>
</a>
</g>
</g>
<!-- Node37&#45;&gt;Node38 -->
<g id="edge18" class="edge">
<title>Node37&#45;&gt;Node38</title>
<path fill="none" stroke="#191970" d="M872.8876,-169C900.482,-169 931.9146,-169 951.9637,-169"/>
<polygon fill="#191970" stroke="#191970" points="872.5315,-165.5001 862.5314,-169 872.5314,-172.5001 872.5315,-165.5001"/>
</g>
<!-- Node41&#45;&gt;Node37 -->
<g id="edge22" class="edge">
<title>Node41&#45;&gt;Node37</title>
<path fill="none" stroke="#191970" d="M497.3777,-169C571.8504,-169 700.3947,-169 769.2483,-169"/>
<polygon fill="#191970" stroke="#191970" points="497.24,-165.5001 487.2399,-169 497.2399,-172.5001 497.24,-165.5001"/>
</g>
<!-- Node46 -->
<g id="node25" class="node">
<title>Node46</title>
<g id="a_node25"><a xlink:href="classLOG.html#abe93cb14ebaf37291f7dcb0f4940afd8" target="_top" xlink:title="Destroy a Logger. ">
<polygon fill="none" stroke="#000000" points="404.5,-.5 404.5,-19.5 475.5,-19.5 475.5,-.5 404.5,-.5"/>
<text text-anchor="middle" x="440" y="-7.5" font-family="Helvetica,sans-Serif" font-size="10.00" fill="#000000">LOG::~LOG</text>
</a>
</g>
</g>
<!-- Node45&#45;&gt;Node46 -->
<g id="edge27" class="edge">
<title>Node45&#45;&gt;Node46</title>
<path fill="none" stroke="#191970" d="M284.9501,-10C323.8565,-10 371.9747,-10 404.1953,-10"/>
<polygon fill="#191970" stroke="#191970" points="284.7585,-6.5001 274.7584,-10 284.7584,-13.5001 284.7585,-6.5001"/>
</g>
</g>
</svg>
        <g id="navigator" transform="translate(0 0)" fill="#404254">
                <rect fill="#f2f5e9" fill-opacity="0.5" stroke="#606060" stroke-width=".5" x="0" y="0" width="60" height="60"/>
                <use id="zoomplus" xlink:href="#zoomPlus" x="17" y="9" onmousedown="handleZoom(evt,'in')"/>
                <use id="zoomminus" xlink:href="#zoomMin" x="42" y="9" onmousedown="handleZoom(evt,'out')"/>
                <use id="reset" xlink:href="#resetDef" x="30" y="36" onmousedown="handleReset()"/>
                <g id="arrowUp" xlink:href="#dirArrow" transform="translate(30 24)" onmousedown="handlePan(0,-1)">
                  <use xlink:href="#rim" fill="#404040">
                        <set attributeName="fill" to="#808080" begin="arrowUp.mouseover" end="arrowUp.mouseout"/>
                  </use>
                  <path fill="none" stroke="white" stroke-width="1.5" d="M0,-3.0v7 M-2.5,-0.5L0,-3.0L2.5,-0.5"/>
                </g>
                <g id="arrowRight" xlink:href="#dirArrow" transform="rotate(90) translate(36 -43)" onmousedown="handlePan(1,0)">
                  <use xlink:href="#rim" fill="#404040">
                        <set attributeName="fill" to="#808080" begin="arrowRight.mouseover" end="arrowRight.mouseout"/>
                  </use>
                  <path fill="none" stroke="white" stroke-width="1.5" d="M0,-3.0v7 M-2.5,-0.5L0,-3.0L2.5,-0.5"/>
                </g>
                <g id="arrowDown" xlink:href="#dirArrow" transform="rotate(180) translate(-30 -48)" onmousedown="handlePan(0,1)">
                  <use xlink:href="#rim" fill="#404040">
                        <set attributeName="fill" to="#808080" begin="arrowDown.mouseover" end="arrowDown.mouseout"/>
                  </use>
                  <path fill="none" stroke="white" stroke-width="1.5" d="M0,-3.0v7 M-2.5,-0.5L0,-3.0L2.5,-0.5"/>
                </g>
                <g id="arrowLeft" xlink:href="#dirArrow" transform="rotate(270) translate(-36 17)" onmousedown="handlePan(-1,0)">
                  <use xlink:href="#rim" fill="#404040">
                        <set attributeName="fill" to="#808080" begin="arrowLeft.mouseover" end="arrowLeft.mouseout"/>
                  </use>
                  <path fill="none" stroke="white" stroke-width="1.5" d="M0,-3.0v7 M-2.5,-0.5L0,-3.0L2.5,-0.5"/>
                </g>
        </g>
        <svg viewBox="0 0 15 15" width="100%" height="30px" preserveAspectRatio="xMaxYMin meet">
         <g id="arrow_out" transform="scale(0.3 0.3)">
          <a xlink:href="namespacefs_a28e4c1324680c188092ecfe5fd8a91a3_icgraph_org.svg" target="_base">
           <rect id="button" ry="5" rx="5" y="6" x="6" height="38" width="38"
                fill="#f2f5e9" fill-opacity="0.5" stroke="#606060" stroke-width="1.0"/>
           <path id="arrow"
             d="M 11.500037,31.436501 C 11.940474,20.09759 22.043105,11.32322 32.158766,21.979434 L 37.068811,17.246167 C 37.068811,17.246167 37.088388,32 37.088388,32 L 22.160133,31.978069 C 22.160133,31.978069 26.997745,27.140456 26.997745,27.140456 C 18.528582,18.264221 13.291696,25.230495 11.500037,31.436501 z"
             style="fill:#404040;"/>
          </a>
         </g>
        </svg>
</svg>
