<?xml version="1.0" encoding="UTF-8" standalone="no"?>
<!DOCTYPE svg PUBLIC "-//W3C//DTD SVG 1.1//EN"
 "http://www.w3.org/Graphics/SVG/1.1/DTD/svg11.dtd">
<!-- Generated by graphviz version 2.40.1 (20161225.0304)
 -->
<!-- Title: fs::writeStringToFile Pages: 1 -->
<svg width="561pt" height="138pt"
 viewBox="0.00 0.00 561.00 138.00" xmlns="http://www.w3.org/2000/svg" xmlns:xlink="http://www.w3.org/1999/xlink">
<g id="graph0" class="graph" transform="scale(1 1) rotate(0) translate(4 134)">
<title>fs::writeStringToFile</title>
<!-- Node73 -->
<g id="node1" class="node">
<title>Node73</title>
<polygon fill="#bfbfbf" stroke="#000000" points="0,-55.5 0,-74.5 112,-74.5 112,-55.5 0,-55.5"/>
<text text-anchor="middle" x="56" y="-62.5" font-family="Helvetica,sans-Serif" font-size="10.00" fill="#000000">fs::writeStringToFile</text>
</g>
<!-- Node74 -->
<g id="node2" class="node">
<title>Node74</title>
<g id="a_node2"><a xlink:href="classSettings.html#a53285dd5cbd5bfafe155187c74150dde" target="_top" xlink:title="Save settings to file. ">
<polygon fill="none" stroke="#000000" points="191.5,-110.5 191.5,-129.5 295.5,-129.5 295.5,-110.5 191.5,-110.5"/>
<text text-anchor="middle" x="243.5" y="-117.5" font-family="Helvetica,sans-Serif" font-size="10.00" fill="#000000">Settings::writeFile</text>
</a>
</g>
</g>
<!-- Node73&#45;&gt;Node74 -->
<g id="edge1" class="edge">
<title>Node73&#45;&gt;Node74</title>
<path fill="none" stroke="#191970" d="M86.4444,-78.4794C104.1431,-85.9175 127.0275,-94.8627 148,-101 161.7907,-105.0357 176.9519,-108.4861 191.0532,-111.2949"/>
<polygon fill="#191970" stroke="#191970" points="87.7616,-75.2362 77.1904,-74.5296 85.0137,-81.6743 87.7616,-75.2362"/>
</g>
<!-- Node76 -->
<g id="node4" class="node">
<title>Node76</title>
<g id="a_node4"><a xlink:href="classMap.html#ae48ef4fa6a6f73d886211bca59123151" target="_top" xlink:title="Map\&lt; ObserverSPtr\&lt;\l Notification \&gt;, Set\l\&lt; typename Notification\l::TransitionType \&gt; \&gt;::saveMapToFile">
<polygon fill="none" stroke="#000000" points="148,-39 148,-91 339,-91 339,-39 148,-39"/>
<text text-anchor="start" x="156" y="-79" font-family="Helvetica,sans-Serif" font-size="10.00" fill="#000000">Map&lt; ObserverSPtr&lt;</text>
<text text-anchor="start" x="156" y="-68" font-family="Helvetica,sans-Serif" font-size="10.00" fill="#000000"> Notification &gt;, Set</text>
<text text-anchor="start" x="156" y="-57" font-family="Helvetica,sans-Serif" font-size="10.00" fill="#000000">&lt; typename Notification</text>
<text text-anchor="middle" x="243.5" y="-46" font-family="Helvetica,sans-Serif" font-size="10.00" fill="#000000">::TransitionType &gt; &gt;::saveMapToFile</text>
</a>
</g>
</g>
<!-- Node73&#45;&gt;Node76 -->
<g id="edge3" class="edge">
<title>Node73&#45;&gt;Node76</title>
<path fill="none" stroke="#191970" d="M122.029,-65C130.3975,-65 139.0898,-65 147.8044,-65"/>
<polygon fill="#191970" stroke="#191970" points="122.0022,-61.5001 112.0022,-65 122.0022,-68.5001 122.0022,-61.5001"/>
</g>
<!-- Node77 -->
<g id="node5" class="node">
<title>Node77</title>
<g id="a_node5"><a xlink:href="desktop_2Filesystem_8cxx.html#a4d36fc93e1ad546bbbd83efa8a1ebba2" target="_top" xlink:title="forEachFileType">
<polygon fill="none" stroke="#000000" points="197.5,-.5 197.5,-19.5 289.5,-19.5 289.5,-.5 197.5,-.5"/>
<text text-anchor="middle" x="243.5" y="-7.5" font-family="Helvetica,sans-Serif" font-size="10.00" fill="#000000">forEachFileType</text>
</a>
</g>
</g>
<!-- Node73&#45;&gt;Node77 -->
<g id="edge4" class="edge">
<title>Node73&#45;&gt;Node77</title>
<path fill="none" stroke="#191970" d="M88.0549,-51.3835C105.5446,-44.3173 127.7104,-35.944 148,-30 163.9312,-25.3328 181.6601,-21.3081 197.4758,-18.1178"/>
<polygon fill="#191970" stroke="#191970" points="86.2711,-48.3321 78.347,-55.3648 88.9272,-54.8086 86.2711,-48.3321"/>
</g>
<!-- Node75 -->
<g id="node3" class="node">
<title>Node75</title>
<g id="a_node3"><a xlink:href="classUIManager.html#aa78e356fc3b356d790c848319d1c387e" target="_top" xlink:title="UIManager::setCallbackFunctions">
<polygon fill="none" stroke="#000000" points="375,-110.5 375,-129.5 553,-129.5 553,-110.5 375,-110.5"/>
<text text-anchor="middle" x="464" y="-117.5" font-family="Helvetica,sans-Serif" font-size="10.00" fill="#000000">UIManager::setCallbackFunctions</text>
</a>
</g>
</g>
<!-- Node74&#45;&gt;Node75 -->
<g id="edge2" class="edge">
<title>Node74&#45;&gt;Node75</title>
<path fill="none" stroke="#191970" d="M305.9695,-120C327.2976,-120 351.5837,-120 374.6097,-120"/>
<polygon fill="#191970" stroke="#191970" points="305.7555,-116.5001 295.7554,-120 305.7554,-123.5001 305.7555,-116.5001"/>
</g>
</g>
</svg>
