<?xml version="1.0" encoding="UTF-8" standalone="no"?>
<!DOCTYPE svg PUBLIC "-//W3C//DTD SVG 1.1//EN"
 "http://www.w3.org/Graphics/SVG/1.1/DTD/svg11.dtd">
<!-- Generated by graphviz version 2.40.1 (20161225.0304)
 -->
<!-- Title: src/util/Observer.hxx Pages: 1 -->
<!--zoomable 420 -->
<svg id="main" version="1.1" xmlns="http://www.w3.org/2000/svg" xmlns:xlink="http://www.w3.org/1999/xlink" xml:space="preserve" onload="init(evt)">
<style type="text/css"><![CDATA[
.edge:hover path { stroke: red; }
.edge:hover polygon { stroke: red; fill: red; }
]]></style>
<script type="text/javascript"><![CDATA[
var edges = document.getElementsByTagName('g');
if (edges && edges.length) {
  for (var i=0;i<edges.length;i++) {
    if (edges[i].id.substr(0,4)=='edge') {
      edges[i].setAttribute('class','edge');
    }
  }
}
]]></script>
        <defs>
                <circle id="rim" cx="0" cy="0" r="7"/>
                <circle id="rim2" cx="0" cy="0" r="3.5"/>
                <g id="zoomPlus">
                        <use xlink:href="#rim" fill="#404040">
                                <set attributeName="fill" to="#808080" begin="zoomplus.mouseover" end="zoomplus.mouseout"/>
                        </use>
                        <path d="M-4,0h8M0,-4v8" fill="none" stroke="white" stroke-width="1.5" pointer-events="none"/>
                </g>
                <g id="zoomMin">
                        <use xlink:href="#rim" fill="#404040">
                                <set attributeName="fill" to="#808080" begin="zoomminus.mouseover" end="zoomminus.mouseout"/>
                        </use>
                        <path d="M-4,0h8" fill="none" stroke="white" stroke-width="1.5" pointer-events="none"/>
                </g>
                <g id="dirArrow">
                        <path fill="none" stroke="white" stroke-width="1.5" d="M0,-3.0v7 M-2.5,-0.5L0,-3.0L2.5,-0.5"/>
                </g>
               <g id="resetDef">
                       <use xlink:href="#rim2" fill="#404040">
                               <set attributeName="fill" to="#808080" begin="reset.mouseover" end="reset.mouseout"/>
                       </use>
               </g>
        </defs>

<script type="text/javascript">
var viewWidth = 1465;
var viewHeight = 420;
var sectionId = 'dynsection-1';
</script>
<script xlink:href="svgpan.js"/>
<svg id="graph" class="graph">
<g id="viewport">
<title>src/util/Observer.hxx</title>
<!-- Node8 -->
<g id="node1" class="node">
<title>Node8</title>
<polygon fill="#bfbfbf" stroke="#000000" points="1192.5,-392.5 1192.5,-411.5 1309.5,-411.5 1309.5,-392.5 1192.5,-392.5"/>
<text text-anchor="middle" x="1251" y="-399.5" font-family="Helvetica,sans-Serif" font-size="10.00" fill="#000000">src/util/Observer.hxx</text>
</g>
<!-- Node9 -->
<g id="node2" class="node">
<title>Node9</title>
<g id="a_node2"><a xlink:href="UIEvents_8hxx.html" target="_top" xlink:title="src/events/UIEvents.hxx">
<polygon fill="none" stroke="#000000" points="1006,-336.5 1006,-355.5 1140,-355.5 1140,-336.5 1006,-336.5"/>
<text text-anchor="middle" x="1073" y="-343.5" font-family="Helvetica,sans-Serif" font-size="10.00" fill="#000000">src/events/UIEvents.hxx</text>
</a>
</g>
</g>
<!-- Node8&#45;&gt;Node9 -->
<g id="edge1" class="edge">
<title>Node8&#45;&gt;Node9</title>
<path fill="none" stroke="#191970" d="M1210.7069,-389.3235C1178.0632,-379.0536 1132.7866,-364.8093 1103.2,-355.5011"/>
<polygon fill="#191970" stroke="#191970" points="1209.8113,-392.7108 1220.4007,-392.3733 1211.912,-386.0335 1209.8113,-392.7108"/>
</g>
<!-- Node12 -->
<g id="node5" class="node">
<title>Node12</title>
<g id="a_node5"><a xlink:href="UIMQDispatcher_8hxx.html" target="_top" xlink:title="src/engine/UIMQDispatcher.hxx">
<polygon fill="none" stroke="#000000" points="1082.5,-168.5 1082.5,-187.5 1251.5,-187.5 1251.5,-168.5 1082.5,-168.5"/>
<text text-anchor="middle" x="1167" y="-175.5" font-family="Helvetica,sans-Serif" font-size="10.00" fill="#000000">src/engine/UIMQDispatcher.hxx</text>
</a>
</g>
</g>
<!-- Node8&#45;&gt;Node12 -->
<g id="edge32" class="edge">
<title>Node8&#45;&gt;Node12</title>
<path fill="none" stroke="#191970" d="M1243.8731,-382.995C1226.6726,-337.1268 1183.364,-221.6374 1170.5959,-187.5891"/>
<polygon fill="#191970" stroke="#191970" points="1240.6022,-384.2407 1247.3906,-392.375 1247.1565,-381.7827 1240.6022,-384.2407"/>
</g>
<!-- Node13 -->
<g id="node6" class="node">
<title>Node13</title>
<g id="a_node6"><a xlink:href="DataModel_8hxx.html" target="_top" xlink:title="src/model/DataModel.hxx">
<polygon fill="none" stroke="#000000" points="1096.5,-112.5 1096.5,-131.5 1237.5,-131.5 1237.5,-112.5 1096.5,-112.5"/>
<text text-anchor="middle" x="1167" y="-119.5" font-family="Helvetica,sans-Serif" font-size="10.00" fill="#000000">src/model/DataModel.hxx</text>
</a>
</g>
</g>
<!-- Node8&#45;&gt;Node13 -->
<g id="edge33" class="edge">
<title>Node8&#45;&gt;Node13</title>
<path fill="none" stroke="#191970" d="M1258.8415,-382.8271C1267.1246,-360.8089 1279,-323.4152 1279,-290 1279,-290 1279,-290 1279,-234 1279,-203.5953 1280.3765,-191.4306 1261,-168 1246.1793,-150.0784 1222.6793,-138.5784 1202.8844,-131.5588"/>
<polygon fill="#191970" stroke="#191970" points="1255.5132,-381.7281 1255.1315,-392.3161 1262.0326,-384.2771 1255.5132,-381.7281"/>
</g>
<!-- Node30 -->
<g id="node23" class="node">
<title>Node30</title>
<g id="a_node23"><a xlink:href="TransitiveModel_8hxx.html" target="_top" xlink:title="src/util/TransitiveModel.hxx">
<polygon fill="none" stroke="#000000" points="1307,-336.5 1307,-355.5 1457,-355.5 1457,-336.5 1307,-336.5"/>
<text text-anchor="middle" x="1382" y="-343.5" font-family="Helvetica,sans-Serif" font-size="10.00" fill="#000000">src/util/TransitiveModel.hxx</text>
</a>
</g>
</g>
<!-- Node8&#45;&gt;Node30 -->
<g id="edge34" class="edge">
<title>Node8&#45;&gt;Node30</title>
<path fill="none" stroke="#191970" d="M1282.8534,-388.3833C1306.6785,-378.1985 1338.6568,-364.5284 1359.7742,-355.5011"/>
<polygon fill="#191970" stroke="#191970" points="1281.339,-385.2242 1273.5197,-392.3733 1284.0906,-391.6608 1281.339,-385.2242"/>
</g>
<!-- Node10 -->
<g id="node3" class="node">
<title>Node10</title>
<g id="a_node3"><a xlink:href="Events_8hxx.html" target="_top" xlink:title="src/Events.hxx">
<polygon fill="none" stroke="#000000" points="987,-280.5 987,-299.5 1075,-299.5 1075,-280.5 987,-280.5"/>
<text text-anchor="middle" x="1031" y="-287.5" font-family="Helvetica,sans-Serif" font-size="10.00" fill="#000000">src/Events.hxx</text>
</a>
</g>
</g>
<!-- Node9&#45;&gt;Node10 -->
<g id="edge2" class="edge">
<title>Node9&#45;&gt;Node10</title>
<path fill="none" stroke="#191970" d="M1059.6584,-328.2112C1052.5604,-318.7472 1044.1097,-307.4797 1038.232,-299.6427"/>
<polygon fill="#191970" stroke="#191970" points="1056.8841,-330.3455 1065.6842,-336.2455 1062.4841,-326.1455 1056.8841,-330.3455"/>
</g>
<!-- Node11 -->
<g id="node4" class="node">
<title>Node11</title>
<g id="a_node4"><a xlink:href="MessageQueue_8hxx.html" target="_top" xlink:title="src/engine/MessageQueue.hxx">
<polygon fill="none" stroke="#000000" points="948.5,-224.5 948.5,-243.5 1113.5,-243.5 1113.5,-224.5 948.5,-224.5"/>
<text text-anchor="middle" x="1031" y="-231.5" font-family="Helvetica,sans-Serif" font-size="10.00" fill="#000000">src/engine/MessageQueue.hxx</text>
</a>
</g>
</g>
<!-- Node10&#45;&gt;Node11 -->
<g id="edge3" class="edge">
<title>Node10&#45;&gt;Node11</title>
<path fill="none" stroke="#191970" d="M1031,-270.1575C1031,-261.155 1031,-250.9199 1031,-243.6427"/>
<polygon fill="#191970" stroke="#191970" points="1027.5001,-270.2455 1031,-280.2455 1034.5001,-270.2456 1027.5001,-270.2455"/>
</g>
<!-- Node20 -->
<g id="node13" class="node">
<title>Node20</title>
<g id="a_node13"><a xlink:href="GameService_8hxx.html" target="_top" xlink:title="src/GameService.hxx">
<polygon fill="none" stroke="#000000" points="493,-224.5 493,-243.5 613,-243.5 613,-224.5 493,-224.5"/>
<text text-anchor="middle" x="553" y="-231.5" font-family="Helvetica,sans-Serif" font-size="10.00" fill="#000000">src/GameService.hxx</text>
</a>
</g>
</g>
<!-- Node10&#45;&gt;Node20 -->
<g id="edge13" class="edge">
<title>Node10&#45;&gt;Node20</title>
<path fill="none" stroke="#191970" d="M976.896,-283.6615C886.9307,-273.1216 707.2039,-252.0657 613.2968,-241.0641"/>
<polygon fill="#191970" stroke="#191970" points="976.5483,-287.1446 986.8877,-284.832 977.3629,-280.1921 976.5483,-287.1446"/>
</g>
<!-- Node11&#45;&gt;Node12 -->
<g id="edge4" class="edge">
<title>Node11&#45;&gt;Node12</title>
<path fill="none" stroke="#191970" d="M1063.7399,-220.5189C1088.5083,-210.3201 1121.905,-196.5685 1143.9258,-187.5011"/>
<polygon fill="#191970" stroke="#191970" points="1062.2934,-217.3293 1054.3792,-224.3733 1064.9587,-223.8021 1062.2934,-217.3293"/>
</g>
<!-- Node11&#45;&gt;Node13 -->
<g id="edge11" class="edge">
<title>Node11&#45;&gt;Node13</title>
<path fill="none" stroke="#191970" d="M1039.6885,-215.3339C1047.1454,-200.9299 1059.0474,-181.2833 1074,-168 1092.7185,-151.3712 1118.5277,-139.2387 1138.209,-131.6223"/>
<polygon fill="#191970" stroke="#191970" points="1036.538,-213.8091 1035.2533,-224.3258 1042.8159,-216.9056 1036.538,-213.8091"/>
</g>
<!-- Node16 -->
<g id="node9" class="node">
<title>Node16</title>
<g id="a_node9"><a xlink:href="Game_8hxx.html" target="_top" xlink:title="src/Game.hxx">
<polygon fill="none" stroke="#000000" points="360,-112.5 360,-131.5 444,-131.5 444,-112.5 360,-112.5"/>
<text text-anchor="middle" x="402" y="-119.5" font-family="Helvetica,sans-Serif" font-size="10.00" fill="#000000">src/Game.hxx</text>
</a>
</g>
</g>
<!-- Node11&#45;&gt;Node16 -->
<g id="edge8" class="edge">
<title>Node11&#45;&gt;Node16</title>
<path fill="none" stroke="#191970" d="M938.1833,-230.7751C785.3711,-224.8513 493.5029,-210.7202 452,-188 428.7987,-175.2988 413.1192,-146.7599 406.1347,-131.7114"/>
<polygon fill="#191970" stroke="#191970" points="938.365,-234.2845 948.4918,-231.1704 938.6334,-227.2897 938.365,-234.2845"/>
</g>
<!-- Node19 -->
<g id="node12" class="node">
<title>Node19</title>
<g id="a_node12"><a xlink:href="AudioMixer_8cxx.html" target="_top" xlink:title="src/services/AudioMixer.cxx">
<polygon fill="none" stroke="#000000" points="837,-112.5 837,-131.5 989,-131.5 989,-112.5 837,-112.5"/>
<text text-anchor="middle" x="913" y="-119.5" font-family="Helvetica,sans-Serif" font-size="10.00" fill="#000000">src/services/AudioMixer.cxx</text>
</a>
</g>
</g>
<!-- Node11&#45;&gt;Node19 -->
<g id="edge12" class="edge">
<title>Node11&#45;&gt;Node19</title>
<path fill="none" stroke="#191970" d="M1024.8837,-214.5983C1019.5998,-200.3299 1010.7813,-181.2022 998,-168 981.7773,-151.243 958.1121,-139.1216 939.8693,-131.542"/>
<polygon fill="#191970" stroke="#191970" points="1021.6854,-216.0616 1028.2424,-224.3836 1028.3062,-213.789 1021.6854,-216.0616"/>
</g>
<!-- Node12&#45;&gt;Node13 -->
<g id="edge5" class="edge">
<title>Node12&#45;&gt;Node13</title>
<path fill="none" stroke="#191970" d="M1167,-158.1575C1167,-149.155 1167,-138.9199 1167,-131.6427"/>
<polygon fill="#191970" stroke="#191970" points="1163.5001,-158.2455 1167,-168.2455 1170.5001,-158.2456 1163.5001,-158.2455"/>
</g>
<!-- Node14 -->
<g id="node7" class="node">
<title>Node14</title>
<g id="a_node7"><a xlink:href="ButtonState_8hxx.html" target="_top" xlink:title="src/model/ButtonState.hxx">
<polygon fill="none" stroke="#000000" points="1094,-56.5 1094,-75.5 1240,-75.5 1240,-56.5 1094,-56.5"/>
<text text-anchor="middle" x="1167" y="-63.5" font-family="Helvetica,sans-Serif" font-size="10.00" fill="#000000">src/model/ButtonState.hxx</text>
</a>
</g>
</g>
<!-- Node13&#45;&gt;Node14 -->
<g id="edge6" class="edge">
<title>Node13&#45;&gt;Node14</title>
<path fill="none" stroke="#191970" d="M1167,-102.1575C1167,-93.155 1167,-82.9199 1167,-75.6427"/>
<polygon fill="#191970" stroke="#191970" points="1163.5001,-102.2455 1167,-112.2455 1170.5001,-102.2456 1163.5001,-102.2455"/>
</g>
<!-- Node15 -->
<g id="node8" class="node">
<title>Node15</title>
<g id="a_node8"><a xlink:href="ButtonState_8cxx.html" target="_top" xlink:title="src/model/ButtonState.cxx">
<polygon fill="none" stroke="#000000" points="1094,-.5 1094,-19.5 1240,-19.5 1240,-.5 1094,-.5"/>
<text text-anchor="middle" x="1167" y="-7.5" font-family="Helvetica,sans-Serif" font-size="10.00" fill="#000000">src/model/ButtonState.cxx</text>
</a>
</g>
</g>
<!-- Node14&#45;&gt;Node15 -->
<g id="edge7" class="edge">
<title>Node14&#45;&gt;Node15</title>
<path fill="none" stroke="#191970" d="M1167,-46.1575C1167,-37.155 1167,-26.9199 1167,-19.6427"/>
<polygon fill="#191970" stroke="#191970" points="1163.5001,-46.2455 1167,-56.2455 1170.5001,-46.2456 1163.5001,-46.2455"/>
</g>
<!-- Node17 -->
<g id="node10" class="node">
<title>Node17</title>
<g id="a_node10"><a xlink:href="Game_8cxx.html" target="_top" xlink:title="src/Game.cxx">
<polygon fill="none" stroke="#000000" points="310.5,-56.5 310.5,-75.5 393.5,-75.5 393.5,-56.5 310.5,-56.5"/>
<text text-anchor="middle" x="352" y="-63.5" font-family="Helvetica,sans-Serif" font-size="10.00" fill="#000000">src/Game.cxx</text>
</a>
</g>
</g>
<!-- Node16&#45;&gt;Node17 -->
<g id="edge9" class="edge">
<title>Node16&#45;&gt;Node17</title>
<path fill="none" stroke="#191970" d="M386.3753,-104.5004C377.8727,-94.9775 367.6782,-83.5596 360.6095,-75.6427"/>
<polygon fill="#191970" stroke="#191970" points="384.0197,-107.1172 393.2907,-112.2455 389.2413,-102.4551 384.0197,-107.1172"/>
</g>
<!-- Node18 -->
<g id="node11" class="node">
<title>Node18</title>
<g id="a_node11"><a xlink:href="main_8cxx.html" target="_top" xlink:title="src/main.cxx">
<polygon fill="none" stroke="#000000" points="411.5,-56.5 411.5,-75.5 490.5,-75.5 490.5,-56.5 411.5,-56.5"/>
<text text-anchor="middle" x="451" y="-63.5" font-family="Helvetica,sans-Serif" font-size="10.00" fill="#000000">src/main.cxx</text>
</a>
</g>
</g>
<!-- Node16&#45;&gt;Node18 -->
<g id="edge10" class="edge">
<title>Node16&#45;&gt;Node18</title>
<path fill="none" stroke="#191970" d="M417.3122,-104.5004C425.6447,-94.9775 435.6353,-83.5596 442.5627,-75.6427"/>
<polygon fill="#191970" stroke="#191970" points="414.4862,-102.415 410.5351,-112.2455 419.7543,-107.0245 414.4862,-102.415"/>
</g>
<!-- Node20&#45;&gt;Node16 -->
<g id="edge14" class="edge">
<title>Node20&#45;&gt;Node16</title>
<path fill="none" stroke="#191970" d="M482.6071,-227.0326C404.9961,-218.6261 289.2733,-203.6593 276,-188 270.2525,-181.2193 270.9051,-175.2838 276,-168 286.1108,-153.5452 328.3827,-140.0887 361.209,-131.5114"/>
<polygon fill="#191970" stroke="#191970" points="482.5021,-230.5413 492.8176,-228.1247 483.2466,-223.581 482.5021,-230.5413"/>
</g>
<!-- Node21 -->
<g id="node14" class="node">
<title>Node21</title>
<g id="a_node14"><a xlink:href="Randomizer_8hxx.html" target="_top" xlink:title="src/services/Randomizer.hxx">
<polygon fill="none" stroke="#000000" points="663,-168.5 663,-187.5 819,-187.5 819,-168.5 663,-168.5"/>
<text text-anchor="middle" x="741" y="-175.5" font-family="Helvetica,sans-Serif" font-size="10.00" fill="#000000">src/services/Randomizer.hxx</text>
</a>
</g>
</g>
<!-- Node20&#45;&gt;Node21 -->
<g id="edge15" class="edge">
<title>Node20&#45;&gt;Node21</title>
<path fill="none" stroke="#191970" d="M595.1117,-221.4561C629.6218,-211.1765 677.7199,-196.8494 709.1034,-187.5011"/>
<polygon fill="#191970" stroke="#191970" points="593.903,-218.1641 585.3184,-224.3733 595.9014,-224.8728 593.903,-218.1641"/>
</g>
<!-- Node23 -->
<g id="node16" class="node">
<title>Node23</title>
<g id="a_node16"><a xlink:href="GameClock_8hxx.html" target="_top" xlink:title="src/services/GameClock.hxx">
<polygon fill="none" stroke="#000000" points="73.5,-168.5 73.5,-187.5 228.5,-187.5 228.5,-168.5 73.5,-168.5"/>
<text text-anchor="middle" x="151" y="-175.5" font-family="Helvetica,sans-Serif" font-size="10.00" fill="#000000">src/services/GameClock.hxx</text>
</a>
</g>
</g>
<!-- Node20&#45;&gt;Node23 -->
<g id="edge19" class="edge">
<title>Node20&#45;&gt;Node23</title>
<path fill="none" stroke="#191970" d="M482.6478,-224.1997C408.5549,-213.8783 292.6711,-197.7353 219.3441,-187.5206"/>
<polygon fill="#191970" stroke="#191970" points="482.4292,-227.703 492.8165,-225.6162 483.3951,-220.7699 482.4292,-227.703"/>
</g>
<!-- Node26 -->
<g id="node19" class="node">
<title>Node26</title>
<g id="a_node19"><a xlink:href="ResourceManager_8hxx.html" target="_top" xlink:title="src/services/ResourceManager.hxx">
<polygon fill="none" stroke="#000000" points="461,-168.5 461,-187.5 645,-187.5 645,-168.5 461,-168.5"/>
<text text-anchor="middle" x="553" y="-175.5" font-family="Helvetica,sans-Serif" font-size="10.00" fill="#000000">src/services/ResourceManager.hxx</text>
</a>
</g>
</g>
<!-- Node20&#45;&gt;Node26 -->
<g id="edge25" class="edge">
<title>Node20&#45;&gt;Node26</title>
<path fill="none" stroke="#191970" d="M553,-214.1575C553,-205.155 553,-194.9199 553,-187.6427"/>
<polygon fill="#191970" stroke="#191970" points="549.5001,-214.2455 553,-224.2455 556.5001,-214.2456 549.5001,-214.2455"/>
</g>
<!-- Node28 -->
<g id="node21" class="node">
<title>Node28</title>
<g id="a_node21"><a xlink:href="GameService_8cxx.html" target="_top" xlink:title="src/GameService.cxx">
<polygon fill="none" stroke="#000000" points="285.5,-168.5 285.5,-187.5 404.5,-187.5 404.5,-168.5 285.5,-168.5"/>
<text text-anchor="middle" x="345" y="-175.5" font-family="Helvetica,sans-Serif" font-size="10.00" fill="#000000">src/GameService.cxx</text>
</a>
</g>
</g>
<!-- Node20&#45;&gt;Node28 -->
<g id="edge29" class="edge">
<title>Node20&#45;&gt;Node28</title>
<path fill="none" stroke="#191970" d="M507.3882,-221.7199C469.1418,-211.4228 415.31,-196.9296 380.2899,-187.5011"/>
<polygon fill="#191970" stroke="#191970" points="506.6774,-225.1531 517.2435,-224.3733 508.4973,-218.3938 506.6774,-225.1531"/>
</g>
<!-- Node29 -->
<g id="node22" class="node">
<title>Node29</title>
<g id="a_node22"><a xlink:href="AudioMixer_8hxx.html" target="_top" xlink:title="src/services/AudioMixer.hxx">
<polygon fill="none" stroke="#000000" points="837,-168.5 837,-187.5 989,-187.5 989,-168.5 837,-168.5"/>
<text text-anchor="middle" x="913" y="-175.5" font-family="Helvetica,sans-Serif" font-size="10.00" fill="#000000">src/services/AudioMixer.hxx</text>
</a>
</g>
</g>
<!-- Node20&#45;&gt;Node29 -->
<g id="edge30" class="edge">
<title>Node20&#45;&gt;Node29</title>
<path fill="none" stroke="#191970" d="M623.2197,-223.0769C689.6335,-212.7459 788.3067,-197.3967 851.6433,-187.5444"/>
<polygon fill="#191970" stroke="#191970" points="622.5991,-219.6313 613.2559,-224.6269 623.6751,-226.5481 622.5991,-219.6313"/>
</g>
<!-- Node21&#45;&gt;Node16 -->
<g id="edge16" class="edge">
<title>Node21&#45;&gt;Node16</title>
<path fill="none" stroke="#191970" d="M666.9053,-166.9C608.6656,-157.9979 525.5406,-144.9009 453,-132 450.0685,-131.4786 447.0453,-130.9255 444.0028,-130.3575"/>
<polygon fill="#191970" stroke="#191970" points="666.7055,-170.4099 677.1189,-168.4572 667.7606,-163.4899 666.7055,-170.4099"/>
</g>
<!-- Node21&#45;&gt;Node19 -->
<g id="edge17" class="edge">
<title>Node21&#45;&gt;Node19</title>
<path fill="none" stroke="#191970" d="M780.3435,-165.1905C811.8551,-154.9309 855.3519,-140.7691 883.818,-131.5011"/>
<polygon fill="#191970" stroke="#191970" points="778.993,-161.9493 770.5679,-168.3733 781.1601,-168.6054 778.993,-161.9493"/>
</g>
<!-- Node22 -->
<g id="node15" class="node">
<title>Node22</title>
<g id="a_node15"><a xlink:href="Randomizer_8cxx.html" target="_top" xlink:title="src/services/Randomizer.cxx">
<polygon fill="none" stroke="#000000" points="663.5,-112.5 663.5,-131.5 818.5,-131.5 818.5,-112.5 663.5,-112.5"/>
<text text-anchor="middle" x="741" y="-119.5" font-family="Helvetica,sans-Serif" font-size="10.00" fill="#000000">src/services/Randomizer.cxx</text>
</a>
</g>
</g>
<!-- Node21&#45;&gt;Node22 -->
<g id="edge18" class="edge">
<title>Node21&#45;&gt;Node22</title>
<path fill="none" stroke="#191970" d="M741,-158.1575C741,-149.155 741,-138.9199 741,-131.6427"/>
<polygon fill="#191970" stroke="#191970" points="737.5001,-158.2455 741,-168.2455 744.5001,-158.2456 737.5001,-158.2455"/>
</g>
<!-- Node23&#45;&gt;Node16 -->
<g id="edge20" class="edge">
<title>Node23&#45;&gt;Node16</title>
<path fill="none" stroke="#191970" d="M203.7298,-166.2356C250.1179,-155.886 316.7723,-141.0149 359.7322,-131.4303"/>
<polygon fill="#191970" stroke="#191970" points="202.8611,-162.8433 193.8632,-168.4369 204.3854,-169.6753 202.8611,-162.8433"/>
</g>
<!-- Node23&#45;&gt;Node19 -->
<g id="edge23" class="edge">
<title>Node23&#45;&gt;Node19</title>
<path fill="none" stroke="#191970" d="M238.6584,-170.8232C251.1891,-169.845 263.921,-168.877 276,-168 521.2091,-150.1967 583.1654,-154.3705 828,-132 830.8114,-131.7431 833.6738,-131.4693 836.564,-131.1824"/>
<polygon fill="#191970" stroke="#191970" points="238.3635,-167.3354 228.6685,-171.6082 238.912,-174.3139 238.3635,-167.3354"/>
</g>
<!-- Node24 -->
<g id="node17" class="node">
<title>Node24</title>
<g id="a_node17"><a xlink:href="GameClock_8inl_8hxx.html" target="_top" xlink:title="src/services/GameClock.inl.hxx">
<polygon fill="none" stroke="#000000" points="0,-112.5 0,-131.5 170,-131.5 170,-112.5 0,-112.5"/>
<text text-anchor="middle" x="85" y="-119.5" font-family="Helvetica,sans-Serif" font-size="10.00" fill="#000000">src/services/GameClock.inl.hxx</text>
</a>
</g>
</g>
<!-- Node23&#45;&gt;Node24 -->
<g id="edge21" class="edge">
<title>Node23&#45;&gt;Node24</title>
<path fill="none" stroke="#191970" d="M126.2462,-162.2097C113.6136,-152.3743 99.3756,-140.0394 91.1194,-131.6427"/>
<polygon fill="#191970" stroke="#191970" points="124.1478,-165.0109 134.2368,-168.2455 128.367,-159.4253 124.1478,-165.0109"/>
</g>
<!-- Node25 -->
<g id="node18" class="node">
<title>Node25</title>
<g id="a_node18"><a xlink:href="GameClock_8cxx.html" target="_top" xlink:title="src/services/GameClock.cxx">
<polygon fill="none" stroke="#000000" points="188,-112.5 188,-131.5 342,-131.5 342,-112.5 188,-112.5"/>
<text text-anchor="middle" x="265" y="-119.5" font-family="Helvetica,sans-Serif" font-size="10.00" fill="#000000">src/services/GameClock.cxx</text>
</a>
</g>
</g>
<!-- Node23&#45;&gt;Node25 -->
<g id="edge24" class="edge">
<title>Node23&#45;&gt;Node25</title>
<path fill="none" stroke="#191970" d="M179.8321,-163.8368C200.4395,-153.7139 227.6082,-140.3679 245.6584,-131.5011"/>
<polygon fill="#191970" stroke="#191970" points="178.0297,-160.8227 170.5973,-168.3733 181.116,-167.1056 178.0297,-160.8227"/>
</g>
<!-- Node24&#45;&gt;Node23 -->
<g id="edge22" class="edge">
<title>Node24&#45;&gt;Node23</title>
<path fill="none" stroke="#191970" d="M109.947,-137.9408C122.4753,-147.7076 136.5406,-159.8943 144.7705,-168.2455"/>
<polygon fill="#191970" stroke="#191970" points="111.6986,-134.8776 101.6097,-131.6427 107.4792,-140.4631 111.6986,-134.8776"/>
</g>
<!-- Node26&#45;&gt;Node16 -->
<g id="edge26" class="edge">
<title>Node26&#45;&gt;Node16</title>
<path fill="none" stroke="#191970" d="M517.377,-164.7888C489.8062,-154.5639 452.2851,-140.6488 427.6191,-131.5011"/>
<polygon fill="#191970" stroke="#191970" points="516.4491,-168.1776 527.0422,-168.3733 518.8832,-161.6144 516.4491,-168.1776"/>
</g>
<!-- Node26&#45;&gt;Node19 -->
<g id="edge27" class="edge">
<title>Node26&#45;&gt;Node19</title>
<path fill="none" stroke="#191970" d="M624.4518,-166.8853C690.8957,-156.5496 788.8352,-141.3145 851.7764,-131.5237"/>
<polygon fill="#191970" stroke="#191970" points="623.8203,-163.4413 614.4772,-168.4369 624.8963,-170.3581 623.8203,-163.4413"/>
</g>
<!-- Node27 -->
<g id="node20" class="node">
<title>Node27</title>
<g id="a_node20"><a xlink:href="ResourceManager_8cxx.html" target="_top" xlink:title="src/services/ResourceManager.cxx">
<polygon fill="none" stroke="#000000" points="462.5,-112.5 462.5,-131.5 645.5,-131.5 645.5,-112.5 462.5,-112.5"/>
<text text-anchor="middle" x="554" y="-119.5" font-family="Helvetica,sans-Serif" font-size="10.00" fill="#000000">src/services/ResourceManager.cxx</text>
</a>
</g>
</g>
<!-- Node26&#45;&gt;Node27 -->
<g id="edge28" class="edge">
<title>Node26&#45;&gt;Node27</title>
<path fill="none" stroke="#191970" d="M553.3543,-158.1575C553.5151,-149.155 553.6979,-138.9199 553.8278,-131.6427"/>
<polygon fill="#191970" stroke="#191970" points="549.8534,-158.1846 553.1742,-168.2455 556.8523,-158.3097 549.8534,-158.1846"/>
</g>
<!-- Node29&#45;&gt;Node19 -->
<g id="edge31" class="edge">
<title>Node29&#45;&gt;Node19</title>
<path fill="none" stroke="#191970" d="M913,-158.1575C913,-149.155 913,-138.9199 913,-131.6427"/>
<polygon fill="#191970" stroke="#191970" points="909.5001,-158.2455 913,-168.2455 916.5001,-158.2456 909.5001,-158.2455"/>
</g>
</g>
</svg>
        <g id="navigator" transform="translate(0 0)" fill="#404254">
                <rect fill="#f2f5e9" fill-opacity="0.5" stroke="#606060" stroke-width=".5" x="0" y="0" width="60" height="60"/>
                <use id="zoomplus" xlink:href="#zoomPlus" x="17" y="9" onmousedown="handleZoom(evt,'in')"/>
                <use id="zoomminus" xlink:href="#zoomMin" x="42" y="9" onmousedown="handleZoom(evt,'out')"/>
                <use id="reset" xlink:href="#resetDef" x="30" y="36" onmousedown="handleReset()"/>
                <g id="arrowUp" xlink:href="#dirArrow" transform="translate(30 24)" onmousedown="handlePan(0,-1)">
                  <use xlink:href="#rim" fill="#404040">
                        <set attributeName="fill" to="#808080" begin="arrowUp.mouseover" end="arrowUp.mouseout"/>
                  </use>
                  <path fill="none" stroke="white" stroke-width="1.5" d="M0,-3.0v7 M-2.5,-0.5L0,-3.0L2.5,-0.5"/>
                </g>
                <g id="arrowRight" xlink:href="#dirArrow" transform="rotate(90) translate(36 -43)" onmousedown="handlePan(1,0)">
                  <use xlink:href="#rim" fill="#404040">
                        <set attributeName="fill" to="#808080" begin="arrowRight.mouseover" end="arrowRight.mouseout"/>
                  </use>
                  <path fill="none" stroke="white" stroke-width="1.5" d="M0,-3.0v7 M-2.5,-0.5L0,-3.0L2.5,-0.5"/>
                </g>
                <g id="arrowDown" xlink:href="#dirArrow" transform="rotate(180) translate(-30 -48)" onmousedown="handlePan(0,1)">
                  <use xlink:href="#rim" fill="#404040">
                        <set attributeName="fill" to="#808080" begin="arrowDown.mouseover" end="arrowDown.mouseout"/>
                  </use>
                  <path fill="none" stroke="white" stroke-width="1.5" d="M0,-3.0v7 M-2.5,-0.5L0,-3.0L2.5,-0.5"/>
                </g>
                <g id="arrowLeft" xlink:href="#dirArrow" transform="rotate(270) translate(-36 17)" onmousedown="handlePan(-1,0)">
                  <use xlink:href="#rim" fill="#404040">
                        <set attributeName="fill" to="#808080" begin="arrowLeft.mouseover" end="arrowLeft.mouseout"/>
                  </use>
                  <path fill="none" stroke="white" stroke-width="1.5" d="M0,-3.0v7 M-2.5,-0.5L0,-3.0L2.5,-0.5"/>
                </g>
        </g>
        <svg viewBox="0 0 15 15" width="100%" height="30px" preserveAspectRatio="xMaxYMin meet">
         <g id="arrow_out" transform="scale(0.3 0.3)">
          <a xlink:href="Observer_8hxx__dep__incl_org.svg" target="_base">
           <rect id="button" ry="5" rx="5" y="6" x="6" height="38" width="38"
                fill="#f2f5e9" fill-opacity="0.5" stroke="#606060" stroke-width="1.0"/>
           <path id="arrow"
             d="M 11.500037,31.436501 C 11.940474,20.09759 22.043105,11.32322 32.158766,21.979434 L 37.068811,17.246167 C 37.068811,17.246167 37.088388,32 37.088388,32 L 22.160133,31.978069 C 22.160133,31.978069 26.997745,27.140456 26.997745,27.140456 C 18.528582,18.264221 13.291696,25.230495 11.500037,31.436501 z"
             style="fill:#404040;"/>
          </a>
         </g>
        </svg>
</svg>
