<?xml version="1.0" encoding="UTF-8" standalone="no"?>
<!DOCTYPE svg PUBLIC "-//W3C//DTD SVG 1.1//EN"
 "http://www.w3.org/Graphics/SVG/1.1/DTD/svg11.dtd">
<!-- Generated by graphviz version 2.40.1 (20161225.0304)
 -->
<!-- Title: src/services/Randomizer.cxx Pages: 1 -->
<!--zoomable 420 -->
<svg id="main" version="1.1" xmlns="http://www.w3.org/2000/svg" xmlns:xlink="http://www.w3.org/1999/xlink" xml:space="preserve" onload="init(evt)">
<style type="text/css"><![CDATA[
.edge:hover path { stroke: red; }
.edge:hover polygon { stroke: red; fill: red; }
]]></style>
<script type="text/javascript"><![CDATA[
var edges = document.getElementsByTagName('g');
if (edges && edges.length) {
  for (var i=0;i<edges.length;i++) {
    if (edges[i].id.substr(0,4)=='edge') {
      edges[i].setAttribute('class','edge');
    }
  }
}
]]></script>
        <defs>
                <circle id="rim" cx="0" cy="0" r="7"/>
                <circle id="rim2" cx="0" cy="0" r="3.5"/>
                <g id="zoomPlus">
                        <use xlink:href="#rim" fill="#404040">
                                <set attributeName="fill" to="#808080" begin="zoomplus.mouseover" end="zoomplus.mouseout"/>
                        </use>
                        <path d="M-4,0h8M0,-4v8" fill="none" stroke="white" stroke-width="1.5" pointer-events="none"/>
                </g>
                <g id="zoomMin">
                        <use xlink:href="#rim" fill="#404040">
                                <set attributeName="fill" to="#808080" begin="zoomminus.mouseover" end="zoomminus.mouseout"/>
                        </use>
                        <path d="M-4,0h8" fill="none" stroke="white" stroke-width="1.5" pointer-events="none"/>
                </g>
                <g id="dirArrow">
                        <path fill="none" stroke="white" stroke-width="1.5" d="M0,-3.0v7 M-2.5,-0.5L0,-3.0L2.5,-0.5"/>
                </g>
               <g id="resetDef">
                       <use xlink:href="#rim2" fill="#404040">
                               <set attributeName="fill" to="#808080" begin="reset.mouseover" end="reset.mouseout"/>
                       </use>
               </g>
        </defs>

<script type="text/javascript">
var viewWidth = 1104;
var viewHeight = 420;
var sectionId = 'dynsection-0';
</script>
<script xlink:href="svgpan.js"/>
<svg id="graph" class="graph">
<g id="viewport">
<title>src/services/Randomizer.cxx</title>
<!-- Node0 -->
<g id="node1" class="node">
<title>Node0</title>
<polygon fill="#bfbfbf" stroke="#000000" points="135.5,-392.5 135.5,-411.5 290.5,-411.5 290.5,-392.5 135.5,-392.5"/>
<text text-anchor="middle" x="213" y="-399.5" font-family="Helvetica,sans-Serif" font-size="10.00" fill="#000000">src/services/Randomizer.cxx</text>
</g>
<!-- Node1 -->
<g id="node2" class="node">
<title>Node1</title>
<g id="a_node2"><a xlink:href="Randomizer_8hxx.html" target="_top" xlink:title="Randomizer.hxx">
<polygon fill="none" stroke="#000000" points="165.5,-336.5 165.5,-355.5 260.5,-355.5 260.5,-336.5 165.5,-336.5"/>
<text text-anchor="middle" x="213" y="-343.5" font-family="Helvetica,sans-Serif" font-size="10.00" fill="#000000">Randomizer.hxx</text>
</a>
</g>
</g>
<!-- Node0&#45;&gt;Node1 -->
<g id="edge1" class="edge">
<title>Node0&#45;&gt;Node1</title>
<path fill="none" stroke="#191970" d="M213,-392.2455C213,-384.9382 213,-374.6944 213,-365.7046"/>
<polygon fill="#191970" stroke="#191970" points="216.5001,-365.6426 213,-355.6427 209.5001,-365.6427 216.5001,-365.6426"/>
</g>
<!-- Node2 -->
<g id="node3" class="node">
<title>Node2</title>
<polygon fill="none" stroke="#bfbfbf" points="64,-280.5 64,-299.5 118,-299.5 118,-280.5 64,-280.5"/>
<text text-anchor="middle" x="91" y="-287.5" font-family="Helvetica,sans-Serif" font-size="10.00" fill="#000000">random</text>
</g>
<!-- Node1&#45;&gt;Node2 -->
<g id="edge2" class="edge">
<title>Node1&#45;&gt;Node2</title>
<path fill="none" stroke="#191970" d="M192.0275,-336.3733C172.4433,-327.3838 143.0039,-313.8706 120.949,-303.7471"/>
<polygon fill="#191970" stroke="#191970" points="122.2473,-300.4919 111.6989,-299.5011 119.3271,-306.8538 122.2473,-300.4919"/>
</g>
<!-- Node3 -->
<g id="node4" class="node">
<title>Node3</title>
<polygon fill="none" stroke="#bfbfbf" points="136.5,-280.5 136.5,-299.5 189.5,-299.5 189.5,-280.5 136.5,-280.5"/>
<text text-anchor="middle" x="163" y="-287.5" font-family="Helvetica,sans-Serif" font-size="10.00" fill="#000000">iterator</text>
</g>
<!-- Node1&#45;&gt;Node3 -->
<g id="edge3" class="edge">
<title>Node1&#45;&gt;Node3</title>
<path fill="none" stroke="#191970" d="M204.2907,-336.2455C197.1927,-328.2958 186.9916,-316.8706 178.505,-307.3656"/>
<polygon fill="#191970" stroke="#191970" points="180.8805,-304.771 171.6095,-299.6427 175.6589,-309.4331 180.8805,-304.771"/>
</g>
<!-- Node4 -->
<g id="node5" class="node">
<title>Node4</title>
<g id="a_node5"><a xlink:href="GameService_8hxx.html" target="_top" xlink:title="../GameService.hxx">
<polygon fill="none" stroke="#000000" points="208,-280.5 208,-299.5 320,-299.5 320,-280.5 208,-280.5"/>
<text text-anchor="middle" x="264" y="-287.5" font-family="Helvetica,sans-Serif" font-size="10.00" fill="#000000">../GameService.hxx</text>
</a>
</g>
</g>
<!-- Node1&#45;&gt;Node4 -->
<g id="edge4" class="edge">
<title>Node1&#45;&gt;Node4</title>
<path fill="none" stroke="#191970" d="M221.8835,-336.2455C229.1966,-328.2155 239.7391,-316.6394 248.4467,-307.0781"/>
<polygon fill="#191970" stroke="#191970" points="251.0727,-309.3928 255.2183,-299.6427 245.8972,-304.6795 251.0727,-309.3928"/>
</g>
<!-- Node19 -->
<g id="node20" class="node">
<title>Node19</title>
<g id="a_node20"><a xlink:href="LOG_8hxx.html" target="_top" xlink:title="LOG.hxx">
<polygon fill="none" stroke="#000000" points="595,-224.5 595,-243.5 653,-243.5 653,-224.5 595,-224.5"/>
<text text-anchor="middle" x="624" y="-231.5" font-family="Helvetica,sans-Serif" font-size="10.00" fill="#000000">LOG.hxx</text>
</a>
</g>
</g>
<!-- Node1&#45;&gt;Node19 -->
<g id="edge20" class="edge">
<title>Node1&#45;&gt;Node19</title>
<path fill="none" stroke="#191970" d="M248.0416,-336.4509C324.3053,-315.6686 504.8831,-266.4601 584.7919,-244.6844"/>
<polygon fill="#191970" stroke="#191970" points="586.1999,-247.9285 594.9278,-241.9223 584.3594,-241.1747 586.1999,-247.9285"/>
</g>
<!-- Node5 -->
<g id="node6" class="node">
<title>Node5</title>
<g id="a_node6"><a xlink:href="Events_8hxx.html" target="_top" xlink:title="Events.hxx">
<polygon fill="none" stroke="#000000" points="228.5,-224.5 228.5,-243.5 299.5,-243.5 299.5,-224.5 228.5,-224.5"/>
<text text-anchor="middle" x="264" y="-231.5" font-family="Helvetica,sans-Serif" font-size="10.00" fill="#000000">Events.hxx</text>
</a>
</g>
</g>
<!-- Node4&#45;&gt;Node5 -->
<g id="edge5" class="edge">
<title>Node4&#45;&gt;Node5</title>
<path fill="none" stroke="#191970" d="M264,-280.2455C264,-272.9382 264,-262.6944 264,-253.7046"/>
<polygon fill="#191970" stroke="#191970" points="267.5001,-253.6426 264,-243.6427 260.5001,-253.6427 267.5001,-253.6426"/>
</g>
<!-- Node18 -->
<g id="node19" class="node">
<title>Node18</title>
<g id="a_node19"><a xlink:href="GameService_8inl_8hxx.html" target="_top" xlink:title="GameService.inl.hxx">
<polygon fill="none" stroke="#000000" points="92,-224.5 92,-243.5 210,-243.5 210,-224.5 92,-224.5"/>
<text text-anchor="middle" x="151" y="-231.5" font-family="Helvetica,sans-Serif" font-size="10.00" fill="#000000">GameService.inl.hxx</text>
</a>
</g>
</g>
<!-- Node4&#45;&gt;Node18 -->
<g id="edge19" class="edge">
<title>Node4&#45;&gt;Node18</title>
<path fill="none" stroke="#191970" d="M244.5746,-280.3733C226.5979,-271.4644 199.6559,-258.1127 179.291,-248.0203"/>
<polygon fill="#191970" stroke="#191970" points="180.6861,-244.8055 170.1719,-243.5011 177.5778,-251.0776 180.6861,-244.8055"/>
</g>
<!-- Node6 -->
<g id="node7" class="node">
<title>Node6</title>
<polygon fill="none" stroke="#bfbfbf" points="292,-168.5 292,-187.5 336,-187.5 336,-168.5 292,-168.5"/>
<text text-anchor="middle" x="314" y="-175.5" font-family="Helvetica,sans-Serif" font-size="10.00" fill="#000000">string</text>
</g>
<!-- Node5&#45;&gt;Node6 -->
<g id="edge6" class="edge">
<title>Node5&#45;&gt;Node6</title>
<path fill="none" stroke="#191970" d="M272.7093,-224.2455C279.8073,-216.2958 290.0084,-204.8706 298.495,-195.3656"/>
<polygon fill="#191970" stroke="#191970" points="301.3411,-197.4331 305.3905,-187.6427 296.1195,-192.771 301.3411,-197.4331"/>
</g>
<!-- Node7 -->
<g id="node8" class="node">
<title>Node7</title>
<polygon fill="none" stroke="#bfbfbf" points="0,-168.5 0,-187.5 100,-187.5 100,-168.5 0,-168.5"/>
<text text-anchor="middle" x="50" y="-175.5" font-family="Helvetica,sans-Serif" font-size="10.00" fill="#000000">betterEnums.hxx</text>
</g>
<!-- Node5&#45;&gt;Node7 -->
<g id="edge7" class="edge">
<title>Node5&#45;&gt;Node7</title>
<path fill="none" stroke="#191970" d="M228.1812,-224.6269C191.9836,-215.1546 135.8953,-200.4773 96.333,-190.1245"/>
<polygon fill="#191970" stroke="#191970" points="97.2133,-186.7371 86.653,-187.5914 95.4411,-193.5091 97.2133,-186.7371"/>
</g>
<!-- Node8 -->
<g id="node9" class="node">
<title>Node8</title>
<g id="a_node9"><a xlink:href="Meta_8hxx.html" target="_top" xlink:title="util/Meta.hxx">
<polygon fill="none" stroke="#000000" points="274,-56.5 274,-75.5 354,-75.5 354,-56.5 274,-56.5"/>
<text text-anchor="middle" x="314" y="-63.5" font-family="Helvetica,sans-Serif" font-size="10.00" fill="#000000">util/Meta.hxx</text>
</a>
</g>
</g>
<!-- Node5&#45;&gt;Node8 -->
<g id="edge8" class="edge">
<title>Node5&#45;&gt;Node8</title>
<path fill="none" stroke="#191970" d="M266.7875,-224.1468C270.4515,-211.2354 277.1135,-187.8946 283,-168 291.5463,-139.1159 301.7553,-105.7323 308.0588,-85.2443"/>
<polygon fill="#191970" stroke="#191970" points="311.4465,-86.1357 311.0467,-75.5484 304.7569,-84.0742 311.4465,-86.1357"/>
</g>
<!-- Node13 -->
<g id="node14" class="node">
<title>Node13</title>
<g id="a_node14"><a xlink:href="UIEvents_8hxx.html" target="_top" xlink:title="events/UIEvents.hxx">
<polygon fill="none" stroke="#000000" points="118.5,-168.5 118.5,-187.5 235.5,-187.5 235.5,-168.5 118.5,-168.5"/>
<text text-anchor="middle" x="177" y="-175.5" font-family="Helvetica,sans-Serif" font-size="10.00" fill="#000000">events/UIEvents.hxx</text>
</a>
</g>
</g>
<!-- Node5&#45;&gt;Node13 -->
<g id="edge13" class="edge">
<title>Node5&#45;&gt;Node13</title>
<path fill="none" stroke="#191970" d="M248.8458,-224.2455C235.4973,-215.6534 215.8414,-203.0014 200.4617,-193.1018"/>
<polygon fill="#191970" stroke="#191970" points="202.2836,-190.1121 191.9806,-187.6427 198.4949,-195.9982 202.2836,-190.1121"/>
</g>
<!-- Node9 -->
<g id="node10" class="node">
<title>Node9</title>
<polygon fill="none" stroke="#bfbfbf" points="637,-.5 637,-19.5 697,-19.5 697,-.5 637,-.5"/>
<text text-anchor="middle" x="667" y="-7.5" font-family="Helvetica,sans-Serif" font-size="10.00" fill="#000000">iostream</text>
</g>
<!-- Node8&#45;&gt;Node9 -->
<g id="edge9" class="edge">
<title>Node8&#45;&gt;Node9</title>
<path fill="none" stroke="#191970" d="M354.1499,-59.6306C422.0431,-48.86 558.7589,-27.1714 626.7319,-16.3881"/>
<polygon fill="#191970" stroke="#191970" points="627.3099,-19.8403 636.638,-14.8166 626.213,-12.9268 627.3099,-19.8403"/>
</g>
<!-- Node10 -->
<g id="node11" class="node">
<title>Node10</title>
<polygon fill="none" stroke="#bfbfbf" points="352.5,-.5 352.5,-19.5 421.5,-19.5 421.5,-.5 352.5,-.5"/>
<text text-anchor="middle" x="387" y="-7.5" font-family="Helvetica,sans-Serif" font-size="10.00" fill="#000000">type_traits</text>
</g>
<!-- Node8&#45;&gt;Node10 -->
<g id="edge10" class="edge">
<title>Node8&#45;&gt;Node10</title>
<path fill="none" stroke="#191970" d="M326.7156,-56.2455C337.602,-47.8943 353.4883,-35.7076 366.22,-25.9408"/>
<polygon fill="#191970" stroke="#191970" points="368.6261,-28.5063 374.4301,-19.6427 364.3654,-22.9523 368.6261,-28.5063"/>
</g>
<!-- Node11 -->
<g id="node12" class="node">
<title>Node11</title>
<polygon fill="none" stroke="#bfbfbf" points="224.5,-.5 224.5,-19.5 275.5,-19.5 275.5,-.5 224.5,-.5"/>
<text text-anchor="middle" x="250" y="-7.5" font-family="Helvetica,sans-Serif" font-size="10.00" fill="#000000">variant</text>
</g>
<!-- Node8&#45;&gt;Node11 -->
<g id="edge11" class="edge">
<title>Node8&#45;&gt;Node11</title>
<path fill="none" stroke="#191970" d="M302.8521,-56.2455C293.4913,-48.0549 279.9142,-36.1749 268.8651,-26.5069"/>
<polygon fill="#191970" stroke="#191970" points="270.8508,-23.5937 261.0202,-19.6427 266.2412,-28.8618 270.8508,-23.5937"/>
</g>
<!-- Node12 -->
<g id="node13" class="node">
<title>Node12</title>
<polygon fill="none" stroke="#bfbfbf" points="293.5,-.5 293.5,-19.5 334.5,-19.5 334.5,-.5 293.5,-.5"/>
<text text-anchor="middle" x="314" y="-7.5" font-family="Helvetica,sans-Serif" font-size="10.00" fill="#000000">tuple</text>
</g>
<!-- Node8&#45;&gt;Node12 -->
<g id="edge12" class="edge">
<title>Node8&#45;&gt;Node12</title>
<path fill="none" stroke="#191970" d="M314,-56.2455C314,-48.9382 314,-38.6944 314,-29.7046"/>
<polygon fill="#191970" stroke="#191970" points="317.5001,-29.6426 314,-19.6427 310.5001,-29.6427 317.5001,-29.6426"/>
</g>
<!-- Node14 -->
<g id="node15" class="node">
<title>Node14</title>
<polygon fill="none" stroke="#bfbfbf" points="170.5,-112.5 170.5,-131.5 235.5,-131.5 235.5,-112.5 170.5,-112.5"/>
<text text-anchor="middle" x="203" y="-119.5" font-family="Helvetica,sans-Serif" font-size="10.00" fill="#000000">functional</text>
</g>
<!-- Node13&#45;&gt;Node14 -->
<g id="edge14" class="edge">
<title>Node13&#45;&gt;Node14</title>
<path fill="none" stroke="#191970" d="M181.5289,-168.2455C185.0334,-160.6973 189.9927,-150.0158 194.2623,-140.8197"/>
<polygon fill="#191970" stroke="#191970" points="197.4864,-142.1867 198.523,-131.6427 191.1373,-139.2389 197.4864,-142.1867"/>
</g>
<!-- Node15 -->
<g id="node16" class="node">
<title>Node15</title>
<g id="a_node16"><a xlink:href="Observer_8hxx.html" target="_top" xlink:title="../util/Observer.hxx">
<polygon fill="none" stroke="#000000" points="43.5,-112.5 43.5,-131.5 152.5,-131.5 152.5,-112.5 43.5,-112.5"/>
<text text-anchor="middle" x="98" y="-119.5" font-family="Helvetica,sans-Serif" font-size="10.00" fill="#000000">../util/Observer.hxx</text>
</a>
</g>
</g>
<!-- Node13&#45;&gt;Node15 -->
<g id="edge15" class="edge">
<title>Node13&#45;&gt;Node15</title>
<path fill="none" stroke="#191970" d="M163.2393,-168.2455C151.3448,-159.814 133.935,-147.4729 120.0915,-137.6598"/>
<polygon fill="#191970" stroke="#191970" points="121.7854,-134.5704 111.6031,-131.6427 117.7372,-140.2811 121.7854,-134.5704"/>
</g>
<!-- Node15&#45;&gt;Node8 -->
<g id="edge18" class="edge">
<title>Node15&#45;&gt;Node8</title>
<path fill="none" stroke="#191970" d="M135.1317,-112.3733C171.8267,-102.8598 228.0639,-88.2797 267.6651,-78.0127"/>
<polygon fill="#191970" stroke="#191970" points="268.5512,-81.3988 277.3528,-75.5011 266.7944,-74.6228 268.5512,-81.3988"/>
</g>
<!-- Node16 -->
<g id="node17" class="node">
<title>Node16</title>
<polygon fill="none" stroke="#bfbfbf" points="39.5,-56.5 39.5,-75.5 86.5,-75.5 86.5,-56.5 39.5,-56.5"/>
<text text-anchor="middle" x="63" y="-63.5" font-family="Helvetica,sans-Serif" font-size="10.00" fill="#000000">vector</text>
</g>
<!-- Node15&#45;&gt;Node16 -->
<g id="edge16" class="edge">
<title>Node15&#45;&gt;Node16</title>
<path fill="none" stroke="#191970" d="M91.9035,-112.2455C87.0855,-104.5367 80.2249,-93.5598 74.3968,-84.2348"/>
<polygon fill="#191970" stroke="#191970" points="77.2947,-82.2677 69.0267,-75.6427 71.3587,-85.9777 77.2947,-82.2677"/>
</g>
<!-- Node17 -->
<g id="node18" class="node">
<title>Node17</title>
<polygon fill="none" stroke="#bfbfbf" points="105,-56.5 105,-75.5 163,-75.5 163,-56.5 105,-56.5"/>
<text text-anchor="middle" x="134" y="-63.5" font-family="Helvetica,sans-Serif" font-size="10.00" fill="#000000">memory</text>
</g>
<!-- Node15&#45;&gt;Node17 -->
<g id="edge17" class="edge">
<title>Node15&#45;&gt;Node17</title>
<path fill="none" stroke="#191970" d="M104.2707,-112.2455C109.2264,-104.5367 116.283,-93.5598 122.2776,-84.2348"/>
<polygon fill="#191970" stroke="#191970" points="125.3376,-85.9471 127.8011,-75.6427 119.4494,-82.1618 125.3376,-85.9471"/>
</g>
<!-- Node19&#45;&gt;Node6 -->
<g id="edge21" class="edge">
<title>Node19&#45;&gt;Node6</title>
<path fill="none" stroke="#191970" d="M594.6087,-230.0956C544.2328,-223.1744 438.2878,-207.6168 350,-188 348.7533,-187.723 347.4855,-187.4295 346.2072,-187.1236"/>
<polygon fill="#191970" stroke="#191970" points="346.933,-183.6966 336.3773,-184.6061 345.1963,-190.4777 346.933,-183.6966"/>
</g>
<!-- Node19&#45;&gt;Node8 -->
<g id="edge33" class="edge">
<title>Node19&#45;&gt;Node8</title>
<path fill="none" stroke="#191970" d="M594.784,-231.4921C538.2873,-226.1554 416.6579,-212.1477 383,-188 347.5676,-162.5792 327.9295,-112.9624 319.3363,-85.4838"/>
<polygon fill="#191970" stroke="#191970" points="322.6721,-84.4216 316.4869,-75.8196 315.9579,-86.4012 322.6721,-84.4216"/>
</g>
<!-- Node19&#45;&gt;Node9 -->
<g id="edge25" class="edge">
<title>Node19&#45;&gt;Node9</title>
<path fill="none" stroke="#191970" d="M653.0115,-231.1809C719.71,-224.4079 879.4503,-206.4116 895,-188 959.0884,-112.1164 788.0425,-47.2357 706.9439,-21.6537"/>
<polygon fill="#191970" stroke="#191970" points="707.6452,-18.2069 697.0572,-18.5892 705.5726,-24.893 707.6452,-18.2069"/>
</g>
<!-- Node20 -->
<g id="node21" class="node">
<title>Node20</title>
<g id="a_node21"><a xlink:href="Exception_8hxx.html" target="_top" xlink:title="Exception.hxx">
<polygon fill="none" stroke="#000000" points="942,-168.5 942,-187.5 1028,-187.5 1028,-168.5 942,-168.5"/>
<text text-anchor="middle" x="985" y="-175.5" font-family="Helvetica,sans-Serif" font-size="10.00" fill="#000000">Exception.hxx</text>
</a>
</g>
</g>
<!-- Node19&#45;&gt;Node20 -->
<g id="edge22" class="edge">
<title>Node19&#45;&gt;Node20</title>
<path fill="none" stroke="#191970" d="M653.3825,-229.7882C707.6808,-221.9529 827.3806,-204.4366 928,-188 929.2549,-187.795 930.5251,-187.5858 931.8059,-187.3734"/>
<polygon fill="#191970" stroke="#191970" points="932.4789,-190.8094 941.7581,-185.6962 931.3155,-183.9068 932.4789,-190.8094"/>
</g>
<!-- Node23 -->
<g id="node24" class="node">
<title>Node23</title>
<polygon fill="none" stroke="#bfbfbf" points="1046,-168.5 1046,-187.5 1096,-187.5 1096,-168.5 1046,-168.5"/>
<text text-anchor="middle" x="1071" y="-175.5" font-family="Helvetica,sans-Serif" font-size="10.00" fill="#000000">chrono</text>
</g>
<!-- Node19&#45;&gt;Node23 -->
<g id="edge26" class="edge">
<title>Node19&#45;&gt;Node23</title>
<path fill="none" stroke="#191970" d="M653.0592,-232.5165C719.3567,-228.7605 886.9063,-217.1667 1035.65,-187.9647"/>
<polygon fill="#191970" stroke="#191970" points="1036.7507,-191.3141 1045.8719,-185.9238 1035.3801,-184.4496 1036.7507,-191.3141"/>
</g>
<!-- Node24 -->
<g id="node25" class="node">
<title>Node24</title>
<polygon fill="none" stroke="#bfbfbf" points="392,-168.5 392,-187.5 436,-187.5 436,-168.5 392,-168.5"/>
<text text-anchor="middle" x="414" y="-175.5" font-family="Helvetica,sans-Serif" font-size="10.00" fill="#000000">ctime</text>
</g>
<!-- Node19&#45;&gt;Node24 -->
<g id="edge27" class="edge">
<title>Node19&#45;&gt;Node24</title>
<path fill="none" stroke="#191970" d="M594.7088,-227.0494C561.014,-218.9282 503.8342,-204.7639 445.9681,-188.1661"/>
<polygon fill="#191970" stroke="#191970" points="446.8801,-184.7864 436.3014,-185.372 444.9363,-191.5112 446.8801,-184.7864"/>
</g>
<!-- Node25 -->
<g id="node26" class="node">
<title>Node25</title>
<polygon fill="none" stroke="#bfbfbf" points="454.5,-168.5 454.5,-187.5 509.5,-187.5 509.5,-168.5 454.5,-168.5"/>
<text text-anchor="middle" x="482" y="-175.5" font-family="Helvetica,sans-Serif" font-size="10.00" fill="#000000">fstream</text>
</g>
<!-- Node19&#45;&gt;Node25 -->
<g id="edge28" class="edge">
<title>Node19&#45;&gt;Node25</title>
<path fill="none" stroke="#191970" d="M599.5893,-224.3733C576.3858,-215.2226 541.2962,-201.3844 515.4858,-191.2057"/>
<polygon fill="#191970" stroke="#191970" points="516.6789,-187.9139 506.0921,-187.5011 514.1108,-194.4258 516.6789,-187.9139"/>
</g>
<!-- Node26 -->
<g id="node27" class="node">
<title>Node26</title>
<polygon fill="none" stroke="#bfbfbf" points="528,-168.5 528,-187.5 584,-187.5 584,-168.5 528,-168.5"/>
<text text-anchor="middle" x="556" y="-175.5" font-family="Helvetica,sans-Serif" font-size="10.00" fill="#000000">sstream</text>
</g>
<!-- Node19&#45;&gt;Node26 -->
<g id="edge29" class="edge">
<title>Node19&#45;&gt;Node26</title>
<path fill="none" stroke="#191970" d="M612.1553,-224.2455C602.112,-215.9746 587.5005,-203.9416 575.6996,-194.2232"/>
<polygon fill="#191970" stroke="#191970" points="577.6533,-191.298 567.709,-187.6427 573.2033,-196.7015 577.6533,-191.298"/>
</g>
<!-- Node27 -->
<g id="node28" class="node">
<title>Node27</title>
<polygon fill="none" stroke="#bfbfbf" points="602,-168.5 602,-187.5 646,-187.5 646,-168.5 602,-168.5"/>
<text text-anchor="middle" x="624" y="-175.5" font-family="Helvetica,sans-Serif" font-size="10.00" fill="#000000">SDL.h</text>
</g>
<!-- Node19&#45;&gt;Node27 -->
<g id="edge30" class="edge">
<title>Node19&#45;&gt;Node27</title>
<path fill="none" stroke="#191970" d="M624,-224.2455C624,-216.9382 624,-206.6944 624,-197.7046"/>
<polygon fill="#191970" stroke="#191970" points="627.5001,-197.6426 624,-187.6427 620.5001,-197.6427 627.5001,-197.6426"/>
</g>
<!-- Node28 -->
<g id="node29" class="node">
<title>Node28</title>
<polygon fill="none" stroke="#bfbfbf" points="664,-168.5 664,-187.5 728,-187.5 728,-168.5 664,-168.5"/>
<text text-anchor="middle" x="696" y="-175.5" font-family="Helvetica,sans-Serif" font-size="10.00" fill="#000000">algorithm</text>
</g>
<!-- Node19&#45;&gt;Node28 -->
<g id="edge31" class="edge">
<title>Node19&#45;&gt;Node28</title>
<path fill="none" stroke="#191970" d="M636.5414,-224.2455C647.2787,-215.8943 662.9473,-203.7076 675.5047,-193.9408"/>
<polygon fill="#191970" stroke="#191970" points="677.8575,-196.5449 683.6023,-187.6427 673.5599,-191.0194 677.8575,-196.5449"/>
</g>
<!-- Node29 -->
<g id="node30" class="node">
<title>Node29</title>
<polygon fill="none" stroke="#bfbfbf" points="746,-168.5 746,-187.5 794,-187.5 794,-168.5 746,-168.5"/>
<text text-anchor="middle" x="770" y="-175.5" font-family="Helvetica,sans-Serif" font-size="10.00" fill="#000000">mutex</text>
</g>
<!-- Node19&#45;&gt;Node29 -->
<g id="edge32" class="edge">
<title>Node19&#45;&gt;Node29</title>
<path fill="none" stroke="#191970" d="M649.0983,-224.3733C673.1001,-215.1671 709.4713,-201.2165 736.0524,-191.021"/>
<polygon fill="#191970" stroke="#191970" points="737.631,-194.1642 745.7144,-187.315 735.1242,-187.6285 737.631,-194.1642"/>
</g>
<!-- Node30 -->
<g id="node31" class="node">
<title>Node30</title>
<g id="a_node31"><a xlink:href="LOG_8inl_8hxx.html" target="_top" xlink:title="LOG.inl.hxx">
<polygon fill="none" stroke="#000000" points="812.5,-168.5 812.5,-187.5 885.5,-187.5 885.5,-168.5 812.5,-168.5"/>
<text text-anchor="middle" x="849" y="-175.5" font-family="Helvetica,sans-Serif" font-size="10.00" fill="#000000">LOG.inl.hxx</text>
</a>
</g>
</g>
<!-- Node19&#45;&gt;Node30 -->
<g id="edge34" class="edge">
<title>Node19&#45;&gt;Node30</title>
<path fill="none" stroke="#191970" d="M653.4148,-226.679C691.3998,-217.2249 757.9373,-200.6645 802.7267,-189.5169"/>
<polygon fill="#191970" stroke="#191970" points="803.6355,-192.8976 812.4941,-187.0859 801.9448,-186.1048 803.6355,-192.8976"/>
</g>
<!-- Node21 -->
<g id="node22" class="node">
<title>Node21</title>
<polygon fill="none" stroke="#bfbfbf" points="1030.5,-112.5 1030.5,-131.5 1095.5,-131.5 1095.5,-112.5 1030.5,-112.5"/>
<text text-anchor="middle" x="1063" y="-119.5" font-family="Helvetica,sans-Serif" font-size="10.00" fill="#000000">stdexcept</text>
</g>
<!-- Node20&#45;&gt;Node21 -->
<g id="edge23" class="edge">
<title>Node20&#45;&gt;Node21</title>
<path fill="none" stroke="#191970" d="M998.5866,-168.2455C1010.3305,-159.814 1027.5199,-147.4729 1041.1882,-137.6598"/>
<polygon fill="#191970" stroke="#191970" points="1043.4871,-140.3179 1049.5691,-131.6427 1039.4046,-134.6316 1043.4871,-140.3179"/>
</g>
<!-- Node22 -->
<g id="node23" class="node">
<title>Node22</title>
<polygon fill="none" stroke="#bfbfbf" points="947.5,-112.5 947.5,-131.5 1012.5,-131.5 1012.5,-112.5 947.5,-112.5"/>
<text text-anchor="middle" x="980" y="-119.5" font-family="Helvetica,sans-Serif" font-size="10.00" fill="#000000">exception</text>
</g>
<!-- Node20&#45;&gt;Node22 -->
<g id="edge24" class="edge">
<title>Node20&#45;&gt;Node22</title>
<path fill="none" stroke="#191970" d="M984.1291,-168.2455C983.4766,-160.9382 982.562,-150.6944 981.7593,-141.7046"/>
<polygon fill="#191970" stroke="#191970" points="985.2365,-141.2918 980.861,-131.6427 978.2642,-141.9143 985.2365,-141.2918"/>
</g>
</g>
</svg>
        <g id="navigator" transform="translate(0 0)" fill="#404254">
                <rect fill="#f2f5e9" fill-opacity="0.5" stroke="#606060" stroke-width=".5" x="0" y="0" width="60" height="60"/>
                <use id="zoomplus" xlink:href="#zoomPlus" x="17" y="9" onmousedown="handleZoom(evt,'in')"/>
                <use id="zoomminus" xlink:href="#zoomMin" x="42" y="9" onmousedown="handleZoom(evt,'out')"/>
                <use id="reset" xlink:href="#resetDef" x="30" y="36" onmousedown="handleReset()"/>
                <g id="arrowUp" xlink:href="#dirArrow" transform="translate(30 24)" onmousedown="handlePan(0,-1)">
                  <use xlink:href="#rim" fill="#404040">
                        <set attributeName="fill" to="#808080" begin="arrowUp.mouseover" end="arrowUp.mouseout"/>
                  </use>
                  <path fill="none" stroke="white" stroke-width="1.5" d="M0,-3.0v7 M-2.5,-0.5L0,-3.0L2.5,-0.5"/>
                </g>
                <g id="arrowRight" xlink:href="#dirArrow" transform="rotate(90) translate(36 -43)" onmousedown="handlePan(1,0)">
                  <use xlink:href="#rim" fill="#404040">
                        <set attributeName="fill" to="#808080" begin="arrowRight.mouseover" end="arrowRight.mouseout"/>
                  </use>
                  <path fill="none" stroke="white" stroke-width="1.5" d="M0,-3.0v7 M-2.5,-0.5L0,-3.0L2.5,-0.5"/>
                </g>
                <g id="arrowDown" xlink:href="#dirArrow" transform="rotate(180) translate(-30 -48)" onmousedown="handlePan(0,1)">
                  <use xlink:href="#rim" fill="#404040">
                        <set attributeName="fill" to="#808080" begin="arrowDown.mouseover" end="arrowDown.mouseout"/>
                  </use>
                  <path fill="none" stroke="white" stroke-width="1.5" d="M0,-3.0v7 M-2.5,-0.5L0,-3.0L2.5,-0.5"/>
                </g>
                <g id="arrowLeft" xlink:href="#dirArrow" transform="rotate(270) translate(-36 17)" onmousedown="handlePan(-1,0)">
                  <use xlink:href="#rim" fill="#404040">
                        <set attributeName="fill" to="#808080" begin="arrowLeft.mouseover" end="arrowLeft.mouseout"/>
                  </use>
                  <path fill="none" stroke="white" stroke-width="1.5" d="M0,-3.0v7 M-2.5,-0.5L0,-3.0L2.5,-0.5"/>
                </g>
        </g>
        <svg viewBox="0 0 15 15" width="100%" height="30px" preserveAspectRatio="xMaxYMin meet">
         <g id="arrow_out" transform="scale(0.3 0.3)">
          <a xlink:href="Randomizer_8cxx__incl_org.svg" target="_base">
           <rect id="button" ry="5" rx="5" y="6" x="6" height="38" width="38"
                fill="#f2f5e9" fill-opacity="0.5" stroke="#606060" stroke-width="1.0"/>
           <path id="arrow"
             d="M 11.500037,31.436501 C 11.940474,20.09759 22.043105,11.32322 32.158766,21.979434 L 37.068811,17.246167 C 37.068811,17.246167 37.088388,32 37.088388,32 L 22.160133,31.978069 C 22.160133,31.978069 26.997745,27.140456 26.997745,27.140456 C 18.528582,18.264221 13.291696,25.230495 11.500037,31.436501 z"
             style="fill:#404040;"/>
          </a>
         </g>
        </svg>
</svg>
