<?xml version="1.0" encoding="UTF-8" standalone="no"?>
<!DOCTYPE svg PUBLIC "-//W3C//DTD SVG 1.1//EN"
 "http://www.w3.org/Graphics/SVG/1.1/DTD/svg11.dtd">
<!-- Generated by graphviz version 2.40.1 (20161225.0304)
 -->
<!-- Title: src/util/Range.inl.hxx Pages: 1 -->
<!--zoomable 263 -->
<svg id="main" version="1.1" xmlns="http://www.w3.org/2000/svg" xmlns:xlink="http://www.w3.org/1999/xlink" xml:space="preserve" onload="init(evt)">
<style type="text/css"><![CDATA[
.edge:hover path { stroke: red; }
.edge:hover polygon { stroke: red; fill: red; }
]]></style>
<script type="text/javascript"><![CDATA[
var edges = document.getElementsByTagName('g');
if (edges && edges.length) {
  for (var i=0;i<edges.length;i++) {
    if (edges[i].id.substr(0,4)=='edge') {
      edges[i].setAttribute('class','edge');
    }
  }
}
]]></script>
        <defs>
                <circle id="rim" cx="0" cy="0" r="7"/>
                <circle id="rim2" cx="0" cy="0" r="3.5"/>
                <g id="zoomPlus">
                        <use xlink:href="#rim" fill="#404040">
                                <set attributeName="fill" to="#808080" begin="zoomplus.mouseover" end="zoomplus.mouseout"/>
                        </use>
                        <path d="M-4,0h8M0,-4v8" fill="none" stroke="white" stroke-width="1.5" pointer-events="none"/>
                </g>
                <g id="zoomMin">
                        <use xlink:href="#rim" fill="#404040">
                                <set attributeName="fill" to="#808080" begin="zoomminus.mouseover" end="zoomminus.mouseout"/>
                        </use>
                        <path d="M-4,0h8" fill="none" stroke="white" stroke-width="1.5" pointer-events="none"/>
                </g>
                <g id="dirArrow">
                        <path fill="none" stroke="white" stroke-width="1.5" d="M0,-3.0v7 M-2.5,-0.5L0,-3.0L2.5,-0.5"/>
                </g>
               <g id="resetDef">
                       <use xlink:href="#rim2" fill="#404040">
                               <set attributeName="fill" to="#808080" begin="reset.mouseover" end="reset.mouseout"/>
                       </use>
               </g>
        </defs>

<script type="text/javascript">
var viewWidth = 2822;
var viewHeight = 263;
var sectionId = 'dynsection-0';
</script>
<script xlink:href="svgpan.js"/>
<svg id="graph" class="graph">
<g id="viewport">
<title>src/util/Range.inl.hxx</title>
<!-- Node1 -->
<g id="node1" class="node">
<title>Node1</title>
<polygon fill="#bfbfbf" stroke="#000000" points="1430.5,-235.5 1430.5,-254.5 1549.5,-254.5 1549.5,-235.5 1430.5,-235.5"/>
<text text-anchor="middle" x="1490" y="-242.5" font-family="Helvetica,sans-Serif" font-size="10.00" fill="#000000">src/util/Range.inl.hxx</text>
</g>
<!-- Node2 -->
<g id="node2" class="node">
<title>Node2</title>
<g id="a_node2"><a xlink:href="Range_8hxx.html" target="_top" xlink:title="src/util/Range.hxx">
<polygon fill="none" stroke="#000000" points="1438,-179.5 1438,-198.5 1542,-198.5 1542,-179.5 1438,-179.5"/>
<text text-anchor="middle" x="1490" y="-186.5" font-family="Helvetica,sans-Serif" font-size="10.00" fill="#000000">src/util/Range.hxx</text>
</a>
</g>
</g>
<!-- Node1&#45;&gt;Node2 -->
<g id="edge1" class="edge">
<title>Node1&#45;&gt;Node2</title>
<path fill="none" stroke="#191970" d="M1490,-225.1575C1490,-216.155 1490,-205.9199 1490,-198.6427"/>
<polygon fill="#191970" stroke="#191970" points="1486.5001,-225.2455 1490,-235.2455 1493.5001,-225.2456 1486.5001,-225.2455"/>
</g>
<!-- Node3 -->
<g id="node3" class="node">
<title>Node3</title>
<g id="a_node3"><a xlink:href="PixelBuffer_8hxx.html" target="_top" xlink:title="src/util/PixelBuffer.hxx">
<polygon fill="none" stroke="#000000" points="1427,-123.5 1427,-142.5 1553,-142.5 1553,-123.5 1427,-123.5"/>
<text text-anchor="middle" x="1490" y="-130.5" font-family="Helvetica,sans-Serif" font-size="10.00" fill="#000000">src/util/PixelBuffer.hxx</text>
</a>
</g>
</g>
<!-- Node2&#45;&gt;Node3 -->
<g id="edge2" class="edge">
<title>Node2&#45;&gt;Node3</title>
<path fill="none" stroke="#191970" d="M1490,-169.1575C1490,-160.155 1490,-149.9199 1490,-142.6427"/>
<polygon fill="#191970" stroke="#191970" points="1486.5001,-169.2455 1490,-179.2455 1493.5001,-169.2456 1486.5001,-169.2455"/>
</g>
<!-- Node4 -->
<g id="node4" class="node">
<title>Node4</title>
<g id="a_node4"><a xlink:href="Filesystem_8hxx.html" target="_top" xlink:title="src/util/Filesystem.hxx">
<polygon fill="none" stroke="#000000" points="1355,-67.5 1355,-86.5 1481,-86.5 1481,-67.5 1355,-67.5"/>
<text text-anchor="middle" x="1418" y="-74.5" font-family="Helvetica,sans-Serif" font-size="10.00" fill="#000000">src/util/Filesystem.hxx</text>
</a>
</g>
</g>
<!-- Node3&#45;&gt;Node4 -->
<g id="edge3" class="edge">
<title>Node3&#45;&gt;Node4</title>
<path fill="none" stroke="#191970" d="M1469.336,-116.928C1456.7511,-107.1397 1441.0908,-94.9595 1430.3977,-86.6427"/>
<polygon fill="#191970" stroke="#191970" points="1467.4162,-119.8688 1477.4586,-123.2455 1471.7138,-114.3434 1467.4162,-119.8688"/>
</g>
<!-- Node22 -->
<g id="node22" class="node">
<title>Node22</title>
<g id="a_node22"><a xlink:href="PixelBuffer_8cxx.html" target="_top" xlink:title="src/util/PixelBuffer.cxx">
<polygon fill="none" stroke="#000000" points="1499.5,-67.5 1499.5,-86.5 1624.5,-86.5 1624.5,-67.5 1499.5,-67.5"/>
<text text-anchor="middle" x="1562" y="-74.5" font-family="Helvetica,sans-Serif" font-size="10.00" fill="#000000">src/util/PixelBuffer.cxx</text>
</a>
</g>
</g>
<!-- Node3&#45;&gt;Node22 -->
<g id="edge21" class="edge">
<title>Node3&#45;&gt;Node22</title>
<path fill="none" stroke="#191970" d="M1510.664,-116.928C1523.2489,-107.1397 1538.9092,-94.9595 1549.6023,-86.6427"/>
<polygon fill="#191970" stroke="#191970" points="1508.2862,-114.3434 1502.5414,-123.2455 1512.5838,-119.8688 1508.2862,-114.3434"/>
</g>
<!-- Node5 -->
<g id="node5" class="node">
<title>Node5</title>
<g id="a_node5"><a xlink:href="Settings_8cxx.html" target="_top" xlink:title="src/engine/basics/Settings.cxx">
<polygon fill="none" stroke="#000000" points="0,-6 0,-25 164,-25 164,-6 0,-6"/>
<text text-anchor="middle" x="82" y="-13" font-family="Helvetica,sans-Serif" font-size="10.00" fill="#000000">src/engine/basics/Settings.cxx</text>
</a>
</g>
</g>
<!-- Node4&#45;&gt;Node5 -->
<g id="edge4" class="edge">
<title>Node4&#45;&gt;Node5</title>
<path fill="none" stroke="#191970" d="M1344.5435,-75.5586C1113.3449,-70.8211 402.3756,-54.668 173,-31 159.2903,-29.5854 144.5221,-27.372 130.9538,-25.0561"/>
<polygon fill="#191970" stroke="#191970" points="1344.7908,-79.0643 1354.8601,-75.7689 1344.9336,-72.0657 1344.7908,-79.0643"/>
</g>
<!-- Node6 -->
<g id="node6" class="node">
<title>Node6</title>
<g id="a_node6"><a xlink:href="TerrainGenerator_8cxx.html" target="_top" xlink:title="src/engine/map/TerrainGenerator.cxx">
<polygon fill="none" stroke="#000000" points="182,-6 182,-25 378,-25 378,-6 182,-6"/>
<text text-anchor="middle" x="280" y="-13" font-family="Helvetica,sans-Serif" font-size="10.00" fill="#000000">src/engine/map/TerrainGenerator.cxx</text>
</a>
</g>
</g>
<!-- Node4&#45;&gt;Node6 -->
<g id="edge5" class="edge">
<title>Node4&#45;&gt;Node6</title>
<path fill="none" stroke="#191970" d="M1344.7586,-76.2266C1175.6681,-73.8963 745.1325,-64.8446 387,-31 371.2095,-29.5077 354.1853,-27.3119 338.4624,-25.0394"/>
<polygon fill="#191970" stroke="#191970" points="1344.7452,-79.7266 1354.7913,-76.3611 1344.8391,-72.7272 1344.7452,-79.7266"/>
</g>
<!-- Node7 -->
<g id="node7" class="node">
<title>Node7</title>
<g id="a_node7"><a xlink:href="Map_8cxx.html" target="_top" xlink:title="src/engine/Map.cxx">
<polygon fill="none" stroke="#000000" points="396,-6 396,-25 506,-25 506,-6 396,-6"/>
<text text-anchor="middle" x="451" y="-13" font-family="Helvetica,sans-Serif" font-size="10.00" fill="#000000">src/engine/Map.cxx</text>
</a>
</g>
</g>
<!-- Node4&#45;&gt;Node7 -->
<g id="edge6" class="edge">
<title>Node4&#45;&gt;Node7</title>
<path fill="none" stroke="#191970" d="M1344.7211,-75.0328C1159.2248,-69.7692 674.5127,-54.1714 515,-31 505.2703,-29.5866 494.8551,-27.3736 485.313,-25.0578"/>
<polygon fill="#191970" stroke="#191970" points="1344.822,-78.5369 1354.9167,-75.3202 1345.0193,-71.5397 1344.822,-78.5369"/>
</g>
<!-- Node8 -->
<g id="node8" class="node">
<title>Node8</title>
<g id="a_node8"><a xlink:href="ResourcesManager_8cxx.html" target="_top" xlink:title="src/engine/ResourcesManager.cxx">
<polygon fill="none" stroke="#000000" points="524.5,-6 524.5,-25 705.5,-25 705.5,-6 524.5,-6"/>
<text text-anchor="middle" x="615" y="-13" font-family="Helvetica,sans-Serif" font-size="10.00" fill="#000000">src/engine/ResourcesManager.cxx</text>
</a>
</g>
</g>
<!-- Node4&#45;&gt;Node8 -->
<g id="edge7" class="edge">
<title>Node4&#45;&gt;Node8</title>
<path fill="none" stroke="#191970" d="M1344.6317,-74.3836C1216.4119,-69.3256 943.3535,-56.3953 714,-31 699.7348,-29.4205 684.3822,-27.2492 670.1248,-25.0317"/>
<polygon fill="#191970" stroke="#191970" points="1344.5975,-77.8849 1354.7263,-74.7774 1344.8704,-70.8902 1344.5975,-77.8849"/>
</g>
<!-- Node9 -->
<g id="node9" class="node">
<title>Node9</title>
<g id="a_node9"><a xlink:href="TileManager_8cxx.html" target="_top" xlink:title="src/engine/TileManager.cxx">
<polygon fill="none" stroke="#000000" points="723.5,-6 723.5,-25 872.5,-25 872.5,-6 723.5,-6"/>
<text text-anchor="middle" x="798" y="-13" font-family="Helvetica,sans-Serif" font-size="10.00" fill="#000000">src/engine/TileManager.cxx</text>
</a>
</g>
</g>
<!-- Node4&#45;&gt;Node9 -->
<g id="edge8" class="edge">
<title>Node4&#45;&gt;Node9</title>
<path fill="none" stroke="#191970" d="M1344.9091,-73.0432C1241.3428,-66.9137 1046.1046,-53.4316 881,-31 869.0892,-29.3818 856.2929,-27.2099 844.4005,-25.0051"/>
<polygon fill="#191970" stroke="#191970" points="1344.7582,-76.5403 1354.9458,-73.6311 1345.1676,-69.5522 1344.7582,-76.5403"/>
</g>
<!-- Node10 -->
<g id="node10" class="node">
<title>Node10</title>
<g id="a_node10"><a xlink:href="Text_8cxx.html" target="_top" xlink:title="src/engine/ui/widgets\l/Text.cxx">
<polygon fill="none" stroke="#000000" points="890,-.5 890,-30.5 1010,-30.5 1010,-.5 890,-.5"/>
<text text-anchor="start" x="898" y="-18.5" font-family="Helvetica,sans-Serif" font-size="10.00" fill="#000000">src/engine/ui/widgets</text>
<text text-anchor="middle" x="950" y="-7.5" font-family="Helvetica,sans-Serif" font-size="10.00" fill="#000000">/Text.cxx</text>
</a>
</g>
</g>
<!-- Node4&#45;&gt;Node10 -->
<g id="edge9" class="edge">
<title>Node4&#45;&gt;Node10</title>
<path fill="none" stroke="#191970" d="M1344.813,-70.9121C1264.5384,-63.6887 1132.0693,-50.1619 1019,-31 1016.0948,-30.5077 1013.1278,-29.9714 1010.1363,-29.4038"/>
<polygon fill="#191970" stroke="#191970" points="1344.5496,-74.4024 1354.8209,-71.8043 1345.1713,-67.4301 1344.5496,-74.4024"/>
</g>
<!-- Node11 -->
<g id="node11" class="node">
<title>Node11</title>
<g id="a_node11"><a xlink:href="UIManager_8cxx.html" target="_top" xlink:title="src/engine/UIManager.cxx">
<polygon fill="none" stroke="#000000" points="1028,-6 1028,-25 1170,-25 1170,-6 1028,-6"/>
<text text-anchor="middle" x="1099" y="-13" font-family="Helvetica,sans-Serif" font-size="10.00" fill="#000000">src/engine/UIManager.cxx</text>
</a>
</g>
</g>
<!-- Node4&#45;&gt;Node11 -->
<g id="edge10" class="edge">
<title>Node4&#45;&gt;Node11</title>
<path fill="none" stroke="#191970" d="M1358.1217,-65.4965C1309.7784,-56.204 1240.0045,-42.7805 1179,-31 1168.9988,-29.0687 1158.2952,-26.9976 1148.0753,-25.0183"/>
<polygon fill="#191970" stroke="#191970" points="1357.6206,-68.9642 1368.1015,-67.4147 1358.9419,-62.09 1357.6206,-68.9642"/>
</g>
<!-- Node12 -->
<g id="node12" class="node">
<title>Node12</title>
<g id="a_node12"><a xlink:href="WindowManager_8cxx.html" target="_top" xlink:title="src/engine/WindowManager.cxx">
<polygon fill="none" stroke="#000000" points="1188,-6 1188,-25 1358,-25 1358,-6 1188,-6"/>
<text text-anchor="middle" x="1273" y="-13" font-family="Helvetica,sans-Serif" font-size="10.00" fill="#000000">src/engine/WindowManager.cxx</text>
</a>
</g>
</g>
<!-- Node4&#45;&gt;Node12 -->
<g id="edge11" class="edge">
<title>Node4&#45;&gt;Node12</title>
<path fill="none" stroke="#191970" d="M1385.8001,-63.3428C1358.3824,-51.7139 1319.695,-35.3051 1295.4972,-25.0419"/>
<polygon fill="#191970" stroke="#191970" points="1384.7709,-66.708 1395.3438,-67.3906 1387.5042,-60.2637 1384.7709,-66.708"/>
</g>
<!-- Node13 -->
<g id="node13" class="node">
<title>Node13</title>
<g id="a_node13"><a xlink:href="Game_8cxx.html" target="_top" xlink:title="src/Game.cxx">
<polygon fill="none" stroke="#000000" points="1376.5,-6 1376.5,-25 1459.5,-25 1459.5,-6 1376.5,-6"/>
<text text-anchor="middle" x="1418" y="-13" font-family="Helvetica,sans-Serif" font-size="10.00" fill="#000000">src/Game.cxx</text>
</a>
</g>
</g>
<!-- Node4&#45;&gt;Node13 -->
<g id="edge12" class="edge">
<title>Node4&#45;&gt;Node13</title>
<path fill="none" stroke="#191970" d="M1418,-57.2462C1418,-46.5519 1418,-33.814 1418,-25.2449"/>
<polygon fill="#191970" stroke="#191970" points="1414.5001,-57.3906 1418,-67.3906 1421.5001,-57.3907 1414.5001,-57.3906"/>
</g>
<!-- Node14 -->
<g id="node14" class="node">
<title>Node14</title>
<g id="a_node14"><a xlink:href="ScriptEngine_8cxx.html" target="_top" xlink:title="src/Scripting/ScriptEngine.cxx">
<polygon fill="none" stroke="#000000" points="1477.5,-6 1477.5,-25 1638.5,-25 1638.5,-6 1477.5,-6"/>
<text text-anchor="middle" x="1558" y="-13" font-family="Helvetica,sans-Serif" font-size="10.00" fill="#000000">src/Scripting/ScriptEngine.cxx</text>
</a>
</g>
</g>
<!-- Node4&#45;&gt;Node14 -->
<g id="edge13" class="edge">
<title>Node4&#45;&gt;Node14</title>
<path fill="none" stroke="#191970" d="M1449.0895,-63.3428C1475.5618,-51.7139 1512.9152,-35.3051 1536.2786,-25.0419"/>
<polygon fill="#191970" stroke="#191970" points="1447.6229,-60.1642 1439.875,-67.3906 1450.4383,-66.5731 1447.6229,-60.1642"/>
</g>
<!-- Node15 -->
<g id="node15" class="node">
<title>Node15</title>
<g id="a_node15"><a xlink:href="AudioMixer_8cxx.html" target="_top" xlink:title="src/services/AudioMixer.cxx">
<polygon fill="none" stroke="#000000" points="1657,-6 1657,-25 1809,-25 1809,-6 1657,-6"/>
<text text-anchor="middle" x="1733" y="-13" font-family="Helvetica,sans-Serif" font-size="10.00" fill="#000000">src/services/AudioMixer.cxx</text>
</a>
</g>
</g>
<!-- Node4&#45;&gt;Node15 -->
<g id="edge14" class="edge">
<title>Node4&#45;&gt;Node15</title>
<path fill="none" stroke="#191970" d="M1476.9284,-65.4949C1536.7783,-53.81 1628.383,-35.9252 1684.2714,-25.0137"/>
<polygon fill="#191970" stroke="#191970" points="1476.0171,-62.1067 1466.8731,-67.4581 1477.3585,-68.977 1476.0171,-62.1067"/>
</g>
<!-- Node16 -->
<g id="node16" class="node">
<title>Node16</title>
<g id="a_node16"><a xlink:href="ResourceManager_8cxx.html" target="_top" xlink:title="src/services/ResourceManager.cxx">
<polygon fill="none" stroke="#000000" points="1827.5,-6 1827.5,-25 2010.5,-25 2010.5,-6 1827.5,-6"/>
<text text-anchor="middle" x="1919" y="-13" font-family="Helvetica,sans-Serif" font-size="10.00" fill="#000000">src/services/ResourceManager.cxx</text>
</a>
</g>
</g>
<!-- Node4&#45;&gt;Node16 -->
<g id="edge15" class="edge">
<title>Node4&#45;&gt;Node16</title>
<path fill="none" stroke="#191970" d="M1491.5506,-66.9649C1637.8222,-49.1122 1676.2966,-49.6648 1818,-31 1831.5428,-29.2162 1846.0762,-27.1032 1859.779,-25.0204"/>
<polygon fill="#191970" stroke="#191970" points="1490.7932,-63.5315 1481.2947,-68.2251 1491.6469,-70.4793 1490.7932,-63.5315"/>
</g>
<!-- Node17 -->
<g id="node17" class="node">
<title>Node17</title>
<g id="a_node17"><a xlink:href="android_2Filesystem_8cxx.html" target="_top" xlink:title="src/util/android/Filesystem.cxx">
<polygon fill="none" stroke="#000000" points="2028.5,-6 2028.5,-25 2193.5,-25 2193.5,-6 2028.5,-6"/>
<text text-anchor="middle" x="2111" y="-13" font-family="Helvetica,sans-Serif" font-size="10.00" fill="#000000">src/util/android/Filesystem.cxx</text>
</a>
</g>
</g>
<!-- Node4&#45;&gt;Node17 -->
<g id="edge16" class="edge">
<title>Node4&#45;&gt;Node17</title>
<path fill="none" stroke="#191970" d="M1491.5387,-67.0227C1727.179,-43.4341 1789.3065,-58.4259 2020,-31 2033.2087,-29.4297 2047.4181,-27.2483 2060.5908,-25.0171"/>
<polygon fill="#191970" stroke="#191970" points="1490.8723,-63.5722 1481.2764,-68.0632 1491.5785,-70.5365 1490.8723,-63.5722"/>
</g>
<!-- Node18 -->
<g id="node18" class="node">
<title>Node18</title>
<g id="a_node18"><a xlink:href="desktop_2Filesystem_8cxx.html" target="_top" xlink:title="src/util/desktop/Filesystem.cxx">
<polygon fill="none" stroke="#000000" points="2211.5,-6 2211.5,-25 2378.5,-25 2378.5,-6 2211.5,-6"/>
<text text-anchor="middle" x="2295" y="-13" font-family="Helvetica,sans-Serif" font-size="10.00" fill="#000000">src/util/desktop/Filesystem.cxx</text>
</a>
</g>
</g>
<!-- Node4&#45;&gt;Node18 -->
<g id="edge17" class="edge">
<title>Node4&#45;&gt;Node18</title>
<path fill="none" stroke="#191970" d="M1491.6661,-67.0319C1808.2488,-38.0641 1891.4054,-65.009 2203,-31 2216.6864,-29.5062 2231.4268,-27.2956 2245.0122,-25.0088"/>
<polygon fill="#191970" stroke="#191970" points="1490.904,-63.5874 1481.2698,-67.9955 1491.5501,-70.5575 1490.904,-63.5874"/>
</g>
<!-- Node19 -->
<g id="node19" class="node">
<title>Node19</title>
<g id="a_node19"><a xlink:href="Filesystem_8cxx.html" target="_top" xlink:title="src/util/Filesystem.cxx">
<polygon fill="none" stroke="#000000" points="2396.5,-6 2396.5,-25 2521.5,-25 2521.5,-6 2396.5,-6"/>
<text text-anchor="middle" x="2459" y="-13" font-family="Helvetica,sans-Serif" font-size="10.00" fill="#000000">src/util/Filesystem.cxx</text>
</a>
</g>
</g>
<!-- Node4&#45;&gt;Node19 -->
<g id="edge18" class="edge">
<title>Node4&#45;&gt;Node19</title>
<path fill="none" stroke="#191970" d="M1491.3433,-67.0744C1890.1829,-32.7053 1995.5373,-81.3219 2388,-31 2398.8874,-29.604 2410.5748,-27.3667 2421.2611,-25.0211"/>
<polygon fill="#191970" stroke="#191970" points="1490.9234,-63.5977 1481.2661,-67.955 1491.5328,-70.5711 1490.9234,-63.5977"/>
</g>
<!-- Node20 -->
<g id="node20" class="node">
<title>Node20</title>
<g id="a_node20"><a xlink:href="LOG_8cxx.html" target="_top" xlink:title="src/util/LOG.cxx">
<polygon fill="none" stroke="#000000" points="2539.5,-6 2539.5,-25 2632.5,-25 2632.5,-6 2539.5,-6"/>
<text text-anchor="middle" x="2586" y="-13" font-family="Helvetica,sans-Serif" font-size="10.00" fill="#000000">src/util/LOG.cxx</text>
</a>
</g>
</g>
<!-- Node4&#45;&gt;Node20 -->
<g id="edge19" class="edge">
<title>Node4&#45;&gt;Node20</title>
<path fill="none" stroke="#191970" d="M1491.5477,-67.0649C1953.6228,-28.6503 2077.3675,-101.7179 2531,-31 2539.6259,-29.6553 2548.8205,-27.4035 2557.1736,-25.0272"/>
<polygon fill="#191970" stroke="#191970" points="1490.9341,-63.6042 1481.2642,-67.9335 1491.5234,-70.5794 1490.9341,-63.6042"/>
</g>
<!-- Node21 -->
<g id="node21" class="node">
<title>Node21</title>
<g id="a_node21"><a xlink:href="macOS_2Filesystem_8cxx.html" target="_top" xlink:title="src/util/macOS/Filesystem.cxx">
<polygon fill="none" stroke="#000000" points="2650.5,-6 2650.5,-25 2813.5,-25 2813.5,-6 2650.5,-6"/>
<text text-anchor="middle" x="2732" y="-13" font-family="Helvetica,sans-Serif" font-size="10.00" fill="#000000">src/util/macOS/Filesystem.cxx</text>
</a>
</g>
</g>
<!-- Node4&#45;&gt;Node21 -->
<g id="edge20" class="edge">
<title>Node4&#45;&gt;Node21</title>
<path fill="none" stroke="#191970" d="M1491.491,-67.0694C2002.7676,-24.9748 2136.1544,-82.2179 2642,-31 2655.7237,-29.6104 2670.514,-27.3752 2684.061,-25.0296"/>
<polygon fill="#191970" stroke="#191970" points="1490.9384,-63.6032 1481.2631,-67.9206 1491.519,-70.5791 1490.9384,-63.6032"/>
</g>
</g>
</svg>
        <g id="navigator" transform="translate(0 0)" fill="#404254">
                <rect fill="#f2f5e9" fill-opacity="0.5" stroke="#606060" stroke-width=".5" x="0" y="0" width="60" height="60"/>
                <use id="zoomplus" xlink:href="#zoomPlus" x="17" y="9" onmousedown="handleZoom(evt,'in')"/>
                <use id="zoomminus" xlink:href="#zoomMin" x="42" y="9" onmousedown="handleZoom(evt,'out')"/>
                <use id="reset" xlink:href="#resetDef" x="30" y="36" onmousedown="handleReset()"/>
                <g id="arrowUp" xlink:href="#dirArrow" transform="translate(30 24)" onmousedown="handlePan(0,-1)">
                  <use xlink:href="#rim" fill="#404040">
                        <set attributeName="fill" to="#808080" begin="arrowUp.mouseover" end="arrowUp.mouseout"/>
                  </use>
                  <path fill="none" stroke="white" stroke-width="1.5" d="M0,-3.0v7 M-2.5,-0.5L0,-3.0L2.5,-0.5"/>
                </g>
                <g id="arrowRight" xlink:href="#dirArrow" transform="rotate(90) translate(36 -43)" onmousedown="handlePan(1,0)">
                  <use xlink:href="#rim" fill="#404040">
                        <set attributeName="fill" to="#808080" begin="arrowRight.mouseover" end="arrowRight.mouseout"/>
                  </use>
                  <path fill="none" stroke="white" stroke-width="1.5" d="M0,-3.0v7 M-2.5,-0.5L0,-3.0L2.5,-0.5"/>
                </g>
                <g id="arrowDown" xlink:href="#dirArrow" transform="rotate(180) translate(-30 -48)" onmousedown="handlePan(0,1)">
                  <use xlink:href="#rim" fill="#404040">
                        <set attributeName="fill" to="#808080" begin="arrowDown.mouseover" end="arrowDown.mouseout"/>
                  </use>
                  <path fill="none" stroke="white" stroke-width="1.5" d="M0,-3.0v7 M-2.5,-0.5L0,-3.0L2.5,-0.5"/>
                </g>
                <g id="arrowLeft" xlink:href="#dirArrow" transform="rotate(270) translate(-36 17)" onmousedown="handlePan(-1,0)">
                  <use xlink:href="#rim" fill="#404040">
                        <set attributeName="fill" to="#808080" begin="arrowLeft.mouseover" end="arrowLeft.mouseout"/>
                  </use>
                  <path fill="none" stroke="white" stroke-width="1.5" d="M0,-3.0v7 M-2.5,-0.5L0,-3.0L2.5,-0.5"/>
                </g>
        </g>
        <svg viewBox="0 0 15 15" width="100%" height="30px" preserveAspectRatio="xMaxYMin meet">
         <g id="arrow_out" transform="scale(0.3 0.3)">
          <a xlink:href="Range_8inl_8hxx__dep__incl_org.svg" target="_base">
           <rect id="button" ry="5" rx="5" y="6" x="6" height="38" width="38"
                fill="#f2f5e9" fill-opacity="0.5" stroke="#606060" stroke-width="1.0"/>
           <path id="arrow"
             d="M 11.500037,31.436501 C 11.940474,20.09759 22.043105,11.32322 32.158766,21.979434 L 37.068811,17.246167 C 37.068811,17.246167 37.088388,32 37.088388,32 L 22.160133,31.978069 C 22.160133,31.978069 26.997745,27.140456 26.997745,27.140456 C 18.528582,18.264221 13.291696,25.230495 11.500037,31.436501 z"
             style="fill:#404040;"/>
          </a>
         </g>
        </svg>
</svg>
