<?xml version="1.0" encoding="UTF-8" standalone="no"?>
<!DOCTYPE svg PUBLIC "-//W3C//DTD SVG 1.1//EN"
 "http://www.w3.org/Graphics/SVG/1.1/DTD/svg11.dtd">
<!-- Generated by graphviz version 2.40.1 (20161225.0304)
 -->
<!-- Title: src/engine/ResourcesManager.cxx Pages: 1 -->
<svg width="1822pt" height="420pt"
 viewBox="0.00 0.00 1822.04 420.00" xmlns="http://www.w3.org/2000/svg" xmlns:xlink="http://www.w3.org/1999/xlink">
<g id="graph0" class="graph" transform="scale(1 1) rotate(0) translate(4 416)">
<title>src/engine/ResourcesManager.cxx</title>
<!-- Node0 -->
<g id="node1" class="node">
<title>Node0</title>
<polygon fill="#bfbfbf" stroke="#000000" points="692.0415,-392.5 692.0415,-411.5 873.0415,-411.5 873.0415,-392.5 692.0415,-392.5"/>
<text text-anchor="middle" x="782.5415" y="-399.5" font-family="Helvetica,sans-Serif" font-size="10.00" fill="#000000">src/engine/ResourcesManager.cxx</text>
</g>
<!-- Node1 -->
<g id="node2" class="node">
<title>Node1</title>
<g id="a_node2"><a xlink:href="ResourcesManager_8hxx.html" target="_top" xlink:title="ResourcesManager.hxx">
<polygon fill="none" stroke="#000000" points="13.5415,-224.5 13.5415,-243.5 141.5415,-243.5 141.5415,-224.5 13.5415,-224.5"/>
<text text-anchor="middle" x="77.5415" y="-231.5" font-family="Helvetica,sans-Serif" font-size="10.00" fill="#000000">ResourcesManager.hxx</text>
</a>
</g>
</g>
<!-- Node0&#45;&gt;Node1 -->
<g id="edge1" class="edge">
<title>Node0&#45;&gt;Node1</title>
<path fill="none" stroke="#191970" d="M691.781,-398.7093C567.4872,-393.3552 351.2117,-380.7711 276.5415,-356 204.5132,-332.1054 131.378,-277.8865 97.2978,-250.4942"/>
<polygon fill="#191970" stroke="#191970" points="99.0885,-247.4385 89.1256,-243.8342 94.6663,-252.8648 99.0885,-247.4385"/>
</g>
<!-- Node5 -->
<g id="node6" class="node">
<title>Node5</title>
<g id="a_node6"><a xlink:href="TileManager_8hxx.html" target="_top" xlink:title="TileManager.hxx">
<polygon fill="none" stroke="#000000" points="369.0415,-168.5 369.0415,-187.5 466.0415,-187.5 466.0415,-168.5 369.0415,-168.5"/>
<text text-anchor="middle" x="417.5415" y="-175.5" font-family="Helvetica,sans-Serif" font-size="10.00" fill="#000000">TileManager.hxx</text>
</a>
</g>
</g>
<!-- Node0&#45;&gt;Node5 -->
<g id="edge24" class="edge">
<title>Node0&#45;&gt;Node5</title>
<path fill="none" stroke="#191970" d="M748.2359,-392.4387C722.2272,-384.4955 686.0484,-371.9323 656.5415,-356 567.2396,-307.7814 474.4636,-228.9442 435.9725,-194.7246"/>
<polygon fill="#191970" stroke="#191970" points="437.9797,-191.8238 428.1957,-187.7587 433.3092,-197.0379 437.9797,-191.8238"/>
</g>
<!-- Node12 -->
<g id="node13" class="node">
<title>Node12</title>
<polygon fill="none" stroke="#bfbfbf" points="632.5415,-112.5 632.5415,-131.5 690.5415,-131.5 690.5415,-112.5 632.5415,-112.5"/>
<text text-anchor="middle" x="661.5415" y="-119.5" font-family="Helvetica,sans-Serif" font-size="10.00" fill="#000000">json.hxx</text>
</g>
<!-- Node0&#45;&gt;Node12 -->
<g id="edge72" class="edge">
<title>Node0&#45;&gt;Node12</title>
<path fill="none" stroke="#191970" d="M760.9467,-392.4123C728.4008,-376.3204 670.5415,-340.5974 670.5415,-290 670.5415,-290 670.5415,-290 670.5415,-234 670.5415,-201.6075 666.7547,-164.1141 664.0938,-141.7662"/>
<polygon fill="#191970" stroke="#191970" points="667.5334,-141.0616 662.8309,-131.5676 660.5864,-141.9219 667.5334,-141.0616"/>
</g>
<!-- Node15 -->
<g id="node16" class="node">
<title>Node15</title>
<g id="a_node16"><a xlink:href="WindowManager_8hxx.html" target="_top" xlink:title="WindowManager.hxx">
<polygon fill="none" stroke="#000000" points="180.5415,-112.5 180.5415,-131.5 298.5415,-131.5 298.5415,-112.5 180.5415,-112.5"/>
<text text-anchor="middle" x="239.5415" y="-119.5" font-family="Helvetica,sans-Serif" font-size="10.00" fill="#000000">WindowManager.hxx</text>
</a>
</g>
</g>
<!-- Node0&#45;&gt;Node15 -->
<g id="edge18" class="edge">
<title>Node0&#45;&gt;Node15</title>
<path fill="none" stroke="#191970" d="M706.4757,-392.4915C568.3736,-374.1884 290.5415,-332.131 290.5415,-290 290.5415,-290 290.5415,-290 290.5415,-234 290.5415,-198.0802 268.5459,-161.0352 253.4448,-139.8345"/>
<polygon fill="#191970" stroke="#191970" points="256.0509,-137.4725 247.2873,-131.5185 250.4251,-141.638 256.0509,-137.4725"/>
</g>
<!-- Node16 -->
<g id="node17" class="node">
<title>Node16</title>
<g id="a_node17"><a xlink:href="Settings_8hxx.html" target="_top" xlink:title="Settings.hxx">
<polygon fill="none" stroke="#000000" points="747.0415,-112.5 747.0415,-131.5 824.0415,-131.5 824.0415,-112.5 747.0415,-112.5"/>
<text text-anchor="middle" x="785.5415" y="-119.5" font-family="Helvetica,sans-Serif" font-size="10.00" fill="#000000">Settings.hxx</text>
</a>
</g>
</g>
<!-- Node0&#45;&gt;Node16 -->
<g id="edge25" class="edge">
<title>Node0&#45;&gt;Node16</title>
<path fill="none" stroke="#191970" d="M782.5415,-392.4116C782.5415,-373.0538 782.5415,-327.9167 782.5415,-290 782.5415,-290 782.5415,-290 782.5415,-234 782.5415,-201.7 783.8037,-164.1791 784.6907,-141.8005"/>
<polygon fill="#191970" stroke="#191970" points="788.1968,-141.7217 785.1116,-131.5861 781.2027,-141.4334 788.1968,-141.7217"/>
</g>
<!-- Node22 -->
<g id="node23" class="node">
<title>Node22</title>
<g id="a_node23"><a xlink:href="LOG_8hxx.html" target="_top" xlink:title="LOG.hxx">
<polygon fill="none" stroke="#000000" points="1290.5415,-112.5 1290.5415,-131.5 1348.5415,-131.5 1348.5415,-112.5 1290.5415,-112.5"/>
<text text-anchor="middle" x="1319.5415" y="-119.5" font-family="Helvetica,sans-Serif" font-size="10.00" fill="#000000">LOG.hxx</text>
</a>
</g>
</g>
<!-- Node0&#45;&gt;Node22 -->
<g id="edge34" class="edge">
<title>Node0&#45;&gt;Node22</title>
<path fill="none" stroke="#191970" d="M873.1908,-399.0489C1087.5034,-390.8669 1607.5415,-363.4459 1607.5415,-290 1607.5415,-290 1607.5415,-290 1607.5415,-234 1607.5415,-181.2455 1437.5651,-143.4455 1358.7783,-128.7582"/>
<polygon fill="#191970" stroke="#191970" points="1359.2082,-125.2788 1348.7413,-126.9204 1357.9474,-132.1643 1359.2082,-125.2788"/>
</g>
<!-- Node23 -->
<g id="node24" class="node">
<title>Node23</title>
<g id="a_node24"><a xlink:href="Exception_8hxx.html" target="_top" xlink:title="Exception.hxx">
<polygon fill="none" stroke="#000000" points="1697.5415,-56.5 1697.5415,-75.5 1783.5415,-75.5 1783.5415,-56.5 1697.5415,-56.5"/>
<text text-anchor="middle" x="1740.5415" y="-63.5" font-family="Helvetica,sans-Serif" font-size="10.00" fill="#000000">Exception.hxx</text>
</a>
</g>
</g>
<!-- Node0&#45;&gt;Node23 -->
<g id="edge49" class="edge">
<title>Node0&#45;&gt;Node23</title>
<path fill="none" stroke="#191970" d="M873.0628,-399.8727C1036.6154,-395.4049 1375.0131,-383.1311 1489.5415,-356 1562.7972,-338.6461 1645.5415,-365.2832 1645.5415,-290 1645.5415,-290 1645.5415,-290 1645.5415,-178 1645.5415,-134.9765 1686.8149,-100.0102 1714.9524,-81.1715"/>
<polygon fill="#191970" stroke="#191970" points="1717.0436,-83.9879 1723.5574,-75.632 1713.2545,-78.102 1717.0436,-83.9879"/>
</g>
<!-- Node33 -->
<g id="node34" class="node">
<title>Node33</title>
<g id="a_node34"><a xlink:href="Filesystem_8hxx.html" target="_top" xlink:title="Filesystem.hxx">
<polygon fill="none" stroke="#000000" points="810.5415,-336.5 810.5415,-355.5 900.5415,-355.5 900.5415,-336.5 810.5415,-336.5"/>
<text text-anchor="middle" x="855.5415" y="-343.5" font-family="Helvetica,sans-Serif" font-size="10.00" fill="#000000">Filesystem.hxx</text>
</a>
</g>
</g>
<!-- Node0&#45;&gt;Node33 -->
<g id="edge50" class="edge">
<title>Node0&#45;&gt;Node33</title>
<path fill="none" stroke="#191970" d="M795.2571,-392.2455C806.1435,-383.8943 822.0297,-371.7076 834.7615,-361.9408"/>
<polygon fill="#191970" stroke="#191970" points="837.1675,-364.5063 842.9715,-355.6427 832.9069,-358.9523 837.1675,-364.5063"/>
</g>
<!-- Node45 -->
<g id="node46" class="node">
<title>Node45</title>
<polygon fill="none" stroke="#bfbfbf" points="1673.5415,-336.5 1673.5415,-355.5 1753.5415,-355.5 1753.5415,-336.5 1673.5415,-336.5"/>
<text text-anchor="middle" x="1713.5415" y="-343.5" font-family="Helvetica,sans-Serif" font-size="10.00" fill="#000000">SDL_image.h</text>
</g>
<!-- Node0&#45;&gt;Node45 -->
<g id="edge71" class="edge">
<title>Node0&#45;&gt;Node45</title>
<path fill="none" stroke="#191970" d="M873.1412,-401.1441C1032.6384,-398.7698 1373.7544,-389.8099 1659.5415,-356 1660.8197,-355.8488 1662.1133,-355.6857 1663.417,-355.5124"/>
<polygon fill="#191970" stroke="#191970" points="1664.1478,-358.9424 1673.5257,-354.0123 1663.1202,-352.0182 1664.1478,-358.9424"/>
</g>
<!-- Node2 -->
<g id="node3" class="node">
<title>Node2</title>
<polygon fill="none" stroke="#bfbfbf" points="1007.5415,-.5 1007.5415,-19.5 1067.5415,-19.5 1067.5415,-.5 1007.5415,-.5"/>
<text text-anchor="middle" x="1037.5415" y="-7.5" font-family="Helvetica,sans-Serif" font-size="10.00" fill="#000000">iostream</text>
</g>
<!-- Node1&#45;&gt;Node2 -->
<g id="edge2" class="edge">
<title>Node1&#45;&gt;Node2</title>
<path fill="none" stroke="#191970" d="M58.6469,-224.4175C45.1727,-216.5398 27.8545,-204.0698 18.5415,-188 1.511,-158.6139 -8.2459,-140.2952 10.5415,-112 46.0187,-58.5683 80.9543,-70.0155 143.5415,-56 511.424,26.3821 620.3695,-73.7458 997.3432,-19.8524"/>
<polygon fill="#191970" stroke="#191970" points="998.0438,-23.2873 1007.4347,-18.3822 997.0345,-16.3605 998.0438,-23.2873"/>
</g>
<!-- Node3 -->
<g id="node4" class="node">
<title>Node3</title>
<polygon fill="none" stroke="#bfbfbf" points="31.0415,-112.5 31.0415,-131.5 124.0415,-131.5 124.0415,-112.5 31.0415,-112.5"/>
<text text-anchor="middle" x="77.5415" y="-119.5" font-family="Helvetica,sans-Serif" font-size="10.00" fill="#000000">unordered_map</text>
</g>
<!-- Node1&#45;&gt;Node3 -->
<g id="edge3" class="edge">
<title>Node1&#45;&gt;Node3</title>
<path fill="none" stroke="#191970" d="M77.5415,-224.4509C77.5415,-206.184 77.5415,-165.9553 77.5415,-141.6976"/>
<polygon fill="#191970" stroke="#191970" points="81.0415,-141.5249 77.5415,-131.5249 74.0415,-141.5249 81.0415,-141.5249"/>
</g>
<!-- Node4 -->
<g id="node5" class="node">
<title>Node4</title>
<polygon fill="none" stroke="#bfbfbf" points="152.5415,-56.5 152.5415,-75.5 196.5415,-75.5 196.5415,-56.5 152.5415,-56.5"/>
<text text-anchor="middle" x="174.5415" y="-63.5" font-family="Helvetica,sans-Serif" font-size="10.00" fill="#000000">SDL.h</text>
</g>
<!-- Node1&#45;&gt;Node4 -->
<g id="edge4" class="edge">
<title>Node1&#45;&gt;Node4</title>
<path fill="none" stroke="#191970" d="M66.6822,-224.4099C43.5533,-202.827 -6.2706,-149.4037 21.5415,-112 36.0053,-92.548 102.0401,-78.2148 142.483,-71.0783"/>
<polygon fill="#191970" stroke="#191970" points="143.1453,-74.5159 152.4118,-69.3796 141.9647,-67.6161 143.1453,-74.5159"/>
</g>
<!-- Node1&#45;&gt;Node5 -->
<g id="edge5" class="edge">
<title>Node1&#45;&gt;Node5</title>
<path fill="none" stroke="#191970" d="M135.6032,-224.4369C197.8562,-214.1835 296.1604,-197.9922 358.709,-187.6901"/>
<polygon fill="#191970" stroke="#191970" points="359.5122,-191.105 368.8104,-186.0263 358.3745,-184.1981 359.5122,-191.105"/>
</g>
<!-- Node5&#45;&gt;Node3 -->
<g id="edge7" class="edge">
<title>Node5&#45;&gt;Node3</title>
<path fill="none" stroke="#191970" d="M368.8277,-169.9766C306.8659,-159.7711 200.0498,-142.1778 134.4192,-131.3681"/>
<polygon fill="#191970" stroke="#191970" points="134.6886,-127.8654 124.2527,-129.6936 133.551,-134.7723 134.6886,-127.8654"/>
</g>
<!-- Node5&#45;&gt;Node4 -->
<g id="edge6" class="edge">
<title>Node5&#45;&gt;Node4</title>
<path fill="none" stroke="#191970" d="M369.0107,-176.0294C304.6064,-172.2784 196.1402,-161.6249 171.5415,-132 161.0312,-119.3422 163.2406,-100.1488 167.2155,-85.7174"/>
<polygon fill="#191970" stroke="#191970" points="170.6766,-86.3887 170.4179,-75.797 164.0151,-84.2383 170.6766,-86.3887"/>
</g>
<!-- Node6 -->
<g id="node7" class="node">
<title>Node6</title>
<polygon fill="none" stroke="#bfbfbf" points="662.5415,-56.5 662.5415,-75.5 706.5415,-75.5 706.5415,-56.5 662.5415,-56.5"/>
<text text-anchor="middle" x="684.5415" y="-63.5" font-family="Helvetica,sans-Serif" font-size="10.00" fill="#000000">string</text>
</g>
<!-- Node5&#45;&gt;Node6 -->
<g id="edge8" class="edge">
<title>Node5&#45;&gt;Node6</title>
<path fill="none" stroke="#191970" d="M432.7878,-168.2883C458.4174,-152.0734 509.2267,-120.4314 528.5415,-112 569.81,-93.9853 620.1993,-80.5643 652.3316,-73.0044"/>
<polygon fill="#191970" stroke="#191970" points="653.5287,-76.3205 662.4892,-70.6672 651.959,-69.4988 653.5287,-76.3205"/>
</g>
<!-- Node7 -->
<g id="node8" class="node">
<title>Node7</title>
<g id="a_node8"><a xlink:href="tileData_8hxx.html" target="_top" xlink:title="tileData.hxx">
<polygon fill="none" stroke="#000000" points="537.0415,-112.5 537.0415,-131.5 614.0415,-131.5 614.0415,-112.5 537.0415,-112.5"/>
<text text-anchor="middle" x="575.5415" y="-119.5" font-family="Helvetica,sans-Serif" font-size="10.00" fill="#000000">tileData.hxx</text>
</a>
</g>
</g>
<!-- Node5&#45;&gt;Node7 -->
<g id="edge9" class="edge">
<title>Node5&#45;&gt;Node7</title>
<path fill="none" stroke="#191970" d="M444.7026,-168.3733C470.7481,-159.1419 510.253,-145.1402 539.0393,-134.9375"/>
<polygon fill="#191970" stroke="#191970" points="540.4785,-138.1408 548.7347,-131.5011 538.14,-131.5429 540.4785,-138.1408"/>
</g>
<!-- Node5&#45;&gt;Node12 -->
<g id="edge15" class="edge">
<title>Node5&#45;&gt;Node12</title>
<path fill="none" stroke="#191970" d="M462.6626,-168.4357C502.3508,-159.908 561.9196,-146.8313 622.7525,-132.1294"/>
<polygon fill="#191970" stroke="#191970" points="623.6323,-135.5176 632.5239,-129.7563 621.9803,-128.7153 623.6323,-135.5176"/>
</g>
<!-- Node13 -->
<g id="node14" class="node">
<title>Node13</title>
<g id="a_node14"><a xlink:href="Singleton_8hxx.html" target="_top" xlink:title="Singleton.hxx">
<polygon fill="none" stroke="#000000" points="285.0415,-56.5 285.0415,-75.5 368.0415,-75.5 368.0415,-56.5 285.0415,-56.5"/>
<text text-anchor="middle" x="326.5415" y="-63.5" font-family="Helvetica,sans-Serif" font-size="10.00" fill="#000000">Singleton.hxx</text>
</a>
</g>
</g>
<!-- Node5&#45;&gt;Node13 -->
<g id="edge16" class="edge">
<title>Node5&#45;&gt;Node13</title>
<path fill="none" stroke="#191970" d="M394.6343,-168.3455C378.9797,-160.6474 358.9046,-148.4304 346.5415,-132 336.4306,-118.5628 331.394,-100.0034 328.9073,-85.987"/>
<polygon fill="#191970" stroke="#191970" points="332.3412,-85.2828 327.4114,-75.9048 325.417,-86.3102 332.3412,-85.2828"/>
</g>
<!-- Node14 -->
<g id="node15" class="node">
<title>Node14</title>
<polygon fill="none" stroke="#bfbfbf" points="355.0415,-112.5 355.0415,-131.5 480.0415,-131.5 480.0415,-112.5 355.0415,-112.5"/>
<text text-anchor="middle" x="417.5415" y="-119.5" font-family="Helvetica,sans-Serif" font-size="10.00" fill="#000000">../common/enums.hxx</text>
</g>
<!-- Node5&#45;&gt;Node14 -->
<g id="edge17" class="edge">
<title>Node5&#45;&gt;Node14</title>
<path fill="none" stroke="#191970" d="M417.5415,-168.2455C417.5415,-160.9382 417.5415,-150.6944 417.5415,-141.7046"/>
<polygon fill="#191970" stroke="#191970" points="421.0415,-141.6426 417.5415,-131.6427 414.0415,-141.6427 421.0415,-141.6426"/>
</g>
<!-- Node7&#45;&gt;Node6 -->
<g id="edge10" class="edge">
<title>Node7&#45;&gt;Node6</title>
<path fill="none" stroke="#191970" d="M594.5278,-112.2455C611.7206,-103.4125 637.2652,-90.2887 656.7547,-80.2758"/>
<polygon fill="#191970" stroke="#191970" points="658.4773,-83.3257 665.7727,-75.6427 655.2784,-77.0993 658.4773,-83.3257"/>
</g>
<!-- Node8 -->
<g id="node9" class="node">
<title>Node8</title>
<polygon fill="none" stroke="#bfbfbf" points="829.0415,-56.5 829.0415,-75.5 876.0415,-75.5 876.0415,-56.5 829.0415,-56.5"/>
<text text-anchor="middle" x="852.5415" y="-63.5" font-family="Helvetica,sans-Serif" font-size="10.00" fill="#000000">vector</text>
</g>
<!-- Node7&#45;&gt;Node8 -->
<g id="edge11" class="edge">
<title>Node7&#45;&gt;Node8</title>
<path fill="none" stroke="#191970" d="M614.2975,-113.8404C617.4231,-113.2083 620.534,-112.588 623.5415,-112 707.8222,-95.5226 732.4128,-97.1697 819.1337,-76.1429"/>
<polygon fill="#191970" stroke="#191970" points="819.9903,-79.5366 828.8667,-73.7522 818.3205,-72.7387 819.9903,-79.5366"/>
</g>
<!-- Node9 -->
<g id="node10" class="node">
<title>Node9</title>
<g id="a_node10"><a xlink:href="enums_8hxx.html" target="_top" xlink:title="enums.hxx">
<polygon fill="none" stroke="#000000" points="540.0415,-56.5 540.0415,-75.5 611.0415,-75.5 611.0415,-56.5 540.0415,-56.5"/>
<text text-anchor="middle" x="575.5415" y="-63.5" font-family="Helvetica,sans-Serif" font-size="10.00" fill="#000000">enums.hxx</text>
</a>
</g>
</g>
<!-- Node7&#45;&gt;Node9 -->
<g id="edge12" class="edge">
<title>Node7&#45;&gt;Node9</title>
<path fill="none" stroke="#191970" d="M575.5415,-112.2455C575.5415,-104.9382 575.5415,-94.6944 575.5415,-85.7046"/>
<polygon fill="#191970" stroke="#191970" points="579.0415,-85.6426 575.5415,-75.6427 572.0415,-85.6427 579.0415,-85.6426"/>
</g>
<!-- Node10 -->
<g id="node11" class="node">
<title>Node10</title>
<polygon fill="none" stroke="#bfbfbf" points="499.5415,-.5 499.5415,-19.5 555.5415,-19.5 555.5415,-.5 499.5415,-.5"/>
<text text-anchor="middle" x="527.5415" y="-7.5" font-family="Helvetica,sans-Serif" font-size="10.00" fill="#000000">stddef.h</text>
</g>
<!-- Node9&#45;&gt;Node10 -->
<g id="edge13" class="edge">
<title>Node9&#45;&gt;Node10</title>
<path fill="none" stroke="#191970" d="M567.1805,-56.2455C560.3664,-48.2958 550.5734,-36.8706 542.4262,-27.3656"/>
<polygon fill="#191970" stroke="#191970" points="544.972,-24.9575 535.8066,-19.6427 539.6571,-29.513 544.972,-24.9575"/>
</g>
<!-- Node11 -->
<g id="node12" class="node">
<title>Node11</title>
<polygon fill="none" stroke="#bfbfbf" points="573.5415,-.5 573.5415,-19.5 673.5415,-19.5 673.5415,-.5 573.5415,-.5"/>
<text text-anchor="middle" x="623.5415" y="-7.5" font-family="Helvetica,sans-Serif" font-size="10.00" fill="#000000">betterEnums.hxx</text>
</g>
<!-- Node9&#45;&gt;Node11 -->
<g id="edge14" class="edge">
<title>Node9&#45;&gt;Node11</title>
<path fill="none" stroke="#191970" d="M583.9024,-56.2455C590.7165,-48.2958 600.5095,-36.8706 608.6567,-27.3656"/>
<polygon fill="#191970" stroke="#191970" points="611.4258,-29.513 615.2763,-19.6427 606.1109,-24.9575 611.4258,-29.513"/>
</g>
<!-- Node15&#45;&gt;Node2 -->
<g id="edge20" class="edge">
<title>Node15&#45;&gt;Node2</title>
<path fill="none" stroke="#191970" d="M241.6559,-112.3047C245.5026,-97.2783 255.2016,-68.7691 275.5415,-56 341.4676,-14.6125 882.4598,-30.901 997.3994,-19.5843"/>
<polygon fill="#191970" stroke="#191970" points="997.9294,-23.0457 1007.4312,-18.3588 997.0806,-16.0973 997.9294,-23.0457"/>
</g>
<!-- Node15&#45;&gt;Node4 -->
<g id="edge22" class="edge">
<title>Node15&#45;&gt;Node4</title>
<path fill="none" stroke="#191970" d="M228.2193,-112.2455C218.6191,-103.9746 204.6523,-91.9416 193.372,-82.2232"/>
<polygon fill="#191970" stroke="#191970" points="195.5944,-79.5182 185.7338,-75.6427 191.0255,-84.8214 195.5944,-79.5182"/>
</g>
<!-- Node15&#45;&gt;Node6 -->
<g id="edge19" class="edge">
<title>Node15&#45;&gt;Node6</title>
<path fill="none" stroke="#191970" d="M298.6921,-115.505C373.6716,-107.1234 506.8622,-91.7389 620.5415,-76 630.8761,-74.5692 642.1255,-72.8621 652.2693,-71.2669"/>
<polygon fill="#191970" stroke="#191970" points="653.03,-74.6899 662.3554,-69.6613 651.9295,-67.777 653.03,-74.6899"/>
</g>
<!-- Node15&#45;&gt;Node8 -->
<g id="edge21" class="edge">
<title>Node15&#45;&gt;Node8</title>
<path fill="none" stroke="#191970" d="M298.672,-116.2885C314.2379,-114.8358 331.0182,-113.3148 346.5415,-112 553.7717,-94.4482 611.2568,-115.0996 818.9251,-75.9458"/>
<polygon fill="#191970" stroke="#191970" points="819.7627,-79.3492 828.9288,-74.0357 818.4498,-72.4734 819.7627,-79.3492"/>
</g>
<!-- Node15&#45;&gt;Node13 -->
<g id="edge23" class="edge">
<title>Node15&#45;&gt;Node13</title>
<path fill="none" stroke="#191970" d="M254.6957,-112.2455C268.0442,-103.6534 287.7001,-91.0014 303.0797,-81.1018"/>
<polygon fill="#191970" stroke="#191970" points="305.0466,-83.9982 311.5609,-75.6427 301.2578,-78.1121 305.0466,-83.9982"/>
</g>
<!-- Node16&#45;&gt;Node6 -->
<g id="edge26" class="edge">
<title>Node16&#45;&gt;Node6</title>
<path fill="none" stroke="#191970" d="M767.9486,-112.2455C752.1624,-103.4928 728.7776,-90.527 710.7827,-80.5496"/>
<polygon fill="#191970" stroke="#191970" points="712.3756,-77.4308 701.9327,-75.6427 708.9812,-83.5528 712.3756,-77.4308"/>
</g>
<!-- Node16&#45;&gt;Node13 -->
<g id="edge27" class="edge">
<title>Node16&#45;&gt;Node13</title>
<path fill="none" stroke="#191970" d="M746.803,-117.2737C664.3078,-107.209 471.2482,-83.6549 378.321,-72.3173"/>
<polygon fill="#191970" stroke="#191970" points="378.6538,-68.8321 368.3035,-71.0952 377.806,-75.7805 378.6538,-68.8321"/>
</g>
<!-- Node17 -->
<g id="node18" class="node">
<title>Node17</title>
<g id="a_node18"><a xlink:href="Meta_8hxx.html" target="_top" xlink:title="../../util/Meta.hxx">
<polygon fill="none" stroke="#000000" points="905.5415,-56.5 905.5415,-75.5 1003.5415,-75.5 1003.5415,-56.5 905.5415,-56.5"/>
<text text-anchor="middle" x="954.5415" y="-63.5" font-family="Helvetica,sans-Serif" font-size="10.00" fill="#000000">../../util/Meta.hxx</text>
</a>
</g>
</g>
<!-- Node16&#45;&gt;Node17 -->
<g id="edge28" class="edge">
<title>Node16&#45;&gt;Node17</title>
<path fill="none" stroke="#191970" d="M814.5936,-112.3733C842.6957,-103.0613 885.4468,-88.8953 916.3021,-78.671"/>
<polygon fill="#191970" stroke="#191970" points="917.4769,-81.969 925.8684,-75.5011 915.2751,-75.3243 917.4769,-81.969"/>
</g>
<!-- Node21 -->
<g id="node22" class="node">
<title>Node21</title>
<polygon fill="none" stroke="#bfbfbf" points="758.0415,-56.5 758.0415,-75.5 811.0415,-75.5 811.0415,-56.5 758.0415,-56.5"/>
<text text-anchor="middle" x="784.5415" y="-63.5" font-family="Helvetica,sans-Serif" font-size="10.00" fill="#000000">cstddef</text>
</g>
<!-- Node16&#45;&gt;Node21 -->
<g id="edge33" class="edge">
<title>Node16&#45;&gt;Node21</title>
<path fill="none" stroke="#191970" d="M785.3673,-112.2455C785.2368,-104.9382 785.0538,-94.6944 784.8933,-85.7046"/>
<polygon fill="#191970" stroke="#191970" points="788.3917,-85.5786 784.7136,-75.6427 781.3928,-85.7036 788.3917,-85.5786"/>
</g>
<!-- Node17&#45;&gt;Node2 -->
<g id="edge29" class="edge">
<title>Node17&#45;&gt;Node2</title>
<path fill="none" stroke="#191970" d="M968.9989,-56.2455C981.6147,-47.7337 1000.1359,-35.2375 1014.746,-25.3801"/>
<polygon fill="#191970" stroke="#191970" points="1016.9175,-28.1371 1023.2496,-19.6427 1013.0024,-22.3343 1016.9175,-28.1371"/>
</g>
<!-- Node18 -->
<g id="node19" class="node">
<title>Node18</title>
<polygon fill="none" stroke="#bfbfbf" points="920.0415,-.5 920.0415,-19.5 989.0415,-19.5 989.0415,-.5 920.0415,-.5"/>
<text text-anchor="middle" x="954.5415" y="-7.5" font-family="Helvetica,sans-Serif" font-size="10.00" fill="#000000">type_traits</text>
</g>
<!-- Node17&#45;&gt;Node18 -->
<g id="edge30" class="edge">
<title>Node17&#45;&gt;Node18</title>
<path fill="none" stroke="#191970" d="M954.5415,-56.2455C954.5415,-48.9382 954.5415,-38.6944 954.5415,-29.7046"/>
<polygon fill="#191970" stroke="#191970" points="958.0415,-29.6426 954.5415,-19.6427 951.0415,-29.6427 958.0415,-29.6426"/>
</g>
<!-- Node19 -->
<g id="node20" class="node">
<title>Node19</title>
<polygon fill="none" stroke="#bfbfbf" points="851.0415,-.5 851.0415,-19.5 902.0415,-19.5 902.0415,-.5 851.0415,-.5"/>
<text text-anchor="middle" x="876.5415" y="-7.5" font-family="Helvetica,sans-Serif" font-size="10.00" fill="#000000">variant</text>
</g>
<!-- Node17&#45;&gt;Node19 -->
<g id="edge31" class="edge">
<title>Node17&#45;&gt;Node19</title>
<path fill="none" stroke="#191970" d="M940.9549,-56.2455C929.211,-47.814 912.0216,-35.4729 898.3533,-25.6598"/>
<polygon fill="#191970" stroke="#191970" points="900.1368,-22.6316 889.9723,-19.6427 896.0543,-28.3179 900.1368,-22.6316"/>
</g>
<!-- Node20 -->
<g id="node21" class="node">
<title>Node20</title>
<polygon fill="none" stroke="#bfbfbf" points="1367.0415,-.5 1367.0415,-19.5 1408.0415,-19.5 1408.0415,-.5 1367.0415,-.5"/>
<text text-anchor="middle" x="1387.5415" y="-7.5" font-family="Helvetica,sans-Serif" font-size="10.00" fill="#000000">tuple</text>
</g>
<!-- Node17&#45;&gt;Node20 -->
<g id="edge32" class="edge">
<title>Node17&#45;&gt;Node20</title>
<path fill="none" stroke="#191970" d="M1003.7905,-59.6306C1093.7906,-47.9909 1282.3847,-23.5999 1356.5961,-14.0022"/>
<polygon fill="#191970" stroke="#191970" points="1357.2216,-17.4505 1366.6901,-12.6967 1356.3237,-10.5083 1357.2216,-17.4505"/>
</g>
<!-- Node22&#45;&gt;Node2 -->
<g id="edge39" class="edge">
<title>Node22&#45;&gt;Node2</title>
<path fill="none" stroke="#191970" d="M1296.3853,-112.4181C1274.9651,-103.422 1242.3357,-89.3814 1214.5415,-76 1197.3454,-67.721 1194.105,-63.4679 1176.5415,-56 1143.9366,-42.1366 1105.6307,-29.7332 1077.4973,-21.3096"/>
<polygon fill="#191970" stroke="#191970" points="1078.204,-17.8688 1067.622,-18.3909 1076.2199,-24.5818 1078.204,-17.8688"/>
</g>
<!-- Node22&#45;&gt;Node4 -->
<g id="edge44" class="edge">
<title>Node22&#45;&gt;Node4</title>
<path fill="none" stroke="#191970" d="M1290.4462,-121.301C1167.3565,-118.2206 677.2818,-104.7172 275.5415,-76 252.4494,-74.3493 226.4566,-71.759 206.623,-69.6283"/>
<polygon fill="#191970" stroke="#191970" points="206.8995,-66.1377 196.5788,-68.5321 206.14,-73.0964 206.8995,-66.1377"/>
</g>
<!-- Node22&#45;&gt;Node6 -->
<g id="edge35" class="edge">
<title>Node22&#45;&gt;Node6</title>
<path fill="none" stroke="#191970" d="M1290.4021,-120.393C1206.3239,-115.5962 956.1212,-100.1945 749.5415,-76 738.8252,-74.7449 727.1633,-73.0538 716.7142,-71.4196"/>
<polygon fill="#191970" stroke="#191970" points="717.1772,-67.9492 706.7493,-69.8226 716.0694,-74.861 717.1772,-67.9492"/>
</g>
<!-- Node22&#45;&gt;Node17 -->
<g id="edge47" class="edge">
<title>Node22&#45;&gt;Node17</title>
<path fill="none" stroke="#191970" d="M1290.289,-117.5119C1230.4679,-108.3339 1093.1201,-87.2614 1013.8725,-75.1028"/>
<polygon fill="#191970" stroke="#191970" points="1013.9771,-71.578 1003.5619,-73.521 1012.9155,-78.4971 1013.9771,-71.578"/>
</g>
<!-- Node22&#45;&gt;Node23 -->
<g id="edge36" class="edge">
<title>Node22&#45;&gt;Node23</title>
<path fill="none" stroke="#191970" d="M1348.8111,-118.1066C1419.0158,-108.7683 1597.7869,-84.9887 1687.499,-73.0555"/>
<polygon fill="#191970" stroke="#191970" points="1688.0121,-76.5182 1697.4632,-71.7301 1687.089,-69.5793 1688.0121,-76.5182"/>
</g>
<!-- Node26 -->
<g id="node27" class="node">
<title>Node26</title>
<polygon fill="none" stroke="#bfbfbf" points="1223.5415,-56.5 1223.5415,-75.5 1273.5415,-75.5 1273.5415,-56.5 1223.5415,-56.5"/>
<text text-anchor="middle" x="1248.5415" y="-63.5" font-family="Helvetica,sans-Serif" font-size="10.00" fill="#000000">chrono</text>
</g>
<!-- Node22&#45;&gt;Node26 -->
<g id="edge40" class="edge">
<title>Node22&#45;&gt;Node26</title>
<path fill="none" stroke="#191970" d="M1307.1742,-112.2455C1296.586,-103.8943 1281.135,-91.7076 1268.7521,-81.9408"/>
<polygon fill="#191970" stroke="#191970" points="1270.7862,-79.0875 1260.767,-75.6427 1266.4511,-84.5837 1270.7862,-79.0875"/>
</g>
<!-- Node27 -->
<g id="node28" class="node">
<title>Node27</title>
<polygon fill="none" stroke="#bfbfbf" points="1291.5415,-56.5 1291.5415,-75.5 1335.5415,-75.5 1335.5415,-56.5 1291.5415,-56.5"/>
<text text-anchor="middle" x="1313.5415" y="-63.5" font-family="Helvetica,sans-Serif" font-size="10.00" fill="#000000">ctime</text>
</g>
<!-- Node22&#45;&gt;Node27 -->
<g id="edge41" class="edge">
<title>Node22&#45;&gt;Node27</title>
<path fill="none" stroke="#191970" d="M1318.4963,-112.2455C1317.7134,-104.9382 1316.6158,-94.6944 1315.6527,-85.7046"/>
<polygon fill="#191970" stroke="#191970" points="1319.1201,-85.2129 1314.5746,-75.6427 1312.1599,-85.9587 1319.1201,-85.2129"/>
</g>
<!-- Node28 -->
<g id="node29" class="node">
<title>Node28</title>
<polygon fill="none" stroke="#bfbfbf" points="1354.0415,-56.5 1354.0415,-75.5 1409.0415,-75.5 1409.0415,-56.5 1354.0415,-56.5"/>
<text text-anchor="middle" x="1381.5415" y="-63.5" font-family="Helvetica,sans-Serif" font-size="10.00" fill="#000000">fstream</text>
</g>
<!-- Node22&#45;&gt;Node28 -->
<g id="edge42" class="edge">
<title>Node22&#45;&gt;Node28</title>
<path fill="none" stroke="#191970" d="M1330.341,-112.2455C1339.4092,-104.0549 1352.5621,-92.1749 1363.2659,-82.5069"/>
<polygon fill="#191970" stroke="#191970" points="1365.7906,-84.9429 1370.8656,-75.6427 1361.0986,-79.7482 1365.7906,-84.9429"/>
</g>
<!-- Node29 -->
<g id="node30" class="node">
<title>Node29</title>
<polygon fill="none" stroke="#bfbfbf" points="1427.5415,-56.5 1427.5415,-75.5 1483.5415,-75.5 1483.5415,-56.5 1427.5415,-56.5"/>
<text text-anchor="middle" x="1455.5415" y="-63.5" font-family="Helvetica,sans-Serif" font-size="10.00" fill="#000000">sstream</text>
</g>
<!-- Node22&#45;&gt;Node29 -->
<g id="edge43" class="edge">
<title>Node22&#45;&gt;Node29</title>
<path fill="none" stroke="#191970" d="M1342.9207,-112.3733C1365.0459,-103.2629 1398.4549,-89.5062 1423.1434,-79.3404"/>
<polygon fill="#191970" stroke="#191970" points="1424.5532,-82.5451 1432.4673,-75.5011 1421.8879,-76.0723 1424.5532,-82.5451"/>
</g>
<!-- Node30 -->
<g id="node31" class="node">
<title>Node30</title>
<polygon fill="none" stroke="#bfbfbf" points="1103.5415,-56.5 1103.5415,-75.5 1167.5415,-75.5 1167.5415,-56.5 1103.5415,-56.5"/>
<text text-anchor="middle" x="1135.5415" y="-63.5" font-family="Helvetica,sans-Serif" font-size="10.00" fill="#000000">algorithm</text>
</g>
<!-- Node22&#45;&gt;Node30 -->
<g id="edge45" class="edge">
<title>Node22&#45;&gt;Node30</title>
<path fill="none" stroke="#191970" d="M1290.3861,-113.1266C1259.7658,-103.8074 1211.3542,-89.0735 1176.8169,-78.5621"/>
<polygon fill="#191970" stroke="#191970" points="1177.611,-75.1453 1167.0251,-75.582 1175.5728,-81.842 1177.611,-75.1453"/>
</g>
<!-- Node31 -->
<g id="node32" class="node">
<title>Node31</title>
<polygon fill="none" stroke="#bfbfbf" points="1501.5415,-56.5 1501.5415,-75.5 1549.5415,-75.5 1549.5415,-56.5 1501.5415,-56.5"/>
<text text-anchor="middle" x="1525.5415" y="-63.5" font-family="Helvetica,sans-Serif" font-size="10.00" fill="#000000">mutex</text>
</g>
<!-- Node22&#45;&gt;Node31 -->
<g id="edge46" class="edge">
<title>Node22&#45;&gt;Node31</title>
<path fill="none" stroke="#191970" d="M1348.7043,-114.5719C1381.2756,-106.2044 1435.7906,-91.9882 1491.7048,-76.174"/>
<polygon fill="#191970" stroke="#191970" points="1492.7563,-79.5139 1501.419,-73.4142 1490.8432,-72.7804 1492.7563,-79.5139"/>
</g>
<!-- Node32 -->
<g id="node33" class="node">
<title>Node32</title>
<g id="a_node33"><a xlink:href="LOG_8inl_8hxx.html" target="_top" xlink:title="LOG.inl.hxx">
<polygon fill="none" stroke="#000000" points="1568.0415,-56.5 1568.0415,-75.5 1641.0415,-75.5 1641.0415,-56.5 1568.0415,-56.5"/>
<text text-anchor="middle" x="1604.5415" y="-63.5" font-family="Helvetica,sans-Serif" font-size="10.00" fill="#000000">LOG.inl.hxx</text>
</a>
</g>
</g>
<!-- Node22&#45;&gt;Node32 -->
<g id="edge48" class="edge">
<title>Node22&#45;&gt;Node32</title>
<path fill="none" stroke="#191970" d="M1348.6503,-116.6297C1391.9394,-108.5929 1476.0875,-92.7778 1557.933,-76.0875"/>
<polygon fill="#191970" stroke="#191970" points="1558.8044,-79.4818 1567.8999,-74.0482 1557.4012,-72.6239 1558.8044,-79.4818"/>
</g>
<!-- Node24 -->
<g id="node25" class="node">
<title>Node24</title>
<polygon fill="none" stroke="#bfbfbf" points="1749.0415,-.5 1749.0415,-19.5 1814.0415,-19.5 1814.0415,-.5 1749.0415,-.5"/>
<text text-anchor="middle" x="1781.5415" y="-7.5" font-family="Helvetica,sans-Serif" font-size="10.00" fill="#000000">stdexcept</text>
</g>
<!-- Node23&#45;&gt;Node24 -->
<g id="edge37" class="edge">
<title>Node23&#45;&gt;Node24</title>
<path fill="none" stroke="#191970" d="M1747.6831,-56.2455C1753.3859,-48.4564 1761.5314,-37.3308 1768.4039,-27.9439"/>
<polygon fill="#191970" stroke="#191970" points="1771.3982,-29.7789 1774.4816,-19.6427 1765.7502,-25.6437 1771.3982,-29.7789"/>
</g>
<!-- Node25 -->
<g id="node26" class="node">
<title>Node25</title>
<polygon fill="none" stroke="#bfbfbf" points="1666.0415,-.5 1666.0415,-19.5 1731.0415,-19.5 1731.0415,-.5 1666.0415,-.5"/>
<text text-anchor="middle" x="1698.5415" y="-7.5" font-family="Helvetica,sans-Serif" font-size="10.00" fill="#000000">exception</text>
</g>
<!-- Node23&#45;&gt;Node25 -->
<g id="edge38" class="edge">
<title>Node23&#45;&gt;Node25</title>
<path fill="none" stroke="#191970" d="M1733.2256,-56.2455C1727.3235,-48.3761 1718.8672,-37.101 1711.7821,-27.6542"/>
<polygon fill="#191970" stroke="#191970" points="1714.5735,-25.5427 1705.7735,-19.6427 1708.9735,-29.7427 1714.5735,-25.5427"/>
</g>
<!-- Node33&#45;&gt;Node6 -->
<g id="edge52" class="edge">
<title>Node33&#45;&gt;Node6</title>
<path fill="none" stroke="#191970" d="M825.4762,-336.4984C785.148,-321.6545 718.5415,-288.8376 718.5415,-234 718.5415,-234 718.5415,-234 718.5415,-178 718.5415,-143.9677 703.99,-106.5293 693.9263,-84.7067"/>
<polygon fill="#191970" stroke="#191970" points="697.0353,-83.0954 689.5583,-75.5891 690.7224,-86.1198 697.0353,-83.0954"/>
</g>
<!-- Node33&#45;&gt;Node8 -->
<g id="edge53" class="edge">
<title>Node33&#45;&gt;Node8</title>
<path fill="none" stroke="#191970" d="M855.1116,-336.4139C854.2821,-317.0603 852.5415,-271.9303 852.5415,-234 852.5415,-234 852.5415,-234 852.5415,-178 852.5415,-145.7116 852.5415,-108.1872 852.5415,-85.8048"/>
<polygon fill="#191970" stroke="#191970" points="856.0415,-85.5883 852.5415,-75.5884 849.0415,-85.5884 856.0415,-85.5883"/>
</g>
<!-- Node34 -->
<g id="node35" class="node">
<title>Node34</title>
<polygon fill="none" stroke="#bfbfbf" points="1043.5415,-280.5 1043.5415,-299.5 1097.5415,-299.5 1097.5415,-280.5 1043.5415,-280.5"/>
<text text-anchor="middle" x="1070.5415" y="-287.5" font-family="Helvetica,sans-Serif" font-size="10.00" fill="#000000">ciso646</text>
</g>
<!-- Node33&#45;&gt;Node34 -->
<g id="edge51" class="edge">
<title>Node33&#45;&gt;Node34</title>
<path fill="none" stroke="#191970" d="M893.6588,-336.4325C927.8807,-327.7918 979.7395,-314.5734 1033.6925,-300.1936"/>
<polygon fill="#191970" stroke="#191970" points="1034.6726,-303.5546 1043.43,-297.5916 1032.8654,-296.7919 1034.6726,-303.5546"/>
</g>
<!-- Node35 -->
<g id="node36" class="node">
<title>Node35</title>
<g id="a_node36"><a xlink:href="PixelBuffer_8hxx.html" target="_top" xlink:title="../util/PixelBuffer.hxx">
<polygon fill="none" stroke="#000000" points="907.5415,-280.5 907.5415,-299.5 1025.5415,-299.5 1025.5415,-280.5 907.5415,-280.5"/>
<text text-anchor="middle" x="966.5415" y="-287.5" font-family="Helvetica,sans-Serif" font-size="10.00" fill="#000000">../util/PixelBuffer.hxx</text>
</a>
</g>
</g>
<!-- Node33&#45;&gt;Node35 -->
<g id="edge54" class="edge">
<title>Node33&#45;&gt;Node35</title>
<path fill="none" stroke="#191970" d="M874.623,-336.3733C892.2816,-327.4644 918.7467,-314.1127 938.7512,-304.0203"/>
<polygon fill="#191970" stroke="#191970" points="940.3572,-307.1303 947.7089,-299.5011 937.2042,-300.8806 940.3572,-307.1303"/>
</g>
<!-- Node35&#45;&gt;Node8 -->
<g id="edge55" class="edge">
<title>Node35&#45;&gt;Node8</title>
<path fill="none" stroke="#191970" d="M950.0881,-280.4694C937.3352,-272.2977 920.1094,-259.4191 909.5415,-244 904.9021,-237.2311 871.9945,-129.9853 858.3974,-85.3054"/>
<polygon fill="#191970" stroke="#191970" points="861.7109,-84.1713 855.4546,-75.6209 855.0133,-86.2065 861.7109,-84.1713"/>
</g>
<!-- Node36 -->
<g id="node37" class="node">
<title>Node36</title>
<g id="a_node37"><a xlink:href="Rectangle_8hxx.html" target="_top" xlink:title="../util/Rectangle.hxx">
<polygon fill="none" stroke="#000000" points="1268.0415,-224.5 1268.0415,-243.5 1381.0415,-243.5 1381.0415,-224.5 1268.0415,-224.5"/>
<text text-anchor="middle" x="1324.5415" y="-231.5" font-family="Helvetica,sans-Serif" font-size="10.00" fill="#000000">../util/Rectangle.hxx</text>
</a>
</g>
</g>
<!-- Node35&#45;&gt;Node36 -->
<g id="edge56" class="edge">
<title>Node35&#45;&gt;Node36</title>
<path fill="none" stroke="#191970" d="M1025.6579,-280.7527C1089.6007,-270.7505 1191.3171,-254.8396 1258.0127,-244.4067"/>
<polygon fill="#191970" stroke="#191970" points="1258.6585,-247.8484 1267.9974,-242.8449 1257.5766,-240.9325 1258.6585,-247.8484"/>
</g>
<!-- Node39 -->
<g id="node40" class="node">
<title>Node39</title>
<g id="a_node40"><a xlink:href="Range_8hxx.html" target="_top" xlink:title="../util/Range.hxx">
<polygon fill="none" stroke="#000000" points="918.5415,-224.5 918.5415,-243.5 1014.5415,-243.5 1014.5415,-224.5 918.5415,-224.5"/>
<text text-anchor="middle" x="966.5415" y="-231.5" font-family="Helvetica,sans-Serif" font-size="10.00" fill="#000000">../util/Range.hxx</text>
</a>
</g>
</g>
<!-- Node35&#45;&gt;Node39 -->
<g id="edge63" class="edge">
<title>Node35&#45;&gt;Node39</title>
<path fill="none" stroke="#191970" d="M966.5415,-280.2455C966.5415,-272.9382 966.5415,-262.6944 966.5415,-253.7046"/>
<polygon fill="#191970" stroke="#191970" points="970.0415,-253.6426 966.5415,-243.6427 963.0415,-253.6427 970.0415,-253.6426"/>
</g>
<!-- Node42 -->
<g id="node43" class="node">
<title>Node42</title>
<g id="a_node43"><a xlink:href="Color_8hxx.html" target="_top" xlink:title="../util/Color.hxx">
<polygon fill="none" stroke="#000000" points="1156.5415,-224.5 1156.5415,-243.5 1246.5415,-243.5 1246.5415,-224.5 1156.5415,-224.5"/>
<text text-anchor="middle" x="1201.5415" y="-231.5" font-family="Helvetica,sans-Serif" font-size="10.00" fill="#000000">../util/Color.hxx</text>
</a>
</g>
</g>
<!-- Node35&#45;&gt;Node42 -->
<g id="edge67" class="edge">
<title>Node35&#45;&gt;Node42</title>
<path fill="none" stroke="#191970" d="M1006.6724,-280.4369C1046.8063,-270.8731 1108.619,-256.1432 1151.8347,-245.845"/>
<polygon fill="#191970" stroke="#191970" points="1152.6598,-249.2465 1161.576,-243.5237 1151.0371,-242.4372 1152.6598,-249.2465"/>
</g>
<!-- Node44 -->
<g id="node45" class="node">
<title>Node44</title>
<g id="a_node45"><a xlink:href="PixelBuffer_8inl_8hxx.html" target="_top" xlink:title="PixelBuffer.inl.hxx">
<polygon fill="none" stroke="#000000" points="1033.0415,-224.5 1033.0415,-243.5 1138.0415,-243.5 1138.0415,-224.5 1033.0415,-224.5"/>
<text text-anchor="middle" x="1085.5415" y="-231.5" font-family="Helvetica,sans-Serif" font-size="10.00" fill="#000000">PixelBuffer.inl.hxx</text>
</a>
</g>
</g>
<!-- Node35&#45;&gt;Node44 -->
<g id="edge70" class="edge">
<title>Node35&#45;&gt;Node44</title>
<path fill="none" stroke="#191970" d="M986.9983,-280.3733C1006.0152,-271.4241 1034.559,-257.9917 1056.039,-247.8835"/>
<polygon fill="#191970" stroke="#191970" points="1057.7937,-250.926 1065.3516,-243.5011 1054.8131,-244.5923 1057.7937,-250.926"/>
</g>
<!-- Node36&#45;&gt;Node2 -->
<g id="edge58" class="edge">
<title>Node36&#45;&gt;Node2</title>
<path fill="none" stroke="#191970" d="M1310.2255,-224.4765C1262.9833,-193.0065 1113.9419,-93.3681 1094.5415,-76 1078.0706,-61.2547 1061.8453,-41.8585 1050.9438,-27.914"/>
<polygon fill="#191970" stroke="#191970" points="1053.4624,-25.4467 1044.5996,-19.6414 1047.9077,-29.7065 1053.4624,-25.4467"/>
</g>
<!-- Node36&#45;&gt;Node20 -->
<g id="edge57" class="edge">
<title>Node36&#45;&gt;Node20</title>
<path fill="none" stroke="#191970" d="M1381.2531,-227.0866C1460.4167,-213.893 1600.0158,-176.7819 1650.5415,-76 1654.5252,-68.0538 1656.2598,-62.8053 1650.5415,-56 1621.1547,-21.0272 1481.121,-12.6392 1418.2369,-10.6307"/>
<polygon fill="#191970" stroke="#191970" points="1418.2299,-7.1292 1408.1341,-10.3423 1418.0301,-14.1263 1418.2299,-7.1292"/>
</g>
<!-- Node37 -->
<g id="node38" class="node">
<title>Node37</title>
<g id="a_node38"><a xlink:href="iShape_8hxx.html" target="_top" xlink:title="../util/iShape.hxx">
<polygon fill="none" stroke="#000000" points="1393.5415,-168.5 1393.5415,-187.5 1491.5415,-187.5 1491.5415,-168.5 1393.5415,-168.5"/>
<text text-anchor="middle" x="1442.5415" y="-175.5" font-family="Helvetica,sans-Serif" font-size="10.00" fill="#000000">../util/iShape.hxx</text>
</a>
</g>
</g>
<!-- Node36&#45;&gt;Node37 -->
<g id="edge59" class="edge">
<title>Node36&#45;&gt;Node37</title>
<path fill="none" stroke="#191970" d="M1344.8264,-224.3733C1363.6835,-215.4241 1391.9874,-201.9917 1413.2869,-191.8835"/>
<polygon fill="#191970" stroke="#191970" points="1414.9876,-194.9506 1422.5212,-187.5011 1411.9863,-188.6266 1414.9876,-194.9506"/>
</g>
<!-- Node38 -->
<g id="node39" class="node">
<title>Node38</title>
<g id="a_node39"><a xlink:href="Rectangle_8inl_8hxx.html" target="_top" xlink:title="Rectangle.inl.hxx">
<polygon fill="none" stroke="#000000" points="1274.0415,-168.5 1274.0415,-187.5 1375.0415,-187.5 1375.0415,-168.5 1274.0415,-168.5"/>
<text text-anchor="middle" x="1324.5415" y="-175.5" font-family="Helvetica,sans-Serif" font-size="10.00" fill="#000000">Rectangle.inl.hxx</text>
</a>
</g>
</g>
<!-- Node36&#45;&gt;Node38 -->
<g id="edge60" class="edge">
<title>Node36&#45;&gt;Node38</title>
<path fill="none" stroke="#191970" d="M1324.5415,-224.2455C1324.5415,-216.9382 1324.5415,-206.6944 1324.5415,-197.7046"/>
<polygon fill="#191970" stroke="#191970" points="1328.0415,-197.6426 1324.5415,-187.6427 1321.0415,-197.6427 1328.0415,-197.6426"/>
</g>
<!-- Node38&#45;&gt;Node22 -->
<g id="edge62" class="edge">
<title>Node38&#45;&gt;Node22</title>
<path fill="none" stroke="#191970" d="M1323.6705,-168.2455C1323.0181,-160.9382 1322.1034,-150.6944 1321.3008,-141.7046"/>
<polygon fill="#191970" stroke="#191970" points="1324.7779,-141.2918 1320.4024,-131.6427 1317.8057,-141.9143 1324.7779,-141.2918"/>
</g>
<!-- Node38&#45;&gt;Node30 -->
<g id="edge61" class="edge">
<title>Node38&#45;&gt;Node30</title>
<path fill="none" stroke="#191970" d="M1308.4274,-168.4509C1275.3702,-148.8615 1199.6922,-104.0152 1160.3385,-80.6945"/>
<polygon fill="#191970" stroke="#191970" points="1162.002,-77.6119 1151.6147,-75.5249 1158.4333,-83.634 1162.002,-77.6119"/>
</g>
<!-- Node39&#45;&gt;Node17 -->
<g id="edge65" class="edge">
<title>Node39&#45;&gt;Node17</title>
<path fill="none" stroke="#191970" d="M961.583,-224.4444C957.1634,-215.352 951.022,-201.1462 948.5415,-188 941.8206,-152.3809 946.7496,-109.9377 950.7676,-85.6627"/>
<polygon fill="#191970" stroke="#191970" points="954.2529,-86.0541 952.5582,-75.5957 947.361,-84.8282 954.2529,-86.0541"/>
</g>
<!-- Node40 -->
<g id="node41" class="node">
<title>Node40</title>
<polygon fill="none" stroke="#bfbfbf" points="1058.0415,-168.5 1058.0415,-187.5 1111.0415,-187.5 1111.0415,-168.5 1058.0415,-168.5"/>
<text text-anchor="middle" x="1084.5415" y="-175.5" font-family="Helvetica,sans-Serif" font-size="10.00" fill="#000000">iterator</text>
</g>
<!-- Node39&#45;&gt;Node40 -->
<g id="edge64" class="edge">
<title>Node39&#45;&gt;Node40</title>
<path fill="none" stroke="#191970" d="M986.8264,-224.3733C1005.6835,-215.4241 1033.9874,-201.9917 1055.2869,-191.8835"/>
<polygon fill="#191970" stroke="#191970" points="1056.9876,-194.9506 1064.5212,-187.5011 1053.9863,-188.6266 1056.9876,-194.9506"/>
</g>
<!-- Node41 -->
<g id="node42" class="node">
<title>Node41</title>
<g id="a_node42"><a xlink:href="Range_8inl_8hxx.html" target="_top" xlink:title="Range.inl.hxx">
<polygon fill="none" stroke="#000000" points="957.0415,-168.5 957.0415,-187.5 1040.0415,-187.5 1040.0415,-168.5 957.0415,-168.5"/>
<text text-anchor="middle" x="998.5415" y="-175.5" font-family="Helvetica,sans-Serif" font-size="10.00" fill="#000000">Range.inl.hxx</text>
</a>
</g>
</g>
<!-- Node39&#45;&gt;Node41 -->
<g id="edge66" class="edge">
<title>Node39&#45;&gt;Node41</title>
<path fill="none" stroke="#191970" d="M972.1154,-224.2455C976.4746,-216.617 982.6625,-205.7881 987.9547,-196.5267"/>
<polygon fill="#191970" stroke="#191970" points="991.1088,-198.0616 993.0314,-187.6427 985.0311,-194.5886 991.1088,-198.0616"/>
</g>
<!-- Node42&#45;&gt;Node2 -->
<g id="edge69" class="edge">
<title>Node42&#45;&gt;Node2</title>
<path fill="none" stroke="#191970" d="M1201.7765,-224.2292C1201.6534,-210.5787 1199.7448,-185.5104 1188.5415,-168 1150.9782,-109.2899 1103.5177,-131.6405 1061.5415,-76 1051.2281,-62.3294 1045.0072,-43.7926 1041.4926,-29.8443"/>
<polygon fill="#191970" stroke="#191970" points="1044.846,-28.8049 1039.2277,-19.8224 1038.0182,-30.348 1044.846,-28.8049"/>
</g>
<!-- Node43 -->
<g id="node44" class="node">
<title>Node43</title>
<polygon fill="none" stroke="#bfbfbf" points="1129.5415,-168.5 1129.5415,-187.5 1179.5415,-187.5 1179.5415,-168.5 1129.5415,-168.5"/>
<text text-anchor="middle" x="1154.5415" y="-175.5" font-family="Helvetica,sans-Serif" font-size="10.00" fill="#000000">cstdint</text>
</g>
<!-- Node42&#45;&gt;Node43 -->
<g id="edge68" class="edge">
<title>Node42&#45;&gt;Node43</title>
<path fill="none" stroke="#191970" d="M1193.3547,-224.2455C1186.6826,-216.2958 1177.0935,-204.8706 1169.1161,-195.3656"/>
<polygon fill="#191970" stroke="#191970" points="1171.7441,-193.0524 1162.6344,-187.6427 1166.3822,-197.5525 1171.7441,-193.0524"/>
</g>
</g>
</svg>
