<?xml version="1.0" encoding="UTF-8" standalone="no"?>
<!DOCTYPE svg PUBLIC "-//W3C//DTD SVG 1.1//EN"
 "http://www.w3.org/Graphics/SVG/1.1/DTD/svg11.dtd">
<!-- Generated by graphviz version 2.40.1 (20161225.0304)
 -->
<!-- Title: src/engine/basics/Settings.cxx Pages: 1 -->
<svg width="2270pt" height="420pt"
 viewBox="0.00 0.00 2269.50 420.00" xmlns="http://www.w3.org/2000/svg" xmlns:xlink="http://www.w3.org/1999/xlink">
<g id="graph0" class="graph" transform="scale(1 1) rotate(0) translate(4 416)">
<title>src/engine/basics/Settings.cxx</title>
<!-- Node0 -->
<g id="node1" class="node">
<title>Node0</title>
<polygon fill="#bfbfbf" stroke="#000000" points="1709.5,-392.5 1709.5,-411.5 1873.5,-411.5 1873.5,-392.5 1709.5,-392.5"/>
<text text-anchor="middle" x="1791.5" y="-399.5" font-family="Helvetica,sans-Serif" font-size="10.00" fill="#000000">src/engine/basics/Settings.cxx</text>
</g>
<!-- Node1 -->
<g id="node2" class="node">
<title>Node1</title>
<g id="a_node2"><a xlink:href="Settings_8hxx.html" target="_top" xlink:title="Settings.hxx">
<polygon fill="none" stroke="#000000" points="1113,-168.5 1113,-187.5 1190,-187.5 1190,-168.5 1113,-168.5"/>
<text text-anchor="middle" x="1151.5" y="-175.5" font-family="Helvetica,sans-Serif" font-size="10.00" fill="#000000">Settings.hxx</text>
</a>
</g>
</g>
<!-- Node0&#45;&gt;Node1 -->
<g id="edge1" class="edge">
<title>Node0&#45;&gt;Node1</title>
<path fill="none" stroke="#191970" d="M1709.058,-396.9656C1592.2656,-389.3434 1384.6973,-373.8554 1311.5,-356 1246.7944,-340.216 1214.3347,-351.8248 1172.5,-300 1148.8636,-270.7192 1147.7358,-224.4221 1149.3839,-198.0821"/>
<polygon fill="#191970" stroke="#191970" points="1152.8965,-198.0743 1150.2341,-187.8195 1145.9204,-197.4964 1152.8965,-198.0743"/>
</g>
<!-- Node10 -->
<g id="node11" class="node">
<title>Node10</title>
<g id="a_node11"><a xlink:href="LOG_8hxx.html" target="_top" xlink:title="LOG.hxx">
<polygon fill="none" stroke="#000000" points="1671.5,-112.5 1671.5,-131.5 1729.5,-131.5 1729.5,-112.5 1671.5,-112.5"/>
<text text-anchor="middle" x="1700.5" y="-119.5" font-family="Helvetica,sans-Serif" font-size="10.00" fill="#000000">LOG.hxx</text>
</a>
</g>
</g>
<!-- Node0&#45;&gt;Node10 -->
<g id="edge10" class="edge">
<title>Node0&#45;&gt;Node10</title>
<path fill="none" stroke="#191970" d="M1791.5,-392.4116C1791.5,-373.0538 1791.5,-327.9167 1791.5,-290 1791.5,-290 1791.5,-290 1791.5,-234 1791.5,-203.3494 1789.9288,-192.4915 1771.5,-168 1761.4549,-154.6503 1746.3188,-144.0821 1732.5991,-136.4593"/>
<polygon fill="#191970" stroke="#191970" points="1733.8908,-133.1852 1723.4071,-131.6545 1730.6481,-139.3888 1733.8908,-133.1852"/>
</g>
<!-- Node11 -->
<g id="node12" class="node">
<title>Node11</title>
<g id="a_node12"><a xlink:href="Exception_8hxx.html" target="_top" xlink:title="Exception.hxx">
<polygon fill="none" stroke="#000000" points="2063.5,-56.5 2063.5,-75.5 2149.5,-75.5 2149.5,-56.5 2063.5,-56.5"/>
<text text-anchor="middle" x="2106.5" y="-63.5" font-family="Helvetica,sans-Serif" font-size="10.00" fill="#000000">Exception.hxx</text>
</a>
</g>
</g>
<!-- Node0&#45;&gt;Node11 -->
<g id="edge25" class="edge">
<title>Node0&#45;&gt;Node11</title>
<path fill="none" stroke="#191970" d="M1843.2231,-392.4463C1924.6342,-375.9159 2073.5,-338.9908 2073.5,-290 2073.5,-290 2073.5,-290 2073.5,-178 2073.5,-144.051 2087.6235,-106.5869 2097.3911,-84.7366"/>
<polygon fill="#191970" stroke="#191970" points="2100.5937,-86.1501 2101.6307,-75.6061 2094.2448,-83.202 2100.5937,-86.1501"/>
</g>
<!-- Node22 -->
<g id="node23" class="node">
<title>Node22</title>
<g id="a_node23"><a xlink:href="Constants_8hxx.html" target="_top" xlink:title="Constants.hxx">
<polygon fill="none" stroke="#000000" points="2101.5,-336.5 2101.5,-355.5 2187.5,-355.5 2187.5,-336.5 2101.5,-336.5"/>
<text text-anchor="middle" x="2144.5" y="-343.5" font-family="Helvetica,sans-Serif" font-size="10.00" fill="#000000">Constants.hxx</text>
</a>
</g>
</g>
<!-- Node0&#45;&gt;Node22 -->
<g id="edge26" class="edge">
<title>Node0&#45;&gt;Node22</title>
<path fill="none" stroke="#191970" d="M1855.0721,-392.487C1915.0516,-383.4248 2007.4586,-369.2393 2087.5,-356 2088.7545,-355.7925 2090.0243,-355.5811 2091.3048,-355.3666"/>
<polygon fill="#191970" stroke="#191970" points="2091.9817,-358.8019 2101.2552,-353.678 2090.8105,-351.9005 2091.9817,-358.8019"/>
</g>
<!-- Node23 -->
<g id="node24" class="node">
<title>Node23</title>
<g id="a_node24"><a xlink:href="JsonSerialization_8hxx.html" target="_top" xlink:title="JsonSerialization.hxx">
<polygon fill="none" stroke="#000000" points="476,-336.5 476,-355.5 595,-355.5 595,-336.5 476,-336.5"/>
<text text-anchor="middle" x="535.5" y="-343.5" font-family="Helvetica,sans-Serif" font-size="10.00" fill="#000000">JsonSerialization.hxx</text>
</a>
</g>
</g>
<!-- Node0&#45;&gt;Node23 -->
<g id="edge27" class="edge">
<title>Node0&#45;&gt;Node23</title>
<path fill="none" stroke="#191970" d="M1709.0903,-398.3257C1477.1234,-387.9832 821.506,-358.7519 605.4902,-349.1206"/>
<polygon fill="#191970" stroke="#191970" points="605.3805,-345.6123 595.2345,-348.6633 605.0687,-352.6054 605.3805,-345.6123"/>
</g>
<!-- Node39 -->
<g id="node40" class="node">
<title>Node39</title>
<g id="a_node40"><a xlink:href="Filesystem_8hxx.html" target="_top" xlink:title="Filesystem.hxx">
<polygon fill="none" stroke="#000000" points="1320.5,-336.5 1320.5,-355.5 1410.5,-355.5 1410.5,-336.5 1320.5,-336.5"/>
<text text-anchor="middle" x="1365.5" y="-343.5" font-family="Helvetica,sans-Serif" font-size="10.00" fill="#000000">Filesystem.hxx</text>
</a>
</g>
</g>
<!-- Node0&#45;&gt;Node39 -->
<g id="edge61" class="edge">
<title>Node0&#45;&gt;Node39</title>
<path fill="none" stroke="#191970" d="M1718.752,-392.4369C1634.4353,-381.353 1497.3354,-363.3305 1421.1009,-353.309"/>
<polygon fill="#191970" stroke="#191970" points="1421.1306,-349.7829 1410.7597,-351.9496 1420.2182,-356.7232 1421.1306,-349.7829"/>
</g>
<!-- Node51 -->
<g id="node50" class="node">
<title>Node51</title>
<polygon fill="none" stroke="#bfbfbf" points="2205.5,-336.5 2205.5,-355.5 2261.5,-355.5 2261.5,-336.5 2205.5,-336.5"/>
<text text-anchor="middle" x="2233.5" y="-343.5" font-family="Helvetica,sans-Serif" font-size="10.00" fill="#000000">iomanip</text>
</g>
<!-- Node0&#45;&gt;Node51 -->
<g id="edge80" class="edge">
<title>Node0&#45;&gt;Node51</title>
<path fill="none" stroke="#191970" d="M1873.8834,-396.3054C1953.8578,-389.9435 2078.7469,-377.8072 2195.4945,-355.9527"/>
<polygon fill="#191970" stroke="#191970" points="2196.1489,-359.391 2205.3202,-354.0864 2194.8427,-352.514 2196.1489,-359.391"/>
</g>
<!-- Node2 -->
<g id="node3" class="node">
<title>Node2</title>
<polygon fill="none" stroke="#bfbfbf" points="1047.5,-56.5 1047.5,-75.5 1091.5,-75.5 1091.5,-56.5 1047.5,-56.5"/>
<text text-anchor="middle" x="1069.5" y="-63.5" font-family="Helvetica,sans-Serif" font-size="10.00" fill="#000000">string</text>
</g>
<!-- Node1&#45;&gt;Node2 -->
<g id="edge2" class="edge">
<title>Node1&#45;&gt;Node2</title>
<path fill="none" stroke="#191970" d="M1167.1739,-168.4397C1186.1266,-155.654 1213.8124,-132.2464 1199.5,-112 1187.9779,-95.7008 1136.3097,-81.1183 1101.6837,-72.9315"/>
<polygon fill="#191970" stroke="#191970" points="1102.0782,-69.4309 1091.5482,-70.6013 1100.5097,-76.2529 1102.0782,-69.4309"/>
</g>
<!-- Node3 -->
<g id="node4" class="node">
<title>Node3</title>
<g id="a_node4"><a xlink:href="Singleton_8hxx.html" target="_top" xlink:title="../../util/Singleton.hxx">
<polygon fill="none" stroke="#000000" points="999.5,-112.5 999.5,-131.5 1119.5,-131.5 1119.5,-112.5 999.5,-112.5"/>
<text text-anchor="middle" x="1059.5" y="-119.5" font-family="Helvetica,sans-Serif" font-size="10.00" fill="#000000">../../util/Singleton.hxx</text>
</a>
</g>
</g>
<!-- Node1&#45;&gt;Node3 -->
<g id="edge3" class="edge">
<title>Node1&#45;&gt;Node3</title>
<path fill="none" stroke="#191970" d="M1135.4748,-168.2455C1121.3592,-159.6534 1100.5737,-147.0014 1084.3101,-137.1018"/>
<polygon fill="#191970" stroke="#191970" points="1085.7034,-133.8525 1075.3415,-131.6427 1082.0637,-139.8319 1085.7034,-133.8525"/>
</g>
<!-- Node4 -->
<g id="node5" class="node">
<title>Node4</title>
<g id="a_node5"><a xlink:href="Meta_8hxx.html" target="_top" xlink:title="../../util/Meta.hxx">
<polygon fill="none" stroke="#000000" points="1277.5,-56.5 1277.5,-75.5 1375.5,-75.5 1375.5,-56.5 1277.5,-56.5"/>
<text text-anchor="middle" x="1326.5" y="-63.5" font-family="Helvetica,sans-Serif" font-size="10.00" fill="#000000">../../util/Meta.hxx</text>
</a>
</g>
</g>
<!-- Node1&#45;&gt;Node4 -->
<g id="edge4" class="edge">
<title>Node1&#45;&gt;Node4</title>
<path fill="none" stroke="#191970" d="M1166.4204,-168.4509C1196.8998,-148.9441 1266.5106,-104.3932 1303.0768,-80.9909"/>
<polygon fill="#191970" stroke="#191970" points="1305.0813,-83.8634 1311.6174,-75.5249 1301.3079,-77.9675 1305.0813,-83.8634"/>
</g>
<!-- Node9 -->
<g id="node10" class="node">
<title>Node9</title>
<polygon fill="none" stroke="#bfbfbf" points="1138,-112.5 1138,-131.5 1191,-131.5 1191,-112.5 1138,-112.5"/>
<text text-anchor="middle" x="1164.5" y="-119.5" font-family="Helvetica,sans-Serif" font-size="10.00" fill="#000000">cstddef</text>
</g>
<!-- Node1&#45;&gt;Node9 -->
<g id="edge9" class="edge">
<title>Node1&#45;&gt;Node9</title>
<path fill="none" stroke="#191970" d="M1153.7644,-168.2455C1155.4794,-160.8579 1157.8912,-150.4689 1159.9944,-141.4087"/>
<polygon fill="#191970" stroke="#191970" points="1163.4095,-142.1751 1162.2615,-131.6427 1156.5908,-140.5922 1163.4095,-142.1751"/>
</g>
<!-- Node5 -->
<g id="node6" class="node">
<title>Node5</title>
<polygon fill="none" stroke="#bfbfbf" points="1487.5,-.5 1487.5,-19.5 1547.5,-19.5 1547.5,-.5 1487.5,-.5"/>
<text text-anchor="middle" x="1517.5" y="-7.5" font-family="Helvetica,sans-Serif" font-size="10.00" fill="#000000">iostream</text>
</g>
<!-- Node4&#45;&gt;Node5 -->
<g id="edge5" class="edge">
<title>Node4&#45;&gt;Node5</title>
<path fill="none" stroke="#191970" d="M1359.3341,-56.3733C1392.049,-46.7814 1442.3299,-32.0394 1477.3896,-21.7601"/>
<polygon fill="#191970" stroke="#191970" points="1478.6843,-25.0279 1487.2956,-18.8557 1476.7148,-18.3107 1478.6843,-25.0279"/>
</g>
<!-- Node6 -->
<g id="node7" class="node">
<title>Node6</title>
<polygon fill="none" stroke="#bfbfbf" points="1293,-.5 1293,-19.5 1362,-19.5 1362,-.5 1293,-.5"/>
<text text-anchor="middle" x="1327.5" y="-7.5" font-family="Helvetica,sans-Serif" font-size="10.00" fill="#000000">type_traits</text>
</g>
<!-- Node4&#45;&gt;Node6 -->
<g id="edge6" class="edge">
<title>Node4&#45;&gt;Node6</title>
<path fill="none" stroke="#191970" d="M1326.6742,-56.2455C1326.8047,-48.9382 1326.9876,-38.6944 1327.1481,-29.7046"/>
<polygon fill="#191970" stroke="#191970" points="1330.6486,-29.7036 1327.3278,-19.6427 1323.6497,-29.5786 1330.6486,-29.7036"/>
</g>
<!-- Node7 -->
<g id="node8" class="node">
<title>Node7</title>
<polygon fill="none" stroke="#bfbfbf" points="1224,-.5 1224,-19.5 1275,-19.5 1275,-.5 1224,-.5"/>
<text text-anchor="middle" x="1249.5" y="-7.5" font-family="Helvetica,sans-Serif" font-size="10.00" fill="#000000">variant</text>
</g>
<!-- Node4&#45;&gt;Node7 -->
<g id="edge7" class="edge">
<title>Node4&#45;&gt;Node7</title>
<path fill="none" stroke="#191970" d="M1313.0876,-56.2455C1301.4943,-47.814 1284.5252,-35.4729 1271.0322,-25.6598"/>
<polygon fill="#191970" stroke="#191970" points="1272.9047,-22.6938 1262.7587,-19.6427 1268.7874,-28.355 1272.9047,-22.6938"/>
</g>
<!-- Node8 -->
<g id="node9" class="node">
<title>Node8</title>
<polygon fill="none" stroke="#bfbfbf" points="1382,-.5 1382,-19.5 1423,-19.5 1423,-.5 1382,-.5"/>
<text text-anchor="middle" x="1402.5" y="-7.5" font-family="Helvetica,sans-Serif" font-size="10.00" fill="#000000">tuple</text>
</g>
<!-- Node4&#45;&gt;Node8 -->
<g id="edge8" class="edge">
<title>Node4&#45;&gt;Node8</title>
<path fill="none" stroke="#191970" d="M1339.7382,-56.2455C1351.181,-47.814 1367.9296,-35.4729 1381.2475,-25.6598"/>
<polygon fill="#191970" stroke="#191970" points="1383.4391,-28.3924 1389.4135,-19.6427 1379.2867,-22.757 1383.4391,-28.3924"/>
</g>
<!-- Node10&#45;&gt;Node2 -->
<g id="edge11" class="edge">
<title>Node10&#45;&gt;Node2</title>
<path fill="none" stroke="#191970" d="M1671.3311,-119.4113C1566.7134,-110.1267 1210.7732,-78.5377 1101.6013,-68.8489"/>
<polygon fill="#191970" stroke="#191970" points="1101.8047,-65.3533 1091.5344,-67.9555 1101.1858,-72.3259 1101.8047,-65.3533"/>
</g>
<!-- Node10&#45;&gt;Node4 -->
<g id="edge23" class="edge">
<title>Node10&#45;&gt;Node4</title>
<path fill="none" stroke="#191970" d="M1671.4641,-117.6524C1610.3198,-108.4971 1467.2447,-87.0741 1385.8623,-74.8885"/>
<polygon fill="#191970" stroke="#191970" points="1386.178,-71.3968 1375.7699,-73.3773 1385.1413,-78.3196 1386.178,-71.3968"/>
</g>
<!-- Node10&#45;&gt;Node5 -->
<g id="edge15" class="edge">
<title>Node10&#45;&gt;Node5</title>
<path fill="none" stroke="#191970" d="M1671.1544,-114.6979C1645.7416,-107.4865 1608.73,-94.7935 1580.5,-76 1560.8449,-62.915 1542.7193,-42.6912 1531.0061,-28.0785"/>
<polygon fill="#191970" stroke="#191970" points="1533.486,-25.5659 1524.5852,-19.8191 1527.9595,-29.8623 1533.486,-25.5659"/>
</g>
<!-- Node10&#45;&gt;Node11 -->
<g id="edge12" class="edge">
<title>Node10&#45;&gt;Node11</title>
<path fill="none" stroke="#191970" d="M1729.6985,-117.9726C1797.4892,-108.6222 1966.3623,-85.3293 2053.1506,-73.3585"/>
<polygon fill="#191970" stroke="#191970" points="2053.8873,-76.7901 2063.3153,-71.9565 2052.9308,-69.8558 2053.8873,-76.7901"/>
</g>
<!-- Node14 -->
<g id="node15" class="node">
<title>Node14</title>
<polygon fill="none" stroke="#bfbfbf" points="1821.5,-56.5 1821.5,-75.5 1871.5,-75.5 1871.5,-56.5 1821.5,-56.5"/>
<text text-anchor="middle" x="1846.5" y="-63.5" font-family="Helvetica,sans-Serif" font-size="10.00" fill="#000000">chrono</text>
</g>
<!-- Node10&#45;&gt;Node14 -->
<g id="edge16" class="edge">
<title>Node10&#45;&gt;Node14</title>
<path fill="none" stroke="#191970" d="M1725.5983,-112.3733C1749.4555,-103.2226 1785.5335,-89.3844 1812.071,-79.2057"/>
<polygon fill="#191970" stroke="#191970" points="1813.6459,-82.3503 1821.7292,-75.5011 1811.139,-75.8145 1813.6459,-82.3503"/>
</g>
<!-- Node15 -->
<g id="node16" class="node">
<title>Node15</title>
<polygon fill="none" stroke="#bfbfbf" points="1889.5,-56.5 1889.5,-75.5 1933.5,-75.5 1933.5,-56.5 1889.5,-56.5"/>
<text text-anchor="middle" x="1911.5" y="-63.5" font-family="Helvetica,sans-Serif" font-size="10.00" fill="#000000">ctime</text>
</g>
<!-- Node10&#45;&gt;Node15 -->
<g id="edge17" class="edge">
<title>Node10&#45;&gt;Node15</title>
<path fill="none" stroke="#191970" d="M1729.6425,-115.1397C1763.4804,-107.0463 1821.1683,-92.8559 1879.4623,-76.1827"/>
<polygon fill="#191970" stroke="#191970" points="1880.5604,-79.5088 1889.1996,-73.3757 1878.6214,-72.7827 1880.5604,-79.5088"/>
</g>
<!-- Node16 -->
<g id="node17" class="node">
<title>Node16</title>
<polygon fill="none" stroke="#bfbfbf" points="1952,-56.5 1952,-75.5 2007,-75.5 2007,-56.5 1952,-56.5"/>
<text text-anchor="middle" x="1979.5" y="-63.5" font-family="Helvetica,sans-Serif" font-size="10.00" fill="#000000">fstream</text>
</g>
<!-- Node10&#45;&gt;Node16 -->
<g id="edge18" class="edge">
<title>Node10&#45;&gt;Node16</title>
<path fill="none" stroke="#191970" d="M1729.7051,-117.1881C1773.5998,-109.7961 1859.3689,-94.7344 1941.8925,-76.0051"/>
<polygon fill="#191970" stroke="#191970" points="1942.7109,-79.4083 1951.6767,-73.7634 1941.1476,-72.5851 1942.7109,-79.4083"/>
</g>
<!-- Node17 -->
<g id="node18" class="node">
<title>Node17</title>
<polygon fill="none" stroke="#bfbfbf" points="1589.5,-56.5 1589.5,-75.5 1645.5,-75.5 1645.5,-56.5 1589.5,-56.5"/>
<text text-anchor="middle" x="1617.5" y="-63.5" font-family="Helvetica,sans-Serif" font-size="10.00" fill="#000000">sstream</text>
</g>
<!-- Node10&#45;&gt;Node17 -->
<g id="edge19" class="edge">
<title>Node10&#45;&gt;Node17</title>
<path fill="none" stroke="#191970" d="M1686.0425,-112.2455C1673.4268,-103.7337 1654.9056,-91.2375 1640.2955,-81.3801"/>
<polygon fill="#191970" stroke="#191970" points="1642.0391,-78.3343 1631.7918,-75.6427 1638.1239,-84.1371 1642.0391,-78.3343"/>
</g>
<!-- Node18 -->
<g id="node19" class="node">
<title>Node18</title>
<polygon fill="none" stroke="#bfbfbf" points="603.5,-56.5 603.5,-75.5 647.5,-75.5 647.5,-56.5 603.5,-56.5"/>
<text text-anchor="middle" x="625.5" y="-63.5" font-family="Helvetica,sans-Serif" font-size="10.00" fill="#000000">SDL.h</text>
</g>
<!-- Node10&#45;&gt;Node18 -->
<g id="edge20" class="edge">
<title>Node10&#45;&gt;Node18</title>
<path fill="none" stroke="#191970" d="M1671.4682,-120.4876C1519.5911,-112.5759 817.4006,-75.9967 657.8235,-67.6838"/>
<polygon fill="#191970" stroke="#191970" points="657.8649,-64.1813 647.6963,-67.1563 657.5006,-71.1719 657.8649,-64.1813"/>
</g>
<!-- Node19 -->
<g id="node20" class="node">
<title>Node19</title>
<polygon fill="none" stroke="#bfbfbf" points="1469.5,-56.5 1469.5,-75.5 1533.5,-75.5 1533.5,-56.5 1469.5,-56.5"/>
<text text-anchor="middle" x="1501.5" y="-63.5" font-family="Helvetica,sans-Serif" font-size="10.00" fill="#000000">algorithm</text>
</g>
<!-- Node10&#45;&gt;Node19 -->
<g id="edge21" class="edge">
<title>Node10&#45;&gt;Node19</title>
<path fill="none" stroke="#191970" d="M1671.1369,-113.737C1637.393,-104.2412 1581.7521,-88.5835 1543.4497,-77.8049"/>
<polygon fill="#191970" stroke="#191970" points="1544.199,-74.3799 1533.6248,-75.0401 1542.3028,-81.1182 1544.199,-74.3799"/>
</g>
<!-- Node20 -->
<g id="node21" class="node">
<title>Node20</title>
<polygon fill="none" stroke="#bfbfbf" points="1663.5,-56.5 1663.5,-75.5 1711.5,-75.5 1711.5,-56.5 1663.5,-56.5"/>
<text text-anchor="middle" x="1687.5" y="-63.5" font-family="Helvetica,sans-Serif" font-size="10.00" fill="#000000">mutex</text>
</g>
<!-- Node10&#45;&gt;Node20 -->
<g id="edge22" class="edge">
<title>Node10&#45;&gt;Node20</title>
<path fill="none" stroke="#191970" d="M1698.2356,-112.2455C1696.5206,-104.8579 1694.1088,-94.4689 1692.0056,-85.4087"/>
<polygon fill="#191970" stroke="#191970" points="1695.4092,-84.5922 1689.7385,-75.6427 1688.5905,-86.1751 1695.4092,-84.5922"/>
</g>
<!-- Node21 -->
<g id="node22" class="node">
<title>Node21</title>
<g id="a_node22"><a xlink:href="LOG_8inl_8hxx.html" target="_top" xlink:title="LOG.inl.hxx">
<polygon fill="none" stroke="#000000" points="1730,-56.5 1730,-75.5 1803,-75.5 1803,-56.5 1730,-56.5"/>
<text text-anchor="middle" x="1766.5" y="-63.5" font-family="Helvetica,sans-Serif" font-size="10.00" fill="#000000">LOG.inl.hxx</text>
</a>
</g>
</g>
<!-- Node10&#45;&gt;Node21 -->
<g id="edge24" class="edge">
<title>Node10&#45;&gt;Node21</title>
<path fill="none" stroke="#191970" d="M1711.9963,-112.2455C1721.7442,-103.9746 1735.9259,-91.9416 1747.3798,-82.2232"/>
<polygon fill="#191970" stroke="#191970" points="1749.7747,-84.7813 1755.1354,-75.6427 1745.2459,-79.4437 1749.7747,-84.7813"/>
</g>
<!-- Node12 -->
<g id="node13" class="node">
<title>Node12</title>
<polygon fill="none" stroke="#bfbfbf" points="2032,-.5 2032,-19.5 2097,-19.5 2097,-.5 2032,-.5"/>
<text text-anchor="middle" x="2064.5" y="-7.5" font-family="Helvetica,sans-Serif" font-size="10.00" fill="#000000">stdexcept</text>
</g>
<!-- Node11&#45;&gt;Node12 -->
<g id="edge13" class="edge">
<title>Node11&#45;&gt;Node12</title>
<path fill="none" stroke="#191970" d="M2099.1842,-56.2455C2093.2821,-48.3761 2084.8258,-37.101 2077.7406,-27.6542"/>
<polygon fill="#191970" stroke="#191970" points="2080.5321,-25.5427 2071.732,-19.6427 2074.932,-29.7427 2080.5321,-25.5427"/>
</g>
<!-- Node13 -->
<g id="node14" class="node">
<title>Node13</title>
<polygon fill="none" stroke="#bfbfbf" points="2115,-.5 2115,-19.5 2180,-19.5 2180,-.5 2115,-.5"/>
<text text-anchor="middle" x="2147.5" y="-7.5" font-family="Helvetica,sans-Serif" font-size="10.00" fill="#000000">exception</text>
</g>
<!-- Node11&#45;&gt;Node13 -->
<g id="edge14" class="edge">
<title>Node11&#45;&gt;Node13</title>
<path fill="none" stroke="#191970" d="M2113.6417,-56.2455C2119.3444,-48.4564 2127.49,-37.3308 2134.3625,-27.9439"/>
<polygon fill="#191970" stroke="#191970" points="2137.3568,-29.7789 2140.4402,-19.6427 2131.7087,-25.6437 2137.3568,-29.7789"/>
</g>
<!-- Node23&#45;&gt;Node1 -->
<g id="edge60" class="edge">
<title>Node23&#45;&gt;Node1</title>
<path fill="none" stroke="#191970" d="M595.2062,-339.7026C653.1574,-332.8026 743.2819,-319.9793 819.5,-300 933.2077,-270.1935 1062.4986,-216.7479 1120.4892,-191.6818"/>
<polygon fill="#191970" stroke="#191970" points="1122.0446,-194.8222 1129.821,-187.6265 1119.2546,-188.4022 1122.0446,-194.8222"/>
</g>
<!-- Node24 -->
<g id="node25" class="node">
<title>Node24</title>
<polygon fill="none" stroke="#bfbfbf" points="923.5,-112.5 923.5,-131.5 981.5,-131.5 981.5,-112.5 923.5,-112.5"/>
<text text-anchor="middle" x="952.5" y="-119.5" font-family="Helvetica,sans-Serif" font-size="10.00" fill="#000000">json.hxx</text>
</g>
<!-- Node23&#45;&gt;Node24 -->
<g id="edge28" class="edge">
<title>Node23&#45;&gt;Node24</title>
<path fill="none" stroke="#191970" d="M555.2115,-336.4891C604.4303,-312.6117 736.4558,-247.7666 843.5,-188 873.4149,-171.2974 907.0281,-150.6482 928.9159,-136.9408"/>
<polygon fill="#191970" stroke="#191970" points="930.9305,-139.8086 937.5335,-131.523 927.2047,-133.8824 930.9305,-139.8086"/>
</g>
<!-- Node25 -->
<g id="node26" class="node">
<title>Node25</title>
<g id="a_node26"><a xlink:href="point_8hxx.html" target="_top" xlink:title="point.hxx">
<polygon fill="none" stroke="#000000" points="151.5,-112.5 151.5,-131.5 213.5,-131.5 213.5,-112.5 151.5,-112.5"/>
<text text-anchor="middle" x="182.5" y="-119.5" font-family="Helvetica,sans-Serif" font-size="10.00" fill="#000000">point.hxx</text>
</a>
</g>
</g>
<!-- Node23&#45;&gt;Node25 -->
<g id="edge29" class="edge">
<title>Node23&#45;&gt;Node25</title>
<path fill="none" stroke="#191970" d="M475.8631,-340.2275C390.3673,-328.3831 235.6659,-292.8555 166.5,-188 157.1109,-173.7661 163.4369,-154.5504 170.7184,-140.5246"/>
<polygon fill="#191970" stroke="#191970" points="173.8002,-142.186 175.7308,-131.7686 167.7252,-138.7084 173.8002,-142.186"/>
</g>
<!-- Node26 -->
<g id="node27" class="node">
<title>Node26</title>
<g id="a_node27"><a xlink:href="MapNode_8hxx.html" target="_top" xlink:title="GameObjects/MapNode.hxx">
<polygon fill="none" stroke="#000000" points="317.5,-224.5 317.5,-243.5 469.5,-243.5 469.5,-224.5 317.5,-224.5"/>
<text text-anchor="middle" x="393.5" y="-231.5" font-family="Helvetica,sans-Serif" font-size="10.00" fill="#000000">GameObjects/MapNode.hxx</text>
</a>
</g>
</g>
<!-- Node23&#45;&gt;Node26 -->
<g id="edge30" class="edge">
<title>Node23&#45;&gt;Node26</title>
<path fill="none" stroke="#191970" d="M523.3932,-336.4509C498.9757,-317.1921 443.608,-273.5218 413.6507,-249.8935"/>
<polygon fill="#191970" stroke="#191970" points="415.5954,-246.9697 405.5762,-243.5249 411.2604,-252.4659 415.5954,-246.9697"/>
</g>
<!-- Node37 -->
<g id="node38" class="node">
<title>Node37</title>
<g id="a_node38"><a xlink:href="TerrainGenerator_8hxx.html" target="_top" xlink:title="TerrainGenerator.hxx">
<polygon fill="none" stroke="#000000" points="0,-280.5 0,-299.5 119,-299.5 119,-280.5 0,-280.5"/>
<text text-anchor="middle" x="59.5" y="-287.5" font-family="Helvetica,sans-Serif" font-size="10.00" fill="#000000">TerrainGenerator.hxx</text>
</a>
</g>
</g>
<!-- Node23&#45;&gt;Node37 -->
<g id="edge56" class="edge">
<title>Node23&#45;&gt;Node37</title>
<path fill="none" stroke="#191970" d="M475.8584,-339.5596C397.3235,-330.9909 254.9638,-315.1548 133.5,-300 132.1975,-299.8375 130.8823,-299.6722 129.5574,-299.5046"/>
<polygon fill="#191970" stroke="#191970" points="129.6252,-295.9846 119.2608,-298.1822 128.7335,-302.9276 129.6252,-295.9846"/>
</g>
<!-- Node26&#45;&gt;Node2 -->
<g id="edge33" class="edge">
<title>Node26&#45;&gt;Node2</title>
<path fill="none" stroke="#191970" d="M469.8485,-230.3555C573.0373,-224.6185 751.0679,-211.6237 811.5,-188 864.486,-167.2871 863.576,-137.3631 914.5,-112 954.5689,-92.0434 1004.8651,-79.0999 1037.0978,-72.1762"/>
<polygon fill="#191970" stroke="#191970" points="1038.2166,-75.5185 1047.2955,-70.0575 1036.7926,-68.6649 1038.2166,-75.5185"/>
</g>
<!-- Node26&#45;&gt;Node18 -->
<g id="edge31" class="edge">
<title>Node26&#45;&gt;Node18</title>
<path fill="none" stroke="#191970" d="M395.1323,-224.3874C399.5706,-201.3032 414.0614,-142.4052 450.5,-112 472.1041,-93.973 549.1641,-78.6506 593.4896,-71.0748"/>
<polygon fill="#191970" stroke="#191970" points="594.188,-74.5067 603.4735,-69.4048 593.0331,-67.6026 594.188,-74.5067"/>
</g>
<!-- Node26&#45;&gt;Node19 -->
<g id="edge34" class="edge">
<title>Node26&#45;&gt;Node19</title>
<path fill="none" stroke="#191970" d="M469.6704,-232.7986C642.727,-229.5591 1061.1185,-218.7112 1198.5,-188 1305.0824,-164.1739 1422.7845,-107.1505 1474.5554,-80.3626"/>
<polygon fill="#191970" stroke="#191970" points="1476.4778,-83.3073 1483.7229,-75.577 1473.2384,-77.1019 1476.4778,-83.3073"/>
</g>
<!-- Node26&#45;&gt;Node25 -->
<g id="edge44" class="edge">
<title>Node26&#45;&gt;Node25</title>
<path fill="none" stroke="#191970" d="M365.3765,-224.3886C342.0623,-215.9909 308.3518,-202.8431 280.5,-188 252.4004,-173.0248 222.3462,-151.9442 203.039,-137.6682"/>
<polygon fill="#191970" stroke="#191970" points="205.0746,-134.82 194.9701,-131.6341 200.8824,-140.4259 205.0746,-134.82"/>
</g>
<!-- Node27 -->
<g id="node28" class="node">
<title>Node27</title>
<polygon fill="none" stroke="#bfbfbf" points="175.5,-168.5 175.5,-187.5 233.5,-187.5 233.5,-168.5 175.5,-168.5"/>
<text text-anchor="middle" x="204.5" y="-175.5" font-family="Helvetica,sans-Serif" font-size="10.00" fill="#000000">memory</text>
</g>
<!-- Node26&#45;&gt;Node27 -->
<g id="edge32" class="edge">
<title>Node26&#45;&gt;Node27</title>
<path fill="none" stroke="#191970" d="M361.0097,-224.3733C328.4453,-214.7245 278.2918,-199.8642 243.5743,-189.5776"/>
<polygon fill="#191970" stroke="#191970" points="244.3585,-186.1596 233.7762,-186.6744 242.3698,-192.8712 244.3585,-186.1596"/>
</g>
<!-- Node28 -->
<g id="node29" class="node">
<title>Node28</title>
<polygon fill="none" stroke="#bfbfbf" points="325,-56.5 325,-75.5 372,-75.5 372,-56.5 325,-56.5"/>
<text text-anchor="middle" x="348.5" y="-63.5" font-family="Helvetica,sans-Serif" font-size="10.00" fill="#000000">vector</text>
</g>
<!-- Node26&#45;&gt;Node28 -->
<g id="edge35" class="edge">
<title>Node26&#45;&gt;Node28</title>
<path fill="none" stroke="#191970" d="M391.8775,-224.079C389.3875,-210.6867 383.7951,-186.3862 373.5,-168 363.0413,-149.3215 349.1077,-152.0098 341.5,-132 335.8132,-117.0426 338.3563,-98.8906 341.8738,-85.4117"/>
<polygon fill="#191970" stroke="#191970" points="345.25,-86.3378 344.765,-75.7541 338.544,-84.3302 345.25,-86.3378"/>
</g>
<!-- Node29 -->
<g id="node30" class="node">
<title>Node29</title>
<g id="a_node30"><a xlink:href="Sprite_8hxx.html" target="_top" xlink:title="../Sprite.hxx">
<polygon fill="none" stroke="#000000" points="290,-168.5 290,-187.5 365,-187.5 365,-168.5 290,-168.5"/>
<text text-anchor="middle" x="327.5" y="-175.5" font-family="Helvetica,sans-Serif" font-size="10.00" fill="#000000">../Sprite.hxx</text>
</a>
</g>
</g>
<!-- Node26&#45;&gt;Node29 -->
<g id="edge36" class="edge">
<title>Node26&#45;&gt;Node29</title>
<path fill="none" stroke="#191970" d="M382.0037,-224.2455C372.2558,-215.9746 358.0741,-203.9416 346.6202,-194.2232"/>
<polygon fill="#191970" stroke="#191970" points="348.7541,-191.4437 338.8646,-187.6427 344.2253,-196.7813 348.7541,-191.4437"/>
</g>
<!-- Node30 -->
<g id="node31" class="node">
<title>Node30</title>
<g id="a_node31"><a xlink:href="enums_8hxx.html" target="_top" xlink:title="common/enums.hxx">
<polygon fill="none" stroke="#000000" points="183.5,-56.5 183.5,-75.5 299.5,-75.5 299.5,-56.5 183.5,-56.5"/>
<text text-anchor="middle" x="241.5" y="-63.5" font-family="Helvetica,sans-Serif" font-size="10.00" fill="#000000">common/enums.hxx</text>
</a>
</g>
</g>
<!-- Node26&#45;&gt;Node30 -->
<g id="edge43" class="edge">
<title>Node26&#45;&gt;Node30</title>
<path fill="none" stroke="#191970" d="M317.2657,-226.1905C260.6287,-219.0077 189.3877,-206.6192 166.5,-188 139.022,-165.6466 123.4474,-141.8616 142.5,-112 152.5203,-96.2949 169.4416,-85.8684 186.487,-78.9824"/>
<polygon fill="#191970" stroke="#191970" points="187.7496,-82.2473 195.9264,-75.51 185.3329,-75.6777 187.7496,-82.2473"/>
</g>
<!-- Node33 -->
<g id="node34" class="node">
<title>Node33</title>
<g id="a_node34"><a xlink:href="TileManager_8hxx.html" target="_top" xlink:title="../TileManager.hxx">
<polygon fill="none" stroke="#000000" points="696.5,-168.5 696.5,-187.5 802.5,-187.5 802.5,-168.5 696.5,-168.5"/>
<text text-anchor="middle" x="749.5" y="-175.5" font-family="Helvetica,sans-Serif" font-size="10.00" fill="#000000">../TileManager.hxx</text>
</a>
</g>
</g>
<!-- Node26&#45;&gt;Node33 -->
<g id="edge45" class="edge">
<title>Node26&#45;&gt;Node33</title>
<path fill="none" stroke="#191970" d="M454.2941,-224.4369C518.857,-214.2809 620.4534,-198.2995 686.0212,-187.9854"/>
<polygon fill="#191970" stroke="#191970" points="686.8892,-191.392 696.2239,-186.3805 685.8014,-184.477 686.8892,-191.392"/>
</g>
<!-- Node29&#45;&gt;Node18 -->
<g id="edge37" class="edge">
<title>Node29&#45;&gt;Node18</title>
<path fill="none" stroke="#191970" d="M337.6602,-168.2904C353.4392,-153.7683 385.3755,-126.5467 417.5,-112 476.0761,-85.4754 551.029,-73.7618 593.0949,-68.9758"/>
<polygon fill="#191970" stroke="#191970" points="593.7318,-72.4276 603.3002,-67.8783 592.9833,-65.4677 593.7318,-72.4276"/>
</g>
<!-- Node29&#45;&gt;Node25 -->
<g id="edge39" class="edge">
<title>Node29&#45;&gt;Node25</title>
<path fill="none" stroke="#191970" d="M302.5736,-168.3733C278.8798,-159.2226 243.0489,-145.3844 216.6932,-135.2057"/>
<polygon fill="#191970" stroke="#191970" points="217.6906,-131.8389 207.1011,-131.5011 215.1686,-138.3689 217.6906,-131.8389"/>
</g>
<!-- Node29&#45;&gt;Node28 -->
<g id="edge38" class="edge">
<title>Node29&#45;&gt;Node28</title>
<path fill="none" stroke="#191970" d="M319.2246,-168.0697C309.4555,-155.0749 295.4893,-131.6442 303.5,-112 308.2156,-100.4363 317.3927,-90.2008 326.2362,-82.3383"/>
<polygon fill="#191970" stroke="#191970" points="328.6496,-84.8842 334.1263,-75.8147 324.1891,-79.4894 328.6496,-84.8842"/>
</g>
<!-- Node29&#45;&gt;Node30 -->
<g id="edge40" class="edge">
<title>Node29&#45;&gt;Node30</title>
<path fill="none" stroke="#191970" d="M320.1677,-168.4509C305.7604,-149.688 273.5617,-107.7548 255.1356,-83.758"/>
<polygon fill="#191970" stroke="#191970" points="257.6801,-81.3248 248.8138,-75.5249 252.128,-85.588 257.6801,-81.3248"/>
</g>
<!-- Node31 -->
<g id="node32" class="node">
<title>Node31</title>
<polygon fill="none" stroke="#bfbfbf" points="165.5,-.5 165.5,-19.5 221.5,-19.5 221.5,-.5 165.5,-.5"/>
<text text-anchor="middle" x="193.5" y="-7.5" font-family="Helvetica,sans-Serif" font-size="10.00" fill="#000000">stddef.h</text>
</g>
<!-- Node30&#45;&gt;Node31 -->
<g id="edge41" class="edge">
<title>Node30&#45;&gt;Node31</title>
<path fill="none" stroke="#191970" d="M233.139,-56.2455C226.325,-48.2958 216.5319,-36.8706 208.3848,-27.3656"/>
<polygon fill="#191970" stroke="#191970" points="210.9305,-24.9575 201.7651,-19.6427 205.6157,-29.513 210.9305,-24.9575"/>
</g>
<!-- Node32 -->
<g id="node33" class="node">
<title>Node32</title>
<polygon fill="none" stroke="#bfbfbf" points="239.5,-.5 239.5,-19.5 339.5,-19.5 339.5,-.5 239.5,-.5"/>
<text text-anchor="middle" x="289.5" y="-7.5" font-family="Helvetica,sans-Serif" font-size="10.00" fill="#000000">betterEnums.hxx</text>
</g>
<!-- Node30&#45;&gt;Node32 -->
<g id="edge42" class="edge">
<title>Node30&#45;&gt;Node32</title>
<path fill="none" stroke="#191970" d="M249.861,-56.2455C256.675,-48.2958 266.4681,-36.8706 274.6152,-27.3656"/>
<polygon fill="#191970" stroke="#191970" points="277.3843,-29.513 281.2349,-19.6427 272.0695,-24.9575 277.3843,-29.513"/>
</g>
<!-- Node33&#45;&gt;Node2 -->
<g id="edge48" class="edge">
<title>Node33&#45;&gt;Node2</title>
<path fill="none" stroke="#191970" d="M765.6406,-168.4396C790.0055,-154.3566 837.9653,-127.9806 881.5,-112 934.6967,-92.4727 999.3921,-78.7105 1037.3503,-71.592"/>
<polygon fill="#191970" stroke="#191970" points="1038.1127,-75.0106 1047.3156,-69.7611 1036.8478,-68.1258 1038.1127,-75.0106"/>
</g>
<!-- Node33&#45;&gt;Node3 -->
<g id="edge54" class="edge">
<title>Node33&#45;&gt;Node3</title>
<path fill="none" stroke="#191970" d="M802.4387,-168.4369C856.273,-158.712 939.6761,-143.6456 996.7887,-133.3285"/>
<polygon fill="#191970" stroke="#191970" points="997.5612,-136.7457 1006.7797,-131.5237 996.3167,-129.8572 997.5612,-136.7457"/>
</g>
<!-- Node33&#45;&gt;Node18 -->
<g id="edge46" class="edge">
<title>Node33&#45;&gt;Node18</title>
<path fill="none" stroke="#191970" d="M765.9588,-168.3454C785.8472,-155.4553 814.8477,-131.9324 799.5,-112 782.3011,-89.6633 702.8997,-75.961 657.5289,-69.8185"/>
<polygon fill="#191970" stroke="#191970" points="657.9605,-66.3453 647.5914,-68.5202 657.0537,-73.2863 657.9605,-66.3453"/>
</g>
<!-- Node33&#45;&gt;Node24 -->
<g id="edge53" class="edge">
<title>Node33&#45;&gt;Node24</title>
<path fill="none" stroke="#191970" d="M784.3969,-168.3733C820.249,-158.483 875.9506,-143.1171 913.2996,-132.8139"/>
<polygon fill="#191970" stroke="#191970" points="914.6063,-136.0842 923.3155,-130.0509 912.7448,-129.3363 914.6063,-136.0842"/>
</g>
<!-- Node34 -->
<g id="node35" class="node">
<title>Node34</title>
<polygon fill="none" stroke="#bfbfbf" points="555,-112.5 555,-131.5 648,-131.5 648,-112.5 555,-112.5"/>
<text text-anchor="middle" x="601.5" y="-119.5" font-family="Helvetica,sans-Serif" font-size="10.00" fill="#000000">unordered_map</text>
</g>
<!-- Node33&#45;&gt;Node34 -->
<g id="edge47" class="edge">
<title>Node33&#45;&gt;Node34</title>
<path fill="none" stroke="#191970" d="M724.0579,-168.3733C699.7674,-159.1822 662.9792,-145.2624 636.0457,-135.0713"/>
<polygon fill="#191970" stroke="#191970" points="637.2016,-131.7666 626.6101,-131.5011 634.7243,-138.3136 637.2016,-131.7666"/>
</g>
<!-- Node35 -->
<g id="node36" class="node">
<title>Node35</title>
<g id="a_node36"><a xlink:href="tileData_8hxx.html" target="_top" xlink:title="tileData.hxx">
<polygon fill="none" stroke="#000000" points="460,-112.5 460,-131.5 537,-131.5 537,-112.5 460,-112.5"/>
<text text-anchor="middle" x="498.5" y="-119.5" font-family="Helvetica,sans-Serif" font-size="10.00" fill="#000000">tileData.hxx</text>
</a>
</g>
</g>
<!-- Node33&#45;&gt;Node35 -->
<g id="edge49" class="edge">
<title>Node33&#45;&gt;Node35</title>
<path fill="none" stroke="#191970" d="M706.6368,-168.4369C662.2854,-158.5418 593.1472,-143.1165 546.8674,-132.7911"/>
<polygon fill="#191970" stroke="#191970" points="547.5902,-129.3664 537.068,-130.6048 546.0659,-136.1984 547.5902,-129.3664"/>
</g>
<!-- Node36 -->
<g id="node37" class="node">
<title>Node36</title>
<polygon fill="none" stroke="#bfbfbf" points="666,-112.5 666,-131.5 791,-131.5 791,-112.5 666,-112.5"/>
<text text-anchor="middle" x="728.5" y="-119.5" font-family="Helvetica,sans-Serif" font-size="10.00" fill="#000000">../common/enums.hxx</text>
</g>
<!-- Node33&#45;&gt;Node36 -->
<g id="edge55" class="edge">
<title>Node33&#45;&gt;Node36</title>
<path fill="none" stroke="#191970" d="M745.8421,-168.2455C743.0416,-160.7776 739.091,-150.2427 735.6676,-141.1137"/>
<polygon fill="#191970" stroke="#191970" points="738.9045,-139.777 732.116,-131.6427 732.3501,-142.2349 738.9045,-139.777"/>
</g>
<!-- Node35&#45;&gt;Node2 -->
<g id="edge50" class="edge">
<title>Node35&#45;&gt;Node2</title>
<path fill="none" stroke="#191970" d="M537.1605,-113.3835C539.9757,-112.8763 542.7774,-112.4076 545.5,-112 730.4707,-84.3091 954.8568,-71.4833 1037.2056,-67.4609"/>
<polygon fill="#191970" stroke="#191970" points="1037.601,-70.9461 1047.4221,-66.9718 1037.2662,-63.9541 1037.601,-70.9461"/>
</g>
<!-- Node35&#45;&gt;Node28 -->
<g id="edge51" class="edge">
<title>Node35&#45;&gt;Node28</title>
<path fill="none" stroke="#191970" d="M472.7141,-112.3733C447.6477,-103.0151 409.45,-88.7547 382.0336,-78.5192"/>
<polygon fill="#191970" stroke="#191970" points="383.0575,-75.1656 372.465,-74.9469 380.6092,-81.7235 383.0575,-75.1656"/>
</g>
<!-- Node35&#45;&gt;Node30 -->
<g id="edge52" class="edge">
<title>Node35&#45;&gt;Node30</title>
<path fill="none" stroke="#191970" d="M459.7462,-113.5556C415.9297,-104.008 344.3066,-88.4014 295.1377,-77.6876"/>
<polygon fill="#191970" stroke="#191970" points="295.8275,-74.2558 285.3116,-75.5465 294.3371,-81.0954 295.8275,-74.2558"/>
</g>
<!-- Node37&#45;&gt;Node26 -->
<g id="edge57" class="edge">
<title>Node37&#45;&gt;Node26</title>
<path fill="none" stroke="#191970" d="M116.5371,-280.4369C174.7794,-270.6717 265.1442,-255.5207 326.6966,-245.2006"/>
<polygon fill="#191970" stroke="#191970" points="327.4145,-248.6291 336.6981,-243.5237 326.257,-241.7255 327.4145,-248.6291"/>
</g>
<!-- Node37&#45;&gt;Node28 -->
<g id="edge59" class="edge">
<title>Node37&#45;&gt;Node28</title>
<path fill="none" stroke="#191970" d="M60.9356,-280.4577C65.9783,-250.4528 85.755,-157.3288 142.5,-112 201.484,-64.8826 234.9827,-93.157 308.5,-76 310.6523,-75.4977 312.8672,-74.9711 315.0984,-74.4334"/>
<polygon fill="#191970" stroke="#191970" points="315.9613,-77.8256 324.8405,-72.0455 314.2948,-71.0269 315.9613,-77.8256"/>
</g>
<!-- Node38 -->
<g id="node39" class="node">
<title>Node38</title>
<polygon fill="none" stroke="#bfbfbf" points="5.5,-224.5 5.5,-243.5 43.5,-243.5 43.5,-224.5 5.5,-224.5"/>
<text text-anchor="middle" x="24.5" y="-231.5" font-family="Helvetica,sans-Serif" font-size="10.00" fill="#000000">map</text>
</g>
<!-- Node37&#45;&gt;Node38 -->
<g id="edge58" class="edge">
<title>Node37&#45;&gt;Node38</title>
<path fill="none" stroke="#191970" d="M53.4035,-280.2455C48.5855,-272.5367 41.7249,-261.5598 35.8968,-252.2348"/>
<polygon fill="#191970" stroke="#191970" points="38.7947,-250.2677 30.5267,-243.6427 32.8587,-253.9777 38.7947,-250.2677"/>
</g>
<!-- Node39&#45;&gt;Node2 -->
<g id="edge63" class="edge">
<title>Node39&#45;&gt;Node2</title>
<path fill="none" stroke="#191970" d="M1346.7183,-336.4832C1318.7856,-321.2104 1267.064,-288.3785 1243.5,-244 1215.3751,-191.0318 1255.8186,-156.3965 1215.5,-112 1200.1896,-95.1411 1139.9416,-80.2382 1101.7878,-72.2286"/>
<polygon fill="#191970" stroke="#191970" points="1102.1669,-68.7337 1091.668,-70.1563 1100.7626,-75.5914 1102.1669,-68.7337"/>
</g>
<!-- Node39&#45;&gt;Node28 -->
<g id="edge64" class="edge">
<title>Node39&#45;&gt;Node28</title>
<path fill="none" stroke="#191970" d="M1320.4565,-341.0637C1184.3941,-324.9942 767.5034,-267.2122 450.5,-132 419.7418,-118.8806 387.9608,-96.6981 368.2204,-81.7096"/>
<polygon fill="#191970" stroke="#191970" points="370.3428,-78.9264 360.29,-75.5808 366.0623,-84.4652 370.3428,-78.9264"/>
</g>
<!-- Node40 -->
<g id="node41" class="node">
<title>Node40</title>
<polygon fill="none" stroke="#bfbfbf" points="1442.5,-280.5 1442.5,-299.5 1496.5,-299.5 1496.5,-280.5 1442.5,-280.5"/>
<text text-anchor="middle" x="1469.5" y="-287.5" font-family="Helvetica,sans-Serif" font-size="10.00" fill="#000000">ciso646</text>
</g>
<!-- Node39&#45;&gt;Node40 -->
<g id="edge62" class="edge">
<title>Node39&#45;&gt;Node40</title>
<path fill="none" stroke="#191970" d="M1383.6154,-336.2455C1399.945,-327.4527 1424.171,-314.4079 1442.7339,-304.4125"/>
<polygon fill="#191970" stroke="#191970" points="1444.4468,-307.4654 1451.5922,-299.6427 1441.1281,-301.3021 1444.4468,-307.4654"/>
</g>
<!-- Node41 -->
<g id="node42" class="node">
<title>Node41</title>
<g id="a_node42"><a xlink:href="PixelBuffer_8hxx.html" target="_top" xlink:title="../util/PixelBuffer.hxx">
<polygon fill="none" stroke="#000000" points="1306.5,-280.5 1306.5,-299.5 1424.5,-299.5 1424.5,-280.5 1306.5,-280.5"/>
<text text-anchor="middle" x="1365.5" y="-287.5" font-family="Helvetica,sans-Serif" font-size="10.00" fill="#000000">../util/PixelBuffer.hxx</text>
</a>
</g>
</g>
<!-- Node39&#45;&gt;Node41 -->
<g id="edge65" class="edge">
<title>Node39&#45;&gt;Node41</title>
<path fill="none" stroke="#191970" d="M1365.5,-336.2455C1365.5,-328.9382 1365.5,-318.6944 1365.5,-309.7046"/>
<polygon fill="#191970" stroke="#191970" points="1369.0001,-309.6426 1365.5,-299.6427 1362.0001,-309.6427 1369.0001,-309.6426"/>
</g>
<!-- Node41&#45;&gt;Node28 -->
<g id="edge66" class="edge">
<title>Node41&#45;&gt;Node28</title>
<path fill="none" stroke="#191970" d="M1311.3538,-280.4952C1287.7687,-273.8515 1261.4679,-262.6793 1243.5,-244 1200.6293,-199.4321 1248.6728,-149.4998 1199.5,-112 1191.2248,-105.6892 539.6657,-74.9168 382.3858,-67.575"/>
<polygon fill="#191970" stroke="#191970" points="382.4932,-64.0763 372.341,-67.1066 382.1671,-71.0687 382.4932,-64.0763"/>
</g>
<!-- Node42 -->
<g id="node43" class="node">
<title>Node42</title>
<g id="a_node43"><a xlink:href="Rectangle_8hxx.html" target="_top" xlink:title="../util/Rectangle.hxx">
<polygon fill="none" stroke="#000000" points="1599,-224.5 1599,-243.5 1712,-243.5 1712,-224.5 1599,-224.5"/>
<text text-anchor="middle" x="1655.5" y="-231.5" font-family="Helvetica,sans-Serif" font-size="10.00" fill="#000000">../util/Rectangle.hxx</text>
</a>
</g>
</g>
<!-- Node41&#45;&gt;Node42 -->
<g id="edge67" class="edge">
<title>Node41&#45;&gt;Node42</title>
<path fill="none" stroke="#191970" d="M1415.0233,-280.4369C1465.1759,-270.7522 1542.761,-255.7703 1596.1697,-245.4569"/>
<polygon fill="#191970" stroke="#191970" points="1597.026,-248.8563 1606.181,-243.5237 1595.6987,-241.9832 1597.026,-248.8563"/>
</g>
<!-- Node45 -->
<g id="node46" class="node">
<title>Node45</title>
<g id="a_node46"><a xlink:href="Range_8hxx.html" target="_top" xlink:title="../util/Range.hxx">
<polygon fill="none" stroke="#ff0000" points="1376.5,-224.5 1376.5,-243.5 1472.5,-243.5 1472.5,-224.5 1376.5,-224.5"/>
<text text-anchor="middle" x="1424.5" y="-231.5" font-family="Helvetica,sans-Serif" font-size="10.00" fill="#000000">../util/Range.hxx</text>
</a>
</g>
</g>
<!-- Node41&#45;&gt;Node45 -->
<g id="edge74" class="edge">
<title>Node41&#45;&gt;Node45</title>
<path fill="none" stroke="#191970" d="M1375.777,-280.2455C1384.3218,-272.1352 1396.6778,-260.4075 1406.8085,-250.7919"/>
<polygon fill="#191970" stroke="#191970" points="1409.4972,-253.0655 1414.3408,-243.6427 1404.6782,-247.9884 1409.4972,-253.0655"/>
</g>
<!-- Node48 -->
<g id="node48" class="node">
<title>Node48</title>
<g id="a_node48"><a xlink:href="Color_8hxx.html" target="_top" xlink:title="../util/Color.hxx">
<polygon fill="none" stroke="#ff0000" points="1490.5,-224.5 1490.5,-243.5 1580.5,-243.5 1580.5,-224.5 1490.5,-224.5"/>
<text text-anchor="middle" x="1535.5" y="-231.5" font-family="Helvetica,sans-Serif" font-size="10.00" fill="#000000">../util/Color.hxx</text>
</a>
</g>
</g>
<!-- Node41&#45;&gt;Node48 -->
<g id="edge77" class="edge">
<title>Node41&#45;&gt;Node48</title>
<path fill="none" stroke="#191970" d="M1394.724,-280.3733C1422.9925,-271.0613 1465.9965,-256.8953 1497.0344,-246.671"/>
<polygon fill="#191970" stroke="#191970" points="1498.2544,-249.9542 1506.6573,-243.5011 1496.0643,-243.3056 1498.2544,-249.9542"/>
</g>
<!-- Node50 -->
<g id="node49" class="node">
<title>Node50</title>
<g id="a_node49"><a xlink:href="PixelBuffer_8inl_8hxx.html" target="_top" xlink:title="PixelBuffer.inl.hxx">
<polygon fill="none" stroke="#000000" points="1253,-224.5 1253,-243.5 1358,-243.5 1358,-224.5 1253,-224.5"/>
<text text-anchor="middle" x="1305.5" y="-231.5" font-family="Helvetica,sans-Serif" font-size="10.00" fill="#000000">PixelBuffer.inl.hxx</text>
</a>
</g>
</g>
<!-- Node41&#45;&gt;Node50 -->
<g id="edge79" class="edge">
<title>Node41&#45;&gt;Node50</title>
<path fill="none" stroke="#191970" d="M1355.0488,-280.2455C1346.2731,-272.0549 1333.5446,-260.1749 1323.186,-250.5069"/>
<polygon fill="#191970" stroke="#191970" points="1325.5301,-247.9072 1315.8314,-243.6427 1320.7539,-253.0246 1325.5301,-247.9072"/>
</g>
<!-- Node42&#45;&gt;Node5 -->
<g id="edge69" class="edge">
<title>Node42&#45;&gt;Node5</title>
<path fill="none" stroke="#191970" d="M1712.2059,-227.0939C1835.5151,-209.9746 2109.6935,-159.295 2015.5,-56 1984.8597,-22.3991 1670.8754,-12.9869 1557.8028,-10.676"/>
<polygon fill="#191970" stroke="#191970" points="1557.5705,-7.1709 1547.5038,-10.474 1557.4332,-14.1696 1557.5705,-7.1709"/>
</g>
<!-- Node42&#45;&gt;Node8 -->
<g id="edge68" class="edge">
<title>Node42&#45;&gt;Node8</title>
<path fill="none" stroke="#191970" d="M1615.2058,-224.4856C1590.7347,-217.3075 1559.8252,-205.6284 1536.5,-188 1476.9568,-142.9993 1431.0466,-64.7132 1412.0447,-28.8825"/>
<polygon fill="#191970" stroke="#191970" points="1414.9317,-26.8473 1407.217,-19.5856 1408.7194,-30.0734 1414.9317,-26.8473"/>
</g>
<!-- Node43 -->
<g id="node44" class="node">
<title>Node43</title>
<g id="a_node44"><a xlink:href="iShape_8hxx.html" target="_top" xlink:title="../util/iShape.hxx">
<polygon fill="none" stroke="#000000" points="1545.5,-168.5 1545.5,-187.5 1643.5,-187.5 1643.5,-168.5 1545.5,-168.5"/>
<text text-anchor="middle" x="1594.5" y="-175.5" font-family="Helvetica,sans-Serif" font-size="10.00" fill="#000000">../util/iShape.hxx</text>
</a>
</g>
</g>
<!-- Node42&#45;&gt;Node43 -->
<g id="edge70" class="edge">
<title>Node42&#45;&gt;Node43</title>
<path fill="none" stroke="#191970" d="M1644.8746,-224.2455C1635.9527,-216.0549 1623.012,-204.1749 1612.4808,-194.5069"/>
<polygon fill="#191970" stroke="#191970" points="1614.7371,-191.8271 1605.0036,-187.6427 1610.0032,-196.9837 1614.7371,-191.8271"/>
</g>
<!-- Node44 -->
<g id="node45" class="node">
<title>Node44</title>
<g id="a_node45"><a xlink:href="Rectangle_8inl_8hxx.html" target="_top" xlink:title="Rectangle.inl.hxx">
<polygon fill="none" stroke="#000000" points="1662,-168.5 1662,-187.5 1763,-187.5 1763,-168.5 1662,-168.5"/>
<text text-anchor="middle" x="1712.5" y="-175.5" font-family="Helvetica,sans-Serif" font-size="10.00" fill="#000000">Rectangle.inl.hxx</text>
</a>
</g>
</g>
<!-- Node42&#45;&gt;Node44 -->
<g id="edge71" class="edge">
<title>Node42&#45;&gt;Node44</title>
<path fill="none" stroke="#191970" d="M1665.4286,-224.2455C1673.6838,-216.1352 1685.6209,-204.4075 1695.4082,-194.7919"/>
<polygon fill="#191970" stroke="#191970" points="1698.0046,-197.1476 1702.6851,-187.6427 1693.0989,-192.1542 1698.0046,-197.1476"/>
</g>
<!-- Node44&#45;&gt;Node10 -->
<g id="edge73" class="edge">
<title>Node44&#45;&gt;Node10</title>
<path fill="none" stroke="#191970" d="M1710.4098,-168.2455C1708.8439,-160.9382 1706.6488,-150.6944 1704.7224,-141.7046"/>
<polygon fill="#191970" stroke="#191970" points="1708.084,-140.6873 1702.5663,-131.6427 1701.2393,-142.1541 1708.084,-140.6873"/>
</g>
<!-- Node44&#45;&gt;Node19 -->
<g id="edge72" class="edge">
<title>Node44&#45;&gt;Node19</title>
<path fill="none" stroke="#191970" d="M1694.5103,-168.4509C1657.3715,-148.7375 1572.0466,-103.4465 1528.3541,-80.2543"/>
<polygon fill="#191970" stroke="#191970" points="1529.918,-77.122 1519.4442,-75.5249 1526.636,-83.3049 1529.918,-77.122"/>
</g>
<!-- Node45&#45;&gt;Node4 -->
<g id="edge76" class="edge">
<title>Node45&#45;&gt;Node4</title>
<path fill="none" stroke="#191970" d="M1415.9045,-224.1849C1408.213,-215.1431 1396.8896,-201.1724 1388.5,-188 1376.7404,-169.5363 1349.7858,-114.4408 1335.6045,-85.0167"/>
<polygon fill="#191970" stroke="#191970" points="1338.6529,-83.2793 1331.167,-75.7817 1332.3435,-86.311 1338.6529,-83.2793"/>
</g>
<!-- Node46 -->
<g id="node47" class="node">
<title>Node46</title>
<polygon fill="none" stroke="#bfbfbf" points="1398,-168.5 1398,-187.5 1451,-187.5 1451,-168.5 1398,-168.5"/>
<text text-anchor="middle" x="1424.5" y="-175.5" font-family="Helvetica,sans-Serif" font-size="10.00" fill="#000000">iterator</text>
</g>
<!-- Node45&#45;&gt;Node46 -->
<g id="edge75" class="edge">
<title>Node45&#45;&gt;Node46</title>
<path fill="none" stroke="#191970" d="M1424.5,-224.2455C1424.5,-216.9382 1424.5,-206.6944 1424.5,-197.7046"/>
<polygon fill="#191970" stroke="#191970" points="1428.0001,-197.6426 1424.5,-187.6427 1421.0001,-197.6427 1428.0001,-197.6426"/>
</g>
<!-- Node48&#45;&gt;Node5 -->
<g id="edge78" class="edge">
<title>Node48&#45;&gt;Node5</title>
<path fill="none" stroke="#191970" d="M1528.9291,-224.2197C1513.2694,-200.2487 1474.0474,-136.1319 1460.5,-76 1458.5463,-67.3285 1456.6665,-64.0198 1460.5,-56 1466.6448,-43.1449 1478.3299,-32.7306 1489.5285,-25.0832"/>
<polygon fill="#191970" stroke="#191970" points="1491.7041,-27.8488 1498.29,-19.5495 1487.9661,-21.9304 1491.7041,-27.8488"/>
</g>
</g>
</svg>
