<?xml version="1.0" encoding="UTF-8" standalone="no"?>
<!DOCTYPE svg PUBLIC "-//W3C//DTD SVG 1.1//EN"
 "http://www.w3.org/Graphics/SVG/1.1/DTD/svg11.dtd">
<!-- Generated by graphviz version 2.40.1 (20161225.0304)
 -->
<!-- Title: src/engine/basics/Settings.hxx Pages: 1 -->
<svg width="3471pt" height="151pt"
 viewBox="0.00 0.00 3471.00 151.00" xmlns="http://www.w3.org/2000/svg" xmlns:xlink="http://www.w3.org/1999/xlink">
<g id="graph0" class="graph" transform="scale(1 1) rotate(0) translate(4 147)">
<title>src/engine/basics/Settings.hxx</title>
<!-- Node9 -->
<g id="node1" class="node">
<title>Node9</title>
<polygon fill="#bfbfbf" stroke="#000000" points="1587.5,-123.5 1587.5,-142.5 1751.5,-142.5 1751.5,-123.5 1587.5,-123.5"/>
<text text-anchor="middle" x="1669.5" y="-130.5" font-family="Helvetica,sans-Serif" font-size="10.00" fill="#000000">src/engine/basics/Settings.hxx</text>
</g>
<!-- Node10 -->
<g id="node2" class="node">
<title>Node10</title>
<g id="a_node2"><a xlink:href="Soundtrack_8cxx.html" target="_top" xlink:title="src/engine/audio/Soundtrack.cxx">
<polygon fill="none" stroke="#000000" points="0,-62 0,-81 175,-81 175,-62 0,-62"/>
<text text-anchor="middle" x="87.5" y="-69" font-family="Helvetica,sans-Serif" font-size="10.00" fill="#000000">src/engine/audio/Soundtrack.cxx</text>
</a>
</g>
</g>
<!-- Node9&#45;&gt;Node10 -->
<g id="edge1" class="edge">
<title>Node9&#45;&gt;Node10</title>
<path fill="none" stroke="#191970" d="M1577.1167,-131.6822C1296.5041,-127.4352 456.6935,-112.8569 184.5,-87 169.7296,-85.5969 153.7955,-83.3573 139.1947,-81.0118"/>
<polygon fill="#191970" stroke="#191970" points="1577.2101,-135.1839 1587.2617,-131.8349 1577.3156,-128.1847 1577.2101,-135.1839"/>
</g>
<!-- Node11 -->
<g id="node3" class="node">
<title>Node11</title>
<g id="a_node3"><a xlink:href="Camera_8cxx.html" target="_top" xlink:title="src/engine/basics/Camera.cxx">
<polygon fill="none" stroke="#000000" points="193.5,-62 193.5,-81 355.5,-81 355.5,-62 193.5,-62"/>
<text text-anchor="middle" x="274.5" y="-69" font-family="Helvetica,sans-Serif" font-size="10.00" fill="#000000">src/engine/basics/Camera.cxx</text>
</a>
</g>
</g>
<!-- Node9&#45;&gt;Node11 -->
<g id="edge2" class="edge">
<title>Node9&#45;&gt;Node11</title>
<path fill="none" stroke="#191970" d="M1577.3657,-131.3755C1320.5489,-126.5884 600.105,-111.3277 364.5,-87 350.9368,-85.5995 336.3295,-83.3907 322.9103,-81.0748"/>
<polygon fill="#191970" stroke="#191970" points="1577.3449,-134.8756 1587.4081,-131.5617 1577.4748,-127.8768 1577.3449,-134.8756"/>
</g>
<!-- Node12 -->
<g id="node4" class="node">
<title>Node12</title>
<g id="a_node4"><a xlink:href="GameStates_8cxx.html" target="_top" xlink:title="src/engine/basics/GameStates.cxx">
<polygon fill="none" stroke="#000000" points="373.5,-62 373.5,-81 557.5,-81 557.5,-62 373.5,-62"/>
<text text-anchor="middle" x="465.5" y="-69" font-family="Helvetica,sans-Serif" font-size="10.00" fill="#000000">src/engine/basics/GameStates.cxx</text>
</a>
</g>
</g>
<!-- Node9&#45;&gt;Node12 -->
<g id="edge3" class="edge">
<title>Node9&#45;&gt;Node12</title>
<path fill="none" stroke="#191970" d="M1577.1661,-130.4663C1348.7289,-123.9853 761.5341,-105.9737 566.5,-87 551.4036,-85.5314 535.125,-83.3148 520.1378,-81.0137"/>
<polygon fill="#191970" stroke="#191970" points="1577.347,-133.9727 1587.4419,-130.7569 1577.5449,-126.9755 1577.347,-133.9727"/>
</g>
<!-- Node13 -->
<g id="node5" class="node">
<title>Node13</title>
<g id="a_node5"><a xlink:href="isoMath_8cxx.html" target="_top" xlink:title="src/engine/basics/isoMath.cxx">
<polygon fill="none" stroke="#000000" points="575.5,-62 575.5,-81 737.5,-81 737.5,-62 575.5,-62"/>
<text text-anchor="middle" x="656.5" y="-69" font-family="Helvetica,sans-Serif" font-size="10.00" fill="#000000">src/engine/basics/isoMath.cxx</text>
</a>
</g>
</g>
<!-- Node9&#45;&gt;Node13 -->
<g id="edge4" class="edge">
<title>Node9&#45;&gt;Node13</title>
<path fill="none" stroke="#191970" d="M1577.1243,-131.7784C1411.322,-128.8277 1052.4451,-118.9897 751.5,-87 737.5413,-85.5162 722.5147,-83.3373 708.6239,-81.0793"/>
<polygon fill="#191970" stroke="#191970" points="1577.2231,-135.2806 1587.2824,-131.9548 1577.3447,-128.2816 1577.2231,-135.2806"/>
</g>
<!-- Node14 -->
<g id="node6" class="node">
<title>Node14</title>
<g id="a_node6"><a xlink:href="Settings_8cxx.html" target="_top" xlink:title="src/engine/basics/Settings.cxx">
<polygon fill="none" stroke="#000000" points="403.5,-.5 403.5,-19.5 567.5,-19.5 567.5,-.5 403.5,-.5"/>
<text text-anchor="middle" x="485.5" y="-7.5" font-family="Helvetica,sans-Serif" font-size="10.00" fill="#000000">src/engine/basics/Settings.cxx</text>
</a>
</g>
</g>
<!-- Node9&#45;&gt;Node14 -->
<g id="edge5" class="edge">
<title>Node9&#45;&gt;Node14</title>
<path fill="none" stroke="#191970" d="M1577.0886,-131.4445C1365.1923,-127.4135 856.9262,-114.9343 784.5,-87 764.1642,-79.1566 766.3174,-65.0737 746.5,-56 714.8628,-41.5145 629.5025,-28.0885 564.944,-19.5265"/>
<polygon fill="#191970" stroke="#191970" points="1577.1936,-134.947 1587.2577,-131.6358 1577.3253,-127.9483 1577.1936,-134.947"/>
</g>
<!-- Node15 -->
<g id="node7" class="node">
<title>Node15</title>
<g id="a_node7"><a xlink:href="JsonSerialization_8hxx.html" target="_top" xlink:title="src/engine/common/JsonSerialization.hxx">
<polygon fill="none" stroke="#000000" points="793.5,-62 793.5,-81 1011.5,-81 1011.5,-62 793.5,-62"/>
<text text-anchor="middle" x="902.5" y="-69" font-family="Helvetica,sans-Serif" font-size="10.00" fill="#000000">src/engine/common/JsonSerialization.hxx</text>
</a>
</g>
</g>
<!-- Node9&#45;&gt;Node15 -->
<g id="edge6" class="edge">
<title>Node9&#45;&gt;Node15</title>
<path fill="none" stroke="#191970" d="M1576.9819,-127.9667C1451.7712,-120.7952 1221.4759,-106.333 1025.5,-87 1008.3647,-85.3096 989.9273,-83.162 972.6749,-81.0081"/>
<polygon fill="#191970" stroke="#191970" points="1577.1066,-131.4794 1587.2896,-128.5542 1577.505,-124.4908 1577.1066,-131.4794"/>
</g>
<!-- Node17 -->
<g id="node9" class="node">
<title>Node17</title>
<g id="a_node9"><a xlink:href="Map_8cxx.html" target="_top" xlink:title="src/engine/Map.cxx">
<polygon fill="none" stroke="#000000" points="1001.5,-.5 1001.5,-19.5 1111.5,-19.5 1111.5,-.5 1001.5,-.5"/>
<text text-anchor="middle" x="1056.5" y="-7.5" font-family="Helvetica,sans-Serif" font-size="10.00" fill="#000000">src/engine/Map.cxx</text>
</a>
</g>
</g>
<!-- Node9&#45;&gt;Node17 -->
<g id="edge15" class="edge">
<title>Node9&#45;&gt;Node17</title>
<path fill="none" stroke="#191970" d="M1576.793,-131.0309C1422.2064,-126.9637 1124.8643,-115.5048 1086.5,-87 1064.7347,-70.8283 1058.7555,-36.5656 1057.1165,-19.7389"/>
<polygon fill="#191970" stroke="#191970" points="1577.1309,-134.5406 1587.2178,-131.2996 1577.3114,-127.543 1577.1309,-134.5406"/>
</g>
<!-- Node18 -->
<g id="node10" class="node">
<title>Node18</title>
<g id="a_node10"><a xlink:href="AudioMixer_8cxx.html" target="_top" xlink:title="src/services/AudioMixer.cxx">
<polygon fill="none" stroke="#000000" points="1129.5,-.5 1129.5,-19.5 1281.5,-19.5 1281.5,-.5 1129.5,-.5"/>
<text text-anchor="middle" x="1205.5" y="-7.5" font-family="Helvetica,sans-Serif" font-size="10.00" fill="#000000">src/services/AudioMixer.cxx</text>
</a>
</g>
</g>
<!-- Node9&#45;&gt;Node18 -->
<g id="edge25" class="edge">
<title>Node9&#45;&gt;Node18</title>
<path fill="none" stroke="#191970" d="M1577.2181,-128.8219C1419.5224,-121.2313 1113.5116,-104.3509 1097.5,-87 1088.1563,-76.8747 1089.9026,-67.4938 1097.5,-56 1109.8618,-37.2984 1131.5403,-26.1755 1152.2467,-19.5712"/>
<polygon fill="#191970" stroke="#191970" points="1577.2302,-132.3264 1587.3861,-129.3084 1577.5648,-125.3344 1577.2302,-132.3264"/>
</g>
<!-- Node20 -->
<g id="node12" class="node">
<title>Node20</title>
<g id="a_node12"><a xlink:href="Engine_8cxx.html" target="_top" xlink:title="src/engine/Engine.cxx">
<polygon fill="none" stroke="#000000" points="1106,-62 1106,-81 1229,-81 1229,-62 1106,-62"/>
<text text-anchor="middle" x="1167.5" y="-69" font-family="Helvetica,sans-Serif" font-size="10.00" fill="#000000">src/engine/Engine.cxx</text>
</a>
</g>
</g>
<!-- Node9&#45;&gt;Node20 -->
<g id="edge12" class="edge">
<title>Node9&#45;&gt;Node20</title>
<path fill="none" stroke="#191970" d="M1577.1522,-126.0649C1489.6158,-118.8019 1354.6119,-105.8134 1238.5,-87 1228.412,-85.3655 1217.5998,-83.2135 1207.5317,-81.0353"/>
<polygon fill="#191970" stroke="#191970" points="1577.0695,-129.5698 1587.3226,-126.9006 1577.6429,-122.5933 1577.0695,-129.5698"/>
</g>
<!-- Node21 -->
<g id="node13" class="node">
<title>Node21</title>
<g id="a_node13"><a xlink:href="EventManager_8cxx.html" target="_top" xlink:title="src/engine/EventManager.cxx">
<polygon fill="none" stroke="#000000" points="1247,-62 1247,-81 1406,-81 1406,-62 1247,-62"/>
<text text-anchor="middle" x="1326.5" y="-69" font-family="Helvetica,sans-Serif" font-size="10.00" fill="#000000">src/engine/EventManager.cxx</text>
</a>
</g>
</g>
<!-- Node9&#45;&gt;Node21 -->
<g id="edge13" class="edge">
<title>Node9&#45;&gt;Node21</title>
<path fill="none" stroke="#191970" d="M1606.1396,-121.6395C1540.9887,-109.9579 1440.6678,-91.9703 1379.56,-81.0137"/>
<polygon fill="#191970" stroke="#191970" points="1605.8218,-125.1382 1616.2826,-123.4581 1607.0573,-118.2481 1605.8218,-125.1382"/>
</g>
<!-- Node22 -->
<g id="node14" class="node">
<title>Node22</title>
<g id="a_node14"><a xlink:href="MapNode_8cxx.html" target="_top" xlink:title="src/engine/GameObjects\l/MapNode.cxx">
<polygon fill="none" stroke="#000000" points="1424.5,-56.5 1424.5,-86.5 1560.5,-86.5 1560.5,-56.5 1424.5,-56.5"/>
<text text-anchor="start" x="1432.5" y="-74.5" font-family="Helvetica,sans-Serif" font-size="10.00" fill="#000000">src/engine/GameObjects</text>
<text text-anchor="middle" x="1492.5" y="-63.5" font-family="Helvetica,sans-Serif" font-size="10.00" fill="#000000">/MapNode.cxx</text>
</a>
</g>
</g>
<!-- Node9&#45;&gt;Node22 -->
<g id="edge14" class="edge">
<title>Node9&#45;&gt;Node22</title>
<path fill="none" stroke="#191970" d="M1632.3529,-120.0929C1604.1768,-110.303 1565.3824,-96.8235 1535.7991,-86.5446"/>
<polygon fill="#191970" stroke="#191970" points="1631.2489,-123.4146 1641.8438,-123.3906 1633.5465,-116.8023 1631.2489,-123.4146"/>
</g>
<!-- Node23 -->
<g id="node15" class="node">
<title>Node23</title>
<g id="a_node15"><a xlink:href="ResourcesManager_8cxx.html" target="_top" xlink:title="src/engine/ResourcesManager.cxx">
<polygon fill="none" stroke="#000000" points="1579,-62 1579,-81 1760,-81 1760,-62 1579,-62"/>
<text text-anchor="middle" x="1669.5" y="-69" font-family="Helvetica,sans-Serif" font-size="10.00" fill="#000000">src/engine/ResourcesManager.cxx</text>
</a>
</g>
</g>
<!-- Node9&#45;&gt;Node23 -->
<g id="edge16" class="edge">
<title>Node9&#45;&gt;Node23</title>
<path fill="none" stroke="#191970" d="M1669.5,-113.2462C1669.5,-102.5519 1669.5,-89.814 1669.5,-81.2449"/>
<polygon fill="#191970" stroke="#191970" points="1666.0001,-113.3906 1669.5,-123.3906 1673.0001,-113.3907 1666.0001,-113.3906"/>
</g>
<!-- Node24 -->
<g id="node16" class="node">
<title>Node24</title>
<g id="a_node16"><a xlink:href="Sprite_8cxx.html" target="_top" xlink:title="src/engine/Sprite.cxx">
<polygon fill="none" stroke="#000000" points="1778,-62 1778,-81 1897,-81 1897,-62 1778,-62"/>
<text text-anchor="middle" x="1837.5" y="-69" font-family="Helvetica,sans-Serif" font-size="10.00" fill="#000000">src/engine/Sprite.cxx</text>
</a>
</g>
</g>
<!-- Node9&#45;&gt;Node24 -->
<g id="edge17" class="edge">
<title>Node9&#45;&gt;Node24</title>
<path fill="none" stroke="#191970" d="M1705.1477,-119.9504C1736.9962,-108.2916 1782.9063,-91.4852 1811.4343,-81.0419"/>
<polygon fill="#191970" stroke="#191970" points="1703.9374,-116.6662 1695.75,-123.3906 1706.3438,-123.2396 1703.9374,-116.6662"/>
</g>
<!-- Node25 -->
<g id="node17" class="node">
<title>Node25</title>
<g id="a_node17"><a xlink:href="TileManager_8cxx.html" target="_top" xlink:title="src/engine/TileManager.cxx">
<polygon fill="none" stroke="#000000" points="1915,-62 1915,-81 2064,-81 2064,-62 1915,-62"/>
<text text-anchor="middle" x="1989.5" y="-69" font-family="Helvetica,sans-Serif" font-size="10.00" fill="#000000">src/engine/TileManager.cxx</text>
</a>
</g>
</g>
<!-- Node9&#45;&gt;Node25 -->
<g id="edge18" class="edge">
<title>Node9&#45;&gt;Node25</title>
<path fill="none" stroke="#191970" d="M1728.9873,-121.5673C1789.7789,-109.8839 1883.1051,-91.9478 1939.9979,-81.0137"/>
<polygon fill="#191970" stroke="#191970" points="1728.3086,-118.1336 1719.1489,-123.4581 1729.6298,-125.0078 1728.3086,-118.1336"/>
</g>
<!-- Node26 -->
<g id="node18" class="node">
<title>Node26</title>
<g id="a_node18"><a xlink:href="Layout_8cxx.html" target="_top" xlink:title="src/engine/ui/basics\l/Layout.cxx">
<polygon fill="none" stroke="#000000" points="2082,-56.5 2082,-86.5 2195,-86.5 2195,-56.5 2082,-56.5"/>
<text text-anchor="start" x="2090" y="-74.5" font-family="Helvetica,sans-Serif" font-size="10.00" fill="#000000">src/engine/ui/basics</text>
<text text-anchor="middle" x="2138.5" y="-63.5" font-family="Helvetica,sans-Serif" font-size="10.00" fill="#000000">/Layout.cxx</text>
</a>
</g>
</g>
<!-- Node9&#45;&gt;Node26 -->
<g id="edge19" class="edge">
<title>Node9&#45;&gt;Node26</title>
<path fill="none" stroke="#191970" d="M1761.6137,-125.7014C1843.7952,-118.4331 1967.2077,-105.6544 2073.5,-87 2076.2424,-86.5187 2079.0418,-85.9914 2081.8636,-85.431"/>
<polygon fill="#191970" stroke="#191970" points="1761.2068,-122.2236 1751.55,-126.5822 1761.8171,-129.1969 1761.2068,-122.2236"/>
</g>
<!-- Node27 -->
<g id="node19" class="node">
<title>Node27</title>
<g id="a_node19"><a xlink:href="UIElement_8cxx.html" target="_top" xlink:title="src/engine/ui/basics\l/UIElement.cxx">
<polygon fill="none" stroke="#000000" points="2213,-56.5 2213,-86.5 2326,-86.5 2326,-56.5 2213,-56.5"/>
<text text-anchor="start" x="2221" y="-74.5" font-family="Helvetica,sans-Serif" font-size="10.00" fill="#000000">src/engine/ui/basics</text>
<text text-anchor="middle" x="2269.5" y="-63.5" font-family="Helvetica,sans-Serif" font-size="10.00" fill="#000000">/UIElement.cxx</text>
</a>
</g>
</g>
<!-- Node9&#45;&gt;Node27 -->
<g id="edge20" class="edge">
<title>Node9&#45;&gt;Node27</title>
<path fill="none" stroke="#191970" d="M1761.6569,-129.2331C1868.6748,-123.8994 2050.2552,-111.8809 2204.5,-87 2207.2487,-86.5566 2210.0534,-86.0601 2212.8793,-85.5244"/>
<polygon fill="#191970" stroke="#191970" points="1761.3534,-125.7437 1751.5365,-129.7286 1761.6957,-132.7353 1761.3534,-125.7437"/>
</g>
<!-- Node28 -->
<g id="node20" class="node">
<title>Node28</title>
<g id="a_node20"><a xlink:href="Text_8cxx.html" target="_top" xlink:title="src/engine/ui/widgets\l/Text.cxx">
<polygon fill="none" stroke="#000000" points="2344.5,-56.5 2344.5,-86.5 2464.5,-86.5 2464.5,-56.5 2344.5,-56.5"/>
<text text-anchor="start" x="2352.5" y="-74.5" font-family="Helvetica,sans-Serif" font-size="10.00" fill="#000000">src/engine/ui/widgets</text>
<text text-anchor="middle" x="2404.5" y="-63.5" font-family="Helvetica,sans-Serif" font-size="10.00" fill="#000000">/Text.cxx</text>
</a>
</g>
</g>
<!-- Node9&#45;&gt;Node28 -->
<g id="edge21" class="edge">
<title>Node9&#45;&gt;Node28</title>
<path fill="none" stroke="#191970" d="M1761.9269,-131.0486C1890.9613,-127.3188 2132.1376,-116.6886 2335.5,-87 2338.4157,-86.5743 2341.3912,-86.0923 2344.3896,-85.5681"/>
<polygon fill="#191970" stroke="#191970" points="1761.5909,-127.5566 1751.6933,-131.3367 1761.7879,-134.5538 1761.5909,-127.5566"/>
</g>
<!-- Node29 -->
<g id="node21" class="node">
<title>Node29</title>
<g id="a_node21"><a xlink:href="UIManager_8cxx.html" target="_top" xlink:title="src/engine/UIManager.cxx">
<polygon fill="none" stroke="#000000" points="2482.5,-62 2482.5,-81 2624.5,-81 2624.5,-62 2482.5,-62"/>
<text text-anchor="middle" x="2553.5" y="-69" font-family="Helvetica,sans-Serif" font-size="10.00" fill="#000000">src/engine/UIManager.cxx</text>
</a>
</g>
</g>
<!-- Node9&#45;&gt;Node29 -->
<g id="edge22" class="edge">
<title>Node9&#45;&gt;Node29</title>
<path fill="none" stroke="#191970" d="M1761.7992,-131.7397C1911.6671,-128.7923 2217.0135,-119.0374 2473.5,-87 2485.4324,-85.5095 2498.2605,-83.3 2510.074,-81.0133"/>
<polygon fill="#191970" stroke="#191970" points="1761.6486,-128.2418 1751.7173,-131.9323 1761.7824,-135.2406 1761.6486,-128.2418"/>
</g>
<!-- Node30 -->
<g id="node22" class="node">
<title>Node30</title>
<g id="a_node22"><a xlink:href="WindowManager_8cxx.html" target="_top" xlink:title="src/engine/WindowManager.cxx">
<polygon fill="none" stroke="#000000" points="2642.5,-62 2642.5,-81 2812.5,-81 2812.5,-62 2642.5,-62"/>
<text text-anchor="middle" x="2727.5" y="-69" font-family="Helvetica,sans-Serif" font-size="10.00" fill="#000000">src/engine/WindowManager.cxx</text>
</a>
</g>
</g>
<!-- Node9&#45;&gt;Node30 -->
<g id="edge23" class="edge">
<title>Node9&#45;&gt;Node30</title>
<path fill="none" stroke="#191970" d="M1761.6545,-132.1466C1933.5391,-129.7689 2314.5303,-120.7936 2633.5,-87 2647.4806,-85.5188 2662.5402,-83.3124 2676.421,-81.0257"/>
<polygon fill="#191970" stroke="#191970" points="1761.5857,-128.6471 1751.6336,-132.281 1761.6796,-135.6465 1761.5857,-128.6471"/>
</g>
<!-- Node31 -->
<g id="node23" class="node">
<title>Node31</title>
<g id="a_node23"><a xlink:href="Game_8cxx.html" target="_top" xlink:title="src/Game.cxx">
<polygon fill="none" stroke="#000000" points="2831,-62 2831,-81 2914,-81 2914,-62 2831,-62"/>
<text text-anchor="middle" x="2872.5" y="-69" font-family="Helvetica,sans-Serif" font-size="10.00" fill="#000000">src/Game.cxx</text>
</a>
</g>
</g>
<!-- Node9&#45;&gt;Node31 -->
<g id="edge24" class="edge">
<title>Node9&#45;&gt;Node31</title>
<path fill="none" stroke="#191970" d="M1761.9636,-132.3445C1998.007,-130.1842 2618.5243,-121.3158 2821.5,-87 2829.5296,-85.6425 2838.0653,-83.3867 2845.8102,-81.0107"/>
<polygon fill="#191970" stroke="#191970" points="1761.6621,-128.847 1751.6939,-132.4365 1761.7249,-135.8467 1761.6621,-128.847"/>
</g>
<!-- Node32 -->
<g id="node24" class="node">
<title>Node32</title>
<g id="a_node24"><a xlink:href="android_2Filesystem_8cxx.html" target="_top" xlink:title="src/util/android/Filesystem.cxx">
<polygon fill="none" stroke="#000000" points="2932,-62 2932,-81 3097,-81 3097,-62 2932,-62"/>
<text text-anchor="middle" x="3014.5" y="-69" font-family="Helvetica,sans-Serif" font-size="10.00" fill="#000000">src/util/android/Filesystem.cxx</text>
</a>
</g>
</g>
<!-- Node9&#45;&gt;Node32 -->
<g id="edge26" class="edge">
<title>Node9&#45;&gt;Node32</title>
<path fill="none" stroke="#191970" d="M1761.9291,-131.1947C2012.0157,-126.0566 2698.2669,-110.2105 2923.5,-87 2937.2099,-85.5872 2951.9782,-83.3744 2965.5465,-81.0585"/>
<polygon fill="#191970" stroke="#191970" points="1761.7095,-127.6983 1751.7832,-131.4022 1761.8527,-134.6969 1761.7095,-127.6983"/>
</g>
<!-- Node33 -->
<g id="node25" class="node">
<title>Node33</title>
<g id="a_node25"><a xlink:href="desktop_2Filesystem_8cxx.html" target="_top" xlink:title="src/util/desktop/Filesystem.cxx">
<polygon fill="none" stroke="#000000" points="3115,-62 3115,-81 3282,-81 3282,-62 3115,-62"/>
<text text-anchor="middle" x="3198.5" y="-69" font-family="Helvetica,sans-Serif" font-size="10.00" fill="#000000">src/util/desktop/Filesystem.cxx</text>
</a>
</g>
</g>
<!-- Node9&#45;&gt;Node33 -->
<g id="edge27" class="edge">
<title>Node9&#45;&gt;Node33</title>
<path fill="none" stroke="#191970" d="M1762.1812,-131.6689C2036.9505,-127.4634 2844.2675,-113.1668 3106.5,-87 3120.522,-85.6008 3135.6389,-83.3625 3149.487,-81.017"/>
<polygon fill="#191970" stroke="#191970" points="1761.7938,-128.1743 1751.8483,-131.8262 1761.9004,-135.1735 1761.7938,-128.1743"/>
</g>
<!-- Node34 -->
<g id="node26" class="node">
<title>Node34</title>
<g id="a_node26"><a xlink:href="macOS_2Filesystem_8cxx.html" target="_top" xlink:title="src/util/macOS/Filesystem.cxx">
<polygon fill="none" stroke="#000000" points="3300,-62 3300,-81 3463,-81 3463,-62 3300,-62"/>
<text text-anchor="middle" x="3381.5" y="-69" font-family="Helvetica,sans-Serif" font-size="10.00" fill="#000000">src/util/macOS/Filesystem.cxx</text>
</a>
</g>
</g>
<!-- Node9&#45;&gt;Node34 -->
<g id="edge28" class="edge">
<title>Node9&#45;&gt;Node34</title>
<path fill="none" stroke="#191970" d="M1762.0851,-132.1068C2059.9653,-128.9604 2991.6113,-116.9229 3291.5,-87 3305.2257,-85.6304 3320.0167,-83.4016 3333.5636,-81.0557"/>
<polygon fill="#191970" stroke="#191970" points="1761.7208,-128.6104 1751.758,-132.215 1761.7942,-135.61 1761.7208,-128.6104"/>
</g>
<!-- Node15&#45;&gt;Node14 -->
<g id="edge7" class="edge">
<title>Node15&#45;&gt;Node14</title>
<path fill="none" stroke="#191970" d="M827.901,-60.498C748.7778,-48.8287 625.0631,-30.583 550.0074,-19.5137"/>
<polygon fill="#191970" stroke="#191970" points="827.3976,-63.9615 837.8013,-61.9581 828.419,-57.0364 827.3976,-63.9615"/>
</g>
<!-- Node16 -->
<g id="node8" class="node">
<title>Node16</title>
<g id="a_node8"><a xlink:href="TerrainGenerator_8cxx.html" target="_top" xlink:title="src/engine/map/TerrainGenerator.cxx">
<polygon fill="none" stroke="#000000" points="787.5,-.5 787.5,-19.5 983.5,-19.5 983.5,-.5 787.5,-.5"/>
<text text-anchor="middle" x="885.5" y="-7.5" font-family="Helvetica,sans-Serif" font-size="10.00" fill="#000000">src/engine/map/TerrainGenerator.cxx</text>
</a>
</g>
</g>
<!-- Node15&#45;&gt;Node16 -->
<g id="edge8" class="edge">
<title>Node15&#45;&gt;Node16</title>
<path fill="none" stroke="#191970" d="M897.1328,-52.0832C894.1577,-41.3205 890.5873,-28.4042 888.1937,-19.7449"/>
<polygon fill="#191970" stroke="#191970" points="893.8059,-53.1846 899.8438,-61.8906 900.5529,-51.3195 893.8059,-53.1846"/>
</g>
<!-- Node15&#45;&gt;Node17 -->
<g id="edge9" class="edge">
<title>Node15&#45;&gt;Node17</title>
<path fill="none" stroke="#191970" d="M935.935,-58.1477C965.0959,-46.5023 1006.6812,-29.8952 1032.6065,-19.5419"/>
<polygon fill="#191970" stroke="#191970" points="934.5513,-54.9315 926.5625,-61.8906 937.1474,-61.4323 934.5513,-54.9315"/>
</g>
<!-- Node15&#45;&gt;Node18 -->
<g id="edge10" class="edge">
<title>Node15&#45;&gt;Node18</title>
<path fill="none" stroke="#191970" d="M959.5256,-59.9255C1017.0128,-48.2573 1104.7029,-30.4588 1158.3784,-19.5643"/>
<polygon fill="#191970" stroke="#191970" points="958.6152,-56.5388 949.5113,-61.9581 960.0077,-63.3989 958.6152,-56.5388"/>
</g>
<!-- Node19 -->
<g id="node11" class="node">
<title>Node19</title>
<g id="a_node11"><a xlink:href="ResourceManager_8cxx.html" target="_top" xlink:title="src/services/ResourceManager.cxx">
<polygon fill="none" stroke="#000000" points="586,-.5 586,-19.5 769,-19.5 769,-.5 586,-.5"/>
<text text-anchor="middle" x="677.5" y="-7.5" font-family="Helvetica,sans-Serif" font-size="10.00" fill="#000000">src/services/ResourceManager.cxx</text>
</a>
</g>
</g>
<!-- Node15&#45;&gt;Node19 -->
<g id="edge11" class="edge">
<title>Node15&#45;&gt;Node19</title>
<path fill="none" stroke="#191970" d="M857.4886,-59.1969C814.7644,-47.5189 751.44,-30.2103 712.4094,-19.5419"/>
<polygon fill="#191970" stroke="#191970" points="856.7748,-62.6301 867.3438,-61.8906 858.6204,-55.8778 856.7748,-62.6301"/>
</g>
</g>
</svg>
