<?xml version="1.0" encoding="UTF-8" standalone="no"?>
<!DOCTYPE svg PUBLIC "-//W3C//DTD SVG 1.1//EN"
 "http://www.w3.org/Graphics/SVG/1.1/DTD/svg11.dtd">
<!-- Generated by graphviz version 2.40.1 (20161225.0304)
 -->
<!-- Title: src/engine/Sprite.cxx Pages: 1 -->
<!--zoomable 308 -->
<svg id="main" version="1.1" xmlns="http://www.w3.org/2000/svg" xmlns:xlink="http://www.w3.org/1999/xlink" xml:space="preserve" onload="init(evt)">
<style type="text/css"><![CDATA[
.edge:hover path { stroke: red; }
.edge:hover polygon { stroke: red; fill: red; }
]]></style>
<script type="text/javascript"><![CDATA[
var edges = document.getElementsByTagName('g');
if (edges && edges.length) {
  for (var i=0;i<edges.length;i++) {
    if (edges[i].id.substr(0,4)=='edge') {
      edges[i].setAttribute('class','edge');
    }
  }
}
]]></script>
        <defs>
                <circle id="rim" cx="0" cy="0" r="7"/>
                <circle id="rim2" cx="0" cy="0" r="3.5"/>
                <g id="zoomPlus">
                        <use xlink:href="#rim" fill="#404040">
                                <set attributeName="fill" to="#808080" begin="zoomplus.mouseover" end="zoomplus.mouseout"/>
                        </use>
                        <path d="M-4,0h8M0,-4v8" fill="none" stroke="white" stroke-width="1.5" pointer-events="none"/>
                </g>
                <g id="zoomMin">
                        <use xlink:href="#rim" fill="#404040">
                                <set attributeName="fill" to="#808080" begin="zoomminus.mouseover" end="zoomminus.mouseout"/>
                        </use>
                        <path d="M-4,0h8" fill="none" stroke="white" stroke-width="1.5" pointer-events="none"/>
                </g>
                <g id="dirArrow">
                        <path fill="none" stroke="white" stroke-width="1.5" d="M0,-3.0v7 M-2.5,-0.5L0,-3.0L2.5,-0.5"/>
                </g>
               <g id="resetDef">
                       <use xlink:href="#rim2" fill="#404040">
                               <set attributeName="fill" to="#808080" begin="reset.mouseover" end="reset.mouseout"/>
                       </use>
               </g>
        </defs>

<script type="text/javascript">
var viewWidth = 2075;
var viewHeight = 308;
var sectionId = 'dynsection-0';
</script>
<script xlink:href="svgpan.js"/>
<svg id="graph" class="graph">
<g id="viewport">
<title>src/engine/Sprite.cxx</title>
<!-- Node0 -->
<g id="node1" class="node">
<title>Node0</title>
<polygon fill="#bfbfbf" stroke="#000000" points="469.5,-280.5 469.5,-299.5 588.5,-299.5 588.5,-280.5 469.5,-280.5"/>
<text text-anchor="middle" x="529" y="-287.5" font-family="Helvetica,sans-Serif" font-size="10.00" fill="#000000">src/engine/Sprite.cxx</text>
</g>
<!-- Node1 -->
<g id="node2" class="node">
<title>Node1</title>
<g id="a_node2"><a xlink:href="Sprite_8hxx.html" target="_top" xlink:title="Sprite.hxx">
<polygon fill="none" stroke="#000000" points="201,-168.5 201,-187.5 267,-187.5 267,-168.5 201,-168.5"/>
<text text-anchor="middle" x="234" y="-175.5" font-family="Helvetica,sans-Serif" font-size="10.00" fill="#000000">Sprite.hxx</text>
</a>
</g>
</g>
<!-- Node0&#45;&gt;Node1 -->
<g id="edge1" class="edge">
<title>Node0&#45;&gt;Node1</title>
<path fill="none" stroke="#191970" d="M503.8485,-280.4509C451.0538,-260.4069 328.6111,-213.9202 268.521,-191.1063"/>
<polygon fill="#191970" stroke="#191970" points="269.6791,-187.8022 259.0879,-187.5249 267.1945,-194.3465 269.6791,-187.8022"/>
</g>
<!-- Node5 -->
<g id="node6" class="node">
<title>Node5</title>
<g id="a_node6"><a xlink:href="enums_8hxx.html" target="_top" xlink:title="common/enums.hxx">
<polygon fill="none" stroke="#000000" points="18,-56.5 18,-75.5 134,-75.5 134,-56.5 18,-56.5"/>
<text text-anchor="middle" x="76" y="-63.5" font-family="Helvetica,sans-Serif" font-size="10.00" fill="#000000">common/enums.hxx</text>
</a>
</g>
</g>
<!-- Node0&#45;&gt;Node5 -->
<g id="edge40" class="edge">
<title>Node0&#45;&gt;Node5</title>
<path fill="none" stroke="#191970" d="M469.4727,-284.3788C415.9909,-278.1823 335.8256,-266.0333 269,-244 162.9135,-209.0218 102.8109,-226.969 44,-132 34.1362,-116.0718 46.1792,-96.6527 58.2069,-83.016"/>
<polygon fill="#191970" stroke="#191970" points="60.7795,-85.3897 65.1212,-75.7253 55.7003,-80.5728 60.7795,-85.3897"/>
</g>
<!-- Node8 -->
<g id="node9" class="node">
<title>Node8</title>
<g id="a_node9"><a xlink:href="ResourcesManager_8hxx.html" target="_top" xlink:title="ResourcesManager.hxx">
<polygon fill="none" stroke="#000000" points="525,-224.5 525,-243.5 653,-243.5 653,-224.5 525,-224.5"/>
<text text-anchor="middle" x="589" y="-231.5" font-family="Helvetica,sans-Serif" font-size="10.00" fill="#000000">ResourcesManager.hxx</text>
</a>
</g>
</g>
<!-- Node0&#45;&gt;Node8 -->
<g id="edge8" class="edge">
<title>Node0&#45;&gt;Node8</title>
<path fill="none" stroke="#191970" d="M539.4512,-280.2455C548.2269,-272.0549 560.9554,-260.1749 571.314,-250.5069"/>
<polygon fill="#191970" stroke="#191970" points="573.7461,-253.0246 578.6686,-243.6427 568.9699,-247.9072 573.7461,-253.0246"/>
</g>
<!-- Node17 -->
<g id="node18" class="node">
<title>Node17</title>
<g id="a_node18"><a xlink:href="WindowManager_8hxx.html" target="_top" xlink:title="WindowManager.hxx">
<polygon fill="none" stroke="#000000" points="930,-168.5 930,-187.5 1048,-187.5 1048,-168.5 930,-168.5"/>
<text text-anchor="middle" x="989" y="-175.5" font-family="Helvetica,sans-Serif" font-size="10.00" fill="#000000">WindowManager.hxx</text>
</a>
</g>
</g>
<!-- Node0&#45;&gt;Node17 -->
<g id="edge23" class="edge">
<title>Node0&#45;&gt;Node17</title>
<path fill="none" stroke="#191970" d="M568.2193,-280.4509C651.9861,-260.0556 848.1964,-212.2826 940.0064,-189.9289"/>
<polygon fill="#191970" stroke="#191970" points="940.9918,-193.2913 949.8799,-187.5249 939.3358,-186.49 940.9918,-193.2913"/>
</g>
<!-- Node18 -->
<g id="node19" class="node">
<title>Node18</title>
<g id="a_node19"><a xlink:href="Camera_8hxx.html" target="_top" xlink:title="basics/Camera.hxx">
<polygon fill="none" stroke="#000000" points="285,-168.5 285,-187.5 395,-187.5 395,-168.5 285,-168.5"/>
<text text-anchor="middle" x="340" y="-175.5" font-family="Helvetica,sans-Serif" font-size="10.00" fill="#000000">basics/Camera.hxx</text>
</a>
</g>
</g>
<!-- Node0&#45;&gt;Node18 -->
<g id="edge29" class="edge">
<title>Node0&#45;&gt;Node18</title>
<path fill="none" stroke="#191970" d="M512.886,-280.4509C479.8287,-260.8615 404.1507,-216.0152 364.797,-192.6945"/>
<polygon fill="#191970" stroke="#191970" points="366.4605,-189.6119 356.0732,-187.5249 362.8919,-195.634 366.4605,-189.6119"/>
</g>
<!-- Node19 -->
<g id="node20" class="node">
<title>Node19</title>
<g id="a_node20"><a xlink:href="isoMath_8hxx.html" target="_top" xlink:title="basics/isoMath.hxx">
<polygon fill="none" stroke="#000000" points="413,-168.5 413,-187.5 523,-187.5 523,-168.5 413,-168.5"/>
<text text-anchor="middle" x="468" y="-175.5" font-family="Helvetica,sans-Serif" font-size="10.00" fill="#000000">basics/isoMath.hxx</text>
</a>
</g>
</g>
<!-- Node0&#45;&gt;Node19 -->
<g id="edge32" class="edge">
<title>Node0&#45;&gt;Node19</title>
<path fill="none" stroke="#191970" d="M523.7992,-280.4509C513.6701,-261.8533 491.1429,-220.4919 478.0195,-196.3964"/>
<polygon fill="#191970" stroke="#191970" points="481.0444,-194.6328 473.1877,-187.5249 474.8971,-197.9809 481.0444,-194.6328"/>
</g>
<!-- Node21 -->
<g id="node22" class="node">
<title>Node21</title>
<g id="a_node22"><a xlink:href="MapLayers_8hxx.html" target="_top" xlink:title="map/MapLayers.hxx">
<polygon fill="none" stroke="#000000" points="61.5,-112.5 61.5,-131.5 176.5,-131.5 176.5,-112.5 61.5,-112.5"/>
<text text-anchor="middle" x="119" y="-119.5" font-family="Helvetica,sans-Serif" font-size="10.00" fill="#000000">map/MapLayers.hxx</text>
</a>
</g>
</g>
<!-- Node0&#45;&gt;Node21 -->
<g id="edge37" class="edge">
<title>Node0&#45;&gt;Node21</title>
<path fill="none" stroke="#191970" d="M469.2905,-280.6547C399.156,-267.7706 281.0843,-240.0066 192,-188 169.5906,-174.9176 148.0775,-154.1285 134.2843,-139.3813"/>
<polygon fill="#191970" stroke="#191970" points="136.7836,-136.9276 127.459,-131.8973 131.6114,-141.6445 136.7836,-136.9276"/>
</g>
<!-- Node22 -->
<g id="node23" class="node">
<title>Node22</title>
<g id="a_node23"><a xlink:href="LOG_8hxx.html" target="_top" xlink:title="LOG.hxx">
<polygon fill="none" stroke="#000000" points="1510,-168.5 1510,-187.5 1568,-187.5 1568,-168.5 1510,-168.5"/>
<text text-anchor="middle" x="1539" y="-175.5" font-family="Helvetica,sans-Serif" font-size="10.00" fill="#000000">LOG.hxx</text>
</a>
</g>
</g>
<!-- Node0&#45;&gt;Node22 -->
<g id="edge41" class="edge">
<title>Node0&#45;&gt;Node22</title>
<path fill="none" stroke="#191970" d="M588.7819,-283.3707C775.6072,-262.6535 1345.23,-199.4874 1499.8945,-182.3365"/>
<polygon fill="#191970" stroke="#191970" points="1500.3355,-185.8091 1509.8888,-181.2282 1499.5639,-178.8517 1500.3355,-185.8091"/>
</g>
<!-- Node23 -->
<g id="node24" class="node">
<title>Node23</title>
<g id="a_node24"><a xlink:href="Exception_8hxx.html" target="_top" xlink:title="Exception.hxx">
<polygon fill="none" stroke="#000000" points="1950,-112.5 1950,-131.5 2036,-131.5 2036,-112.5 1950,-112.5"/>
<text text-anchor="middle" x="1993" y="-119.5" font-family="Helvetica,sans-Serif" font-size="10.00" fill="#000000">Exception.hxx</text>
</a>
</g>
</g>
<!-- Node0&#45;&gt;Node23 -->
<g id="edge60" class="edge">
<title>Node0&#45;&gt;Node23</title>
<path fill="none" stroke="#191970" d="M588.5324,-285.5503C748.6871,-273.2891 1201.969,-236.6714 1577,-188 1735.991,-167.3662 1778.0069,-160.1989 1939.5841,-132.2044"/>
<polygon fill="#191970" stroke="#191970" points="1940.6368,-135.5743 1949.8925,-130.4184 1939.4417,-128.677 1940.6368,-135.5743"/>
</g>
<!-- Node36 -->
<g id="node37" class="node">
<title>Node36</title>
<g id="a_node37"><a xlink:href="Settings_8hxx.html" target="_top" xlink:title="Settings.hxx">
<polygon fill="none" stroke="#000000" points="1198.5,-168.5 1198.5,-187.5 1275.5,-187.5 1275.5,-168.5 1198.5,-168.5"/>
<text text-anchor="middle" x="1237" y="-175.5" font-family="Helvetica,sans-Serif" font-size="10.00" fill="#000000">Settings.hxx</text>
</a>
</g>
</g>
<!-- Node0&#45;&gt;Node36 -->
<g id="edge61" class="edge">
<title>Node0&#45;&gt;Node36</title>
<path fill="none" stroke="#191970" d="M588.7101,-281.3551C703.977,-264.522 965.1045,-225.6844 1184,-188 1185.4419,-187.7518 1186.9052,-187.4966 1188.3819,-187.2362"/>
<polygon fill="#191970" stroke="#191970" points="1189.0171,-190.6782 1198.2386,-185.4616 1187.7766,-183.789 1189.0171,-190.6782"/>
</g>
<!-- Node2 -->
<g id="node3" class="node">
<title>Node2</title>
<polygon fill="none" stroke="#bfbfbf" points="385,-112.5 385,-131.5 429,-131.5 429,-112.5 385,-112.5"/>
<text text-anchor="middle" x="407" y="-119.5" font-family="Helvetica,sans-Serif" font-size="10.00" fill="#000000">SDL.h</text>
</g>
<!-- Node1&#45;&gt;Node2 -->
<g id="edge2" class="edge">
<title>Node1&#45;&gt;Node2</title>
<path fill="none" stroke="#191970" d="M263.7398,-168.3733C294.7735,-158.3276 343.2591,-142.6329 375.0812,-132.3321"/>
<polygon fill="#191970" stroke="#191970" points="376.3482,-135.6008 384.7843,-129.1912 374.1924,-128.941 376.3482,-135.6008"/>
</g>
<!-- Node3 -->
<g id="node4" class="node">
<title>Node3</title>
<polygon fill="none" stroke="#bfbfbf" points="333.5,-56.5 333.5,-75.5 380.5,-75.5 380.5,-56.5 333.5,-56.5"/>
<text text-anchor="middle" x="357" y="-63.5" font-family="Helvetica,sans-Serif" font-size="10.00" fill="#000000">vector</text>
</g>
<!-- Node1&#45;&gt;Node3 -->
<g id="edge3" class="edge">
<title>Node1&#45;&gt;Node3</title>
<path fill="none" stroke="#191970" d="M228.6794,-168.4956C221.7583,-154.7179 211.898,-128.9911 224,-112 235.7397,-95.5176 287.9728,-81.1057 323.3803,-72.9859"/>
<polygon fill="#191970" stroke="#191970" points="324.3205,-76.3622 333.3188,-70.7693 322.7967,-69.5301 324.3205,-76.3622"/>
</g>
<!-- Node4 -->
<g id="node5" class="node">
<title>Node4</title>
<g id="a_node5"><a xlink:href="point_8hxx.html" target="_top" xlink:title="basics/point.hxx">
<polygon fill="none" stroke="#000000" points="233,-112.5 233,-131.5 329,-131.5 329,-112.5 233,-112.5"/>
<text text-anchor="middle" x="281" y="-119.5" font-family="Helvetica,sans-Serif" font-size="10.00" fill="#000000">basics/point.hxx</text>
</a>
</g>
</g>
<!-- Node1&#45;&gt;Node4 -->
<g id="edge4" class="edge">
<title>Node1&#45;&gt;Node4</title>
<path fill="none" stroke="#191970" d="M242.1868,-168.2455C248.8589,-160.2958 258.4479,-148.8706 266.4253,-139.3656"/>
<polygon fill="#191970" stroke="#191970" points="269.1592,-141.5525 272.907,-131.6427 263.7974,-137.0524 269.1592,-141.5525"/>
</g>
<!-- Node1&#45;&gt;Node5 -->
<g id="edge5" class="edge">
<title>Node1&#45;&gt;Node5</title>
<path fill="none" stroke="#191970" d="M200.9556,-174.461C153.5985,-168.6306 70.1214,-155.2713 52,-132 40.9579,-117.8198 50.5893,-98.0872 60.7473,-83.898"/>
<polygon fill="#191970" stroke="#191970" points="63.6025,-85.9274 66.9601,-75.8787 58.0689,-81.6403 63.6025,-85.9274"/>
</g>
<!-- Node6 -->
<g id="node7" class="node">
<title>Node6</title>
<polygon fill="none" stroke="#bfbfbf" points="0,-.5 0,-19.5 56,-19.5 56,-.5 0,-.5"/>
<text text-anchor="middle" x="28" y="-7.5" font-family="Helvetica,sans-Serif" font-size="10.00" fill="#000000">stddef.h</text>
</g>
<!-- Node5&#45;&gt;Node6 -->
<g id="edge6" class="edge">
<title>Node5&#45;&gt;Node6</title>
<path fill="none" stroke="#191970" d="M67.639,-56.2455C60.825,-48.2958 51.0319,-36.8706 42.8848,-27.3656"/>
<polygon fill="#191970" stroke="#191970" points="45.4305,-24.9575 36.2651,-19.6427 40.1157,-29.513 45.4305,-24.9575"/>
</g>
<!-- Node7 -->
<g id="node8" class="node">
<title>Node7</title>
<polygon fill="none" stroke="#bfbfbf" points="74,-.5 74,-19.5 174,-19.5 174,-.5 74,-.5"/>
<text text-anchor="middle" x="124" y="-7.5" font-family="Helvetica,sans-Serif" font-size="10.00" fill="#000000">betterEnums.hxx</text>
</g>
<!-- Node5&#45;&gt;Node7 -->
<g id="edge7" class="edge">
<title>Node5&#45;&gt;Node7</title>
<path fill="none" stroke="#191970" d="M84.361,-56.2455C91.175,-48.2958 100.9681,-36.8706 109.1152,-27.3656"/>
<polygon fill="#191970" stroke="#191970" points="111.8843,-29.513 115.7349,-19.6427 106.5695,-24.9575 111.8843,-29.513"/>
</g>
<!-- Node8&#45;&gt;Node2 -->
<g id="edge11" class="edge">
<title>Node8&#45;&gt;Node2</title>
<path fill="none" stroke="#191970" d="M582.8362,-224.1045C573.4839,-209.8395 554.4067,-183.5118 532,-168 524.0399,-162.4893 473.0013,-144.5031 438.6524,-132.722"/>
<polygon fill="#191970" stroke="#191970" points="439.6204,-129.3541 429.0258,-129.4325 437.3569,-135.978 439.6204,-129.3541"/>
</g>
<!-- Node9 -->
<g id="node10" class="node">
<title>Node9</title>
<polygon fill="none" stroke="#bfbfbf" points="1210,-56.5 1210,-75.5 1270,-75.5 1270,-56.5 1210,-56.5"/>
<text text-anchor="middle" x="1240" y="-63.5" font-family="Helvetica,sans-Serif" font-size="10.00" fill="#000000">iostream</text>
</g>
<!-- Node8&#45;&gt;Node9 -->
<g id="edge9" class="edge">
<title>Node8&#45;&gt;Node9</title>
<path fill="none" stroke="#191970" d="M653.0218,-231.5477C763.2972,-226.6876 984.2464,-213.9806 1057,-188 1124.0536,-164.0549 1190.5164,-110.2647 1221.6732,-82.8117"/>
<polygon fill="#191970" stroke="#191970" points="1224.3765,-85.0895 1229.496,-75.8136 1219.7094,-79.8724 1224.3765,-85.0895"/>
</g>
<!-- Node10 -->
<g id="node11" class="node">
<title>Node10</title>
<polygon fill="none" stroke="#bfbfbf" points="447.5,-112.5 447.5,-131.5 540.5,-131.5 540.5,-112.5 447.5,-112.5"/>
<text text-anchor="middle" x="494" y="-119.5" font-family="Helvetica,sans-Serif" font-size="10.00" fill="#000000">unordered_map</text>
</g>
<!-- Node8&#45;&gt;Node10 -->
<g id="edge10" class="edge">
<title>Node8&#45;&gt;Node10</title>
<path fill="none" stroke="#191970" d="M587.4381,-224.0813C584.8398,-210.2551 578.5167,-184.9793 565,-168 554.446,-154.7424 538.9838,-144.0914 525.1812,-136.3904"/>
<polygon fill="#191970" stroke="#191970" points="526.4496,-133.1025 515.9714,-131.5344 523.1847,-139.2945 526.4496,-133.1025"/>
</g>
<!-- Node11 -->
<g id="node12" class="node">
<title>Node11</title>
<g id="a_node12"><a xlink:href="TileManager_8hxx.html" target="_top" xlink:title="TileManager.hxx">
<polygon fill="none" stroke="#000000" points="638.5,-168.5 638.5,-187.5 735.5,-187.5 735.5,-168.5 638.5,-168.5"/>
<text text-anchor="middle" x="687" y="-175.5" font-family="Helvetica,sans-Serif" font-size="10.00" fill="#000000">TileManager.hxx</text>
</a>
</g>
</g>
<!-- Node8&#45;&gt;Node11 -->
<g id="edge12" class="edge">
<title>Node8&#45;&gt;Node11</title>
<path fill="none" stroke="#191970" d="M606.0703,-224.2455C621.247,-215.5731 643.6621,-202.7645 661.0563,-192.825"/>
<polygon fill="#191970" stroke="#191970" points="663.1794,-195.643 670.1253,-187.6427 659.7064,-189.5653 663.1794,-195.643"/>
</g>
<!-- Node11&#45;&gt;Node2 -->
<g id="edge13" class="edge">
<title>Node11&#45;&gt;Node2</title>
<path fill="none" stroke="#191970" d="M638.3996,-170.9293C590.087,-163.4756 513.747,-150.5545 439.2688,-132.0802"/>
<polygon fill="#191970" stroke="#191970" points="439.8029,-128.6055 429.251,-129.5582 438.0939,-135.3937 439.8029,-128.6055"/>
</g>
<!-- Node11&#45;&gt;Node10 -->
<g id="edge14" class="edge">
<title>Node11&#45;&gt;Node10</title>
<path fill="none" stroke="#191970" d="M653.8221,-168.3733C621.4513,-158.9807 572.0602,-144.6496 536.7576,-134.4064"/>
<polygon fill="#191970" stroke="#191970" points="537.3242,-130.9264 526.7449,-131.5011 535.3735,-137.6492 537.3242,-130.9264"/>
</g>
<!-- Node12 -->
<g id="node13" class="node">
<title>Node12</title>
<polygon fill="none" stroke="#bfbfbf" points="1040,-56.5 1040,-75.5 1084,-75.5 1084,-56.5 1040,-56.5"/>
<text text-anchor="middle" x="1062" y="-63.5" font-family="Helvetica,sans-Serif" font-size="10.00" fill="#000000">string</text>
</g>
<!-- Node11&#45;&gt;Node12 -->
<g id="edge15" class="edge">
<title>Node11&#45;&gt;Node12</title>
<path fill="none" stroke="#191970" d="M735.8715,-168.4246C772.1496,-160.5878 822.4867,-148.166 865,-132 883.2077,-125.0764 885.8997,-119.1997 904,-112 946.5184,-95.0876 997.6806,-81.3316 1030.0273,-73.4025"/>
<polygon fill="#191970" stroke="#191970" points="1030.9336,-76.7843 1039.8336,-71.0362 1029.2916,-69.9796 1030.9336,-76.7843"/>
</g>
<!-- Node13 -->
<g id="node14" class="node">
<title>Node13</title>
<g id="a_node14"><a xlink:href="tileData_8hxx.html" target="_top" xlink:title="tileData.hxx">
<polygon fill="none" stroke="#000000" points="778.5,-112.5 778.5,-131.5 855.5,-131.5 855.5,-112.5 778.5,-112.5"/>
<text text-anchor="middle" x="817" y="-119.5" font-family="Helvetica,sans-Serif" font-size="10.00" fill="#000000">tileData.hxx</text>
</a>
</g>
</g>
<!-- Node11&#45;&gt;Node13 -->
<g id="edge16" class="edge">
<title>Node11&#45;&gt;Node13</title>
<path fill="none" stroke="#191970" d="M709.3478,-168.3733C730.4033,-159.3032 762.1495,-145.6279 785.7175,-135.4755"/>
<polygon fill="#191970" stroke="#191970" points="787.1444,-138.6719 794.9438,-131.5011 784.375,-132.243 787.1444,-138.6719"/>
</g>
<!-- Node14 -->
<g id="node15" class="node">
<title>Node14</title>
<polygon fill="none" stroke="#bfbfbf" points="559,-112.5 559,-131.5 617,-131.5 617,-112.5 559,-112.5"/>
<text text-anchor="middle" x="588" y="-119.5" font-family="Helvetica,sans-Serif" font-size="10.00" fill="#000000">json.hxx</text>
</g>
<!-- Node11&#45;&gt;Node14 -->
<g id="edge20" class="edge">
<title>Node11&#45;&gt;Node14</title>
<path fill="none" stroke="#191970" d="M669.7555,-168.2455C654.4239,-159.5731 631.7801,-146.7645 614.2084,-136.825"/>
<polygon fill="#191970" stroke="#191970" points="615.4741,-133.5198 605.0469,-131.6427 612.0276,-139.6126 615.4741,-133.5198"/>
</g>
<!-- Node15 -->
<g id="node16" class="node">
<title>Node15</title>
<g id="a_node16"><a xlink:href="Singleton_8hxx.html" target="_top" xlink:title="Singleton.hxx">
<polygon fill="none" stroke="#000000" points="912.5,-112.5 912.5,-131.5 995.5,-131.5 995.5,-112.5 912.5,-112.5"/>
<text text-anchor="middle" x="954" y="-119.5" font-family="Helvetica,sans-Serif" font-size="10.00" fill="#000000">Singleton.hxx</text>
</a>
</g>
</g>
<!-- Node11&#45;&gt;Node15 -->
<g id="edge21" class="edge">
<title>Node11&#45;&gt;Node15</title>
<path fill="none" stroke="#191970" d="M732.5956,-168.4369C779.6933,-158.5587 853.0674,-143.1694 902.2961,-132.8443"/>
<polygon fill="#191970" stroke="#191970" points="903.0418,-136.2641 912.1104,-130.7858 901.6049,-129.4132 903.0418,-136.2641"/>
</g>
<!-- Node16 -->
<g id="node17" class="node">
<title>Node16</title>
<polygon fill="none" stroke="#bfbfbf" points="635.5,-112.5 635.5,-131.5 760.5,-131.5 760.5,-112.5 635.5,-112.5"/>
<text text-anchor="middle" x="698" y="-119.5" font-family="Helvetica,sans-Serif" font-size="10.00" fill="#000000">../common/enums.hxx</text>
</g>
<!-- Node11&#45;&gt;Node16 -->
<g id="edge22" class="edge">
<title>Node11&#45;&gt;Node16</title>
<path fill="none" stroke="#191970" d="M688.9161,-168.2455C690.3514,-160.9382 692.3636,-150.6944 694.1295,-141.7046"/>
<polygon fill="#191970" stroke="#191970" points="697.6127,-142.1298 696.1059,-131.6427 690.744,-140.7805 697.6127,-142.1298"/>
</g>
<!-- Node13&#45;&gt;Node3 -->
<g id="edge18" class="edge">
<title>Node13&#45;&gt;Node3</title>
<path fill="none" stroke="#191970" d="M778.3282,-113.4558C775.5157,-112.9316 772.7177,-112.4394 770,-112 630.1117,-89.3845 461.7589,-74.3935 390.9698,-68.6403"/>
<polygon fill="#191970" stroke="#191970" points="391.1046,-65.14 380.8563,-67.8276 390.5438,-72.1175 391.1046,-65.14"/>
</g>
<!-- Node13&#45;&gt;Node5 -->
<g id="edge19" class="edge">
<title>Node13&#45;&gt;Node5</title>
<path fill="none" stroke="#191970" d="M778.349,-113.3172C775.5317,-112.8255 772.7268,-112.3785 770,-112 650.4518,-95.4075 294.4215,-76.6787 144.1385,-69.2678"/>
<polygon fill="#191970" stroke="#191970" points="144.2703,-65.7702 134.1106,-68.7751 143.9267,-72.7617 144.2703,-65.7702"/>
</g>
<!-- Node13&#45;&gt;Node12 -->
<g id="edge17" class="edge">
<title>Node13&#45;&gt;Node12</title>
<path fill="none" stroke="#191970" d="M855.5508,-113.1884C903.6828,-102.1868 985.1311,-83.57 1029.9879,-73.3171"/>
<polygon fill="#191970" stroke="#191970" points="1030.8024,-76.7212 1039.7711,-71.0809 1029.2426,-69.8972 1030.8024,-76.7212"/>
</g>
<!-- Node17&#45;&gt;Node2 -->
<g id="edge27" class="edge">
<title>Node17&#45;&gt;Node2</title>
<path fill="none" stroke="#191970" d="M929.9284,-174.7815C811.5449,-168.0597 547.9841,-151.6601 439.2217,-131.7657"/>
<polygon fill="#191970" stroke="#191970" points="439.6716,-128.288 429.1896,-129.8297 438.3452,-135.1612 439.6716,-128.288"/>
</g>
<!-- Node17&#45;&gt;Node3 -->
<g id="edge26" class="edge">
<title>Node17&#45;&gt;Node3</title>
<path fill="none" stroke="#191970" d="M996.2179,-168.109C1005.6787,-153.8496 1019.4655,-127.5287 1005,-112 983.8768,-89.3242 521.2464,-71.6739 390.9041,-67.1379"/>
<polygon fill="#191970" stroke="#191970" points="390.8311,-63.6334 380.7164,-66.7866 390.5898,-70.6292 390.8311,-63.6334"/>
</g>
<!-- Node17&#45;&gt;Node9 -->
<g id="edge25" class="edge">
<title>Node17&#45;&gt;Node9</title>
<path fill="none" stroke="#191970" d="M1010.4001,-168.4509C1054.9499,-148.5722 1157.786,-102.6852 1209.3521,-79.6756"/>
<polygon fill="#191970" stroke="#191970" points="1210.9482,-82.7961 1218.654,-75.5249 1208.0957,-76.4036 1210.9482,-82.7961"/>
</g>
<!-- Node17&#45;&gt;Node12 -->
<g id="edge24" class="edge">
<title>Node17&#45;&gt;Node12</title>
<path fill="none" stroke="#191970" d="M1002.2908,-168.3871C1013.1994,-159.8937 1028.3664,-146.6124 1038,-132 1047.4257,-117.7029 1053.733,-99.2271 1057.5064,-85.4615"/>
<polygon fill="#191970" stroke="#191970" points="1060.9413,-86.1543 1060.0005,-75.6013 1054.155,-84.4377 1060.9413,-86.1543"/>
</g>
<!-- Node17&#45;&gt;Node15 -->
<g id="edge28" class="edge">
<title>Node17&#45;&gt;Node15</title>
<path fill="none" stroke="#191970" d="M982.9035,-168.2455C978.0855,-160.5367 971.2249,-149.5598 965.3968,-140.2348"/>
<polygon fill="#191970" stroke="#191970" points="968.2947,-138.2677 960.0267,-131.6427 962.3587,-141.9777 968.2947,-138.2677"/>
</g>
<!-- Node18&#45;&gt;Node2 -->
<g id="edge30" class="edge">
<title>Node18&#45;&gt;Node2</title>
<path fill="none" stroke="#191970" d="M351.6705,-168.2455C361.5661,-159.9746 375.9627,-147.9416 387.5901,-138.2232"/>
<polygon fill="#191970" stroke="#191970" points="390.035,-140.7413 395.4632,-131.6427 385.5458,-135.3703 390.035,-140.7413"/>
</g>
<!-- Node18&#45;&gt;Node4 -->
<g id="edge31" class="edge">
<title>Node18&#45;&gt;Node4</title>
<path fill="none" stroke="#191970" d="M329.723,-168.2455C321.1782,-160.1352 308.8222,-148.4075 298.6915,-138.7919"/>
<polygon fill="#191970" stroke="#191970" points="300.8218,-135.9884 291.1592,-131.6427 296.0028,-141.0655 300.8218,-135.9884"/>
</g>
<!-- Node19&#45;&gt;Node2 -->
<g id="edge34" class="edge">
<title>Node19&#45;&gt;Node2</title>
<path fill="none" stroke="#191970" d="M457.3746,-168.2455C448.4527,-160.0549 435.512,-148.1749 424.9808,-138.5069"/>
<polygon fill="#191970" stroke="#191970" points="427.2371,-135.8271 417.5036,-131.6427 422.5032,-140.9837 427.2371,-135.8271"/>
</g>
<!-- Node19&#45;&gt;Node3 -->
<g id="edge35" class="edge">
<title>Node19&#45;&gt;Node3</title>
<path fill="none" stroke="#191970" d="M433.4142,-168.3466C413.9751,-161.2538 390.7294,-149.7118 376,-132 365.1714,-118.9789 360.51,-100.0906 358.5057,-85.8535"/>
<polygon fill="#191970" stroke="#191970" points="361.9555,-85.1996 357.4009,-75.6337 354.996,-85.952 361.9555,-85.1996"/>
</g>
<!-- Node19&#45;&gt;Node4 -->
<g id="edge33" class="edge">
<title>Node19&#45;&gt;Node4</title>
<path fill="none" stroke="#191970" d="M435.8536,-168.3733C404.4891,-158.9807 356.6335,-144.6496 322.4284,-134.4064"/>
<polygon fill="#191970" stroke="#191970" points="323.3107,-131.0171 312.727,-131.5011 321.3025,-137.7229 323.3107,-131.0171"/>
</g>
<!-- Node20 -->
<g id="node21" class="node">
<title>Node20</title>
<polygon fill="none" stroke="#bfbfbf" points="1276,-112.5 1276,-131.5 1340,-131.5 1340,-112.5 1276,-112.5"/>
<text text-anchor="middle" x="1308" y="-119.5" font-family="Helvetica,sans-Serif" font-size="10.00" fill="#000000">algorithm</text>
</g>
<!-- Node19&#45;&gt;Node20 -->
<g id="edge36" class="edge">
<title>Node19&#45;&gt;Node20</title>
<path fill="none" stroke="#191970" d="M523.1068,-174.5271C554.443,-172.5702 594.4163,-170.1038 630,-168 909.7514,-151.4607 984.7799,-173.2482 1265.7968,-131.9189"/>
<polygon fill="#191970" stroke="#191970" points="1266.5034,-135.3524 1275.881,-130.4219 1265.4755,-128.4283 1266.5034,-135.3524"/>
</g>
<!-- Node21&#45;&gt;Node3 -->
<g id="edge39" class="edge">
<title>Node21&#45;&gt;Node3</title>
<path fill="none" stroke="#191970" d="M159.6432,-112.4369C205.7604,-101.5858 280.141,-84.0845 323.2085,-73.9509"/>
<polygon fill="#191970" stroke="#191970" points="324.257,-77.2999 333.1896,-71.6025 322.6537,-70.486 324.257,-77.2999"/>
</g>
<!-- Node21&#45;&gt;Node5 -->
<g id="edge38" class="edge">
<title>Node21&#45;&gt;Node5</title>
<path fill="none" stroke="#191970" d="M111.51,-112.2455C105.4674,-104.3761 96.8097,-93.101 89.5559,-83.6542"/>
<polygon fill="#191970" stroke="#191970" points="92.2705,-81.4426 83.4042,-75.6427 86.7185,-85.7058 92.2705,-81.4426"/>
</g>
<!-- Node22&#45;&gt;Node2 -->
<g id="edge51" class="edge">
<title>Node22&#45;&gt;Node2</title>
<path fill="none" stroke="#191970" d="M1509.9399,-176.8391C1346.0611,-170.2866 541.3509,-138.0284 439.3681,-130.8816"/>
<polygon fill="#191970" stroke="#191970" points="439.4463,-127.3741 429.1679,-129.944 438.8055,-134.3447 439.4463,-127.3741"/>
</g>
<!-- Node22&#45;&gt;Node9 -->
<g id="edge46" class="edge">
<title>Node22&#45;&gt;Node9</title>
<path fill="none" stroke="#191970" d="M1514.3857,-168.4938C1491.1933,-159.4363 1455.5418,-145.2541 1425,-132 1405.665,-123.6093 1401.6177,-119.7065 1382,-112 1348.0181,-98.6507 1308.4307,-86.0623 1279.7002,-77.4406"/>
<polygon fill="#191970" stroke="#191970" points="1280.6005,-74.0569 1270.0177,-74.5617 1278.6054,-80.7666 1280.6005,-74.0569"/>
</g>
<!-- Node22&#45;&gt;Node12 -->
<g id="edge42" class="edge">
<title>Node22&#45;&gt;Node12</title>
<path fill="none" stroke="#191970" d="M1509.8467,-171.8567C1477.7115,-164.5409 1424.8877,-150.8928 1382,-132 1366.3053,-125.0862 1365.0991,-117.9112 1349,-112 1260.6252,-79.5507 1148.6354,-69.9667 1094.3849,-67.1549"/>
<polygon fill="#191970" stroke="#191970" points="1094.4833,-63.6558 1084.3287,-66.6781 1094.1517,-70.6479 1094.4833,-63.6558"/>
</g>
<!-- Node22&#45;&gt;Node20 -->
<g id="edge52" class="edge">
<title>Node22&#45;&gt;Node20</title>
<path fill="none" stroke="#191970" d="M1509.7437,-170.9076C1469.3652,-161.1188 1396.3145,-143.4096 1350.0783,-132.2008"/>
<polygon fill="#191970" stroke="#191970" points="1350.9002,-128.7987 1340.3571,-129.8441 1349.251,-135.6017 1350.9002,-128.7987"/>
</g>
<!-- Node22&#45;&gt;Node23 -->
<g id="edge43" class="edge">
<title>Node22&#45;&gt;Node23</title>
<path fill="none" stroke="#191970" d="M1568.3569,-175.4125C1633.3866,-169.5162 1794.6627,-153.9862 1939.927,-132.0684"/>
<polygon fill="#191970" stroke="#191970" points="1940.5545,-135.5132 1949.9135,-130.5475 1939.5005,-128.593 1940.5545,-135.5132"/>
</g>
<!-- Node26 -->
<g id="node27" class="node">
<title>Node26</title>
<polygon fill="none" stroke="#bfbfbf" points="1514,-112.5 1514,-131.5 1564,-131.5 1564,-112.5 1514,-112.5"/>
<text text-anchor="middle" x="1539" y="-119.5" font-family="Helvetica,sans-Serif" font-size="10.00" fill="#000000">chrono</text>
</g>
<!-- Node22&#45;&gt;Node26 -->
<g id="edge47" class="edge">
<title>Node22&#45;&gt;Node26</title>
<path fill="none" stroke="#191970" d="M1539,-168.2455C1539,-160.9382 1539,-150.6944 1539,-141.7046"/>
<polygon fill="#191970" stroke="#191970" points="1542.5001,-141.6426 1539,-131.6427 1535.5001,-141.6427 1542.5001,-141.6426"/>
</g>
<!-- Node27 -->
<g id="node28" class="node">
<title>Node27</title>
<polygon fill="none" stroke="#bfbfbf" points="1582,-112.5 1582,-131.5 1626,-131.5 1626,-112.5 1582,-112.5"/>
<text text-anchor="middle" x="1604" y="-119.5" font-family="Helvetica,sans-Serif" font-size="10.00" fill="#000000">ctime</text>
</g>
<!-- Node22&#45;&gt;Node27 -->
<g id="edge48" class="edge">
<title>Node22&#45;&gt;Node27</title>
<path fill="none" stroke="#191970" d="M1550.3221,-168.2455C1559.9223,-159.9746 1573.8892,-147.9416 1585.1695,-138.2232"/>
<polygon fill="#191970" stroke="#191970" points="1587.516,-140.8214 1592.8076,-131.6427 1582.947,-135.5182 1587.516,-140.8214"/>
</g>
<!-- Node28 -->
<g id="node29" class="node">
<title>Node28</title>
<polygon fill="none" stroke="#bfbfbf" points="1644.5,-112.5 1644.5,-131.5 1699.5,-131.5 1699.5,-112.5 1644.5,-112.5"/>
<text text-anchor="middle" x="1672" y="-119.5" font-family="Helvetica,sans-Serif" font-size="10.00" fill="#000000">fstream</text>
</g>
<!-- Node22&#45;&gt;Node28 -->
<g id="edge49" class="edge">
<title>Node22&#45;&gt;Node28</title>
<path fill="none" stroke="#191970" d="M1561.8635,-168.3733C1583.405,-159.3032 1615.8838,-145.6279 1639.9956,-135.4755"/>
<polygon fill="#191970" stroke="#191970" points="1641.5767,-138.6075 1649.4348,-131.5011 1638.8603,-132.156 1641.5767,-138.6075"/>
</g>
<!-- Node29 -->
<g id="node30" class="node">
<title>Node29</title>
<polygon fill="none" stroke="#bfbfbf" points="1718,-112.5 1718,-131.5 1774,-131.5 1774,-112.5 1718,-112.5"/>
<text text-anchor="middle" x="1746" y="-119.5" font-family="Helvetica,sans-Serif" font-size="10.00" fill="#000000">sstream</text>
</g>
<!-- Node22&#45;&gt;Node29 -->
<g id="edge50" class="edge">
<title>Node22&#45;&gt;Node29</title>
<path fill="none" stroke="#191970" d="M1568.219,-170.0953C1604.8965,-160.1729 1667.8778,-143.1345 1708.1927,-132.2281"/>
<polygon fill="#191970" stroke="#191970" points="1709.1851,-135.5855 1717.9241,-129.5954 1707.357,-128.8284 1709.1851,-135.5855"/>
</g>
<!-- Node30 -->
<g id="node31" class="node">
<title>Node30</title>
<polygon fill="none" stroke="#bfbfbf" points="1792,-112.5 1792,-131.5 1840,-131.5 1840,-112.5 1792,-112.5"/>
<text text-anchor="middle" x="1816" y="-119.5" font-family="Helvetica,sans-Serif" font-size="10.00" fill="#000000">mutex</text>
</g>
<!-- Node22&#45;&gt;Node30 -->
<g id="edge53" class="edge">
<title>Node22&#45;&gt;Node30</title>
<path fill="none" stroke="#191970" d="M1568.1388,-173.551C1612.3656,-166.5734 1699.2256,-151.9914 1782.1089,-132.0185"/>
<polygon fill="#191970" stroke="#191970" points="1783.0474,-135.3922 1791.9323,-129.6209 1781.3875,-128.5919 1783.0474,-135.3922"/>
</g>
<!-- Node31 -->
<g id="node32" class="node">
<title>Node31</title>
<g id="a_node32"><a xlink:href="Meta_8hxx.html" target="_top" xlink:title="Meta.hxx">
<polygon fill="none" stroke="#000000" points="1434,-112.5 1434,-131.5 1496,-131.5 1496,-112.5 1434,-112.5"/>
<text text-anchor="middle" x="1465" y="-119.5" font-family="Helvetica,sans-Serif" font-size="10.00" fill="#000000">Meta.hxx</text>
</a>
</g>
</g>
<!-- Node22&#45;&gt;Node31 -->
<g id="edge54" class="edge">
<title>Node22&#45;&gt;Node31</title>
<path fill="none" stroke="#191970" d="M1526.1102,-168.2455C1515.0746,-159.8943 1498.9708,-147.7076 1486.0647,-137.9408"/>
<polygon fill="#191970" stroke="#191970" points="1487.8283,-134.8862 1477.7421,-131.6427 1483.6041,-140.4681 1487.8283,-134.8862"/>
</g>
<!-- Node35 -->
<g id="node36" class="node">
<title>Node35</title>
<g id="a_node36"><a xlink:href="LOG_8inl_8hxx.html" target="_top" xlink:title="LOG.inl.hxx">
<polygon fill="none" stroke="#000000" points="1858.5,-112.5 1858.5,-131.5 1931.5,-131.5 1931.5,-112.5 1858.5,-112.5"/>
<text text-anchor="middle" x="1895" y="-119.5" font-family="Helvetica,sans-Serif" font-size="10.00" fill="#000000">LOG.inl.hxx</text>
</a>
</g>
</g>
<!-- Node22&#45;&gt;Node35 -->
<g id="edge59" class="edge">
<title>Node22&#45;&gt;Node35</title>
<path fill="none" stroke="#191970" d="M1568.1692,-174.3324C1621.6294,-167.4686 1739.0875,-151.7309 1848.5031,-131.9886"/>
<polygon fill="#191970" stroke="#191970" points="1849.1741,-135.4241 1858.3859,-130.1903 1847.9209,-128.5372 1849.1741,-135.4241"/>
</g>
<!-- Node24 -->
<g id="node25" class="node">
<title>Node24</title>
<polygon fill="none" stroke="#bfbfbf" points="2001.5,-56.5 2001.5,-75.5 2066.5,-75.5 2066.5,-56.5 2001.5,-56.5"/>
<text text-anchor="middle" x="2034" y="-63.5" font-family="Helvetica,sans-Serif" font-size="10.00" fill="#000000">stdexcept</text>
</g>
<!-- Node23&#45;&gt;Node24 -->
<g id="edge44" class="edge">
<title>Node23&#45;&gt;Node24</title>
<path fill="none" stroke="#191970" d="M2000.1417,-112.2455C2005.8444,-104.4564 2013.99,-93.3308 2020.8625,-83.9439"/>
<polygon fill="#191970" stroke="#191970" points="2023.8568,-85.7789 2026.9402,-75.6427 2018.2087,-81.6437 2023.8568,-85.7789"/>
</g>
<!-- Node25 -->
<g id="node26" class="node">
<title>Node25</title>
<polygon fill="none" stroke="#bfbfbf" points="1918.5,-56.5 1918.5,-75.5 1983.5,-75.5 1983.5,-56.5 1918.5,-56.5"/>
<text text-anchor="middle" x="1951" y="-63.5" font-family="Helvetica,sans-Serif" font-size="10.00" fill="#000000">exception</text>
</g>
<!-- Node23&#45;&gt;Node25 -->
<g id="edge45" class="edge">
<title>Node23&#45;&gt;Node25</title>
<path fill="none" stroke="#191970" d="M1985.6842,-112.2455C1979.7821,-104.3761 1971.3258,-93.101 1964.2406,-83.6542"/>
<polygon fill="#191970" stroke="#191970" points="1967.0321,-81.5427 1958.232,-75.6427 1961.432,-85.7427 1967.0321,-81.5427"/>
</g>
<!-- Node31&#45;&gt;Node9 -->
<g id="edge55" class="edge">
<title>Node31&#45;&gt;Node9</title>
<path fill="none" stroke="#191970" d="M1433.7147,-114.2134C1393.6102,-104.2319 1324.0217,-86.9121 1280.077,-75.9747"/>
<polygon fill="#191970" stroke="#191970" points="1280.85,-72.5604 1270.3007,-73.5415 1279.1593,-79.3532 1280.85,-72.5604"/>
</g>
<!-- Node32 -->
<g id="node33" class="node">
<title>Node32</title>
<polygon fill="none" stroke="#bfbfbf" points="1352.5,-56.5 1352.5,-75.5 1421.5,-75.5 1421.5,-56.5 1352.5,-56.5"/>
<text text-anchor="middle" x="1387" y="-63.5" font-family="Helvetica,sans-Serif" font-size="10.00" fill="#000000">type_traits</text>
</g>
<!-- Node31&#45;&gt;Node32 -->
<g id="edge56" class="edge">
<title>Node31&#45;&gt;Node32</title>
<path fill="none" stroke="#191970" d="M1451.4134,-112.2455C1439.6695,-103.814 1422.4801,-91.4729 1408.8118,-81.6598"/>
<polygon fill="#191970" stroke="#191970" points="1410.5954,-78.6316 1400.4309,-75.6427 1406.5129,-84.3179 1410.5954,-78.6316"/>
</g>
<!-- Node33 -->
<g id="node34" class="node">
<title>Node33</title>
<polygon fill="none" stroke="#bfbfbf" points="1439.5,-56.5 1439.5,-75.5 1490.5,-75.5 1490.5,-56.5 1439.5,-56.5"/>
<text text-anchor="middle" x="1465" y="-63.5" font-family="Helvetica,sans-Serif" font-size="10.00" fill="#000000">variant</text>
</g>
<!-- Node31&#45;&gt;Node33 -->
<g id="edge57" class="edge">
<title>Node31&#45;&gt;Node33</title>
<path fill="none" stroke="#191970" d="M1465,-112.2455C1465,-104.9382 1465,-94.6944 1465,-85.7046"/>
<polygon fill="#191970" stroke="#191970" points="1468.5001,-85.6426 1465,-75.6427 1461.5001,-85.6427 1468.5001,-85.6426"/>
</g>
<!-- Node34 -->
<g id="node35" class="node">
<title>Node34</title>
<polygon fill="none" stroke="#bfbfbf" points="1508.5,-56.5 1508.5,-75.5 1549.5,-75.5 1549.5,-56.5 1508.5,-56.5"/>
<text text-anchor="middle" x="1529" y="-63.5" font-family="Helvetica,sans-Serif" font-size="10.00" fill="#000000">tuple</text>
</g>
<!-- Node31&#45;&gt;Node34 -->
<g id="edge58" class="edge">
<title>Node31&#45;&gt;Node34</title>
<path fill="none" stroke="#191970" d="M1476.1479,-112.2455C1485.5087,-104.0549 1499.0858,-92.1749 1510.1349,-82.5069"/>
<polygon fill="#191970" stroke="#191970" points="1512.7588,-84.8618 1517.9798,-75.6427 1508.1492,-79.5937 1512.7588,-84.8618"/>
</g>
<!-- Node36&#45;&gt;Node12 -->
<g id="edge62" class="edge">
<title>Node36&#45;&gt;Node12</title>
<path fill="none" stroke="#191970" d="M1222.0796,-168.4509C1191.6002,-148.9441 1121.9894,-104.3932 1085.4232,-80.9909"/>
<polygon fill="#191970" stroke="#191970" points="1087.1921,-77.9675 1076.8826,-75.5249 1083.4187,-83.8634 1087.1921,-77.9675"/>
</g>
<!-- Node36&#45;&gt;Node15 -->
<g id="edge63" class="edge">
<title>Node36&#45;&gt;Node15</title>
<path fill="none" stroke="#191970" d="M1198.2434,-170.3309C1148.2224,-160.4327 1061.0358,-143.1802 1005.4897,-132.1888"/>
<polygon fill="#191970" stroke="#191970" points="1005.9915,-128.7203 995.5023,-130.2125 1004.6327,-135.5871 1005.9915,-128.7203"/>
</g>
<!-- Node36&#45;&gt;Node31 -->
<g id="edge64" class="edge">
<title>Node36&#45;&gt;Node31</title>
<path fill="none" stroke="#191970" d="M1275.6771,-168.5004C1316.8747,-158.3817 1381.8273,-142.4284 1423.9209,-132.0896"/>
<polygon fill="#191970" stroke="#191970" points="1424.9643,-135.4374 1433.8408,-129.6531 1423.2946,-128.6395 1424.9643,-135.4374"/>
</g>
<!-- Node37 -->
<g id="node38" class="node">
<title>Node37</title>
<polygon fill="none" stroke="#bfbfbf" points="1204.5,-112.5 1204.5,-131.5 1257.5,-131.5 1257.5,-112.5 1204.5,-112.5"/>
<text text-anchor="middle" x="1231" y="-119.5" font-family="Helvetica,sans-Serif" font-size="10.00" fill="#000000">cstddef</text>
</g>
<!-- Node36&#45;&gt;Node37 -->
<g id="edge65" class="edge">
<title>Node36&#45;&gt;Node37</title>
<path fill="none" stroke="#191970" d="M1235.9549,-168.2455C1235.172,-160.9382 1234.0744,-150.6944 1233.1112,-141.7046"/>
<polygon fill="#191970" stroke="#191970" points="1236.5786,-141.2129 1232.0331,-131.6427 1229.6185,-141.9587 1236.5786,-141.2129"/>
</g>
</g>
</svg>
        <g id="navigator" transform="translate(0 0)" fill="#404254">
                <rect fill="#f2f5e9" fill-opacity="0.5" stroke="#606060" stroke-width=".5" x="0" y="0" width="60" height="60"/>
                <use id="zoomplus" xlink:href="#zoomPlus" x="17" y="9" onmousedown="handleZoom(evt,'in')"/>
                <use id="zoomminus" xlink:href="#zoomMin" x="42" y="9" onmousedown="handleZoom(evt,'out')"/>
                <use id="reset" xlink:href="#resetDef" x="30" y="36" onmousedown="handleReset()"/>
                <g id="arrowUp" xlink:href="#dirArrow" transform="translate(30 24)" onmousedown="handlePan(0,-1)">
                  <use xlink:href="#rim" fill="#404040">
                        <set attributeName="fill" to="#808080" begin="arrowUp.mouseover" end="arrowUp.mouseout"/>
                  </use>
                  <path fill="none" stroke="white" stroke-width="1.5" d="M0,-3.0v7 M-2.5,-0.5L0,-3.0L2.5,-0.5"/>
                </g>
                <g id="arrowRight" xlink:href="#dirArrow" transform="rotate(90) translate(36 -43)" onmousedown="handlePan(1,0)">
                  <use xlink:href="#rim" fill="#404040">
                        <set attributeName="fill" to="#808080" begin="arrowRight.mouseover" end="arrowRight.mouseout"/>
                  </use>
                  <path fill="none" stroke="white" stroke-width="1.5" d="M0,-3.0v7 M-2.5,-0.5L0,-3.0L2.5,-0.5"/>
                </g>
                <g id="arrowDown" xlink:href="#dirArrow" transform="rotate(180) translate(-30 -48)" onmousedown="handlePan(0,1)">
                  <use xlink:href="#rim" fill="#404040">
                        <set attributeName="fill" to="#808080" begin="arrowDown.mouseover" end="arrowDown.mouseout"/>
                  </use>
                  <path fill="none" stroke="white" stroke-width="1.5" d="M0,-3.0v7 M-2.5,-0.5L0,-3.0L2.5,-0.5"/>
                </g>
                <g id="arrowLeft" xlink:href="#dirArrow" transform="rotate(270) translate(-36 17)" onmousedown="handlePan(-1,0)">
                  <use xlink:href="#rim" fill="#404040">
                        <set attributeName="fill" to="#808080" begin="arrowLeft.mouseover" end="arrowLeft.mouseout"/>
                  </use>
                  <path fill="none" stroke="white" stroke-width="1.5" d="M0,-3.0v7 M-2.5,-0.5L0,-3.0L2.5,-0.5"/>
                </g>
        </g>
        <svg viewBox="0 0 15 15" width="100%" height="30px" preserveAspectRatio="xMaxYMin meet">
         <g id="arrow_out" transform="scale(0.3 0.3)">
          <a xlink:href="Sprite_8cxx__incl_org.svg" target="_base">
           <rect id="button" ry="5" rx="5" y="6" x="6" height="38" width="38"
                fill="#f2f5e9" fill-opacity="0.5" stroke="#606060" stroke-width="1.0"/>
           <path id="arrow"
             d="M 11.500037,31.436501 C 11.940474,20.09759 22.043105,11.32322 32.158766,21.979434 L 37.068811,17.246167 C 37.068811,17.246167 37.088388,32 37.088388,32 L 22.160133,31.978069 C 22.160133,31.978069 26.997745,27.140456 26.997745,27.140456 C 18.528582,18.264221 13.291696,25.230495 11.500037,31.436501 z"
             style="fill:#404040;"/>
          </a>
         </g>
        </svg>
</svg>
