<?xml version="1.0" encoding="UTF-8" standalone="no"?>
<!DOCTYPE svg PUBLIC "-//W3C//DTD SVG 1.1//EN"
 "http://www.w3.org/Graphics/SVG/1.1/DTD/svg11.dtd">
<!-- Generated by graphviz version 2.40.1 (20161225.0304)
 -->
<!-- Title: RGBAColor::RGBAColor Pages: 1 -->
<svg width="438pt" height="316pt"
 viewBox="0.00 0.00 438.00 315.75" xmlns="http://www.w3.org/2000/svg" xmlns:xlink="http://www.w3.org/1999/xlink">
<g id="graph0" class="graph" transform="scale(1 1) rotate(0) translate(4 311.7544)">
<title>RGBAColor::RGBAColor</title>
<!-- Node2 -->
<g id="node1" class="node">
<title>Node2</title>
<polygon fill="#bfbfbf" stroke="#000000" points="0,-152.5 0,-171.5 129,-171.5 129,-152.5 0,-152.5"/>
<text text-anchor="middle" x="64.5" y="-159.5" font-family="Helvetica,sans-Serif" font-size="10.00" fill="#000000">RGBAColor::RGBAColor</text>
</g>
<!-- Node3 -->
<g id="node2" class="node">
<title>Node3</title>
<g id="a_node2"><a xlink:href="structRGBAColor.html#ab27257376e621ff4a8862a90ddd1ffab" target="_top" xlink:title="RGBAColor::hue">
<polygon fill="none" stroke="#000000" points="180.5,-266.5 180.5,-285.5 274.5,-285.5 274.5,-266.5 180.5,-266.5"/>
<text text-anchor="middle" x="227.5" y="-273.5" font-family="Helvetica,sans-Serif" font-size="10.00" fill="#000000">RGBAColor::hue</text>
</a>
</g>
</g>
<!-- Node2&#45;&gt;Node3 -->
<g id="edge1" class="edge">
<title>Node2&#45;&gt;Node3</title>
<path fill="none" stroke="#191970" d="M72.0033,-171.6059C87.3948,-190.6734 124.5151,-233.4856 165,-257 168.6959,-259.1467 172.6582,-261.0731 176.7283,-262.7976"/>
<polygon fill="#191970" stroke="#191970" points="175.7555,-266.1723 186.3463,-266.4635 178.2486,-259.6313 175.7555,-266.1723"/>
</g>
<!-- Node4 -->
<g id="node3" class="node">
<title>Node4</title>
<g id="a_node3"><a xlink:href="structRGBAColor.html#a8a63c03d13e9427879b4f8f3ce623d69" target="_top" xlink:title="RGBAColor::red">
<polygon fill="none" stroke="#000000" points="332,-190.5 332,-209.5 424,-209.5 424,-190.5 332,-190.5"/>
<text text-anchor="middle" x="378" y="-197.5" font-family="Helvetica,sans-Serif" font-size="10.00" fill="#000000">RGBAColor::red</text>
</a>
</g>
</g>
<!-- Node2&#45;&gt;Node4 -->
<g id="edge13" class="edge">
<title>Node2&#45;&gt;Node4</title>
<path fill="none" stroke="#191970" d="M109.6213,-171.5045C126.8843,-174.8842 146.796,-178.4735 165,-181 217.9388,-188.3473 278.6945,-193.4395 321.7351,-196.4895"/>
<polygon fill="#191970" stroke="#191970" points="321.5134,-199.9825 331.7319,-197.1838 321.9984,-192.9993 321.5134,-199.9825"/>
</g>
<!-- Node5 -->
<g id="node4" class="node">
<title>Node5</title>
<g id="a_node4"><a xlink:href="structRGBAColor.html#a8523bfbb8c7b8fbbdb8f2ba328079adb" target="_top" xlink:title="RGBAColor::green">
<polygon fill="none" stroke="#000000" points="326,-152.5 326,-171.5 430,-171.5 430,-152.5 326,-152.5"/>
<text text-anchor="middle" x="378" y="-159.5" font-family="Helvetica,sans-Serif" font-size="10.00" fill="#000000">RGBAColor::green</text>
</a>
</g>
</g>
<!-- Node2&#45;&gt;Node5 -->
<g id="edge14" class="edge">
<title>Node2&#45;&gt;Node5</title>
<path fill="none" stroke="#191970" d="M105.3272,-152.4891C123.4874,-148.7239 145.1989,-144.8553 165,-143 220.3133,-137.8173 234.7582,-137.1043 290,-143 303.8708,-144.4804 318.766,-147.2379 332.2853,-150.2021"/>
<polygon fill="#191970" stroke="#191970" points="331.7875,-153.6784 342.3156,-152.4914 333.3451,-146.8539 331.7875,-153.6784"/>
</g>
<!-- Node6 -->
<g id="node5" class="node">
<title>Node6</title>
<g id="a_node5"><a xlink:href="structRGBAColor.html#a959baeeec5e43348b7bd901bbc31f8f8" target="_top" xlink:title="RGBAColor::blue">
<polygon fill="none" stroke="#000000" points="329.5,-247.5 329.5,-266.5 426.5,-266.5 426.5,-247.5 329.5,-247.5"/>
<text text-anchor="middle" x="378" y="-254.5" font-family="Helvetica,sans-Serif" font-size="10.00" fill="#000000">RGBAColor::blue</text>
</a>
</g>
</g>
<!-- Node2&#45;&gt;Node6 -->
<g id="edge15" class="edge">
<title>Node2&#45;&gt;Node6</title>
<path fill="none" stroke="#191970" d="M68.2418,-171.8185C78.7598,-197.8221 111.3683,-268.3047 165,-295 227.2389,-325.9796 310.8181,-292.3013 352.348,-271.2648"/>
<polygon fill="#191970" stroke="#191970" points="354.0112,-274.3448 361.2575,-266.6156 350.7727,-268.139 354.0112,-274.3448"/>
</g>
<!-- Node7 -->
<g id="node6" class="node">
<title>Node7</title>
<g id="a_node6"><a xlink:href="structRGBAColor.html#ab835dd9b5967615be31d7087a0499607" target="_top" xlink:title="RGBAColor::lightness">
<polygon fill="none" stroke="#000000" points="167.5,-228.5 167.5,-247.5 287.5,-247.5 287.5,-228.5 167.5,-228.5"/>
<text text-anchor="middle" x="227.5" y="-235.5" font-family="Helvetica,sans-Serif" font-size="10.00" fill="#000000">RGBAColor::lightness</text>
</a>
</g>
</g>
<!-- Node2&#45;&gt;Node7 -->
<g id="edge5" class="edge">
<title>Node2&#45;&gt;Node7</title>
<path fill="none" stroke="#191970" d="M81.643,-171.6119C101.4224,-182.5268 135.0716,-200.5608 165,-214 173.3973,-217.7707 182.5804,-221.5053 191.2595,-224.8652"/>
<polygon fill="#191970" stroke="#191970" points="190.1845,-228.2009 200.7756,-228.4814 192.6711,-221.6574 190.1845,-228.2009"/>
</g>
<!-- Node8 -->
<g id="node7" class="node">
<title>Node8</title>
<g id="a_node7"><a xlink:href="structRGBAColor.html#a8de2a717601cc3fba0e65c6e4e7e1524" target="_top" xlink:title="RGBAColor::saturation">
<polygon fill="none" stroke="#000000" points="165,-152.5 165,-171.5 290,-171.5 290,-152.5 165,-152.5"/>
<text text-anchor="middle" x="227.5" y="-159.5" font-family="Helvetica,sans-Serif" font-size="10.00" fill="#000000">RGBAColor::saturation</text>
</a>
</g>
</g>
<!-- Node2&#45;&gt;Node8 -->
<g id="edge9" class="edge">
<title>Node2&#45;&gt;Node8</title>
<path fill="none" stroke="#191970" d="M129.3903,-162C137.7217,-162 146.295,-162 154.7416,-162"/>
<polygon fill="#191970" stroke="#191970" points="154.9571,-165.5001 164.957,-162 154.957,-158.5001 154.9571,-165.5001"/>
</g>
<!-- Node9 -->
<g id="node8" class="node">
<title>Node9</title>
<g id="a_node8"><a xlink:href="structRGBAColor.html#ab9156bde0e82ab0ead3c14a4458eb054" target="_top" xlink:title="RGBAColor::alpha">
<polygon fill="none" stroke="#000000" points="176,-76.5 176,-95.5 279,-95.5 279,-76.5 176,-76.5"/>
<text text-anchor="middle" x="227.5" y="-83.5" font-family="Helvetica,sans-Serif" font-size="10.00" fill="#000000">RGBAColor::alpha</text>
</a>
</g>
</g>
<!-- Node2&#45;&gt;Node9 -->
<g id="edge16" class="edge">
<title>Node2&#45;&gt;Node9</title>
<path fill="none" stroke="#191970" d="M81.643,-152.3881C101.4224,-141.4732 135.0716,-123.4392 165,-110 173.3973,-106.2293 182.5804,-102.4947 191.2595,-99.1348"/>
<polygon fill="#191970" stroke="#191970" points="192.6711,-102.3426 200.7756,-95.5186 190.1845,-95.7991 192.6711,-102.3426"/>
</g>
<!-- Node10 -->
<g id="node9" class="node">
<title>Node10</title>
<g id="a_node9"><a xlink:href="structRGBAColor.html#aba740eb0cce3571dbb4af983ab7d055d" target="_top" xlink:title="RGBAColor::to_SDL">
<polygon fill="none" stroke="#000000" points="172.5,-38.5 172.5,-57.5 282.5,-57.5 282.5,-38.5 172.5,-38.5"/>
<text text-anchor="middle" x="227.5" y="-45.5" font-family="Helvetica,sans-Serif" font-size="10.00" fill="#000000">RGBAColor::to_SDL</text>
</a>
</g>
</g>
<!-- Node2&#45;&gt;Node10 -->
<g id="edge17" class="edge">
<title>Node2&#45;&gt;Node10</title>
<path fill="none" stroke="#191970" d="M72.0033,-152.3941C87.3948,-133.3266 124.5151,-90.5144 165,-67 168.6959,-64.8533 172.6582,-62.9269 176.7283,-61.2024"/>
<polygon fill="#191970" stroke="#191970" points="178.2486,-64.3687 186.3463,-57.5365 175.7555,-57.8277 178.2486,-64.3687"/>
</g>
<!-- Node11 -->
<g id="node10" class="node">
<title>Node11</title>
<g id="a_node10"><a xlink:href="structRGBAColor.html#a3cd700ece11761d8cfeb8a8e69813cd2" target="_top" xlink:title="RGBAColor::fromHSLA">
<polygon fill="none" stroke="#000000" points="165,-.5 165,-19.5 290,-19.5 290,-.5 165,-.5"/>
<text text-anchor="middle" x="227.5" y="-7.5" font-family="Helvetica,sans-Serif" font-size="10.00" fill="#000000">RGBAColor::fromHSLA</text>
</a>
</g>
</g>
<!-- Node2&#45;&gt;Node11 -->
<g id="edge18" class="edge">
<title>Node2&#45;&gt;Node11</title>
<path fill="none" stroke="#191970" d="M69.0843,-152.3109C81.1706,-127.8169 116.3507,-62.9591 165,-29 167.877,-26.9917 170.9715,-25.1914 174.1887,-23.578"/>
<polygon fill="#191970" stroke="#191970" points="175.7401,-26.7197 183.5025,-19.5089 172.9376,-20.3052 175.7401,-26.7197"/>
</g>
<!-- Node3&#45;&gt;Node4 -->
<g id="edge2" class="edge">
<title>Node3&#45;&gt;Node4</title>
<path fill="none" stroke="#191970" d="M265.1521,-266.4159C273.4994,-263.7818 282.1834,-260.6318 290,-257 314.46,-245.6353 340.0858,-228.331 357.3336,-215.7699"/>
<polygon fill="#191970" stroke="#191970" points="359.5877,-218.4559 365.5388,-209.6903 355.4203,-212.8315 359.5877,-218.4559"/>
</g>
<!-- Node3&#45;&gt;Node5 -->
<g id="edge3" class="edge">
<title>Node3&#45;&gt;Node5</title>
<path fill="none" stroke="#191970" d="M274.8045,-266.3715C280.3044,-263.9231 285.5345,-260.852 290,-257 318.301,-232.5871 298.3833,-206.1845 326,-181 327.7311,-179.4214 329.604,-177.9711 331.5759,-176.6391"/>
<polygon fill="#191970" stroke="#191970" points="333.7033,-179.4596 340.7238,-171.5246 330.2873,-173.3497 333.7033,-179.4596"/>
</g>
<!-- Node3&#45;&gt;Node6 -->
<g id="edge4" class="edge">
<title>Node3&#45;&gt;Node6</title>
<path fill="none" stroke="#191970" d="M274.7062,-270.0404C288.8545,-268.2542 304.5463,-266.2732 319.3381,-264.4058"/>
<polygon fill="#191970" stroke="#191970" points="319.922,-267.86 329.4048,-263.1349 319.0452,-260.9151 319.922,-267.86"/>
</g>
<!-- Node7&#45;&gt;Node4 -->
<g id="edge6" class="edge">
<title>Node7&#45;&gt;Node4</title>
<path fill="none" stroke="#191970" d="M265.4775,-228.411C285.1587,-223.4417 309.3907,-217.3233 330.3206,-212.0387"/>
<polygon fill="#191970" stroke="#191970" points="331.4567,-215.3617 340.2956,-209.5201 329.743,-208.5747 331.4567,-215.3617"/>
</g>
<!-- Node7&#45;&gt;Node5 -->
<g id="edge7" class="edge">
<title>Node7&#45;&gt;Node5</title>
<path fill="none" stroke="#191970" d="M242.0844,-228.4765C260.9401,-216.4202 295.0381,-195.4801 326,-181 330.3423,-178.9692 334.9664,-177.0085 339.5977,-175.1677"/>
<polygon fill="#191970" stroke="#191970" points="340.9286,-178.4061 349.026,-171.5736 338.4351,-171.8653 340.9286,-178.4061"/>
</g>
<!-- Node7&#45;&gt;Node6 -->
<g id="edge8" class="edge">
<title>Node7&#45;&gt;Node6</title>
<path fill="none" stroke="#191970" d="M287.8469,-245.6185C298.1509,-246.9194 308.8433,-248.2693 319.1089,-249.5652"/>
<polygon fill="#191970" stroke="#191970" points="318.8423,-253.0593 329.2019,-250.8394 319.7191,-246.1144 318.8423,-253.0593"/>
</g>
<!-- Node8&#45;&gt;Node4 -->
<g id="edge10" class="edge">
<title>Node8&#45;&gt;Node4</title>
<path fill="none" stroke="#191970" d="M265.4775,-171.589C285.1587,-176.5583 309.3907,-182.6767 330.3206,-187.9613"/>
<polygon fill="#191970" stroke="#191970" points="329.743,-191.4253 340.2956,-190.4799 331.4567,-184.6383 329.743,-191.4253"/>
</g>
<!-- Node8&#45;&gt;Node5 -->
<g id="edge11" class="edge">
<title>Node8&#45;&gt;Node5</title>
<path fill="none" stroke="#191970" d="M290.0181,-162C298.5157,-162 307.2363,-162 315.7295,-162"/>
<polygon fill="#191970" stroke="#191970" points="315.9463,-165.5001 325.9463,-162 315.9462,-158.5001 315.9463,-165.5001"/>
</g>
<!-- Node8&#45;&gt;Node6 -->
<g id="edge12" class="edge">
<title>Node8&#45;&gt;Node6</title>
<path fill="none" stroke="#191970" d="M242.759,-171.6319C269.0129,-188.2042 322.9133,-222.2277 354.1584,-241.9505"/>
<polygon fill="#191970" stroke="#191970" points="352.3762,-244.9644 362.7006,-247.3426 356.1127,-239.0451 352.3762,-244.9644"/>
</g>
</g>
</svg>
