<?xml version="1.0" encoding="UTF-8" standalone="no"?>
<!DOCTYPE svg PUBLIC "-//W3C//DTD SVG 1.1//EN"
 "http://www.w3.org/Graphics/SVG/1.1/DTD/svg11.dtd">
<!-- Generated by graphviz version 2.40.1 (20161225.0304)
 -->
<!-- Title: UIMQDispatcher&lt; DataArgs &gt; Pages: 1 -->
<!--zoomable 851 -->
<svg id="main" version="1.1" xmlns="http://www.w3.org/2000/svg" xmlns:xlink="http://www.w3.org/1999/xlink" xml:space="preserve" onload="init(evt)">
<style type="text/css"><![CDATA[
.edge:hover path { stroke: red; }
.edge:hover polygon { stroke: red; fill: red; }
]]></style>
<script type="text/javascript"><![CDATA[
var edges = document.getElementsByTagName('g');
if (edges && edges.length) {
  for (var i=0;i<edges.length;i++) {
    if (edges[i].id.substr(0,4)=='edge') {
      edges[i].setAttribute('class','edge');
    }
  }
}
]]></script>
        <defs>
                <circle id="rim" cx="0" cy="0" r="7"/>
                <circle id="rim2" cx="0" cy="0" r="3.5"/>
                <g id="zoomPlus">
                        <use xlink:href="#rim" fill="#404040">
                                <set attributeName="fill" to="#808080" begin="zoomplus.mouseover" end="zoomplus.mouseout"/>
                        </use>
                        <path d="M-4,0h8M0,-4v8" fill="none" stroke="white" stroke-width="1.5" pointer-events="none"/>
                </g>
                <g id="zoomMin">
                        <use xlink:href="#rim" fill="#404040">
                                <set attributeName="fill" to="#808080" begin="zoomminus.mouseover" end="zoomminus.mouseout"/>
                        </use>
                        <path d="M-4,0h8" fill="none" stroke="white" stroke-width="1.5" pointer-events="none"/>
                </g>
                <g id="dirArrow">
                        <path fill="none" stroke="white" stroke-width="1.5" d="M0,-3.0v7 M-2.5,-0.5L0,-3.0L2.5,-0.5"/>
                </g>
               <g id="resetDef">
                       <use xlink:href="#rim2" fill="#404040">
                               <set attributeName="fill" to="#808080" begin="reset.mouseover" end="reset.mouseout"/>
                       </use>
               </g>
        </defs>

<script type="text/javascript">
var viewWidth = 441;
var viewHeight = 851;
var sectionId = 'dynsection-0';
</script>
<script xlink:href="svgpan.js"/>
<svg id="graph" class="graph">
<g id="viewport">
<title>UIMQDispatcher&lt; DataArgs &gt;</title>
<!-- Node0 -->
<g id="node1" class="node">
<title>Node0</title>
<polygon fill="#bfbfbf" stroke="#000000" points="83.5,-785.5 83.5,-842.5 246.5,-842.5 246.5,-785.5 83.5,-785.5"/>
<text text-anchor="middle" x="165" y="-830.5" font-family="Helvetica,sans-Serif" font-size="10.00" fill="#000000">UIMQDispatcher&lt; DataArgs &gt;</text>
<polyline fill="none" stroke="#000000" points="83.5,-823.5 246.5,-823.5 "/>
<text text-anchor="start" x="91.5" y="-811.5" font-family="Helvetica,sans-Serif" font-size="10.00" fill="#000000">+ loop</text>
<polyline fill="none" stroke="#000000" points="83.5,-804.5 246.5,-804.5 "/>
<text text-anchor="start" x="91.5" y="-792.5" font-family="Helvetica,sans-Serif" font-size="10.00" fill="#000000">+ dispatch()</text>
</g>
<!-- Node1 -->
<g id="node2" class="node">
<title>Node1</title>
<g id="a_node2"><a xlink:href="structUIMQDispatcher.html" target="_top" xlink:title="{UIMQDispatcher\&lt; VariantType\l\&lt; DataList \&gt; \&gt;\n|+ loop\l|+ dispatch()\l}">
<polygon fill="none" stroke="#000000" points="0,-669.5 0,-737.5 164,-737.5 164,-669.5 0,-669.5"/>
<text text-anchor="start" x="8" y="-725.5" font-family="Helvetica,sans-Serif" font-size="10.00" fill="#000000">UIMQDispatcher&lt; VariantType</text>
<text text-anchor="middle" x="82" y="-714.5" font-family="Helvetica,sans-Serif" font-size="10.00" fill="#000000">&lt; DataList &gt; &gt;</text>
<polyline fill="none" stroke="#000000" points="0,-707.5 164,-707.5 "/>
<text text-anchor="start" x="8" y="-695.5" font-family="Helvetica,sans-Serif" font-size="10.00" fill="#000000">+ loop</text>
<polyline fill="none" stroke="#000000" points="0,-688.5 164,-688.5 "/>
<text text-anchor="start" x="8" y="-676.5" font-family="Helvetica,sans-Serif" font-size="10.00" fill="#000000">+ dispatch()</text>
</a>
</g>
</g>
<!-- Node0&#45;&gt;Node1 -->
<g id="edge1" class="edge">
<title>Node0&#45;&gt;Node1</title>
<path fill="none" stroke="#ffa500" d="M90.4297,-778.2154C87.2184,-774.784 84.3625,-771.0527 82,-767 76.8922,-758.2377 75.4556,-747.5723 75.7112,-737.5032"/>
<polygon fill="#ffa500" stroke="#ffa500" points="88.2751,-780.9921 97.9738,-785.2567 93.0514,-775.8747 88.2751,-780.9921"/>
<text text-anchor="middle" x="155" y="-759" font-family="Helvetica,sans-Serif" font-size="10.00" fill="#000000"> &lt; VariantType&lt; DataList &gt; &gt;</text>
</g>
<!-- Node6 -->
<g id="node7" class="node">
<title>Node6</title>
<g id="a_node7"><a xlink:href="structUIMQDispatcher.html" target="_top" xlink:title="{UIMQDispatcher\&lt; VariantType\l\&lt; ButtonNotifications \&gt; \&gt;\n|+ loop\l|+ dispatch()\l}">
<polygon fill="none" stroke="#000000" points="167,-582.5 167,-650.5 331,-650.5 331,-582.5 167,-582.5"/>
<text text-anchor="start" x="175" y="-638.5" font-family="Helvetica,sans-Serif" font-size="10.00" fill="#000000">UIMQDispatcher&lt; VariantType</text>
<text text-anchor="middle" x="249" y="-627.5" font-family="Helvetica,sans-Serif" font-size="10.00" fill="#000000">&lt; ButtonNotifications &gt; &gt;</text>
<polyline fill="none" stroke="#000000" points="167,-620.5 331,-620.5 "/>
<text text-anchor="start" x="175" y="-608.5" font-family="Helvetica,sans-Serif" font-size="10.00" fill="#000000">+ loop</text>
<polyline fill="none" stroke="#000000" points="167,-601.5 331,-601.5 "/>
<text text-anchor="start" x="175" y="-589.5" font-family="Helvetica,sans-Serif" font-size="10.00" fill="#000000">+ dispatch()</text>
</a>
</g>
</g>
<!-- Node0&#45;&gt;Node6 -->
<g id="edge6" class="edge">
<title>Node0&#45;&gt;Node6</title>
<path fill="none" stroke="#ffa500" d="M219.7622,-778.1297C222.8698,-774.6508 225.6701,-770.938 228,-767 249.0901,-731.3524 252.2102,-682.8237 251.4695,-650.6209"/>
<polygon fill="#ffa500" stroke="#ffa500" points="217.1221,-775.8202 212.5315,-785.3689 222.0748,-780.7671 217.1221,-775.8202"/>
<text text-anchor="middle" x="333.5" y="-759" font-family="Helvetica,sans-Serif" font-size="10.00" fill="#000000"> &lt; VariantType&lt; ButtonNotifications &gt; &gt;</text>
</g>
<!-- Node2 -->
<g id="node3" class="node">
<title>Node2</title>
<g id="a_node3"><a xlink:href="classSubject.html" target="_top" xlink:title="{Subject\&lt; VariantType\l\&lt; DataList \&gt;, UIMQDispatcher\l\&lt; VariantType\&lt; DataList \&gt; \&gt; \&gt;\n|&#45; m_Observers\l|+ addObserver()\l# Subject()\l# notifyObservers()\l# ~Subject()\l# mustNotify()\l}">
<polygon fill="none" stroke="#000000" points="0,-440.5 0,-563.5 170,-563.5 170,-440.5 0,-440.5"/>
<text text-anchor="start" x="8" y="-551.5" font-family="Helvetica,sans-Serif" font-size="10.00" fill="#000000">Subject&lt; VariantType</text>
<text text-anchor="start" x="8" y="-540.5" font-family="Helvetica,sans-Serif" font-size="10.00" fill="#000000">&lt; DataList &gt;, UIMQDispatcher</text>
<text text-anchor="middle" x="85" y="-529.5" font-family="Helvetica,sans-Serif" font-size="10.00" fill="#000000">&lt; VariantType&lt; DataList &gt; &gt; &gt;</text>
<polyline fill="none" stroke="#000000" points="0,-522.5 170,-522.5 "/>
<text text-anchor="start" x="8" y="-510.5" font-family="Helvetica,sans-Serif" font-size="10.00" fill="#000000">&#45; m_Observers</text>
<polyline fill="none" stroke="#000000" points="0,-503.5 170,-503.5 "/>
<text text-anchor="start" x="8" y="-491.5" font-family="Helvetica,sans-Serif" font-size="10.00" fill="#000000">+ addObserver()</text>
<text text-anchor="start" x="8" y="-480.5" font-family="Helvetica,sans-Serif" font-size="10.00" fill="#000000"># Subject()</text>
<text text-anchor="start" x="8" y="-469.5" font-family="Helvetica,sans-Serif" font-size="10.00" fill="#000000"># notifyObservers()</text>
<text text-anchor="start" x="8" y="-458.5" font-family="Helvetica,sans-Serif" font-size="10.00" fill="#000000"># ~Subject()</text>
<text text-anchor="start" x="8" y="-447.5" font-family="Helvetica,sans-Serif" font-size="10.00" fill="#000000"># mustNotify()</text>
</a>
</g>
</g>
<!-- Node1&#45;&gt;Node2 -->
<g id="edge2" class="edge">
<title>Node1&#45;&gt;Node2</title>
<path fill="none" stroke="#8b1a1a" d="M82.662,-659.0336C83.079,-631.0299 83.6231,-594.4839 84.0815,-563.6952"/>
<polygon fill="none" stroke="#8b1a1a" points="79.1583,-659.2672 82.5089,-669.3183 86.1575,-659.3715 79.1583,-659.2672"/>
</g>
<!-- Node3 -->
<g id="node4" class="node">
<title>Node3</title>
<g id="a_node4"><a xlink:href="structDataModel.html" target="_top" xlink:title="{DataModel\&lt; DataList \&gt;\n||+ DataModel()\l}">
<polygon fill="none" stroke="#000000" points="31,-211.5 31,-268.5 163,-268.5 163,-211.5 31,-211.5"/>
<text text-anchor="middle" x="97" y="-256.5" font-family="Helvetica,sans-Serif" font-size="10.00" fill="#000000">DataModel&lt; DataList &gt;</text>
<polyline fill="none" stroke="#000000" points="31,-249.5 163,-249.5 "/>
<text text-anchor="middle" x="97" y="-237.5" font-family="Helvetica,sans-Serif" font-size="10.00" fill="#000000"> </text>
<polyline fill="none" stroke="#000000" points="31,-230.5 163,-230.5 "/>
<text text-anchor="start" x="39" y="-218.5" font-family="Helvetica,sans-Serif" font-size="10.00" fill="#000000">+ DataModel()</text>
</a>
</g>
</g>
<!-- Node2&#45;&gt;Node3 -->
<g id="edge3" class="edge">
<title>Node2&#45;&gt;Node3</title>
<path fill="none" stroke="#191970" d="M88.2898,-430.1727C90.7266,-376.9685 93.9186,-307.278 95.6832,-268.7498"/>
<polygon fill="none" stroke="#191970" points="84.7899,-430.0917 87.8286,-440.2414 91.7826,-430.4121 84.7899,-430.0917"/>
</g>
<!-- Node4 -->
<g id="node5" class="node">
<title>Node4</title>
<g id="a_node5"><a xlink:href="structDataModel.html" target="_top" xlink:title="{DataModel\&lt; ButtonNotifications \&gt;\n||+ DataModel()\l}">
<polygon fill="none" stroke="#000000" points="88.5,-106.5 88.5,-163.5 273.5,-163.5 273.5,-106.5 88.5,-106.5"/>
<text text-anchor="middle" x="181" y="-151.5" font-family="Helvetica,sans-Serif" font-size="10.00" fill="#000000">DataModel&lt; ButtonNotifications &gt;</text>
<polyline fill="none" stroke="#000000" points="88.5,-144.5 273.5,-144.5 "/>
<text text-anchor="middle" x="181" y="-132.5" font-family="Helvetica,sans-Serif" font-size="10.00" fill="#000000"> </text>
<polyline fill="none" stroke="#000000" points="88.5,-125.5 273.5,-125.5 "/>
<text text-anchor="start" x="96.5" y="-113.5" font-family="Helvetica,sans-Serif" font-size="10.00" fill="#000000">+ DataModel()</text>
</a>
</g>
</g>
<!-- Node3&#45;&gt;Node4 -->
<g id="edge4" class="edge">
<title>Node3&#45;&gt;Node4</title>
<path fill="none" stroke="#ffa500" d="M105.0796,-201.4571C107.5699,-194.5946 110.8055,-187.796 115,-182 119.8657,-175.2765 125.9943,-169.1557 132.5452,-163.7169"/>
<polygon fill="#ffa500" stroke="#ffa500" points="101.5991,-200.8583 101.9395,-211.4477 108.277,-202.9573 101.5991,-200.8583"/>
<text text-anchor="middle" x="175" y="-185" font-family="Helvetica,sans-Serif" font-size="10.00" fill="#000000"> &lt; ButtonNotifications &gt;</text>
</g>
<!-- Node5 -->
<g id="node6" class="node">
<title>Node5</title>
<g id="a_node6"><a xlink:href="classButtonState.html" target="_top" xlink:title="{ButtonState\n|&#45; m_Status\l|+ setStatus()\l+ ~ButtonState()\l}">
<polygon fill="none" stroke="#000000" points="130.5,-.5 130.5,-68.5 231.5,-68.5 231.5,-.5 130.5,-.5"/>
<text text-anchor="middle" x="181" y="-56.5" font-family="Helvetica,sans-Serif" font-size="10.00" fill="#000000">ButtonState</text>
<polyline fill="none" stroke="#000000" points="130.5,-49.5 231.5,-49.5 "/>
<text text-anchor="start" x="138.5" y="-37.5" font-family="Helvetica,sans-Serif" font-size="10.00" fill="#000000">&#45; m_Status</text>
<polyline fill="none" stroke="#000000" points="130.5,-30.5 231.5,-30.5 "/>
<text text-anchor="start" x="138.5" y="-18.5" font-family="Helvetica,sans-Serif" font-size="10.00" fill="#000000">+ setStatus()</text>
<text text-anchor="start" x="138.5" y="-7.5" font-family="Helvetica,sans-Serif" font-size="10.00" fill="#000000">+ ~ButtonState()</text>
</a>
</g>
</g>
<!-- Node4&#45;&gt;Node5 -->
<g id="edge5" class="edge">
<title>Node4&#45;&gt;Node5</title>
<path fill="none" stroke="#191970" d="M181,-96.1903C181,-87.1667 181,-77.6233 181,-68.8097"/>
<polygon fill="none" stroke="#191970" points="177.5001,-96.4695 181,-106.4696 184.5001,-96.4696 177.5001,-96.4695"/>
</g>
<!-- Node7 -->
<g id="node8" class="node">
<title>Node7</title>
<g id="a_node8"><a xlink:href="classSubject.html" target="_top" xlink:title="{Subject\&lt; VariantType\l\&lt; ButtonNotifications\l \&gt;, UIMQDispatcher\&lt; VariantType\l\&lt; ButtonNotifications \&gt; \&gt; \&gt;\n|&#45; m_Observers\l|+ addObserver()\l# Subject()\l# notifyObservers()\l# ~Subject()\l# mustNotify()\l}">
<polygon fill="none" stroke="#000000" points="158.5,-287.5 158.5,-421.5 339.5,-421.5 339.5,-287.5 158.5,-287.5"/>
<text text-anchor="start" x="166.5" y="-409.5" font-family="Helvetica,sans-Serif" font-size="10.00" fill="#000000">Subject&lt; VariantType</text>
<text text-anchor="start" x="166.5" y="-398.5" font-family="Helvetica,sans-Serif" font-size="10.00" fill="#000000">&lt; ButtonNotifications</text>
<text text-anchor="start" x="166.5" y="-387.5" font-family="Helvetica,sans-Serif" font-size="10.00" fill="#000000"> &gt;, UIMQDispatcher&lt; VariantType</text>
<text text-anchor="middle" x="249" y="-376.5" font-family="Helvetica,sans-Serif" font-size="10.00" fill="#000000">&lt; ButtonNotifications &gt; &gt; &gt;</text>
<polyline fill="none" stroke="#000000" points="158.5,-369.5 339.5,-369.5 "/>
<text text-anchor="start" x="166.5" y="-357.5" font-family="Helvetica,sans-Serif" font-size="10.00" fill="#000000">&#45; m_Observers</text>
<polyline fill="none" stroke="#000000" points="158.5,-350.5 339.5,-350.5 "/>
<text text-anchor="start" x="166.5" y="-338.5" font-family="Helvetica,sans-Serif" font-size="10.00" fill="#000000">+ addObserver()</text>
<text text-anchor="start" x="166.5" y="-327.5" font-family="Helvetica,sans-Serif" font-size="10.00" fill="#000000"># Subject()</text>
<text text-anchor="start" x="166.5" y="-316.5" font-family="Helvetica,sans-Serif" font-size="10.00" fill="#000000"># notifyObservers()</text>
<text text-anchor="start" x="166.5" y="-305.5" font-family="Helvetica,sans-Serif" font-size="10.00" fill="#000000"># ~Subject()</text>
<text text-anchor="start" x="166.5" y="-294.5" font-family="Helvetica,sans-Serif" font-size="10.00" fill="#000000"># mustNotify()</text>
</a>
</g>
</g>
<!-- Node6&#45;&gt;Node7 -->
<g id="edge7" class="edge">
<title>Node6&#45;&gt;Node7</title>
<path fill="none" stroke="#8b1a1a" d="M249,-572.2305C249,-530.9767 249,-468.8847 249,-421.5516"/>
<polygon fill="none" stroke="#8b1a1a" points="245.5001,-572.248 249,-582.2481 252.5001,-572.2481 245.5001,-572.248"/>
</g>
<!-- Node7&#45;&gt;Node4 -->
<g id="edge8" class="edge">
<title>Node7&#45;&gt;Node4</title>
<path fill="none" stroke="#191970" d="M255.0409,-277.0796C254.3935,-246.0685 249.6068,-210.9136 235,-182 231.6375,-175.3439 226.8848,-169.2261 221.5783,-163.7599"/>
<polygon fill="none" stroke="#191970" points="251.5431,-277.4462 255.1099,-287.4225 258.543,-277.3994 251.5431,-277.4462"/>
</g>
</g>
</svg>
        <g id="navigator" transform="translate(0 0)" fill="#404254">
                <rect fill="#f2f5e9" fill-opacity="0.5" stroke="#606060" stroke-width=".5" x="0" y="0" width="60" height="60"/>
                <use id="zoomplus" xlink:href="#zoomPlus" x="17" y="9" onmousedown="handleZoom(evt,'in')"/>
                <use id="zoomminus" xlink:href="#zoomMin" x="42" y="9" onmousedown="handleZoom(evt,'out')"/>
                <use id="reset" xlink:href="#resetDef" x="30" y="36" onmousedown="handleReset()"/>
                <g id="arrowUp" xlink:href="#dirArrow" transform="translate(30 24)" onmousedown="handlePan(0,-1)">
                  <use xlink:href="#rim" fill="#404040">
                        <set attributeName="fill" to="#808080" begin="arrowUp.mouseover" end="arrowUp.mouseout"/>
                  </use>
                  <path fill="none" stroke="white" stroke-width="1.5" d="M0,-3.0v7 M-2.5,-0.5L0,-3.0L2.5,-0.5"/>
                </g>
                <g id="arrowRight" xlink:href="#dirArrow" transform="rotate(90) translate(36 -43)" onmousedown="handlePan(1,0)">
                  <use xlink:href="#rim" fill="#404040">
                        <set attributeName="fill" to="#808080" begin="arrowRight.mouseover" end="arrowRight.mouseout"/>
                  </use>
                  <path fill="none" stroke="white" stroke-width="1.5" d="M0,-3.0v7 M-2.5,-0.5L0,-3.0L2.5,-0.5"/>
                </g>
                <g id="arrowDown" xlink:href="#dirArrow" transform="rotate(180) translate(-30 -48)" onmousedown="handlePan(0,1)">
                  <use xlink:href="#rim" fill="#404040">
                        <set attributeName="fill" to="#808080" begin="arrowDown.mouseover" end="arrowDown.mouseout"/>
                  </use>
                  <path fill="none" stroke="white" stroke-width="1.5" d="M0,-3.0v7 M-2.5,-0.5L0,-3.0L2.5,-0.5"/>
                </g>
                <g id="arrowLeft" xlink:href="#dirArrow" transform="rotate(270) translate(-36 17)" onmousedown="handlePan(-1,0)">
                  <use xlink:href="#rim" fill="#404040">
                        <set attributeName="fill" to="#808080" begin="arrowLeft.mouseover" end="arrowLeft.mouseout"/>
                  </use>
                  <path fill="none" stroke="white" stroke-width="1.5" d="M0,-3.0v7 M-2.5,-0.5L0,-3.0L2.5,-0.5"/>
                </g>
        </g>
        <svg viewBox="0 0 15 15" width="100%" height="30px" preserveAspectRatio="xMaxYMin meet">
         <g id="arrow_out" transform="scale(0.3 0.3)">
          <a xlink:href="structUIMQDispatcher__inherit__graph_org.svg" target="_base">
           <rect id="button" ry="5" rx="5" y="6" x="6" height="38" width="38"
                fill="#f2f5e9" fill-opacity="0.5" stroke="#606060" stroke-width="1.0"/>
           <path id="arrow"
             d="M 11.500037,31.436501 C 11.940474,20.09759 22.043105,11.32322 32.158766,21.979434 L 37.068811,17.246167 C 37.068811,17.246167 37.088388,32 37.088388,32 L 22.160133,31.978069 C 22.160133,31.978069 26.997745,27.140456 26.997745,27.140456 C 18.528582,18.264221 13.291696,25.230495 11.500037,31.436501 z"
             style="fill:#404040;"/>
          </a>
         </g>
        </svg>
</svg>
