<?xml version="1.0" encoding="UTF-8" standalone="no"?>
<!DOCTYPE svg PUBLIC "-//W3C//DTD SVG 1.1//EN"
 "http://www.w3.org/Graphics/SVG/1.1/DTD/svg11.dtd">
<!-- Generated by graphviz version 2.40.1 (20161225.0304)
 -->
<!-- Title: DataModel&lt; DataList &gt; Pages: 1 -->
<!--zoomable 714 -->
<svg id="main" version="1.1" xmlns="http://www.w3.org/2000/svg" xmlns:xlink="http://www.w3.org/1999/xlink" xml:space="preserve" onload="init(evt)">
<style type="text/css"><![CDATA[
.edge:hover path { stroke: red; }
.edge:hover polygon { stroke: red; fill: red; }
]]></style>
<script type="text/javascript"><![CDATA[
var edges = document.getElementsByTagName('g');
if (edges && edges.length) {
  for (var i=0;i<edges.length;i++) {
    if (edges[i].id.substr(0,4)=='edge') {
      edges[i].setAttribute('class','edge');
    }
  }
}
]]></script>
        <defs>
                <circle id="rim" cx="0" cy="0" r="7"/>
                <circle id="rim2" cx="0" cy="0" r="3.5"/>
                <g id="zoomPlus">
                        <use xlink:href="#rim" fill="#404040">
                                <set attributeName="fill" to="#808080" begin="zoomplus.mouseover" end="zoomplus.mouseout"/>
                        </use>
                        <path d="M-4,0h8M0,-4v8" fill="none" stroke="white" stroke-width="1.5" pointer-events="none"/>
                </g>
                <g id="zoomMin">
                        <use xlink:href="#rim" fill="#404040">
                                <set attributeName="fill" to="#808080" begin="zoomminus.mouseover" end="zoomminus.mouseout"/>
                        </use>
                        <path d="M-4,0h8" fill="none" stroke="white" stroke-width="1.5" pointer-events="none"/>
                </g>
                <g id="dirArrow">
                        <path fill="none" stroke="white" stroke-width="1.5" d="M0,-3.0v7 M-2.5,-0.5L0,-3.0L2.5,-0.5"/>
                </g>
               <g id="resetDef">
                       <use xlink:href="#rim2" fill="#404040">
                               <set attributeName="fill" to="#808080" begin="reset.mouseover" end="reset.mouseout"/>
                       </use>
               </g>
        </defs>

<script type="text/javascript">
var viewWidth = 414;
var viewHeight = 714;
var sectionId = 'dynsection-0';
</script>
<script xlink:href="svgpan.js"/>
<svg id="graph" class="graph">
<g id="viewport">
<title>DataModel&lt; DataList &gt;</title>
<!-- Node0 -->
<g id="node1" class="node">
<title>Node0</title>
<polygon fill="#bfbfbf" stroke="#000000" points="29,-211.5 29,-268.5 161,-268.5 161,-211.5 29,-211.5"/>
<text text-anchor="middle" x="95" y="-256.5" font-family="Helvetica,sans-Serif" font-size="10.00" fill="#000000">DataModel&lt; DataList &gt;</text>
<polyline fill="none" stroke="#000000" points="29,-249.5 161,-249.5 "/>
<text text-anchor="middle" x="95" y="-237.5" font-family="Helvetica,sans-Serif" font-size="10.00" fill="#000000"> </text>
<polyline fill="none" stroke="#000000" points="29,-230.5 161,-230.5 "/>
<text text-anchor="start" x="37" y="-218.5" font-family="Helvetica,sans-Serif" font-size="10.00" fill="#000000">+ DataModel()</text>
</g>
<!-- Node7 -->
<g id="node8" class="node">
<title>Node7</title>
<g id="a_node8"><a xlink:href="structDataModel.html" target="_top" xlink:title="{DataModel\&lt; ButtonNotifications \&gt;\n||+ DataModel()\l}">
<polygon fill="none" stroke="#000000" points="2.5,-106.5 2.5,-163.5 187.5,-163.5 187.5,-106.5 2.5,-106.5"/>
<text text-anchor="middle" x="95" y="-151.5" font-family="Helvetica,sans-Serif" font-size="10.00" fill="#000000">DataModel&lt; ButtonNotifications &gt;</text>
<polyline fill="none" stroke="#000000" points="2.5,-144.5 187.5,-144.5 "/>
<text text-anchor="middle" x="95" y="-132.5" font-family="Helvetica,sans-Serif" font-size="10.00" fill="#000000"> </text>
<polyline fill="none" stroke="#000000" points="2.5,-125.5 187.5,-125.5 "/>
<text text-anchor="start" x="10.5" y="-113.5" font-family="Helvetica,sans-Serif" font-size="10.00" fill="#000000">+ DataModel()</text>
</a>
</g>
</g>
<!-- Node0&#45;&gt;Node7 -->
<g id="edge7" class="edge">
<title>Node0&#45;&gt;Node7</title>
<path fill="none" stroke="#ffa500" d="M95,-201.192C95,-188.7605 95,-175.2278 95,-163.657"/>
<polygon fill="#ffa500" stroke="#ffa500" points="91.5001,-201.3083 95,-211.3083 98.5001,-201.3083 91.5001,-201.3083"/>
<text text-anchor="middle" x="155" y="-185" font-family="Helvetica,sans-Serif" font-size="10.00" fill="#000000"> &lt; ButtonNotifications &gt;</text>
</g>
<!-- Node1 -->
<g id="node2" class="node">
<title>Node1</title>
<g id="a_node2"><a xlink:href="classiModel.html" target="_top" xlink:title="{iModel\n||+ ~iModel()\l}">
<polygon fill="none" stroke="#000000" points="16,-339.5 16,-396.5 92,-396.5 92,-339.5 16,-339.5"/>
<text text-anchor="middle" x="54" y="-384.5" font-family="Helvetica,sans-Serif" font-size="10.00" fill="#000000">iModel</text>
<polyline fill="none" stroke="#000000" points="16,-377.5 92,-377.5 "/>
<text text-anchor="middle" x="54" y="-365.5" font-family="Helvetica,sans-Serif" font-size="10.00" fill="#000000"> </text>
<polyline fill="none" stroke="#000000" points="16,-358.5 92,-358.5 "/>
<text text-anchor="start" x="24" y="-346.5" font-family="Helvetica,sans-Serif" font-size="10.00" fill="#000000">+ ~iModel()</text>
</a>
</g>
</g>
<!-- Node1&#45;&gt;Node0 -->
<g id="edge1" class="edge">
<title>Node1&#45;&gt;Node0</title>
<path fill="none" stroke="#191970" d="M66.2637,-329.7135C72.5431,-310.1093 80.0592,-286.6443 85.8295,-268.6298"/>
<polygon fill="none" stroke="#191970" points="62.9185,-328.6832 63.2012,-339.2743 69.5849,-330.8186 62.9185,-328.6832"/>
</g>
<!-- Node2 -->
<g id="node3" class="node">
<title>Node2</title>
<g id="a_node3"><a xlink:href="classSubject.html" target="_top" xlink:title="{Subject\&lt; VariantType\l\&lt; DataList \&gt;, UIMQDispatcher\l\&lt; VariantType\&lt; DataList \&gt; \&gt; \&gt;\n|&#45; m_Observers\l|+ addObserver()\l# Subject()\l# notifyObservers()\l# ~Subject()\l# mustNotify()\l}">
<polygon fill="none" stroke="#000000" points="110,-306.5 110,-429.5 280,-429.5 280,-306.5 110,-306.5"/>
<text text-anchor="start" x="118" y="-417.5" font-family="Helvetica,sans-Serif" font-size="10.00" fill="#000000">Subject&lt; VariantType</text>
<text text-anchor="start" x="118" y="-406.5" font-family="Helvetica,sans-Serif" font-size="10.00" fill="#000000">&lt; DataList &gt;, UIMQDispatcher</text>
<text text-anchor="middle" x="195" y="-395.5" font-family="Helvetica,sans-Serif" font-size="10.00" fill="#000000">&lt; VariantType&lt; DataList &gt; &gt; &gt;</text>
<polyline fill="none" stroke="#000000" points="110,-388.5 280,-388.5 "/>
<text text-anchor="start" x="118" y="-376.5" font-family="Helvetica,sans-Serif" font-size="10.00" fill="#000000">&#45; m_Observers</text>
<polyline fill="none" stroke="#000000" points="110,-369.5 280,-369.5 "/>
<text text-anchor="start" x="118" y="-357.5" font-family="Helvetica,sans-Serif" font-size="10.00" fill="#000000">+ addObserver()</text>
<text text-anchor="start" x="118" y="-346.5" font-family="Helvetica,sans-Serif" font-size="10.00" fill="#000000"># Subject()</text>
<text text-anchor="start" x="118" y="-335.5" font-family="Helvetica,sans-Serif" font-size="10.00" fill="#000000"># notifyObservers()</text>
<text text-anchor="start" x="118" y="-324.5" font-family="Helvetica,sans-Serif" font-size="10.00" fill="#000000"># ~Subject()</text>
<text text-anchor="start" x="118" y="-313.5" font-family="Helvetica,sans-Serif" font-size="10.00" fill="#000000"># mustNotify()</text>
</a>
</g>
</g>
<!-- Node2&#45;&gt;Node0 -->
<g id="edge2" class="edge">
<title>Node2&#45;&gt;Node0</title>
<path fill="none" stroke="#191970" d="M140.4902,-298.2274C132.3166,-287.7652 124.3051,-277.5105 117.3389,-268.5937"/>
<polygon fill="none" stroke="#191970" points="137.8429,-300.5241 146.7575,-306.2496 143.3591,-296.2146 137.8429,-300.5241"/>
</g>
<!-- Node3 -->
<g id="node4" class="node">
<title>Node3</title>
<g id="a_node4"><a xlink:href="structUIMQDispatcher.html" target="_top" xlink:title="{UIMQDispatcher\&lt; VariantType\l\&lt; DataList \&gt; \&gt;\n|+ loop\l|+ dispatch()\l}">
<polygon fill="none" stroke="#000000" points="0,-516 0,-584 164,-584 164,-516 0,-516"/>
<text text-anchor="start" x="8" y="-572" font-family="Helvetica,sans-Serif" font-size="10.00" fill="#000000">UIMQDispatcher&lt; VariantType</text>
<text text-anchor="middle" x="82" y="-561" font-family="Helvetica,sans-Serif" font-size="10.00" fill="#000000">&lt; DataList &gt; &gt;</text>
<polyline fill="none" stroke="#000000" points="0,-554 164,-554 "/>
<text text-anchor="start" x="8" y="-542" font-family="Helvetica,sans-Serif" font-size="10.00" fill="#000000">+ loop</text>
<polyline fill="none" stroke="#000000" points="0,-535 164,-535 "/>
<text text-anchor="start" x="8" y="-523" font-family="Helvetica,sans-Serif" font-size="10.00" fill="#000000">+ dispatch()</text>
</a>
</g>
</g>
<!-- Node3&#45;&gt;Node2 -->
<g id="edge3" class="edge">
<title>Node3&#45;&gt;Node2</title>
<path fill="none" stroke="#8b1a1a" d="M108.5614,-507.2197C122.9019,-484.1226 140.8607,-455.1978 156.6879,-429.7062"/>
<polygon fill="none" stroke="#8b1a1a" points="105.5558,-505.4253 103.2544,-515.7672 111.5028,-509.1177 105.5558,-505.4253"/>
</g>
<!-- Node4 -->
<g id="node5" class="node">
<title>Node4</title>
<g id="a_node5"><a xlink:href="structUIMQDispatcher.html" target="_top" xlink:title="An asynchronous dispatch to Observers based on a UIMessageQueue processed on another thread...">
<polygon fill="none" stroke="#000000" points=".5,-648.5 .5,-705.5 163.5,-705.5 163.5,-648.5 .5,-648.5"/>
<text text-anchor="middle" x="82" y="-693.5" font-family="Helvetica,sans-Serif" font-size="10.00" fill="#000000">UIMQDispatcher&lt; DataArgs &gt;</text>
<polyline fill="none" stroke="#000000" points=".5,-686.5 163.5,-686.5 "/>
<text text-anchor="start" x="8.5" y="-674.5" font-family="Helvetica,sans-Serif" font-size="10.00" fill="#000000">+ loop</text>
<polyline fill="none" stroke="#000000" points=".5,-667.5 163.5,-667.5 "/>
<text text-anchor="start" x="8.5" y="-655.5" font-family="Helvetica,sans-Serif" font-size="10.00" fill="#000000">+ dispatch()</text>
</a>
</g>
</g>
<!-- Node4&#45;&gt;Node3 -->
<g id="edge4" class="edge">
<title>Node4&#45;&gt;Node3</title>
<path fill="none" stroke="#ffa500" d="M82,-638.2111C82,-621.0027 82,-600.9257 82,-584.2765"/>
<polygon fill="#ffa500" stroke="#ffa500" points="78.5001,-638.4987 82,-648.4987 85.5001,-638.4988 78.5001,-638.4987"/>
<text text-anchor="middle" x="155" y="-622" font-family="Helvetica,sans-Serif" font-size="10.00" fill="#000000"> &lt; VariantType&lt; DataList &gt; &gt;</text>
</g>
<!-- Node5 -->
<g id="node6" class="node">
<title>Node5</title>
<g id="a_node6"><a xlink:href="classSubject.html" target="_top" xlink:title="Allows to notify Observers about events. ">
<polygon fill="none" stroke="#000000" points="182,-499.5 182,-600.5 358,-600.5 358,-499.5 182,-499.5"/>
<text text-anchor="middle" x="270" y="-588.5" font-family="Helvetica,sans-Serif" font-size="10.00" fill="#000000">Subject&lt; Data, DispatchPolicy &gt;</text>
<polyline fill="none" stroke="#000000" points="182,-581.5 358,-581.5 "/>
<text text-anchor="start" x="190" y="-569.5" font-family="Helvetica,sans-Serif" font-size="10.00" fill="#000000">&#45; m_Observers</text>
<polyline fill="none" stroke="#000000" points="182,-562.5 358,-562.5 "/>
<text text-anchor="start" x="190" y="-550.5" font-family="Helvetica,sans-Serif" font-size="10.00" fill="#000000">+ addObserver()</text>
<text text-anchor="start" x="190" y="-539.5" font-family="Helvetica,sans-Serif" font-size="10.00" fill="#000000"># Subject()</text>
<text text-anchor="start" x="190" y="-528.5" font-family="Helvetica,sans-Serif" font-size="10.00" fill="#000000"># notifyObservers()</text>
<text text-anchor="start" x="190" y="-517.5" font-family="Helvetica,sans-Serif" font-size="10.00" fill="#000000"># ~Subject()</text>
<text text-anchor="start" x="190" y="-506.5" font-family="Helvetica,sans-Serif" font-size="10.00" fill="#000000"># mustNotify()</text>
</a>
</g>
</g>
<!-- Node5&#45;&gt;Node2 -->
<g id="edge5" class="edge">
<title>Node5&#45;&gt;Node2</title>
<path fill="none" stroke="#ffa500" d="M245.2747,-490C237.3074,-470.666 228.4664,-449.2118 220.448,-429.7538"/>
<polygon fill="#ffa500" stroke="#ffa500" points="242.0622,-491.3907 249.1083,-499.3029 248.5342,-488.7236 242.0622,-491.3907"/>
<text text-anchor="start" x="241" y="-473" font-family="Helvetica,sans-Serif" font-size="10.00" fill="#000000"> &lt; VariantType&lt; DataList</text>
<text text-anchor="start" x="241" y="-462" font-family="Helvetica,sans-Serif" font-size="10.00" fill="#000000"> &gt;, UIMQDispatcher&lt; VariantType</text>
<text text-anchor="middle" x="323.5" y="-451" font-family="Helvetica,sans-Serif" font-size="10.00" fill="#000000">&lt; DataList &gt; &gt; &gt;</text>
</g>
<!-- Node6 -->
<g id="node7" class="node">
<title>Node6</title>
<polygon fill="none" stroke="#bfbfbf" points="225.5,-648.5 225.5,-705.5 314.5,-705.5 314.5,-648.5 225.5,-648.5"/>
<text text-anchor="middle" x="270" y="-693.5" font-family="Helvetica,sans-Serif" font-size="10.00" fill="#000000">DispatchPolicy</text>
<polyline fill="none" stroke="#bfbfbf" points="225.5,-686.5 314.5,-686.5 "/>
<text text-anchor="middle" x="270" y="-674.5" font-family="Helvetica,sans-Serif" font-size="10.00" fill="#000000"> </text>
<polyline fill="none" stroke="#bfbfbf" points="225.5,-667.5 314.5,-667.5 "/>
<text text-anchor="middle" x="270" y="-655.5" font-family="Helvetica,sans-Serif" font-size="10.00" fill="#000000"> </text>
</g>
<!-- Node6&#45;&gt;Node5 -->
<g id="edge6" class="edge">
<title>Node6&#45;&gt;Node5</title>
<path fill="none" stroke="#8b1a1a" d="M270,-638.4413C270,-626.5288 270,-613.224 270,-600.625"/>
<polygon fill="none" stroke="#8b1a1a" points="266.5001,-638.4987 270,-648.4987 273.5001,-638.4988 266.5001,-638.4987"/>
</g>
<!-- Node8 -->
<g id="node9" class="node">
<title>Node8</title>
<g id="a_node9"><a xlink:href="classButtonState.html" target="_top" xlink:title="{ButtonState\n|&#45; m_Status\l|+ setStatus()\l+ ~ButtonState()\l}">
<polygon fill="none" stroke="#000000" points="44.5,-.5 44.5,-68.5 145.5,-68.5 145.5,-.5 44.5,-.5"/>
<text text-anchor="middle" x="95" y="-56.5" font-family="Helvetica,sans-Serif" font-size="10.00" fill="#000000">ButtonState</text>
<polyline fill="none" stroke="#000000" points="44.5,-49.5 145.5,-49.5 "/>
<text text-anchor="start" x="52.5" y="-37.5" font-family="Helvetica,sans-Serif" font-size="10.00" fill="#000000">&#45; m_Status</text>
<polyline fill="none" stroke="#000000" points="44.5,-30.5 145.5,-30.5 "/>
<text text-anchor="start" x="52.5" y="-18.5" font-family="Helvetica,sans-Serif" font-size="10.00" fill="#000000">+ setStatus()</text>
<text text-anchor="start" x="52.5" y="-7.5" font-family="Helvetica,sans-Serif" font-size="10.00" fill="#000000">+ ~ButtonState()</text>
</a>
</g>
</g>
<!-- Node7&#45;&gt;Node8 -->
<g id="edge8" class="edge">
<title>Node7&#45;&gt;Node8</title>
<path fill="none" stroke="#191970" d="M95,-96.1903C95,-87.1667 95,-77.6233 95,-68.8097"/>
<polygon fill="none" stroke="#191970" points="91.5001,-96.4695 95,-106.4696 98.5001,-96.4696 91.5001,-96.4695"/>
</g>
</g>
</svg>
        <g id="navigator" transform="translate(0 0)" fill="#404254">
                <rect fill="#f2f5e9" fill-opacity="0.5" stroke="#606060" stroke-width=".5" x="0" y="0" width="60" height="60"/>
                <use id="zoomplus" xlink:href="#zoomPlus" x="17" y="9" onmousedown="handleZoom(evt,'in')"/>
                <use id="zoomminus" xlink:href="#zoomMin" x="42" y="9" onmousedown="handleZoom(evt,'out')"/>
                <use id="reset" xlink:href="#resetDef" x="30" y="36" onmousedown="handleReset()"/>
                <g id="arrowUp" xlink:href="#dirArrow" transform="translate(30 24)" onmousedown="handlePan(0,-1)">
                  <use xlink:href="#rim" fill="#404040">
                        <set attributeName="fill" to="#808080" begin="arrowUp.mouseover" end="arrowUp.mouseout"/>
                  </use>
                  <path fill="none" stroke="white" stroke-width="1.5" d="M0,-3.0v7 M-2.5,-0.5L0,-3.0L2.5,-0.5"/>
                </g>
                <g id="arrowRight" xlink:href="#dirArrow" transform="rotate(90) translate(36 -43)" onmousedown="handlePan(1,0)">
                  <use xlink:href="#rim" fill="#404040">
                        <set attributeName="fill" to="#808080" begin="arrowRight.mouseover" end="arrowRight.mouseout"/>
                  </use>
                  <path fill="none" stroke="white" stroke-width="1.5" d="M0,-3.0v7 M-2.5,-0.5L0,-3.0L2.5,-0.5"/>
                </g>
                <g id="arrowDown" xlink:href="#dirArrow" transform="rotate(180) translate(-30 -48)" onmousedown="handlePan(0,1)">
                  <use xlink:href="#rim" fill="#404040">
                        <set attributeName="fill" to="#808080" begin="arrowDown.mouseover" end="arrowDown.mouseout"/>
                  </use>
                  <path fill="none" stroke="white" stroke-width="1.5" d="M0,-3.0v7 M-2.5,-0.5L0,-3.0L2.5,-0.5"/>
                </g>
                <g id="arrowLeft" xlink:href="#dirArrow" transform="rotate(270) translate(-36 17)" onmousedown="handlePan(-1,0)">
                  <use xlink:href="#rim" fill="#404040">
                        <set attributeName="fill" to="#808080" begin="arrowLeft.mouseover" end="arrowLeft.mouseout"/>
                  </use>
                  <path fill="none" stroke="white" stroke-width="1.5" d="M0,-3.0v7 M-2.5,-0.5L0,-3.0L2.5,-0.5"/>
                </g>
        </g>
        <svg viewBox="0 0 15 15" width="100%" height="30px" preserveAspectRatio="xMaxYMin meet">
         <g id="arrow_out" transform="scale(0.3 0.3)">
          <a xlink:href="structDataModel__inherit__graph_org.svg" target="_base">
           <rect id="button" ry="5" rx="5" y="6" x="6" height="38" width="38"
                fill="#f2f5e9" fill-opacity="0.5" stroke="#606060" stroke-width="1.0"/>
           <path id="arrow"
             d="M 11.500037,31.436501 C 11.940474,20.09759 22.043105,11.32322 32.158766,21.979434 L 37.068811,17.246167 C 37.068811,17.246167 37.088388,32 37.088388,32 L 22.160133,31.978069 C 22.160133,31.978069 26.997745,27.140456 26.997745,27.140456 C 18.528582,18.264221 13.291696,25.230495 11.500037,31.436501 z"
             style="fill:#404040;"/>
          </a>
         </g>
        </svg>
</svg>
