<?xml version="1.0" encoding="UTF-8" standalone="no"?>
<!DOCTYPE svg PUBLIC "-//W3C//DTD SVG 1.1//EN"
 "http://www.w3.org/Graphics/SVG/1.1/DTD/svg11.dtd">
<!-- Generated by graphviz version 2.40.1 (20161225.0304)
 -->
<!-- Title: NeighborNode Pages: 1 -->
<svg width="222pt" height="518pt"
 viewBox="0.00 0.00 222.00 518.00" xmlns="http://www.w3.org/2000/svg" xmlns:xlink="http://www.w3.org/1999/xlink">
<g id="graph0" class="graph" transform="scale(1 1) rotate(0) translate(4 514)">
<title>NeighborNode</title>
<!-- Node1 -->
<g id="node1" class="node">
<title>Node1</title>
<polygon fill="#bfbfbf" stroke="#000000" points="37,-.5 37,-57.5 123,-57.5 123,-.5 37,-.5"/>
<text text-anchor="middle" x="80" y="-45.5" font-family="Helvetica,sans-Serif" font-size="10.00" fill="#000000">NeighborNode</text>
<polyline fill="none" stroke="#000000" points="37,-38.5 123,-38.5 "/>
<text text-anchor="start" x="45" y="-26.5" font-family="Helvetica,sans-Serif" font-size="10.00" fill="#000000">+ position</text>
<polyline fill="none" stroke="#000000" points="37,-19.5 123,-19.5 "/>
<text text-anchor="middle" x="80" y="-7.5" font-family="Helvetica,sans-Serif" font-size="10.00" fill="#000000"> </text>
</g>
<!-- Node2 -->
<g id="node2" class="node">
<title>Node2</title>
<g id="a_node2"><a xlink:href="classMapNode.html" target="_top" xlink:title="Class that holds map nodes Each tile is represented by the map nodes class. ">
<polygon fill="none" stroke="#000000" points="10.5,-105.5 10.5,-360.5 149.5,-360.5 149.5,-105.5 10.5,-105.5"/>
<text text-anchor="middle" x="80" y="-348.5" font-family="Helvetica,sans-Serif" font-size="10.00" fill="#000000">MapNode</text>
<polyline fill="none" stroke="#000000" points="10.5,-341.5 149.5,-341.5 "/>
<text text-anchor="start" x="18.5" y="-329.5" font-family="Helvetica,sans-Serif" font-size="10.00" fill="#000000">+ maxHeight</text>
<text text-anchor="start" x="18.5" y="-318.5" font-family="Helvetica,sans-Serif" font-size="10.00" fill="#000000">&#45; m_sprite</text>
<text text-anchor="start" x="18.5" y="-307.5" font-family="Helvetica,sans-Serif" font-size="10.00" fill="#000000">&#45; m_autotileOrientation</text>
<text text-anchor="start" x="18.5" y="-296.5" font-family="Helvetica,sans-Serif" font-size="10.00" fill="#000000">&#45; m_elevationOrientation</text>
<text text-anchor="start" x="18.5" y="-285.5" font-family="Helvetica,sans-Serif" font-size="10.00" fill="#000000">&#45; m_clippingWidth</text>
<text text-anchor="start" x="18.5" y="-274.5" font-family="Helvetica,sans-Serif" font-size="10.00" fill="#000000">&#45; m_mapNodeData</text>
<text text-anchor="start" x="18.5" y="-263.5" font-family="Helvetica,sans-Serif" font-size="10.00" fill="#000000">&#45; m_autotileBitmask</text>
<text text-anchor="start" x="18.5" y="-252.5" font-family="Helvetica,sans-Serif" font-size="10.00" fill="#000000">&#45; m_elevationBitmask</text>
<polyline fill="none" stroke="#000000" points="10.5,-245.5 149.5,-245.5 "/>
<text text-anchor="start" x="18.5" y="-233.5" font-family="Helvetica,sans-Serif" font-size="10.00" fill="#000000">+ MapNode()</text>
<text text-anchor="start" x="18.5" y="-222.5" font-family="Helvetica,sans-Serif" font-size="10.00" fill="#000000">+ MapNode()</text>
<text text-anchor="start" x="18.5" y="-211.5" font-family="Helvetica,sans-Serif" font-size="10.00" fill="#000000">+ ~MapNode()</text>
<text text-anchor="start" x="18.5" y="-200.5" font-family="Helvetica,sans-Serif" font-size="10.00" fill="#000000">+ getSprite()</text>
<text text-anchor="start" x="18.5" y="-189.5" font-family="Helvetica,sans-Serif" font-size="10.00" fill="#000000">+ getCoordinates()</text>
<text text-anchor="start" x="18.5" y="-178.5" font-family="Helvetica,sans-Serif" font-size="10.00" fill="#000000">+ setCoordinates()</text>
<text text-anchor="start" x="18.5" y="-167.5" font-family="Helvetica,sans-Serif" font-size="10.00" fill="#000000">+ changeHeight()</text>
<text text-anchor="start" x="18.5" y="-156.5" font-family="Helvetica,sans-Serif" font-size="10.00" fill="#000000">+ render()</text>
<text text-anchor="start" x="18.5" y="-145.5" font-family="Helvetica,sans-Serif" font-size="10.00" fill="#000000">+ setBitmask()</text>
<text text-anchor="start" x="18.5" y="-134.5" font-family="Helvetica,sans-Serif" font-size="10.00" fill="#000000">+ getElevationBitmask()</text>
<text text-anchor="start" x="18.5" y="-123.5" font-family="Helvetica,sans-Serif" font-size="10.00" fill="#000000">and 21 more...</text>
<text text-anchor="start" x="18.5" y="-112.5" font-family="Helvetica,sans-Serif" font-size="10.00" fill="#000000">+ isDataAutoTile()</text>
</a>
</g>
</g>
<!-- Node2&#45;&gt;Node1 -->
<g id="edge1" class="edge">
<title>Node2&#45;&gt;Node1</title>
<path fill="none" stroke="#404040" d="M80,-105.2522C80,-92.5792 80,-80.4736 80,-69.7898"/>
<polygon fill="none" stroke="#404040" points="80.0001,-69.5205 76,-63.5205 80,-57.5205 84,-63.5205 80.0001,-69.5205"/>
<text text-anchor="middle" x="101.5" y="-79" font-family="Helvetica,sans-Serif" font-size="10.00" fill="#000000"> +pNode</text>
</g>
<!-- Node3 -->
<g id="node3" class="node">
<title>Node3</title>
<polygon fill="none" stroke="#bfbfbf" points="0,-430.5 0,-487.5 44,-487.5 44,-430.5 0,-430.5"/>
<text text-anchor="middle" x="22" y="-475.5" font-family="Helvetica,sans-Serif" font-size="10.00" fill="#000000">string</text>
<polyline fill="none" stroke="#bfbfbf" points="0,-468.5 44,-468.5 "/>
<text text-anchor="middle" x="22" y="-456.5" font-family="Helvetica,sans-Serif" font-size="10.00" fill="#000000"> </text>
<polyline fill="none" stroke="#bfbfbf" points="0,-449.5 44,-449.5 "/>
<text text-anchor="middle" x="22" y="-437.5" font-family="Helvetica,sans-Serif" font-size="10.00" fill="#000000"> </text>
</g>
<!-- Node3&#45;&gt;Node2 -->
<g id="edge2" class="edge">
<title>Node3&#45;&gt;Node2</title>
<path fill="none" stroke="#404040" d="M19.8846,-430.2364C19.3755,-414.8926 19.7339,-395.7696 23,-379 23.4206,-376.8404 23.8715,-374.6715 24.3504,-372.4961"/>
<polygon fill="none" stroke="#404040" points="24.3536,-372.4824 21.8705,-365.7123 27.1647,-360.8163 29.6479,-367.5864 24.3536,-372.4824"/>
<text text-anchor="middle" x="69.5" y="-382" font-family="Helvetica,sans-Serif" font-size="10.00" fill="#000000"> &#45;m_previousTileID</text>
</g>
<!-- Node4 -->
<g id="node4" class="node">
<title>Node4</title>
<g id="a_node4"><a xlink:href="classPoint.html" target="_top" xlink:title="{Point\n|+ x\l+ y\l+ z\l+ height\l|+ operator==()\l+ operator!=()\l}">
<polygon fill="none" stroke="#000000" points="91.5,-408.5 91.5,-509.5 184.5,-509.5 184.5,-408.5 91.5,-408.5"/>
<text text-anchor="middle" x="138" y="-497.5" font-family="Helvetica,sans-Serif" font-size="10.00" fill="#000000">Point</text>
<polyline fill="none" stroke="#000000" points="91.5,-490.5 184.5,-490.5 "/>
<text text-anchor="start" x="99.5" y="-478.5" font-family="Helvetica,sans-Serif" font-size="10.00" fill="#000000">+ x</text>
<text text-anchor="start" x="99.5" y="-467.5" font-family="Helvetica,sans-Serif" font-size="10.00" fill="#000000">+ y</text>
<text text-anchor="start" x="99.5" y="-456.5" font-family="Helvetica,sans-Serif" font-size="10.00" fill="#000000">+ z</text>
<text text-anchor="start" x="99.5" y="-445.5" font-family="Helvetica,sans-Serif" font-size="10.00" fill="#000000">+ height</text>
<polyline fill="none" stroke="#000000" points="91.5,-438.5 184.5,-438.5 "/>
<text text-anchor="start" x="99.5" y="-426.5" font-family="Helvetica,sans-Serif" font-size="10.00" fill="#000000">+ operator==()</text>
<text text-anchor="start" x="99.5" y="-415.5" font-family="Helvetica,sans-Serif" font-size="10.00" fill="#000000">+ operator!=()</text>
</a>
</g>
</g>
<!-- Node4&#45;&gt;Node2 -->
<g id="edge3" class="edge">
<title>Node4&#45;&gt;Node2</title>
<path fill="none" stroke="#404040" d="M124.9837,-408.2812C122.1453,-397.2212 119.0098,-385.0036 115.754,-372.3175"/>
<polygon fill="none" stroke="#404040" points="115.7184,-372.1783 110.3524,-367.361 112.7353,-360.5549 118.1013,-365.3723 115.7184,-372.1783"/>
<text text-anchor="middle" x="166.5" y="-382" font-family="Helvetica,sans-Serif" font-size="10.00" fill="#000000"> &#45;m_isoCoordinates</text>
</g>
</g>
</svg>
