<?xml version="1.0" encoding="UTF-8" standalone="no"?>
<!DOCTYPE svg PUBLIC "-//W3C//DTD SVG 1.1//EN"
 "http://www.w3.org/Graphics/SVG/1.1/DTD/svg11.dtd">
<!-- Generated by graphviz version 2.40.1 (20161225.0304)
 -->
<!-- Title: src/engine/ui/widgets/Text.cxx Pages: 1 -->
<svg width="2145pt" height="431pt"
 viewBox="0.00 0.00 2145.00 431.00" xmlns="http://www.w3.org/2000/svg" xmlns:xlink="http://www.w3.org/1999/xlink">
<g id="graph0" class="graph" transform="scale(1 1) rotate(0) translate(4 427)">
<title>src/engine/ui/widgets/Text.cxx</title>
<!-- Node0 -->
<g id="node1" class="node">
<title>Node0</title>
<polygon fill="#bfbfbf" stroke="#000000" points="1459.5,-392.5 1459.5,-422.5 1579.5,-422.5 1579.5,-392.5 1459.5,-392.5"/>
<text text-anchor="start" x="1467.5" y="-410.5" font-family="Helvetica,sans-Serif" font-size="10.00" fill="#000000">src/engine/ui/widgets</text>
<text text-anchor="middle" x="1519.5" y="-399.5" font-family="Helvetica,sans-Serif" font-size="10.00" fill="#000000">/Text.cxx</text>
</g>
<!-- Node1 -->
<g id="node2" class="node">
<title>Node1</title>
<g id="a_node2"><a xlink:href="Text_8hxx.html" target="_top" xlink:title="Text.hxx">
<polygon fill="none" stroke="#000000" points="664.5,-336.5 664.5,-355.5 722.5,-355.5 722.5,-336.5 664.5,-336.5"/>
<text text-anchor="middle" x="693.5" y="-343.5" font-family="Helvetica,sans-Serif" font-size="10.00" fill="#000000">Text.hxx</text>
</a>
</g>
</g>
<!-- Node0&#45;&gt;Node1 -->
<g id="edge1" class="edge">
<title>Node0&#45;&gt;Node1</title>
<path fill="none" stroke="#191970" d="M1459.4308,-403.0275C1299.3062,-391.1054 865.4061,-358.7993 732.6348,-348.9138"/>
<polygon fill="#191970" stroke="#191970" points="732.7542,-345.4131 722.5219,-348.1608 732.2344,-352.3938 732.7542,-345.4131"/>
</g>
<!-- Node24 -->
<g id="node22" class="node">
<title>Node24</title>
<g id="a_node22"><a xlink:href="LOG_8hxx.html" target="_top" xlink:title="LOG.hxx">
<polygon fill="none" stroke="#000000" points="1663.5,-112.5 1663.5,-131.5 1721.5,-131.5 1721.5,-112.5 1663.5,-112.5"/>
<text text-anchor="middle" x="1692.5" y="-119.5" font-family="Helvetica,sans-Serif" font-size="10.00" fill="#000000">LOG.hxx</text>
</a>
</g>
</g>
<!-- Node0&#45;&gt;Node24 -->
<g id="edge34" class="edge">
<title>Node0&#45;&gt;Node24</title>
<path fill="none" stroke="#191970" d="M1579.6953,-402.6169C1692.5157,-391.7964 1924.5,-360.924 1924.5,-290 1924.5,-290 1924.5,-290 1924.5,-234 1924.5,-191.6709 1797.667,-150.7073 1731.5585,-132.231"/>
<polygon fill="#191970" stroke="#191970" points="1732.4534,-128.8472 1721.883,-129.5662 1730.5946,-135.5959 1732.4534,-128.8472"/>
</g>
<!-- Node25 -->
<g id="node23" class="node">
<title>Node25</title>
<g id="a_node23"><a xlink:href="Exception_8hxx.html" target="_top" xlink:title="Exception.hxx">
<polygon fill="none" stroke="#000000" points="2020.5,-56.5 2020.5,-75.5 2106.5,-75.5 2106.5,-56.5 2020.5,-56.5"/>
<text text-anchor="middle" x="2063.5" y="-63.5" font-family="Helvetica,sans-Serif" font-size="10.00" fill="#000000">Exception.hxx</text>
</a>
</g>
</g>
<!-- Node0&#45;&gt;Node25 -->
<g id="edge53" class="edge">
<title>Node0&#45;&gt;Node25</title>
<path fill="none" stroke="#191970" d="M1579.706,-404.1102C1700.8304,-395.6377 1962.5,-368.2761 1962.5,-290 1962.5,-290 1962.5,-290 1962.5,-178 1962.5,-133.8652 2006.2888,-99.2933 2036.2012,-80.8258"/>
<polygon fill="#191970" stroke="#191970" points="2038.1617,-83.7323 2044.975,-75.6188 2034.5892,-77.7126 2038.1617,-83.7323"/>
</g>
<!-- Node38 -->
<g id="node36" class="node">
<title>Node38</title>
<g id="a_node36"><a xlink:href="Settings_8hxx.html" target="_top" xlink:title="Settings.hxx">
<polygon fill="none" stroke="#000000" points="0,-112.5 0,-131.5 77,-131.5 77,-112.5 0,-112.5"/>
<text text-anchor="middle" x="38.5" y="-119.5" font-family="Helvetica,sans-Serif" font-size="10.00" fill="#000000">Settings.hxx</text>
</a>
</g>
</g>
<!-- Node0&#45;&gt;Node38 -->
<g id="edge54" class="edge">
<title>Node0&#45;&gt;Node38</title>
<path fill="none" stroke="#191970" d="M1459.298,-405.8815C1183.4349,-398.077 53.5,-361.7318 53.5,-290 53.5,-290 53.5,-290 53.5,-234 53.5,-201.2739 47.1307,-163.641 42.693,-141.3923"/>
<polygon fill="#191970" stroke="#191970" points="46.1058,-140.6123 40.6491,-131.5307 39.2515,-142.0329 46.1058,-140.6123"/>
</g>
<!-- Node40 -->
<g id="node38" class="node">
<title>Node40</title>
<g id="a_node38"><a xlink:href="Filesystem_8hxx.html" target="_top" xlink:title="Filesystem.hxx">
<polygon fill="none" stroke="#000000" points="1114.5,-336.5 1114.5,-355.5 1204.5,-355.5 1204.5,-336.5 1114.5,-336.5"/>
<text text-anchor="middle" x="1159.5" y="-343.5" font-family="Helvetica,sans-Serif" font-size="10.00" fill="#000000">Filesystem.hxx</text>
</a>
</g>
</g>
<!-- Node0&#45;&gt;Node40 -->
<g id="edge59" class="edge">
<title>Node0&#45;&gt;Node40</title>
<path fill="none" stroke="#191970" d="M1459.2441,-397.2063C1391.0348,-385.5539 1280.8412,-366.7291 1214.765,-355.4411"/>
<polygon fill="#191970" stroke="#191970" points="1214.9988,-351.9304 1204.5522,-353.6964 1213.82,-358.8304 1214.9988,-351.9304"/>
</g>
<!-- Node52 -->
<g id="node50" class="node">
<title>Node52</title>
<polygon fill="none" stroke="#bfbfbf" points="1990.5,-336.5 1990.5,-355.5 2050.5,-355.5 2050.5,-336.5 1990.5,-336.5"/>
<text text-anchor="middle" x="2020.5" y="-343.5" font-family="Helvetica,sans-Serif" font-size="10.00" fill="#000000">SDL_ttf.h</text>
</g>
<!-- Node0&#45;&gt;Node52 -->
<g id="edge80" class="edge">
<title>Node0&#45;&gt;Node52</title>
<path fill="none" stroke="#191970" d="M1579.6836,-402.8661C1667.3689,-395.629 1835.1968,-379.9426 1976.5,-356 1977.7599,-355.7865 1979.0379,-355.5596 1980.3266,-355.3219"/>
<polygon fill="#191970" stroke="#191970" points="1981.1714,-358.7224 1990.2916,-353.3305 1979.7995,-351.8581 1981.1714,-358.7224"/>
</g>
<!-- Node2 -->
<g id="node3" class="node">
<title>Node2</title>
<polygon fill="none" stroke="#bfbfbf" points="235.5,-56.5 235.5,-75.5 279.5,-75.5 279.5,-56.5 235.5,-56.5"/>
<text text-anchor="middle" x="257.5" y="-63.5" font-family="Helvetica,sans-Serif" font-size="10.00" fill="#000000">string</text>
</g>
<!-- Node1&#45;&gt;Node2 -->
<g id="edge2" class="edge">
<title>Node1&#45;&gt;Node2</title>
<path fill="none" stroke="#191970" d="M664.379,-345.1021C572.707,-341.9878 291.0812,-330.1461 205.5,-300 155.2732,-282.3076 105.5,-287.2518 105.5,-234 105.5,-234 105.5,-234 105.5,-178 105.5,-118.8522 181.0179,-87.4415 225.5946,-74.0527"/>
<polygon fill="#191970" stroke="#191970" points="226.7467,-77.3635 235.3979,-71.2474 224.8208,-70.6337 226.7467,-77.3635"/>
</g>
<!-- Node3 -->
<g id="node4" class="node">
<title>Node3</title>
<g id="a_node4"><a xlink:href="UIElement_8hxx.html" target="_top" xlink:title="../basics/UIElement.hxx">
<polygon fill="none" stroke="#000000" points="628,-280.5 628,-299.5 759,-299.5 759,-280.5 628,-280.5"/>
<text text-anchor="middle" x="693.5" y="-287.5" font-family="Helvetica,sans-Serif" font-size="10.00" fill="#000000">../basics/UIElement.hxx</text>
</a>
</g>
</g>
<!-- Node1&#45;&gt;Node3 -->
<g id="edge3" class="edge">
<title>Node1&#45;&gt;Node3</title>
<path fill="none" stroke="#191970" d="M693.5,-336.2455C693.5,-328.9382 693.5,-318.6944 693.5,-309.7046"/>
<polygon fill="#191970" stroke="#191970" points="697.0001,-309.6426 693.5,-299.6427 690.0001,-309.6427 697.0001,-309.6426"/>
</g>
<!-- Node3&#45;&gt;Node2 -->
<g id="edge4" class="edge">
<title>Node3&#45;&gt;Node2</title>
<path fill="none" stroke="#191970" d="M627.7117,-280.4482C539.5456,-264.4477 383.0057,-224.3779 286.5,-132 273.5316,-119.5863 265.9914,-100.3635 261.8679,-85.859"/>
<polygon fill="#191970" stroke="#191970" points="265.1893,-84.7166 259.3472,-75.878 258.4024,-86.4306 265.1893,-84.7166"/>
</g>
<!-- Node4 -->
<g id="node5" class="node">
<title>Node4</title>
<g id="a_node5"><a xlink:href="mapEdit_8hxx.html" target="_top" xlink:title="../../basics/mapEdit.hxx">
<polygon fill="none" stroke="#000000" points="247.5,-224.5 247.5,-243.5 377.5,-243.5 377.5,-224.5 247.5,-224.5"/>
<text text-anchor="middle" x="312.5" y="-231.5" font-family="Helvetica,sans-Serif" font-size="10.00" fill="#000000">../../basics/mapEdit.hxx</text>
</a>
</g>
</g>
<!-- Node3&#45;&gt;Node4 -->
<g id="edge5" class="edge">
<title>Node3&#45;&gt;Node4</title>
<path fill="none" stroke="#191970" d="M628.4367,-280.4369C561.5876,-270.6113 457.6413,-255.3331 387.4047,-245.0096"/>
<polygon fill="#191970" stroke="#191970" points="387.6977,-241.5152 377.295,-243.5237 386.6797,-248.4407 387.6977,-241.5152"/>
</g>
<!-- Node5 -->
<g id="node6" class="node">
<title>Node5</title>
<g id="a_node6"><a xlink:href="ResourcesManager_8hxx.html" target="_top" xlink:title="../../ResourcesManager.hxx">
<polygon fill="none" stroke="#000000" points="804.5,-224.5 804.5,-243.5 950.5,-243.5 950.5,-224.5 804.5,-224.5"/>
<text text-anchor="middle" x="877.5" y="-231.5" font-family="Helvetica,sans-Serif" font-size="10.00" fill="#000000">../../ResourcesManager.hxx</text>
</a>
</g>
</g>
<!-- Node3&#45;&gt;Node5 -->
<g id="edge7" class="edge">
<title>Node3&#45;&gt;Node5</title>
<path fill="none" stroke="#191970" d="M725.1307,-280.3733C755.8596,-271.021 802.676,-256.7725 836.3022,-246.5385"/>
<polygon fill="#191970" stroke="#191970" points="837.7344,-249.7612 846.282,-243.5011 835.6962,-243.0644 837.7344,-249.7612"/>
</g>
<!-- Node8 -->
<g id="node9" class="node">
<title>Node8</title>
<polygon fill="none" stroke="#bfbfbf" points="894.5,-56.5 894.5,-75.5 938.5,-75.5 938.5,-56.5 894.5,-56.5"/>
<text text-anchor="middle" x="916.5" y="-63.5" font-family="Helvetica,sans-Serif" font-size="10.00" fill="#000000">SDL.h</text>
</g>
<!-- Node3&#45;&gt;Node8 -->
<g id="edge33" class="edge">
<title>Node3&#45;&gt;Node8</title>
<path fill="none" stroke="#191970" d="M759.0897,-288.0082C829.4098,-284.3277 934.3718,-273.8466 959.5,-244 973.9822,-226.7984 1012.1173,-289.0919 947.5,-112 943.8152,-101.9014 937.4499,-91.8637 931.4422,-83.7537"/>
<polygon fill="#191970" stroke="#191970" points="934.1308,-81.5103 925.2074,-75.7986 928.6213,-85.8283 934.1308,-81.5103"/>
</g>
<!-- Node18 -->
<g id="node16" class="node">
<title>Node18</title>
<g id="a_node16"><a xlink:href="WindowManager_8hxx.html" target="_top" xlink:title="../../WindowManager.hxx">
<polygon fill="none" stroke="#000000" points="323.5,-112.5 323.5,-131.5 459.5,-131.5 459.5,-112.5 323.5,-112.5"/>
<text text-anchor="middle" x="391.5" y="-119.5" font-family="Helvetica,sans-Serif" font-size="10.00" fill="#000000">../../WindowManager.hxx</text>
</a>
</g>
</g>
<!-- Node3&#45;&gt;Node18 -->
<g id="edge21" class="edge">
<title>Node3&#45;&gt;Node18</title>
<path fill="none" stroke="#191970" d="M676.3979,-280.4862C626.0603,-252.4839 478.175,-170.2166 417.7136,-136.5824"/>
<polygon fill="#191970" stroke="#191970" points="419.2292,-133.4204 408.7889,-131.6177 415.8262,-139.5376 419.2292,-133.4204"/>
</g>
<!-- Node19 -->
<g id="node17" class="node">
<title>Node19</title>
<g id="a_node17"><a xlink:href="signal_8hxx.html" target="_top" xlink:title="../../basics/signal.hxx">
<polygon fill="none" stroke="#000000" points="1133,-112.5 1133,-131.5 1252,-131.5 1252,-112.5 1133,-112.5"/>
<text text-anchor="middle" x="1192.5" y="-119.5" font-family="Helvetica,sans-Serif" font-size="10.00" fill="#000000">../../basics/signal.hxx</text>
</a>
</g>
</g>
<!-- Node3&#45;&gt;Node19 -->
<g id="edge27" class="edge">
<title>Node3&#45;&gt;Node19</title>
<path fill="none" stroke="#191970" d="M759.1522,-283.6088C836.748,-275.477 960.8455,-260.4933 1004.5,-244 1072.6607,-218.2479 1141.7005,-164.8891 1173.8604,-138.0925"/>
<polygon fill="#191970" stroke="#191970" points="1176.1874,-140.7085 1181.5715,-131.5837 1171.6722,-135.3593 1176.1874,-140.7085"/>
</g>
<!-- Node4&#45;&gt;Node2 -->
<g id="edge6" class="edge">
<title>Node4&#45;&gt;Node2</title>
<path fill="none" stroke="#191970" d="M302.974,-224.3673C286.9689,-207.4249 255.2774,-170.4294 243.5,-132 238.7336,-116.4472 243.2585,-98.3457 248.3968,-85.0378"/>
<polygon fill="#191970" stroke="#191970" points="251.7488,-86.1024 252.4832,-75.5331 245.3179,-83.3375 251.7488,-86.1024"/>
</g>
<!-- Node6 -->
<g id="node7" class="node">
<title>Node6</title>
<polygon fill="none" stroke="#bfbfbf" points="1269.5,-.5 1269.5,-19.5 1329.5,-19.5 1329.5,-.5 1269.5,-.5"/>
<text text-anchor="middle" x="1299.5" y="-7.5" font-family="Helvetica,sans-Serif" font-size="10.00" fill="#000000">iostream</text>
</g>
<!-- Node5&#45;&gt;Node6 -->
<g id="edge8" class="edge">
<title>Node5&#45;&gt;Node6</title>
<path fill="none" stroke="#191970" d="M891.1047,-224.3292C902.319,-215.8005 918.0287,-202.4998 928.5,-188 966.0165,-136.0502 935.5395,-94.8497 986.5,-56 1028.5478,-23.9449 1184.3875,-14.0871 1259.0761,-11.1694"/>
<polygon fill="#191970" stroke="#191970" points="1259.6188,-14.652 1269.4837,-10.7875 1259.362,-7.6567 1259.6188,-14.652"/>
</g>
<!-- Node7 -->
<g id="node8" class="node">
<title>Node7</title>
<polygon fill="none" stroke="#bfbfbf" points="831,-112.5 831,-131.5 924,-131.5 924,-112.5 831,-112.5"/>
<text text-anchor="middle" x="877.5" y="-119.5" font-family="Helvetica,sans-Serif" font-size="10.00" fill="#000000">unordered_map</text>
</g>
<!-- Node5&#45;&gt;Node7 -->
<g id="edge9" class="edge">
<title>Node5&#45;&gt;Node7</title>
<path fill="none" stroke="#191970" d="M877.5,-224.4509C877.5,-206.184 877.5,-165.9553 877.5,-141.6976"/>
<polygon fill="#191970" stroke="#191970" points="881.0001,-141.5249 877.5,-131.5249 874.0001,-141.5249 881.0001,-141.5249"/>
</g>
<!-- Node5&#45;&gt;Node8 -->
<g id="edge10" class="edge">
<title>Node5&#45;&gt;Node8</title>
<path fill="none" stroke="#191970" d="M885.0506,-224.297C898.012,-206.955 924.0152,-168.9843 933.5,-132 937.5756,-116.108 932.2492,-98.0694 926.5099,-84.8715"/>
<polygon fill="#191970" stroke="#191970" points="929.6617,-83.3494 922.1895,-75.8383 923.3468,-86.3698 929.6617,-83.3494"/>
</g>
<!-- Node9 -->
<g id="node10" class="node">
<title>Node9</title>
<g id="a_node10"><a xlink:href="TileManager_8hxx.html" target="_top" xlink:title="TileManager.hxx">
<polygon fill="none" stroke="#000000" points="630,-168.5 630,-187.5 727,-187.5 727,-168.5 630,-168.5"/>
<text text-anchor="middle" x="678.5" y="-175.5" font-family="Helvetica,sans-Serif" font-size="10.00" fill="#000000">TileManager.hxx</text>
</a>
</g>
</g>
<!-- Node5&#45;&gt;Node9 -->
<g id="edge11" class="edge">
<title>Node5&#45;&gt;Node9</title>
<path fill="none" stroke="#191970" d="M843.2907,-224.3733C809.7703,-214.9404 758.5495,-200.5265 722.119,-190.2747"/>
<polygon fill="#191970" stroke="#191970" points="722.8372,-186.8409 712.2629,-187.5011 720.9409,-193.5792 722.8372,-186.8409"/>
</g>
<!-- Node9&#45;&gt;Node2 -->
<g id="edge14" class="edge">
<title>Node9&#45;&gt;Node2</title>
<path fill="none" stroke="#191970" d="M629.7087,-176.1364C543.4265,-172.1404 367.9731,-160.6645 314.5,-132 294.1674,-121.1007 277.8454,-99.7937 267.963,-84.3301"/>
<polygon fill="#191970" stroke="#191970" points="270.8454,-82.3335 262.6637,-75.6022 264.862,-85.9665 270.8454,-82.3335"/>
</g>
<!-- Node9&#45;&gt;Node7 -->
<g id="edge13" class="edge">
<title>Node9&#45;&gt;Node7</title>
<path fill="none" stroke="#191970" d="M712.7093,-168.3733C746.2297,-158.9404 797.4505,-144.5265 833.881,-134.2747"/>
<polygon fill="#191970" stroke="#191970" points="835.0591,-137.5792 843.7371,-131.5011 833.1628,-130.8409 835.0591,-137.5792"/>
</g>
<!-- Node9&#45;&gt;Node8 -->
<g id="edge12" class="edge">
<title>Node9&#45;&gt;Node8</title>
<path fill="none" stroke="#191970" d="M682.9894,-168.2416C690.2188,-153.6559 705.8523,-126.3522 727.5,-112 753.0785,-95.0417 837.6053,-78.9763 884.4833,-71.0841"/>
<polygon fill="#191970" stroke="#191970" points="885.1378,-74.5235 894.4317,-69.4368 883.9942,-67.6175 885.1378,-74.5235"/>
</g>
<!-- Node10 -->
<g id="node11" class="node">
<title>Node10</title>
<g id="a_node11"><a xlink:href="tileData_8hxx.html" target="_top" xlink:title="tileData.hxx">
<polygon fill="none" stroke="#ff0000" points="736,-112.5 736,-131.5 813,-131.5 813,-112.5 736,-112.5"/>
<text text-anchor="middle" x="774.5" y="-119.5" font-family="Helvetica,sans-Serif" font-size="10.00" fill="#000000">tileData.hxx</text>
</a>
</g>
</g>
<!-- Node9&#45;&gt;Node10 -->
<g id="edge15" class="edge">
<title>Node9&#45;&gt;Node10</title>
<path fill="none" stroke="#191970" d="M695.2219,-168.2455C710.0889,-159.5731 732.0466,-146.7645 749.0858,-136.825"/>
<polygon fill="#191970" stroke="#191970" points="751.0955,-139.7047 757.9697,-131.6427 747.5683,-133.6582 751.0955,-139.7047"/>
</g>
<!-- Node15 -->
<g id="node13" class="node">
<title>Node15</title>
<polygon fill="none" stroke="#bfbfbf" points="621.5,-112.5 621.5,-131.5 679.5,-131.5 679.5,-112.5 621.5,-112.5"/>
<text text-anchor="middle" x="650.5" y="-119.5" font-family="Helvetica,sans-Serif" font-size="10.00" fill="#000000">json.hxx</text>
</g>
<!-- Node9&#45;&gt;Node15 -->
<g id="edge18" class="edge">
<title>Node9&#45;&gt;Node15</title>
<path fill="none" stroke="#191970" d="M673.6228,-168.2455C669.8487,-160.6973 664.5079,-150.0158 659.9099,-140.8197"/>
<polygon fill="#191970" stroke="#191970" points="662.924,-139.0217 655.3213,-131.6427 656.663,-142.1522 662.924,-139.0217"/>
</g>
<!-- Node16 -->
<g id="node14" class="node">
<title>Node16</title>
<g id="a_node14"><a xlink:href="Singleton_8hxx.html" target="_top" xlink:title="Singleton.hxx">
<polygon fill="none" stroke="#000000" points="102,-56.5 102,-75.5 185,-75.5 185,-56.5 102,-56.5"/>
<text text-anchor="middle" x="143.5" y="-63.5" font-family="Helvetica,sans-Serif" font-size="10.00" fill="#000000">Singleton.hxx</text>
</a>
</g>
</g>
<!-- Node9&#45;&gt;Node16 -->
<g id="edge19" class="edge">
<title>Node9&#45;&gt;Node16</title>
<path fill="none" stroke="#191970" d="M629.8267,-174.2145C539.6428,-166.8824 349.9817,-149.8846 286.5,-132 243.4168,-119.8622 196.9605,-96.2603 169.0615,-80.8188"/>
<polygon fill="#191970" stroke="#191970" points="170.4358,-77.5764 160.0032,-75.7295 167.007,-83.6791 170.4358,-77.5764"/>
</g>
<!-- Node17 -->
<g id="node15" class="node">
<title>Node17</title>
<polygon fill="none" stroke="#bfbfbf" points="478,-112.5 478,-131.5 603,-131.5 603,-112.5 478,-112.5"/>
<text text-anchor="middle" x="540.5" y="-119.5" font-family="Helvetica,sans-Serif" font-size="10.00" fill="#000000">../common/enums.hxx</text>
</g>
<!-- Node9&#45;&gt;Node17 -->
<g id="edge20" class="edge">
<title>Node9&#45;&gt;Node17</title>
<path fill="none" stroke="#191970" d="M654.777,-168.3733C632.3263,-159.2629 598.4261,-145.5062 573.3745,-135.3404"/>
<polygon fill="#191970" stroke="#191970" points="574.4957,-132.0182 563.9135,-131.5011 571.8635,-138.5045 574.4957,-132.0182"/>
</g>
<!-- Node10&#45;&gt;Node2 -->
<g id="edge16" class="edge">
<title>Node10&#45;&gt;Node2</title>
<path fill="none" stroke="#191970" d="M735.9792,-117.4423C721.1425,-115.7075 704.0361,-113.7323 688.5,-112 539.8255,-95.4226 362.1542,-76.8525 290.1741,-69.381"/>
<polygon fill="#191970" stroke="#191970" points="290.2504,-65.8702 279.9426,-68.3198 289.5282,-72.8328 290.2504,-65.8702"/>
</g>
<!-- Node11 -->
<g id="node12" class="node">
<title>Node11</title>
<polygon fill="none" stroke="#bfbfbf" points="995,-56.5 995,-75.5 1042,-75.5 1042,-56.5 995,-56.5"/>
<text text-anchor="middle" x="1018.5" y="-63.5" font-family="Helvetica,sans-Serif" font-size="10.00" fill="#000000">vector</text>
</g>
<!-- Node10&#45;&gt;Node11 -->
<g id="edge17" class="edge">
<title>Node10&#45;&gt;Node11</title>
<path fill="none" stroke="#191970" d="M813.1625,-113.1266C860.5359,-102.2541 940.0227,-84.0112 984.9393,-73.7024"/>
<polygon fill="#191970" stroke="#191970" points="985.8112,-77.0934 994.7749,-71.4451 984.2453,-70.2708 985.8112,-77.0934"/>
</g>
<!-- Node18&#45;&gt;Node2 -->
<g id="edge22" class="edge">
<title>Node18&#45;&gt;Node2</title>
<path fill="none" stroke="#191970" d="M368.4646,-112.3733C346.6296,-103.2482 313.6411,-89.462 289.3043,-79.2913"/>
<polygon fill="#191970" stroke="#191970" points="290.3659,-75.9417 279.7896,-75.315 287.6667,-82.4004 290.3659,-75.9417"/>
</g>
<!-- Node18&#45;&gt;Node6 -->
<g id="edge23" class="edge">
<title>Node18&#45;&gt;Node6</title>
<path fill="none" stroke="#191970" d="M459.3602,-112.4494C554.518,-99.1674 733.0531,-74.6506 885.5,-56 1022.3346,-39.2594 1184.9387,-21.9441 1259.0639,-14.1922"/>
<polygon fill="#191970" stroke="#191970" points="1259.7622,-17.6385 1269.3448,-13.1191 1259.0354,-10.6763 1259.7622,-17.6385"/>
</g>
<!-- Node18&#45;&gt;Node8 -->
<g id="edge25" class="edge">
<title>Node18&#45;&gt;Node8</title>
<path fill="none" stroke="#191970" d="M459.5521,-113.1738C462.9149,-112.7695 466.2451,-112.3761 469.5,-112 624.618,-94.0779 810.4284,-76.0609 884.1123,-69.0533"/>
<polygon fill="#191970" stroke="#191970" points="884.5285,-72.5296 894.1531,-68.1006 883.8672,-65.5609 884.5285,-72.5296"/>
</g>
<!-- Node18&#45;&gt;Node11 -->
<g id="edge24" class="edge">
<title>Node18&#45;&gt;Node11</title>
<path fill="none" stroke="#191970" d="M459.5402,-113.0639C462.9061,-112.6887 466.2402,-112.3315 469.5,-112 681.4531,-90.4467 735.6848,-98.8686 947.5,-76 959.7524,-74.6772 973.1464,-72.882 984.9668,-71.1775"/>
<polygon fill="#191970" stroke="#191970" points="985.4979,-74.6372 994.8811,-69.7173 984.4778,-67.7119 985.4979,-74.6372"/>
</g>
<!-- Node18&#45;&gt;Node16 -->
<g id="edge26" class="edge">
<title>Node18&#45;&gt;Node16</title>
<path fill="none" stroke="#191970" d="M349.1491,-112.4369C306.5772,-102.8239 240.8914,-87.9916 195.2545,-77.6865"/>
<polygon fill="#191970" stroke="#191970" points="195.7879,-74.2189 185.2626,-75.4303 194.2461,-81.047 195.7879,-74.2189"/>
</g>
<!-- Node19&#45;&gt;Node11 -->
<g id="edge31" class="edge">
<title>Node19&#45;&gt;Node11</title>
<path fill="none" stroke="#191970" d="M1162.5883,-112.3733C1131.8136,-102.4687 1083.9758,-87.0727 1051.9617,-76.7693"/>
<polygon fill="#191970" stroke="#191970" points="1052.7567,-73.3484 1042.1652,-73.6164 1050.6121,-80.0118 1052.7567,-73.3484"/>
</g>
<!-- Node20 -->
<g id="node18" class="node">
<title>Node20</title>
<polygon fill="none" stroke="#bfbfbf" points="1060.5,-56.5 1060.5,-75.5 1118.5,-75.5 1118.5,-56.5 1060.5,-56.5"/>
<text text-anchor="middle" x="1089.5" y="-63.5" font-family="Helvetica,sans-Serif" font-size="10.00" fill="#000000">memory</text>
</g>
<!-- Node19&#45;&gt;Node20 -->
<g id="edge28" class="edge">
<title>Node19&#45;&gt;Node20</title>
<path fill="none" stroke="#191970" d="M1174.5588,-112.2455C1158.46,-103.4928 1134.6121,-90.527 1116.2609,-80.5496"/>
<polygon fill="#191970" stroke="#191970" points="1117.6929,-77.3444 1107.2356,-75.6427 1114.3493,-83.4942 1117.6929,-77.3444"/>
</g>
<!-- Node21 -->
<g id="node19" class="node">
<title>Node21</title>
<polygon fill="none" stroke="#bfbfbf" points="1137,-56.5 1137,-75.5 1202,-75.5 1202,-56.5 1137,-56.5"/>
<text text-anchor="middle" x="1169.5" y="-63.5" font-family="Helvetica,sans-Serif" font-size="10.00" fill="#000000">functional</text>
</g>
<!-- Node19&#45;&gt;Node21 -->
<g id="edge29" class="edge">
<title>Node19&#45;&gt;Node21</title>
<path fill="none" stroke="#191970" d="M1188.4937,-112.2455C1185.4265,-104.7776 1181.0997,-94.2427 1177.3503,-85.1137"/>
<polygon fill="#191970" stroke="#191970" points="1180.4972,-83.5631 1173.4604,-75.6427 1174.0221,-86.2226 1180.4972,-83.5631"/>
</g>
<!-- Node22 -->
<g id="node20" class="node">
<title>Node22</title>
<polygon fill="none" stroke="#bfbfbf" points="1220.5,-56.5 1220.5,-75.5 1252.5,-75.5 1252.5,-56.5 1220.5,-56.5"/>
<text text-anchor="middle" x="1236.5" y="-63.5" font-family="Helvetica,sans-Serif" font-size="10.00" fill="#000000">list</text>
</g>
<!-- Node19&#45;&gt;Node22 -->
<g id="edge30" class="edge">
<title>Node19&#45;&gt;Node22</title>
<path fill="none" stroke="#191970" d="M1200.1642,-112.2455C1206.3473,-104.3761 1215.2063,-93.101 1222.6289,-83.6542"/>
<polygon fill="#191970" stroke="#191970" points="1225.4975,-85.6683 1228.9236,-75.6427 1219.9932,-81.3435 1225.4975,-85.6683"/>
</g>
<!-- Node23 -->
<g id="node21" class="node">
<title>Node23</title>
<polygon fill="none" stroke="#bfbfbf" points="1346.5,-56.5 1346.5,-75.5 1410.5,-75.5 1410.5,-56.5 1346.5,-56.5"/>
<text text-anchor="middle" x="1378.5" y="-63.5" font-family="Helvetica,sans-Serif" font-size="10.00" fill="#000000">algorithm</text>
</g>
<!-- Node19&#45;&gt;Node23 -->
<g id="edge32" class="edge">
<title>Node19&#45;&gt;Node23</title>
<path fill="none" stroke="#191970" d="M1224.4745,-112.3733C1255.6713,-102.9807 1303.271,-88.6496 1337.2932,-78.4064"/>
<polygon fill="#191970" stroke="#191970" points="1338.3763,-81.7355 1346.9427,-75.5011 1336.3582,-75.0327 1338.3763,-81.7355"/>
</g>
<!-- Node24&#45;&gt;Node2 -->
<g id="edge35" class="edge">
<title>Node24&#45;&gt;Node2</title>
<path fill="none" stroke="#191970" d="M1663.1851,-120.856C1478.9523,-113.6664 482.5941,-74.7842 289.8087,-67.2608"/>
<polygon fill="#191970" stroke="#191970" points="289.876,-63.7609 279.7471,-66.8682 289.603,-70.7556 289.876,-63.7609"/>
</g>
<!-- Node24&#45;&gt;Node6 -->
<g id="edge39" class="edge">
<title>Node24&#45;&gt;Node6</title>
<path fill="none" stroke="#191970" d="M1663.2044,-119.0391C1618.0185,-113.861 1529.0553,-101.2224 1457.5,-76 1439.5002,-69.6553 1436.8853,-63.8739 1419.5,-56 1392.1695,-43.6219 1360.4407,-31.5553 1336.4755,-22.8885"/>
<polygon fill="#191970" stroke="#191970" points="1337.6384,-19.5873 1327.0438,-19.5078 1335.2764,-26.1768 1337.6384,-19.5873"/>
</g>
<!-- Node24&#45;&gt;Node8 -->
<g id="edge44" class="edge">
<title>Node24&#45;&gt;Node8</title>
<path fill="none" stroke="#191970" d="M1663.1778,-120.8977C1566.377,-117.0861 1248.2541,-103.1835 986.5,-76 974.0339,-74.7054 960.3777,-72.8529 948.4633,-71.0934"/>
<polygon fill="#191970" stroke="#191970" points="948.9265,-67.6238 938.5152,-69.5875 947.8787,-74.5449 948.9265,-67.6238"/>
</g>
<!-- Node24&#45;&gt;Node23 -->
<g id="edge45" class="edge">
<title>Node24&#45;&gt;Node23</title>
<path fill="none" stroke="#191970" d="M1663.4731,-117.4479C1614.2141,-109.6268 1511.1567,-92.8477 1424.5,-76 1423.2365,-75.7543 1421.9543,-75.5011 1420.6606,-75.242"/>
<polygon fill="#191970" stroke="#191970" points="1421.1342,-71.7661 1410.6334,-73.1745 1419.7205,-78.6219 1421.1342,-71.7661"/>
</g>
<!-- Node24&#45;&gt;Node25 -->
<g id="edge36" class="edge">
<title>Node24&#45;&gt;Node25</title>
<path fill="none" stroke="#191970" d="M1721.6117,-117.6058C1783.8159,-108.2165 1930.4811,-86.0783 2009.9987,-74.0757"/>
<polygon fill="#191970" stroke="#191970" points="2010.9239,-77.4758 2020.2895,-72.5223 2009.8791,-70.5542 2010.9239,-77.4758"/>
</g>
<!-- Node28 -->
<g id="node26" class="node">
<title>Node28</title>
<polygon fill="none" stroke="#bfbfbf" points="1638.5,-56.5 1638.5,-75.5 1688.5,-75.5 1688.5,-56.5 1638.5,-56.5"/>
<text text-anchor="middle" x="1663.5" y="-63.5" font-family="Helvetica,sans-Serif" font-size="10.00" fill="#000000">chrono</text>
</g>
<!-- Node24&#45;&gt;Node28 -->
<g id="edge40" class="edge">
<title>Node24&#45;&gt;Node28</title>
<path fill="none" stroke="#191970" d="M1687.4486,-112.2455C1683.4981,-104.617 1677.8903,-93.7881 1673.0942,-84.5267"/>
<polygon fill="#191970" stroke="#191970" points="1676.2001,-82.9131 1668.4935,-75.6427 1669.9841,-86.1321 1676.2001,-82.9131"/>
</g>
<!-- Node29 -->
<g id="node27" class="node">
<title>Node29</title>
<polygon fill="none" stroke="#bfbfbf" points="1706.5,-56.5 1706.5,-75.5 1750.5,-75.5 1750.5,-56.5 1706.5,-56.5"/>
<text text-anchor="middle" x="1728.5" y="-63.5" font-family="Helvetica,sans-Serif" font-size="10.00" fill="#000000">ctime</text>
</g>
<!-- Node24&#45;&gt;Node29 -->
<g id="edge41" class="edge">
<title>Node24&#45;&gt;Node29</title>
<path fill="none" stroke="#191970" d="M1698.7707,-112.2455C1703.7264,-104.5367 1710.783,-93.5598 1716.7776,-84.2348"/>
<polygon fill="#191970" stroke="#191970" points="1719.8376,-85.9471 1722.3011,-75.6427 1713.9494,-82.1618 1719.8376,-85.9471"/>
</g>
<!-- Node30 -->
<g id="node28" class="node">
<title>Node30</title>
<polygon fill="none" stroke="#bfbfbf" points="1769,-56.5 1769,-75.5 1824,-75.5 1824,-56.5 1769,-56.5"/>
<text text-anchor="middle" x="1796.5" y="-63.5" font-family="Helvetica,sans-Serif" font-size="10.00" fill="#000000">fstream</text>
</g>
<!-- Node24&#45;&gt;Node30 -->
<g id="edge42" class="edge">
<title>Node24&#45;&gt;Node30</title>
<path fill="none" stroke="#191970" d="M1710.6154,-112.2455C1726.945,-103.4527 1751.171,-90.4079 1769.7339,-80.4125"/>
<polygon fill="#191970" stroke="#191970" points="1771.4468,-83.4654 1778.5922,-75.6427 1768.1281,-77.3021 1771.4468,-83.4654"/>
</g>
<!-- Node31 -->
<g id="node29" class="node">
<title>Node31</title>
<polygon fill="none" stroke="#bfbfbf" points="1842.5,-56.5 1842.5,-75.5 1898.5,-75.5 1898.5,-56.5 1842.5,-56.5"/>
<text text-anchor="middle" x="1870.5" y="-63.5" font-family="Helvetica,sans-Serif" font-size="10.00" fill="#000000">sstream</text>
</g>
<!-- Node24&#45;&gt;Node31 -->
<g id="edge43" class="edge">
<title>Node24&#45;&gt;Node31</title>
<path fill="none" stroke="#191970" d="M1721.8931,-112.7527C1752.1396,-103.237 1799.385,-88.3733 1832.4636,-77.9665"/>
<polygon fill="#191970" stroke="#191970" points="1833.7514,-81.2306 1842.2401,-74.8908 1831.6506,-74.5532 1833.7514,-81.2306"/>
</g>
<!-- Node32 -->
<g id="node30" class="node">
<title>Node32</title>
<polygon fill="none" stroke="#bfbfbf" points="1916.5,-56.5 1916.5,-75.5 1964.5,-75.5 1964.5,-56.5 1916.5,-56.5"/>
<text text-anchor="middle" x="1940.5" y="-63.5" font-family="Helvetica,sans-Serif" font-size="10.00" fill="#000000">mutex</text>
</g>
<!-- Node24&#45;&gt;Node32 -->
<g id="edge46" class="edge">
<title>Node24&#45;&gt;Node32</title>
<path fill="none" stroke="#191970" d="M1721.5432,-116.5853C1761.1622,-109.0263 1834.5471,-94.4126 1906.3042,-76.1524"/>
<polygon fill="#191970" stroke="#191970" points="1907.602,-79.4326 1916.415,-73.552 1905.8583,-72.6532 1907.602,-79.4326"/>
</g>
<!-- Node33 -->
<g id="node31" class="node">
<title>Node33</title>
<g id="a_node31"><a xlink:href="Meta_8hxx.html" target="_top" xlink:title="Meta.hxx">
<polygon fill="none" stroke="#000000" points="1466.5,-56.5 1466.5,-75.5 1528.5,-75.5 1528.5,-56.5 1466.5,-56.5"/>
<text text-anchor="middle" x="1497.5" y="-63.5" font-family="Helvetica,sans-Serif" font-size="10.00" fill="#000000">Meta.hxx</text>
</a>
</g>
</g>
<!-- Node24&#45;&gt;Node33 -->
<g id="edge47" class="edge">
<title>Node24&#45;&gt;Node33</title>
<path fill="none" stroke="#191970" d="M1663.3065,-113.6162C1630.1898,-104.1058 1575.9446,-88.5277 1538.5696,-77.7944"/>
<polygon fill="#191970" stroke="#191970" points="1539.0845,-74.3008 1528.5069,-74.9045 1537.1523,-81.0289 1539.0845,-74.3008"/>
</g>
<!-- Node37 -->
<g id="node35" class="node">
<title>Node37</title>
<g id="a_node35"><a xlink:href="LOG_8inl_8hxx.html" target="_top" xlink:title="LOG.inl.hxx">
<polygon fill="none" stroke="#000000" points="1547,-56.5 1547,-75.5 1620,-75.5 1620,-56.5 1547,-56.5"/>
<text text-anchor="middle" x="1583.5" y="-63.5" font-family="Helvetica,sans-Serif" font-size="10.00" fill="#000000">LOG.inl.hxx</text>
</a>
</g>
</g>
<!-- Node24&#45;&gt;Node37 -->
<g id="edge52" class="edge">
<title>Node24&#45;&gt;Node37</title>
<path fill="none" stroke="#191970" d="M1673.5136,-112.2455C1656.3208,-103.4125 1630.7762,-90.2887 1611.2868,-80.2758"/>
<polygon fill="#191970" stroke="#191970" points="1612.763,-77.0993 1602.2688,-75.6427 1609.5641,-83.3257 1612.763,-77.0993"/>
</g>
<!-- Node26 -->
<g id="node24" class="node">
<title>Node26</title>
<polygon fill="none" stroke="#bfbfbf" points="1989,-.5 1989,-19.5 2054,-19.5 2054,-.5 1989,-.5"/>
<text text-anchor="middle" x="2021.5" y="-7.5" font-family="Helvetica,sans-Serif" font-size="10.00" fill="#000000">stdexcept</text>
</g>
<!-- Node25&#45;&gt;Node26 -->
<g id="edge37" class="edge">
<title>Node25&#45;&gt;Node26</title>
<path fill="none" stroke="#191970" d="M2056.1842,-56.2455C2050.2821,-48.3761 2041.8258,-37.101 2034.7406,-27.6542"/>
<polygon fill="#191970" stroke="#191970" points="2037.5321,-25.5427 2028.732,-19.6427 2031.932,-29.7427 2037.5321,-25.5427"/>
</g>
<!-- Node27 -->
<g id="node25" class="node">
<title>Node27</title>
<polygon fill="none" stroke="#bfbfbf" points="2072,-.5 2072,-19.5 2137,-19.5 2137,-.5 2072,-.5"/>
<text text-anchor="middle" x="2104.5" y="-7.5" font-family="Helvetica,sans-Serif" font-size="10.00" fill="#000000">exception</text>
</g>
<!-- Node25&#45;&gt;Node27 -->
<g id="edge38" class="edge">
<title>Node25&#45;&gt;Node27</title>
<path fill="none" stroke="#191970" d="M2070.6417,-56.2455C2076.3444,-48.4564 2084.49,-37.3308 2091.3625,-27.9439"/>
<polygon fill="#191970" stroke="#191970" points="2094.3568,-29.7789 2097.4402,-19.6427 2088.7087,-25.6437 2094.3568,-29.7789"/>
</g>
<!-- Node33&#45;&gt;Node6 -->
<g id="edge48" class="edge">
<title>Node33&#45;&gt;Node6</title>
<path fill="none" stroke="#191970" d="M1466.1263,-57.1266C1431.9384,-47.4573 1377.1401,-31.9588 1339.7925,-21.3959"/>
<polygon fill="#191970" stroke="#191970" points="1340.328,-17.9101 1329.7529,-18.5564 1338.4229,-24.6459 1340.328,-17.9101"/>
</g>
<!-- Node34 -->
<g id="node32" class="node">
<title>Node34</title>
<polygon fill="none" stroke="#bfbfbf" points="1502,-.5 1502,-19.5 1571,-19.5 1571,-.5 1502,-.5"/>
<text text-anchor="middle" x="1536.5" y="-7.5" font-family="Helvetica,sans-Serif" font-size="10.00" fill="#000000">type_traits</text>
</g>
<!-- Node33&#45;&gt;Node34 -->
<g id="edge49" class="edge">
<title>Node33&#45;&gt;Node34</title>
<path fill="none" stroke="#191970" d="M1504.2933,-56.2455C1509.7178,-48.4564 1517.4661,-37.3308 1524.0033,-27.9439"/>
<polygon fill="#191970" stroke="#191970" points="1526.9417,-29.849 1529.7846,-19.6427 1521.1975,-25.8485 1526.9417,-29.849"/>
</g>
<!-- Node35 -->
<g id="node33" class="node">
<title>Node35</title>
<polygon fill="none" stroke="#bfbfbf" points="1433,-.5 1433,-19.5 1484,-19.5 1484,-.5 1433,-.5"/>
<text text-anchor="middle" x="1458.5" y="-7.5" font-family="Helvetica,sans-Serif" font-size="10.00" fill="#000000">variant</text>
</g>
<!-- Node33&#45;&gt;Node35 -->
<g id="edge50" class="edge">
<title>Node33&#45;&gt;Node35</title>
<path fill="none" stroke="#191970" d="M1490.7067,-56.2455C1485.2822,-48.4564 1477.5339,-37.3308 1470.9967,-27.9439"/>
<polygon fill="#191970" stroke="#191970" points="1473.8025,-25.8485 1465.2154,-19.6427 1468.0583,-29.849 1473.8025,-25.8485"/>
</g>
<!-- Node36 -->
<g id="node34" class="node">
<title>Node36</title>
<polygon fill="none" stroke="#bfbfbf" points="1761,-.5 1761,-19.5 1802,-19.5 1802,-.5 1761,-.5"/>
<text text-anchor="middle" x="1781.5" y="-7.5" font-family="Helvetica,sans-Serif" font-size="10.00" fill="#000000">tuple</text>
</g>
<!-- Node33&#45;&gt;Node36 -->
<g id="edge51" class="edge">
<title>Node33&#45;&gt;Node36</title>
<path fill="none" stroke="#191970" d="M1528.8004,-58.1878C1532.0703,-57.4249 1535.3492,-56.682 1538.5,-56 1614.6127,-39.5256 1704.85,-23.3052 1750.993,-15.2482"/>
<polygon fill="#191970" stroke="#191970" points="1751.6931,-18.6791 1760.9457,-13.5178 1750.494,-11.7826 1751.6931,-18.6791"/>
</g>
<!-- Node38&#45;&gt;Node2 -->
<g id="edge55" class="edge">
<title>Node38&#45;&gt;Node2</title>
<path fill="none" stroke="#191970" d="M76.1474,-112.3733C118.2463,-101.6083 185.7145,-84.3561 225.408,-74.2062"/>
<polygon fill="#191970" stroke="#191970" points="226.5247,-77.5333 235.3459,-71.665 224.7905,-70.7515 226.5247,-77.5333"/>
</g>
<!-- Node38&#45;&gt;Node16 -->
<g id="edge56" class="edge">
<title>Node38&#45;&gt;Node16</title>
<path fill="none" stroke="#191970" d="M56.7896,-112.2455C73.2762,-103.4527 97.7352,-90.4079 116.4765,-80.4125"/>
<polygon fill="#191970" stroke="#191970" points="118.2435,-83.4368 125.42,-75.6427 114.9494,-77.2604 118.2435,-83.4368"/>
</g>
<!-- Node38&#45;&gt;Node33 -->
<g id="edge57" class="edge">
<title>Node38&#45;&gt;Node33</title>
<path fill="none" stroke="#191970" d="M77.3499,-120.5477C130.7735,-118.5608 229.9216,-114.91 314.5,-112 805.5811,-95.1041 929.7014,-115.2867 1419.5,-76 1431.4991,-75.0376 1444.4856,-73.5518 1456.3558,-72.0174"/>
<polygon fill="#191970" stroke="#191970" points="1456.999,-75.4627 1466.4471,-70.6684 1456.0714,-68.5244 1456.999,-75.4627"/>
</g>
<!-- Node39 -->
<g id="node37" class="node">
<title>Node39</title>
<polygon fill="none" stroke="#bfbfbf" points="12,-56.5 12,-75.5 65,-75.5 65,-56.5 12,-56.5"/>
<text text-anchor="middle" x="38.5" y="-63.5" font-family="Helvetica,sans-Serif" font-size="10.00" fill="#000000">cstddef</text>
</g>
<!-- Node38&#45;&gt;Node39 -->
<g id="edge58" class="edge">
<title>Node38&#45;&gt;Node39</title>
<path fill="none" stroke="#191970" d="M38.5,-112.2455C38.5,-104.9382 38.5,-94.6944 38.5,-85.7046"/>
<polygon fill="#191970" stroke="#191970" points="42.0001,-85.6426 38.5,-75.6427 35.0001,-85.6427 42.0001,-85.6426"/>
</g>
<!-- Node40&#45;&gt;Node2 -->
<g id="edge61" class="edge">
<title>Node40&#45;&gt;Node2</title>
<path fill="none" stroke="#191970" d="M1114.4785,-345.4298C927.1896,-342.4736 219.5,-325.2649 219.5,-234 219.5,-234 219.5,-234 219.5,-178 219.5,-143.6118 235.7634,-106.2832 247.011,-84.5791"/>
<polygon fill="#191970" stroke="#191970" points="250.2317,-85.9804 251.893,-75.5166 244.069,-82.6605 250.2317,-85.9804"/>
</g>
<!-- Node40&#45;&gt;Node11 -->
<g id="edge62" class="edge">
<title>Node40&#45;&gt;Node11</title>
<path fill="none" stroke="#191970" d="M1142.8735,-336.2771C1116.1234,-319.2388 1066.5,-281.2624 1066.5,-234 1066.5,-234 1066.5,-234 1066.5,-178 1066.5,-142.4341 1045.7983,-105.2782 1031.5855,-83.9597"/>
<polygon fill="#191970" stroke="#191970" points="1034.3613,-81.8202 1025.7902,-75.5923 1028.6067,-85.8059 1034.3613,-81.8202"/>
</g>
<!-- Node41 -->
<g id="node39" class="node">
<title>Node41</title>
<polygon fill="none" stroke="#bfbfbf" points="1132.5,-280.5 1132.5,-299.5 1186.5,-299.5 1186.5,-280.5 1132.5,-280.5"/>
<text text-anchor="middle" x="1159.5" y="-287.5" font-family="Helvetica,sans-Serif" font-size="10.00" fill="#000000">ciso646</text>
</g>
<!-- Node40&#45;&gt;Node41 -->
<g id="edge60" class="edge">
<title>Node40&#45;&gt;Node41</title>
<path fill="none" stroke="#191970" d="M1159.5,-336.2455C1159.5,-328.9382 1159.5,-318.6944 1159.5,-309.7046"/>
<polygon fill="#191970" stroke="#191970" points="1163.0001,-309.6426 1159.5,-299.6427 1156.0001,-309.6427 1163.0001,-309.6426"/>
</g>
<!-- Node42 -->
<g id="node40" class="node">
<title>Node42</title>
<g id="a_node40"><a xlink:href="PixelBuffer_8hxx.html" target="_top" xlink:title="../util/PixelBuffer.hxx">
<polygon fill="none" stroke="#000000" points="1223.5,-280.5 1223.5,-299.5 1341.5,-299.5 1341.5,-280.5 1223.5,-280.5"/>
<text text-anchor="middle" x="1282.5" y="-287.5" font-family="Helvetica,sans-Serif" font-size="10.00" fill="#000000">../util/PixelBuffer.hxx</text>
</a>
</g>
</g>
<!-- Node40&#45;&gt;Node42 -->
<g id="edge63" class="edge">
<title>Node40&#45;&gt;Node42</title>
<path fill="none" stroke="#191970" d="M1180.6445,-336.3733C1200.3892,-327.3838 1230.0698,-313.8706 1252.3055,-303.7471"/>
<polygon fill="#191970" stroke="#191970" points="1253.9806,-306.8302 1261.6315,-299.5011 1251.08,-300.4594 1253.9806,-306.8302"/>
</g>
<!-- Node42&#45;&gt;Node11 -->
<g id="edge64" class="edge">
<title>Node42&#45;&gt;Node11</title>
<path fill="none" stroke="#191970" d="M1231.2068,-280.4287C1191.1874,-272.0082 1139.8882,-258.8077 1124.5,-244 1079.9401,-201.121 1116.7884,-162.0735 1080.5,-112 1071.4123,-99.46 1057.8974,-88.8688 1045.8032,-81.0219"/>
<polygon fill="#191970" stroke="#191970" points="1047.281,-77.8221 1036.9284,-75.5694 1043.6166,-83.7864 1047.281,-77.8221"/>
</g>
<!-- Node43 -->
<g id="node41" class="node">
<title>Node43</title>
<g id="a_node41"><a xlink:href="Rectangle_8hxx.html" target="_top" xlink:title="../util/Rectangle.hxx">
<polygon fill="none" stroke="#000000" points="1546,-224.5 1546,-243.5 1659,-243.5 1659,-224.5 1546,-224.5"/>
<text text-anchor="middle" x="1602.5" y="-231.5" font-family="Helvetica,sans-Serif" font-size="10.00" fill="#000000">../util/Rectangle.hxx</text>
</a>
</g>
</g>
<!-- Node42&#45;&gt;Node43 -->
<g id="edge65" class="edge">
<title>Node42&#45;&gt;Node43</title>
<path fill="none" stroke="#191970" d="M1337.1464,-280.4369C1392.8323,-270.6918 1479.1675,-255.5832 1538.1316,-245.2645"/>
<polygon fill="#191970" stroke="#191970" points="1538.8321,-248.6952 1548.079,-243.5237 1537.6254,-241.7999 1538.8321,-248.6952"/>
</g>
<!-- Node46 -->
<g id="node44" class="node">
<title>Node46</title>
<g id="a_node44"><a xlink:href="Range_8hxx.html" target="_top" xlink:title="../util/Range.hxx">
<polygon fill="none" stroke="#000000" points="1367.5,-224.5 1367.5,-243.5 1463.5,-243.5 1463.5,-224.5 1367.5,-224.5"/>
<text text-anchor="middle" x="1415.5" y="-231.5" font-family="Helvetica,sans-Serif" font-size="10.00" fill="#000000">../util/Range.hxx</text>
</a>
</g>
</g>
<!-- Node42&#45;&gt;Node46 -->
<g id="edge72" class="edge">
<title>Node42&#45;&gt;Node46</title>
<path fill="none" stroke="#191970" d="M1305.3635,-280.3733C1326.905,-271.3032 1359.3838,-257.6279 1383.4956,-247.4755"/>
<polygon fill="#191970" stroke="#191970" points="1385.0767,-250.6075 1392.9348,-243.5011 1382.3603,-244.156 1385.0767,-250.6075"/>
</g>
<!-- Node49 -->
<g id="node47" class="node">
<title>Node49</title>
<g id="a_node47"><a xlink:href="Color_8hxx.html" target="_top" xlink:title="../util/Color.hxx">
<polygon fill="none" stroke="#000000" points="1256.5,-224.5 1256.5,-243.5 1346.5,-243.5 1346.5,-224.5 1256.5,-224.5"/>
<text text-anchor="middle" x="1301.5" y="-231.5" font-family="Helvetica,sans-Serif" font-size="10.00" fill="#000000">../util/Color.hxx</text>
</a>
</g>
</g>
<!-- Node42&#45;&gt;Node49 -->
<g id="edge76" class="edge">
<title>Node42&#45;&gt;Node49</title>
<path fill="none" stroke="#191970" d="M1285.8095,-280.2455C1288.3433,-272.7776 1291.9177,-262.2427 1295.015,-253.1137"/>
<polygon fill="#191970" stroke="#191970" points="1298.3298,-254.237 1298.2284,-243.6427 1291.7009,-251.9879 1298.3298,-254.237"/>
</g>
<!-- Node51 -->
<g id="node49" class="node">
<title>Node51</title>
<g id="a_node49"><a xlink:href="PixelBuffer_8inl_8hxx.html" target="_top" xlink:title="PixelBuffer.inl.hxx">
<polygon fill="none" stroke="#000000" points="1133,-224.5 1133,-243.5 1238,-243.5 1238,-224.5 1133,-224.5"/>
<text text-anchor="middle" x="1185.5" y="-231.5" font-family="Helvetica,sans-Serif" font-size="10.00" fill="#000000">PixelBuffer.inl.hxx</text>
</a>
</g>
</g>
<!-- Node42&#45;&gt;Node51 -->
<g id="edge79" class="edge">
<title>Node42&#45;&gt;Node51</title>
<path fill="none" stroke="#191970" d="M1265.6039,-280.2455C1250.582,-271.5731 1228.3957,-258.7645 1211.179,-248.825"/>
<polygon fill="#191970" stroke="#191970" points="1212.6128,-245.6114 1202.2025,-243.6427 1209.1129,-251.6737 1212.6128,-245.6114"/>
</g>
<!-- Node43&#45;&gt;Node6 -->
<g id="edge67" class="edge">
<title>Node43&#45;&gt;Node6</title>
<path fill="none" stroke="#191970" d="M1583.7289,-224.4104C1530.0045,-196.7207 1376.9649,-116.0709 1337.5,-76 1324.0618,-62.3554 1313.6654,-43.0227 1307.1706,-28.8064"/>
<polygon fill="#191970" stroke="#191970" points="1310.3312,-27.2972 1303.1433,-19.5136 1303.9084,-30.0808 1310.3312,-27.2972"/>
</g>
<!-- Node43&#45;&gt;Node36 -->
<g id="edge66" class="edge">
<title>Node43&#45;&gt;Node36</title>
<path fill="none" stroke="#191970" d="M1659.1325,-229.9864C1746.1258,-220.3242 1909.3042,-187.4757 1973.5,-76 1977.9359,-68.2971 1979.0047,-62.9793 1973.5,-56 1953.7737,-30.9894 1861.4855,-18.0483 1812.3968,-12.8345"/>
<polygon fill="#191970" stroke="#191970" points="1812.6378,-9.3411 1802.3346,-11.81 1811.9286,-16.3051 1812.6378,-9.3411"/>
</g>
<!-- Node44 -->
<g id="node42" class="node">
<title>Node44</title>
<g id="a_node42"><a xlink:href="iShape_8hxx.html" target="_top" xlink:title="../util/iShape.hxx">
<polygon fill="none" stroke="#000000" points="1553.5,-168.5 1553.5,-187.5 1651.5,-187.5 1651.5,-168.5 1553.5,-168.5"/>
<text text-anchor="middle" x="1602.5" y="-175.5" font-family="Helvetica,sans-Serif" font-size="10.00" fill="#000000">../util/iShape.hxx</text>
</a>
</g>
</g>
<!-- Node43&#45;&gt;Node44 -->
<g id="edge68" class="edge">
<title>Node43&#45;&gt;Node44</title>
<path fill="none" stroke="#191970" d="M1602.5,-224.2455C1602.5,-216.9382 1602.5,-206.6944 1602.5,-197.7046"/>
<polygon fill="#191970" stroke="#191970" points="1606.0001,-197.6426 1602.5,-187.6427 1599.0001,-197.6427 1606.0001,-197.6426"/>
</g>
<!-- Node45 -->
<g id="node43" class="node">
<title>Node45</title>
<g id="a_node43"><a xlink:href="Rectangle_8inl_8hxx.html" target="_top" xlink:title="Rectangle.inl.hxx">
<polygon fill="none" stroke="#000000" points="1670,-168.5 1670,-187.5 1771,-187.5 1771,-168.5 1670,-168.5"/>
<text text-anchor="middle" x="1720.5" y="-175.5" font-family="Helvetica,sans-Serif" font-size="10.00" fill="#000000">Rectangle.inl.hxx</text>
</a>
</g>
</g>
<!-- Node43&#45;&gt;Node45 -->
<g id="edge69" class="edge">
<title>Node43&#45;&gt;Node45</title>
<path fill="none" stroke="#191970" d="M1622.7849,-224.3733C1641.6421,-215.4241 1669.946,-201.9917 1691.2455,-191.8835"/>
<polygon fill="#191970" stroke="#191970" points="1692.9461,-194.9506 1700.4798,-187.5011 1689.9449,-188.6266 1692.9461,-194.9506"/>
</g>
<!-- Node45&#45;&gt;Node23 -->
<g id="edge70" class="edge">
<title>Node45&#45;&gt;Node23</title>
<path fill="none" stroke="#191970" d="M1691.3413,-168.4509C1629.7566,-148.2829 1486.4256,-101.3441 1417.2366,-78.6857"/>
<polygon fill="#191970" stroke="#191970" points="1418.1776,-75.311 1407.5849,-75.5249 1415.999,-81.9634 1418.1776,-75.311"/>
</g>
<!-- Node45&#45;&gt;Node24 -->
<g id="edge71" class="edge">
<title>Node45&#45;&gt;Node24</title>
<path fill="none" stroke="#191970" d="M1715.6228,-168.2455C1711.8487,-160.6973 1706.5079,-150.0158 1701.9099,-140.8197"/>
<polygon fill="#191970" stroke="#191970" points="1704.924,-139.0217 1697.3213,-131.6427 1698.663,-142.1522 1704.924,-139.0217"/>
</g>
<!-- Node46&#45;&gt;Node33 -->
<g id="edge74" class="edge">
<title>Node46&#45;&gt;Node33</title>
<path fill="none" stroke="#191970" d="M1431.3418,-224.2466C1443.3406,-216.0365 1459.2831,-203.2142 1468.5,-188 1488.0644,-155.7053 1494.4302,-111.1722 1496.5014,-85.8064"/>
<polygon fill="#191970" stroke="#191970" points="1500.0079,-85.8247 1497.1827,-75.6135 1493.0234,-85.3578 1500.0079,-85.8247"/>
</g>
<!-- Node47 -->
<g id="node45" class="node">
<title>Node47</title>
<polygon fill="none" stroke="#bfbfbf" points="1305,-168.5 1305,-187.5 1358,-187.5 1358,-168.5 1305,-168.5"/>
<text text-anchor="middle" x="1331.5" y="-175.5" font-family="Helvetica,sans-Serif" font-size="10.00" fill="#000000">iterator</text>
</g>
<!-- Node46&#45;&gt;Node47 -->
<g id="edge73" class="edge">
<title>Node46&#45;&gt;Node47</title>
<path fill="none" stroke="#191970" d="M1400.8683,-224.2455C1388.1006,-215.7337 1369.3562,-203.2375 1354.5701,-193.3801"/>
<polygon fill="#191970" stroke="#191970" points="1356.226,-190.2775 1345.964,-187.6427 1352.3431,-196.1019 1356.226,-190.2775"/>
</g>
<!-- Node48 -->
<g id="node46" class="node">
<title>Node48</title>
<g id="a_node46"><a xlink:href="Range_8inl_8hxx.html" target="_top" xlink:title="Range.inl.hxx">
<polygon fill="none" stroke="#000000" points="1376,-168.5 1376,-187.5 1459,-187.5 1459,-168.5 1376,-168.5"/>
<text text-anchor="middle" x="1417.5" y="-175.5" font-family="Helvetica,sans-Serif" font-size="10.00" fill="#000000">Range.inl.hxx</text>
</a>
</g>
</g>
<!-- Node46&#45;&gt;Node48 -->
<g id="edge75" class="edge">
<title>Node46&#45;&gt;Node48</title>
<path fill="none" stroke="#191970" d="M1415.8484,-224.2455C1416.1093,-216.9382 1416.4752,-206.6944 1416.7963,-197.7046"/>
<polygon fill="#191970" stroke="#191970" points="1420.2964,-197.7613 1417.1556,-187.6427 1413.3008,-197.5113 1420.2964,-197.7613"/>
</g>
<!-- Node49&#45;&gt;Node6 -->
<g id="edge78" class="edge">
<title>Node49&#45;&gt;Node6</title>
<path fill="none" stroke="#191970" d="M1300.1176,-224.1547C1298.8864,-214.8576 1297.1781,-200.5134 1296.5,-188 1293.3884,-130.5776 1296.3846,-62.597 1298.2539,-29.7391"/>
<polygon fill="#191970" stroke="#191970" points="1301.7536,-29.8474 1298.8563,-19.6564 1294.7661,-29.4299 1301.7536,-29.8474"/>
</g>
<!-- Node50 -->
<g id="node48" class="node">
<title>Node50</title>
<polygon fill="none" stroke="#bfbfbf" points="1198.5,-168.5 1198.5,-187.5 1248.5,-187.5 1248.5,-168.5 1198.5,-168.5"/>
<text text-anchor="middle" x="1223.5" y="-175.5" font-family="Helvetica,sans-Serif" font-size="10.00" fill="#000000">cstdint</text>
</g>
<!-- Node49&#45;&gt;Node50 -->
<g id="edge77" class="edge">
<title>Node49&#45;&gt;Node50</title>
<path fill="none" stroke="#191970" d="M1287.9134,-224.2455C1276.1695,-215.814 1258.9801,-203.4729 1245.3118,-193.6598"/>
<polygon fill="#191970" stroke="#191970" points="1247.0954,-190.6316 1236.9309,-187.6427 1243.0129,-196.3179 1247.0954,-190.6316"/>
</g>
</g>
</svg>
