<?xml version="1.0" encoding="UTF-8" standalone="no"?>
<!DOCTYPE svg PUBLIC "-//W3C//DTD SVG 1.1//EN"
 "http://www.w3.org/Graphics/SVG/1.1/DTD/svg11.dtd">
<!-- Generated by graphviz version 2.40.1 (20161225.0304)
 -->
<!-- Title: src/engine/TileManager.cxx Pages: 1 -->
<!--zoomable 420 -->
<svg id="main" version="1.1" xmlns="http://www.w3.org/2000/svg" xmlns:xlink="http://www.w3.org/1999/xlink" xml:space="preserve" onload="init(evt)">
<style type="text/css"><![CDATA[
.edge:hover path { stroke: red; }
.edge:hover polygon { stroke: red; fill: red; }
]]></style>
<script type="text/javascript"><![CDATA[
var edges = document.getElementsByTagName('g');
if (edges && edges.length) {
  for (var i=0;i<edges.length;i++) {
    if (edges[i].id.substr(0,4)=='edge') {
      edges[i].setAttribute('class','edge');
    }
  }
}
]]></script>
        <defs>
                <circle id="rim" cx="0" cy="0" r="7"/>
                <circle id="rim2" cx="0" cy="0" r="3.5"/>
                <g id="zoomPlus">
                        <use xlink:href="#rim" fill="#404040">
                                <set attributeName="fill" to="#808080" begin="zoomplus.mouseover" end="zoomplus.mouseout"/>
                        </use>
                        <path d="M-4,0h8M0,-4v8" fill="none" stroke="white" stroke-width="1.5" pointer-events="none"/>
                </g>
                <g id="zoomMin">
                        <use xlink:href="#rim" fill="#404040">
                                <set attributeName="fill" to="#808080" begin="zoomminus.mouseover" end="zoomminus.mouseout"/>
                        </use>
                        <path d="M-4,0h8" fill="none" stroke="white" stroke-width="1.5" pointer-events="none"/>
                </g>
                <g id="dirArrow">
                        <path fill="none" stroke="white" stroke-width="1.5" d="M0,-3.0v7 M-2.5,-0.5L0,-3.0L2.5,-0.5"/>
                </g>
               <g id="resetDef">
                       <use xlink:href="#rim2" fill="#404040">
                               <set attributeName="fill" to="#808080" begin="reset.mouseover" end="reset.mouseout"/>
                       </use>
               </g>
        </defs>

<script type="text/javascript">
var viewWidth = 2017;
var viewHeight = 420;
var sectionId = 'dynsection-0';
</script>
<script xlink:href="svgpan.js"/>
<svg id="graph" class="graph">
<g id="viewport">
<title>src/engine/TileManager.cxx</title>
<!-- Node0 -->
<g id="node1" class="node">
<title>Node0</title>
<polygon fill="#bfbfbf" stroke="#000000" points="821.3681,-392.5 821.3681,-411.5 970.3681,-411.5 970.3681,-392.5 821.3681,-392.5"/>
<text text-anchor="middle" x="895.8681" y="-399.5" font-family="Helvetica,sans-Serif" font-size="10.00" fill="#000000">src/engine/TileManager.cxx</text>
</g>
<!-- Node1 -->
<g id="node2" class="node">
<title>Node1</title>
<g id="a_node2"><a xlink:href="TileManager_8hxx.html" target="_top" xlink:title="TileManager.hxx">
<polygon fill="none" stroke="#000000" points="270.3681,-168.5 270.3681,-187.5 367.3681,-187.5 367.3681,-168.5 270.3681,-168.5"/>
<text text-anchor="middle" x="318.8681" y="-175.5" font-family="Helvetica,sans-Serif" font-size="10.00" fill="#000000">TileManager.hxx</text>
</a>
</g>
</g>
<!-- Node0&#45;&gt;Node1 -->
<g id="edge1" class="edge">
<title>Node0&#45;&gt;Node1</title>
<path fill="none" stroke="#191970" d="M871.0751,-392.375C779.3394,-356.7618 459.0093,-232.4049 353.1306,-191.3012"/>
<polygon fill="#191970" stroke="#191970" points="354.1575,-187.9454 343.5687,-187.5891 351.6242,-194.471 354.1575,-187.9454"/>
</g>
<!-- Node13 -->
<g id="node14" class="node">
<title>Node13</title>
<g id="a_node14"><a xlink:href="LOG_8hxx.html" target="_top" xlink:title="LOG.hxx">
<polygon fill="none" stroke="#000000" points="1468.8681,-112.5 1468.8681,-131.5 1526.8681,-131.5 1526.8681,-112.5 1468.8681,-112.5"/>
<text text-anchor="middle" x="1497.8681" y="-119.5" font-family="Helvetica,sans-Serif" font-size="10.00" fill="#000000">LOG.hxx</text>
</a>
</g>
</g>
<!-- Node0&#45;&gt;Node13 -->
<g id="edge14" class="edge">
<title>Node0&#45;&gt;Node13</title>
<path fill="none" stroke="#191970" d="M970.5915,-395.8165C1131.813,-381.4698 1497.8681,-343.054 1497.8681,-290 1497.8681,-290 1497.8681,-290 1497.8681,-234 1497.8681,-201.7116 1497.8681,-164.1872 1497.8681,-141.8048"/>
<polygon fill="#191970" stroke="#191970" points="1501.3682,-141.5883 1497.8681,-131.5884 1494.3682,-141.5884 1501.3682,-141.5883"/>
</g>
<!-- Node14 -->
<g id="node15" class="node">
<title>Node14</title>
<g id="a_node15"><a xlink:href="Exception_8hxx.html" target="_top" xlink:title="Exception.hxx">
<polygon fill="none" stroke="#000000" points="1892.8681,-56.5 1892.8681,-75.5 1978.8681,-75.5 1978.8681,-56.5 1892.8681,-56.5"/>
<text text-anchor="middle" x="1935.8681" y="-63.5" font-family="Helvetica,sans-Serif" font-size="10.00" fill="#000000">Exception.hxx</text>
</a>
</g>
</g>
<!-- Node0&#45;&gt;Node14 -->
<g id="edge33" class="edge">
<title>Node0&#45;&gt;Node14</title>
<path fill="none" stroke="#191970" d="M970.734,-397.596C1204.1087,-383.3774 1902.8681,-336.8895 1902.8681,-290 1902.8681,-290 1902.8681,-290 1902.8681,-178 1902.8681,-144.051 1916.9916,-106.5869 1926.7592,-84.7366"/>
<polygon fill="#191970" stroke="#191970" points="1929.9618,-86.1501 1930.9988,-75.6061 1923.6128,-83.202 1929.9618,-86.1501"/>
</g>
<!-- Node29 -->
<g id="node30" class="node">
<title>Node29</title>
<g id="a_node30"><a xlink:href="Settings_8hxx.html" target="_top" xlink:title="basics/Settings.hxx">
<polygon fill="none" stroke="#000000" points="644.3681,-168.5 644.3681,-187.5 755.3681,-187.5 755.3681,-168.5 644.3681,-168.5"/>
<text text-anchor="middle" x="699.8681" y="-175.5" font-family="Helvetica,sans-Serif" font-size="10.00" fill="#000000">basics/Settings.hxx</text>
</a>
</g>
</g>
<!-- Node0&#45;&gt;Node29 -->
<g id="edge34" class="edge">
<title>Node0&#45;&gt;Node29</title>
<path fill="none" stroke="#191970" d="M884.2205,-392.1997C873.2429,-382.9345 856.361,-368.6117 841.8681,-356 813.6074,-331.4075 803.2705,-328.425 778.8681,-300 750.1203,-266.5133 723.7786,-221.8366 709.9742,-196.8911"/>
<polygon fill="#191970" stroke="#191970" points="712.869,-194.8889 705.0088,-187.7848 706.7232,-198.24 712.869,-194.8889"/>
</g>
<!-- Node31 -->
<g id="node32" class="node">
<title>Node31</title>
<g id="a_node32"><a xlink:href="ResourcesManager_8hxx.html" target="_top" xlink:title="ResourcesManager.hxx">
<polygon fill="none" stroke="#000000" points="12.8681,-224.5 12.8681,-243.5 140.8681,-243.5 140.8681,-224.5 12.8681,-224.5"/>
<text text-anchor="middle" x="76.8681" y="-231.5" font-family="Helvetica,sans-Serif" font-size="10.00" fill="#000000">ResourcesManager.hxx</text>
</a>
</g>
</g>
<!-- Node0&#45;&gt;Node31 -->
<g id="edge39" class="edge">
<title>Node0&#45;&gt;Node31</title>
<path fill="none" stroke="#191970" d="M821.3149,-395.8577C746.2392,-388.9412 627.3255,-375.9861 525.8681,-356 372.084,-325.7061 193.4718,-271.2458 116.0187,-246.6574"/>
<polygon fill="#191970" stroke="#191970" points="116.8001,-243.2331 106.2094,-243.5311 114.6744,-249.9025 116.8001,-243.2331"/>
</g>
<!-- Node32 -->
<g id="node33" class="node">
<title>Node32</title>
<g id="a_node33"><a xlink:href="Filesystem_8hxx.html" target="_top" xlink:title="Filesystem.hxx">
<polygon fill="none" stroke="#000000" points="850.8681,-336.5 850.8681,-355.5 940.8681,-355.5 940.8681,-336.5 850.8681,-336.5"/>
<text text-anchor="middle" x="895.8681" y="-343.5" font-family="Helvetica,sans-Serif" font-size="10.00" fill="#000000">Filesystem.hxx</text>
</a>
</g>
</g>
<!-- Node0&#45;&gt;Node32 -->
<g id="edge44" class="edge">
<title>Node0&#45;&gt;Node32</title>
<path fill="none" stroke="#191970" d="M895.8681,-392.2455C895.8681,-384.9382 895.8681,-374.6944 895.8681,-365.7046"/>
<polygon fill="#191970" stroke="#191970" points="899.3682,-365.6426 895.8681,-355.6427 892.3682,-365.6427 899.3682,-365.6426"/>
</g>
<!-- Node44 -->
<g id="node45" class="node">
<title>Node44</title>
<polygon fill="none" stroke="#bfbfbf" points="1930.8681,-336.5 1930.8681,-355.5 1974.8681,-355.5 1974.8681,-336.5 1930.8681,-336.5"/>
<text text-anchor="middle" x="1952.8681" y="-343.5" font-family="Helvetica,sans-Serif" font-size="10.00" fill="#000000">bitset</text>
</g>
<!-- Node0&#45;&gt;Node44 -->
<g id="edge65" class="edge">
<title>Node0&#45;&gt;Node44</title>
<path fill="none" stroke="#191970" d="M970.5042,-400.8233C1173.8366,-397.2691 1734.5225,-385.05 1916.8681,-356 1918.1292,-355.7991 1919.4093,-355.5699 1920.698,-355.3181"/>
<polygon fill="#191970" stroke="#191970" points="1921.6182,-358.6977 1930.5724,-353.0345 1920.0409,-351.8777 1921.6182,-358.6977"/>
</g>
<!-- Node2 -->
<g id="node3" class="node">
<title>Node2</title>
<polygon fill="none" stroke="#bfbfbf" points="129.8681,-56.5 129.8681,-75.5 173.8681,-75.5 173.8681,-56.5 129.8681,-56.5"/>
<text text-anchor="middle" x="151.8681" y="-63.5" font-family="Helvetica,sans-Serif" font-size="10.00" fill="#000000">SDL.h</text>
</g>
<!-- Node1&#45;&gt;Node2 -->
<g id="edge2" class="edge">
<title>Node1&#45;&gt;Node2</title>
<path fill="none" stroke="#191970" d="M271.7717,-168.458C234.0185,-159.911 185.0808,-146.515 170.8681,-132 158.9023,-119.7797 154.3806,-100.5336 152.7176,-85.9712"/>
<polygon fill="#191970" stroke="#191970" points="156.2022,-85.6363 151.9272,-75.9422 149.2238,-86.1863 156.2022,-85.6363"/>
</g>
<!-- Node3 -->
<g id="node4" class="node">
<title>Node3</title>
<polygon fill="none" stroke="#bfbfbf" points="30.3681,-112.5 30.3681,-131.5 123.3681,-131.5 123.3681,-112.5 30.3681,-112.5"/>
<text text-anchor="middle" x="76.8681" y="-119.5" font-family="Helvetica,sans-Serif" font-size="10.00" fill="#000000">unordered_map</text>
</g>
<!-- Node1&#45;&gt;Node3 -->
<g id="edge3" class="edge">
<title>Node1&#45;&gt;Node3</title>
<path fill="none" stroke="#191970" d="M277.5417,-168.4369C236.1253,-158.8529 172.2903,-144.0812 127.7746,-133.78"/>
<polygon fill="#191970" stroke="#191970" points="128.5556,-130.3683 118.0239,-131.5237 126.9774,-137.1881 128.5556,-130.3683"/>
</g>
<!-- Node4 -->
<g id="node5" class="node">
<title>Node4</title>
<polygon fill="none" stroke="#bfbfbf" points="732.8681,-56.5 732.8681,-75.5 776.8681,-75.5 776.8681,-56.5 732.8681,-56.5"/>
<text text-anchor="middle" x="754.8681" y="-63.5" font-family="Helvetica,sans-Serif" font-size="10.00" fill="#000000">string</text>
</g>
<!-- Node1&#45;&gt;Node4 -->
<g id="edge4" class="edge">
<title>Node1&#45;&gt;Node4</title>
<path fill="none" stroke="#191970" d="M333.4513,-168.2475C358.527,-151.6508 409.0289,-119.0245 428.8681,-112 482.6798,-92.9467 650.9872,-75.6214 722.3571,-68.9273"/>
<polygon fill="#191970" stroke="#191970" points="722.9194,-72.3903 732.5534,-67.9816 722.2729,-65.4202 722.9194,-72.3903"/>
</g>
<!-- Node5 -->
<g id="node6" class="node">
<title>Node5</title>
<g id="a_node6"><a xlink:href="tileData_8hxx.html" target="_top" xlink:title="tileData.hxx">
<polygon fill="none" stroke="#000000" points="438.3681,-112.5 438.3681,-131.5 515.3681,-131.5 515.3681,-112.5 438.3681,-112.5"/>
<text text-anchor="middle" x="476.8681" y="-119.5" font-family="Helvetica,sans-Serif" font-size="10.00" fill="#000000">tileData.hxx</text>
</a>
</g>
</g>
<!-- Node1&#45;&gt;Node5 -->
<g id="edge5" class="edge">
<title>Node1&#45;&gt;Node5</title>
<path fill="none" stroke="#191970" d="M346.0292,-168.3733C372.0748,-159.1419 411.5796,-145.1402 440.3659,-134.9375"/>
<polygon fill="#191970" stroke="#191970" points="441.8051,-138.1408 450.0613,-131.5011 439.4666,-131.5429 441.8051,-138.1408"/>
</g>
<!-- Node10 -->
<g id="node11" class="node">
<title>Node10</title>
<polygon fill="none" stroke="#bfbfbf" points="179.8681,-112.5 179.8681,-131.5 237.8681,-131.5 237.8681,-112.5 179.8681,-112.5"/>
<text text-anchor="middle" x="208.8681" y="-119.5" font-family="Helvetica,sans-Serif" font-size="10.00" fill="#000000">json.hxx</text>
</g>
<!-- Node1&#45;&gt;Node10 -->
<g id="edge11" class="edge">
<title>Node1&#45;&gt;Node10</title>
<path fill="none" stroke="#191970" d="M299.7075,-168.2455C282.3569,-159.4125 256.578,-146.2887 236.9098,-136.2758"/>
<polygon fill="#191970" stroke="#191970" points="238.3086,-133.0605 227.809,-131.6427 235.1328,-139.2986 238.3086,-133.0605"/>
</g>
<!-- Node11 -->
<g id="node12" class="node">
<title>Node11</title>
<g id="a_node12"><a xlink:href="Singleton_8hxx.html" target="_top" xlink:title="Singleton.hxx">
<polygon fill="none" stroke="#000000" points="533.3681,-112.5 533.3681,-131.5 616.3681,-131.5 616.3681,-112.5 533.3681,-112.5"/>
<text text-anchor="middle" x="574.8681" y="-119.5" font-family="Helvetica,sans-Serif" font-size="10.00" fill="#000000">Singleton.hxx</text>
</a>
</g>
</g>
<!-- Node1&#45;&gt;Node11 -->
<g id="edge12" class="edge">
<title>Node1&#45;&gt;Node11</title>
<path fill="none" stroke="#191970" d="M362.5852,-168.4369C407.0218,-158.7164 475.8545,-143.6592 523.0168,-133.3425"/>
<polygon fill="#191970" stroke="#191970" points="524.0091,-136.7082 533.0302,-131.152 522.5132,-129.8699 524.0091,-136.7082"/>
</g>
<!-- Node12 -->
<g id="node13" class="node">
<title>Node12</title>
<polygon fill="none" stroke="#bfbfbf" points="256.3681,-112.5 256.3681,-131.5 381.3681,-131.5 381.3681,-112.5 256.3681,-112.5"/>
<text text-anchor="middle" x="318.8681" y="-119.5" font-family="Helvetica,sans-Serif" font-size="10.00" fill="#000000">../common/enums.hxx</text>
</g>
<!-- Node1&#45;&gt;Node12 -->
<g id="edge13" class="edge">
<title>Node1&#45;&gt;Node12</title>
<path fill="none" stroke="#191970" d="M318.8681,-168.2455C318.8681,-160.9382 318.8681,-150.6944 318.8681,-141.7046"/>
<polygon fill="#191970" stroke="#191970" points="322.3682,-141.6426 318.8681,-131.6427 315.3682,-141.6427 322.3682,-141.6426"/>
</g>
<!-- Node5&#45;&gt;Node4 -->
<g id="edge6" class="edge">
<title>Node5&#45;&gt;Node4</title>
<path fill="none" stroke="#191970" d="M515.5883,-113.7198C518.3894,-113.1336 521.1717,-112.5553 523.8681,-112 594.6881,-97.4153 677.8832,-81.0321 722.5701,-72.2933"/>
<polygon fill="#191970" stroke="#191970" points="723.4056,-75.6963 732.5489,-70.3438 722.0634,-68.8262 723.4056,-75.6963"/>
</g>
<!-- Node6 -->
<g id="node7" class="node">
<title>Node6</title>
<polygon fill="none" stroke="#bfbfbf" points="807.3681,-56.5 807.3681,-75.5 854.3681,-75.5 854.3681,-56.5 807.3681,-56.5"/>
<text text-anchor="middle" x="830.8681" y="-63.5" font-family="Helvetica,sans-Serif" font-size="10.00" fill="#000000">vector</text>
</g>
<!-- Node5&#45;&gt;Node6 -->
<g id="edge7" class="edge">
<title>Node5&#45;&gt;Node6</title>
<path fill="none" stroke="#191970" d="M515.5532,-113.535C518.3625,-112.9922 521.1562,-112.4742 523.8681,-112 639.6502,-91.7561 670.1785,-96.7663 785.8681,-76 789.5506,-75.339 793.3889,-74.5859 797.2032,-73.7964"/>
<polygon fill="#191970" stroke="#191970" points="798.0819,-77.1875 807.1205,-71.6599 796.6076,-70.3445 798.0819,-77.1875"/>
</g>
<!-- Node7 -->
<g id="node8" class="node">
<title>Node7</title>
<g id="a_node8"><a xlink:href="enums_8hxx.html" target="_top" xlink:title="enums.hxx">
<polygon fill="none" stroke="#000000" points="441.3681,-56.5 441.3681,-75.5 512.3681,-75.5 512.3681,-56.5 441.3681,-56.5"/>
<text text-anchor="middle" x="476.8681" y="-63.5" font-family="Helvetica,sans-Serif" font-size="10.00" fill="#000000">enums.hxx</text>
</a>
</g>
</g>
<!-- Node5&#45;&gt;Node7 -->
<g id="edge8" class="edge">
<title>Node5&#45;&gt;Node7</title>
<path fill="none" stroke="#191970" d="M476.8681,-112.2455C476.8681,-104.9382 476.8681,-94.6944 476.8681,-85.7046"/>
<polygon fill="#191970" stroke="#191970" points="480.3682,-85.6426 476.8681,-75.6427 473.3682,-85.6427 480.3682,-85.6426"/>
</g>
<!-- Node8 -->
<g id="node9" class="node">
<title>Node8</title>
<polygon fill="none" stroke="#bfbfbf" points="400.8681,-.5 400.8681,-19.5 456.8681,-19.5 456.8681,-.5 400.8681,-.5"/>
<text text-anchor="middle" x="428.8681" y="-7.5" font-family="Helvetica,sans-Serif" font-size="10.00" fill="#000000">stddef.h</text>
</g>
<!-- Node7&#45;&gt;Node8 -->
<g id="edge9" class="edge">
<title>Node7&#45;&gt;Node8</title>
<path fill="none" stroke="#191970" d="M468.5071,-56.2455C461.6931,-48.2958 451.9,-36.8706 443.7528,-27.3656"/>
<polygon fill="#191970" stroke="#191970" points="446.2986,-24.9575 437.1332,-19.6427 440.9838,-29.513 446.2986,-24.9575"/>
</g>
<!-- Node9 -->
<g id="node10" class="node">
<title>Node9</title>
<polygon fill="none" stroke="#bfbfbf" points="474.8681,-.5 474.8681,-19.5 574.8681,-19.5 574.8681,-.5 474.8681,-.5"/>
<text text-anchor="middle" x="524.8681" y="-7.5" font-family="Helvetica,sans-Serif" font-size="10.00" fill="#000000">betterEnums.hxx</text>
</g>
<!-- Node7&#45;&gt;Node9 -->
<g id="edge10" class="edge">
<title>Node7&#45;&gt;Node9</title>
<path fill="none" stroke="#191970" d="M485.229,-56.2455C492.0431,-48.2958 501.8362,-36.8706 509.9833,-27.3656"/>
<polygon fill="#191970" stroke="#191970" points="512.7524,-29.513 516.6029,-19.6427 507.4376,-24.9575 512.7524,-29.513"/>
</g>
<!-- Node13&#45;&gt;Node2 -->
<g id="edge24" class="edge">
<title>Node13&#45;&gt;Node2</title>
<path fill="none" stroke="#191970" d="M1468.8185,-120.7914C1292.6386,-113.4615 368.7039,-75.0214 184.0152,-67.3375"/>
<polygon fill="#191970" stroke="#191970" points="184.0067,-63.8342 173.8698,-66.9154 183.7156,-70.8281 184.0067,-63.8342"/>
</g>
<!-- Node13&#45;&gt;Node4 -->
<g id="edge15" class="edge">
<title>Node13&#45;&gt;Node4</title>
<path fill="none" stroke="#191970" d="M1468.6825,-121.7794C1372.3566,-120.6906 1055.9865,-114.2345 797.8681,-76 794.3496,-75.4788 790.6938,-74.818 787.0661,-74.0853"/>
<polygon fill="#191970" stroke="#191970" points="787.5717,-70.613 777.0536,-71.8862 786.07,-77.45 787.5717,-70.613"/>
</g>
<!-- Node13&#45;&gt;Node14 -->
<g id="edge16" class="edge">
<title>Node13&#45;&gt;Node14</title>
<path fill="none" stroke="#191970" d="M1526.9457,-118.2823C1599.5053,-109.0053 1789.3979,-84.7268 1882.6464,-72.8046"/>
<polygon fill="#191970" stroke="#191970" points="1883.2393,-76.2574 1892.7146,-71.5173 1882.3514,-69.3139 1883.2393,-76.2574"/>
</g>
<!-- Node17 -->
<g id="node18" class="node">
<title>Node17</title>
<polygon fill="none" stroke="#bfbfbf" points="1256.8681,-.5 1256.8681,-19.5 1316.8681,-19.5 1316.8681,-.5 1256.8681,-.5"/>
<text text-anchor="middle" x="1286.8681" y="-7.5" font-family="Helvetica,sans-Serif" font-size="10.00" fill="#000000">iostream</text>
</g>
<!-- Node13&#45;&gt;Node17 -->
<g id="edge19" class="edge">
<title>Node13&#45;&gt;Node17</title>
<path fill="none" stroke="#191970" d="M1526.8985,-119.8283C1600.447,-114.0333 1789.5886,-97.1921 1807.8681,-76 1813.6739,-69.2691 1813.8707,-62.556 1807.8681,-56 1775.6095,-20.7678 1444.3568,-12.3759 1327.4495,-10.5047"/>
<polygon fill="#191970" stroke="#191970" points="1327.1949,-7.0005 1317.1428,-10.3479 1327.0884,-13.9997 1327.1949,-7.0005"/>
</g>
<!-- Node18 -->
<g id="node19" class="node">
<title>Node18</title>
<polygon fill="none" stroke="#bfbfbf" points="1472.8681,-56.5 1472.8681,-75.5 1522.8681,-75.5 1522.8681,-56.5 1472.8681,-56.5"/>
<text text-anchor="middle" x="1497.8681" y="-63.5" font-family="Helvetica,sans-Serif" font-size="10.00" fill="#000000">chrono</text>
</g>
<!-- Node13&#45;&gt;Node18 -->
<g id="edge20" class="edge">
<title>Node13&#45;&gt;Node18</title>
<path fill="none" stroke="#191970" d="M1497.8681,-112.2455C1497.8681,-104.9382 1497.8681,-94.6944 1497.8681,-85.7046"/>
<polygon fill="#191970" stroke="#191970" points="1501.3682,-85.6426 1497.8681,-75.6427 1494.3682,-85.6427 1501.3682,-85.6426"/>
</g>
<!-- Node19 -->
<g id="node20" class="node">
<title>Node19</title>
<polygon fill="none" stroke="#bfbfbf" points="1540.8681,-56.5 1540.8681,-75.5 1584.8681,-75.5 1584.8681,-56.5 1540.8681,-56.5"/>
<text text-anchor="middle" x="1562.8681" y="-63.5" font-family="Helvetica,sans-Serif" font-size="10.00" fill="#000000">ctime</text>
</g>
<!-- Node13&#45;&gt;Node19 -->
<g id="edge21" class="edge">
<title>Node13&#45;&gt;Node19</title>
<path fill="none" stroke="#191970" d="M1509.1902,-112.2455C1518.7904,-103.9746 1532.7572,-91.9416 1544.0375,-82.2232"/>
<polygon fill="#191970" stroke="#191970" points="1546.3841,-84.8214 1551.6757,-75.6427 1541.8151,-79.5182 1546.3841,-84.8214"/>
</g>
<!-- Node20 -->
<g id="node21" class="node">
<title>Node20</title>
<polygon fill="none" stroke="#bfbfbf" points="1603.3681,-56.5 1603.3681,-75.5 1658.3681,-75.5 1658.3681,-56.5 1603.3681,-56.5"/>
<text text-anchor="middle" x="1630.8681" y="-63.5" font-family="Helvetica,sans-Serif" font-size="10.00" fill="#000000">fstream</text>
</g>
<!-- Node13&#45;&gt;Node20 -->
<g id="edge22" class="edge">
<title>Node13&#45;&gt;Node20</title>
<path fill="none" stroke="#191970" d="M1520.7316,-112.3733C1542.273,-103.3032 1574.7518,-89.6279 1598.8637,-79.4755"/>
<polygon fill="#191970" stroke="#191970" points="1600.4448,-82.6075 1608.3029,-75.5011 1597.7283,-76.156 1600.4448,-82.6075"/>
</g>
<!-- Node21 -->
<g id="node22" class="node">
<title>Node21</title>
<polygon fill="none" stroke="#bfbfbf" points="1676.8681,-56.5 1676.8681,-75.5 1732.8681,-75.5 1732.8681,-56.5 1676.8681,-56.5"/>
<text text-anchor="middle" x="1704.8681" y="-63.5" font-family="Helvetica,sans-Serif" font-size="10.00" fill="#000000">sstream</text>
</g>
<!-- Node13&#45;&gt;Node21 -->
<g id="edge23" class="edge">
<title>Node13&#45;&gt;Node21</title>
<path fill="none" stroke="#191970" d="M1527.0871,-114.0953C1563.7646,-104.1729 1626.7458,-87.1345 1667.0607,-76.2281"/>
<polygon fill="#191970" stroke="#191970" points="1668.0532,-79.5855 1676.7921,-73.5954 1666.2251,-72.8284 1668.0532,-79.5855"/>
</g>
<!-- Node22 -->
<g id="node23" class="node">
<title>Node22</title>
<polygon fill="none" stroke="#bfbfbf" points="1298.8681,-56.5 1298.8681,-75.5 1362.8681,-75.5 1362.8681,-56.5 1298.8681,-56.5"/>
<text text-anchor="middle" x="1330.8681" y="-63.5" font-family="Helvetica,sans-Serif" font-size="10.00" fill="#000000">algorithm</text>
</g>
<!-- Node13&#45;&gt;Node22 -->
<g id="edge25" class="edge">
<title>Node13&#45;&gt;Node22</title>
<path fill="none" stroke="#191970" d="M1469.1597,-112.3733C1441.5104,-103.1016 1399.5105,-89.0178 1369.0515,-78.804"/>
<polygon fill="#191970" stroke="#191970" points="1369.7957,-75.3621 1359.2018,-75.5011 1367.5701,-81.9989 1369.7957,-75.3621"/>
</g>
<!-- Node23 -->
<g id="node24" class="node">
<title>Node23</title>
<polygon fill="none" stroke="#bfbfbf" points="1750.8681,-56.5 1750.8681,-75.5 1798.8681,-75.5 1798.8681,-56.5 1750.8681,-56.5"/>
<text text-anchor="middle" x="1774.8681" y="-63.5" font-family="Helvetica,sans-Serif" font-size="10.00" fill="#000000">mutex</text>
</g>
<!-- Node13&#45;&gt;Node23 -->
<g id="edge26" class="edge">
<title>Node13&#45;&gt;Node23</title>
<path fill="none" stroke="#191970" d="M1527.0069,-117.551C1571.2337,-110.5734 1658.0936,-95.9914 1740.9769,-76.0185"/>
<polygon fill="#191970" stroke="#191970" points="1741.9154,-79.3922 1750.8003,-73.6209 1740.2556,-72.5919 1741.9154,-79.3922"/>
</g>
<!-- Node24 -->
<g id="node25" class="node">
<title>Node24</title>
<g id="a_node25"><a xlink:href="Meta_8hxx.html" target="_top" xlink:title="Meta.hxx">
<polygon fill="none" stroke="#000000" points="1113.8681,-56.5 1113.8681,-75.5 1175.8681,-75.5 1175.8681,-56.5 1113.8681,-56.5"/>
<text text-anchor="middle" x="1144.8681" y="-63.5" font-family="Helvetica,sans-Serif" font-size="10.00" fill="#000000">Meta.hxx</text>
</a>
</g>
</g>
<!-- Node13&#45;&gt;Node24 -->
<g id="edge27" class="edge">
<title>Node13&#45;&gt;Node24</title>
<path fill="none" stroke="#191970" d="M1468.6803,-117.3696C1406.0187,-107.429 1258.4558,-84.0196 1186.1969,-72.5564"/>
<polygon fill="#191970" stroke="#191970" points="1186.5262,-69.065 1176.1013,-70.9548 1185.4293,-75.9785 1186.5262,-69.065"/>
</g>
<!-- Node28 -->
<g id="node29" class="node">
<title>Node28</title>
<g id="a_node29"><a xlink:href="LOG_8inl_8hxx.html" target="_top" xlink:title="LOG.inl.hxx">
<polygon fill="none" stroke="#000000" points="1381.3681,-56.5 1381.3681,-75.5 1454.3681,-75.5 1454.3681,-56.5 1381.3681,-56.5"/>
<text text-anchor="middle" x="1417.8681" y="-63.5" font-family="Helvetica,sans-Serif" font-size="10.00" fill="#000000">LOG.inl.hxx</text>
</a>
</g>
</g>
<!-- Node13&#45;&gt;Node28 -->
<g id="edge32" class="edge">
<title>Node13&#45;&gt;Node28</title>
<path fill="none" stroke="#191970" d="M1483.9331,-112.2455C1471.7734,-103.7337 1453.9216,-91.2375 1439.8396,-81.3801"/>
<polygon fill="#191970" stroke="#191970" points="1441.8428,-78.51 1431.6433,-75.6427 1437.8285,-84.2447 1441.8428,-78.51"/>
</g>
<!-- Node15 -->
<g id="node16" class="node">
<title>Node15</title>
<polygon fill="none" stroke="#bfbfbf" points="1861.3681,-.5 1861.3681,-19.5 1926.3681,-19.5 1926.3681,-.5 1861.3681,-.5"/>
<text text-anchor="middle" x="1893.8681" y="-7.5" font-family="Helvetica,sans-Serif" font-size="10.00" fill="#000000">stdexcept</text>
</g>
<!-- Node14&#45;&gt;Node15 -->
<g id="edge17" class="edge">
<title>Node14&#45;&gt;Node15</title>
<path fill="none" stroke="#191970" d="M1928.5522,-56.2455C1922.6502,-48.3761 1914.1938,-37.101 1907.1087,-27.6542"/>
<polygon fill="#191970" stroke="#191970" points="1909.9001,-25.5427 1901.1001,-19.6427 1904.3001,-29.7427 1909.9001,-25.5427"/>
</g>
<!-- Node16 -->
<g id="node17" class="node">
<title>Node16</title>
<polygon fill="none" stroke="#bfbfbf" points="1944.3681,-.5 1944.3681,-19.5 2009.3681,-19.5 2009.3681,-.5 1944.3681,-.5"/>
<text text-anchor="middle" x="1976.8681" y="-7.5" font-family="Helvetica,sans-Serif" font-size="10.00" fill="#000000">exception</text>
</g>
<!-- Node14&#45;&gt;Node16 -->
<g id="edge18" class="edge">
<title>Node14&#45;&gt;Node16</title>
<path fill="none" stroke="#191970" d="M1943.0097,-56.2455C1948.7125,-48.4564 1956.858,-37.3308 1963.7305,-27.9439"/>
<polygon fill="#191970" stroke="#191970" points="1966.7248,-29.7789 1969.8082,-19.6427 1961.0768,-25.6437 1966.7248,-29.7789"/>
</g>
<!-- Node24&#45;&gt;Node17 -->
<g id="edge28" class="edge">
<title>Node24&#45;&gt;Node17</title>
<path fill="none" stroke="#191970" d="M1169.2787,-56.3733C1192.4823,-47.2226 1227.5719,-33.3844 1253.3823,-23.2057"/>
<polygon fill="#191970" stroke="#191970" points="1254.7573,-26.4258 1262.7759,-19.5011 1252.1891,-19.9139 1254.7573,-26.4258"/>
</g>
<!-- Node25 -->
<g id="node26" class="node">
<title>Node25</title>
<polygon fill="none" stroke="#bfbfbf" points="1110.3681,-.5 1110.3681,-19.5 1179.3681,-19.5 1179.3681,-.5 1110.3681,-.5"/>
<text text-anchor="middle" x="1144.8681" y="-7.5" font-family="Helvetica,sans-Serif" font-size="10.00" fill="#000000">type_traits</text>
</g>
<!-- Node24&#45;&gt;Node25 -->
<g id="edge29" class="edge">
<title>Node24&#45;&gt;Node25</title>
<path fill="none" stroke="#191970" d="M1144.8681,-56.2455C1144.8681,-48.9382 1144.8681,-38.6944 1144.8681,-29.7046"/>
<polygon fill="#191970" stroke="#191970" points="1148.3682,-29.6426 1144.8681,-19.6427 1141.3682,-29.6427 1148.3682,-29.6426"/>
</g>
<!-- Node26 -->
<g id="node27" class="node">
<title>Node26</title>
<polygon fill="none" stroke="#bfbfbf" points="1041.3681,-.5 1041.3681,-19.5 1092.3681,-19.5 1092.3681,-.5 1041.3681,-.5"/>
<text text-anchor="middle" x="1066.8681" y="-7.5" font-family="Helvetica,sans-Serif" font-size="10.00" fill="#000000">variant</text>
</g>
<!-- Node24&#45;&gt;Node26 -->
<g id="edge30" class="edge">
<title>Node24&#45;&gt;Node26</title>
<path fill="none" stroke="#191970" d="M1131.2815,-56.2455C1119.5376,-47.814 1102.3482,-35.4729 1088.6799,-25.6598"/>
<polygon fill="#191970" stroke="#191970" points="1090.4634,-22.6316 1080.2989,-19.6427 1086.3809,-28.3179 1090.4634,-22.6316"/>
</g>
<!-- Node27 -->
<g id="node28" class="node">
<title>Node27</title>
<polygon fill="none" stroke="#bfbfbf" points="1197.3681,-.5 1197.3681,-19.5 1238.3681,-19.5 1238.3681,-.5 1197.3681,-.5"/>
<text text-anchor="middle" x="1217.8681" y="-7.5" font-family="Helvetica,sans-Serif" font-size="10.00" fill="#000000">tuple</text>
</g>
<!-- Node24&#45;&gt;Node27 -->
<g id="edge31" class="edge">
<title>Node24&#45;&gt;Node27</title>
<path fill="none" stroke="#191970" d="M1157.5837,-56.2455C1168.4701,-47.8943 1184.3563,-35.7076 1197.0881,-25.9408"/>
<polygon fill="#191970" stroke="#191970" points="1199.4941,-28.5063 1205.2981,-19.6427 1195.2335,-22.9523 1199.4941,-28.5063"/>
</g>
<!-- Node29&#45;&gt;Node4 -->
<g id="edge35" class="edge">
<title>Node29&#45;&gt;Node4</title>
<path fill="none" stroke="#191970" d="M708.7609,-168.4656C716.5996,-159.6128 727.8372,-145.7618 734.8681,-132 742.3579,-117.3398 747.5718,-99.3877 750.7938,-85.9093"/>
<polygon fill="#191970" stroke="#191970" points="754.2854,-86.3312 753.0381,-75.81 747.4521,-84.8126 754.2854,-86.3312"/>
</g>
<!-- Node29&#45;&gt;Node11 -->
<g id="edge36" class="edge">
<title>Node29&#45;&gt;Node11</title>
<path fill="none" stroke="#191970" d="M678.3798,-168.3733C658.2241,-159.3435 627.88,-145.7494 605.25,-135.6111"/>
<polygon fill="#191970" stroke="#191970" points="606.6329,-132.3955 596.0759,-131.5011 603.771,-138.7838 606.6329,-132.3955"/>
</g>
<!-- Node29&#45;&gt;Node24 -->
<g id="edge37" class="edge">
<title>Node29&#45;&gt;Node24</title>
<path fill="none" stroke="#191970" d="M687.7916,-168.3713C672.0156,-154.6681 648.1538,-129.2887 663.8681,-112 693.2139,-79.7139 992.5182,-69.524 1103.636,-66.8391"/>
<polygon fill="#191970" stroke="#191970" points="1103.8709,-70.3346 1113.7865,-66.6022 1103.7075,-63.3365 1103.8709,-70.3346"/>
</g>
<!-- Node30 -->
<g id="node31" class="node">
<title>Node30</title>
<polygon fill="none" stroke="#bfbfbf" points="673.3681,-112.5 673.3681,-131.5 726.3681,-131.5 726.3681,-112.5 673.3681,-112.5"/>
<text text-anchor="middle" x="699.8681" y="-119.5" font-family="Helvetica,sans-Serif" font-size="10.00" fill="#000000">cstddef</text>
</g>
<!-- Node29&#45;&gt;Node30 -->
<g id="edge38" class="edge">
<title>Node29&#45;&gt;Node30</title>
<path fill="none" stroke="#191970" d="M699.8681,-168.2455C699.8681,-160.9382 699.8681,-150.6944 699.8681,-141.7046"/>
<polygon fill="#191970" stroke="#191970" points="703.3682,-141.6426 699.8681,-131.6427 696.3682,-141.6427 703.3682,-141.6426"/>
</g>
<!-- Node31&#45;&gt;Node1 -->
<g id="edge43" class="edge">
<title>Node31&#45;&gt;Node1</title>
<path fill="none" stroke="#191970" d="M118.1944,-224.4369C159.6108,-214.8529 223.4458,-200.0812 267.9616,-189.78"/>
<polygon fill="#191970" stroke="#191970" points="268.7587,-193.1881 277.7122,-187.5237 267.1806,-186.3683 268.7587,-193.1881"/>
</g>
<!-- Node31&#45;&gt;Node2 -->
<g id="edge42" class="edge">
<title>Node31&#45;&gt;Node2</title>
<path fill="none" stroke="#191970" d="M66.1324,-224.4996C43.2565,-203.1004 -6.0833,-150.0286 20.8681,-112 32.5388,-95.5326 85.0009,-80.9248 119.8905,-72.7908"/>
<polygon fill="#191970" stroke="#191970" points="120.6752,-76.2018 129.6528,-70.5757 119.1262,-69.3753 120.6752,-76.2018"/>
</g>
<!-- Node31&#45;&gt;Node3 -->
<g id="edge41" class="edge">
<title>Node31&#45;&gt;Node3</title>
<path fill="none" stroke="#191970" d="M76.8681,-224.4509C76.8681,-206.184 76.8681,-165.9553 76.8681,-141.6976"/>
<polygon fill="#191970" stroke="#191970" points="80.3682,-141.5249 76.8681,-131.5249 73.3682,-141.5249 80.3682,-141.5249"/>
</g>
<!-- Node31&#45;&gt;Node17 -->
<g id="edge40" class="edge">
<title>Node31&#45;&gt;Node17</title>
<path fill="none" stroke="#191970" d="M58.6478,-224.46C45.4033,-216.528 28.2209,-203.9695 18.8681,-188 1.6784,-158.6494 -7.962,-140.966 9.8681,-112 38.8333,-64.9442 67.3243,-69.6493 120.8681,-56 363.4599,5.8412 998.9142,-54.5552 1246.8681,-20 1246.97,-19.9858 1247.072,-19.9714 1247.1741,-19.9569"/>
<polygon fill="#191970" stroke="#191970" points="1247.6315,-23.4307 1256.862,-18.2299 1246.403,-16.5393 1247.6315,-23.4307"/>
</g>
<!-- Node32&#45;&gt;Node4 -->
<g id="edge46" class="edge">
<title>Node32&#45;&gt;Node4</title>
<path fill="none" stroke="#191970" d="M876.9763,-336.4787C847.241,-319.9949 792.8681,-283.1354 792.8681,-234 792.8681,-234 792.8681,-234 792.8681,-178 792.8681,-143.6118 776.6046,-106.2832 765.357,-84.5791"/>
<polygon fill="#191970" stroke="#191970" points="768.2991,-82.6605 760.4751,-75.5166 762.1364,-85.9804 768.2991,-82.6605"/>
</g>
<!-- Node32&#45;&gt;Node6 -->
<g id="edge47" class="edge">
<title>Node32&#45;&gt;Node6</title>
<path fill="none" stroke="#191970" d="M885.4247,-336.3101C867.0507,-318.151 830.8681,-276.9402 830.8681,-234 830.8681,-234 830.8681,-234 830.8681,-178 830.8681,-145.7116 830.8681,-108.1872 830.8681,-85.8048"/>
<polygon fill="#191970" stroke="#191970" points="834.3682,-85.5883 830.8681,-75.5884 827.3682,-85.5884 834.3682,-85.5883"/>
</g>
<!-- Node33 -->
<g id="node34" class="node">
<title>Node33</title>
<polygon fill="none" stroke="#bfbfbf" points="1038.8681,-280.5 1038.8681,-299.5 1092.8681,-299.5 1092.8681,-280.5 1038.8681,-280.5"/>
<text text-anchor="middle" x="1065.8681" y="-287.5" font-family="Helvetica,sans-Serif" font-size="10.00" fill="#000000">ciso646</text>
</g>
<!-- Node32&#45;&gt;Node33 -->
<g id="edge45" class="edge">
<title>Node32&#45;&gt;Node33</title>
<path fill="none" stroke="#191970" d="M925.0921,-336.3733C953.8745,-326.892 997.9332,-312.3785 1029.0834,-302.1173"/>
<polygon fill="#191970" stroke="#191970" points="1030.3049,-305.4 1038.7078,-298.9469 1028.1147,-298.7514 1030.3049,-305.4"/>
</g>
<!-- Node34 -->
<g id="node35" class="node">
<title>Node34</title>
<g id="a_node35"><a xlink:href="PixelBuffer_8hxx.html" target="_top" xlink:title="../util/PixelBuffer.hxx">
<polygon fill="none" stroke="#000000" points="902.8681,-280.5 902.8681,-299.5 1020.8681,-299.5 1020.8681,-280.5 902.8681,-280.5"/>
<text text-anchor="middle" x="961.8681" y="-287.5" font-family="Helvetica,sans-Serif" font-size="10.00" fill="#000000">../util/PixelBuffer.hxx</text>
</a>
</g>
</g>
<!-- Node32&#45;&gt;Node34 -->
<g id="edge48" class="edge">
<title>Node32&#45;&gt;Node34</title>
<path fill="none" stroke="#191970" d="M907.3644,-336.2455C917.1123,-327.9746 931.294,-315.9416 942.7478,-306.2232"/>
<polygon fill="#191970" stroke="#191970" points="945.1428,-308.7813 950.5035,-299.6427 940.6139,-303.4437 945.1428,-308.7813"/>
</g>
<!-- Node34&#45;&gt;Node6 -->
<g id="edge49" class="edge">
<title>Node34&#45;&gt;Node6</title>
<path fill="none" stroke="#191970" d="M946.0178,-280.3894C933.4391,-272.0839 916.151,-259.063 904.8681,-244 884.9767,-217.4445 851.5054,-125.2421 837.4235,-85.0154"/>
<polygon fill="#191970" stroke="#191970" points="840.7261,-83.8564 834.1363,-75.5603 834.1143,-86.1551 840.7261,-83.8564"/>
</g>
<!-- Node35 -->
<g id="node36" class="node">
<title>Node35</title>
<g id="a_node36"><a xlink:href="Rectangle_8hxx.html" target="_top" xlink:title="../util/Rectangle.hxx">
<polygon fill="none" stroke="#000000" points="1112.3681,-224.5 1112.3681,-243.5 1225.3681,-243.5 1225.3681,-224.5 1112.3681,-224.5"/>
<text text-anchor="middle" x="1168.8681" y="-231.5" font-family="Helvetica,sans-Serif" font-size="10.00" fill="#000000">../util/Rectangle.hxx</text>
</a>
</g>
</g>
<!-- Node34&#45;&gt;Node35 -->
<g id="edge50" class="edge">
<title>Node34&#45;&gt;Node35</title>
<path fill="none" stroke="#191970" d="M997.4526,-280.3733C1032.4696,-270.9001 1086.0562,-256.4032 1123.9805,-246.1435"/>
<polygon fill="#191970" stroke="#191970" points="1125.0089,-249.4912 1133.7478,-243.5011 1123.1808,-242.7341 1125.0089,-249.4912"/>
</g>
<!-- Node38 -->
<g id="node39" class="node">
<title>Node38</title>
<g id="a_node39"><a xlink:href="Range_8hxx.html" target="_top" xlink:title="../util/Range.hxx">
<polygon fill="none" stroke="#000000" points="913.8681,-224.5 913.8681,-243.5 1009.8681,-243.5 1009.8681,-224.5 913.8681,-224.5"/>
<text text-anchor="middle" x="961.8681" y="-231.5" font-family="Helvetica,sans-Serif" font-size="10.00" fill="#000000">../util/Range.hxx</text>
</a>
</g>
</g>
<!-- Node34&#45;&gt;Node38 -->
<g id="edge57" class="edge">
<title>Node34&#45;&gt;Node38</title>
<path fill="none" stroke="#191970" d="M961.8681,-280.2455C961.8681,-272.9382 961.8681,-262.6944 961.8681,-253.7046"/>
<polygon fill="#191970" stroke="#191970" points="965.3682,-253.6426 961.8681,-243.6427 958.3682,-253.6427 965.3682,-253.6426"/>
</g>
<!-- Node41 -->
<g id="node42" class="node">
<title>Node41</title>
<g id="a_node42"><a xlink:href="Color_8hxx.html" target="_top" xlink:title="../util/Color.hxx">
<polygon fill="none" stroke="#000000" points="1379.8681,-224.5 1379.8681,-243.5 1469.8681,-243.5 1469.8681,-224.5 1379.8681,-224.5"/>
<text text-anchor="middle" x="1424.8681" y="-231.5" font-family="Helvetica,sans-Serif" font-size="10.00" fill="#000000">../util/Color.hxx</text>
</a>
</g>
</g>
<!-- Node34&#45;&gt;Node41 -->
<g id="edge61" class="edge">
<title>Node34&#45;&gt;Node41</title>
<path fill="none" stroke="#191970" d="M1021.1887,-281.1467C1024.1221,-280.7496 1027.0276,-280.3651 1029.8681,-280 1174.8865,-261.3605 1211.8496,-262.6395 1356.8681,-244 1360.9956,-243.4695 1365.2605,-242.8979 1369.5488,-242.3063"/>
<polygon fill="#191970" stroke="#191970" points="1370.129,-245.7593 1379.5436,-240.8996 1369.1533,-238.8276 1370.129,-245.7593"/>
</g>
<!-- Node43 -->
<g id="node44" class="node">
<title>Node43</title>
<g id="a_node44"><a xlink:href="PixelBuffer_8inl_8hxx.html" target="_top" xlink:title="PixelBuffer.inl.hxx">
<polygon fill="none" stroke="#000000" points="1243.3681,-224.5 1243.3681,-243.5 1348.3681,-243.5 1348.3681,-224.5 1243.3681,-224.5"/>
<text text-anchor="middle" x="1295.8681" y="-231.5" font-family="Helvetica,sans-Serif" font-size="10.00" fill="#000000">PixelBuffer.inl.hxx</text>
</a>
</g>
</g>
<!-- Node34&#45;&gt;Node43 -->
<g id="edge64" class="edge">
<title>Node34&#45;&gt;Node43</title>
<path fill="none" stroke="#191970" d="M1018.9052,-280.4369C1078.4712,-270.4498 1171.6363,-254.8293 1233.2161,-244.5045"/>
<polygon fill="#191970" stroke="#191970" points="1233.912,-247.9368 1243.1956,-242.8313 1232.7545,-241.0331 1233.912,-247.9368"/>
</g>
<!-- Node35&#45;&gt;Node17 -->
<g id="edge52" class="edge">
<title>Node35&#45;&gt;Node17</title>
<path fill="none" stroke="#191970" d="M1188.3154,-224.4916C1202.5854,-216.5761 1221.4021,-204.0244 1232.8681,-188 1268.323,-138.4493 1280.8485,-65.2523 1284.9845,-30.178"/>
<polygon fill="#191970" stroke="#191970" points="1288.5074,-30.1485 1286.0865,-19.834 1281.5468,-29.4069 1288.5074,-30.1485"/>
</g>
<!-- Node35&#45;&gt;Node27 -->
<g id="edge51" class="edge">
<title>Node35&#45;&gt;Node27</title>
<path fill="none" stroke="#191970" d="M1183.4823,-224.2279C1194.3733,-216.0075 1208.4297,-203.1805 1214.8681,-188 1237.5283,-134.5713 1228.5604,-63.7561 1222.1709,-29.8051"/>
<polygon fill="#191970" stroke="#191970" points="1225.5579,-28.8949 1220.1523,-19.7829 1218.6957,-30.2771 1225.5579,-28.8949"/>
</g>
<!-- Node36 -->
<g id="node37" class="node">
<title>Node36</title>
<g id="a_node37"><a xlink:href="iShape_8hxx.html" target="_top" xlink:title="../util/iShape.hxx">
<polygon fill="none" stroke="#000000" points="1107.8681,-168.5 1107.8681,-187.5 1205.8681,-187.5 1205.8681,-168.5 1107.8681,-168.5"/>
<text text-anchor="middle" x="1156.8681" y="-175.5" font-family="Helvetica,sans-Serif" font-size="10.00" fill="#000000">../util/iShape.hxx</text>
</a>
</g>
</g>
<!-- Node35&#45;&gt;Node36 -->
<g id="edge53" class="edge">
<title>Node35&#45;&gt;Node36</title>
<path fill="none" stroke="#191970" d="M1166.7778,-224.2455C1165.212,-216.9382 1163.0169,-206.6944 1161.0905,-197.7046"/>
<polygon fill="#191970" stroke="#191970" points="1164.452,-196.6873 1158.9344,-187.6427 1157.6074,-198.1541 1164.452,-196.6873"/>
</g>
<!-- Node37 -->
<g id="node38" class="node">
<title>Node37</title>
<g id="a_node38"><a xlink:href="Rectangle_8inl_8hxx.html" target="_top" xlink:title="Rectangle.inl.hxx">
<polygon fill="none" stroke="#000000" points="1300.3681,-168.5 1300.3681,-187.5 1401.3681,-187.5 1401.3681,-168.5 1300.3681,-168.5"/>
<text text-anchor="middle" x="1350.8681" y="-175.5" font-family="Helvetica,sans-Serif" font-size="10.00" fill="#000000">Rectangle.inl.hxx</text>
</a>
</g>
</g>
<!-- Node35&#45;&gt;Node37 -->
<g id="edge54" class="edge">
<title>Node35&#45;&gt;Node37</title>
<path fill="none" stroke="#191970" d="M1200.155,-224.3733C1230.5498,-215.021 1276.8574,-200.7725 1310.1181,-190.5385"/>
<polygon fill="#191970" stroke="#191970" points="1311.4609,-193.7873 1319.9894,-187.5011 1309.4023,-187.0968 1311.4609,-193.7873"/>
</g>
<!-- Node37&#45;&gt;Node13 -->
<g id="edge56" class="edge">
<title>Node37&#45;&gt;Node13</title>
<path fill="none" stroke="#191970" d="M1376.1383,-168.3733C1400.2647,-159.1822 1436.8043,-145.2624 1463.5558,-135.0713"/>
<polygon fill="#191970" stroke="#191970" points="1464.8287,-138.3318 1472.9276,-131.5011 1462.3367,-131.7904 1464.8287,-138.3318"/>
</g>
<!-- Node37&#45;&gt;Node22 -->
<g id="edge55" class="edge">
<title>Node37&#45;&gt;Node22</title>
<path fill="none" stroke="#191970" d="M1349.1629,-168.4509C1345.8862,-150.1013 1338.6521,-109.5908 1334.3269,-85.3693"/>
<polygon fill="#191970" stroke="#191970" points="1337.7724,-84.7539 1332.5689,-75.5249 1330.8814,-85.9845 1337.7724,-84.7539"/>
</g>
<!-- Node38&#45;&gt;Node24 -->
<g id="edge59" class="edge">
<title>Node38&#45;&gt;Node24</title>
<path fill="none" stroke="#191970" d="M949.9012,-224.3676C935.1668,-211.3023 913.521,-187.3712 925.8681,-168 965.073,-106.4915 1052.076,-81.4804 1103.8444,-71.7645"/>
<polygon fill="#191970" stroke="#191970" points="1104.467,-75.2088 1113.7037,-70.019 1103.2466,-68.316 1104.467,-75.2088"/>
</g>
<!-- Node39 -->
<g id="node40" class="node">
<title>Node39</title>
<polygon fill="none" stroke="#bfbfbf" points="935.3681,-168.5 935.3681,-187.5 988.3681,-187.5 988.3681,-168.5 935.3681,-168.5"/>
<text text-anchor="middle" x="961.8681" y="-175.5" font-family="Helvetica,sans-Serif" font-size="10.00" fill="#000000">iterator</text>
</g>
<!-- Node38&#45;&gt;Node39 -->
<g id="edge58" class="edge">
<title>Node38&#45;&gt;Node39</title>
<path fill="none" stroke="#191970" d="M961.8681,-224.2455C961.8681,-216.9382 961.8681,-206.6944 961.8681,-197.7046"/>
<polygon fill="#191970" stroke="#191970" points="965.3682,-197.6426 961.8681,-187.6427 958.3682,-197.6427 965.3682,-197.6426"/>
</g>
<!-- Node40 -->
<g id="node41" class="node">
<title>Node40</title>
<g id="a_node41"><a xlink:href="Range_8inl_8hxx.html" target="_top" xlink:title="Range.inl.hxx">
<polygon fill="none" stroke="#000000" points="1006.3681,-168.5 1006.3681,-187.5 1089.3681,-187.5 1089.3681,-168.5 1006.3681,-168.5"/>
<text text-anchor="middle" x="1047.8681" y="-175.5" font-family="Helvetica,sans-Serif" font-size="10.00" fill="#000000">Range.inl.hxx</text>
</a>
</g>
</g>
<!-- Node38&#45;&gt;Node40 -->
<g id="edge60" class="edge">
<title>Node38&#45;&gt;Node40</title>
<path fill="none" stroke="#191970" d="M976.8481,-224.2455C990.0432,-215.6534 1009.4731,-203.0014 1024.676,-193.1018"/>
<polygon fill="#191970" stroke="#191970" points="1026.5895,-196.0325 1033.0597,-187.6427 1022.7698,-190.1665 1026.5895,-196.0325"/>
</g>
<!-- Node41&#45;&gt;Node17 -->
<g id="edge63" class="edge">
<title>Node41&#45;&gt;Node17</title>
<path fill="none" stroke="#191970" d="M1470.2154,-230.1019C1595.6924,-217.7353 1931.3314,-173.0623 1823.8681,-56 1790.4303,-19.5755 1446.1231,-11.9406 1327.0907,-10.3856"/>
<polygon fill="#191970" stroke="#191970" points="1326.9858,-6.8842 1316.9435,-10.2608 1326.8996,-13.8836 1326.9858,-6.8842"/>
</g>
<!-- Node42 -->
<g id="node43" class="node">
<title>Node42</title>
<polygon fill="none" stroke="#bfbfbf" points="1419.8681,-168.5 1419.8681,-187.5 1469.8681,-187.5 1469.8681,-168.5 1419.8681,-168.5"/>
<text text-anchor="middle" x="1444.8681" y="-175.5" font-family="Helvetica,sans-Serif" font-size="10.00" fill="#000000">cstdint</text>
</g>
<!-- Node41&#45;&gt;Node42 -->
<g id="edge62" class="edge">
<title>Node41&#45;&gt;Node42</title>
<path fill="none" stroke="#191970" d="M1428.3518,-224.2455C1431.0189,-216.7776 1434.7814,-206.2427 1438.0417,-197.1137"/>
<polygon fill="#191970" stroke="#191970" points="1441.3569,-198.2373 1441.4243,-187.6427 1434.7647,-195.8829 1441.3569,-198.2373"/>
</g>
</g>
</svg>
        <g id="navigator" transform="translate(0 0)" fill="#404254">
                <rect fill="#f2f5e9" fill-opacity="0.5" stroke="#606060" stroke-width=".5" x="0" y="0" width="60" height="60"/>
                <use id="zoomplus" xlink:href="#zoomPlus" x="17" y="9" onmousedown="handleZoom(evt,'in')"/>
                <use id="zoomminus" xlink:href="#zoomMin" x="42" y="9" onmousedown="handleZoom(evt,'out')"/>
                <use id="reset" xlink:href="#resetDef" x="30" y="36" onmousedown="handleReset()"/>
                <g id="arrowUp" xlink:href="#dirArrow" transform="translate(30 24)" onmousedown="handlePan(0,-1)">
                  <use xlink:href="#rim" fill="#404040">
                        <set attributeName="fill" to="#808080" begin="arrowUp.mouseover" end="arrowUp.mouseout"/>
                  </use>
                  <path fill="none" stroke="white" stroke-width="1.5" d="M0,-3.0v7 M-2.5,-0.5L0,-3.0L2.5,-0.5"/>
                </g>
                <g id="arrowRight" xlink:href="#dirArrow" transform="rotate(90) translate(36 -43)" onmousedown="handlePan(1,0)">
                  <use xlink:href="#rim" fill="#404040">
                        <set attributeName="fill" to="#808080" begin="arrowRight.mouseover" end="arrowRight.mouseout"/>
                  </use>
                  <path fill="none" stroke="white" stroke-width="1.5" d="M0,-3.0v7 M-2.5,-0.5L0,-3.0L2.5,-0.5"/>
                </g>
                <g id="arrowDown" xlink:href="#dirArrow" transform="rotate(180) translate(-30 -48)" onmousedown="handlePan(0,1)">
                  <use xlink:href="#rim" fill="#404040">
                        <set attributeName="fill" to="#808080" begin="arrowDown.mouseover" end="arrowDown.mouseout"/>
                  </use>
                  <path fill="none" stroke="white" stroke-width="1.5" d="M0,-3.0v7 M-2.5,-0.5L0,-3.0L2.5,-0.5"/>
                </g>
                <g id="arrowLeft" xlink:href="#dirArrow" transform="rotate(270) translate(-36 17)" onmousedown="handlePan(-1,0)">
                  <use xlink:href="#rim" fill="#404040">
                        <set attributeName="fill" to="#808080" begin="arrowLeft.mouseover" end="arrowLeft.mouseout"/>
                  </use>
                  <path fill="none" stroke="white" stroke-width="1.5" d="M0,-3.0v7 M-2.5,-0.5L0,-3.0L2.5,-0.5"/>
                </g>
        </g>
        <svg viewBox="0 0 15 15" width="100%" height="30px" preserveAspectRatio="xMaxYMin meet">
         <g id="arrow_out" transform="scale(0.3 0.3)">
          <a xlink:href="TileManager_8cxx__incl_org.svg" target="_base">
           <rect id="button" ry="5" rx="5" y="6" x="6" height="38" width="38"
                fill="#f2f5e9" fill-opacity="0.5" stroke="#606060" stroke-width="1.0"/>
           <path id="arrow"
             d="M 11.500037,31.436501 C 11.940474,20.09759 22.043105,11.32322 32.158766,21.979434 L 37.068811,17.246167 C 37.068811,17.246167 37.088388,32 37.088388,32 L 22.160133,31.978069 C 22.160133,31.978069 26.997745,27.140456 26.997745,27.140456 C 18.528582,18.264221 13.291696,25.230495 11.500037,31.436501 z"
             style="fill:#404040;"/>
          </a>
         </g>
        </svg>
</svg>
