<?xml version="1.0" encoding="UTF-8" standalone="no"?>
<!DOCTYPE svg PUBLIC "-//W3C//DTD SVG 1.1//EN"
 "http://www.w3.org/Graphics/SVG/1.1/DTD/svg11.dtd">
<!-- Generated by graphviz version 2.40.1 (20161225.0304)
 -->
<!-- Title: src/engine/ui/basics/UIElement.cxx Pages: 1 -->
<!--zoomable 375 -->
<svg id="main" version="1.1" xmlns="http://www.w3.org/2000/svg" xmlns:xlink="http://www.w3.org/1999/xlink" xml:space="preserve" onload="init(evt)">
<style type="text/css"><![CDATA[
.edge:hover path { stroke: red; }
.edge:hover polygon { stroke: red; fill: red; }
]]></style>
<script type="text/javascript"><![CDATA[
var edges = document.getElementsByTagName('g');
if (edges && edges.length) {
  for (var i=0;i<edges.length;i++) {
    if (edges[i].id.substr(0,4)=='edge') {
      edges[i].setAttribute('class','edge');
    }
  }
}
]]></script>
        <defs>
                <circle id="rim" cx="0" cy="0" r="7"/>
                <circle id="rim2" cx="0" cy="0" r="3.5"/>
                <g id="zoomPlus">
                        <use xlink:href="#rim" fill="#404040">
                                <set attributeName="fill" to="#808080" begin="zoomplus.mouseover" end="zoomplus.mouseout"/>
                        </use>
                        <path d="M-4,0h8M0,-4v8" fill="none" stroke="white" stroke-width="1.5" pointer-events="none"/>
                </g>
                <g id="zoomMin">
                        <use xlink:href="#rim" fill="#404040">
                                <set attributeName="fill" to="#808080" begin="zoomminus.mouseover" end="zoomminus.mouseout"/>
                        </use>
                        <path d="M-4,0h8" fill="none" stroke="white" stroke-width="1.5" pointer-events="none"/>
                </g>
                <g id="dirArrow">
                        <path fill="none" stroke="white" stroke-width="1.5" d="M0,-3.0v7 M-2.5,-0.5L0,-3.0L2.5,-0.5"/>
                </g>
               <g id="resetDef">
                       <use xlink:href="#rim2" fill="#404040">
                               <set attributeName="fill" to="#808080" begin="reset.mouseover" end="reset.mouseout"/>
                       </use>
               </g>
        </defs>

<script type="text/javascript">
var viewWidth = 1852;
var viewHeight = 375;
var sectionId = 'dynsection-0';
</script>
<script xlink:href="svgpan.js"/>
<svg id="graph" class="graph">
<g id="viewport">
<title>src/engine/ui/basics/UIElement.cxx</title>
<!-- Node0 -->
<g id="node1" class="node">
<title>Node0</title>
<polygon fill="#bfbfbf" stroke="#000000" points="1423.7985,-336.5 1423.7985,-366.5 1536.7985,-366.5 1536.7985,-336.5 1423.7985,-336.5"/>
<text text-anchor="start" x="1431.7985" y="-354.5" font-family="Helvetica,sans-Serif" font-size="10.00" fill="#000000">src/engine/ui/basics</text>
<text text-anchor="middle" x="1480.2985" y="-343.5" font-family="Helvetica,sans-Serif" font-size="10.00" fill="#000000">/UIElement.cxx</text>
</g>
<!-- Node1 -->
<g id="node2" class="node">
<title>Node1</title>
<g id="a_node2"><a xlink:href="UIElement_8hxx.html" target="_top" xlink:title="UIElement.hxx">
<polygon fill="none" stroke="#000000" points="439.7985,-280.5 439.7985,-299.5 528.7985,-299.5 528.7985,-280.5 439.7985,-280.5"/>
<text text-anchor="middle" x="484.2985" y="-287.5" font-family="Helvetica,sans-Serif" font-size="10.00" fill="#000000">UIElement.hxx</text>
</a>
</g>
</g>
<!-- Node0&#45;&gt;Node1 -->
<g id="edge1" class="edge">
<title>Node0&#45;&gt;Node1</title>
<path fill="none" stroke="#191970" d="M1423.5342,-347.995C1247.5134,-337.1262 712.3414,-304.081 539.0671,-293.3818"/>
<polygon fill="#191970" stroke="#191970" points="539.1039,-289.8775 528.9071,-292.7545 538.6724,-296.8642 539.1039,-289.8775"/>
</g>
<!-- Node23 -->
<g id="node24" class="node">
<title>Node23</title>
<g id="a_node24"><a xlink:href="LOG_8hxx.html" target="_top" xlink:title="LOG.hxx">
<polygon fill="none" stroke="#000000" points="1166.2985,-224.5 1166.2985,-243.5 1224.2985,-243.5 1224.2985,-224.5 1166.2985,-224.5"/>
<text text-anchor="middle" x="1195.2985" y="-231.5" font-family="Helvetica,sans-Serif" font-size="10.00" fill="#000000">LOG.hxx</text>
</a>
</g>
</g>
<!-- Node0&#45;&gt;Node23 -->
<g id="edge35" class="edge">
<title>Node0&#45;&gt;Node23</title>
<path fill="none" stroke="#191970" d="M1443.9136,-336.4992C1387.9704,-313.4349 1281.6887,-269.617 1228.0321,-247.4954"/>
<polygon fill="#191970" stroke="#191970" points="1229.2288,-244.2031 1218.6496,-243.6272 1226.5606,-250.6746 1229.2288,-244.2031"/>
</g>
<!-- Node24 -->
<g id="node25" class="node">
<title>Node24</title>
<g id="a_node25"><a xlink:href="Exception_8hxx.html" target="_top" xlink:title="Exception.hxx">
<polygon fill="none" stroke="#000000" points="1437.2985,-168.5 1437.2985,-187.5 1523.2985,-187.5 1523.2985,-168.5 1437.2985,-168.5"/>
<text text-anchor="middle" x="1480.2985" y="-175.5" font-family="Helvetica,sans-Serif" font-size="10.00" fill="#000000">Exception.hxx</text>
</a>
</g>
</g>
<!-- Node0&#45;&gt;Node24 -->
<g id="edge54" class="edge">
<title>Node0&#45;&gt;Node24</title>
<path fill="none" stroke="#191970" d="M1480.2985,-336.4065C1480.2985,-305.1485 1480.2985,-233.3214 1480.2985,-198.1492"/>
<polygon fill="#191970" stroke="#191970" points="1483.7986,-197.738 1480.2985,-187.738 1476.7986,-197.738 1483.7986,-197.738"/>
</g>
<!-- Node37 -->
<g id="node38" class="node">
<title>Node37</title>
<g id="a_node38"><a xlink:href="Settings_8hxx.html" target="_top" xlink:title="Settings.hxx">
<polygon fill="none" stroke="#000000" points="1708.7985,-224.5 1708.7985,-243.5 1785.7985,-243.5 1785.7985,-224.5 1708.7985,-224.5"/>
<text text-anchor="middle" x="1747.2985" y="-231.5" font-family="Helvetica,sans-Serif" font-size="10.00" fill="#000000">Settings.hxx</text>
</a>
</g>
</g>
<!-- Node0&#45;&gt;Node37 -->
<g id="edge55" class="edge">
<title>Node0&#45;&gt;Node37</title>
<path fill="none" stroke="#191970" d="M1519.4861,-336.4461C1544.9548,-326.4875 1578.7888,-312.9282 1608.2985,-300 1647.0407,-283.0271 1691.0307,-261.8026 1718.9573,-248.0782"/>
<polygon fill="#191970" stroke="#191970" points="1720.709,-251.1169 1728.1305,-243.5557 1717.6136,-244.8384 1720.709,-251.1169"/>
</g>
<!-- Node39 -->
<g id="node40" class="node">
<title>Node39</title>
<g id="a_node40"><a xlink:href="GameStates_8hxx.html" target="_top" xlink:title="GameStates.hxx">
<polygon fill="none" stroke="#000000" points="1621.2985,-168.5 1621.2985,-187.5 1719.2985,-187.5 1719.2985,-168.5 1621.2985,-168.5"/>
<text text-anchor="middle" x="1670.2985" y="-175.5" font-family="Helvetica,sans-Serif" font-size="10.00" fill="#000000">GameStates.hxx</text>
</a>
</g>
</g>
<!-- Node0&#45;&gt;Node39 -->
<g id="edge60" class="edge">
<title>Node0&#45;&gt;Node39</title>
<path fill="none" stroke="#191970" d="M1496.8274,-336.4065C1532.2486,-304.0613 1615.2416,-228.2757 1652.103,-194.6153"/>
<polygon fill="#191970" stroke="#191970" points="1654.61,-197.0657 1659.6344,-187.738 1649.8898,-191.8966 1654.61,-197.0657"/>
</g>
<!-- Node2 -->
<g id="node3" class="node">
<title>Node2</title>
<polygon fill="none" stroke="#bfbfbf" points="803.2985,-56.5 803.2985,-75.5 847.2985,-75.5 847.2985,-56.5 803.2985,-56.5"/>
<text text-anchor="middle" x="825.2985" y="-63.5" font-family="Helvetica,sans-Serif" font-size="10.00" fill="#000000">string</text>
</g>
<!-- Node1&#45;&gt;Node2 -->
<g id="edge2" class="edge">
<title>Node1&#45;&gt;Node2</title>
<path fill="none" stroke="#191970" d="M439.6532,-287.5969C379.4958,-283.3184 277.2755,-272.0275 254.2985,-244 241.0103,-227.791 220.6881,-162.8178 279.2985,-112 318.3682,-78.1248 691.8432,-81.1311 743.2985,-76 759.6051,-74.3739 777.6915,-72.2071 792.7202,-70.3063"/>
<polygon fill="#191970" stroke="#191970" points="793.5804,-73.7247 803.0538,-68.9808 792.6897,-66.7816 793.5804,-73.7247"/>
</g>
<!-- Node3 -->
<g id="node4" class="node">
<title>Node3</title>
<g id="a_node4"><a xlink:href="mapEdit_8hxx.html" target="_top" xlink:title="../../basics/mapEdit.hxx">
<polygon fill="none" stroke="#000000" points="263.2985,-224.5 263.2985,-243.5 393.2985,-243.5 393.2985,-224.5 263.2985,-224.5"/>
<text text-anchor="middle" x="328.2985" y="-231.5" font-family="Helvetica,sans-Serif" font-size="10.00" fill="#000000">../../basics/mapEdit.hxx</text>
</a>
</g>
</g>
<!-- Node1&#45;&gt;Node3 -->
<g id="edge3" class="edge">
<title>Node1&#45;&gt;Node3</title>
<path fill="none" stroke="#191970" d="M457.4811,-280.3733C431.7653,-271.1419 392.7605,-257.1402 364.3386,-246.9375"/>
<polygon fill="#191970" stroke="#191970" points="365.3604,-243.5857 354.7659,-243.5011 362.9953,-250.174 365.3604,-243.5857"/>
</g>
<!-- Node4 -->
<g id="node5" class="node">
<title>Node4</title>
<g id="a_node5"><a xlink:href="ResourcesManager_8hxx.html" target="_top" xlink:title="../../ResourcesManager.hxx">
<polygon fill="none" stroke="#000000" points="411.2985,-224.5 411.2985,-243.5 557.2985,-243.5 557.2985,-224.5 411.2985,-224.5"/>
<text text-anchor="middle" x="484.2985" y="-231.5" font-family="Helvetica,sans-Serif" font-size="10.00" fill="#000000">../../ResourcesManager.hxx</text>
</a>
</g>
</g>
<!-- Node1&#45;&gt;Node4 -->
<g id="edge5" class="edge">
<title>Node1&#45;&gt;Node4</title>
<path fill="none" stroke="#191970" d="M484.2985,-280.2455C484.2985,-272.9382 484.2985,-262.6944 484.2985,-253.7046"/>
<polygon fill="#191970" stroke="#191970" points="487.7986,-253.6426 484.2985,-243.6427 480.7986,-253.6427 487.7986,-253.6426"/>
</g>
<!-- Node7 -->
<g id="node8" class="node">
<title>Node7</title>
<polygon fill="none" stroke="#bfbfbf" points="767.2985,-112.5 767.2985,-131.5 811.2985,-131.5 811.2985,-112.5 767.2985,-112.5"/>
<text text-anchor="middle" x="789.2985" y="-119.5" font-family="Helvetica,sans-Serif" font-size="10.00" fill="#000000">SDL.h</text>
</g>
<!-- Node1&#45;&gt;Node7 -->
<g id="edge34" class="edge">
<title>Node1&#45;&gt;Node7</title>
<path fill="none" stroke="#191970" d="M509.8359,-280.4123C527.4829,-272.7457 550.5284,-260.5389 566.2985,-244 592.3593,-216.6686 574.6601,-191.4038 604.2985,-168 656.9849,-126.3963 687.7277,-148.5778 756.9801,-132.0333"/>
<polygon fill="#191970" stroke="#191970" points="758.2127,-135.3295 767.0138,-129.4311 756.4553,-128.5536 758.2127,-135.3295"/>
</g>
<!-- Node17 -->
<g id="node18" class="node">
<title>Node17</title>
<g id="a_node18"><a xlink:href="WindowManager_8hxx.html" target="_top" xlink:title="../../WindowManager.hxx">
<polygon fill="none" stroke="#000000" points="733.2985,-168.5 733.2985,-187.5 869.2985,-187.5 869.2985,-168.5 733.2985,-168.5"/>
<text text-anchor="middle" x="801.2985" y="-175.5" font-family="Helvetica,sans-Serif" font-size="10.00" fill="#000000">../../WindowManager.hxx</text>
</a>
</g>
</g>
<!-- Node1&#45;&gt;Node17 -->
<g id="edge22" class="edge">
<title>Node1&#45;&gt;Node17</title>
<path fill="none" stroke="#191970" d="M511.3257,-280.4509C568.1746,-260.3655 700.1745,-213.7284 764.6015,-190.9655"/>
<polygon fill="#191970" stroke="#191970" points="766.0768,-194.1563 774.3396,-187.5249 763.7449,-187.5562 766.0768,-194.1563"/>
</g>
<!-- Node18 -->
<g id="node19" class="node">
<title>Node18</title>
<g id="a_node19"><a xlink:href="signal_8hxx.html" target="_top" xlink:title="../../basics/signal.hxx">
<polygon fill="none" stroke="#000000" points="76.7985,-224.5 76.7985,-243.5 195.7985,-243.5 195.7985,-224.5 76.7985,-224.5"/>
<text text-anchor="middle" x="136.2985" y="-231.5" font-family="Helvetica,sans-Serif" font-size="10.00" fill="#000000">../../basics/signal.hxx</text>
</a>
</g>
</g>
<!-- Node1&#45;&gt;Node18 -->
<g id="edge28" class="edge">
<title>Node1&#45;&gt;Node18</title>
<path fill="none" stroke="#191970" d="M439.516,-282.7936C380.2019,-273.2488 274.9935,-256.3187 205.4382,-245.1259"/>
<polygon fill="#191970" stroke="#191970" points="205.8734,-241.651 195.4443,-243.5177 204.7612,-248.5621 205.8734,-241.651"/>
</g>
<!-- Node3&#45;&gt;Node2 -->
<g id="edge4" class="edge">
<title>Node3&#45;&gt;Node2</title>
<path fill="none" stroke="#191970" d="M320.2533,-224.3706C302.3526,-201.7568 263.1058,-144.7046 293.2985,-112 327.3232,-75.1446 693.3923,-81.0371 743.2985,-76 759.6031,-74.3543 777.6894,-72.1855 792.7184,-70.2883"/>
<polygon fill="#191970" stroke="#191970" points="793.5773,-73.7071 803.0523,-68.9663 792.689,-66.7637 793.5773,-73.7071"/>
</g>
<!-- Node5 -->
<g id="node6" class="node">
<title>Node5</title>
<polygon fill="none" stroke="#bfbfbf" points="905.2985,-112.5 905.2985,-131.5 965.2985,-131.5 965.2985,-112.5 905.2985,-112.5"/>
<text text-anchor="middle" x="935.2985" y="-119.5" font-family="Helvetica,sans-Serif" font-size="10.00" fill="#000000">iostream</text>
</g>
<!-- Node4&#45;&gt;Node5 -->
<g id="edge6" class="edge">
<title>Node4&#45;&gt;Node5</title>
<path fill="none" stroke="#191970" d="M557.4859,-231.7502C655.7641,-227.6668 824.2939,-216.6206 878.2985,-188 898.6825,-177.1972 914.9948,-155.8718 924.8608,-140.3775"/>
<polygon fill="#191970" stroke="#191970" points="927.9708,-141.9983 930.1495,-131.6298 921.9805,-138.3766 927.9708,-141.9983"/>
</g>
<!-- Node6 -->
<g id="node7" class="node">
<title>Node6</title>
<polygon fill="none" stroke="#bfbfbf" points="301.7985,-112.5 301.7985,-131.5 394.7985,-131.5 394.7985,-112.5 301.7985,-112.5"/>
<text text-anchor="middle" x="348.2985" y="-119.5" font-family="Helvetica,sans-Serif" font-size="10.00" fill="#000000">unordered_map</text>
</g>
<!-- Node4&#45;&gt;Node6 -->
<g id="edge7" class="edge">
<title>Node4&#45;&gt;Node6</title>
<path fill="none" stroke="#191970" d="M467.2331,-224.3772C452.3878,-215.6782 430.6019,-202.1063 413.2985,-188 394.9243,-173.0208 376.1592,-153.4094 363.5453,-139.4666"/>
<polygon fill="#191970" stroke="#191970" points="365.8105,-136.7477 356.5448,-131.6099 360.5842,-141.4045 365.8105,-136.7477"/>
</g>
<!-- Node4&#45;&gt;Node7 -->
<g id="edge8" class="edge">
<title>Node4&#45;&gt;Node7</title>
<path fill="none" stroke="#191970" d="M493.7576,-224.4084C508.7711,-209.7869 539.6137,-182.134 571.2985,-168 645.7255,-134.7994 674.1901,-151.6572 757.1964,-131.9806"/>
<polygon fill="#191970" stroke="#191970" points="758.1793,-135.3429 767.0423,-129.5378 756.4937,-128.5489 758.1793,-135.3429"/>
</g>
<!-- Node8 -->
<g id="node9" class="node">
<title>Node8</title>
<g id="a_node9"><a xlink:href="TileManager_8hxx.html" target="_top" xlink:title="TileManager.hxx">
<polygon fill="none" stroke="#000000" points="421.7985,-168.5 421.7985,-187.5 518.7985,-187.5 518.7985,-168.5 421.7985,-168.5"/>
<text text-anchor="middle" x="470.2985" y="-175.5" font-family="Helvetica,sans-Serif" font-size="10.00" fill="#000000">TileManager.hxx</text>
</a>
</g>
</g>
<!-- Node4&#45;&gt;Node8 -->
<g id="edge9" class="edge">
<title>Node4&#45;&gt;Node8</title>
<path fill="none" stroke="#191970" d="M481.8599,-224.2455C480.013,-216.8579 477.4157,-206.4689 475.1507,-197.4087"/>
<polygon fill="#191970" stroke="#191970" points="478.5301,-196.4952 472.7092,-187.6427 471.7391,-198.193 478.5301,-196.4952"/>
</g>
<!-- Node8&#45;&gt;Node2 -->
<g id="edge12" class="edge">
<title>Node8&#45;&gt;Node2</title>
<path fill="none" stroke="#191970" d="M509.2587,-168.4844C540.8025,-160.2779 586.1085,-147.3448 624.2985,-132 642.3736,-124.7374 645.1744,-119.1396 663.2985,-112 707.1128,-94.7404 759.9227,-80.9898 793.0643,-73.1651"/>
<polygon fill="#191970" stroke="#191970" points="794.1477,-76.5067 803.0971,-70.8359 792.5647,-69.6881 794.1477,-76.5067"/>
</g>
<!-- Node8&#45;&gt;Node6 -->
<g id="edge11" class="edge">
<title>Node8&#45;&gt;Node6</title>
<path fill="none" stroke="#191970" d="M449.3259,-168.3733C429.7418,-159.3838 400.3024,-145.8706 378.2475,-135.7471"/>
<polygon fill="#191970" stroke="#191970" points="379.5458,-132.4919 368.9974,-131.5011 376.6256,-138.8538 379.5458,-132.4919"/>
</g>
<!-- Node8&#45;&gt;Node7 -->
<g id="edge10" class="edge">
<title>Node8&#45;&gt;Node7</title>
<path fill="none" stroke="#191970" d="M518.8789,-170.2887C590.5206,-158.911 719.4651,-138.409 757.149,-131.5858"/>
<polygon fill="#191970" stroke="#191970" points="757.9331,-134.9986 767.0637,-129.6243 756.5746,-128.1316 757.9331,-134.9986"/>
</g>
<!-- Node9 -->
<g id="node10" class="node">
<title>Node9</title>
<g id="a_node10"><a xlink:href="tileData_8hxx.html" target="_top" xlink:title="tileData.hxx">
<polygon fill="none" stroke="#000000" points="671.7985,-112.5 671.7985,-131.5 748.7985,-131.5 748.7985,-112.5 671.7985,-112.5"/>
<text text-anchor="middle" x="710.2985" y="-119.5" font-family="Helvetica,sans-Serif" font-size="10.00" fill="#000000">tileData.hxx</text>
</a>
</g>
</g>
<!-- Node8&#45;&gt;Node9 -->
<g id="edge13" class="edge">
<title>Node8&#45;&gt;Node9</title>
<path fill="none" stroke="#191970" d="M511.2833,-168.4369C552.8921,-158.7281 617.317,-143.6957 661.5271,-133.38"/>
<polygon fill="#191970" stroke="#191970" points="662.5269,-136.7408 671.47,-131.06 660.9363,-129.9239 662.5269,-136.7408"/>
</g>
<!-- Node14 -->
<g id="node15" class="node">
<title>Node14</title>
<polygon fill="none" stroke="#bfbfbf" points="413.2985,-112.5 413.2985,-131.5 471.2985,-131.5 471.2985,-112.5 413.2985,-112.5"/>
<text text-anchor="middle" x="442.2985" y="-119.5" font-family="Helvetica,sans-Serif" font-size="10.00" fill="#000000">json.hxx</text>
</g>
<!-- Node8&#45;&gt;Node14 -->
<g id="edge19" class="edge">
<title>Node8&#45;&gt;Node14</title>
<path fill="none" stroke="#191970" d="M465.4213,-168.2455C461.6471,-160.6973 456.3064,-150.0158 451.7083,-140.8197"/>
<polygon fill="#191970" stroke="#191970" points="454.7225,-139.0217 447.1198,-131.6427 448.4615,-142.1522 454.7225,-139.0217"/>
</g>
<!-- Node15 -->
<g id="node16" class="node">
<title>Node15</title>
<g id="a_node16"><a xlink:href="Singleton_8hxx.html" target="_top" xlink:title="Singleton.hxx">
<polygon fill="none" stroke="#000000" points="1469.7985,-112.5 1469.7985,-131.5 1552.7985,-131.5 1552.7985,-112.5 1469.7985,-112.5"/>
<text text-anchor="middle" x="1511.2985" y="-119.5" font-family="Helvetica,sans-Serif" font-size="10.00" fill="#000000">Singleton.hxx</text>
</a>
</g>
</g>
<!-- Node8&#45;&gt;Node15 -->
<g id="edge20" class="edge">
<title>Node8&#45;&gt;Node15</title>
<path fill="none" stroke="#191970" d="M518.9654,-173.9856C544.3813,-171.986 576.0023,-169.6497 604.2985,-168 981.5321,-146.0067 1081.0579,-176.9663 1459.5015,-132.0491"/>
<polygon fill="#191970" stroke="#191970" points="1460.1214,-135.4999 1469.6346,-130.8362 1459.2895,-128.5495 1460.1214,-135.4999"/>
</g>
<!-- Node16 -->
<g id="node17" class="node">
<title>Node16</title>
<polygon fill="none" stroke="#bfbfbf" points="489.7985,-112.5 489.7985,-131.5 614.7985,-131.5 614.7985,-112.5 489.7985,-112.5"/>
<text text-anchor="middle" x="552.2985" y="-119.5" font-family="Helvetica,sans-Serif" font-size="10.00" fill="#000000">../common/enums.hxx</text>
</g>
<!-- Node8&#45;&gt;Node16 -->
<g id="edge21" class="edge">
<title>Node8&#45;&gt;Node16</title>
<path fill="none" stroke="#191970" d="M484.5818,-168.2455C497.0455,-159.7337 515.3436,-147.2375 529.7776,-137.3801"/>
<polygon fill="#191970" stroke="#191970" points="531.8947,-140.1726 538.1789,-131.6427 527.9469,-134.392 531.8947,-140.1726"/>
</g>
<!-- Node9&#45;&gt;Node2 -->
<g id="edge14" class="edge">
<title>Node9&#45;&gt;Node2</title>
<path fill="none" stroke="#191970" d="M730.0677,-112.3733C748.4454,-103.4241 776.0297,-89.9917 796.7877,-79.8835"/>
<polygon fill="#191970" stroke="#191970" points="798.3289,-83.026 805.7872,-75.5011 795.2642,-76.7325 798.3289,-83.026"/>
</g>
<!-- Node10 -->
<g id="node11" class="node">
<title>Node10</title>
<polygon fill="none" stroke="#bfbfbf" points="686.7985,-56.5 686.7985,-75.5 733.7985,-75.5 733.7985,-56.5 686.7985,-56.5"/>
<text text-anchor="middle" x="710.2985" y="-63.5" font-family="Helvetica,sans-Serif" font-size="10.00" fill="#000000">vector</text>
</g>
<!-- Node9&#45;&gt;Node10 -->
<g id="edge15" class="edge">
<title>Node9&#45;&gt;Node10</title>
<path fill="none" stroke="#191970" d="M710.2985,-112.2455C710.2985,-104.9382 710.2985,-94.6944 710.2985,-85.7046"/>
<polygon fill="#191970" stroke="#191970" points="713.7986,-85.6426 710.2985,-75.6427 706.7986,-85.6427 713.7986,-85.6426"/>
</g>
<!-- Node11 -->
<g id="node12" class="node">
<title>Node11</title>
<g id="a_node12"><a xlink:href="enums_8hxx.html" target="_top" xlink:title="enums.hxx">
<polygon fill="none" stroke="#000000" points="1307.7985,-56.5 1307.7985,-75.5 1378.7985,-75.5 1378.7985,-56.5 1307.7985,-56.5"/>
<text text-anchor="middle" x="1343.2985" y="-63.5" font-family="Helvetica,sans-Serif" font-size="10.00" fill="#000000">enums.hxx</text>
</a>
</g>
</g>
<!-- Node9&#45;&gt;Node11 -->
<g id="edge16" class="edge">
<title>Node9&#45;&gt;Node11</title>
<path fill="none" stroke="#191970" d="M748.9966,-113.4981C752.1353,-112.9428 755.2649,-112.4335 758.2985,-112 957.7758,-83.4959 1198.2281,-71.578 1297.2594,-67.6321"/>
<polygon fill="#191970" stroke="#191970" points="1297.6567,-71.1193 1307.5126,-67.2321 1297.3838,-64.1246 1297.6567,-71.1193"/>
</g>
<!-- Node12 -->
<g id="node13" class="node">
<title>Node12</title>
<polygon fill="none" stroke="#bfbfbf" points="1267.2985,-.5 1267.2985,-19.5 1323.2985,-19.5 1323.2985,-.5 1267.2985,-.5"/>
<text text-anchor="middle" x="1295.2985" y="-7.5" font-family="Helvetica,sans-Serif" font-size="10.00" fill="#000000">stddef.h</text>
</g>
<!-- Node11&#45;&gt;Node12 -->
<g id="edge17" class="edge">
<title>Node11&#45;&gt;Node12</title>
<path fill="none" stroke="#191970" d="M1334.9375,-56.2455C1328.1235,-48.2958 1318.3304,-36.8706 1310.1833,-27.3656"/>
<polygon fill="#191970" stroke="#191970" points="1312.729,-24.9575 1303.5636,-19.6427 1307.4142,-29.513 1312.729,-24.9575"/>
</g>
<!-- Node13 -->
<g id="node14" class="node">
<title>Node13</title>
<polygon fill="none" stroke="#bfbfbf" points="1341.2985,-.5 1341.2985,-19.5 1441.2985,-19.5 1441.2985,-.5 1341.2985,-.5"/>
<text text-anchor="middle" x="1391.2985" y="-7.5" font-family="Helvetica,sans-Serif" font-size="10.00" fill="#000000">betterEnums.hxx</text>
</g>
<!-- Node11&#45;&gt;Node13 -->
<g id="edge18" class="edge">
<title>Node11&#45;&gt;Node13</title>
<path fill="none" stroke="#191970" d="M1351.6594,-56.2455C1358.4735,-48.2958 1368.2666,-36.8706 1376.4137,-27.3656"/>
<polygon fill="#191970" stroke="#191970" points="1379.1828,-29.513 1383.0333,-19.6427 1373.868,-24.9575 1379.1828,-29.513"/>
</g>
<!-- Node17&#45;&gt;Node2 -->
<g id="edge23" class="edge">
<title>Node17&#45;&gt;Node2</title>
<path fill="none" stroke="#191970" d="M818.3552,-168.377C830.6073,-160.4014 846.1693,-147.8248 853.2985,-132 860.5958,-115.8019 851.0514,-97.1492 841.1773,-83.8145"/>
<polygon fill="#191970" stroke="#191970" points="843.8077,-81.5003 834.8146,-75.8989 838.3517,-85.8858 843.8077,-81.5003"/>
</g>
<!-- Node17&#45;&gt;Node5 -->
<g id="edge24" class="edge">
<title>Node17&#45;&gt;Node5</title>
<path fill="none" stroke="#191970" d="M824.3339,-168.3733C846.0373,-159.3032 878.7603,-145.6279 903.0534,-135.4755"/>
<polygon fill="#191970" stroke="#191970" points="904.6866,-138.5865 912.5637,-131.5011 901.9874,-132.1278 904.6866,-138.5865"/>
</g>
<!-- Node17&#45;&gt;Node7 -->
<g id="edge26" class="edge">
<title>Node17&#45;&gt;Node7</title>
<path fill="none" stroke="#191970" d="M799.2082,-168.2455C797.6424,-160.9382 795.4473,-150.6944 793.5209,-141.7046"/>
<polygon fill="#191970" stroke="#191970" points="796.8824,-140.6873 791.3648,-131.6427 790.0378,-142.1541 796.8824,-140.6873"/>
</g>
<!-- Node17&#45;&gt;Node10 -->
<g id="edge25" class="edge">
<title>Node17&#45;&gt;Node10</title>
<path fill="none" stroke="#191970" d="M808.7909,-168.2728C818.28,-154.6742 832.0601,-129.6672 820.2985,-112 803.4615,-86.7093 769.7713,-75.2978 744.0882,-70.1641"/>
<polygon fill="#191970" stroke="#191970" points="744.4501,-66.6739 733.9935,-68.3798 743.2316,-73.5671 744.4501,-66.6739"/>
</g>
<!-- Node17&#45;&gt;Node15 -->
<g id="edge27" class="edge">
<title>Node17&#45;&gt;Node15</title>
<path fill="none" stroke="#191970" d="M869.5328,-173.4803C1022.8256,-163.2963 1386.2828,-138.9715 1459.4549,-131.8679"/>
<polygon fill="#191970" stroke="#191970" points="1460.0663,-135.3218 1469.6235,-130.7492 1459.3007,-128.3638 1460.0663,-135.3218"/>
</g>
<!-- Node18&#45;&gt;Node10 -->
<g id="edge32" class="edge">
<title>Node18&#45;&gt;Node10</title>
<path fill="none" stroke="#191970" d="M76.3915,-224.9682C32.0278,-215.653 -16.9972,-198.1406 6.2985,-168 66.6835,-89.8721 124.0509,-129.1239 221.2985,-112 390.5335,-82.2002 596.3474,-70.8118 676.2805,-67.3143"/>
<polygon fill="#191970" stroke="#191970" points="676.8644,-70.7928 686.707,-66.8721 676.5677,-63.7991 676.8644,-70.7928"/>
</g>
<!-- Node19 -->
<g id="node20" class="node">
<title>Node19</title>
<polygon fill="none" stroke="#bfbfbf" points="15.2985,-168.5 15.2985,-187.5 73.2985,-187.5 73.2985,-168.5 15.2985,-168.5"/>
<text text-anchor="middle" x="44.2985" y="-175.5" font-family="Helvetica,sans-Serif" font-size="10.00" fill="#000000">memory</text>
</g>
<!-- Node18&#45;&gt;Node19 -->
<g id="edge29" class="edge">
<title>Node18&#45;&gt;Node19</title>
<path fill="none" stroke="#191970" d="M120.2733,-224.2455C106.1577,-215.6534 85.3721,-203.0014 69.1086,-193.1018"/>
<polygon fill="#191970" stroke="#191970" points="70.5018,-189.8525 60.14,-187.6427 66.8622,-195.8319 70.5018,-189.8525"/>
</g>
<!-- Node20 -->
<g id="node21" class="node">
<title>Node20</title>
<polygon fill="none" stroke="#bfbfbf" points="91.7985,-168.5 91.7985,-187.5 156.7985,-187.5 156.7985,-168.5 91.7985,-168.5"/>
<text text-anchor="middle" x="124.2985" y="-175.5" font-family="Helvetica,sans-Serif" font-size="10.00" fill="#000000">functional</text>
</g>
<!-- Node18&#45;&gt;Node20 -->
<g id="edge30" class="edge">
<title>Node18&#45;&gt;Node20</title>
<path fill="none" stroke="#191970" d="M134.2082,-224.2455C132.6424,-216.9382 130.4473,-206.6944 128.5209,-197.7046"/>
<polygon fill="#191970" stroke="#191970" points="131.8824,-196.6873 126.3648,-187.6427 125.0378,-198.1541 131.8824,-196.6873"/>
</g>
<!-- Node21 -->
<g id="node22" class="node">
<title>Node21</title>
<polygon fill="none" stroke="#bfbfbf" points="175.2985,-168.5 175.2985,-187.5 207.2985,-187.5 207.2985,-168.5 175.2985,-168.5"/>
<text text-anchor="middle" x="191.2985" y="-175.5" font-family="Helvetica,sans-Serif" font-size="10.00" fill="#000000">list</text>
</g>
<!-- Node18&#45;&gt;Node21 -->
<g id="edge31" class="edge">
<title>Node18&#45;&gt;Node21</title>
<path fill="none" stroke="#191970" d="M145.8788,-224.2455C153.8442,-216.1352 165.3625,-204.4075 174.8064,-194.7919"/>
<polygon fill="#191970" stroke="#191970" points="177.318,-197.2297 181.828,-187.6427 172.3238,-192.3247 177.318,-197.2297"/>
</g>
<!-- Node22 -->
<g id="node23" class="node">
<title>Node22</title>
<polygon fill="none" stroke="#bfbfbf" points="613.2985,-168.5 613.2985,-187.5 677.2985,-187.5 677.2985,-168.5 613.2985,-168.5"/>
<text text-anchor="middle" x="645.2985" y="-175.5" font-family="Helvetica,sans-Serif" font-size="10.00" fill="#000000">algorithm</text>
</g>
<!-- Node18&#45;&gt;Node22 -->
<g id="edge33" class="edge">
<title>Node18&#45;&gt;Node22</title>
<path fill="none" stroke="#191970" d="M195.9335,-227.439C300.0982,-215.9788 512.6975,-192.5887 603.1016,-182.6425"/>
<polygon fill="#191970" stroke="#191970" points="603.6937,-186.0986 613.2509,-181.5259 602.9281,-179.1405 603.6937,-186.0986"/>
</g>
<!-- Node23&#45;&gt;Node2 -->
<g id="edge36" class="edge">
<title>Node23&#45;&gt;Node2</title>
<path fill="none" stroke="#191970" d="M1224.5765,-231.4536C1273.8438,-226.4957 1369.9516,-213.7051 1390.2985,-188 1395.8153,-181.0303 1395.9983,-174.8209 1390.2985,-168 1385.9313,-162.7738 976.8593,-92.0665 857.5892,-71.5461"/>
<polygon fill="#191970" stroke="#191970" points="858.0496,-68.074 847.6011,-69.8284 856.8632,-74.9727 858.0496,-68.074"/>
</g>
<!-- Node23&#45;&gt;Node5 -->
<g id="edge40" class="edge">
<title>Node23&#45;&gt;Node5</title>
<path fill="none" stroke="#191970" d="M1165.9952,-232.1769C1108.7522,-228.0288 984.9802,-215.9899 954.2985,-188 941.5228,-176.3452 937.1246,-156.713 935.7121,-141.8829"/>
<polygon fill="#191970" stroke="#191970" points="939.1943,-141.4719 935.1246,-131.6899 932.2059,-141.8747 939.1943,-141.4719"/>
</g>
<!-- Node23&#45;&gt;Node7 -->
<g id="edge45" class="edge">
<title>Node23&#45;&gt;Node7</title>
<path fill="none" stroke="#191970" d="M1166.2381,-233.3804C1068.1967,-230.9936 754.0721,-220.8231 724.2985,-188 707.6275,-169.6215 734.6618,-149.4225 758.7754,-136.2731"/>
<polygon fill="#191970" stroke="#191970" points="760.5162,-139.3129 767.7769,-131.5972 757.2893,-133.101 760.5162,-139.3129"/>
</g>
<!-- Node23&#45;&gt;Node22 -->
<g id="edge46" class="edge">
<title>Node23&#45;&gt;Node22</title>
<path fill="none" stroke="#191970" d="M1166.1697,-232.5978C1088.5867,-228.5923 870.6302,-215.5693 691.2985,-188 690.0262,-187.8044 688.7364,-187.595 687.436,-187.3743"/>
<polygon fill="#191970" stroke="#191970" points="687.847,-183.8907 677.3751,-185.5005 686.5652,-190.7724 687.847,-183.8907"/>
</g>
<!-- Node23&#45;&gt;Node24 -->
<g id="edge37" class="edge">
<title>Node23&#45;&gt;Node24</title>
<path fill="none" stroke="#191970" d="M1224.4591,-228.2702C1272.0684,-218.9154 1367.1769,-200.2274 1427.0657,-188.4598"/>
<polygon fill="#191970" stroke="#191970" points="1427.9524,-191.8526 1437.0899,-186.4901 1426.6027,-184.9839 1427.9524,-191.8526"/>
</g>
<!-- Node27 -->
<g id="node28" class="node">
<title>Node27</title>
<polygon fill="none" stroke="#bfbfbf" points="963.2985,-168.5 963.2985,-187.5 1013.2985,-187.5 1013.2985,-168.5 963.2985,-168.5"/>
<text text-anchor="middle" x="988.2985" y="-175.5" font-family="Helvetica,sans-Serif" font-size="10.00" fill="#000000">chrono</text>
</g>
<!-- Node23&#45;&gt;Node27 -->
<g id="edge41" class="edge">
<title>Node23&#45;&gt;Node27</title>
<path fill="none" stroke="#191970" d="M1166.156,-226.4996C1133.6031,-218.0672 1079.1055,-203.7892 1023.2347,-188.2153"/>
<polygon fill="#191970" stroke="#191970" points="1024.1015,-184.8235 1013.5283,-185.5003 1022.2159,-191.5648 1024.1015,-184.8235"/>
</g>
<!-- Node28 -->
<g id="node29" class="node">
<title>Node28</title>
<polygon fill="none" stroke="#bfbfbf" points="1031.2985,-168.5 1031.2985,-187.5 1075.2985,-187.5 1075.2985,-168.5 1031.2985,-168.5"/>
<text text-anchor="middle" x="1053.2985" y="-175.5" font-family="Helvetica,sans-Serif" font-size="10.00" fill="#000000">ctime</text>
</g>
<!-- Node23&#45;&gt;Node28 -->
<g id="edge42" class="edge">
<title>Node23&#45;&gt;Node28</title>
<path fill="none" stroke="#191970" d="M1170.8878,-224.3733C1147.1217,-215.0007 1110.8864,-200.7107 1084.9238,-190.472"/>
<polygon fill="#191970" stroke="#191970" points="1086.1106,-187.1777 1075.5238,-186.7649 1083.5425,-193.6896 1086.1106,-187.1777"/>
</g>
<!-- Node29 -->
<g id="node30" class="node">
<title>Node29</title>
<polygon fill="none" stroke="#bfbfbf" points="1093.7985,-168.5 1093.7985,-187.5 1148.7985,-187.5 1148.7985,-168.5 1093.7985,-168.5"/>
<text text-anchor="middle" x="1121.2985" y="-175.5" font-family="Helvetica,sans-Serif" font-size="10.00" fill="#000000">fstream</text>
</g>
<!-- Node23&#45;&gt;Node29 -->
<g id="edge43" class="edge">
<title>Node23&#45;&gt;Node29</title>
<path fill="none" stroke="#191970" d="M1182.4087,-224.2455C1171.3731,-215.8943 1155.2693,-203.7076 1142.3631,-193.9408"/>
<polygon fill="#191970" stroke="#191970" points="1144.1267,-190.8862 1134.0406,-187.6427 1139.9026,-196.4681 1144.1267,-190.8862"/>
</g>
<!-- Node30 -->
<g id="node31" class="node">
<title>Node30</title>
<polygon fill="none" stroke="#bfbfbf" points="1167.2985,-168.5 1167.2985,-187.5 1223.2985,-187.5 1223.2985,-168.5 1167.2985,-168.5"/>
<text text-anchor="middle" x="1195.2985" y="-175.5" font-family="Helvetica,sans-Serif" font-size="10.00" fill="#000000">sstream</text>
</g>
<!-- Node23&#45;&gt;Node30 -->
<g id="edge44" class="edge">
<title>Node23&#45;&gt;Node30</title>
<path fill="none" stroke="#191970" d="M1195.2985,-224.2455C1195.2985,-216.9382 1195.2985,-206.6944 1195.2985,-197.7046"/>
<polygon fill="#191970" stroke="#191970" points="1198.7986,-197.6426 1195.2985,-187.6427 1191.7986,-197.6427 1198.7986,-197.6426"/>
</g>
<!-- Node31 -->
<g id="node32" class="node">
<title>Node31</title>
<polygon fill="none" stroke="#bfbfbf" points="1241.2985,-168.5 1241.2985,-187.5 1289.2985,-187.5 1289.2985,-168.5 1241.2985,-168.5"/>
<text text-anchor="middle" x="1265.2985" y="-175.5" font-family="Helvetica,sans-Serif" font-size="10.00" fill="#000000">mutex</text>
</g>
<!-- Node23&#45;&gt;Node31 -->
<g id="edge47" class="edge">
<title>Node23&#45;&gt;Node31</title>
<path fill="none" stroke="#191970" d="M1207.4916,-224.2455C1217.9306,-215.8943 1233.164,-203.7076 1245.3725,-193.9408"/>
<polygon fill="#191970" stroke="#191970" points="1247.6229,-196.6227 1253.2451,-187.6427 1243.25,-191.1566 1247.6229,-196.6227"/>
</g>
<!-- Node32 -->
<g id="node33" class="node">
<title>Node32</title>
<g id="a_node33"><a xlink:href="Meta_8hxx.html" target="_top" xlink:title="Meta.hxx">
<polygon fill="none" stroke="#000000" points="1541.2985,-168.5 1541.2985,-187.5 1603.2985,-187.5 1603.2985,-168.5 1541.2985,-168.5"/>
<text text-anchor="middle" x="1572.2985" y="-175.5" font-family="Helvetica,sans-Serif" font-size="10.00" fill="#000000">Meta.hxx</text>
</a>
</g>
</g>
<!-- Node23&#45;&gt;Node32 -->
<g id="edge48" class="edge">
<title>Node23&#45;&gt;Node32</title>
<path fill="none" stroke="#191970" d="M1224.3232,-231.1196C1281.281,-225.2361 1411.8327,-210.6117 1530.9139,-188.104"/>
<polygon fill="#191970" stroke="#191970" points="1531.7642,-191.5048 1540.9278,-186.187 1530.448,-184.6297 1531.7642,-191.5048"/>
</g>
<!-- Node36 -->
<g id="node37" class="node">
<title>Node36</title>
<g id="a_node37"><a xlink:href="LOG_8inl_8hxx.html" target="_top" xlink:title="LOG.inl.hxx">
<polygon fill="none" stroke="#000000" points="1307.7985,-168.5 1307.7985,-187.5 1380.7985,-187.5 1380.7985,-168.5 1307.7985,-168.5"/>
<text text-anchor="middle" x="1344.2985" y="-175.5" font-family="Helvetica,sans-Serif" font-size="10.00" fill="#000000">LOG.inl.hxx</text>
</a>
</g>
</g>
<!-- Node23&#45;&gt;Node36 -->
<g id="edge53" class="edge">
<title>Node23&#45;&gt;Node36</title>
<path fill="none" stroke="#191970" d="M1220.9125,-224.3733C1245.3672,-215.1822 1282.4039,-201.2624 1309.5194,-191.0713"/>
<polygon fill="#191970" stroke="#191970" points="1310.8894,-194.2956 1319.0187,-187.5011 1308.4266,-187.7431 1310.8894,-194.2956"/>
</g>
<!-- Node25 -->
<g id="node26" class="node">
<title>Node25</title>
<polygon fill="none" stroke="#bfbfbf" points="1216.7985,-112.5 1216.7985,-131.5 1281.7985,-131.5 1281.7985,-112.5 1216.7985,-112.5"/>
<text text-anchor="middle" x="1249.2985" y="-119.5" font-family="Helvetica,sans-Serif" font-size="10.00" fill="#000000">stdexcept</text>
</g>
<!-- Node24&#45;&gt;Node25 -->
<g id="edge38" class="edge">
<title>Node24&#45;&gt;Node25</title>
<path fill="none" stroke="#191970" d="M1440.8506,-168.4369C1399.3356,-158.3726 1334.2223,-142.5876 1291.6466,-132.2662"/>
<polygon fill="#191970" stroke="#191970" points="1292.4083,-128.8495 1281.8651,-129.8949 1290.759,-135.6525 1292.4083,-128.8495"/>
</g>
<!-- Node26 -->
<g id="node27" class="node">
<title>Node26</title>
<polygon fill="none" stroke="#bfbfbf" points="1299.7985,-112.5 1299.7985,-131.5 1364.7985,-131.5 1364.7985,-112.5 1299.7985,-112.5"/>
<text text-anchor="middle" x="1332.2985" y="-119.5" font-family="Helvetica,sans-Serif" font-size="10.00" fill="#000000">exception</text>
</g>
<!-- Node24&#45;&gt;Node26 -->
<g id="edge39" class="edge">
<title>Node24&#45;&gt;Node26</title>
<path fill="none" stroke="#191970" d="M1454.8564,-168.3733C1430.5658,-159.1822 1393.7777,-145.2624 1366.8442,-135.0713"/>
<polygon fill="#191970" stroke="#191970" points="1368.0001,-131.7666 1357.4086,-131.5011 1365.5228,-138.3136 1368.0001,-131.7666"/>
</g>
<!-- Node32&#45;&gt;Node5 -->
<g id="edge49" class="edge">
<title>Node32&#45;&gt;Node5</title>
<path fill="none" stroke="#191970" d="M1540.9592,-169.6361C1538.0444,-169.0184 1535.1247,-168.4588 1532.2985,-168 1324.6041,-134.2822 1072.124,-125.1264 975.5226,-122.7707"/>
<polygon fill="#191970" stroke="#191970" points="975.4051,-119.2671 965.3263,-122.5335 975.2422,-126.2652 975.4051,-119.2671"/>
</g>
<!-- Node33 -->
<g id="node34" class="node">
<title>Node33</title>
<polygon fill="none" stroke="#bfbfbf" points="1382.7985,-112.5 1382.7985,-131.5 1451.7985,-131.5 1451.7985,-112.5 1382.7985,-112.5"/>
<text text-anchor="middle" x="1417.2985" y="-119.5" font-family="Helvetica,sans-Serif" font-size="10.00" fill="#000000">type_traits</text>
</g>
<!-- Node32&#45;&gt;Node33 -->
<g id="edge50" class="edge">
<title>Node32&#45;&gt;Node33</title>
<path fill="none" stroke="#191970" d="M1545.653,-168.3733C1520.102,-159.1419 1481.3472,-145.1402 1453.1075,-134.9375"/>
<polygon fill="#191970" stroke="#191970" points="1454.1905,-131.6074 1443.5962,-131.5011 1451.8119,-138.1909 1454.1905,-131.6074"/>
</g>
<!-- Node34 -->
<g id="node35" class="node">
<title>Node34</title>
<polygon fill="none" stroke="#bfbfbf" points="1570.7985,-112.5 1570.7985,-131.5 1621.7985,-131.5 1621.7985,-112.5 1570.7985,-112.5"/>
<text text-anchor="middle" x="1596.2985" y="-119.5" font-family="Helvetica,sans-Serif" font-size="10.00" fill="#000000">variant</text>
</g>
<!-- Node32&#45;&gt;Node34 -->
<g id="edge51" class="edge">
<title>Node32&#45;&gt;Node34</title>
<path fill="none" stroke="#191970" d="M1576.479,-168.2455C1579.6795,-160.7776 1584.1945,-150.2427 1588.1069,-141.1137"/>
<polygon fill="#191970" stroke="#191970" points="1591.4437,-142.2129 1592.1659,-131.6427 1585.0096,-139.4554 1591.4437,-142.2129"/>
</g>
<!-- Node35 -->
<g id="node36" class="node">
<title>Node35</title>
<polygon fill="none" stroke="#bfbfbf" points="1639.7985,-112.5 1639.7985,-131.5 1680.7985,-131.5 1680.7985,-112.5 1639.7985,-112.5"/>
<text text-anchor="middle" x="1660.2985" y="-119.5" font-family="Helvetica,sans-Serif" font-size="10.00" fill="#000000">tuple</text>
</g>
<!-- Node32&#45;&gt;Node35 -->
<g id="edge52" class="edge">
<title>Node32&#45;&gt;Node35</title>
<path fill="none" stroke="#191970" d="M1587.6269,-168.2455C1601.1288,-159.6534 1621.0106,-147.0014 1636.5671,-137.1018"/>
<polygon fill="#191970" stroke="#191970" points="1638.5882,-139.9643 1645.1457,-131.6427 1634.83,-134.0587 1638.5882,-139.9643"/>
</g>
<!-- Node37&#45;&gt;Node2 -->
<g id="edge56" class="edge">
<title>Node37&#45;&gt;Node2</title>
<path fill="none" stroke="#191970" d="M1747.5588,-224.2692C1747.6029,-200.3852 1743.9852,-138.8651 1707.2985,-112 1672.3766,-86.4272 1012.7069,-70.1759 857.7061,-66.7005"/>
<polygon fill="#191970" stroke="#191970" points="857.509,-63.1954 847.4337,-66.4725 857.3535,-70.1937 857.509,-63.1954"/>
</g>
<!-- Node37&#45;&gt;Node15 -->
<g id="edge57" class="edge">
<title>Node37&#45;&gt;Node15</title>
<path fill="none" stroke="#191970" d="M1780.4444,-224.4958C1814.5254,-213.1156 1859.8028,-192.4914 1838.2985,-168 1799.3215,-123.6089 1638.7215,-140.2549 1563.0939,-131.7758"/>
<polygon fill="#191970" stroke="#191970" points="1563.3885,-128.2838 1553.0079,-130.4037 1562.4448,-135.2199 1563.3885,-128.2838"/>
</g>
<!-- Node37&#45;&gt;Node32 -->
<g id="edge58" class="edge">
<title>Node37&#45;&gt;Node32</title>
<path fill="none" stroke="#191970" d="M1717.2149,-224.3733C1688.1151,-215.0613 1643.8462,-200.8953 1611.8954,-190.671"/>
<polygon fill="#191970" stroke="#191970" points="1612.5805,-187.2155 1601.9895,-187.5011 1610.447,-193.8824 1612.5805,-187.2155"/>
</g>
<!-- Node38 -->
<g id="node39" class="node">
<title>Node38</title>
<polygon fill="none" stroke="#bfbfbf" points="1775.7985,-168.5 1775.7985,-187.5 1828.7985,-187.5 1828.7985,-168.5 1775.7985,-168.5"/>
<text text-anchor="middle" x="1802.2985" y="-175.5" font-family="Helvetica,sans-Serif" font-size="10.00" fill="#000000">cstddef</text>
</g>
<!-- Node37&#45;&gt;Node38 -->
<g id="edge59" class="edge">
<title>Node37&#45;&gt;Node38</title>
<path fill="none" stroke="#191970" d="M1756.8788,-224.2455C1764.8442,-216.1352 1776.3625,-204.4075 1785.8064,-194.7919"/>
<polygon fill="#191970" stroke="#191970" points="1788.318,-197.2297 1792.828,-187.6427 1783.3238,-192.3247 1788.318,-197.2297"/>
</g>
<!-- Node39&#45;&gt;Node2 -->
<g id="edge61" class="edge">
<title>Node39&#45;&gt;Node2</title>
<path fill="none" stroke="#191970" d="M1678.4608,-168.138C1689.2154,-153.9147 1705.1273,-127.6384 1690.2985,-112 1661.1198,-81.2284 1011.6887,-68.9692 857.7894,-66.4906"/>
<polygon fill="#191970" stroke="#191970" points="857.6345,-62.9878 847.5803,-66.3289 857.5236,-69.9869 857.6345,-62.9878"/>
</g>
<!-- Node39&#45;&gt;Node11 -->
<g id="edge63" class="edge">
<title>Node39&#45;&gt;Node11</title>
<path fill="none" stroke="#191970" d="M1687.6167,-168.3632C1708.9693,-155.2931 1740.4531,-131.3565 1723.2985,-112 1701.4239,-87.3177 1484.969,-73.2542 1388.8644,-68.183"/>
<polygon fill="#191970" stroke="#191970" points="1389.0213,-64.6865 1378.8536,-67.6643 1388.6591,-71.6771 1389.0213,-64.6865"/>
</g>
<!-- Node39&#45;&gt;Node15 -->
<g id="edge62" class="edge">
<title>Node39&#45;&gt;Node15</title>
<path fill="none" stroke="#191970" d="M1642.9654,-168.3733C1616.755,-159.1419 1577.0001,-145.1402 1548.0317,-134.9375"/>
<polygon fill="#191970" stroke="#191970" points="1548.8697,-131.5219 1538.2749,-131.5011 1546.5443,-138.1244 1548.8697,-131.5219"/>
</g>
</g>
</svg>
        <g id="navigator" transform="translate(0 0)" fill="#404254">
                <rect fill="#f2f5e9" fill-opacity="0.5" stroke="#606060" stroke-width=".5" x="0" y="0" width="60" height="60"/>
                <use id="zoomplus" xlink:href="#zoomPlus" x="17" y="9" onmousedown="handleZoom(evt,'in')"/>
                <use id="zoomminus" xlink:href="#zoomMin" x="42" y="9" onmousedown="handleZoom(evt,'out')"/>
                <use id="reset" xlink:href="#resetDef" x="30" y="36" onmousedown="handleReset()"/>
                <g id="arrowUp" xlink:href="#dirArrow" transform="translate(30 24)" onmousedown="handlePan(0,-1)">
                  <use xlink:href="#rim" fill="#404040">
                        <set attributeName="fill" to="#808080" begin="arrowUp.mouseover" end="arrowUp.mouseout"/>
                  </use>
                  <path fill="none" stroke="white" stroke-width="1.5" d="M0,-3.0v7 M-2.5,-0.5L0,-3.0L2.5,-0.5"/>
                </g>
                <g id="arrowRight" xlink:href="#dirArrow" transform="rotate(90) translate(36 -43)" onmousedown="handlePan(1,0)">
                  <use xlink:href="#rim" fill="#404040">
                        <set attributeName="fill" to="#808080" begin="arrowRight.mouseover" end="arrowRight.mouseout"/>
                  </use>
                  <path fill="none" stroke="white" stroke-width="1.5" d="M0,-3.0v7 M-2.5,-0.5L0,-3.0L2.5,-0.5"/>
                </g>
                <g id="arrowDown" xlink:href="#dirArrow" transform="rotate(180) translate(-30 -48)" onmousedown="handlePan(0,1)">
                  <use xlink:href="#rim" fill="#404040">
                        <set attributeName="fill" to="#808080" begin="arrowDown.mouseover" end="arrowDown.mouseout"/>
                  </use>
                  <path fill="none" stroke="white" stroke-width="1.5" d="M0,-3.0v7 M-2.5,-0.5L0,-3.0L2.5,-0.5"/>
                </g>
                <g id="arrowLeft" xlink:href="#dirArrow" transform="rotate(270) translate(-36 17)" onmousedown="handlePan(-1,0)">
                  <use xlink:href="#rim" fill="#404040">
                        <set attributeName="fill" to="#808080" begin="arrowLeft.mouseover" end="arrowLeft.mouseout"/>
                  </use>
                  <path fill="none" stroke="white" stroke-width="1.5" d="M0,-3.0v7 M-2.5,-0.5L0,-3.0L2.5,-0.5"/>
                </g>
        </g>
        <svg viewBox="0 0 15 15" width="100%" height="30px" preserveAspectRatio="xMaxYMin meet">
         <g id="arrow_out" transform="scale(0.3 0.3)">
          <a xlink:href="UIElement_8cxx__incl_org.svg" target="_base">
           <rect id="button" ry="5" rx="5" y="6" x="6" height="38" width="38"
                fill="#f2f5e9" fill-opacity="0.5" stroke="#606060" stroke-width="1.0"/>
           <path id="arrow"
             d="M 11.500037,31.436501 C 11.940474,20.09759 22.043105,11.32322 32.158766,21.979434 L 37.068811,17.246167 C 37.068811,17.246167 37.088388,32 37.088388,32 L 22.160133,31.978069 C 22.160133,31.978069 26.997745,27.140456 26.997745,27.140456 C 18.528582,18.264221 13.291696,25.230495 11.500037,31.436501 z"
             style="fill:#404040;"/>
          </a>
         </g>
        </svg>
</svg>
