<?xml version="1.0" encoding="UTF-8" standalone="no"?>
<!DOCTYPE svg PUBLIC "-//W3C//DTD SVG 1.1//EN"
 "http://www.w3.org/Graphics/SVG/1.1/DTD/svg11.dtd">
<!-- Generated by graphviz version 2.40.1 (20161225.0304)
 -->
<!-- Title: src/events/UIEvents.hxx Pages: 1 -->
<svg width="347pt" height="196pt"
 viewBox="0.00 0.00 347.00 196.00" xmlns="http://www.w3.org/2000/svg" xmlns:xlink="http://www.w3.org/1999/xlink">
<g id="graph0" class="graph" transform="scale(1 1) rotate(0) translate(4 192)">
<title>src/events/UIEvents.hxx</title>
<!-- Node0 -->
<g id="node1" class="node">
<title>Node0</title>
<polygon fill="#bfbfbf" stroke="#000000" points="17.5,-168.5 17.5,-187.5 151.5,-187.5 151.5,-168.5 17.5,-168.5"/>
<text text-anchor="middle" x="84.5" y="-175.5" font-family="Helvetica,sans-Serif" font-size="10.00" fill="#000000">src/events/UIEvents.hxx</text>
</g>
<!-- Node1 -->
<g id="node2" class="node">
<title>Node1</title>
<polygon fill="none" stroke="#bfbfbf" points="0,-112.5 0,-131.5 65,-131.5 65,-112.5 0,-112.5"/>
<text text-anchor="middle" x="32.5" y="-119.5" font-family="Helvetica,sans-Serif" font-size="10.00" fill="#000000">functional</text>
</g>
<!-- Node0&#45;&gt;Node1 -->
<g id="edge1" class="edge">
<title>Node0&#45;&gt;Node1</title>
<path fill="none" stroke="#191970" d="M75.4423,-168.2455C67.9858,-160.2155 57.2366,-148.6394 48.3583,-139.0781"/>
<polygon fill="#191970" stroke="#191970" points="50.8232,-136.589 41.4539,-131.6427 45.6937,-141.3522 50.8232,-136.589"/>
</g>
<!-- Node2 -->
<g id="node3" class="node">
<title>Node2</title>
<g id="a_node3"><a xlink:href="Observer_8hxx.html" target="_top" xlink:title="../util/Observer.hxx">
<polygon fill="none" stroke="#000000" points="83,-112.5 83,-131.5 192,-131.5 192,-112.5 83,-112.5"/>
<text text-anchor="middle" x="137.5" y="-119.5" font-family="Helvetica,sans-Serif" font-size="10.00" fill="#000000">../util/Observer.hxx</text>
</a>
</g>
</g>
<!-- Node0&#45;&gt;Node2 -->
<g id="edge2" class="edge">
<title>Node0&#45;&gt;Node2</title>
<path fill="none" stroke="#191970" d="M93.7319,-168.2455C101.3317,-160.2155 112.2877,-148.6394 121.3368,-139.0781"/>
<polygon fill="#191970" stroke="#191970" points="124.0421,-141.3115 128.3739,-131.6427 118.958,-136.4998 124.0421,-141.3115"/>
</g>
<!-- Node3 -->
<g id="node4" class="node">
<title>Node3</title>
<polygon fill="none" stroke="#bfbfbf" points="43,-56.5 43,-75.5 90,-75.5 90,-56.5 43,-56.5"/>
<text text-anchor="middle" x="66.5" y="-63.5" font-family="Helvetica,sans-Serif" font-size="10.00" fill="#000000">vector</text>
</g>
<!-- Node2&#45;&gt;Node3 -->
<g id="edge3" class="edge">
<title>Node2&#45;&gt;Node3</title>
<path fill="none" stroke="#191970" d="M125.1327,-112.2455C114.5446,-103.8943 99.0936,-91.7076 86.7107,-81.9408"/>
<polygon fill="#191970" stroke="#191970" points="88.7447,-79.0875 78.7255,-75.6427 84.4097,-84.5837 88.7447,-79.0875"/>
</g>
<!-- Node4 -->
<g id="node5" class="node">
<title>Node4</title>
<polygon fill="none" stroke="#bfbfbf" points="108.5,-56.5 108.5,-75.5 166.5,-75.5 166.5,-56.5 108.5,-56.5"/>
<text text-anchor="middle" x="137.5" y="-63.5" font-family="Helvetica,sans-Serif" font-size="10.00" fill="#000000">memory</text>
</g>
<!-- Node2&#45;&gt;Node4 -->
<g id="edge4" class="edge">
<title>Node2&#45;&gt;Node4</title>
<path fill="none" stroke="#191970" d="M137.5,-112.2455C137.5,-104.9382 137.5,-94.6944 137.5,-85.7046"/>
<polygon fill="#191970" stroke="#191970" points="141.0001,-85.6426 137.5,-75.6427 134.0001,-85.6427 141.0001,-85.6426"/>
</g>
<!-- Node5 -->
<g id="node6" class="node">
<title>Node5</title>
<g id="a_node6"><a xlink:href="Meta_8hxx.html" target="_top" xlink:title="Meta.hxx">
<polygon fill="none" stroke="#000000" points="184.5,-56.5 184.5,-75.5 246.5,-75.5 246.5,-56.5 184.5,-56.5"/>
<text text-anchor="middle" x="215.5" y="-63.5" font-family="Helvetica,sans-Serif" font-size="10.00" fill="#000000">Meta.hxx</text>
</a>
</g>
</g>
<!-- Node2&#45;&gt;Node5 -->
<g id="edge5" class="edge">
<title>Node2&#45;&gt;Node5</title>
<path fill="none" stroke="#191970" d="M151.0866,-112.2455C162.8305,-103.814 180.0199,-91.4729 193.6882,-81.6598"/>
<polygon fill="#191970" stroke="#191970" points="195.9871,-84.3179 202.0691,-75.6427 191.9046,-78.6316 195.9871,-84.3179"/>
</g>
<!-- Node6 -->
<g id="node7" class="node">
<title>Node6</title>
<polygon fill="none" stroke="#bfbfbf" points="63.5,-.5 63.5,-19.5 123.5,-19.5 123.5,-.5 63.5,-.5"/>
<text text-anchor="middle" x="93.5" y="-7.5" font-family="Helvetica,sans-Serif" font-size="10.00" fill="#000000">iostream</text>
</g>
<!-- Node5&#45;&gt;Node6 -->
<g id="edge6" class="edge">
<title>Node5&#45;&gt;Node6</title>
<path fill="none" stroke="#191970" d="M194.5275,-56.3733C174.9433,-47.3838 145.5039,-33.8706 123.449,-23.7471"/>
<polygon fill="#191970" stroke="#191970" points="124.7473,-20.4919 114.1989,-19.5011 121.8271,-26.8538 124.7473,-20.4919"/>
</g>
<!-- Node7 -->
<g id="node8" class="node">
<title>Node7</title>
<polygon fill="none" stroke="#bfbfbf" points="142,-.5 142,-19.5 211,-19.5 211,-.5 142,-.5"/>
<text text-anchor="middle" x="176.5" y="-7.5" font-family="Helvetica,sans-Serif" font-size="10.00" fill="#000000">type_traits</text>
</g>
<!-- Node5&#45;&gt;Node7 -->
<g id="edge7" class="edge">
<title>Node5&#45;&gt;Node7</title>
<path fill="none" stroke="#191970" d="M208.7067,-56.2455C203.2822,-48.4564 195.5339,-37.3308 188.9967,-27.9439"/>
<polygon fill="#191970" stroke="#191970" points="191.8025,-25.8485 183.2154,-19.6427 186.0583,-29.849 191.8025,-25.8485"/>
</g>
<!-- Node8 -->
<g id="node9" class="node">
<title>Node8</title>
<polygon fill="none" stroke="#bfbfbf" points="229,-.5 229,-19.5 280,-19.5 280,-.5 229,-.5"/>
<text text-anchor="middle" x="254.5" y="-7.5" font-family="Helvetica,sans-Serif" font-size="10.00" fill="#000000">variant</text>
</g>
<!-- Node5&#45;&gt;Node8 -->
<g id="edge8" class="edge">
<title>Node5&#45;&gt;Node8</title>
<path fill="none" stroke="#191970" d="M222.2933,-56.2455C227.7178,-48.4564 235.4661,-37.3308 242.0033,-27.9439"/>
<polygon fill="#191970" stroke="#191970" points="244.9417,-29.849 247.7846,-19.6427 239.1975,-25.8485 244.9417,-29.849"/>
</g>
<!-- Node9 -->
<g id="node10" class="node">
<title>Node9</title>
<polygon fill="none" stroke="#bfbfbf" points="298,-.5 298,-19.5 339,-19.5 339,-.5 298,-.5"/>
<text text-anchor="middle" x="318.5" y="-7.5" font-family="Helvetica,sans-Serif" font-size="10.00" fill="#000000">tuple</text>
</g>
<!-- Node5&#45;&gt;Node9 -->
<g id="edge9" class="edge">
<title>Node5&#45;&gt;Node9</title>
<path fill="none" stroke="#191970" d="M233.4412,-56.2455C249.54,-47.4928 273.3879,-34.527 291.7391,-24.5496"/>
<polygon fill="#191970" stroke="#191970" points="293.6507,-27.4942 300.7644,-19.6427 290.3071,-21.3444 293.6507,-27.4942"/>
</g>
</g>
</svg>
