<?xml version="1.0" encoding="UTF-8" standalone="no"?>
<!DOCTYPE svg PUBLIC "-//W3C//DTD SVG 1.1//EN"
 "http://www.w3.org/Graphics/SVG/1.1/DTD/svg11.dtd">
<!-- Generated by graphviz version 2.40.1 (20161225.0304)
 -->
<!-- Title: src/engine/UIManager.cxx Pages: 1 -->
<svg width="2904pt" height="476pt"
 viewBox="0.00 0.00 2903.50 476.00" xmlns="http://www.w3.org/2000/svg" xmlns:xlink="http://www.w3.org/1999/xlink">
<g id="graph0" class="graph" transform="scale(1 1) rotate(0) translate(4 472)">
<title>src/engine/UIManager.cxx</title>
<!-- Node0 -->
<g id="node1" class="node">
<title>Node0</title>
<polygon fill="#bfbfbf" stroke="#000000" points="1828,-448.5 1828,-467.5 1970,-467.5 1970,-448.5 1828,-448.5"/>
<text text-anchor="middle" x="1899" y="-455.5" font-family="Helvetica,sans-Serif" font-size="10.00" fill="#000000">src/engine/UIManager.cxx</text>
</g>
<!-- Node1 -->
<g id="node2" class="node">
<title>Node1</title>
<g id="a_node2"><a xlink:href="UIManager_8hxx.html" target="_top" xlink:title="UIManager.hxx">
<polygon fill="none" stroke="#000000" points="612.5,-392.5 612.5,-411.5 701.5,-411.5 701.5,-392.5 612.5,-392.5"/>
<text text-anchor="middle" x="657" y="-399.5" font-family="Helvetica,sans-Serif" font-size="10.00" fill="#000000">UIManager.hxx</text>
</a>
</g>
</g>
<!-- Node0&#45;&gt;Node1 -->
<g id="edge1" class="edge">
<title>Node0&#45;&gt;Node1</title>
<path fill="none" stroke="#191970" d="M1827.7638,-454.7881C1603.0548,-444.6563 912.2155,-413.5073 711.9446,-404.4774"/>
<polygon fill="#191970" stroke="#191970" points="711.8186,-400.9682 701.6711,-404.0142 711.5032,-407.9611 711.8186,-400.9682"/>
</g>
<!-- Node6 -->
<g id="node7" class="node">
<title>Node6</title>
<g id="a_node7"><a xlink:href="mapEdit_8hxx.html" target="_top" xlink:title="../../basics/mapEdit.hxx">
<polygon fill="none" stroke="#000000" points="384,-112.5 384,-131.5 514,-131.5 514,-112.5 384,-112.5"/>
<text text-anchor="middle" x="449" y="-119.5" font-family="Helvetica,sans-Serif" font-size="10.00" fill="#000000">../../basics/mapEdit.hxx</text>
</a>
</g>
</g>
<!-- Node0&#45;&gt;Node6 -->
<g id="edge75" class="edge">
<title>Node0&#45;&gt;Node6</title>
<path fill="none" stroke="#191970" d="M1827.754,-457.5087C1486.7811,-454.6998 38,-437.3876 38,-346 38,-346 38,-346 38,-234 38,-165.1925 255.1429,-137.2393 373.7629,-127.1025"/>
<polygon fill="#191970" stroke="#191970" points="374.2005,-130.5783 383.8758,-126.261 373.62,-123.6024 374.2005,-130.5783"/>
</g>
<!-- Node7 -->
<g id="node8" class="node">
<title>Node7</title>
<g id="a_node8"><a xlink:href="ResourcesManager_8hxx.html" target="_top" xlink:title="../../ResourcesManager.hxx">
<polygon fill="none" stroke="#000000" points="722,-112.5 722,-131.5 868,-131.5 868,-112.5 722,-112.5"/>
<text text-anchor="middle" x="795" y="-119.5" font-family="Helvetica,sans-Serif" font-size="10.00" fill="#000000">../../ResourcesManager.hxx</text>
</a>
</g>
</g>
<!-- Node0&#45;&gt;Node7 -->
<g id="edge55" class="edge">
<title>Node0&#45;&gt;Node7</title>
<path fill="none" stroke="#191970" d="M1827.8017,-454.8918C1706.4438,-449.0539 1464.7235,-434.9304 1383,-412 1352.7175,-403.5032 936.2969,-193.4449 823.1819,-136.2591"/>
<polygon fill="#191970" stroke="#191970" points="824.5849,-133.0465 814.0815,-131.6573 821.4261,-139.2933 824.5849,-133.0465"/>
</g>
<!-- Node15 -->
<g id="node12" class="node">
<title>Node15</title>
<polygon fill="none" stroke="#bfbfbf" points="2185,-.5 2185,-19.5 2243,-19.5 2243,-.5 2185,-.5"/>
<text text-anchor="middle" x="2214" y="-7.5" font-family="Helvetica,sans-Serif" font-size="10.00" fill="#000000">json.hxx</text>
</g>
<!-- Node0&#45;&gt;Node15 -->
<g id="edge108" class="edge">
<title>Node0&#45;&gt;Node15</title>
<path fill="none" stroke="#191970" d="M1970.0754,-455.6605C2113.2437,-450.4928 2431.7343,-436.5717 2538,-412 2614.5501,-394.2994 2702,-424.5699 2702,-346 2702,-346 2702,-346 2702,-122 2702,-91.4754 2706.4615,-75.5272 2683,-56 2650.2515,-28.7432 2360.253,-15.3867 2253.3495,-11.3565"/>
<polygon fill="#191970" stroke="#191970" points="2253.4178,-7.8567 2243.2953,-10.9847 2253.1591,-14.8519 2253.4178,-7.8567"/>
</g>
<!-- Node38 -->
<g id="node25" class="node">
<title>Node38</title>
<g id="a_node25"><a xlink:href="Engine_8hxx.html" target="_top" xlink:title="Engine.hxx">
<polygon fill="none" stroke="#000000" points="1495.5,-280.5 1495.5,-299.5 1566.5,-299.5 1566.5,-280.5 1495.5,-280.5"/>
<text text-anchor="middle" x="1531" y="-287.5" font-family="Helvetica,sans-Serif" font-size="10.00" fill="#000000">Engine.hxx</text>
</a>
</g>
</g>
<!-- Node0&#45;&gt;Node38 -->
<g id="edge56" class="edge">
<title>Node0&#45;&gt;Node38</title>
<path fill="none" stroke="#191970" d="M1890.1323,-448.2645C1868.2731,-424.9075 1809.0573,-365.4496 1747,-336 1691.888,-309.8463 1621.846,-298.4335 1576.7207,-293.5409"/>
<polygon fill="#191970" stroke="#191970" points="1576.9518,-290.0464 1566.648,-292.5124 1576.2407,-297.0102 1576.9518,-290.0464"/>
</g>
<!-- Node40 -->
<g id="node27" class="node">
<title>Node40</title>
<g id="a_node27"><a xlink:href="Map_8hxx.html" target="_top" xlink:title="Map.hxx">
<polygon fill="none" stroke="#000000" points="1386,-224.5 1386,-243.5 1444,-243.5 1444,-224.5 1386,-224.5"/>
<text text-anchor="middle" x="1415" y="-231.5" font-family="Helvetica,sans-Serif" font-size="10.00" fill="#000000">Map.hxx</text>
</a>
</g>
</g>
<!-- Node0&#45;&gt;Node40 -->
<g id="edge74" class="edge">
<title>Node0&#45;&gt;Node40</title>
<path fill="none" stroke="#191970" d="M1827.7681,-452.0438C1778.1757,-446.1089 1711.2868,-434.4792 1656,-412 1560.5831,-373.2042 1468.58,-287.9219 1431.8018,-251.2839"/>
<polygon fill="#191970" stroke="#191970" points="1433.9538,-248.4833 1424.4272,-243.8469 1428.9832,-253.4121 1433.9538,-248.4833"/>
</g>
<!-- Node46 -->
<g id="node32" class="node">
<title>Node46</title>
<g id="a_node32"><a xlink:href="Settings_8hxx.html" target="_top" xlink:title="basics/Settings.hxx">
<polygon fill="none" stroke="#000000" points="2248.5,-168.5 2248.5,-187.5 2359.5,-187.5 2359.5,-168.5 2248.5,-168.5"/>
<text text-anchor="middle" x="2304" y="-175.5" font-family="Helvetica,sans-Serif" font-size="10.00" fill="#000000">basics/Settings.hxx</text>
</a>
</g>
</g>
<!-- Node0&#45;&gt;Node46 -->
<g id="edge76" class="edge">
<title>Node0&#45;&gt;Node46</title>
<path fill="none" stroke="#191970" d="M1970.1582,-451.5577C2035.0923,-441.3034 2121,-414.7463 2121,-346 2121,-346 2121,-346 2121,-290 2121,-232.9606 2186.4782,-204.0854 2239.1007,-190.0894"/>
<polygon fill="#191970" stroke="#191970" points="2240.2557,-193.4077 2249.094,-187.5652 2238.5413,-186.6209 2240.2557,-193.4077"/>
</g>
<!-- Node52 -->
<g id="node35" class="node">
<title>Node52</title>
<g id="a_node35"><a xlink:href="utils_8hxx.html" target="_top" xlink:title="basics/utils.hxx">
<polygon fill="none" stroke="#000000" points="1665,-392.5 1665,-411.5 1757,-411.5 1757,-392.5 1665,-392.5"/>
<text text-anchor="middle" x="1711" y="-399.5" font-family="Helvetica,sans-Serif" font-size="10.00" fill="#000000">basics/utils.hxx</text>
</a>
</g>
</g>
<!-- Node0&#45;&gt;Node52 -->
<g id="edge82" class="edge">
<title>Node0&#45;&gt;Node52</title>
<path fill="none" stroke="#191970" d="M1866.6816,-448.3733C1835.1494,-438.9807 1787.0379,-424.6496 1752.6499,-414.4064"/>
<polygon fill="#191970" stroke="#191970" points="1753.4797,-411.0016 1742.8966,-411.5011 1751.4813,-417.7103 1753.4797,-411.0016"/>
</g>
<!-- Node54 -->
<g id="node37" class="node">
<title>Node54</title>
<g id="a_node37"><a xlink:href="LOG_8hxx.html" target="_top" xlink:title="LOG.hxx">
<polygon fill="none" stroke="#000000" points="1870,-168.5 1870,-187.5 1928,-187.5 1928,-168.5 1870,-168.5"/>
<text text-anchor="middle" x="1899" y="-175.5" font-family="Helvetica,sans-Serif" font-size="10.00" fill="#000000">LOG.hxx</text>
</a>
</g>
</g>
<!-- Node0&#45;&gt;Node54 -->
<g id="edge85" class="edge">
<title>Node0&#45;&gt;Node54</title>
<path fill="none" stroke="#191970" d="M1899,-448.4116C1899,-429.0538 1899,-383.9167 1899,-346 1899,-346 1899,-346 1899,-290 1899,-257.7116 1899,-220.1872 1899,-197.8048"/>
<polygon fill="#191970" stroke="#191970" points="1902.5001,-197.5883 1899,-187.5884 1895.5001,-197.5884 1902.5001,-197.5883"/>
</g>
<!-- Node55 -->
<g id="node38" class="node">
<title>Node55</title>
<g id="a_node38"><a xlink:href="Exception_8hxx.html" target="_top" xlink:title="Exception.hxx">
<polygon fill="none" stroke="#ff0000" points="2550,-112.5 2550,-131.5 2636,-131.5 2636,-112.5 2550,-112.5"/>
<text text-anchor="middle" x="2593" y="-119.5" font-family="Helvetica,sans-Serif" font-size="10.00" fill="#000000">Exception.hxx</text>
</a>
</g>
</g>
<!-- Node0&#45;&gt;Node55 -->
<g id="edge99" class="edge">
<title>Node0&#45;&gt;Node55</title>
<path fill="none" stroke="#191970" d="M1970.2853,-452.3196C2131.4603,-438.5197 2510,-400.3263 2510,-346 2510,-346 2510,-346 2510,-234 2510,-193.0829 2546.2004,-157.3617 2570.7865,-137.8195"/>
<polygon fill="#191970" stroke="#191970" points="2573.1025,-140.4545 2578.9202,-131.5999 2568.8504,-134.8939 2573.1025,-140.4545"/>
</g>
<!-- Node62 -->
<g id="node46" class="node">
<title>Node62</title>
<g id="a_node46"><a xlink:href="GameStates_8hxx.html" target="_top" xlink:title="GameStates.hxx">
<polygon fill="none" stroke="#ff0000" points="2576,-56.5 2576,-75.5 2674,-75.5 2674,-56.5 2576,-56.5"/>
<text text-anchor="middle" x="2625" y="-63.5" font-family="Helvetica,sans-Serif" font-size="10.00" fill="#000000">GameStates.hxx</text>
</a>
</g>
</g>
<!-- Node0&#45;&gt;Node62 -->
<g id="edge100" class="edge">
<title>Node0&#45;&gt;Node62</title>
<path fill="none" stroke="#191970" d="M1970.2824,-454.9934C2160.1937,-446.0391 2664,-415.7148 2664,-346 2664,-346 2664,-346 2664,-178 2664,-143.5398 2647.3304,-106.2666 2635.7876,-84.5877"/>
<polygon fill="#191970" stroke="#191970" points="2638.8252,-82.8481 2630.9233,-75.7906 2632.6994,-86.2355 2638.8252,-82.8481"/>
</g>
<!-- Node63 -->
<g id="node47" class="node">
<title>Node63</title>
<g id="a_node47"><a xlink:href="MapLayers_8hxx.html" target="_top" xlink:title="MapLayers.hxx">
<polygon fill="none" stroke="#ff0000" points="1173,-280.5 1173,-299.5 1263,-299.5 1263,-280.5 1173,-280.5"/>
<text text-anchor="middle" x="1218" y="-287.5" font-family="Helvetica,sans-Serif" font-size="10.00" fill="#000000">MapLayers.hxx</text>
</a>
</g>
</g>
<!-- Node0&#45;&gt;Node63 -->
<g id="edge103" class="edge">
<title>Node0&#45;&gt;Node63</title>
<path fill="none" stroke="#191970" d="M1827.7779,-454.4188C1717.0096,-448.2558 1508.821,-434.132 1438,-412 1359.272,-387.3971 1276.9697,-332.6966 1239.2144,-305.6965"/>
<polygon fill="#191970" stroke="#191970" points="1241.1713,-302.7924 1231.0177,-299.7667 1237.0683,-308.4638 1241.1713,-302.7924"/>
</g>
<!-- Node64 -->
<g id="node48" class="node">
<title>Node64</title>
<g id="a_node48"><a xlink:href="Filesystem_8hxx.html" target="_top" xlink:title="Filesystem.hxx">
<polygon fill="none" stroke="#ff0000" points="2404,-112.5 2404,-131.5 2494,-131.5 2494,-112.5 2404,-112.5"/>
<text text-anchor="middle" x="2449" y="-119.5" font-family="Helvetica,sans-Serif" font-size="10.00" fill="#000000">Filesystem.hxx</text>
</a>
</g>
</g>
<!-- Node0&#45;&gt;Node64 -->
<g id="edge105" class="edge">
<title>Node0&#45;&gt;Node64</title>
<path fill="none" stroke="#191970" d="M1970.0765,-450.0002C2112.2176,-433.0371 2418,-391.2826 2418,-346 2418,-346 2418,-346 2418,-234 2418,-200.3636 2431.1477,-163.0368 2440.3184,-141.0922"/>
<polygon fill="#191970" stroke="#191970" points="2443.6509,-142.2051 2444.4258,-131.6387 2437.2307,-139.4156 2443.6509,-142.2051"/>
</g>
<!-- Node14 -->
<g id="node49" class="node">
<title>Node14</title>
<polygon fill="none" stroke="#bfbfbf" points="2730,-392.5 2730,-411.5 2830,-411.5 2830,-392.5 2730,-392.5"/>
<text text-anchor="middle" x="2780" y="-399.5" font-family="Helvetica,sans-Serif" font-size="10.00" fill="#000000">betterEnums.hxx</text>
</g>
<!-- Node0&#45;&gt;Node14 -->
<g id="edge109" class="edge">
<title>Node0&#45;&gt;Node14</title>
<path fill="none" stroke="#191970" d="M1970.2247,-456.3548C2112.3703,-452.5495 2441.2235,-441.1304 2716,-412 2717.2581,-411.8666 2718.5293,-411.7257 2719.8098,-411.578"/>
<polygon fill="#191970" stroke="#191970" points="2720.2663,-415.0483 2729.753,-410.331 2719.3952,-408.1027 2720.2663,-415.0483"/>
</g>
<!-- Node75 -->
<g id="node50" class="node">
<title>Node75</title>
<polygon fill="none" stroke="#bfbfbf" points="2848.5,-392.5 2848.5,-411.5 2895.5,-411.5 2895.5,-392.5 2848.5,-392.5"/>
<text text-anchor="middle" x="2872" y="-399.5" font-family="Helvetica,sans-Serif" font-size="10.00" fill="#000000">cmath</text>
</g>
<!-- Node0&#45;&gt;Node75 -->
<g id="edge110" class="edge">
<title>Node0&#45;&gt;Node75</title>
<path fill="none" stroke="#191970" d="M1970.1312,-456.7757C2155.9635,-453.2231 2653.7502,-441.3458 2838.4991,-411.5786"/>
<polygon fill="#191970" stroke="#191970" points="2839.094,-415.0278 2848.3748,-409.9174 2837.9327,-408.1248 2839.094,-415.0278"/>
</g>
<!-- Node2 -->
<g id="node3" class="node">
<title>Node2</title>
<polygon fill="none" stroke="#bfbfbf" points="844,-.5 844,-19.5 888,-19.5 888,-.5 844,-.5"/>
<text text-anchor="middle" x="866" y="-7.5" font-family="Helvetica,sans-Serif" font-size="10.00" fill="#000000">SDL.h</text>
</g>
<!-- Node1&#45;&gt;Node2 -->
<g id="edge2" class="edge">
<title>Node1&#45;&gt;Node2</title>
<path fill="none" stroke="#191970" d="M612.1475,-399.8558C508.021,-394.5412 252.5012,-379.4682 170,-356 80.5503,-330.5552 0,-326.9983 0,-234 0,-234 0,-234 0,-122 0,-79.1163 676.7187,-24.5295 833.7371,-12.441"/>
<polygon fill="#191970" stroke="#191970" points="834.0196,-15.9297 843.7229,-11.6757 833.4846,-8.9502 834.0196,-15.9297"/>
</g>
<!-- Node3 -->
<g id="node4" class="node">
<title>Node3</title>
<polygon fill="none" stroke="#bfbfbf" points="1176.5,-56.5 1176.5,-75.5 1223.5,-75.5 1223.5,-56.5 1176.5,-56.5"/>
<text text-anchor="middle" x="1200" y="-63.5" font-family="Helvetica,sans-Serif" font-size="10.00" fill="#000000">vector</text>
</g>
<!-- Node1&#45;&gt;Node3 -->
<g id="edge3" class="edge">
<title>Node1&#45;&gt;Node3</title>
<path fill="none" stroke="#191970" d="M701.6789,-400.6705C784.26,-397.4833 956.9324,-387.1904 1007,-356 1061.8329,-321.841 1159.5602,-142.7262 1190.4,-84.3865"/>
<polygon fill="#191970" stroke="#191970" points="1193.5031,-86.0054 1195.0596,-75.5255 1187.3075,-82.7474 1193.5031,-86.0054"/>
</g>
<!-- Node4 -->
<g id="node5" class="node">
<title>Node4</title>
<g id="a_node5"><a xlink:href="UIElement_8hxx.html" target="_top" xlink:title="ui/basics/UIElement.hxx">
<polygon fill="none" stroke="#ff0000" points="494,-168.5 494,-187.5 628,-187.5 628,-168.5 494,-168.5"/>
<text text-anchor="middle" x="561" y="-175.5" font-family="Helvetica,sans-Serif" font-size="10.00" fill="#000000">ui/basics/UIElement.hxx</text>
</a>
</g>
</g>
<!-- Node1&#45;&gt;Node4 -->
<g id="edge4" class="edge">
<title>Node1&#45;&gt;Node4</title>
<path fill="none" stroke="#191970" d="M612.2605,-401.2323C528.6747,-398.9918 352.8401,-390.2279 304,-356 281.0472,-339.9143 281.6328,-327.2321 275,-300 272.8965,-291.3636 270.3134,-287.553 275,-280 299.6379,-240.2926 427.319,-206.6628 503.5038,-189.7367"/>
<polygon fill="#191970" stroke="#191970" points="504.4213,-193.1188 513.44,-187.5588 502.9225,-186.2811 504.4213,-193.1188"/>
</g>
<!-- Node16 -->
<g id="node13" class="node">
<title>Node16</title>
<g id="a_node13"><a xlink:href="Singleton_8hxx.html" target="_top" xlink:title="Singleton.hxx">
<polygon fill="none" stroke="#000000" points="1312.5,-.5 1312.5,-19.5 1395.5,-19.5 1395.5,-.5 1312.5,-.5"/>
<text text-anchor="middle" x="1354" y="-7.5" font-family="Helvetica,sans-Serif" font-size="10.00" fill="#000000">Singleton.hxx</text>
</a>
</g>
</g>
<!-- Node1&#45;&gt;Node16 -->
<g id="edge54" class="edge">
<title>Node1&#45;&gt;Node16</title>
<path fill="none" stroke="#191970" d="M701.5789,-396.8212C760.8286,-389.3519 861.7969,-374.4092 894,-356 951.6774,-323.0281 969.476,-306.1325 993,-244 1017.1284,-180.2711 875.9976,-167.8781 915,-112 941.5581,-73.9506 970.9316,-95.5791 1013,-76 1029.2431,-68.4403 1031.075,-61.8764 1048,-56 1133.8746,-26.1844 1239.9162,-15.6867 1301.9467,-11.9956"/>
<polygon fill="#191970" stroke="#191970" points="1302.4682,-15.4721 1312.258,-11.421 1302.0787,-8.4829 1302.4682,-15.4721"/>
</g>
<!-- Node24 -->
<g id="node15" class="node">
<title>Node24</title>
<g id="a_node15"><a xlink:href="Layout_8hxx.html" target="_top" xlink:title="ui/basics/Layout.hxx">
<polygon fill="none" stroke="#000000" points="868,-224.5 868,-243.5 984,-243.5 984,-224.5 868,-224.5"/>
<text text-anchor="middle" x="926" y="-231.5" font-family="Helvetica,sans-Serif" font-size="10.00" fill="#000000">ui/basics/Layout.hxx</text>
</a>
</g>
</g>
<!-- Node1&#45;&gt;Node24 -->
<g id="edge25" class="edge">
<title>Node1&#45;&gt;Node24</title>
<path fill="none" stroke="#191970" d="M701.5885,-397.2539C756.6826,-390.5894 846.3026,-376.8842 872,-356 904.0708,-329.9362 917.668,-280.9431 922.9639,-253.6417"/>
<polygon fill="#191970" stroke="#191970" points="926.4257,-254.1635 924.7068,-243.7091 919.5311,-252.9537 926.4257,-254.1635"/>
</g>
<!-- Node25 -->
<g id="node16" class="node">
<title>Node25</title>
<g id="a_node16"><a xlink:href="ButtonGroup_8hxx.html" target="_top" xlink:title="ui/basics/ButtonGroup.hxx">
<polygon fill="none" stroke="#000000" points="322.5,-336.5 322.5,-355.5 467.5,-355.5 467.5,-336.5 322.5,-336.5"/>
<text text-anchor="middle" x="395" y="-343.5" font-family="Helvetica,sans-Serif" font-size="10.00" fill="#000000">ui/basics/ButtonGroup.hxx</text>
</a>
</g>
</g>
<!-- Node1&#45;&gt;Node25 -->
<g id="edge29" class="edge">
<title>Node1&#45;&gt;Node25</title>
<path fill="none" stroke="#191970" d="M612.2583,-392.4369C567.2306,-382.8127 497.7272,-367.957 449.5073,-357.6504"/>
<polygon fill="#191970" stroke="#191970" points="450.0679,-354.1912 439.5572,-355.5237 448.6047,-361.0366 450.0679,-354.1912"/>
</g>
<!-- Node26 -->
<g id="node17" class="node">
<title>Node26</title>
<g id="a_node17"><a xlink:href="Button_8hxx.html" target="_top" xlink:title="../widgets/Button.hxx">
<polygon fill="none" stroke="#000000" points="284,-280.5 284,-299.5 404,-299.5 404,-280.5 284,-280.5"/>
<text text-anchor="middle" x="344" y="-287.5" font-family="Helvetica,sans-Serif" font-size="10.00" fill="#000000">../widgets/Button.hxx</text>
</a>
</g>
</g>
<!-- Node1&#45;&gt;Node26 -->
<g id="edge36" class="edge">
<title>Node1&#45;&gt;Node26</title>
<path fill="none" stroke="#191970" d="M612.3726,-399.2652C523.761,-393.3787 332.4442,-378.2174 313,-356 300.4786,-341.6927 313.3187,-321.4568 326.0722,-307.1728"/>
<polygon fill="#191970" stroke="#191970" points="328.6165,-309.5764 332.987,-299.925 323.5517,-304.7443 328.6165,-309.5764"/>
</g>
<!-- Node27 -->
<g id="node18" class="node">
<title>Node27</title>
<g id="a_node18"><a xlink:href="Text_8hxx.html" target="_top" xlink:title="Text.hxx">
<polygon fill="none" stroke="#000000" points="189,-224.5 189,-243.5 247,-243.5 247,-224.5 189,-224.5"/>
<text text-anchor="middle" x="218" y="-231.5" font-family="Helvetica,sans-Serif" font-size="10.00" fill="#000000">Text.hxx</text>
</a>
</g>
</g>
<!-- Node1&#45;&gt;Node27 -->
<g id="edge46" class="edge">
<title>Node1&#45;&gt;Node27</title>
<path fill="none" stroke="#191970" d="M612.2369,-399.9938C510.5549,-395.0227 268.8808,-380.7163 242,-356 213.7749,-330.0476 213.1634,-281.3754 215.4346,-254.0057"/>
<polygon fill="#191970" stroke="#191970" points="218.9523,-254.0185 216.5123,-243.7084 211.9903,-253.2897 218.9523,-254.0185"/>
</g>
<!-- Node28 -->
<g id="node19" class="node">
<title>Node28</title>
<g id="a_node19"><a xlink:href="Checkbox_8hxx.html" target="_top" xlink:title="ui/widgets/Checkbox.hxx">
<polygon fill="none" stroke="#000000" points="536.5,-224.5 536.5,-243.5 675.5,-243.5 675.5,-224.5 536.5,-224.5"/>
<text text-anchor="middle" x="606" y="-231.5" font-family="Helvetica,sans-Serif" font-size="10.00" fill="#000000">ui/widgets/Checkbox.hxx</text>
</a>
</g>
</g>
<!-- Node1&#45;&gt;Node28 -->
<g id="edge37" class="edge">
<title>Node1&#45;&gt;Node28</title>
<path fill="none" stroke="#191970" d="M658.3574,-392.4425C659.8958,-379.4623 661.6334,-355.6272 657,-336 649.5727,-304.5375 630.8726,-271.7149 618.3011,-252.0666"/>
<polygon fill="#191970" stroke="#191970" points="621.1159,-249.9767 612.6983,-243.5429 615.2665,-253.8218 621.1159,-249.9767"/>
</g>
<!-- Node29 -->
<g id="node20" class="node">
<title>Node29</title>
<g id="a_node20"><a xlink:href="Combobox_8hxx.html" target="_top" xlink:title="ui/widgets/Combobox.hxx">
<polygon fill="none" stroke="#ff0000" points="485.5,-336.5 485.5,-355.5 628.5,-355.5 628.5,-336.5 485.5,-336.5"/>
<text text-anchor="middle" x="557" y="-343.5" font-family="Helvetica,sans-Serif" font-size="10.00" fill="#000000">ui/widgets/Combobox.hxx</text>
</a>
</g>
</g>
<!-- Node1&#45;&gt;Node29 -->
<g id="edge39" class="edge">
<title>Node1&#45;&gt;Node29</title>
<path fill="none" stroke="#191970" d="M639.5813,-392.2455C623.9515,-383.4928 600.7981,-370.527 582.9815,-360.5496"/>
<polygon fill="#191970" stroke="#191970" points="584.6543,-357.475 574.2191,-355.6427 581.234,-363.5825 584.6543,-357.475"/>
</g>
<!-- Node30 -->
<g id="node21" class="node">
<title>Node30</title>
<g id="a_node21"><a xlink:href="TextField_8hxx.html" target="_top" xlink:title="TextField.hxx">
<polygon fill="none" stroke="#000000" points="508,-280.5 508,-299.5 588,-299.5 588,-280.5 508,-280.5"/>
<text text-anchor="middle" x="548" y="-287.5" font-family="Helvetica,sans-Serif" font-size="10.00" fill="#000000">TextField.hxx</text>
</a>
</g>
</g>
<!-- Node1&#45;&gt;Node30 -->
<g id="edge47" class="edge">
<title>Node1&#45;&gt;Node30</title>
<path fill="none" stroke="#191970" d="M656.5798,-392.3823C655.4981,-378.4634 651.6502,-352.5625 638,-336 625.7787,-321.1712 607.5446,-310.6116 590.6782,-303.3823"/>
<polygon fill="#191970" stroke="#191970" points="591.5463,-299.9603 580.9613,-299.5035 588.9511,-306.4615 591.5463,-299.9603"/>
</g>
<!-- Node31 -->
<g id="node22" class="node">
<title>Node31</title>
<g id="a_node22"><a xlink:href="Frame_8hxx.html" target="_top" xlink:title="ui/widgets/Frame.hxx">
<polygon fill="none" stroke="#000000" points="723.5,-336.5 723.5,-355.5 844.5,-355.5 844.5,-336.5 723.5,-336.5"/>
<text text-anchor="middle" x="784" y="-343.5" font-family="Helvetica,sans-Serif" font-size="10.00" fill="#000000">ui/widgets/Frame.hxx</text>
</a>
</g>
</g>
<!-- Node1&#45;&gt;Node31 -->
<g id="edge44" class="edge">
<title>Node1&#45;&gt;Node31</title>
<path fill="none" stroke="#191970" d="M678.8321,-392.3733C699.3103,-383.3435 730.1399,-369.7494 753.1319,-359.6111"/>
<polygon fill="#191970" stroke="#191970" points="754.715,-362.7383 762.4528,-355.5011 751.8907,-356.3333 754.715,-362.7383"/>
</g>
<!-- Node32 -->
<g id="node23" class="node">
<title>Node32</title>
<g id="a_node23"><a xlink:href="Tooltip_8hxx.html" target="_top" xlink:title="ui/widgets/Tooltip.hxx">
<polygon fill="none" stroke="#ff0000" points="66.5,-280.5 66.5,-299.5 189.5,-299.5 189.5,-280.5 66.5,-280.5"/>
<text text-anchor="middle" x="128" y="-287.5" font-family="Helvetica,sans-Serif" font-size="10.00" fill="#000000">ui/widgets/Tooltip.hxx</text>
</a>
</g>
</g>
<!-- Node1&#45;&gt;Node32 -->
<g id="edge48" class="edge">
<title>Node1&#45;&gt;Node32</title>
<path fill="none" stroke="#191970" d="M612.2422,-400.8751C512.8224,-397.829 276.6477,-387.4149 204,-356 179.0981,-345.2317 156.4485,-323.251 142.4777,-307.6176"/>
<polygon fill="#191970" stroke="#191970" points="144.8301,-304.9859 135.6499,-299.6969 139.5281,-309.5564 144.8301,-304.9859"/>
</g>
<!-- Node37 -->
<g id="node24" class="node">
<title>Node37</title>
<g id="a_node24"><a xlink:href="Slider_8hxx.html" target="_top" xlink:title="ui/widgets/Slider.hxx">
<polygon fill="none" stroke="#000000" points="732,-224.5 732,-243.5 850,-243.5 850,-224.5 732,-224.5"/>
<text text-anchor="middle" x="791" y="-231.5" font-family="Helvetica,sans-Serif" font-size="10.00" fill="#000000">ui/widgets/Slider.hxx</text>
</a>
</g>
</g>
<!-- Node1&#45;&gt;Node37 -->
<g id="edge51" class="edge">
<title>Node1&#45;&gt;Node37</title>
<path fill="none" stroke="#191970" d="M701.5596,-397.9341C753.708,-392.1459 835.336,-379.5241 854,-356 880.8542,-322.1529 838.1021,-275.0783 810.846,-250.4732"/>
<polygon fill="#191970" stroke="#191970" points="812.8119,-247.543 802.9789,-243.598 808.2056,-252.8139 812.8119,-247.543"/>
</g>
<!-- Node4&#45;&gt;Node2 -->
<g id="edge24" class="edge">
<title>Node4&#45;&gt;Node2</title>
<path fill="none" stroke="#191970" d="M561.2933,-168.267C562.5588,-144.9156 569.2159,-85.4691 604,-56 638.2254,-27.0042 771.3755,-15.5262 833.6072,-11.6765"/>
<polygon fill="#191970" stroke="#191970" points="833.8865,-15.1662 843.6629,-11.083 833.474,-8.1784 833.8865,-15.1662"/>
</g>
<!-- Node5 -->
<g id="node6" class="node">
<title>Node5</title>
<polygon fill="none" stroke="#bfbfbf" points="933,-.5 933,-19.5 977,-19.5 977,-.5 933,-.5"/>
<text text-anchor="middle" x="955" y="-7.5" font-family="Helvetica,sans-Serif" font-size="10.00" fill="#000000">string</text>
</g>
<!-- Node4&#45;&gt;Node5 -->
<g id="edge5" class="edge">
<title>Node4&#45;&gt;Node5</title>
<path fill="none" stroke="#191970" d="M568.251,-168.2476C575.0535,-159.0163 585.4338,-144.7165 594,-132 616.3201,-98.866 608.4491,-77.6884 642,-56 738.1222,6.1367 783.9237,-37.7256 897,-20 905.4685,-18.6725 914.6152,-17.1412 923.0862,-15.6822"/>
<polygon fill="#191970" stroke="#191970" points="923.7416,-19.1208 932.9928,-13.9569 922.5405,-12.2246 923.7416,-19.1208"/>
</g>
<!-- Node4&#45;&gt;Node6 -->
<g id="edge6" class="edge">
<title>Node4&#45;&gt;Node6</title>
<path fill="none" stroke="#191970" d="M541.7465,-168.3733C523.9288,-159.4644 497.2253,-146.1127 477.0406,-136.0203"/>
<polygon fill="#191970" stroke="#191970" points="478.5118,-132.8428 468.0022,-131.5011 475.3813,-139.1038 478.5118,-132.8428"/>
</g>
<!-- Node4&#45;&gt;Node7 -->
<g id="edge8" class="edge">
<title>Node4&#45;&gt;Node7</title>
<path fill="none" stroke="#191970" d="M600.9602,-168.4369C640.8392,-158.8932 702.2139,-144.2052 745.2328,-133.9101"/>
<polygon fill="#191970" stroke="#191970" points="746.2939,-137.2551 755.2047,-131.5237 744.6646,-130.4473 746.2939,-137.2551"/>
</g>
<!-- Node18 -->
<g id="node14" class="node">
<title>Node18</title>
<g id="a_node14"><a xlink:href="WindowManager_8hxx.html" target="_top" xlink:title="../../WindowManager.hxx">
<polygon fill="none" stroke="#000000" points="924,-112.5 924,-131.5 1060,-131.5 1060,-112.5 924,-112.5"/>
<text text-anchor="middle" x="992" y="-119.5" font-family="Helvetica,sans-Serif" font-size="10.00" fill="#000000">../../WindowManager.hxx</text>
</a>
</g>
</g>
<!-- Node4&#45;&gt;Node18 -->
<g id="edge18" class="edge">
<title>Node4&#45;&gt;Node18</title>
<path fill="none" stroke="#191970" d="M628.3438,-169.25C705.5389,-159.22 831.894,-142.8026 913.4902,-132.2008"/>
<polygon fill="#191970" stroke="#191970" points="914.2411,-135.6328 923.7068,-130.8734 913.3391,-128.6911 914.2411,-135.6328"/>
</g>
<!-- Node6&#45;&gt;Node5 -->
<g id="edge7" class="edge">
<title>Node6&#45;&gt;Node5</title>
<path fill="none" stroke="#191970" d="M461.8641,-112.3904C482.5776,-97.4814 525.1467,-69.1302 566,-56 706.8811,-10.7211 750.4596,-40.5813 897,-20 905.3242,-18.8309 914.2879,-17.3805 922.6204,-15.9503"/>
<polygon fill="#191970" stroke="#191970" points="923.4982,-19.3498 932.7418,-14.1723 922.287,-12.4554 923.4982,-19.3498"/>
</g>
<!-- Node7&#45;&gt;Node2 -->
<g id="edge11" class="edge">
<title>Node7&#45;&gt;Node2</title>
<path fill="none" stroke="#191970" d="M798.6268,-112.1615C803.7463,-98.8629 813.8378,-74.6681 826,-56 832.742,-45.6516 841.6498,-35.1786 849.3476,-26.8452"/>
<polygon fill="#191970" stroke="#191970" points="851.8955,-29.2449 856.247,-19.585 846.8212,-24.4228 851.8955,-29.2449"/>
</g>
<!-- Node8 -->
<g id="node9" class="node">
<title>Node8</title>
<polygon fill="none" stroke="#bfbfbf" points="1098,-56.5 1098,-75.5 1158,-75.5 1158,-56.5 1098,-56.5"/>
<text text-anchor="middle" x="1128" y="-63.5" font-family="Helvetica,sans-Serif" font-size="10.00" fill="#000000">iostream</text>
</g>
<!-- Node7&#45;&gt;Node8 -->
<g id="edge9" class="edge">
<title>Node7&#45;&gt;Node8</title>
<path fill="none" stroke="#191970" d="M851.8664,-112.4369C918.9824,-101.1501 1028.883,-82.6683 1087.7615,-72.7668"/>
<polygon fill="#191970" stroke="#191970" points="1088.5138,-76.1895 1097.7949,-71.0795 1087.3529,-69.2865 1088.5138,-76.1895"/>
</g>
<!-- Node9 -->
<g id="node10" class="node">
<title>Node9</title>
<polygon fill="none" stroke="#bfbfbf" points="608.5,-.5 608.5,-19.5 701.5,-19.5 701.5,-.5 608.5,-.5"/>
<text text-anchor="middle" x="655" y="-7.5" font-family="Helvetica,sans-Serif" font-size="10.00" fill="#000000">unordered_map</text>
</g>
<!-- Node7&#45;&gt;Node9 -->
<g id="edge10" class="edge">
<title>Node7&#45;&gt;Node9</title>
<path fill="none" stroke="#191970" d="M783.0637,-112.4509C758.9901,-93.1921 704.4023,-49.5218 674.8669,-25.8935"/>
<polygon fill="#191970" stroke="#191970" points="676.9013,-23.0388 666.9061,-19.5249 672.5284,-28.5049 676.9013,-23.0388"/>
</g>
<!-- Node10 -->
<g id="node11" class="node">
<title>Node10</title>
<g id="a_node11"><a xlink:href="TileManager_8hxx.html" target="_top" xlink:title="TileManager.hxx">
<polygon fill="none" stroke="#ff0000" points="906.5,-56.5 906.5,-75.5 1003.5,-75.5 1003.5,-56.5 906.5,-56.5"/>
<text text-anchor="middle" x="955" y="-63.5" font-family="Helvetica,sans-Serif" font-size="10.00" fill="#000000">TileManager.hxx</text>
</a>
</g>
</g>
<!-- Node7&#45;&gt;Node10 -->
<g id="edge12" class="edge">
<title>Node7&#45;&gt;Node10</title>
<path fill="none" stroke="#191970" d="M822.505,-112.3733C848.8802,-103.1419 888.8851,-89.1402 918.0358,-78.9375"/>
<polygon fill="#191970" stroke="#191970" points="919.5716,-82.1082 927.8539,-75.5011 917.2591,-75.5012 919.5716,-82.1082"/>
</g>
<!-- Node10&#45;&gt;Node2 -->
<g id="edge13" class="edge">
<title>Node10&#45;&gt;Node2</title>
<path fill="none" stroke="#191970" d="M939.4974,-56.2455C925.842,-47.6534 905.7343,-35.0014 890.0011,-25.1018"/>
<polygon fill="#191970" stroke="#191970" points="891.6529,-22.006 881.325,-19.6427 887.9249,-27.9307 891.6529,-22.006"/>
</g>
<!-- Node10&#45;&gt;Node5 -->
<g id="edge15" class="edge">
<title>Node10&#45;&gt;Node5</title>
<path fill="none" stroke="#191970" d="M955,-56.2455C955,-48.9382 955,-38.6944 955,-29.7046"/>
<polygon fill="#191970" stroke="#191970" points="958.5001,-29.6426 955,-19.6427 951.5001,-29.6427 958.5001,-29.6426"/>
</g>
<!-- Node10&#45;&gt;Node9 -->
<g id="edge14" class="edge">
<title>Node10&#45;&gt;Node9</title>
<path fill="none" stroke="#191970" d="M906.4664,-56.9404C853.3869,-47.0322 768.3959,-31.1672 712.1369,-20.6656"/>
<polygon fill="#191970" stroke="#191970" points="712.4531,-17.1642 701.9806,-18.7697 711.1686,-24.0453 712.4531,-17.1642"/>
</g>
<!-- Node10&#45;&gt;Node15 -->
<g id="edge16" class="edge">
<title>Node10&#45;&gt;Node15</title>
<path fill="none" stroke="#191970" d="M1003.6661,-61.9725C1029.0819,-59.9694 1060.7029,-57.6339 1089,-56 1514.0373,-31.4577 2030.1526,-15.3796 2174.7183,-11.1277"/>
<polygon fill="#191970" stroke="#191970" points="2174.973,-14.6218 2184.8663,-10.8308 2174.7681,-7.6248 2174.973,-14.6218"/>
</g>
<!-- Node10&#45;&gt;Node16 -->
<g id="edge17" class="edge">
<title>Node10&#45;&gt;Node16</title>
<path fill="none" stroke="#191970" d="M1003.8232,-58.1449C1008.6115,-57.4062 1013.3987,-56.6801 1018,-56 1118.4841,-41.1484 1236.1292,-25.423 1302.1704,-16.7465"/>
<polygon fill="#191970" stroke="#191970" points="1302.8562,-20.1866 1312.316,-15.4157 1301.9457,-13.246 1302.8562,-20.1866"/>
</g>
<!-- Node18&#45;&gt;Node2 -->
<g id="edge22" class="edge">
<title>Node18&#45;&gt;Node2</title>
<path fill="none" stroke="#191970" d="M952.9342,-112.4252C931.8152,-105.4578 906.7135,-94.0146 890,-76 878.1054,-63.1795 872.0055,-44.0057 868.9408,-29.623"/>
<polygon fill="#191970" stroke="#191970" points="872.3768,-28.955 867.1432,-19.743 865.4898,-30.2081 872.3768,-28.955"/>
</g>
<!-- Node18&#45;&gt;Node3 -->
<g id="edge21" class="edge">
<title>Node18&#45;&gt;Node3</title>
<path fill="none" stroke="#191970" d="M1030.0028,-112.4449C1063.4442,-103.94 1113.6771,-90.9315 1166.3733,-76.1048"/>
<polygon fill="#191970" stroke="#191970" points="1167.5674,-79.4045 1176.238,-73.3158 1165.6629,-72.6685 1167.5674,-79.4045"/>
</g>
<!-- Node18&#45;&gt;Node5 -->
<g id="edge19" class="edge">
<title>Node18&#45;&gt;Node5</title>
<path fill="none" stroke="#191970" d="M949.8846,-112.3381C930.5614,-105.5724 909.4452,-94.343 898,-76 885.9919,-56.7549 907.5643,-37.4294 927.5233,-24.7098"/>
<polygon fill="#191970" stroke="#191970" points="929.3945,-27.6687 936.164,-19.5186 925.7895,-21.6684 929.3945,-27.6687"/>
</g>
<!-- Node18&#45;&gt;Node8 -->
<g id="edge20" class="edge">
<title>Node18&#45;&gt;Node8</title>
<path fill="none" stroke="#191970" d="M1015.3792,-112.3733C1037.5045,-103.2629 1070.9134,-89.5062 1095.6019,-79.3404"/>
<polygon fill="#191970" stroke="#191970" points="1097.0117,-82.5451 1104.9258,-75.5011 1094.3464,-76.0723 1097.0117,-82.5451"/>
</g>
<!-- Node18&#45;&gt;Node16 -->
<g id="edge23" class="edge">
<title>Node18&#45;&gt;Node16</title>
<path fill="none" stroke="#191970" d="M1002.7356,-112.3726C1019.728,-97.7033 1054.449,-69.9874 1089,-56 1159.3453,-27.5219 1247.1802,-16.6629 1301.9448,-12.5296"/>
<polygon fill="#191970" stroke="#191970" points="1302.3794,-16.0077 1312.1077,-11.8113 1301.8858,-9.0251 1302.3794,-16.0077"/>
</g>
<!-- Node24&#45;&gt;Node3 -->
<g id="edge28" class="edge">
<title>Node24&#45;&gt;Node3</title>
<path fill="none" stroke="#191970" d="M939.7017,-224.3375C970.0986,-203.0529 1045.7355,-150.9228 1112,-112 1131.44,-100.5812 1153.9841,-88.8241 1171.3872,-80.0545"/>
<polygon fill="#191970" stroke="#191970" points="1173.0952,-83.1137 1180.4743,-75.511 1169.9647,-76.8527 1173.0952,-83.1137"/>
</g>
<!-- Node24&#45;&gt;Node4 -->
<g id="edge26" class="edge">
<title>Node24&#45;&gt;Node4</title>
<path fill="none" stroke="#191970" d="M867.7611,-225.0647C803.9763,-215.2786 701.625,-199.5753 632.8882,-189.0294"/>
<polygon fill="#191970" stroke="#191970" points="633.4144,-185.5693 622.9992,-187.5122 632.3528,-192.4883 633.4144,-185.5693"/>
</g>
<!-- Node24&#45;&gt;Node5 -->
<g id="edge27" class="edge">
<title>Node24&#45;&gt;Node5</title>
<path fill="none" stroke="#191970" d="M867.6906,-224.6523C791.0869,-209.688 670.9346,-175.3792 713,-112 737.3702,-75.2818 862.9325,-35.854 922.9612,-18.7471"/>
<polygon fill="#191970" stroke="#191970" points="924.0126,-22.0873 932.6891,-16.0071 922.1147,-15.3494 924.0126,-22.0873"/>
</g>
<!-- Node25&#45;&gt;Node4 -->
<g id="edge30" class="edge">
<title>Node25&#45;&gt;Node4</title>
<path fill="none" stroke="#191970" d="M403.0569,-336.4532C420.9744,-315.3994 465.7973,-263.7009 507,-224 517.7765,-213.6163 530.4893,-202.7259 540.8721,-194.1494"/>
<polygon fill="#191970" stroke="#191970" points="543.0881,-196.8586 548.6178,-187.8212 538.6593,-191.4377 543.0881,-196.8586"/>
</g>
<!-- Node25&#45;&gt;Node26 -->
<g id="edge31" class="edge">
<title>Node25&#45;&gt;Node26</title>
<path fill="none" stroke="#191970" d="M386.1165,-336.2455C378.8034,-328.2155 368.2609,-316.6394 359.5533,-307.0781"/>
<polygon fill="#191970" stroke="#191970" points="362.1028,-304.6795 352.7817,-299.6427 356.9273,-309.3928 362.1028,-304.6795"/>
</g>
<!-- Node26&#45;&gt;Node4 -->
<g id="edge32" class="edge">
<title>Node26&#45;&gt;Node4</title>
<path fill="none" stroke="#191970" d="M352.5826,-280.0724C365.4472,-265.7674 391.1059,-239.3904 418,-224 445.0135,-208.5413 477.9185,-197.4987 505.3511,-190.1144"/>
<polygon fill="#191970" stroke="#191970" points="506.3909,-193.4605 515.1892,-187.558 504.6304,-186.6855 506.3909,-193.4605"/>
</g>
<!-- Node26&#45;&gt;Node27 -->
<g id="edge33" class="edge">
<title>Node26&#45;&gt;Node27</title>
<path fill="none" stroke="#191970" d="M322.3398,-280.3733C302.0228,-271.3435 271.436,-257.7494 248.625,-247.6111"/>
<polygon fill="#191970" stroke="#191970" points="249.9372,-244.3642 239.3775,-243.5011 247.0941,-250.7609 249.9372,-244.3642"/>
</g>
<!-- Node27&#45;&gt;Node4 -->
<g id="edge35" class="edge">
<title>Node27&#45;&gt;Node4</title>
<path fill="none" stroke="#191970" d="M247.08,-226.9203C251.7233,-225.8814 256.4843,-224.87 261,-224 336.2007,-209.5123 422.7114,-196.6479 483.4503,-188.2334"/>
<polygon fill="#191970" stroke="#191970" points="484.2969,-191.65 493.7258,-186.8183 483.3418,-184.7154 484.2969,-191.65"/>
</g>
<!-- Node27&#45;&gt;Node5 -->
<g id="edge34" class="edge">
<title>Node27&#45;&gt;Node5</title>
<path fill="none" stroke="#191970" d="M247.1536,-227.9175C303.1342,-215.4634 428.5004,-183.7876 523,-132 570.1136,-106.1808 567.5982,-77.1136 617,-56 732.3735,-6.691 772.927,-38.6633 897,-20 905.3124,-18.7496 914.2718,-17.2702 922.6041,-15.8381"/>
<polygon fill="#191970" stroke="#191970" points="923.4782,-19.2385 932.7269,-14.0701 922.2738,-12.3429 923.4782,-19.2385"/>
</g>
<!-- Node28&#45;&gt;Node4 -->
<g id="edge38" class="edge">
<title>Node28&#45;&gt;Node4</title>
<path fill="none" stroke="#191970" d="M598.1616,-224.2455C591.838,-216.3761 582.7776,-205.101 575.1864,-195.6542"/>
<polygon fill="#191970" stroke="#191970" points="577.7408,-193.2454 568.7486,-187.6427 572.2842,-197.6302 577.7408,-193.2454"/>
</g>
<!-- Node29&#45;&gt;Node4 -->
<g id="edge40" class="edge">
<title>Node29&#45;&gt;Node4</title>
<path fill="none" stroke="#191970" d="M537.1759,-336.3695C523.6785,-328.6136 506.8843,-316.3161 499,-300 495.1325,-291.9966 497.2789,-288.7207 499,-280 504.2097,-253.6028 508.0175,-246.9878 522,-224 528.2844,-213.6682 536.8368,-203.2957 544.3314,-195.0223"/>
<polygon fill="#191970" stroke="#191970" points="547.0692,-197.2192 551.3503,-187.5278 541.96,-192.4342 547.0692,-197.2192"/>
</g>
<!-- Node29&#45;&gt;Node30 -->
<g id="edge41" class="edge">
<title>Node29&#45;&gt;Node30</title>
<path fill="none" stroke="#191970" d="M555.4323,-336.2455C554.2579,-328.9382 552.6116,-318.6944 551.1668,-309.7046"/>
<polygon fill="#191970" stroke="#191970" points="554.5922,-308.9606 549.5497,-299.6427 547.6809,-310.0714 554.5922,-308.9606"/>
</g>
<!-- Node30&#45;&gt;Node4 -->
<g id="edge42" class="edge">
<title>Node30&#45;&gt;Node4</title>
<path fill="none" stroke="#191970" d="M540.9014,-280.1398C532.5074,-267.2207 520.4532,-243.8717 527,-224 530.5056,-213.3594 537.5241,-203.164 544.2787,-195.0877"/>
<polygon fill="#191970" stroke="#191970" points="547.0014,-197.2937 551.0638,-187.5087 541.786,-192.6247 547.0014,-197.2937"/>
</g>
<!-- Node30&#45;&gt;Node27 -->
<g id="edge43" class="edge">
<title>Node30&#45;&gt;Node27</title>
<path fill="none" stroke="#191970" d="M507.8654,-283.1893C444.0829,-272.3656 320.3512,-251.3687 257.1755,-240.648"/>
<polygon fill="#191970" stroke="#191970" points="257.653,-237.179 247.2084,-238.9566 256.4818,-244.0804 257.653,-237.179"/>
</g>
<!-- Node31&#45;&gt;Node4 -->
<g id="edge45" class="edge">
<title>Node31&#45;&gt;Node4</title>
<path fill="none" stroke="#191970" d="M778.6201,-336.2914C765.5287,-313.5067 729.7747,-256.1116 685,-224 663.5307,-208.6026 636.3106,-197.7536 612.8464,-190.4748"/>
<polygon fill="#191970" stroke="#191970" points="613.6304,-187.0567 603.048,-187.571 611.6414,-193.7682 613.6304,-187.0567"/>
</g>
<!-- Node32&#45;&gt;Node4 -->
<g id="edge49" class="edge">
<title>Node32&#45;&gt;Node4</title>
<path fill="none" stroke="#191970" d="M132.4729,-280.3941C139.9734,-265.4902 156.5986,-237.1458 180,-224 230.3715,-195.7037 387.3558,-184.6348 483.382,-180.4382"/>
<polygon fill="#191970" stroke="#191970" points="483.7842,-183.9245 493.6279,-180.0064 483.4894,-176.9307 483.7842,-183.9245"/>
</g>
<!-- Node32&#45;&gt;Node27 -->
<g id="edge50" class="edge">
<title>Node32&#45;&gt;Node27</title>
<path fill="none" stroke="#191970" d="M143.6768,-280.2455C157.4856,-271.6534 177.8193,-259.0014 193.7292,-249.1018"/>
<polygon fill="#191970" stroke="#191970" points="195.8613,-251.8974 202.5028,-243.6427 192.1632,-245.954 195.8613,-251.8974"/>
</g>
<!-- Node37&#45;&gt;Node4 -->
<g id="edge53" class="edge">
<title>Node37&#45;&gt;Node4</title>
<path fill="none" stroke="#191970" d="M751.7229,-224.4369C712.5256,-214.8932 652.2,-200.2052 609.9165,-189.9101"/>
<polygon fill="#191970" stroke="#191970" points="610.6592,-186.4888 600.1151,-187.5237 609.0032,-193.2901 610.6592,-186.4888"/>
</g>
<!-- Node37&#45;&gt;Node5 -->
<g id="edge52" class="edge">
<title>Node37&#45;&gt;Node5</title>
<path fill="none" stroke="#191970" d="M765.1342,-224.4428C748.43,-216.9801 727.5463,-205.0015 715,-188 694.606,-160.3642 687.1818,-143.4438 701,-112 715.8068,-78.3068 729.4986,-73.2663 762,-56 789.6442,-41.314 875.3197,-24.2944 922.6904,-15.6575"/>
<polygon fill="#191970" stroke="#191970" points="923.5187,-19.0647 932.7393,-13.8463 922.2771,-12.1757 923.5187,-19.0647"/>
</g>
<!-- Node38&#45;&gt;Node2 -->
<g id="edge57" class="edge">
<title>Node38&#45;&gt;Node2</title>
<path fill="none" stroke="#191970" d="M1533.114,-280.1109C1535.5709,-267.1606 1538.9359,-243.7779 1536,-224 1528.0481,-170.4304 1522.1631,-154.0216 1488,-112 1475.9729,-97.2063 1440.6226,-63.2766 1423,-56 1320.2385,-13.5686 1034.3591,-33.4613 924,-20 915.6559,-18.9822 906.6852,-17.5859 898.3522,-16.1594"/>
<polygon fill="#191970" stroke="#191970" points="898.6912,-12.665 888.2333,-14.3627 897.4673,-19.5572 898.6912,-12.665"/>
</g>
<!-- Node38&#45;&gt;Node16 -->
<g id="edge73" class="edge">
<title>Node38&#45;&gt;Node16</title>
<path fill="none" stroke="#191970" d="M1540.3768,-280.3524C1572.6757,-245.9713 1674.1041,-127.6713 1614,-56 1587.9443,-24.9297 1473.7261,-14.8343 1405.6454,-11.5621"/>
<polygon fill="#191970" stroke="#191970" points="1405.69,-8.0607 1395.5436,-11.1102 1405.3771,-15.0537 1405.69,-8.0607"/>
</g>
<!-- Node38&#45;&gt;Node18 -->
<g id="edge58" class="edge">
<title>Node38&#45;&gt;Node18</title>
<path fill="none" stroke="#191970" d="M1496.2585,-280.4085C1433.4531,-262.9378 1296.9587,-224.3673 1183,-188 1128.6942,-170.6695 1066.3824,-148.7512 1028.1033,-135.0499"/>
<polygon fill="#191970" stroke="#191970" points="1029.0343,-131.6656 1018.4398,-131.5828 1026.6703,-138.2544 1029.0343,-131.6656"/>
</g>
<!-- Node39 -->
<g id="node26" class="node">
<title>Node39</title>
<g id="a_node26"><a xlink:href="point_8hxx.html" target="_top" xlink:title="basics/point.hxx">
<polygon fill="none" stroke="#000000" points="1318,-56.5 1318,-75.5 1414,-75.5 1414,-56.5 1318,-56.5"/>
<text text-anchor="middle" x="1366" y="-63.5" font-family="Helvetica,sans-Serif" font-size="10.00" fill="#000000">basics/point.hxx</text>
</a>
</g>
</g>
<!-- Node38&#45;&gt;Node39 -->
<g id="edge59" class="edge">
<title>Node38&#45;&gt;Node39</title>
<path fill="none" stroke="#191970" d="M1530.114,-280.1582C1526.9804,-250.8406 1513.9415,-162.9687 1467,-112 1452.8835,-96.6724 1432.6689,-86.0857 1414.0279,-78.9698"/>
<polygon fill="#191970" stroke="#191970" points="1415.0585,-75.6215 1404.4639,-75.5583 1412.7067,-82.2146 1415.0585,-75.6215"/>
</g>
<!-- Node38&#45;&gt;Node40 -->
<g id="edge60" class="edge">
<title>Node38&#45;&gt;Node40</title>
<path fill="none" stroke="#191970" d="M1511.0589,-280.3733C1492.5214,-271.4241 1464.6972,-257.9917 1443.7587,-247.8835"/>
<polygon fill="#191970" stroke="#191970" points="1445.2081,-244.6967 1434.6809,-243.5011 1442.1648,-251.0006 1445.2081,-244.6967"/>
</g>
<!-- Node40&#45;&gt;Node3 -->
<g id="edge61" class="edge">
<title>Node40&#45;&gt;Node3</title>
<path fill="none" stroke="#191970" d="M1385.9129,-227.7392C1359.9283,-221.0902 1321.785,-208.6354 1294,-188 1255.5509,-159.4446 1224.8882,-111.1235 1209.9387,-84.6752"/>
<polygon fill="#191970" stroke="#191970" points="1212.8842,-82.7682 1204.995,-75.6963 1206.7522,-86.1444 1212.8842,-82.7682"/>
</g>
<!-- Node41 -->
<g id="node28" class="node">
<title>Node41</title>
<polygon fill="none" stroke="#bfbfbf" points="1192,-168.5 1192,-187.5 1246,-187.5 1246,-168.5 1192,-168.5"/>
<text text-anchor="middle" x="1219" y="-175.5" font-family="Helvetica,sans-Serif" font-size="10.00" fill="#000000">random</text>
</g>
<!-- Node40&#45;&gt;Node41 -->
<g id="edge62" class="edge">
<title>Node40&#45;&gt;Node41</title>
<path fill="none" stroke="#191970" d="M1385.6568,-225.6162C1351.1013,-215.7432 1293.6589,-199.3311 1256.0598,-188.5885"/>
<polygon fill="#191970" stroke="#191970" points="1256.5935,-185.101 1246.0167,-185.7191 1254.6704,-191.8317 1256.5935,-185.101"/>
</g>
<!-- Node42 -->
<g id="node29" class="node">
<title>Node42</title>
<g id="a_node29"><a xlink:href="MapNode_8hxx.html" target="_top" xlink:title="GameObjects/MapNode.hxx">
<polygon fill="none" stroke="#ff0000" points="1306,-112.5 1306,-131.5 1458,-131.5 1458,-112.5 1306,-112.5"/>
<text text-anchor="middle" x="1382" y="-119.5" font-family="Helvetica,sans-Serif" font-size="10.00" fill="#000000">GameObjects/MapNode.hxx</text>
</a>
</g>
</g>
<!-- Node40&#45;&gt;Node42 -->
<g id="edge63" class="edge">
<title>Node40&#45;&gt;Node42</title>
<path fill="none" stroke="#191970" d="M1428.1499,-224.3059C1443.737,-211.5665 1466.264,-188.4116 1455,-168 1447.1036,-153.6908 1432.6789,-143.2233 1418.7246,-135.9219"/>
<polygon fill="#191970" stroke="#191970" points="1420.224,-132.7593 1409.6959,-131.5725 1417.186,-139.0657 1420.224,-132.7593"/>
</g>
<!-- Node44 -->
<g id="node31" class="node">
<title>Node44</title>
<g id="a_node31"><a xlink:href="TerrainGenerator_8hxx.html" target="_top" xlink:title="map/TerrainGenerator.hxx">
<polygon fill="none" stroke="#ff0000" points="1302.5,-168.5 1302.5,-187.5 1445.5,-187.5 1445.5,-168.5 1302.5,-168.5"/>
<text text-anchor="middle" x="1374" y="-175.5" font-family="Helvetica,sans-Serif" font-size="10.00" fill="#000000">map/TerrainGenerator.hxx</text>
</a>
</g>
</g>
<!-- Node40&#45;&gt;Node44 -->
<g id="edge70" class="edge">
<title>Node40&#45;&gt;Node44</title>
<path fill="none" stroke="#191970" d="M1407.8583,-224.2455C1402.1556,-216.4564 1394.01,-205.3308 1387.1375,-195.9439"/>
<polygon fill="#191970" stroke="#191970" points="1389.7913,-193.6437 1381.0598,-187.6427 1384.1432,-197.7789 1389.7913,-193.6437"/>
</g>
<!-- Node42&#45;&gt;Node2 -->
<g id="edge64" class="edge">
<title>Node42&#45;&gt;Node2</title>
<path fill="none" stroke="#191970" d="M1354.2496,-112.4798C1330.3897,-103.9464 1295.2956,-90.5582 1266,-76 1250.6418,-68.3679 1249.2223,-61.5642 1233,-56 1102.217,-11.1418 1060.8439,-39.7533 924,-20 915.6803,-18.7991 906.7183,-17.3373 898.3859,-15.9064"/>
<polygon fill="#191970" stroke="#191970" points="898.7181,-12.4113 888.2639,-14.1323 897.5095,-19.3062 898.7181,-12.4113"/>
</g>
<!-- Node42&#45;&gt;Node3 -->
<g id="edge67" class="edge">
<title>Node42&#45;&gt;Node3</title>
<path fill="none" stroke="#191970" d="M1350.7131,-112.3733C1318.0156,-102.3125 1266.9031,-86.5856 1233.428,-76.2855"/>
<polygon fill="#191970" stroke="#191970" points="1234.2324,-72.8712 1223.6453,-73.2755 1232.1738,-79.5616 1234.2324,-72.8712"/>
</g>
<!-- Node42&#45;&gt;Node5 -->
<g id="edge65" class="edge">
<title>Node42&#45;&gt;Node5</title>
<path fill="none" stroke="#191970" d="M1366.5758,-112.2708C1340.062,-95.7102 1286.6999,-63.138 1266,-56 1168.3236,-22.3177 1045.0497,-13.296 987.443,-10.8813"/>
<polygon fill="#191970" stroke="#191970" points="987.2728,-7.3725 977.1476,-10.492 987.0081,-14.3675 987.2728,-7.3725"/>
</g>
<!-- Node42&#45;&gt;Node10 -->
<g id="edge69" class="edge">
<title>Node42&#45;&gt;Node10</title>
<path fill="none" stroke="#191970" d="M1309.0813,-112.4369C1225.6476,-101.4948 1090.6515,-83.7904 1013.6932,-73.6975"/>
<polygon fill="#191970" stroke="#191970" points="1014.0585,-70.2155 1003.6883,-72.3853 1013.1482,-77.1561 1014.0585,-70.2155"/>
</g>
<!-- Node42&#45;&gt;Node39 -->
<g id="edge68" class="edge">
<title>Node42&#45;&gt;Node39</title>
<path fill="none" stroke="#191970" d="M1379.213,-112.2455C1377.1023,-104.8579 1374.134,-94.4689 1371.5453,-85.4087"/>
<polygon fill="#191970" stroke="#191970" points="1374.8677,-84.2964 1368.755,-75.6427 1368.137,-86.2195 1374.8677,-84.2964"/>
</g>
<!-- Node23 -->
<g id="node30" class="node">
<title>Node23</title>
<polygon fill="none" stroke="#bfbfbf" points="1508,-56.5 1508,-75.5 1572,-75.5 1572,-56.5 1508,-56.5"/>
<text text-anchor="middle" x="1540" y="-63.5" font-family="Helvetica,sans-Serif" font-size="10.00" fill="#000000">algorithm</text>
</g>
<!-- Node42&#45;&gt;Node23 -->
<g id="edge66" class="edge">
<title>Node42&#45;&gt;Node23</title>
<path fill="none" stroke="#191970" d="M1409.1612,-112.3733C1435.2067,-103.1419 1474.7116,-89.1402 1503.4979,-78.9375"/>
<polygon fill="#191970" stroke="#191970" points="1504.937,-82.1408 1513.1933,-75.5011 1502.5985,-75.5429 1504.937,-82.1408"/>
</g>
<!-- Node44&#45;&gt;Node3 -->
<g id="edge72" class="edge">
<title>Node44&#45;&gt;Node3</title>
<path fill="none" stroke="#191970" d="M1357.3054,-168.4083C1341.5914,-159.2905 1317.4779,-145.0675 1297,-132 1270.7933,-115.2768 1241.3569,-95.0347 1221.8569,-81.4138"/>
<polygon fill="#191970" stroke="#191970" points="1223.8418,-78.5309 1213.6439,-75.6579 1219.8243,-84.2633 1223.8418,-78.5309"/>
</g>
<!-- Node44&#45;&gt;Node42 -->
<g id="edge71" class="edge">
<title>Node44&#45;&gt;Node42</title>
<path fill="none" stroke="#191970" d="M1375.3935,-168.2455C1376.4374,-160.9382 1377.9008,-150.6944 1379.1851,-141.7046"/>
<polygon fill="#191970" stroke="#191970" points="1382.673,-142.0372 1380.6225,-131.6427 1375.7434,-141.0472 1382.673,-142.0372"/>
</g>
<!-- Node46&#45;&gt;Node5 -->
<g id="edge77" class="edge">
<title>Node46&#45;&gt;Node5</title>
<path fill="none" stroke="#191970" d="M2304.3551,-168.1011C2304.2897,-153.3318 2301.755,-125.7915 2285,-112 2233.2071,-69.3678 1185.3491,-20.3375 987.1825,-11.4263"/>
<polygon fill="#191970" stroke="#191970" points="987.2655,-7.9266 977.1188,-10.9754 986.9521,-14.9195 987.2655,-7.9266"/>
</g>
<!-- Node46&#45;&gt;Node16 -->
<g id="edge78" class="edge">
<title>Node46&#45;&gt;Node16</title>
<path fill="none" stroke="#191970" d="M2359.5161,-172.8123C2412.0234,-166.6211 2485.3437,-154.2032 2503,-132 2508.5325,-125.0427 2508.0272,-119.3307 2503,-112 2463.9287,-55.0265 2425.6063,-70.21 2358,-56 2173.4171,-17.2029 1584.5547,-11.1278 1405.8877,-10.1766"/>
<polygon fill="#191970" stroke="#191970" points="1405.7226,-6.6758 1395.7052,-10.1256 1405.6875,-13.6757 1405.7226,-6.6758"/>
</g>
<!-- Node47 -->
<g id="node33" class="node">
<title>Node47</title>
<g id="a_node33"><a xlink:href="Meta_8hxx.html" target="_top" xlink:title="../../util/Meta.hxx">
<polygon fill="none" stroke="#ff0000" points="2178,-112.5 2178,-131.5 2276,-131.5 2276,-112.5 2178,-112.5"/>
<text text-anchor="middle" x="2227" y="-119.5" font-family="Helvetica,sans-Serif" font-size="10.00" fill="#000000">../../util/Meta.hxx</text>
</a>
</g>
</g>
<!-- Node46&#45;&gt;Node47 -->
<g id="edge79" class="edge">
<title>Node46&#45;&gt;Node47</title>
<path fill="none" stroke="#191970" d="M2290.5876,-168.2455C2278.9943,-159.814 2262.0252,-147.4729 2248.5322,-137.6598"/>
<polygon fill="#191970" stroke="#191970" points="2250.4047,-134.6938 2240.2587,-131.6427 2246.2874,-140.355 2250.4047,-134.6938"/>
</g>
<!-- Node51 -->
<g id="node34" class="node">
<title>Node51</title>
<polygon fill="none" stroke="#bfbfbf" points="2332.5,-112.5 2332.5,-131.5 2385.5,-131.5 2385.5,-112.5 2332.5,-112.5"/>
<text text-anchor="middle" x="2359" y="-119.5" font-family="Helvetica,sans-Serif" font-size="10.00" fill="#000000">cstddef</text>
</g>
<!-- Node46&#45;&gt;Node51 -->
<g id="edge81" class="edge">
<title>Node46&#45;&gt;Node51</title>
<path fill="none" stroke="#191970" d="M2313.5803,-168.2455C2321.5458,-160.1352 2333.0641,-148.4075 2342.5079,-138.7919"/>
<polygon fill="#191970" stroke="#191970" points="2345.0195,-141.2297 2349.5295,-131.6427 2340.0253,-136.3247 2345.0195,-141.2297"/>
</g>
<!-- Node47&#45;&gt;Node8 -->
<g id="edge80" class="edge">
<title>Node47&#45;&gt;Node8</title>
<path fill="none" stroke="#191970" d="M2177.7238,-116.2326C2162.738,-114.6498 2146.2108,-113.0753 2131,-112 1703.7674,-81.7962 1592.0381,-136.2633 1168,-76 1167.8981,-75.9855 1167.7961,-75.9709 1167.694,-75.9561"/>
<polygon fill="#191970" stroke="#191970" points="1168.4705,-72.5397 1158.0085,-74.2121 1167.23,-79.4289 1168.4705,-72.5397"/>
</g>
<!-- Node52&#45;&gt;Node5 -->
<g id="edge84" class="edge">
<title>Node52&#45;&gt;Node5</title>
<path fill="none" stroke="#191970" d="M1702.1479,-392.4446C1694.3366,-383.5778 1683.1164,-369.7178 1676,-356 1611.5962,-231.8523 1690.7341,-142.7117 1581,-56 1557.478,-37.413 1111.724,-16.7862 987.1163,-11.3646"/>
<polygon fill="#191970" stroke="#191970" points="987.1996,-7.865 977.0577,-10.9297 986.8972,-14.8585 987.1996,-7.865"/>
</g>
<!-- Node53 -->
<g id="node36" class="node">
<title>Node53</title>
<polygon fill="none" stroke="#bfbfbf" points="1684.5,-336.5 1684.5,-355.5 1737.5,-355.5 1737.5,-336.5 1684.5,-336.5"/>
<text text-anchor="middle" x="1711" y="-343.5" font-family="Helvetica,sans-Serif" font-size="10.00" fill="#000000">iterator</text>
</g>
<!-- Node52&#45;&gt;Node53 -->
<g id="edge83" class="edge">
<title>Node52&#45;&gt;Node53</title>
<path fill="none" stroke="#191970" d="M1711,-392.2455C1711,-384.9382 1711,-374.6944 1711,-365.7046"/>
<polygon fill="#191970" stroke="#191970" points="1714.5001,-365.6426 1711,-355.6427 1707.5001,-365.6427 1714.5001,-365.6426"/>
</g>
<!-- Node54&#45;&gt;Node2 -->
<g id="edge94" class="edge">
<title>Node54&#45;&gt;Node2</title>
<path fill="none" stroke="#191970" d="M1869.9018,-173.5423C1825.3732,-166.4379 1737.8251,-151.3523 1665,-132 1589.7488,-112.003 1571.2981,-104.9067 1499,-76 1479.4292,-68.1751 1476.4143,-61.2444 1456,-56 1226.4679,2.9662 1159.3049,-48.1702 924,-20 915.6537,-19.0008 906.6821,-17.6111 898.3491,-16.1851"/>
<polygon fill="#191970" stroke="#191970" points="898.6887,-12.6907 888.2304,-14.3861 897.4633,-19.5826 898.6887,-12.6907"/>
</g>
<!-- Node54&#45;&gt;Node5 -->
<g id="edge86" class="edge">
<title>Node54&#45;&gt;Node5</title>
<path fill="none" stroke="#191970" d="M1869.9723,-176.2541C1828.8445,-172.75 1752.2514,-162.3662 1695,-132 1651.3893,-108.8689 1659.2419,-75.7511 1614,-56 1556.2318,-30.7804 1111.6899,-14.9524 987.268,-10.9844"/>
<polygon fill="#191970" stroke="#191970" points="987.3275,-7.4846 977.2222,-10.6677 987.1069,-14.4812 987.3275,-7.4846"/>
</g>
<!-- Node54&#45;&gt;Node8 -->
<g id="edge89" class="edge">
<title>Node54&#45;&gt;Node8</title>
<path fill="none" stroke="#191970" d="M1869.7891,-176.912C1764.9726,-172.8302 1408.135,-157.3531 1297,-132 1245.5714,-120.2676 1189.1067,-95.641 1156.2035,-80.011"/>
<polygon fill="#191970" stroke="#191970" points="1157.7046,-76.8492 1147.1759,-75.6665 1154.669,-83.1568 1157.7046,-76.8492"/>
</g>
<!-- Node54&#45;&gt;Node23 -->
<g id="edge95" class="edge">
<title>Node54&#45;&gt;Node23</title>
<path fill="none" stroke="#191970" d="M1928.3471,-176.6543C1984.9032,-173.3808 2105.6575,-162.8606 2131,-132 2136.6412,-125.1305 2137.0366,-118.5247 2131,-112 2112.3718,-91.8656 1714.7727,-73.3594 1582.4251,-67.7372"/>
<polygon fill="#191970" stroke="#191970" points="1582.4076,-64.2335 1572.2691,-67.309 1582.1127,-71.2272 1582.4076,-64.2335"/>
</g>
<!-- Node54&#45;&gt;Node47 -->
<g id="edge97" class="edge">
<title>Node54&#45;&gt;Node47</title>
<path fill="none" stroke="#191970" d="M1928.1078,-173.0304C1981.7552,-163.8711 2097.1915,-144.1624 2167.8685,-132.0956"/>
<polygon fill="#191970" stroke="#191970" points="2168.6905,-135.506 2177.9588,-130.3729 2167.5124,-128.6059 2168.6905,-135.506"/>
</g>
<!-- Node54&#45;&gt;Node55 -->
<g id="edge87" class="edge">
<title>Node54&#45;&gt;Node55</title>
<path fill="none" stroke="#191970" d="M1928.2583,-176.1326C2015.6421,-170.4778 2282.3299,-152.6562 2503,-132 2514.9841,-130.8782 2527.85,-129.533 2539.9983,-128.1983"/>
<polygon fill="#191970" stroke="#191970" points="2540.4477,-131.6699 2549.999,-127.0847 2539.673,-124.7129 2540.4477,-131.6699"/>
</g>
<!-- Node35 -->
<g id="node40" class="node">
<title>Node35</title>
<polygon fill="none" stroke="#bfbfbf" points="1704,-112.5 1704,-131.5 1754,-131.5 1754,-112.5 1704,-112.5"/>
<text text-anchor="middle" x="1729" y="-119.5" font-family="Helvetica,sans-Serif" font-size="10.00" fill="#000000">chrono</text>
</g>
<!-- Node54&#45;&gt;Node35 -->
<g id="edge90" class="edge">
<title>Node54&#45;&gt;Node35</title>
<path fill="none" stroke="#191970" d="M1869.776,-168.3733C1840.3939,-158.6945 1795.0924,-143.7716 1763.8548,-133.4816"/>
<polygon fill="#191970" stroke="#191970" points="1764.838,-130.1205 1754.245,-130.316 1762.6478,-136.7691 1764.838,-130.1205"/>
</g>
<!-- Node34 -->
<g id="node41" class="node">
<title>Node34</title>
<polygon fill="none" stroke="#bfbfbf" points="1772,-112.5 1772,-131.5 1816,-131.5 1816,-112.5 1772,-112.5"/>
<text text-anchor="middle" x="1794" y="-119.5" font-family="Helvetica,sans-Serif" font-size="10.00" fill="#000000">ctime</text>
</g>
<!-- Node54&#45;&gt;Node34 -->
<g id="edge91" class="edge">
<title>Node54&#45;&gt;Node34</title>
<path fill="none" stroke="#191970" d="M1880.7104,-168.2455C1864.2238,-159.4527 1839.7648,-146.4079 1821.0235,-136.4125"/>
<polygon fill="#191970" stroke="#191970" points="1822.5506,-133.2604 1812.08,-131.6427 1819.2565,-139.4368 1822.5506,-133.2604"/>
</g>
<!-- Node58 -->
<g id="node42" class="node">
<title>Node58</title>
<polygon fill="none" stroke="#bfbfbf" points="1834.5,-112.5 1834.5,-131.5 1889.5,-131.5 1889.5,-112.5 1834.5,-112.5"/>
<text text-anchor="middle" x="1862" y="-119.5" font-family="Helvetica,sans-Serif" font-size="10.00" fill="#000000">fstream</text>
</g>
<!-- Node54&#45;&gt;Node58 -->
<g id="edge92" class="edge">
<title>Node54&#45;&gt;Node58</title>
<path fill="none" stroke="#191970" d="M1892.5551,-168.2455C1887.4618,-160.5367 1880.2092,-149.5598 1874.048,-140.2348"/>
<polygon fill="#191970" stroke="#191970" points="1876.8038,-138.0566 1868.3711,-131.6427 1870.9635,-141.9155 1876.8038,-138.0566"/>
</g>
<!-- Node59 -->
<g id="node43" class="node">
<title>Node59</title>
<polygon fill="none" stroke="#bfbfbf" points="1908,-112.5 1908,-131.5 1964,-131.5 1964,-112.5 1908,-112.5"/>
<text text-anchor="middle" x="1936" y="-119.5" font-family="Helvetica,sans-Serif" font-size="10.00" fill="#000000">sstream</text>
</g>
<!-- Node54&#45;&gt;Node59 -->
<g id="edge93" class="edge">
<title>Node54&#45;&gt;Node59</title>
<path fill="none" stroke="#191970" d="M1905.4449,-168.2455C1910.5382,-160.5367 1917.7908,-149.5598 1923.952,-140.2348"/>
<polygon fill="#191970" stroke="#191970" points="1927.0365,-141.9155 1929.6289,-131.6427 1921.1962,-138.0566 1927.0365,-141.9155"/>
</g>
<!-- Node60 -->
<g id="node44" class="node">
<title>Node60</title>
<polygon fill="none" stroke="#bfbfbf" points="1982,-112.5 1982,-131.5 2030,-131.5 2030,-112.5 1982,-112.5"/>
<text text-anchor="middle" x="2006" y="-119.5" font-family="Helvetica,sans-Serif" font-size="10.00" fill="#000000">mutex</text>
</g>
<!-- Node54&#45;&gt;Node60 -->
<g id="edge96" class="edge">
<title>Node54&#45;&gt;Node60</title>
<path fill="none" stroke="#191970" d="M1917.638,-168.2455C1934.4386,-159.4527 1959.3634,-146.4079 1978.4618,-136.4125"/>
<polygon fill="#191970" stroke="#191970" points="1980.3386,-139.3807 1987.5756,-131.6427 1977.0927,-133.1787 1980.3386,-139.3807"/>
</g>
<!-- Node61 -->
<g id="node45" class="node">
<title>Node61</title>
<g id="a_node45"><a xlink:href="LOG_8inl_8hxx.html" target="_top" xlink:title="LOG.inl.hxx">
<polygon fill="none" stroke="#000000" points="2048.5,-112.5 2048.5,-131.5 2121.5,-131.5 2121.5,-112.5 2048.5,-112.5"/>
<text text-anchor="middle" x="2085" y="-119.5" font-family="Helvetica,sans-Serif" font-size="10.00" fill="#000000">LOG.inl.hxx</text>
</a>
</g>
</g>
<!-- Node54&#45;&gt;Node61 -->
<g id="edge98" class="edge">
<title>Node54&#45;&gt;Node61</title>
<path fill="none" stroke="#191970" d="M1928.0625,-169.25C1959.0293,-159.9267 2008.327,-145.0843 2043.4023,-134.5241"/>
<polygon fill="#191970" stroke="#191970" points="2044.7759,-137.7657 2053.3423,-131.5314 2042.7578,-131.0629 2044.7759,-137.7657"/>
</g>
<!-- Node56 -->
<g id="node39" class="node">
<title>Node56</title>
<polygon fill="none" stroke="#bfbfbf" points="2492.5,-56.5 2492.5,-75.5 2557.5,-75.5 2557.5,-56.5 2492.5,-56.5"/>
<text text-anchor="middle" x="2525" y="-63.5" font-family="Helvetica,sans-Serif" font-size="10.00" fill="#000000">stdexcept</text>
</g>
<!-- Node55&#45;&gt;Node56 -->
<g id="edge88" class="edge">
<title>Node55&#45;&gt;Node56</title>
<path fill="none" stroke="#191970" d="M2581.1553,-112.2455C2571.112,-103.9746 2556.5005,-91.9416 2544.6996,-82.2232"/>
<polygon fill="#191970" stroke="#191970" points="2546.6533,-79.298 2536.709,-75.6427 2542.2033,-84.7015 2546.6533,-79.298"/>
</g>
<!-- Node62&#45;&gt;Node5 -->
<g id="edge101" class="edge">
<title>Node62&#45;&gt;Node5</title>
<path fill="none" stroke="#191970" d="M2575.7043,-57.0098C2572.7648,-56.6265 2569.8469,-56.2845 2567,-56 2008.2226,-.1522 1865.3321,-36.042 1304,-20 1187.3966,-16.6677 1048.8798,-12.6943 987.2899,-10.9268"/>
<polygon fill="#191970" stroke="#191970" points="987.1458,-7.4213 977.0494,-10.6329 986.9449,-14.4185 987.1458,-7.4213"/>
</g>
<!-- Node62&#45;&gt;Node16 -->
<g id="edge102" class="edge">
<title>Node62&#45;&gt;Node16</title>
<path fill="none" stroke="#191970" d="M2575.701,-57.0417C2572.7624,-56.6503 2569.8455,-56.2979 2567,-56 2336.5218,-31.869 1606.8151,-15.2499 1405.7406,-11.0453"/>
<polygon fill="#191970" stroke="#191970" points="1405.8078,-7.546 1395.7371,-10.8373 1405.6622,-14.5445 1405.8078,-7.546"/>
</g>
<!-- Node63&#45;&gt;Node3 -->
<g id="edge104" class="edge">
<title>Node63&#45;&gt;Node3</title>
<path fill="none" stroke="#191970" d="M1213.5145,-280.4336C1205.4705,-262.6902 1188.8831,-223.2715 1183,-188 1176.9589,-151.7813 1186.6691,-109.2647 1193.719,-85.1917"/>
<polygon fill="#191970" stroke="#191970" points="1197.0999,-86.1053 1196.7048,-75.5178 1190.4112,-84.0408 1197.0999,-86.1053"/>
</g>
<!-- Node64&#45;&gt;Node3 -->
<g id="edge107" class="edge">
<title>Node64&#45;&gt;Node3</title>
<path fill="none" stroke="#191970" d="M2403.9933,-113.1436C2400.957,-112.7073 2397.9384,-112.319 2395,-112 1914.8884,-59.8852 1790.9945,-106.073 1309,-76 1283.7364,-74.4237 1255.253,-71.7804 1233.7402,-69.6073"/>
<polygon fill="#191970" stroke="#191970" points="1234.0892,-66.1248 1223.784,-68.5849 1233.3741,-73.0882 1234.0892,-66.1248"/>
</g>
<!-- Node64&#45;&gt;Node5 -->
<g id="edge106" class="edge">
<title>Node64&#45;&gt;Node5</title>
<path fill="none" stroke="#191970" d="M2434.8931,-112.2779C2411.7315,-96.9382 2363.6458,-67.6658 2318,-56 2301.3444,-51.7433 1192.1944,-17.3223 987.3413,-10.9968"/>
<polygon fill="#191970" stroke="#191970" points="987.3284,-7.4949 977.2251,-10.6846 987.1124,-14.4915 987.3284,-7.4949"/>
</g>
</g>
</svg>
