<?xml version="1.0" encoding="UTF-8" standalone="no"?>
<!DOCTYPE svg PUBLIC "-//W3C//DTD SVG 1.1//EN"
 "http://www.w3.org/Graphics/SVG/1.1/DTD/svg11.dtd">
<!-- Generated by graphviz version 2.40.1 (20161225.0304)
 -->
<!-- Title: BETTER_ENUM Pages: 1 -->
<svg width="924pt" height="286pt"
 viewBox="0.00 0.00 924.00 286.00" xmlns="http://www.w3.org/2000/svg" xmlns:xlink="http://www.w3.org/1999/xlink">
<g id="graph0" class="graph" transform="scale(1 1) rotate(0) translate(4 282)">
<title>BETTER_ENUM</title>
<!-- Node0 -->
<g id="node1" class="node">
<title>Node0</title>
<polygon fill="#bfbfbf" stroke="#000000" points="0,-86.5 0,-105.5 89,-105.5 89,-86.5 0,-86.5"/>
<text text-anchor="middle" x="44.5" y="-93.5" font-family="Helvetica,sans-Serif" font-size="10.00" fill="#000000">BETTER_ENUM</text>
</g>
<!-- Node1 -->
<g id="node2" class="node">
<title>Node1</title>
<g id="a_node2"><a xlink:href="namespacefs.html#ac2d9a48234828392a1f6a6dfce785830" target="_top" xlink:title="Read contents from a file as string. ">
<polygon fill="none" stroke="#000000" points="139.5,-173.5 139.5,-192.5 249.5,-192.5 249.5,-173.5 139.5,-173.5"/>
<text text-anchor="middle" x="194.5" y="-180.5" font-family="Helvetica,sans-Serif" font-size="10.00" fill="#000000">fs::readFileAsString</text>
</a>
</g>
</g>
<!-- Node0&#45;&gt;Node1 -->
<g id="edge1" class="edge">
<title>Node0&#45;&gt;Node1</title>
<path fill="none" stroke="#191970" d="M53.4032,-105.876C67.2756,-120.6711 95.5304,-148.5024 125,-164 129.3385,-166.2816 133.9773,-168.3098 138.7228,-170.1089"/>
<polygon fill="#191970" stroke="#191970" points="137.9568,-173.5465 148.5515,-173.4875 140.2324,-166.9267 137.9568,-173.5465"/>
</g>
<!-- Node2 -->
<g id="node3" class="node">
<title>Node2</title>
<g id="a_node3"><a xlink:href="classSingleton.html#af5cb1e5749949e2b68416cfb8d378044" target="_top" xlink:title="Get an instance of the singleton. ">
<polygon fill="none" stroke="#000000" points="529,-95 529,-125 642,-125 642,-95 529,-95"/>
<text text-anchor="start" x="537" y="-113" font-family="Helvetica,sans-Serif" font-size="10.00" fill="#000000">Singleton&lt; Settings</text>
<text text-anchor="middle" x="585.5" y="-102" font-family="Helvetica,sans-Serif" font-size="10.00" fill="#000000"> &gt;::instance</text>
</a>
</g>
</g>
<!-- Node0&#45;&gt;Node2 -->
<g id="edge2" class="edge">
<title>Node0&#45;&gt;Node2</title>
<path fill="none" stroke="#191970" d="M86.8127,-86.468C162.8666,-70.7971 327.4742,-43.5536 464,-67 491.2078,-71.6726 520.4105,-81.8286 543.366,-91.0975"/>
<polygon fill="#191970" stroke="#191970" points="542.2189,-94.4105 552.7975,-94.997 544.8936,-87.9416 542.2189,-94.4105"/>
</g>
<!-- Node3 -->
<g id="node4" class="node">
<title>Node3</title>
<g id="a_node4"><a xlink:href="structStrongType.html#acc66e6d6b9c95193a97a839560499933" target="_top" xlink:title="StrongType::get">
<polygon fill="none" stroke="#000000" points="148.5,-.5 148.5,-19.5 240.5,-19.5 240.5,-.5 148.5,-.5"/>
<text text-anchor="middle" x="194.5" y="-7.5" font-family="Helvetica,sans-Serif" font-size="10.00" fill="#000000">StrongType::get</text>
</a>
</g>
</g>
<!-- Node0&#45;&gt;Node3 -->
<g id="edge3" class="edge">
<title>Node0&#45;&gt;Node3</title>
<path fill="none" stroke="#191970" d="M54.6678,-86.3897C69.2385,-73.0537 97.3602,-48.8993 125,-34 132.8375,-29.7752 141.5635,-26.0709 150.112,-22.9172"/>
<polygon fill="#191970" stroke="#191970" points="151.3449,-26.194 159.6314,-19.592 149.0365,-19.5855 151.3449,-26.194"/>
</g>
<!-- Node4 -->
<g id="node5" class="node">
<title>Node4</title>
<g id="a_node5"><a xlink:href="classLayout.html#afa734c5af10f59f3dadb066054fe81ab" target="_top" xlink:title="Arrange the layout elements. ">
<polygon fill="none" stroke="#000000" points="125,-135.5 125,-154.5 264,-154.5 264,-135.5 125,-135.5"/>
<text text-anchor="middle" x="194.5" y="-142.5" font-family="Helvetica,sans-Serif" font-size="10.00" fill="#000000">Layout::arrangeElements</text>
</a>
</g>
</g>
<!-- Node0&#45;&gt;Node4 -->
<g id="edge4" class="edge">
<title>Node0&#45;&gt;Node4</title>
<path fill="none" stroke="#191970" d="M73.7776,-105.564C97.1107,-113.1861 129.9912,-123.9271 155.5462,-132.2751"/>
<polygon fill="#191970" stroke="#191970" points="154.7037,-135.6818 165.2962,-135.4601 156.8774,-129.0279 154.7037,-135.6818"/>
</g>
<!-- Node4&#45;&gt;Node2 -->
<g id="edge5" class="edge">
<title>Node4&#45;&gt;Node2</title>
<path fill="none" stroke="#191970" d="M247.232,-135.4912C317.5533,-126.7365 442.062,-115.4451 518.8213,-110.7418"/>
<polygon fill="#191970" stroke="#191970" points="519.086,-114.2323 528.8623,-110.1489 518.6734,-107.2445 519.086,-114.2323"/>
</g>
<!-- Node4&#45;&gt;Node2 -->
<g id="edge8" class="edge">
<title>Node4&#45;&gt;Node2</title>
<path fill="none" stroke="#191970" d="M264.403,-144.0586C336.4237,-139.5523 447.881,-129.5465 518.7311,-121.2062"/>
<polygon fill="#191970" stroke="#191970" points="519.3684,-124.655 528.8803,-119.9886 518.5345,-117.7048 519.3684,-124.655"/>
</g>
<!-- Node5 -->
<g id="node6" class="node">
<title>Node5</title>
<g id="a_node6"><a xlink:href="classLayout.html#a79480df6d9dd2d32b23468c05c6ac944" target="_top" xlink:title="Calculates height and width of layout groups. ">
<polygon fill="none" stroke="#000000" points="301,-77 301,-107 463,-107 463,-77 301,-77"/>
<text text-anchor="start" x="309" y="-95" font-family="Helvetica,sans-Serif" font-size="10.00" fill="#000000">Layout::calculateLayoutGroup</text>
<text text-anchor="middle" x="382" y="-84" font-family="Helvetica,sans-Serif" font-size="10.00" fill="#000000">Dimensions</text>
</a>
</g>
</g>
<!-- Node4&#45;&gt;Node5 -->
<g id="edge6" class="edge">
<title>Node4&#45;&gt;Node5</title>
<path fill="none" stroke="#191970" d="M228.4548,-135.4021C253.6897,-128.269 288.8449,-118.3319 319.1498,-109.7657"/>
<polygon fill="#191970" stroke="#191970" points="320.129,-113.1261 328.7999,-107.0379 318.2249,-106.39 320.129,-113.1261"/>
</g>
<!-- Node6 -->
<g id="node7" class="node">
<title>Node6</title>
<g id="a_node7"><a xlink:href="classUIManager.html#a0d32c5b63c4110ff8e43ab06c1c7d761" target="_top" xlink:title="Get the Layoutgroup container Returns the container, that holds LayoutGroups. ">
<polygon fill="none" stroke="#000000" points="500,-258.5 500,-277.5 671,-277.5 671,-258.5 500,-258.5"/>
<text text-anchor="middle" x="585.5" y="-265.5" font-family="Helvetica,sans-Serif" font-size="10.00" fill="#000000">UIManager::getAllLayoutGroups</text>
</a>
</g>
</g>
<!-- Node4&#45;&gt;Node6 -->
<g id="edge9" class="edge">
<title>Node4&#45;&gt;Node6</title>
<path fill="none" stroke="#191970" d="M244.8344,-154.5127C251.5918,-156.9831 258.1872,-160.0911 264,-164 285.8346,-178.6832 277.6663,-197.0877 300,-211 356.7771,-246.3682 431.1518,-260.4015 489.7554,-265.7065"/>
<polygon fill="#191970" stroke="#191970" points="489.5048,-269.1977 499.7614,-266.542 490.0874,-262.222 489.5048,-269.1977"/>
</g>
<!-- Node7 -->
<g id="node8" class="node">
<title>Node7</title>
<g id="a_node8"><a xlink:href="classLayout.html#a99004e4afcea6a945e3890b19cce6236" target="_top" xlink:title="Arrange Elements that are aligned to a parent This is a seperate function, so it can recurse if a par...">
<polygon fill="none" stroke="#000000" points="300,-182.5 300,-201.5 464,-201.5 464,-182.5 300,-182.5"/>
<text text-anchor="middle" x="382" y="-189.5" font-family="Helvetica,sans-Serif" font-size="10.00" fill="#000000">Layout::arrangeChildElements</text>
</a>
</g>
</g>
<!-- Node4&#45;&gt;Node7 -->
<g id="edge10" class="edge">
<title>Node4&#45;&gt;Node7</title>
<path fill="none" stroke="#191970" d="M232.4434,-154.5112C261.7005,-161.8449 302.3584,-172.0365 333.898,-179.9424"/>
<polygon fill="#191970" stroke="#191970" points="333.2408,-183.3859 343.7917,-182.4224 334.9428,-176.596 333.2408,-183.3859"/>
</g>
<!-- Node5&#45;&gt;Node2 -->
<g id="edge7" class="edge">
<title>Node5&#45;&gt;Node2</title>
<path fill="none" stroke="#191970" d="M463.0133,-99.1658C481.4516,-100.7967 500.8386,-102.5115 518.6114,-104.0836"/>
<polygon fill="#191970" stroke="#191970" points="518.6004,-107.5962 528.8699,-104.9909 519.2172,-100.6234 518.6004,-107.5962"/>
</g>
<!-- Node7&#45;&gt;Node2 -->
<g id="edge11" class="edge">
<title>Node7&#45;&gt;Node2</title>
<path fill="none" stroke="#191970" d="M399.5477,-182.4191C416.7985,-177.0354 443.4549,-170.5823 464,-159 482.9075,-148.3409 481.0911,-136.6566 500,-126 505.9744,-122.633 512.4445,-119.6823 519.0592,-117.1515"/>
<polygon fill="#191970" stroke="#191970" points="520.5266,-120.3464 528.8131,-113.7445 518.2183,-113.7379 520.5266,-120.3464"/>
</g>
<!-- Node7&#45;&gt;Node2 -->
<g id="edge12" class="edge">
<title>Node7&#45;&gt;Node2</title>
<path fill="none" stroke="#191970" d="M453.0809,-182.4555C456.8462,-180.7857 460.5112,-178.9668 464,-177 482.9075,-166.3409 481.0911,-154.6566 500,-144 512.0246,-137.2232 526.057,-132.133 539.2356,-127.9957"/>
<polygon fill="#191970" stroke="#191970" points="540.545,-131.2561 549.0996,-125.0055 538.5142,-124.5572 540.545,-131.2561"/>
</g>
<!-- Node7&#45;&gt;Node6 -->
<g id="edge15" class="edge">
<title>Node7&#45;&gt;Node6</title>
<path fill="none" stroke="#191970" d="M398.6687,-201.5844C421.0586,-214.0964 462.3903,-235.9354 500,-249 507.5568,-251.625 515.6185,-253.9735 523.6585,-256.0483"/>
<polygon fill="#191970" stroke="#191970" points="522.8733,-259.4594 533.4193,-258.4436 524.5416,-252.6611 522.8733,-259.4594"/>
</g>
<!-- Node8 -->
<g id="node9" class="node">
<title>Node8</title>
<g id="a_node9"><a xlink:href="classUIManager.html#aa5b6dbe1a9d5c50b588c55e9c9673f58" target="_top" xlink:title="Get the Ui Element By ID Finds and returns an UiElement by its elementID parameter. ">
<polygon fill="none" stroke="#000000" points="503,-220.5 503,-239.5 668,-239.5 668,-220.5 503,-220.5"/>
<text text-anchor="middle" x="585.5" y="-227.5" font-family="Helvetica,sans-Serif" font-size="10.00" fill="#000000">UIManager::getUiElementByID</text>
</a>
</g>
</g>
<!-- Node7&#45;&gt;Node8 -->
<g id="edge13" class="edge">
<title>Node7&#45;&gt;Node8</title>
<path fill="none" stroke="#191970" d="M433.089,-201.54C460.7877,-206.7122 495.211,-213.1401 524.3309,-218.5778"/>
<polygon fill="#191970" stroke="#191970" points="523.9174,-222.061 534.39,-220.4561 525.2024,-215.1799 523.9174,-222.061"/>
</g>
<!-- Node9 -->
<g id="node10" class="node">
<title>Node9</title>
<g id="a_node10"><a xlink:href="classUIElement.html#a6451228b4c9bc058d69e4d4f2b03c719" target="_top" xlink:title="UIElement::getUiElementData">
<polygon fill="none" stroke="#000000" points="503.5,-182.5 503.5,-201.5 667.5,-201.5 667.5,-182.5 503.5,-182.5"/>
<text text-anchor="middle" x="585.5" y="-189.5" font-family="Helvetica,sans-Serif" font-size="10.00" fill="#000000">UIElement::getUiElementData</text>
</a>
</g>
</g>
<!-- Node7&#45;&gt;Node9 -->
<g id="edge14" class="edge">
<title>Node7&#45;&gt;Node9</title>
<path fill="none" stroke="#191970" d="M464.1847,-192C473.7635,-192 483.5828,-192 493.2854,-192"/>
<polygon fill="#191970" stroke="#191970" points="493.3394,-195.5001 503.3394,-192 493.3394,-188.5001 493.3394,-195.5001"/>
</g>
<!-- Node10 -->
<g id="node11" class="node">
<title>Node10</title>
<g id="a_node11"><a xlink:href="classUIElement.html#ad1c0d7431b71bdd9a3704a6d5c8a4643" target="_top" xlink:title="Get the position and the size of this ui element Gets the position and the size of this ui element...">
<polygon fill="none" stroke="#000000" points="505,-144.5 505,-163.5 666,-163.5 666,-144.5 505,-144.5"/>
<text text-anchor="middle" x="585.5" y="-151.5" font-family="Helvetica,sans-Serif" font-size="10.00" fill="#000000">UIElement::getUiElementRect</text>
</a>
</g>
</g>
<!-- Node7&#45;&gt;Node10 -->
<g id="edge16" class="edge">
<title>Node7&#45;&gt;Node10</title>
<path fill="none" stroke="#191970" d="M433.089,-182.46C460.7877,-177.2878 495.211,-170.8599 524.3309,-165.4222"/>
<polygon fill="#191970" stroke="#191970" points="525.2024,-168.8201 534.39,-163.5439 523.9174,-161.939 525.2024,-168.8201"/>
</g>
<!-- Node11 -->
<g id="node12" class="node">
<title>Node11</title>
<g id="a_node12"><a xlink:href="classUIElement.html#aa7f624963eaeb31043d74219ee24386c" target="_top" xlink:title="Checks if the mouse cursor is over the current UI Element Check if the coordinates match the ones sto...">
<polygon fill="none" stroke="#000000" points="743,-163.5 743,-182.5 880,-182.5 880,-163.5 743,-163.5"/>
<text text-anchor="middle" x="811.5" y="-170.5" font-family="Helvetica,sans-Serif" font-size="10.00" fill="#000000">UIElement::isMouseOver</text>
</a>
</g>
</g>
<!-- Node10&#45;&gt;Node11 -->
<g id="edge17" class="edge">
<title>Node10&#45;&gt;Node11</title>
<path fill="none" stroke="#191970" d="M666.134,-160.779C687.802,-162.6006 711.204,-164.568 732.7673,-166.3809"/>
<polygon fill="#191970" stroke="#191970" points="732.6016,-169.8792 742.8597,-167.2294 733.1881,-162.9038 732.6016,-169.8792"/>
</g>
<!-- Node12 -->
<g id="node13" class="node">
<title>Node12</title>
<g id="a_node13"><a xlink:href="classUIElement.html#a570841bf8b7970ca935b1a00e571036a" target="_top" xlink:title="Handling for the hovering event Check, if the mouse cursor is hovering over the element. virtual function to provide custom handling if necessary (e.g. Combobox) Per default, it&#39;s the same implementation as isMouseOver. ">
<polygon fill="none" stroke="#000000" points="707,-125.5 707,-144.5 916,-144.5 916,-125.5 707,-125.5"/>
<text text-anchor="middle" x="811.5" y="-132.5" font-family="Helvetica,sans-Serif" font-size="10.00" fill="#000000">UIElement::isMouseOverHoverableArea</text>
</a>
</g>
</g>
<!-- Node10&#45;&gt;Node12 -->
<g id="edge18" class="edge">
<title>Node10&#45;&gt;Node12</title>
<path fill="none" stroke="#191970" d="M666.134,-147.221C676.0217,-146.3898 686.2705,-145.5281 696.5409,-144.6647"/>
<polygon fill="#191970" stroke="#191970" points="697.1343,-148.1273 706.8059,-143.8017 696.5478,-141.1519 697.1343,-148.1273"/>
</g>
</g>
</svg>
