<?xml version="1.0" encoding="UTF-8" standalone="no"?>
<!DOCTYPE svg PUBLIC "-//W3C//DTD SVG 1.1//EN"
 "http://www.w3.org/Graphics/SVG/1.1/DTD/svg11.dtd">
<!-- Generated by graphviz version 2.40.1 (20161225.0304)
 -->
<!-- Title: src/engine/UIMQDispatcher.hxx Pages: 1 -->
<svg width="1006pt" height="364pt"
 viewBox="0.00 0.00 1006.00 364.00" xmlns="http://www.w3.org/2000/svg" xmlns:xlink="http://www.w3.org/1999/xlink">
<g id="graph0" class="graph" transform="scale(1 1) rotate(0) translate(4 360)">
<title>src/engine/UIMQDispatcher.hxx</title>
<!-- Node0 -->
<g id="node1" class="node">
<title>Node0</title>
<polygon fill="#bfbfbf" stroke="#000000" points="570,-336.5 570,-355.5 739,-355.5 739,-336.5 570,-336.5"/>
<text text-anchor="middle" x="654.5" y="-343.5" font-family="Helvetica,sans-Serif" font-size="10.00" fill="#000000">src/engine/UIMQDispatcher.hxx</text>
</g>
<!-- Node1 -->
<g id="node2" class="node">
<title>Node1</title>
<g id="a_node2"><a xlink:href="Observer_8hxx.html" target="_top" xlink:title="Observer.hxx">
<polygon fill="none" stroke="#000000" points="752,-112.5 752,-131.5 833,-131.5 833,-112.5 752,-112.5"/>
<text text-anchor="middle" x="792.5" y="-119.5" font-family="Helvetica,sans-Serif" font-size="10.00" fill="#000000">Observer.hxx</text>
</a>
</g>
</g>
<!-- Node0&#45;&gt;Node1 -->
<g id="edge1" class="edge">
<title>Node0&#45;&gt;Node1</title>
<path fill="none" stroke="#191970" d="M677.7575,-336.383C722.4896,-316.4384 819.4478,-265.8367 857.5,-188 867.8212,-166.8877 845.1819,-148.3735 823.8469,-136.3701"/>
<polygon fill="#191970" stroke="#191970" points="825.3602,-133.2113 814.8832,-131.6359 822.0911,-139.401 825.3602,-133.2113"/>
</g>
<!-- Node9 -->
<g id="node10" class="node">
<title>Node9</title>
<g id="a_node10"><a xlink:href="MessageQueue_8hxx.html" target="_top" xlink:title="MessageQueue.hxx">
<polygon fill="none" stroke="#000000" points="337.5,-280.5 337.5,-299.5 449.5,-299.5 449.5,-280.5 337.5,-280.5"/>
<text text-anchor="middle" x="393.5" y="-287.5" font-family="Helvetica,sans-Serif" font-size="10.00" fill="#000000">MessageQueue.hxx</text>
</a>
</g>
</g>
<!-- Node0&#45;&gt;Node9 -->
<g id="edge9" class="edge">
<title>Node0&#45;&gt;Node9</title>
<path fill="none" stroke="#191970" d="M609.9291,-336.4369C565.0732,-326.8127 495.8351,-311.957 447.7992,-301.6504"/>
<polygon fill="#191970" stroke="#191970" points="448.3989,-298.1995 437.8871,-299.5237 446.9303,-305.0437 448.3989,-298.1995"/>
</g>
<!-- Node2 -->
<g id="node3" class="node">
<title>Node2</title>
<polygon fill="none" stroke="#bfbfbf" points="581,-56.5 581,-75.5 628,-75.5 628,-56.5 581,-56.5"/>
<text text-anchor="middle" x="604.5" y="-63.5" font-family="Helvetica,sans-Serif" font-size="10.00" fill="#000000">vector</text>
</g>
<!-- Node1&#45;&gt;Node2 -->
<g id="edge2" class="edge">
<title>Node1&#45;&gt;Node2</title>
<path fill="none" stroke="#191970" d="M760.1816,-112.3733C725.974,-102.1837 672.2542,-86.1821 637.7115,-75.8928"/>
<polygon fill="#191970" stroke="#191970" points="638.6629,-72.5243 628.0799,-73.0238 636.6646,-79.233 638.6629,-72.5243"/>
</g>
<!-- Node3 -->
<g id="node4" class="node">
<title>Node3</title>
<polygon fill="none" stroke="#bfbfbf" points="763.5,-56.5 763.5,-75.5 821.5,-75.5 821.5,-56.5 763.5,-56.5"/>
<text text-anchor="middle" x="792.5" y="-63.5" font-family="Helvetica,sans-Serif" font-size="10.00" fill="#000000">memory</text>
</g>
<!-- Node1&#45;&gt;Node3 -->
<g id="edge3" class="edge">
<title>Node1&#45;&gt;Node3</title>
<path fill="none" stroke="#191970" d="M792.5,-112.2455C792.5,-104.9382 792.5,-94.6944 792.5,-85.7046"/>
<polygon fill="#191970" stroke="#191970" points="796.0001,-85.6426 792.5,-75.6427 789.0001,-85.6427 796.0001,-85.6426"/>
</g>
<!-- Node4 -->
<g id="node5" class="node">
<title>Node4</title>
<g id="a_node5"><a xlink:href="Meta_8hxx.html" target="_top" xlink:title="Meta.hxx">
<polygon fill="none" stroke="#000000" points="843.5,-56.5 843.5,-75.5 905.5,-75.5 905.5,-56.5 843.5,-56.5"/>
<text text-anchor="middle" x="874.5" y="-63.5" font-family="Helvetica,sans-Serif" font-size="10.00" fill="#000000">Meta.hxx</text>
</a>
</g>
</g>
<!-- Node1&#45;&gt;Node4 -->
<g id="edge4" class="edge">
<title>Node1&#45;&gt;Node4</title>
<path fill="none" stroke="#191970" d="M806.7833,-112.2455C819.247,-103.7337 837.5451,-91.2375 851.9792,-81.3801"/>
<polygon fill="#191970" stroke="#191970" points="854.0962,-84.1726 860.3804,-75.6427 850.1485,-78.392 854.0962,-84.1726"/>
</g>
<!-- Node5 -->
<g id="node6" class="node">
<title>Node5</title>
<polygon fill="none" stroke="#bfbfbf" points="722.5,-.5 722.5,-19.5 782.5,-19.5 782.5,-.5 722.5,-.5"/>
<text text-anchor="middle" x="752.5" y="-7.5" font-family="Helvetica,sans-Serif" font-size="10.00" fill="#000000">iostream</text>
</g>
<!-- Node4&#45;&gt;Node5 -->
<g id="edge5" class="edge">
<title>Node4&#45;&gt;Node5</title>
<path fill="none" stroke="#191970" d="M853.5275,-56.3733C833.9433,-47.3838 804.5039,-33.8706 782.449,-23.7471"/>
<polygon fill="#191970" stroke="#191970" points="783.7473,-20.4919 773.1989,-19.5011 780.8271,-26.8538 783.7473,-20.4919"/>
</g>
<!-- Node6 -->
<g id="node7" class="node">
<title>Node6</title>
<polygon fill="none" stroke="#bfbfbf" points="801,-.5 801,-19.5 870,-19.5 870,-.5 801,-.5"/>
<text text-anchor="middle" x="835.5" y="-7.5" font-family="Helvetica,sans-Serif" font-size="10.00" fill="#000000">type_traits</text>
</g>
<!-- Node4&#45;&gt;Node6 -->
<g id="edge6" class="edge">
<title>Node4&#45;&gt;Node6</title>
<path fill="none" stroke="#191970" d="M867.7067,-56.2455C862.2822,-48.4564 854.5339,-37.3308 847.9967,-27.9439"/>
<polygon fill="#191970" stroke="#191970" points="850.8025,-25.8485 842.2154,-19.6427 845.0583,-29.849 850.8025,-25.8485"/>
</g>
<!-- Node7 -->
<g id="node8" class="node">
<title>Node7</title>
<polygon fill="none" stroke="#bfbfbf" points="888,-.5 888,-19.5 939,-19.5 939,-.5 888,-.5"/>
<text text-anchor="middle" x="913.5" y="-7.5" font-family="Helvetica,sans-Serif" font-size="10.00" fill="#000000">variant</text>
</g>
<!-- Node4&#45;&gt;Node7 -->
<g id="edge7" class="edge">
<title>Node4&#45;&gt;Node7</title>
<path fill="none" stroke="#191970" d="M881.2933,-56.2455C886.7178,-48.4564 894.4661,-37.3308 901.0033,-27.9439"/>
<polygon fill="#191970" stroke="#191970" points="903.9417,-29.849 906.7846,-19.6427 898.1975,-25.8485 903.9417,-29.849"/>
</g>
<!-- Node8 -->
<g id="node9" class="node">
<title>Node8</title>
<polygon fill="none" stroke="#bfbfbf" points="957,-.5 957,-19.5 998,-19.5 998,-.5 957,-.5"/>
<text text-anchor="middle" x="977.5" y="-7.5" font-family="Helvetica,sans-Serif" font-size="10.00" fill="#000000">tuple</text>
</g>
<!-- Node4&#45;&gt;Node8 -->
<g id="edge8" class="edge">
<title>Node4&#45;&gt;Node8</title>
<path fill="none" stroke="#191970" d="M892.4412,-56.2455C908.54,-47.4928 932.3879,-34.527 950.7391,-24.5496"/>
<polygon fill="#191970" stroke="#191970" points="952.6507,-27.4942 959.7644,-19.6427 949.3071,-21.3444 952.6507,-27.4942"/>
</g>
<!-- Node9&#45;&gt;Node2 -->
<g id="edge13" class="edge">
<title>Node9&#45;&gt;Node2</title>
<path fill="none" stroke="#191970" d="M412.163,-280.4164C427.4605,-272.0353 449.1726,-258.8963 465.5,-244 497.0897,-215.1793 498.1939,-201.7125 524.5,-168 547.6555,-138.3252 574.7013,-103.8883 590.6707,-83.5777"/>
<polygon fill="#191970" stroke="#191970" points="593.5534,-85.5741 596.9841,-75.5501 588.0511,-81.2468 593.5534,-85.5741"/>
</g>
<!-- Node10 -->
<g id="node11" class="node">
<title>Node10</title>
<polygon fill="none" stroke="#bfbfbf" points="0,-224.5 0,-243.5 107,-243.5 107,-224.5 0,-224.5"/>
<text text-anchor="middle" x="53.5" y="-231.5" font-family="Helvetica,sans-Serif" font-size="10.00" fill="#000000">condition_variable</text>
</g>
<!-- Node9&#45;&gt;Node10 -->
<g id="edge10" class="edge">
<title>Node9&#45;&gt;Node10</title>
<path fill="none" stroke="#191970" d="M337.3559,-280.7527C276.7528,-270.771 180.4225,-254.9049 117.0743,-244.4711"/>
<polygon fill="#191970" stroke="#191970" points="117.6369,-241.0167 107.201,-242.8449 116.4993,-247.9236 117.6369,-241.0167"/>
</g>
<!-- Node11 -->
<g id="node12" class="node">
<title>Node11</title>
<polygon fill="none" stroke="#bfbfbf" points="125.5,-224.5 125.5,-243.5 173.5,-243.5 173.5,-224.5 125.5,-224.5"/>
<text text-anchor="middle" x="149.5" y="-231.5" font-family="Helvetica,sans-Serif" font-size="10.00" fill="#000000">mutex</text>
</g>
<!-- Node9&#45;&gt;Node11 -->
<g id="edge11" class="edge">
<title>Node9&#45;&gt;Node11</title>
<path fill="none" stroke="#191970" d="M344.6316,-280.4951C303.8782,-272.3095 244.1037,-259.7055 183.345,-244.0754"/>
<polygon fill="#191970" stroke="#191970" points="184.1466,-240.6675 173.5879,-241.5411 182.3868,-247.4427 184.1466,-240.6675"/>
</g>
<!-- Node12 -->
<g id="node13" class="node">
<title>Node12</title>
<polygon fill="none" stroke="#bfbfbf" points="192,-224.5 192,-243.5 239,-243.5 239,-224.5 192,-224.5"/>
<text text-anchor="middle" x="215.5" y="-231.5" font-family="Helvetica,sans-Serif" font-size="10.00" fill="#000000">deque</text>
</g>
<!-- Node9&#45;&gt;Node12 -->
<g id="edge12" class="edge">
<title>Node9&#45;&gt;Node12</title>
<path fill="none" stroke="#191970" d="M362.9007,-280.3733C331.102,-270.3692 281.4954,-254.7626 248.7483,-244.4601"/>
<polygon fill="#191970" stroke="#191970" points="249.7545,-241.1076 239.165,-241.4452 247.6537,-247.785 249.7545,-241.1076"/>
</g>
<!-- Node13 -->
<g id="node14" class="node">
<title>Node13</title>
<polygon fill="none" stroke="#bfbfbf" points="593,-112.5 593,-131.5 658,-131.5 658,-112.5 593,-112.5"/>
<text text-anchor="middle" x="625.5" y="-119.5" font-family="Helvetica,sans-Serif" font-size="10.00" fill="#000000">functional</text>
</g>
<!-- Node9&#45;&gt;Node13 -->
<g id="edge14" class="edge">
<title>Node9&#45;&gt;Node13</title>
<path fill="none" stroke="#191970" d="M430.4121,-280.4628C452.4565,-273.2996 479.8893,-261.6446 499.5,-244 528.3505,-218.0419 514.937,-195.3213 542.5,-168 556.2912,-154.3298 574.9777,-143.4963 591.1283,-135.7852"/>
<polygon fill="#191970" stroke="#191970" points="592.6419,-138.9418 600.2882,-131.6081 589.7374,-132.5728 592.6419,-138.9418"/>
</g>
<!-- Node14 -->
<g id="node15" class="node">
<title>Node14</title>
<polygon fill="none" stroke="#bfbfbf" points="257.5,-224.5 257.5,-243.5 311.5,-243.5 311.5,-224.5 257.5,-224.5"/>
<text text-anchor="middle" x="284.5" y="-231.5" font-family="Helvetica,sans-Serif" font-size="10.00" fill="#000000">ciso646</text>
</g>
<!-- Node9&#45;&gt;Node14 -->
<g id="edge15" class="edge">
<title>Node9&#45;&gt;Node14</title>
<path fill="none" stroke="#191970" d="M374.5136,-280.2455C357.3208,-271.4125 331.7762,-258.2887 312.2868,-248.2758"/>
<polygon fill="#191970" stroke="#191970" points="313.763,-245.0993 303.2688,-243.6427 310.5641,-251.3257 313.763,-245.0993"/>
</g>
<!-- Node15 -->
<g id="node16" class="node">
<title>Node15</title>
<g id="a_node16"><a xlink:href="Events_8hxx.html" target="_top" xlink:title="../Events.hxx">
<polygon fill="none" stroke="#000000" points="623.5,-224.5 623.5,-243.5 703.5,-243.5 703.5,-224.5 623.5,-224.5"/>
<text text-anchor="middle" x="663.5" y="-231.5" font-family="Helvetica,sans-Serif" font-size="10.00" fill="#000000">../Events.hxx</text>
</a>
</g>
</g>
<!-- Node9&#45;&gt;Node15 -->
<g id="edge16" class="edge">
<title>Node9&#45;&gt;Node15</title>
<path fill="none" stroke="#191970" d="M439.6079,-280.4369C487.9393,-270.4126 563.6344,-254.7129 613.4082,-244.3894"/>
<polygon fill="#191970" stroke="#191970" points="614.2282,-247.7939 623.309,-242.3359 612.8065,-240.9398 614.2282,-247.7939"/>
</g>
<!-- Node19 -->
<g id="node20" class="node">
<title>Node19</title>
<g id="a_node20"><a xlink:href="MessageQueue_8inl_8hxx.html" target="_top" xlink:title="MessageQueue.inl.hxx">
<polygon fill="none" stroke="#000000" points="330,-224.5 330,-243.5 457,-243.5 457,-224.5 330,-224.5"/>
<text text-anchor="middle" x="393.5" y="-231.5" font-family="Helvetica,sans-Serif" font-size="10.00" fill="#000000">MessageQueue.inl.hxx</text>
</a>
</g>
</g>
<!-- Node9&#45;&gt;Node19 -->
<g id="edge23" class="edge">
<title>Node9&#45;&gt;Node19</title>
<path fill="none" stroke="#191970" d="M393.5,-280.2455C393.5,-272.9382 393.5,-262.6944 393.5,-253.7046"/>
<polygon fill="#191970" stroke="#191970" points="397.0001,-253.6426 393.5,-243.6427 390.0001,-253.6427 397.0001,-253.6426"/>
</g>
<!-- Node15&#45;&gt;Node4 -->
<g id="edge19" class="edge">
<title>Node15&#45;&gt;Node4</title>
<path fill="none" stroke="#191970" d="M703.788,-229.7741C754.4201,-223.5967 837.1756,-210.3388 857.5,-188 882.9372,-160.0417 881.353,-112.5333 877.9344,-85.7983"/>
<polygon fill="#191970" stroke="#191970" points="881.3694,-85.103 876.4304,-75.7298 874.4463,-86.1372 881.3694,-85.103"/>
</g>
<!-- Node16 -->
<g id="node17" class="node">
<title>Node16</title>
<polygon fill="none" stroke="#bfbfbf" points="551.5,-168.5 551.5,-187.5 595.5,-187.5 595.5,-168.5 551.5,-168.5"/>
<text text-anchor="middle" x="573.5" y="-175.5" font-family="Helvetica,sans-Serif" font-size="10.00" fill="#000000">string</text>
</g>
<!-- Node15&#45;&gt;Node16 -->
<g id="edge17" class="edge">
<title>Node15&#45;&gt;Node16</title>
<path fill="none" stroke="#191970" d="M647.8232,-224.2455C634.0144,-215.6534 613.6807,-203.0014 597.7708,-193.1018"/>
<polygon fill="#191970" stroke="#191970" points="599.3368,-189.954 588.9972,-187.6427 595.6387,-195.8974 599.3368,-189.954"/>
</g>
<!-- Node17 -->
<g id="node18" class="node">
<title>Node17</title>
<polygon fill="none" stroke="#bfbfbf" points="613.5,-168.5 613.5,-187.5 713.5,-187.5 713.5,-168.5 613.5,-168.5"/>
<text text-anchor="middle" x="663.5" y="-175.5" font-family="Helvetica,sans-Serif" font-size="10.00" fill="#000000">betterEnums.hxx</text>
</g>
<!-- Node15&#45;&gt;Node17 -->
<g id="edge18" class="edge">
<title>Node15&#45;&gt;Node17</title>
<path fill="none" stroke="#191970" d="M663.5,-224.2455C663.5,-216.9382 663.5,-206.6944 663.5,-197.7046"/>
<polygon fill="#191970" stroke="#191970" points="667.0001,-197.6426 663.5,-187.6427 660.0001,-197.6427 667.0001,-197.6426"/>
</g>
<!-- Node18 -->
<g id="node19" class="node">
<title>Node18</title>
<g id="a_node19"><a xlink:href="UIEvents_8hxx.html" target="_top" xlink:title="events/UIEvents.hxx">
<polygon fill="none" stroke="#000000" points="732,-168.5 732,-187.5 849,-187.5 849,-168.5 732,-168.5"/>
<text text-anchor="middle" x="790.5" y="-175.5" font-family="Helvetica,sans-Serif" font-size="10.00" fill="#000000">events/UIEvents.hxx</text>
</a>
</g>
</g>
<!-- Node15&#45;&gt;Node18 -->
<g id="edge20" class="edge">
<title>Node15&#45;&gt;Node18</title>
<path fill="none" stroke="#191970" d="M685.3321,-224.3733C705.8103,-215.3435 736.6399,-201.7494 759.6319,-191.6111"/>
<polygon fill="#191970" stroke="#191970" points="761.215,-194.7383 768.9528,-187.5011 758.3907,-188.3333 761.215,-194.7383"/>
</g>
<!-- Node18&#45;&gt;Node1 -->
<g id="edge22" class="edge">
<title>Node18&#45;&gt;Node1</title>
<path fill="none" stroke="#191970" d="M790.8484,-168.2455C791.1093,-160.9382 791.4752,-150.6944 791.7963,-141.7046"/>
<polygon fill="#191970" stroke="#191970" points="795.2964,-141.7613 792.1556,-131.6427 788.3008,-141.5113 795.2964,-141.7613"/>
</g>
<!-- Node18&#45;&gt;Node13 -->
<g id="edge21" class="edge">
<title>Node18&#45;&gt;Node13</title>
<path fill="none" stroke="#191970" d="M762.1355,-168.3733C734.8173,-159.1016 693.3204,-145.0178 663.2262,-134.804"/>
<polygon fill="#191970" stroke="#191970" points="664.0887,-131.4008 653.4944,-131.5011 661.839,-138.0294 664.0887,-131.4008"/>
</g>
</g>
</svg>
