<?xml version="1.0" encoding="UTF-8" standalone="no"?>
<!DOCTYPE svg PUBLIC "-//W3C//DTD SVG 1.1//EN"
 "http://www.w3.org/Graphics/SVG/1.1/DTD/svg11.dtd">
<!-- Generated by graphviz version 2.40.1 (20161225.0304)
 -->
<!-- Title: src/engine/WindowManager.cxx Pages: 1 -->
<svg width="1437pt" height="420pt"
 viewBox="0.00 0.00 1436.50 420.00" xmlns="http://www.w3.org/2000/svg" xmlns:xlink="http://www.w3.org/1999/xlink">
<g id="graph0" class="graph" transform="scale(1 1) rotate(0) translate(4 416)">
<title>src/engine/WindowManager.cxx</title>
<!-- Node0 -->
<g id="node1" class="node">
<title>Node0</title>
<polygon fill="#bfbfbf" stroke="#000000" points="620.5,-392.5 620.5,-411.5 790.5,-411.5 790.5,-392.5 620.5,-392.5"/>
<text text-anchor="middle" x="705.5" y="-399.5" font-family="Helvetica,sans-Serif" font-size="10.00" fill="#000000">src/engine/WindowManager.cxx</text>
</g>
<!-- Node1 -->
<g id="node2" class="node">
<title>Node1</title>
<g id="a_node2"><a xlink:href="WindowManager_8hxx.html" target="_top" xlink:title="WindowManager.hxx">
<polygon fill="none" stroke="#000000" points="440.5,-112.5 440.5,-131.5 558.5,-131.5 558.5,-112.5 440.5,-112.5"/>
<text text-anchor="middle" x="499.5" y="-119.5" font-family="Helvetica,sans-Serif" font-size="10.00" fill="#000000">WindowManager.hxx</text>
</a>
</g>
</g>
<!-- Node0&#45;&gt;Node1 -->
<g id="edge1" class="edge">
<title>Node0&#45;&gt;Node1</title>
<path fill="none" stroke="#191970" d="M620.4084,-392.6135C580.7346,-385.9717 533.7335,-374.7674 494.5,-356 452.297,-335.8121 412.5,-336.7829 412.5,-290 412.5,-290 412.5,-290 412.5,-234 412.5,-192.4126 450.3731,-156.9469 476.1427,-137.6288"/>
<polygon fill="#191970" stroke="#191970" points="478.2836,-140.4001 484.3458,-131.711 474.1881,-134.7232 478.2836,-140.4001"/>
</g>
<!-- Node7 -->
<g id="node8" class="node">
<title>Node7</title>
<g id="a_node8"><a xlink:href="LOG_8hxx.html" target="_top" xlink:title="LOG.hxx">
<polygon fill="none" stroke="#000000" points="622.5,-112.5 622.5,-131.5 680.5,-131.5 680.5,-112.5 622.5,-112.5"/>
<text text-anchor="middle" x="651.5" y="-119.5" font-family="Helvetica,sans-Serif" font-size="10.00" fill="#000000">LOG.hxx</text>
</a>
</g>
</g>
<!-- Node0&#45;&gt;Node7 -->
<g id="edge7" class="edge">
<title>Node0&#45;&gt;Node7</title>
<path fill="none" stroke="#191970" d="M662.5311,-392.4593C589.858,-375.0681 450.5,-335.7538 450.5,-290 450.5,-290 450.5,-290 450.5,-234 450.5,-160.7029 553.7547,-134.9396 612.2521,-126.2252"/>
<polygon fill="#191970" stroke="#191970" points="612.8495,-129.6759 622.2729,-124.8333 611.8864,-122.7425 612.8495,-129.6759"/>
</g>
<!-- Node8 -->
<g id="node9" class="node">
<title>Node8</title>
<g id="a_node9"><a xlink:href="Exception_8hxx.html" target="_top" xlink:title="Exception.hxx">
<polygon fill="none" stroke="#000000" points="1277.5,-56.5 1277.5,-75.5 1363.5,-75.5 1363.5,-56.5 1277.5,-56.5"/>
<text text-anchor="middle" x="1320.5" y="-63.5" font-family="Helvetica,sans-Serif" font-size="10.00" fill="#000000">Exception.hxx</text>
</a>
</g>
</g>
<!-- Node0&#45;&gt;Node8 -->
<g id="edge26" class="edge">
<title>Node0&#45;&gt;Node8</title>
<path fill="none" stroke="#191970" d="M790.69,-395.2183C959.5383,-380.6273 1320.5,-343.2121 1320.5,-290 1320.5,-290 1320.5,-290 1320.5,-178 1320.5,-145.7116 1320.5,-108.1872 1320.5,-85.8048"/>
<polygon fill="#191970" stroke="#191970" points="1324.0001,-85.5883 1320.5,-75.5884 1317.0001,-85.5884 1324.0001,-85.5883"/>
</g>
<!-- Node22 -->
<g id="node23" class="node">
<title>Node22</title>
<g id="a_node23"><a xlink:href="Settings_8hxx.html" target="_top" xlink:title="basics/Settings.hxx">
<polygon fill="none" stroke="#000000" points="167,-112.5 167,-131.5 278,-131.5 278,-112.5 167,-112.5"/>
<text text-anchor="middle" x="222.5" y="-119.5" font-family="Helvetica,sans-Serif" font-size="10.00" fill="#000000">basics/Settings.hxx</text>
</a>
</g>
</g>
<!-- Node0&#45;&gt;Node22 -->
<g id="edge27" class="edge">
<title>Node0&#45;&gt;Node22</title>
<path fill="none" stroke="#191970" d="M620.3244,-398.5568C487.3526,-390.8285 245.5,-366.2865 245.5,-290 245.5,-290 245.5,-290 245.5,-234 245.5,-200.906 235.7452,-163.4151 228.9412,-141.2901"/>
<polygon fill="#191970" stroke="#191970" points="232.2706,-140.2105 225.8937,-131.7497 225.6026,-142.3405 232.2706,-140.2105"/>
</g>
<!-- Node24 -->
<g id="node25" class="node">
<title>Node24</title>
<g id="a_node25"><a xlink:href="Filesystem_8hxx.html" target="_top" xlink:title="Filesystem.hxx">
<polygon fill="none" stroke="#000000" points="986.5,-336.5 986.5,-355.5 1076.5,-355.5 1076.5,-336.5 986.5,-336.5"/>
<text text-anchor="middle" x="1031.5" y="-343.5" font-family="Helvetica,sans-Serif" font-size="10.00" fill="#000000">Filesystem.hxx</text>
</a>
</g>
</g>
<!-- Node0&#45;&gt;Node24 -->
<g id="edge32" class="edge">
<title>Node0&#45;&gt;Node24</title>
<path fill="none" stroke="#191970" d="M761.171,-392.4369C821.2533,-382.116 916.3586,-365.7789 976.2692,-355.4875"/>
<polygon fill="#191970" stroke="#191970" points="977.0368,-358.907 986.2999,-353.7644 975.8517,-352.008 977.0368,-358.907"/>
</g>
<!-- Node36 -->
<g id="node37" class="node">
<title>Node36</title>
<polygon fill="none" stroke="#bfbfbf" points="1348.5,-336.5 1348.5,-355.5 1428.5,-355.5 1428.5,-336.5 1348.5,-336.5"/>
<text text-anchor="middle" x="1388.5" y="-343.5" font-family="Helvetica,sans-Serif" font-size="10.00" fill="#000000">SDL_image.h</text>
</g>
<!-- Node0&#45;&gt;Node36 -->
<g id="edge53" class="edge">
<title>Node0&#45;&gt;Node36</title>
<path fill="none" stroke="#191970" d="M790.7496,-398.7453C911.9686,-393.4414 1140.9268,-380.9247 1334.5,-356 1335.7766,-355.8356 1337.0687,-355.6608 1338.3712,-355.477"/>
<polygon fill="#191970" stroke="#191970" points="1339.1229,-358.9026 1348.4728,-353.9197 1338.0563,-351.9843 1339.1229,-358.9026"/>
</g>
<!-- Node2 -->
<g id="node3" class="node">
<title>Node2</title>
<polygon fill="none" stroke="#bfbfbf" points="200.5,-56.5 200.5,-75.5 244.5,-75.5 244.5,-56.5 200.5,-56.5"/>
<text text-anchor="middle" x="222.5" y="-63.5" font-family="Helvetica,sans-Serif" font-size="10.00" fill="#000000">string</text>
</g>
<!-- Node1&#45;&gt;Node2 -->
<g id="edge2" class="edge">
<title>Node1&#45;&gt;Node2</title>
<path fill="none" stroke="#191970" d="M440.3906,-113.1142C392.5229,-105.4261 323.2368,-93.1875 254.4526,-76.0091"/>
<polygon fill="#191970" stroke="#191970" points="255.3058,-72.6147 244.7525,-73.5523 253.5871,-79.4004 255.3058,-72.6147"/>
</g>
<!-- Node3 -->
<g id="node4" class="node">
<title>Node3</title>
<polygon fill="none" stroke="#bfbfbf" points="858.5,-.5 858.5,-19.5 918.5,-19.5 918.5,-.5 858.5,-.5"/>
<text text-anchor="middle" x="888.5" y="-7.5" font-family="Helvetica,sans-Serif" font-size="10.00" fill="#000000">iostream</text>
</g>
<!-- Node1&#45;&gt;Node3 -->
<g id="edge3" class="edge">
<title>Node1&#45;&gt;Node3</title>
<path fill="none" stroke="#191970" d="M442.353,-112.4455C397.1081,-102.5208 345.5082,-84.4071 371.5,-56 403.501,-21.0253 732.2169,-12.4676 848.2292,-10.5291"/>
<polygon fill="#191970" stroke="#191970" points="848.514,-14.0251 858.457,-10.3663 848.4025,-7.026 848.514,-14.0251"/>
</g>
<!-- Node4 -->
<g id="node5" class="node">
<title>Node4</title>
<polygon fill="none" stroke="#bfbfbf" points="1212,-56.5 1212,-75.5 1259,-75.5 1259,-56.5 1212,-56.5"/>
<text text-anchor="middle" x="1235.5" y="-63.5" font-family="Helvetica,sans-Serif" font-size="10.00" fill="#000000">vector</text>
</g>
<!-- Node1&#45;&gt;Node4 -->
<g id="edge4" class="edge">
<title>Node1&#45;&gt;Node4</title>
<path fill="none" stroke="#191970" d="M558.6552,-116.6561C576.2961,-115.1043 595.6772,-113.4407 613.5,-112 837.9754,-93.8549 1108.2612,-74.8307 1201.7545,-68.3327"/>
<polygon fill="#191970" stroke="#191970" points="1202.0299,-71.8221 1211.7635,-67.638 1201.5452,-64.8389 1202.0299,-71.8221"/>
</g>
<!-- Node5 -->
<g id="node6" class="node">
<title>Node5</title>
<polygon fill="none" stroke="#bfbfbf" points="380.5,-56.5 380.5,-75.5 424.5,-75.5 424.5,-56.5 380.5,-56.5"/>
<text text-anchor="middle" x="402.5" y="-63.5" font-family="Helvetica,sans-Serif" font-size="10.00" fill="#000000">SDL.h</text>
</g>
<!-- Node1&#45;&gt;Node5 -->
<g id="edge5" class="edge">
<title>Node1&#45;&gt;Node5</title>
<path fill="none" stroke="#191970" d="M482.6039,-112.2455C467.582,-103.5731 445.3957,-90.7645 428.179,-80.825"/>
<polygon fill="#191970" stroke="#191970" points="429.6128,-77.6114 419.2025,-75.6427 426.1129,-83.6737 429.6128,-77.6114"/>
</g>
<!-- Node6 -->
<g id="node7" class="node">
<title>Node6</title>
<g id="a_node7"><a xlink:href="Singleton_8hxx.html" target="_top" xlink:title="../util/Singleton.hxx">
<polygon fill="none" stroke="#000000" points="71,-56.5 71,-75.5 182,-75.5 182,-56.5 71,-56.5"/>
<text text-anchor="middle" x="126.5" y="-63.5" font-family="Helvetica,sans-Serif" font-size="10.00" fill="#000000">../util/Singleton.hxx</text>
</a>
</g>
</g>
<!-- Node1&#45;&gt;Node6 -->
<g id="edge6" class="edge">
<title>Node1&#45;&gt;Node6</title>
<path fill="none" stroke="#191970" d="M440.4428,-113.2585C380.6133,-104.3848 285.1039,-90.1707 192.2988,-76.116"/>
<polygon fill="#191970" stroke="#191970" points="192.5783,-72.6185 182.1667,-74.5806 191.5294,-79.5395 192.5783,-72.6185"/>
</g>
<!-- Node7&#45;&gt;Node2 -->
<g id="edge8" class="edge">
<title>Node7&#45;&gt;Node2</title>
<path fill="none" stroke="#191970" d="M622.3476,-118.498C606.1883,-116.5647 585.7338,-114.1306 567.5,-112 431.2495,-96.0794 392.5918,-105.2528 254.8021,-75.9242"/>
<polygon fill="#191970" stroke="#191970" points="255.2206,-72.434 244.7072,-73.7451 253.7435,-79.2764 255.2206,-72.434"/>
</g>
<!-- Node7&#45;&gt;Node3 -->
<g id="edge12" class="edge">
<title>Node7&#45;&gt;Node3</title>
<path fill="none" stroke="#191970" d="M680.8782,-119.515C733.8475,-114.4513 842.3812,-101.2247 869.5,-76 882.1622,-64.2222 886.5756,-44.6063 888.0225,-29.8135"/>
<polygon fill="#191970" stroke="#191970" points="891.5269,-29.8445 888.6382,-19.6512 884.5397,-29.4211 891.5269,-29.8445"/>
</g>
<!-- Node7&#45;&gt;Node5 -->
<g id="edge17" class="edge">
<title>Node7&#45;&gt;Node5</title>
<path fill="none" stroke="#191970" d="M622.3575,-116.8497C582.1387,-109.5262 507.2095,-95.1088 434.5399,-76.0803"/>
<polygon fill="#191970" stroke="#191970" points="435.3318,-72.6694 424.7688,-73.4897 433.5378,-79.4357 435.3318,-72.6694"/>
</g>
<!-- Node7&#45;&gt;Node8 -->
<g id="edge9" class="edge">
<title>Node7&#45;&gt;Node8</title>
<path fill="none" stroke="#191970" d="M680.5346,-121.028C767.8143,-117.8545 1035.5699,-106.281 1267.4628,-75.9962"/>
<polygon fill="#191970" stroke="#191970" points="1267.9768,-79.4588 1277.4324,-74.6796 1267.0602,-72.5191 1267.9768,-79.4588"/>
</g>
<!-- Node11 -->
<g id="node12" class="node">
<title>Node11</title>
<polygon fill="none" stroke="#bfbfbf" points="442.5,-56.5 442.5,-75.5 492.5,-75.5 492.5,-56.5 442.5,-56.5"/>
<text text-anchor="middle" x="467.5" y="-63.5" font-family="Helvetica,sans-Serif" font-size="10.00" fill="#000000">chrono</text>
</g>
<!-- Node7&#45;&gt;Node11 -->
<g id="edge13" class="edge">
<title>Node7&#45;&gt;Node11</title>
<path fill="none" stroke="#191970" d="M622.3447,-113.1266C589.7875,-103.2179 537.1173,-87.1879 502.3962,-76.6206"/>
<polygon fill="#191970" stroke="#191970" points="503.2612,-73.2254 492.6753,-73.6621 501.223,-79.9221 503.2612,-73.2254"/>
</g>
<!-- Node12 -->
<g id="node13" class="node">
<title>Node12</title>
<polygon fill="none" stroke="#bfbfbf" points="510.5,-56.5 510.5,-75.5 554.5,-75.5 554.5,-56.5 510.5,-56.5"/>
<text text-anchor="middle" x="532.5" y="-63.5" font-family="Helvetica,sans-Serif" font-size="10.00" fill="#000000">ctime</text>
</g>
<!-- Node7&#45;&gt;Node12 -->
<g id="edge14" class="edge">
<title>Node7&#45;&gt;Node12</title>
<path fill="none" stroke="#191970" d="M631.0432,-112.3733C612.0262,-103.4241 583.4825,-89.9917 562.0024,-79.8835"/>
<polygon fill="#191970" stroke="#191970" points="563.2284,-76.5923 552.6899,-75.5011 560.2478,-82.926 563.2284,-76.5923"/>
</g>
<!-- Node13 -->
<g id="node14" class="node">
<title>Node13</title>
<polygon fill="none" stroke="#bfbfbf" points="573,-56.5 573,-75.5 628,-75.5 628,-56.5 573,-56.5"/>
<text text-anchor="middle" x="600.5" y="-63.5" font-family="Helvetica,sans-Serif" font-size="10.00" fill="#000000">fstream</text>
</g>
<!-- Node7&#45;&gt;Node13 -->
<g id="edge15" class="edge">
<title>Node7&#45;&gt;Node13</title>
<path fill="none" stroke="#191970" d="M642.6165,-112.2455C635.3034,-104.2155 624.7609,-92.6394 616.0533,-83.0781"/>
<polygon fill="#191970" stroke="#191970" points="618.6028,-80.6795 609.2817,-75.6427 613.4273,-85.3928 618.6028,-80.6795"/>
</g>
<!-- Node14 -->
<g id="node15" class="node">
<title>Node14</title>
<polygon fill="none" stroke="#bfbfbf" points="646.5,-56.5 646.5,-75.5 702.5,-75.5 702.5,-56.5 646.5,-56.5"/>
<text text-anchor="middle" x="674.5" y="-63.5" font-family="Helvetica,sans-Serif" font-size="10.00" fill="#000000">sstream</text>
</g>
<!-- Node7&#45;&gt;Node14 -->
<g id="edge16" class="edge">
<title>Node7&#45;&gt;Node14</title>
<path fill="none" stroke="#191970" d="M655.5063,-112.2455C658.5735,-104.7776 662.9003,-94.2427 666.6497,-85.1137"/>
<polygon fill="#191970" stroke="#191970" points="669.9779,-86.2226 670.5396,-75.6427 663.5028,-83.5631 669.9779,-86.2226"/>
</g>
<!-- Node15 -->
<g id="node16" class="node">
<title>Node15</title>
<polygon fill="none" stroke="#bfbfbf" points="916.5,-56.5 916.5,-75.5 980.5,-75.5 980.5,-56.5 916.5,-56.5"/>
<text text-anchor="middle" x="948.5" y="-63.5" font-family="Helvetica,sans-Serif" font-size="10.00" fill="#000000">algorithm</text>
</g>
<!-- Node7&#45;&gt;Node15 -->
<g id="edge18" class="edge">
<title>Node7&#45;&gt;Node15</title>
<path fill="none" stroke="#191970" d="M680.5462,-116.9958C727.3583,-108.859 822.354,-92.0511 902.5,-76 903.7621,-75.7472 905.0431,-75.4877 906.3357,-75.2232"/>
<polygon fill="#191970" stroke="#191970" points="907.2853,-78.6005 916.3575,-73.1282 905.8529,-71.7486 907.2853,-78.6005"/>
</g>
<!-- Node16 -->
<g id="node17" class="node">
<title>Node16</title>
<polygon fill="none" stroke="#bfbfbf" points="720.5,-56.5 720.5,-75.5 768.5,-75.5 768.5,-56.5 720.5,-56.5"/>
<text text-anchor="middle" x="744.5" y="-63.5" font-family="Helvetica,sans-Serif" font-size="10.00" fill="#000000">mutex</text>
</g>
<!-- Node7&#45;&gt;Node16 -->
<g id="edge19" class="edge">
<title>Node7&#45;&gt;Node16</title>
<path fill="none" stroke="#191970" d="M667.6994,-112.2455C682.1018,-103.5731 703.3732,-90.7645 719.8799,-80.825"/>
<polygon fill="#191970" stroke="#191970" points="721.725,-83.7996 728.4863,-75.6427 718.114,-77.8028 721.725,-83.7996"/>
</g>
<!-- Node17 -->
<g id="node18" class="node">
<title>Node17</title>
<g id="a_node18"><a xlink:href="Meta_8hxx.html" target="_top" xlink:title="Meta.hxx">
<polygon fill="none" stroke="#000000" points="262.5,-56.5 262.5,-75.5 324.5,-75.5 324.5,-56.5 262.5,-56.5"/>
<text text-anchor="middle" x="293.5" y="-63.5" font-family="Helvetica,sans-Serif" font-size="10.00" fill="#000000">Meta.hxx</text>
</a>
</g>
</g>
<!-- Node7&#45;&gt;Node17 -->
<g id="edge20" class="edge">
<title>Node7&#45;&gt;Node17</title>
<path fill="none" stroke="#191970" d="M622.2034,-117.4173C558.6961,-107.4832 408.1843,-83.9395 334.9535,-72.4843"/>
<polygon fill="#191970" stroke="#191970" points="335.15,-68.9726 324.7292,-70.885 334.0681,-75.8885 335.15,-68.9726"/>
</g>
<!-- Node21 -->
<g id="node22" class="node">
<title>Node21</title>
<g id="a_node22"><a xlink:href="LOG_8inl_8hxx.html" target="_top" xlink:title="LOG.inl.hxx">
<polygon fill="none" stroke="#000000" points="787,-56.5 787,-75.5 860,-75.5 860,-56.5 787,-56.5"/>
<text text-anchor="middle" x="823.5" y="-63.5" font-family="Helvetica,sans-Serif" font-size="10.00" fill="#000000">LOG.inl.hxx</text>
</a>
</g>
</g>
<!-- Node7&#45;&gt;Node21 -->
<g id="edge25" class="edge">
<title>Node7&#45;&gt;Node21</title>
<path fill="none" stroke="#191970" d="M680.6775,-112.5004C709.2174,-103.2083 752.8694,-88.996 784.4019,-78.7296"/>
<polygon fill="#191970" stroke="#191970" points="785.7543,-81.9702 794.1794,-75.5462 783.5871,-75.3141 785.7543,-81.9702"/>
</g>
<!-- Node9 -->
<g id="node10" class="node">
<title>Node9</title>
<polygon fill="none" stroke="#bfbfbf" points="1246,-.5 1246,-19.5 1311,-19.5 1311,-.5 1246,-.5"/>
<text text-anchor="middle" x="1278.5" y="-7.5" font-family="Helvetica,sans-Serif" font-size="10.00" fill="#000000">stdexcept</text>
</g>
<!-- Node8&#45;&gt;Node9 -->
<g id="edge10" class="edge">
<title>Node8&#45;&gt;Node9</title>
<path fill="none" stroke="#191970" d="M1313.1842,-56.2455C1307.2821,-48.3761 1298.8258,-37.101 1291.7406,-27.6542"/>
<polygon fill="#191970" stroke="#191970" points="1294.5321,-25.5427 1285.732,-19.6427 1288.932,-29.7427 1294.5321,-25.5427"/>
</g>
<!-- Node10 -->
<g id="node11" class="node">
<title>Node10</title>
<polygon fill="none" stroke="#bfbfbf" points="1329,-.5 1329,-19.5 1394,-19.5 1394,-.5 1329,-.5"/>
<text text-anchor="middle" x="1361.5" y="-7.5" font-family="Helvetica,sans-Serif" font-size="10.00" fill="#000000">exception</text>
</g>
<!-- Node8&#45;&gt;Node10 -->
<g id="edge11" class="edge">
<title>Node8&#45;&gt;Node10</title>
<path fill="none" stroke="#191970" d="M1327.6417,-56.2455C1333.3444,-48.4564 1341.49,-37.3308 1348.3625,-27.9439"/>
<polygon fill="#191970" stroke="#191970" points="1351.3568,-29.7789 1354.4402,-19.6427 1345.7087,-25.6437 1351.3568,-29.7789"/>
</g>
<!-- Node17&#45;&gt;Node3 -->
<g id="edge21" class="edge">
<title>Node17&#45;&gt;Node3</title>
<path fill="none" stroke="#191970" d="M324.8693,-58.4611C329.4237,-57.5323 334.0693,-56.6744 338.5,-56 527.803,-27.1852 756.7087,-15.3264 848.0343,-11.5099"/>
<polygon fill="#191970" stroke="#191970" points="848.3752,-14.999 858.2241,-11.0939 848.0896,-8.0049 848.3752,-14.999"/>
</g>
<!-- Node18 -->
<g id="node19" class="node">
<title>Node18</title>
<polygon fill="none" stroke="#bfbfbf" points="298,-.5 298,-19.5 367,-19.5 367,-.5 298,-.5"/>
<text text-anchor="middle" x="332.5" y="-7.5" font-family="Helvetica,sans-Serif" font-size="10.00" fill="#000000">type_traits</text>
</g>
<!-- Node17&#45;&gt;Node18 -->
<g id="edge22" class="edge">
<title>Node17&#45;&gt;Node18</title>
<path fill="none" stroke="#191970" d="M300.2933,-56.2455C305.7178,-48.4564 313.4661,-37.3308 320.0033,-27.9439"/>
<polygon fill="#191970" stroke="#191970" points="322.9417,-29.849 325.7846,-19.6427 317.1975,-25.8485 322.9417,-29.849"/>
</g>
<!-- Node19 -->
<g id="node20" class="node">
<title>Node19</title>
<polygon fill="none" stroke="#bfbfbf" points="229,-.5 229,-19.5 280,-19.5 280,-.5 229,-.5"/>
<text text-anchor="middle" x="254.5" y="-7.5" font-family="Helvetica,sans-Serif" font-size="10.00" fill="#000000">variant</text>
</g>
<!-- Node17&#45;&gt;Node19 -->
<g id="edge23" class="edge">
<title>Node17&#45;&gt;Node19</title>
<path fill="none" stroke="#191970" d="M286.7067,-56.2455C281.2822,-48.4564 273.5339,-37.3308 266.9967,-27.9439"/>
<polygon fill="#191970" stroke="#191970" points="269.8025,-25.8485 261.2154,-19.6427 264.0583,-29.849 269.8025,-25.8485"/>
</g>
<!-- Node20 -->
<g id="node21" class="node">
<title>Node20</title>
<polygon fill="none" stroke="#bfbfbf" points="1001,-.5 1001,-19.5 1042,-19.5 1042,-.5 1001,-.5"/>
<text text-anchor="middle" x="1021.5" y="-7.5" font-family="Helvetica,sans-Serif" font-size="10.00" fill="#000000">tuple</text>
</g>
<!-- Node17&#45;&gt;Node20 -->
<g id="edge24" class="edge">
<title>Node17&#45;&gt;Node20</title>
<path fill="none" stroke="#191970" d="M324.5732,-61.5612C338.8458,-59.6395 356.0079,-57.4931 371.5,-56 617.9864,-32.2435 680.7722,-41.1023 927.5,-20 948.6871,-18.1879 972.5073,-15.6484 990.8677,-13.5821"/>
<polygon fill="#191970" stroke="#191970" points="991.4465,-17.0388 1000.9859,-12.4292 990.6539,-10.0838 991.4465,-17.0388"/>
</g>
<!-- Node22&#45;&gt;Node2 -->
<g id="edge28" class="edge">
<title>Node22&#45;&gt;Node2</title>
<path fill="none" stroke="#191970" d="M222.5,-112.2455C222.5,-104.9382 222.5,-94.6944 222.5,-85.7046"/>
<polygon fill="#191970" stroke="#191970" points="226.0001,-85.6426 222.5,-75.6427 219.0001,-85.6427 226.0001,-85.6426"/>
</g>
<!-- Node22&#45;&gt;Node6 -->
<g id="edge29" class="edge">
<title>Node22&#45;&gt;Node6</title>
<path fill="none" stroke="#191970" d="M205.7781,-112.2455C190.9111,-103.5731 168.9534,-90.7645 151.9142,-80.825"/>
<polygon fill="#191970" stroke="#191970" points="153.4317,-77.6582 143.0303,-75.6427 149.9045,-83.7047 153.4317,-77.6582"/>
</g>
<!-- Node22&#45;&gt;Node17 -->
<g id="edge30" class="edge">
<title>Node22&#45;&gt;Node17</title>
<path fill="none" stroke="#191970" d="M234.8673,-112.2455C245.4554,-103.8943 260.9064,-91.7076 273.2893,-81.9408"/>
<polygon fill="#191970" stroke="#191970" points="275.5903,-84.5837 281.2745,-75.6427 271.2553,-79.0875 275.5903,-84.5837"/>
</g>
<!-- Node23 -->
<g id="node24" class="node">
<title>Node23</title>
<polygon fill="none" stroke="#bfbfbf" points="0,-56.5 0,-75.5 53,-75.5 53,-56.5 0,-56.5"/>
<text text-anchor="middle" x="26.5" y="-63.5" font-family="Helvetica,sans-Serif" font-size="10.00" fill="#000000">cstddef</text>
</g>
<!-- Node22&#45;&gt;Node23 -->
<g id="edge31" class="edge">
<title>Node22&#45;&gt;Node23</title>
<path fill="none" stroke="#191970" d="M188.8064,-112.3733C153.6903,-102.3401 98.8514,-86.6718 62.7966,-76.3704"/>
<polygon fill="#191970" stroke="#191970" points="63.7342,-72.9983 53.1574,-73.6164 61.8111,-79.729 63.7342,-72.9983"/>
</g>
<!-- Node24&#45;&gt;Node2 -->
<g id="edge34" class="edge">
<title>Node24&#45;&gt;Node2</title>
<path fill="none" stroke="#191970" d="M986.2548,-339.9081C902.413,-327.7681 718.0162,-297.0592 570.5,-244 442.528,-197.9706 301.6523,-114.9238 246.5014,-81.0252"/>
<polygon fill="#191970" stroke="#191970" points="248.156,-77.9332 237.8096,-75.6521 244.4752,-83.8874 248.156,-77.9332"/>
</g>
<!-- Node24&#45;&gt;Node4 -->
<g id="edge35" class="edge">
<title>Node24&#45;&gt;Node4</title>
<path fill="none" stroke="#191970" d="M1076.8769,-340.3125C1130.9883,-330.8321 1219.1693,-306.2253 1259.5,-244 1291.9158,-193.9864 1262.5492,-119.4318 1245.5857,-84.8605"/>
<polygon fill="#191970" stroke="#191970" points="1248.6547,-83.1744 1240.9961,-75.8535 1242.4178,-86.3525 1248.6547,-83.1744"/>
</g>
<!-- Node25 -->
<g id="node26" class="node">
<title>Node25</title>
<polygon fill="none" stroke="#bfbfbf" points="1238.5,-280.5 1238.5,-299.5 1292.5,-299.5 1292.5,-280.5 1238.5,-280.5"/>
<text text-anchor="middle" x="1265.5" y="-287.5" font-family="Helvetica,sans-Serif" font-size="10.00" fill="#000000">ciso646</text>
</g>
<!-- Node24&#45;&gt;Node25 -->
<g id="edge33" class="edge">
<title>Node24&#45;&gt;Node25</title>
<path fill="none" stroke="#191970" d="M1071.8066,-336.4583C1110.8617,-327.1975 1171.7598,-312.7167 1224.5,-300 1225.742,-299.7005 1227.005,-299.3955 1228.2805,-299.0869"/>
<polygon fill="#191970" stroke="#191970" points="1229.2652,-302.4496 1238.1578,-296.69 1227.6144,-295.6471 1229.2652,-302.4496"/>
</g>
<!-- Node26 -->
<g id="node27" class="node">
<title>Node26</title>
<g id="a_node27"><a xlink:href="PixelBuffer_8hxx.html" target="_top" xlink:title="../util/PixelBuffer.hxx">
<polygon fill="none" stroke="#000000" points="972.5,-280.5 972.5,-299.5 1090.5,-299.5 1090.5,-280.5 972.5,-280.5"/>
<text text-anchor="middle" x="1031.5" y="-287.5" font-family="Helvetica,sans-Serif" font-size="10.00" fill="#000000">../util/PixelBuffer.hxx</text>
</a>
</g>
</g>
<!-- Node24&#45;&gt;Node26 -->
<g id="edge36" class="edge">
<title>Node24&#45;&gt;Node26</title>
<path fill="none" stroke="#191970" d="M1031.5,-336.2455C1031.5,-328.9382 1031.5,-318.6944 1031.5,-309.7046"/>
<polygon fill="#191970" stroke="#191970" points="1035.0001,-309.6426 1031.5,-299.6427 1028.0001,-309.6427 1035.0001,-309.6426"/>
</g>
<!-- Node26&#45;&gt;Node4 -->
<g id="edge37" class="edge">
<title>Node26&#45;&gt;Node4</title>
<path fill="none" stroke="#191970" d="M1045.3611,-280.3306C1065.0777,-266.8007 1102.5979,-241.8747 1136.5,-224 1172.0683,-205.2468 1195.2948,-220.1076 1219.5,-188 1242.0156,-158.1336 1241.2168,-112.0519 1238.4628,-85.9066"/>
<polygon fill="#191970" stroke="#191970" points="1241.9029,-85.2107 1237.1809,-75.7264 1234.9578,-86.0853 1241.9029,-85.2107"/>
</g>
<!-- Node27 -->
<g id="node28" class="node">
<title>Node27</title>
<g id="a_node28"><a xlink:href="Rectangle_8hxx.html" target="_top" xlink:title="../util/Rectangle.hxx">
<polygon fill="none" stroke="#000000" points="975,-224.5 975,-243.5 1088,-243.5 1088,-224.5 975,-224.5"/>
<text text-anchor="middle" x="1031.5" y="-231.5" font-family="Helvetica,sans-Serif" font-size="10.00" fill="#000000">../util/Rectangle.hxx</text>
</a>
</g>
</g>
<!-- Node26&#45;&gt;Node27 -->
<g id="edge38" class="edge">
<title>Node26&#45;&gt;Node27</title>
<path fill="none" stroke="#191970" d="M1031.5,-280.2455C1031.5,-272.9382 1031.5,-262.6944 1031.5,-253.7046"/>
<polygon fill="#191970" stroke="#191970" points="1035.0001,-253.6426 1031.5,-243.6427 1028.0001,-253.6427 1035.0001,-253.6426"/>
</g>
<!-- Node30 -->
<g id="node31" class="node">
<title>Node30</title>
<g id="a_node31"><a xlink:href="Range_8hxx.html" target="_top" xlink:title="../util/Range.hxx">
<polygon fill="none" stroke="#000000" points="579.5,-224.5 579.5,-243.5 675.5,-243.5 675.5,-224.5 579.5,-224.5"/>
<text text-anchor="middle" x="627.5" y="-231.5" font-family="Helvetica,sans-Serif" font-size="10.00" fill="#000000">../util/Range.hxx</text>
</a>
</g>
</g>
<!-- Node26&#45;&gt;Node30 -->
<g id="edge45" class="edge">
<title>Node26&#45;&gt;Node30</title>
<path fill="none" stroke="#191970" d="M972.3223,-281.7971C895.4481,-271.1413 762.0724,-252.6536 685.6872,-242.0656"/>
<polygon fill="#191970" stroke="#191970" points="686.1394,-238.5948 675.7535,-240.6886 685.1782,-245.5286 686.1394,-238.5948"/>
</g>
<!-- Node33 -->
<g id="node34" class="node">
<title>Node33</title>
<g id="a_node34"><a xlink:href="Color_8hxx.html" target="_top" xlink:title="../util/Color.hxx">
<polygon fill="none" stroke="#000000" points="866.5,-224.5 866.5,-243.5 956.5,-243.5 956.5,-224.5 866.5,-224.5"/>
<text text-anchor="middle" x="911.5" y="-231.5" font-family="Helvetica,sans-Serif" font-size="10.00" fill="#000000">../util/Color.hxx</text>
</a>
</g>
</g>
<!-- Node26&#45;&gt;Node33 -->
<g id="edge49" class="edge">
<title>Node26&#45;&gt;Node33</title>
<path fill="none" stroke="#191970" d="M1010.8713,-280.3733C991.6081,-271.3838 962.6514,-257.8706 940.9581,-247.7471"/>
<polygon fill="#191970" stroke="#191970" points="942.4015,-244.5584 931.8595,-243.5011 939.4413,-250.9017 942.4015,-244.5584"/>
</g>
<!-- Node35 -->
<g id="node36" class="node">
<title>Node35</title>
<g id="a_node36"><a xlink:href="PixelBuffer_8inl_8hxx.html" target="_top" xlink:title="PixelBuffer.inl.hxx">
<polygon fill="none" stroke="#000000" points="1145,-224.5 1145,-243.5 1250,-243.5 1250,-224.5 1145,-224.5"/>
<text text-anchor="middle" x="1197.5" y="-231.5" font-family="Helvetica,sans-Serif" font-size="10.00" fill="#000000">PixelBuffer.inl.hxx</text>
</a>
</g>
</g>
<!-- Node26&#45;&gt;Node35 -->
<g id="edge52" class="edge">
<title>Node26&#45;&gt;Node35</title>
<path fill="none" stroke="#191970" d="M1060.0364,-280.3733C1087.5202,-271.1016 1129.2686,-257.0178 1159.5452,-246.804"/>
<polygon fill="#191970" stroke="#191970" points="1160.9794,-250.0141 1169.336,-243.5011 1158.7418,-243.3813 1160.9794,-250.0141"/>
</g>
<!-- Node27&#45;&gt;Node3 -->
<g id="edge40" class="edge">
<title>Node27&#45;&gt;Node3</title>
<path fill="none" stroke="#191970" d="M1033.6846,-224.3172C1039.7472,-194.6898 1053.5152,-104.3462 1008.5,-56 987.6282,-33.5838 954.6346,-21.9811 928.5214,-16.0404"/>
<polygon fill="#191970" stroke="#191970" points="929.0337,-12.5721 918.5304,-13.962 927.6079,-19.4254 929.0337,-12.5721"/>
</g>
<!-- Node27&#45;&gt;Node20 -->
<g id="edge39" class="edge">
<title>Node27&#45;&gt;Node20</title>
<path fill="none" stroke="#191970" d="M1039.9977,-224.2186C1047.0403,-215.4179 1056.5171,-201.786 1060.5,-188 1076.7833,-131.6384 1080.7057,-111.0773 1060.5,-56 1056.4432,-44.9418 1048.4203,-34.7193 1040.7006,-26.7335"/>
<polygon fill="#191970" stroke="#191970" points="1042.8698,-23.9632 1033.24,-19.5451 1038.0128,-29.0041 1042.8698,-23.9632"/>
</g>
<!-- Node28 -->
<g id="node29" class="node">
<title>Node28</title>
<g id="a_node29"><a xlink:href="iShape_8hxx.html" target="_top" xlink:title="../util/iShape.hxx">
<polygon fill="none" stroke="#000000" points="1112.5,-168.5 1112.5,-187.5 1210.5,-187.5 1210.5,-168.5 1112.5,-168.5"/>
<text text-anchor="middle" x="1161.5" y="-175.5" font-family="Helvetica,sans-Serif" font-size="10.00" fill="#000000">../util/iShape.hxx</text>
</a>
</g>
</g>
<!-- Node27&#45;&gt;Node28 -->
<g id="edge41" class="edge">
<title>Node27&#45;&gt;Node28</title>
<path fill="none" stroke="#191970" d="M1053.8478,-224.3733C1074.9033,-215.3032 1106.6495,-201.6279 1130.2175,-191.4755"/>
<polygon fill="#191970" stroke="#191970" points="1131.6444,-194.6719 1139.4438,-187.5011 1128.875,-188.243 1131.6444,-194.6719"/>
</g>
<!-- Node29 -->
<g id="node30" class="node">
<title>Node29</title>
<g id="a_node30"><a xlink:href="Rectangle_8inl_8hxx.html" target="_top" xlink:title="Rectangle.inl.hxx">
<polygon fill="none" stroke="#000000" points="879,-168.5 879,-187.5 980,-187.5 980,-168.5 879,-168.5"/>
<text text-anchor="middle" x="929.5" y="-175.5" font-family="Helvetica,sans-Serif" font-size="10.00" fill="#000000">Rectangle.inl.hxx</text>
</a>
</g>
</g>
<!-- Node27&#45;&gt;Node29 -->
<g id="edge42" class="edge">
<title>Node27&#45;&gt;Node29</title>
<path fill="none" stroke="#191970" d="M1013.733,-224.2455C997.7905,-215.4928 974.1741,-202.527 956.0011,-192.5496"/>
<polygon fill="#191970" stroke="#191970" points="957.5137,-189.3873 947.0634,-187.6427 954.1448,-195.5233 957.5137,-189.3873"/>
</g>
<!-- Node29&#45;&gt;Node7 -->
<g id="edge44" class="edge">
<title>Node29&#45;&gt;Node7</title>
<path fill="none" stroke="#191970" d="M882.026,-168.4369C828.0551,-157.5651 740.9442,-140.0175 690.6826,-129.8929"/>
<polygon fill="#191970" stroke="#191970" points="691.3364,-126.4544 680.8421,-127.9106 689.954,-133.3165 691.3364,-126.4544"/>
</g>
<!-- Node29&#45;&gt;Node15 -->
<g id="edge43" class="edge">
<title>Node29&#45;&gt;Node15</title>
<path fill="none" stroke="#191970" d="M931.1199,-168.4509C934.2188,-150.184 941.0433,-109.9553 945.1584,-85.6976"/>
<polygon fill="#191970" stroke="#191970" points="948.6623,-85.9694 946.8842,-75.5249 941.7609,-84.7986 948.6623,-85.9694"/>
</g>
<!-- Node30&#45;&gt;Node17 -->
<g id="edge47" class="edge">
<title>Node30&#45;&gt;Node17</title>
<path fill="none" stroke="#191970" d="M607.8467,-224.4249C588.9834,-215.2003 559.7184,-200.7988 534.5,-188 469.2664,-154.8928 453.8721,-144.8329 388.5,-112 366.6068,-101.0042 341.6704,-88.9473 322.8406,-79.9366"/>
<polygon fill="#191970" stroke="#191970" points="324.1312,-76.6744 313.599,-75.5241 321.115,-82.9913 324.1312,-76.6744"/>
</g>
<!-- Node31 -->
<g id="node32" class="node">
<title>Node31</title>
<polygon fill="none" stroke="#bfbfbf" points="644,-168.5 644,-187.5 697,-187.5 697,-168.5 644,-168.5"/>
<text text-anchor="middle" x="670.5" y="-175.5" font-family="Helvetica,sans-Serif" font-size="10.00" fill="#000000">iterator</text>
</g>
<!-- Node30&#45;&gt;Node31 -->
<g id="edge46" class="edge">
<title>Node30&#45;&gt;Node31</title>
<path fill="none" stroke="#191970" d="M634.99,-224.2455C641.0326,-216.3761 649.6903,-205.101 656.9441,-195.6542"/>
<polygon fill="#191970" stroke="#191970" points="659.7815,-197.7058 663.0958,-187.6427 654.2295,-193.4426 659.7815,-197.7058"/>
</g>
<!-- Node32 -->
<g id="node33" class="node">
<title>Node32</title>
<g id="a_node33"><a xlink:href="Range_8inl_8hxx.html" target="_top" xlink:title="Range.inl.hxx">
<polygon fill="none" stroke="#000000" points="543,-168.5 543,-187.5 626,-187.5 626,-168.5 543,-168.5"/>
<text text-anchor="middle" x="584.5" y="-175.5" font-family="Helvetica,sans-Serif" font-size="10.00" fill="#000000">Range.inl.hxx</text>
</a>
</g>
</g>
<!-- Node30&#45;&gt;Node32 -->
<g id="edge48" class="edge">
<title>Node30&#45;&gt;Node32</title>
<path fill="none" stroke="#191970" d="M620.01,-224.2455C613.9674,-216.3761 605.3097,-205.101 598.0559,-195.6542"/>
<polygon fill="#191970" stroke="#191970" points="600.7705,-193.4426 591.9042,-187.6427 595.2185,-197.7058 600.7705,-193.4426"/>
</g>
<!-- Node33&#45;&gt;Node3 -->
<g id="edge51" class="edge">
<title>Node33&#45;&gt;Node3</title>
<path fill="none" stroke="#191970" d="M942.2191,-224.4362C959.4074,-217.3313 979.3632,-205.7464 989.5,-188 1018.5982,-137.0581 1021.2429,-105.3373 989.5,-56 976.0295,-35.0631 950.4269,-23.5425 928.3708,-17.2666"/>
<polygon fill="#191970" stroke="#191970" points="929.0995,-13.8402 918.5427,-14.7372 927.3547,-20.6193 929.0995,-13.8402"/>
</g>
<!-- Node34 -->
<g id="node35" class="node">
<title>Node34</title>
<polygon fill="none" stroke="#bfbfbf" points="810.5,-168.5 810.5,-187.5 860.5,-187.5 860.5,-168.5 810.5,-168.5"/>
<text text-anchor="middle" x="835.5" y="-175.5" font-family="Helvetica,sans-Serif" font-size="10.00" fill="#000000">cstdint</text>
</g>
<!-- Node33&#45;&gt;Node34 -->
<g id="edge50" class="edge">
<title>Node33&#45;&gt;Node34</title>
<path fill="none" stroke="#191970" d="M898.2618,-224.2455C886.819,-215.814 870.0704,-203.4729 856.7525,-193.6598"/>
<polygon fill="#191970" stroke="#191970" points="858.7133,-190.757 848.5865,-187.6427 854.5609,-196.3924 858.7133,-190.757"/>
</g>
</g>
</svg>
